<svg xmlns="http://www.w3.org/2000/svg" width="90.501" height="90.545" viewBox="0 0 90.501 90.545">
  <g id="contabilidad" transform="translate(0)">
    <path id="Trazado_210478" data-name="Trazado 210478" d="M112.291,40H64v81.491h66.4V58.109H112.291Zm0,0" transform="translate(-51.927 -32.454)" fill="#dcf4ca"/>
    <path id="Trazado_210479" data-name="Trazado 210479" d="M136,290.254h52.818V248C188.818,269.687,161.858,290.254,136,290.254Zm0,0" transform="translate(-110.346 -201.218)" fill="#c9eeae"/>
    <path id="Trazado_210480" data-name="Trazado 210480" d="M11.018,8h33.2a3.018,3.018,0,0,1,3.018,3.018V53.273a3.018,3.018,0,0,1-3.018,3.018h-33.2A3.018,3.018,0,0,1,8,53.273V11.018A3.018,3.018,0,0,1,11.018,8Zm0,0" transform="translate(-6.491 -6.491)" fill="#d1e7f8"/>
    <path id="Trazado_210481" data-name="Trazado 210481" d="M320,58.109h18.109L320,40Zm0,0" transform="translate(-259.637 -32.454)" fill="#006df0"/>
    <path id="Trazado_210482" data-name="Trazado 210482" d="M32,32H62.182v7.545H32Zm0,0" transform="translate(-25.964 -25.963)" fill="#88f236"/>
    <g id="Grupo_145495" data-name="Grupo 145495" transform="translate(7.545 18.109)">
      <path id="Trazado_210483" data-name="Trazado 210483" d="M41.509,96h3.018a1.509,1.509,0,0,1,1.509,1.509v3.018a1.509,1.509,0,0,1-1.509,1.509H41.509A1.509,1.509,0,0,1,40,100.527V97.509A1.509,1.509,0,0,1,41.509,96Zm0,0" transform="translate(-40 -96)" fill="#006df0"/>
      <path id="Trazado_210484" data-name="Trazado 210484" d="M97.509,96h3.018a1.509,1.509,0,0,1,1.509,1.509v3.018a1.509,1.509,0,0,1-1.509,1.509H97.509A1.509,1.509,0,0,1,96,100.527V97.509A1.509,1.509,0,0,1,97.509,96Zm0,0" transform="translate(-85.436 -96)" fill="#006df0"/>
      <path id="Trazado_210485" data-name="Trazado 210485" d="M153.509,96h3.018a1.509,1.509,0,0,1,1.509,1.509v3.018a1.509,1.509,0,0,1-1.509,1.509h-3.018A1.509,1.509,0,0,1,152,100.527V97.509A1.509,1.509,0,0,1,153.509,96Zm0,0" transform="translate(-130.873 -96)" fill="#006df0"/>
      <path id="Trazado_210486" data-name="Trazado 210486" d="M41.509,152h3.018a1.509,1.509,0,0,1,1.509,1.509v3.018a1.509,1.509,0,0,1-1.509,1.509H41.509A1.509,1.509,0,0,1,40,156.527v-3.018A1.509,1.509,0,0,1,41.509,152Zm0,0" transform="translate(-40 -141.436)" fill="#006df0"/>
      <path id="Trazado_210487" data-name="Trazado 210487" d="M97.509,152h3.018a1.509,1.509,0,0,1,1.509,1.509v3.018a1.509,1.509,0,0,1-1.509,1.509H97.509A1.509,1.509,0,0,1,96,156.527v-3.018A1.509,1.509,0,0,1,97.509,152Zm0,0" transform="translate(-85.436 -141.436)" fill="#006df0"/>
      <path id="Trazado_210488" data-name="Trazado 210488" d="M153.509,152h3.018a1.509,1.509,0,0,1,1.509,1.509v3.018a1.509,1.509,0,0,1-1.509,1.509h-3.018A1.509,1.509,0,0,1,152,156.527v-3.018A1.509,1.509,0,0,1,153.509,152Zm0,0" transform="translate(-130.873 -141.436)" fill="#006df0"/>
      <path id="Trazado_210489" data-name="Trazado 210489" d="M41.509,208h3.018a1.509,1.509,0,0,1,1.509,1.509v3.018a1.509,1.509,0,0,1-1.509,1.509H41.509A1.509,1.509,0,0,1,40,212.527v-3.018A1.509,1.509,0,0,1,41.509,208Zm0,0" transform="translate(-40 -186.873)" fill="#006df0"/>
      <path id="Trazado_210490" data-name="Trazado 210490" d="M97.509,208h3.018a1.509,1.509,0,0,1,1.509,1.509v3.018a1.509,1.509,0,0,1-1.509,1.509H97.509A1.509,1.509,0,0,1,96,212.527v-3.018A1.509,1.509,0,0,1,97.509,208Zm0,0" transform="translate(-85.436 -186.873)" fill="#006df0"/>
    </g>
    <path id="Trazado_210491" data-name="Trazado 210491" d="M439.539,261.387a3.018,3.018,0,1,0-4.269-4.269l-2.134,2.133,4.269,4.269Zm0,0" transform="translate(-351.432 -207.899)" fill="#d1d3d4"/>
    <path id="Trazado_210492" data-name="Trazado 210492" d="M291.644,309.683,288,317.6l7.912-3.643L316.459,293.4l-4.268-4.268Zm0,0" transform="translate(-233.673 -234.595)" fill="#ed1c24"/>
    <path id="Trazado_210493" data-name="Trazado 210493" d="M416.234,275.429l3.188-3.187,4.269,4.268L420.5,279.7Zm0,0" transform="translate(-337.717 -220.888)" fill="#f7941d"/>
    <path id="Trazado_210494" data-name="Trazado 210494" d="M139.164,309.582A13.582,13.582,0,1,1,125.582,296,13.582,13.582,0,0,1,139.164,309.582Zm0,0" transform="translate(-90.873 -240.164)" fill="#ff9811"/>
    <path id="Trazado_210495" data-name="Trazado 210495" d="M40,147.164H70.182a3.028,3.028,0,0,0,3.018-3.018V120C73.2,135.014,58.351,147.164,40,147.164Zm0,0" transform="translate(-32.455 -97.364)" fill="#c2dff6"/>
    <path id="Trazado_210496" data-name="Trazado 210496" d="M153.509,208h3.018a1.509,1.509,0,0,1,1.509,1.509v3.018a1.509,1.509,0,0,1-1.509,1.509h-3.018A1.509,1.509,0,0,1,152,212.527v-3.018A1.509,1.509,0,0,1,153.509,208Zm0,0" transform="translate(-123.327 -168.764)" fill="#006df0"/>
    <path id="Trazado_210497" data-name="Trazado 210497" d="M119.091,288a15.091,15.091,0,1,0,15.091,15.091A15.091,15.091,0,0,0,119.091,288Zm0,27.163a12.073,12.073,0,1,1,12.073-12.073A12.072,12.072,0,0,1,119.091,315.164Zm0,0" transform="translate(-84.382 -233.673)"/>
    <path id="Trazado_210498" data-name="Trazado 210498" d="M158.036,324.527c1.843,0,3.018.893,3.018,1.509h3.018c0-2.144-1.9-3.881-4.527-4.376V320h-3.018v1.66c-2.628.491-4.527,2.229-4.527,4.376,0,2.54,2.651,4.527,6.036,4.527,1.843,0,3.018.893,3.018,1.509s-1.175,1.509-3.018,1.509-3.018-.893-3.018-1.509H152c0,2.144,1.9,3.881,4.527,4.376v1.66h3.018v-1.66c2.628-.491,4.527-2.229,4.527-4.376,0-2.54-2.651-4.527-6.036-4.527-1.843,0-3.018-.893-3.018-1.509S156.193,324.527,158.036,324.527Zm0,0" transform="translate(-123.327 -259.637)"/>
    <path id="Trazado_210499" data-name="Trazado 210499" d="M76.963,87.526H13.581V51.308H37.727a4.527,4.527,0,0,0,4.527-4.527V9.054h16.6V27.163H76.963V48.29h3.018V25.029L60.988,6.035H42.254V4.526A4.527,4.527,0,0,0,37.727,0H4.527A4.527,4.527,0,0,0,0,4.526V46.781a4.527,4.527,0,0,0,4.527,4.527h6.036V90.544H79.981V69.417H76.963ZM61.872,11.188,74.829,24.144H61.872ZM3.018,46.781V4.526A1.509,1.509,0,0,1,4.527,3.017h33.2a1.509,1.509,0,0,1,1.509,1.509V46.781a1.509,1.509,0,0,1-1.509,1.509H4.527a1.509,1.509,0,0,1-1.509-1.509Zm0,0" transform="translate(0 0.001)"/>
    <path id="Trazado_210500" data-name="Trazado 210500" d="M256,200h3.018v3.018H256Zm0,0" transform="translate(-207.709 -162.273)"/>
    <path id="Trazado_210501" data-name="Trazado 210501" d="M288,200h18.109v3.018H288Zm0,0" transform="translate(-233.673 -162.273)"/>
    <path id="Trazado_210502" data-name="Trazado 210502" d="M256,168h3.018v3.018H256Zm0,0" transform="translate(-207.709 -136.309)"/>
    <path id="Trazado_210503" data-name="Trazado 210503" d="M288,168h18.109v3.018H288Zm0,0" transform="translate(-233.673 -136.309)"/>
    <path id="Trazado_210504" data-name="Trazado 210504" d="M256,232h3.018v3.018H256Zm0,0" transform="translate(-207.709 -188.236)"/>
    <path id="Trazado_210505" data-name="Trazado 210505" d="M288,232h18.109v3.018H288Zm0,0" transform="translate(-233.673 -188.236)"/>
    <path id="Trazado_210506" data-name="Trazado 210506" d="M256,264h3.018v3.018H256Zm0,0" transform="translate(-207.709 -214.2)"/>
    <path id="Trazado_210507" data-name="Trazado 210507" d="M288,264h18.109v3.018H288Zm0,0" transform="translate(-233.673 -214.2)"/>
    <path id="Trazado_210508" data-name="Trazado 210508" d="M57.2,24H24V34.564H57.2Zm-3.018,7.545H27.018V27.018H54.182Zm0,0" transform="translate(-19.473 -19.473)"/>
    <path id="Trazado_210509" data-name="Trazado 210509" d="M38.036,88H35.018A3.018,3.018,0,0,0,32,91.018v3.018a3.018,3.018,0,0,0,3.018,3.018h3.018a3.018,3.018,0,0,0,3.018-3.018V91.018A3.018,3.018,0,0,0,38.036,88Zm-3.018,6.036V91.018h3.018v3.018Zm0,0" transform="translate(-25.964 -71.4)"/>
    <path id="Trazado_210510" data-name="Trazado 210510" d="M94.036,88H91.018A3.018,3.018,0,0,0,88,91.018v3.018a3.018,3.018,0,0,0,3.018,3.018h3.018a3.018,3.018,0,0,0,3.018-3.018V91.018A3.018,3.018,0,0,0,94.036,88Zm-3.018,6.036V91.018h3.018v3.018Zm0,0" transform="translate(-71.4 -71.4)"/>
    <path id="Trazado_210511" data-name="Trazado 210511" d="M150.036,88h-3.018A3.018,3.018,0,0,0,144,91.018v3.018a3.018,3.018,0,0,0,3.018,3.018h3.018a3.018,3.018,0,0,0,3.018-3.018V91.018A3.018,3.018,0,0,0,150.036,88Zm-3.018,6.036V91.018h3.018v3.018Zm0,0" transform="translate(-116.836 -71.4)"/>
    <path id="Trazado_210512" data-name="Trazado 210512" d="M38.036,144H35.018A3.018,3.018,0,0,0,32,147.018v3.018a3.018,3.018,0,0,0,3.018,3.018h3.018a3.018,3.018,0,0,0,3.018-3.018v-3.018A3.018,3.018,0,0,0,38.036,144Zm-3.018,6.036v-3.018h3.018v3.018Zm0,0" transform="translate(-25.964 -116.836)"/>
    <path id="Trazado_210513" data-name="Trazado 210513" d="M94.036,144H91.018A3.018,3.018,0,0,0,88,147.018v3.018a3.018,3.018,0,0,0,3.018,3.018h3.018a3.018,3.018,0,0,0,3.018-3.018v-3.018A3.018,3.018,0,0,0,94.036,144Zm-3.018,6.036v-3.018h3.018v3.018Zm0,0" transform="translate(-71.4 -116.836)"/>
    <path id="Trazado_210514" data-name="Trazado 210514" d="M150.036,144h-3.018A3.018,3.018,0,0,0,144,147.018v3.018a3.018,3.018,0,0,0,3.018,3.018h3.018a3.018,3.018,0,0,0,3.018-3.018v-3.018A3.018,3.018,0,0,0,150.036,144Zm-3.018,6.036v-3.018h3.018v3.018Zm0,0" transform="translate(-116.836 -116.836)"/>
    <path id="Trazado_210515" data-name="Trazado 210515" d="M38.036,200H35.018A3.018,3.018,0,0,0,32,203.018v3.018a3.018,3.018,0,0,0,3.018,3.018h3.018a3.018,3.018,0,0,0,3.018-3.018v-3.018A3.018,3.018,0,0,0,38.036,200Zm-3.018,6.036v-3.018h3.018v3.018Zm0,0" transform="translate(-25.964 -162.273)"/>
    <path id="Trazado_210516" data-name="Trazado 210516" d="M94.036,200H91.018A3.018,3.018,0,0,0,88,203.018v3.018a3.018,3.018,0,0,0,3.018,3.018h3.018a3.018,3.018,0,0,0,3.018-3.018v-3.018A3.018,3.018,0,0,0,94.036,200Zm-3.018,6.036v-3.018h3.018v3.018Zm0,0" transform="translate(-71.4 -162.273)"/>
    <path id="Trazado_210517" data-name="Trazado 210517" d="M150.036,200h-3.018A3.018,3.018,0,0,0,144,203.018v3.018a3.018,3.018,0,0,0,3.018,3.018h3.018a3.018,3.018,0,0,0,3.018-3.018v-3.018A3.018,3.018,0,0,0,150.036,200Zm-3.018,6.036v-3.018h3.018v3.018Zm0,0" transform="translate(-116.836 -162.273)"/>
    <path id="Trazado_210518" data-name="Trazado 210518" d="M316.367,249.749a4.634,4.634,0,0,0-6.4,0l-25.87,25.87a1.527,1.527,0,0,0-.3.436l-3.643,7.911a1.51,1.51,0,0,0,2,2l7.911-3.643a1.513,1.513,0,0,0,.436-.3l25.868-25.87a4.527,4.527,0,0,0,0-6.4Zm-27.813,29.946-3.954,1.822,1.822-3.954,19.289-19.29,2.134,2.134Zm21.429-21.429-2.134-2.133,1.057-1.057,2.134,2.134Zm4.256-4.255-1.067,1.067-2.134-2.134,1.068-1.067a1.543,1.543,0,0,1,2.132,0A1.51,1.51,0,0,1,314.238,254.01Zm0,0" transform="translate(-227.192 -201.596)"/>
  </g>
</svg>
