<svg xmlns="http://www.w3.org/2000/svg" width="424.9" height="218.801" viewBox="0 0 424.9 218.801">
  <g id="Grupo_143231" data-name="Grupo 143231" transform="translate(-107.805 -444.207)">
    <path id="Trazado_204107" data-name="Trazado 204107" d="M131.329,673.592S70.461,567.421,144.545,486.459c45.588-49.82,114.328-18.032,192.443-25.774,77.177-7.65,52.848-.732,86.648,6.576,48.912,10.576,61.814,33.5,80.388,69.122C563.39,650.247,499.153,672.5,499.153,672.5Z" transform="translate(0 -10.585)" fill="none"/>
    <g id="Grupo_143195" data-name="Grupo 143195" transform="translate(151.804 564.29)">
      <path id="Trazado_204108" data-name="Trazado 204108" d="M336.937,1080.6a115.048,115.048,0,0,0-2.881-16.055,2.436,2.436,0,0,1,2.348-3.077h21.53l3.517,19.132S336.485,1081.359,336.937,1080.6Z" transform="translate(-333.971 -1061.467)" fill="#cb5a4a"/>
      <path id="Trazado_204109" data-name="Trazado 204109" d="M347.482,1080.6a115.069,115.069,0,0,0-2.881-16.055,2.436,2.436,0,0,1,2.348-3.077h21.53L372,1080.6S347.029,1081.359,347.482,1080.6Z" transform="translate(-342.463 -1061.467)" fill="#ff725e"/>
    </g>
    <g id="Grupo_143196" data-name="Grupo 143196" transform="translate(306.411 564.29)">
      <path id="Trazado_204110" data-name="Trazado 204110" d="M1131.658,1080.6a115.017,115.017,0,0,0-2.881-16.055,2.436,2.436,0,0,1,2.348-3.077h21.53l3.517,19.132S1131.206,1081.359,1131.658,1080.6Z" transform="translate(-1128.692 -1061.467)" fill="#cb5a4a"/>
      <path id="Trazado_204111" data-name="Trazado 204111" d="M1142.2,1080.6a115.059,115.059,0,0,0-2.881-16.055,2.436,2.436,0,0,1,2.348-3.077h21.53l3.517,19.132S1141.75,1081.359,1142.2,1080.6Z" transform="translate(-1137.185 -1061.467)" fill="#ff725e"/>
    </g>
    <g id="Grupo_143198" data-name="Grupo 143198" transform="translate(161.647 525.62)">
      <path id="Trazado_204112" data-name="Trazado 204112" d="M435.311,864.574s-7.109-4.08-12.092-.219-3.469,6.176-7.452,13.153c-2.927,5.129,1.656,7.461,9.26,8.738s12.913,4.574,14.844,1.634S441.32,868.156,435.311,864.574Z" transform="translate(-408.979 -862.693)" fill="#8e342e"/>
      <path id="Trazado_204113" data-name="Trazado 204113" d="M440.532,971.448c-1.55,1.2-2.53,5.516-5.03,6.228-9.367,2.674-14.4-8.45-16.041-13.88a8.158,8.158,0,0,1,3.161-1.15c.681-.116,1.4-.206,1.994-.266,1.023-.87,2.439-4.287,2.525-9.486l.452.1,7.575,1.663s-.221,2.392-.274,4.645c-.04,1.763-.1,2.185.039,2.394.589.1,1.283,1.6,1.283,1.6a.019.019,0,0,0,0,.007A48.153,48.153,0,0,1,440.532,971.448Z" transform="translate(-412.674 -935.346)" fill="#ffb27d"/>
      <path id="Trazado_204114" data-name="Trazado 204114" d="M468.841,955.063s-.223,2.39-.274,4.646c-4.254-.208-6.424-4.137-7.3-6.309Z" transform="translate(-446.344 -935.754)" fill="#ed985f"/>
      <g id="Grupo_143197" data-name="Grupo 143197" transform="translate(0 26.276)">
        <path id="Trazado_204115" data-name="Trazado 204115" d="M436.3,1030.259c-.572,0-1.151,0-1.728,0a53,53,0,0,1-9.458-.58c-1.609-.414-7.8-4.61-12.755-9.694a.005.005,0,0,1,0,0c-.384.916-.674,1.615-.682,1.671a25.756,25.756,0,0,1-.683,3.382,41.073,41.073,0,0,1-3.06,7.826l-2.653,0-20.712-.03s3.912-6.026,2.862-21.465c-.027-.39,3.606-12.847,3.606-12.847s2.822-.494,6.085-.757c.308.281.941,8.475,5.022,8.95.664.076,4.921,6.58,4.921,6.58l1.29-6.643-1.525-8.814a46.4,46.4,0,0,1,4.659,1.429,5.143,5.143,0,0,1,2.6,2.307c2.851,5.209,12.1,22.014,13.048,22.406a68.284,68.284,0,0,0,7.744,1.677h0C437.449,1026.121,441.138,1030.243,436.3,1030.259Z" transform="translate(-384.568 -997.76)" fill="#d2e3fc"/>
        <path id="Trazado_204116" data-name="Trazado 204116" d="M506.131,1178.2l-1.483,0,0-.006Z" transform="translate(-481.287 -1143.094)" fill="#d2e3fc"/>
      </g>
      <path id="Trazado_204117" data-name="Trazado 204117" d="M465.886,902.72s-10.073-.2-9.853-6.468-.933-10.52,5.508-10.659,7.605,2.3,8.041,4.409S468.511,902.61,465.886,902.72Z" transform="translate(-442.127 -881.134)" fill="#ffb27d"/>
      <path id="Trazado_204118" data-name="Trazado 204118" d="M551.357,1102.73c-.572,0-1.151,0-1.728,0a53.033,53.033,0,0,1-9.458-.58c-1.609-.414-7.8-4.611-12.755-9.694a.005.005,0,0,1,0,0,35.2,35.2,0,0,1,1.5-4.671c.45-.671,2.228,5.839,6.381,8.487s10.652,4.5,13.808,3.753C551.223,1099.517,551.441,1101.428,551.357,1102.73Z" transform="translate(-499.624 -1043.954)" fill="#b7d3f3"/>
      <path id="Trazado_204119" data-name="Trazado 204119" d="M496.526,954.766s.064.751,1.716.869c0,0,1.387.1,1.444-.708A4.069,4.069,0,0,0,496.526,954.766Z" transform="translate(-474.745 -936.67)" fill="#fff"/>
      <path id="Trazado_204120" data-name="Trazado 204120" d="M589.243,1144.737a32.691,32.691,0,0,1,4.739-.022,23.642,23.642,0,0,1,3.366,2.3,24.214,24.214,0,0,1,1.316,2.176s-.412.115-.6-.053-1.6-1.665-1.6-1.665l1.448,2.2a1.224,1.224,0,0,1-.7-.24c-.2-.219-1.551-1.594-1.551-1.594l-.461-.091a4.982,4.982,0,0,1,.724.717,4.429,4.429,0,0,1,.424.707,3.381,3.381,0,0,1-.541-.131c-.129-.061-1.342-1.123-1.342-1.123l.643.877a1.691,1.691,0,0,1-.576-.118,9.007,9.007,0,0,0-1.255-.965,5.65,5.65,0,0,1-1.892-.323c-.518-.275-2.144-.9-2.144-.9Z" transform="translate(-549.425 -1089.773)" fill="#ffb27d"/>
      <path id="Trazado_204121" data-name="Trazado 204121" d="M437.757,987.494a28.348,28.348,0,0,0-3.84,2.3s3.02,7.72,7.374,11.323l1.164-.826v1.877l4.359,2.852S437.534,989.829,437.757,987.494Z" transform="translate(-424.317 -963.215)" fill="#b7d3f3"/>
      <path id="Trazado_204122" data-name="Trazado 204122" d="M428.584,1082.027a41.073,41.073,0,0,1-3.06,7.826H427l-1.483,0H411.76s1.6,0,1.594-.011c-.038-.14,2.327-6.55-1.594-9.177s-5.352-9.1-5.352-9.1l12.5-3.053s5.149,7.514,6.615,8.946c1.125,1.1,3.747,1.182,3.747,1.182Z" transform="translate(-402.159 -1028.475)" fill="#b7d3f3"/>
      <path id="Trazado_204123" data-name="Trazado 204123" d="M498.375,993.249s1.45,10.575.356,15.53c0,0,1.784-3.278,2.034-3.879l-.3-1.8,1.151.4s-.913-8.443-1.934-9.842c-.452-.619-1.26-1.5-1.26-1.5Z" transform="translate(-476.235 -966.972)" fill="#b7d3f3"/>
      <path id="Trazado_204124" data-name="Trazado 204124" d="M521.11,1133.1s-10.6.926-16.462.665v-5.757c3.839,1.06,16.458,3.348,16.458,3.348Z" transform="translate(-481.287 -1076.396)" fill="#ffb27d"/>
      <path id="Trazado_204125" data-name="Trazado 204125" d="M398.861,999.32s-6.063.138-7.94,2.165,1.862,13.482,1.862,13.482,11.3,13.842,16.956,14.818c0,0,2.471.338,3.624.356,0,0-1.131-3.292.972-5.359,0,0-2.421-.677-2.521-.978S398.861,999.32,398.861,999.32Z" transform="translate(-389.261 -972.74)" fill="#d2e3fc"/>
      <path id="Trazado_204126" data-name="Trazado 204126" d="M462.472,882.732s-2.431,8.917-13.121,8.676c0,0-1.1-8.417,4.652-9.774S462.472,882.732,462.472,882.732Z" transform="translate(-436.68 -877.62)" fill="#8e342e"/>
      <path id="Trazado_204127" data-name="Trazado 204127" d="M512.082,893.193s.593-2.67-3.3-4.843c0,0,2.76-3.122,3.937-1.312S512.082,893.193,512.082,893.193Z" transform="translate(-484.619 -881.848)" fill="#8e342e"/>
      <path id="Trazado_204128" data-name="Trazado 204128" d="M445.771,981.523s-1.913,1-2.325,2.24a11.681,11.681,0,0,0,7.96,6.35S446.969,984.924,445.771,981.523Z" transform="translate(-431.992 -958.406)" fill="#ed7d2b"/>
      <path id="Trazado_204129" data-name="Trazado 204129" d="M487.161,987.494s.2,5.92-2.8,7.429c0,0,3.688-.43,4.134-3.75C488.76,989.206,488.112,987.932,487.161,987.494Z" transform="translate(-464.947 -963.215)" fill="#ed7d2b"/>
      <path id="Trazado_204130" data-name="Trazado 204130" d="M481.522,1023.151s-1.36,4.118-1.017,5.178,2.772,5.838,2.8,7.386a10.034,10.034,0,0,0,1.7-5.375C484.966,1027.4,481.522,1023.151,481.522,1023.151Z" transform="translate(-461.796 -991.935)" fill="#ed7d2b"/>
      <path id="Trazado_204131" data-name="Trazado 204131" d="M486.838,1023.652a13.46,13.46,0,0,0,0,3.653c.323.814,2.013,1.81,3.6,1.991a2.365,2.365,0,0,0-.257-2.082C489.484,1026.339,487.038,1024.825,486.838,1023.652Z" transform="translate(-466.827 -992.339)" fill="#f99746"/>
      <path id="Trazado_204132" data-name="Trazado 204132" d="M480.7,1019.668s.147-.784.539-.965,1.346.344,1.468.634a.877.877,0,0,1-.623,1.056C481.543,1020.513,480.6,1020.033,480.7,1019.668Z" transform="translate(-461.994 -988.322)" fill="#ed7d2b"/>
    </g>
    <g id="Grupo_143199" data-name="Grupo 143199" transform="translate(321.11 526.963)">
      <path id="Trazado_204133" data-name="Trazado 204133" d="M1235.253,871.4a8.9,8.9,0,0,0-4.326-1.63,10.571,10.571,0,0,1-1.752-.115c-6.95-.934-11.132,9.165-11.378,12.224-.453,5.64-3.437,6.5-7.637,10.032-8.421,7.082-5.951,15.312-1.347,18.37,2.763,1.835,7.632,0,7.632,0,.069.048,13.318-7.406,19.849-11C1246.085,897.888,1239.289,874.612,1235.253,871.4Z" transform="translate(-1204.526 -869.595)" fill="#233862"/>
      <path id="Trazado_204134" data-name="Trazado 204134" d="M1299.164,1015.969s-9.134-2.309-11.464-4.329c-1.975-1.713-6.152-17.633-8.145-21.675-1.344-2.725-7.333-4.546-8.976-4.878-.046-.052,1.4,14.8-.8,13.046-6.742-5.362-5.654-9.093-7.922-13.852-.136-.286-3.3,4.318-6.209,9.838-3.211,6.093-2.33,7.383-1.425,11.177.164.692.3,1.328.418,1.915,1.086,5.522.167,6.643,1.468,10.25.377,1.042,10.293,1.972,15.934,1.6,1.794-.119,3.157-.369,3.642-.79,1.731-1.5,1.825,1.132,1.993-9.81.439,1.085,3.376,8.8,5.179,9.639,2.534,1.173,17.029.323,17.029.323Z" transform="translate(-1243.828 -961.959)" fill="#d2e3fc"/>
      <path id="Trazado_204135" data-name="Trazado 204135" d="M1303.222,964.353c.029.018.679,8.476-.8,8.634-2.217.237-8.972-13.142-8.941-13.144.928-.043,1.946-.854,2.731-6.176l.395.142,6.642,2.39s-.481,2.131-.792,4.16A6.016,6.016,0,0,0,1303.222,964.353Z" transform="translate(-1276.119 -937.311)" fill="#ffb27d"/>
      <path id="Trazado_204136" data-name="Trazado 204136" d="M1316.186,956.785s-.481,2.131-.792,4.161c-3.815-.687-5.312-4.488-5.85-6.55Z" transform="translate(-1289.059 -937.898)" fill="#ed975d"/>
      <path id="Trazado_204137" data-name="Trazado 204137" d="M1314.42,911.37s-9.088-1.22-8.241-6.867.244-9.609,6.082-9.069,6.64,2.864,6.816,4.817S1316.806,911.542,1314.42,911.37Z" transform="translate(-1286.305 -890.368)" fill="#ffb27d"/>
      <path id="Trazado_204138" data-name="Trazado 204138" d="M1307.951,895.09s-5.817,5.013-9.774,5.417-5.455-.866-5.455-.866a15.453,15.453,0,0,0,3.736-5.062,2.782,2.782,0,0,1,2.294-1.64C1301.576,892.7,1306.933,892.584,1307.951,895.09Z" transform="translate(-1275.509 -888.301)" fill="#233862"/>
      <path id="Trazado_204139" data-name="Trazado 204139" d="M1352.313,897.68a14.333,14.333,0,0,1,2.559,3.277,11,11,0,0,1,.3,5.848s3.032-5.9,1.315-8.76C1354.665,895.007,1352.313,897.68,1352.313,897.68Z" transform="translate(-1323.508 -891.341)" fill="#233862"/>
      <path id="Trazado_204140" data-name="Trazado 204140" d="M1277.243,1082.323c-5.641.375-15.557-.555-15.934-1.6-1.3-3.607-.382-4.728-1.468-10.25l2.721-7.661s-.45,8.531,2.066,10.775,10.3,4.332,11.524,6.206A6.865,6.865,0,0,1,1277.243,1082.323Z" transform="translate(-1249.026 -1025.225)" fill="#b7d3f3"/>
      <path id="Trazado_204141" data-name="Trazado 204141" d="M1316.069,1141.082s5.565-1.239,6.463-.745a13.072,13.072,0,0,1,3.367,2.918c.275.626-2-.475-2.739-.673a6.588,6.588,0,0,0-2.364.518,7.855,7.855,0,0,1-4.236.425Z" transform="translate(-1294.315 -1087.572)" fill="#ffb27d"/>
      <path id="Trazado_204142" data-name="Trazado 204142" d="M1222.275,984.313s-7.472.46-10.059,4.068c-3.641,5.078-10.865,26.722-6.725,29.609,4.662,3.251,21.218.85,21.218.85s.551-2.575-.216-3.821-13.223-3.258-13.8-3.833,7.187-11.211,7.187-12.936S1222.275,984.313,1222.275,984.313Z" transform="translate(-1204.248 -961.995)" fill="#d2e3fc"/>
      <path id="Trazado_204143" data-name="Trazado 204143" d="M1350.674,1148.78a10.767,10.767,0,0,0,1.548,1.684,1.139,1.139,0,0,0,.629.135l-.786-1.414Z" transform="translate(-1322.188 -1094.467)" fill="#ffb27d"/>
      <path id="Trazado_204144" data-name="Trazado 204144" d="M1349.29,1140.818l3.39,1.646a.6.6,0,0,1-.562.217,8.1,8.1,0,0,1-1.47-.4Z" transform="translate(-1321.073 -1088.053)" fill="#ffb27d"/>
      <path id="Trazado_204145" data-name="Trazado 204145" d="M1285.323,982.505a7.918,7.918,0,0,0-3.179.758s2.417,8.56,6.465,11.911l1.082-.768v1.745l4.053,2.652S1285.116,984.677,1285.323,982.505Z" transform="translate(-1266.99 -960.537)" fill="#b7d3f3"/>
      <path id="Trazado_204146" data-name="Trazado 204146" d="M1340.072,987.868s1.348,9.834.331,14.442c0,0,1.659-3.048,1.892-3.607l-.279-1.675,1.07.372s-.849-7.852-1.8-9.152c-.42-.576-1.172-1.393-1.172-1.393Z" transform="translate(-1313.649 -964.043)" fill="#b7d3f3"/>
      <path id="Trazado_204147" data-name="Trazado 204147" d="M1294.69,972.712s-1.758.911-2.141,2.061a9.225,9.225,0,0,0,6.71,6.755A66.129,66.129,0,0,1,1294.69,972.712Z" transform="translate(-1275.371 -952.651)" fill="#ed7d2b"/>
      <path id="Trazado_204148" data-name="Trazado 204148" d="M1329.541,986.274s-.149.776-.266,2.013c-.14,1.489-.649,3.367-2.235,4.164,0,0,3.43-.4,3.844-3.487C1331.13,987.135,1330.426,986.682,1329.541,986.274Z" transform="translate(-1303.152 -963.575)" fill="#ed7d2b"/>
      <path id="Trazado_204149" data-name="Trazado 204149" d="M1324.4,1015.677s-1.265,3.829-.945,4.815,2.578,5.429,2.606,6.868a9.332,9.332,0,0,0,1.585-5C1327.6,1019.627,1324.4,1015.677,1324.4,1015.677Z" transform="translate(-1300.222 -987.258)" fill="#ed7d2b"/>
      <path id="Trazado_204150" data-name="Trazado 204150" d="M1329.344,1016.143a12.517,12.517,0,0,0,0,3.4c.3.757,1.872,1.683,3.344,1.851a2.2,2.2,0,0,0-.239-1.936C1331.8,1018.641,1329.53,1017.234,1329.344,1016.143Z" transform="translate(-1304.9 -987.633)" fill="#f99746"/>
      <path id="Trazado_204151" data-name="Trazado 204151" d="M1323.637,1012.438s.137-.729.5-.9,1.252.319,1.365.589a.816.816,0,0,1-.579.982C1324.42,1013.223,1323.541,1012.777,1323.637,1012.438Z" transform="translate(-1300.405 -983.898)" fill="#ed7d2b"/>
      <path id="Trazado_204152" data-name="Trazado 204152" d="M1341.98,1088.315a.332.332,0,1,1,.332.332A.332.332,0,0,1,1341.98,1088.315Z" transform="translate(-1315.185 -1045.497)" fill="#233862"/>
      <path id="Trazado_204153" data-name="Trazado 204153" d="M1336.661,1115.452a.332.332,0,1,1,.332.332A.332.332,0,0,1,1336.661,1115.452Z" transform="translate(-1310.901 -1067.355)" fill="#233862"/>
    </g>
    <path id="Trazado_204226" data-name="Trazado 204226" d="M0,0H320.619V76.684H0Z" transform="translate(149.716 585.196)" fill="#455a64"/>
    <rect id="Rectángulo_43044" data-name="Rectángulo 43044" width="330.044" height="4.217" transform="translate(142.828 585.323)" fill="#263238"/>
    <path id="Trazado_204227" data-name="Trazado 204227" d="M0,0H320.2V29.4H0Z" transform="translate(149.716 609.017)" fill="#364851"/>
    <rect id="Rectángulo_43046" data-name="Rectángulo 43046" width="28.101" height="1.259" transform="translate(339.026 582.164)" fill="#233862"/>
    <rect id="Rectángulo_43047" data-name="Rectángulo 43047" width="19.68" height="1.259" transform="translate(190.146 582.164)" fill="#233862"/>
    <g id="Grupo_143202" data-name="Grupo 143202" transform="translate(357.957 550.615)">
      <g id="Grupo_143200" data-name="Grupo 143200">
        <path id="Trazado_204154" data-name="Trazado 204154" d="M1430.735,1017.7h-37.084l3.636-26.53h37.084Z" transform="translate(-1393.651 -991.17)" fill="#395a8e"/>
        <path id="Trazado_204155" data-name="Trazado 204155" d="M1435.224,1017.7H1398.14l3.636-26.53h37.084Z" transform="translate(-1397.267 -991.17)" fill="#233862"/>
      </g>
      <g id="Grupo_143201" data-name="Grupo 143201" transform="translate(15.074 11.471)">
        <path id="Trazado_204156" data-name="Trazado 204156" d="M1481.708,1050.135l-3.139,21.337h-7.434l.139-.948,3-20.388Z" transform="translate(-1471.136 -1050.134)" fill="#395a8e"/>
        <path id="Trazado_204157" data-name="Trazado 204157" d="M1481.359,1071.47h-7.433l3.139-21.338h7.433Z" transform="translate(-1473.383 -1050.132)" fill="#172a49"/>
        <path id="Trazado_204158" data-name="Trazado 204158" d="M1477.415,1155.883h12.318a.949.949,0,0,0-.949-.949h-11.23Z" transform="translate(-1476.193 -1134.546)" fill="#172a49"/>
        <path id="Trazado_204159" data-name="Trazado 204159" d="M1476.964,1155.883h-5.828l.139-.948h4.74A.948.948,0,0,1,1476.964,1155.883Z" transform="translate(-1471.136 -1134.546)" fill="#395a8e"/>
      </g>
    </g>
    <g id="Grupo_143210" data-name="Grupo 143210" transform="translate(371.996 531.348)">
      <g id="Grupo_143206" data-name="Grupo 143206" transform="translate(20.684 38.284)">
        <g id="Grupo_143203" data-name="Grupo 143203" transform="translate(30.786 44.524)">
          <path id="Trazado_204160" data-name="Trazado 204160" d="M1733.825,1365.373h.067a.706.706,0,0,0,.7-.724l-1.067-46.492-3.141-.369,2.679,46.864A.762.762,0,0,0,1733.825,1365.373Z" transform="translate(-1730.388 -1317.788)" fill="#172a49"/>
        </g>
        <g id="Grupo_143204" data-name="Grupo 143204" transform="translate(49.092 44.524)">
          <path id="Trazado_204161" data-name="Trazado 204161" d="M1827.922,1365.373h.067a.706.706,0,0,0,.7-.724l-1.066-46.492-3.141-.369,2.679,46.864A.762.762,0,0,0,1827.922,1365.373Z" transform="translate(-1824.484 -1317.788)" fill="#172a49"/>
        </g>
        <g id="Grupo_143205" data-name="Grupo 143205" transform="translate(1.246 44.524)">
          <path id="Trazado_204162" data-name="Trazado 204162" d="M1579.311,1365.373h-.067a.706.706,0,0,1-.7-.724l1.066-46.492,3.141-.369-2.679,46.864A.762.762,0,0,1,1579.311,1365.373Z" transform="translate(-1578.541 -1317.788)" fill="#172a49"/>
        </g>
        <path id="Trazado_204163" data-name="Trazado 204163" d="M1674.813,1130.933v-31.859a10.121,10.121,0,0,0-10.091-10.15H1641.9a10.121,10.121,0,0,0-10.091,10.15v33.076Z" transform="translate(-1620.202 -1088.924)" fill="#172a49"/>
        <path id="Rectángulo_43048" data-name="Rectángulo 43048" d="M5.03,0H47.091a0,0,0,0,1,0,0V5.03a0,0,0,0,1,0,0H0a0,0,0,0,1,0,0v0A5.03,5.03,0,0,1,5.03,0Z" transform="translate(54.611 47.039) rotate(180)" fill="#172a49"/>
        <path id="Rectángulo_43049" data-name="Rectángulo 43049" d="M2.515,0H35.3a2.515,2.515,0,0,1,2.515,2.515v0A2.515,2.515,0,0,1,35.3,5.03H2.515A2.515,2.515,0,0,1,0,2.515v0A2.515,2.515,0,0,1,2.515,0Z" transform="translate(37.815 47.039) rotate(180)" fill="#172a49"/>
      </g>
      <path id="Trazado_204164" data-name="Trazado 204164" d="M1608.07,1040.175s2.051-.693,2.466,3.521c.315,3.2-1.9,28.04-3.575,30.014-4.7,5.555-10.589,3.208-12.9,4.051l-2.176-1.956s7.652-5.648,8.234-7.49C1602.365,1061.222,1600.835,1042.854,1608.07,1040.175Z" transform="translate(-1567.363 -1011.341)" fill="#ff725e"/>
      <path id="Trazado_204165" data-name="Trazado 204165" d="M1682.847,900.573s-.129-4.556,5.879-5.449,7.668.511,8.69,2.043,2.937,7.789,2.746,10.279-7.044,5.569-6.933,7.022S1682.847,900.573,1682.847,900.573Z" transform="translate(-1640.625 -894.317)" fill="#163560"/>
      <path id="Trazado_204166" data-name="Trazado 204166" d="M1642.694,1148.535s.033,4.585.019,6.458c-.017,2.212-4.39,8.126-4.39,8.126l5.949-1.026s3.7-4.494,3.7-4.785S1642.694,1148.535,1642.694,1148.535Z" transform="translate(-1604.763 -1098.654)" fill="#e66350"/>
      <path id="Trazado_204167" data-name="Trazado 204167" d="M1480.172,1496.743c.195,1.54-1.9,1.993-4.347,2.207s-1.685.7-5.016,1.438-4.708-.143-4.968-.6c-.231-.4,1.306-1.1,2.942-1.882.206-.1.412-.2.618-.3,1.84-.906,2.829-2.651,4.231-4.287,1.328-1.55,2.469-6.4,2.469-6.4l4.522-1.158s-1.126,4.367-1.505,6.227a5.8,5.8,0,0,0,.581,3.2A6.161,6.161,0,0,1,1480.172,1496.743Z" transform="translate(-1465.818 -1370.281)" fill="#ffb27d"/>
      <path id="Trazado_204168" data-name="Trazado 204168" d="M1475.824,1537.992c-2.443.214-1.685.7-5.016,1.438s-4.708-.143-4.968-.6c-.231-.4,1.306-1.1,2.942-1.882l.027.028a9.4,9.4,0,0,0,5.082-.125c2.2-.695,4.294-2.123,5.806-2.615a6.161,6.161,0,0,1,.475,1.545C1480.366,1537.324,1478.267,1537.778,1475.824,1537.992Z" transform="translate(-1465.818 -1409.323)" fill="#233862"/>
      <path id="Trazado_204169" data-name="Trazado 204169" d="M1550.626,1201.919s-30.23,3.136-35.212,7.764-4.1,47.74-4.1,47.74c.776.8,1.348.786,2.574.69a17.133,17.133,0,0,0,3.574-1.1s6.474-21.17,6.555-26.071,1.1-13.219,3.161-13.71,26.529,2.254,29.212-5.477a16.663,16.663,0,0,0-1.772-14.09Z" transform="translate(-1502.417 -1138.223)" fill="#202b30"/>
      <path id="Trazado_204170" data-name="Trazado 204170" d="M1673.063,1073.645a13.756,13.756,0,0,1-7.55,2.359c-7,.255-15.741-.58-17.461-2.2a2.96,2.96,0,0,1-.726-2c-.189-2.687,1.094-7.108,1.956-10.766a11.679,11.679,0,0,0,.259-5.372c-.95-3.2-3.532-9.814-3.787-11.953s2.2-11.177,5.688-12.7a29.216,29.216,0,0,1,17.2-1.646c5.323,1.08,5.643,11.758,3.875,21.417-.046.249-.092.5-.14.741C1670.463,1061.328,1676.7,1071.206,1673.063,1073.645Z" transform="translate(-1610.734 -1002.172)" fill="#ff725e"/>
      <g id="Grupo_143207" data-name="Grupo 143207" transform="translate(40.071 5.364)">
        <path id="Trazado_204171" data-name="Trazado 204171" d="M1695.633,999.065c.1.623,1.8,1.632,5.442.672,3.49-.92,4.418-1.836,4.417-2.586,0-.888-2.026-2.306-2.007-7.772l-.418.082-7.036,1.393s.16,2.214.165,4.3C1696.2,996.906,1695.474,998.029,1695.633,999.065Z" transform="translate(-1690.977 -975.825)" fill="#ffb27d"/>
        <path id="Trazado_204172" data-name="Trazado 204172" d="M1697.773,991.2s.16,2.214.165,4.3c3.937-.111,6.019-3.7,6.871-5.693Z" transform="translate(-1692.719 -976.167)" fill="#ed975d"/>
        <path id="Trazado_204173" data-name="Trazado 204173" d="M1678.17,942.038s9.315.154,9.322-5.649,1.213-9.691-4.734-10.034-7.105,1.869-7.578,3.806S1675.747,941.849,1678.17,942.038Z" transform="translate(-1674.43 -925.033)" fill="#ffb27d"/>
        <path id="Trazado_204174" data-name="Trazado 204174" d="M1692.787,920.888s2.551,6.808,6.465,7.814,5.612-.042,5.612-.042a11.086,11.086,0,0,1-3.625-6.548S1694.711,917.648,1692.787,920.888Z" transform="translate(-1688.702 -919.709)" fill="#163560"/>
        <path id="Trazado_204175" data-name="Trazado 204175" d="M1676.508,924.016a8.226,8.226,0,0,0-2.369,3c-.464,1.478-.673,4.519-1.56,4.416,0,0-1.922-4.627.238-7.245C1675.107,921.409,1676.508,924.016,1676.508,924.016Z" transform="translate(-1671.792 -922.284)" fill="#163560"/>
      </g>
      <path id="Trazado_204176" data-name="Trazado 204176" d="M1605.036,1488.622c.071,1.551-2.058,1.826-4.51,1.834s-1.735.552-5.115,1.012-4.681-.539-4.9-1.011c-.2-.419,1.389-.985,3.082-1.629.213-.08.427-.163.64-.246,1.907-.748,3.032-2.4,4.56-3.917,1.448-1.433-2.053-8.035-2.053-8.035l4.247-2.27s.968,4.762,2.153,8.917c.306,1.074,1.249,2.828,1.55,3.767A6.168,6.168,0,0,1,1605.036,1488.622Z" transform="translate(-1566.237 -1361.092)" fill="#ffb27d"/>
      <path id="Trazado_204177" data-name="Trazado 204177" d="M1679.442,1142.454c-1.3.873-3.451,3.373-7.364,3.512-6.459-1.469-13.812-3.179-18.187-4.2-.19-2.687,4.679-2.036,5.541-5.694a25.776,25.776,0,0,0,11.657-10.919c1.723-3.012,2.6-9.543,2.6-9.543l5.4,5.13c-.046.249-.092.5-.14.741C1677.027,1131.291,1683.081,1140.016,1679.442,1142.454Z" transform="translate(-1617.298 -1072.135)" fill="#eb6451"/>
      <path id="Trazado_204178" data-name="Trazado 204178" d="M1600.527,1542.97c-2.451.008-1.735.552-5.115,1.012s-4.681-.538-4.9-1.011c-.2-.419,1.389-.985,3.082-1.629l.025.03a9.4,9.4,0,0,0,5.075.3c2.245-.508,4.449-1.754,6-2.118a6.166,6.166,0,0,1,.349,1.579C1605.107,1542.687,1602.978,1542.962,1600.527,1542.97Z" transform="translate(-1566.237 -1413.606)" fill="#233862"/>
      <path id="Trazado_204179" data-name="Trazado 204179" d="M1597.354,1220.392c-8.916-.686-30.483,2.41-34.887,5.73-5.42,4.087,10.065,48.283,10.065,48.283a20.011,20.011,0,0,0,2.367.11,16.946,16.946,0,0,0,4.25-1.034s-.849-26.006-2.658-30.982c-1.672-4.6-2.7-6.224-.6-6.5s28.236,3.06,30.418-4.832a19.55,19.55,0,0,0-.814-11.87S1604.417,1220.936,1597.354,1220.392Z" transform="translate(-1542.737 -1155.652)" fill="#263238"/>
      <path id="Trazado_204180" data-name="Trazado 204180" d="M1695.867,1032.919s2.752.876,4.275,4.827c1.9,4.939,3.487,24.848,1.817,26.823-4.7,5.555-20.369,6.732-22.676,7.575l-.635-2.627s16.728-8.428,16.473-10.343S1690.754,1032.161,1695.867,1032.919Z" transform="translate(-1637.243 -1005.517)" fill="#ff725e"/>
      <path id="Trazado_204181" data-name="Trazado 204181" d="M1742.766,895.232s-.382-2.431,2.989-3.058,3.434,6.533,3.8,8.26-.539,2.76-1.825,2.865S1742.766,895.232,1742.766,895.232Z" transform="translate(-1688.877 -892.135)" fill="#163560"/>
      <g id="Grupo_143208" data-name="Grupo 143208" transform="translate(30.796 61.951)">
        <path id="Trazado_204182" data-name="Trazado 204182" d="M1634.543,1216.044s-4.764-1.348-5.9-1.033-5.023,2.89-4.476,3.589,3.971-.419,5.547-.207,2.8.989,3.93.821a13.152,13.152,0,0,0,2.321-.614Z" transform="translate(-1624.116 -1214.11)" fill="#ffb27d"/>
        <path id="Trazado_204183" data-name="Trazado 204183" d="M1663.517,1212.511a17.875,17.875,0,0,1-2.994-1.879.186.186,0,0,0-.289.033c-.178.28-.344.821.474,1.359A4.4,4.4,0,0,0,1663.517,1212.511Z" transform="translate(-1653.09 -1210.577)" fill="#ffb27d"/>
      </g>
      <g id="Grupo_143209" data-name="Grupo 143209" transform="translate(15.419 64.465)">
        <path id="Trazado_204184" data-name="Trazado 204184" d="M1554.184,1223.5s-4.944.271-5.915.937-3.813,4.363-3.069,4.847,3.621-1.685,5.181-2,2.965.029,3.984-.5a13.165,13.165,0,0,0,2-1.334Z" transform="translate(-1545.077 -1223.5)" fill="#ffb27d"/>
      </g>
    </g>
    <g id="Grupo_143217" data-name="Grupo 143217" transform="translate(472.873 609.671)">
      <g id="Grupo_143212" data-name="Grupo 143212" transform="translate(4.457 21.265)">
        <path id="Trazado_204185" data-name="Trazado 204185" d="M2004.844,1409.694s3.726-4.347.23-7.108a9.916,9.916,0,0,0-4.636-1.421s2.951,4.948,2,5.44-2.891-5.751-2.891-5.751-5.812-.563-7.682.335c0,0,4.969,4.066,3.922,4.308s-6.413-3.749-6.413-3.749-5.409.92-5.121,4.22,2.152,4.319,2.971,4.231,5.611-1.917,5.716-1.246-2.78,2.865-4.8,2.968c0,0,3.814,4.206,6.348,2.992s2.751-3.138,4.331-3.86,2.929-.72,2.276.016-3.512,1.451-4.415,3.05-1.714,2.676.908,2.281,6.885-2.313,7.072-4.51Z" transform="translate(-1984.239 -1400.68)" fill="#b8d89f"/>
        <g id="Grupo_143211" data-name="Grupo 143211" transform="translate(2.669 5.353)">
          <path id="Trazado_204186" data-name="Trazado 204186" d="M1997.958,1428.22s14.692-.566,17.936,3.635a10.629,10.629,0,0,0,2.926,4.106l.344.938s-2.546-2.684-3.457-2.846C2015.707,1434.053,2017.132,1428.848,1997.958,1428.22Z" transform="translate(-1997.958 -1428.195)" fill="#77a4e5"/>
          <path id="Trazado_204187" data-name="Trazado 204187" d="M2101.76,1466.588a9.227,9.227,0,0,1,3.373,6.5l-.572.051s-1.007-4.308-2.828-5.994S2101.76,1466.588,2101.76,1466.588Z" transform="translate(-2080.898 -1458.821)" fill="#77a4e5"/>
        </g>
      </g>
      <g id="Grupo_143214" data-name="Grupo 143214" transform="translate(34.193 9.462)">
        <path id="Trazado_204188" data-name="Trazado 204188" d="M2140.99,1355.36s-5.927-3.319-3.161-7.824c0,0,2.213-2.766,4.584-3.477,0,0-1.264,6.718,0,6.876s.869-7.587.869-7.587,6.244-3,8.694-2.766c0,0-3.873,6.56-2.608,6.4s5.612-6.8,5.612-6.8,6.4-1.186,7.429,2.608-.632,5.69-1.581,5.927-7.034.158-6.876.948,4.268,2.055,6.56,1.343c0,0-2.529,6.244-5.848,5.927s-4.347-2.371-6.4-2.529-3.556.4-2.529.948,4.5.182,6.164,1.592,3,2.28-.079,2.913-8.615.237-9.721-2.134Z" transform="translate(-2137.093 -1340.01)" fill="#c3e5a8"/>
        <g id="Grupo_143213" data-name="Grupo 143213" transform="translate(0.766 3.969)">
          <path id="Trazado_204189" data-name="Trazado 204189" d="M2169.073,1360.412s-16.6,5.374-18.494,11.38a12.607,12.607,0,0,1-1.581,5.769v1.185s1.739-4.031,2.687-4.583C2151.686,1374.164,2147.972,1368.947,2169.073,1360.412Z" transform="translate(-2147.449 -1360.412)" fill="#c3e5a8"/>
          <path id="Trazado_204190" data-name="Trazado 204190" d="M2142.582,1445.513a10.948,10.948,0,0,0-1.1,8.618l.658-.177s-.639-5.211.7-7.832S2142.582,1445.513,2142.582,1445.513Z" transform="translate(-2141.032 -1428.363)" fill="#c3e5a8"/>
        </g>
      </g>
      <g id="Grupo_143216" data-name="Grupo 143216" transform="translate(0 0)">
        <path id="Trazado_204191" data-name="Trazado 204191" d="M1989.99,1311.607s7.813-4.375,4.167-10.314c0,0-2.917-3.646-6.042-4.584,0,0,1.667,8.855,0,9.064s-1.146-10-1.146-10-8.23-3.959-11.46-3.646c0,0,5.1,8.647,3.438,8.439s-7.4-8.96-7.4-8.96-8.439-1.562-9.793,3.438.833,7.5,2.083,7.814,9.272.208,9.064,1.25-5.626,2.709-8.647,1.771c0,0,3.333,8.23,7.709,7.813s5.73-3.125,8.438-3.334,4.688.521,3.334,1.25-5.938.239-8.126,2.1-3.959,3.006.1,3.839,11.355.313,12.814-2.813Z" transform="translate(-1961.33 -1291.373)" fill="#c4e4ab"/>
        <g id="Grupo_143215" data-name="Grupo 143215" transform="translate(4.282 5.232)">
          <path id="Trazado_204192" data-name="Trazado 204192" d="M1983.341,1318.267s21.878,7.084,24.378,15a16.619,16.619,0,0,0,2.084,7.605v1.563s-2.292-5.313-3.542-6.042C2006.26,1336.394,2011.157,1329.518,1983.341,1318.267Z" transform="translate(-1983.341 -1318.267)" fill="#c4e4ab"/>
          <path id="Trazado_204193" data-name="Trazado 204193" d="M2115.033,1430.446a14.43,14.43,0,0,1,1.451,11.36l-.868-.233s.843-6.869-.923-10.324S2115.033,1430.446,2115.033,1430.446Z" transform="translate(-2088.572 -1407.839)" fill="#c4e4ab"/>
        </g>
      </g>
      <path id="Trazado_204194" data-name="Trazado 204194" d="M2046.636,1499.018a15.305,15.305,0,0,1-15.305-15.305h30.611A15.305,15.305,0,0,1,2046.636,1499.018Z" transform="translate(-2017.713 -1446.295)" fill="#ff725e"/>
      <path id="Trazado_204195" data-name="Trazado 204195" d="M2090.645,1498.9a15.314,15.314,0,0,0,17.206-15.188h-3.8A15.308,15.308,0,0,1,2090.645,1498.9Z" transform="translate(-2065.488 -1446.294)" fill="#ff725e"/>
      <rect id="Rectángulo_43050" data-name="Rectángulo 43050" width="31.462" height="0.469" transform="translate(44.732 37.888) rotate(180)" fill="#77a4e5"/>
      <rect id="Rectángulo_43051" data-name="Rectángulo 43051" width="12.727" height="1.348" transform="translate(35.213 52.724) rotate(180)" fill="#77a4e5"/>
    </g>
    <g id="Grupo_143220" data-name="Grupo 143220" transform="translate(196.321 550.615)">
      <g id="Grupo_143218" data-name="Grupo 143218">
        <path id="Trazado_204196" data-name="Trazado 204196" d="M599.882,1017.7H562.8l3.636-26.53h37.084Z" transform="translate(-562.798 -991.17)" fill="#395a8e"/>
        <path id="Trazado_204197" data-name="Trazado 204197" d="M604.371,1017.7H567.288l3.636-26.53h37.084Z" transform="translate(-566.414 -991.17)" fill="#233862"/>
      </g>
      <g id="Grupo_143219" data-name="Grupo 143219" transform="translate(15.074 11.471)">
        <path id="Trazado_204198" data-name="Trazado 204198" d="M650.856,1050.135l-3.139,21.337h-7.434l.139-.948,3-20.388Z" transform="translate(-640.283 -1050.134)" fill="#395a8e"/>
        <path id="Trazado_204199" data-name="Trazado 204199" d="M650.506,1071.47h-7.433l3.139-21.338h7.433Z" transform="translate(-642.53 -1050.132)" fill="#172a49"/>
        <path id="Trazado_204200" data-name="Trazado 204200" d="M646.561,1155.883H658.88a.949.949,0,0,0-.949-.949H646.7Z" transform="translate(-645.34 -1134.546)" fill="#172a49"/>
        <path id="Trazado_204201" data-name="Trazado 204201" d="M646.111,1155.883h-5.828l.139-.948h4.741A.948.948,0,0,1,646.111,1155.883Z" transform="translate(-640.283 -1134.546)" fill="#395a8e"/>
      </g>
    </g>
    <g id="Grupo_143226" data-name="Grupo 143226" transform="translate(199.824 522.664)">
      <g id="Grupo_143221" data-name="Grupo 143221" transform="translate(0 0)">
        <path id="Trazado_204202" data-name="Trazado 204202" d="M626.563,1520.006h20.142c.969-1.182.612-5.545.465-6.969-.03-.287-.051-.454-.051-.454s-6.878-5.5-7.823-1.289c-.029.132-.064.261-.1.389-1.19,3.94-6.529,5.731-9.612,6.23A3.492,3.492,0,0,0,626.563,1520.006Z" transform="translate(-617.661 -1380.878)" fill="#1b3051"/>
        <path id="Trazado_204203" data-name="Trazado 204203" d="M729.823,1226.223c-.727,0-34.5,6.341-40.09,13.257-2.791,3.455-3.206,43.354-3.206,43.354s3.453,4.281,10.91,1.8c0,0,5.468-27.3,5.064-35.578-.112-2.289,23.077-.331,27.322-1.43s14.614-10.331,12.329-14.829S729.823,1226.223,729.823,1226.223Z" transform="translate(-665.96 -1152.545)" fill="#293a43"/>
        <path id="Trazado_204204" data-name="Trazado 204204" d="M729.234,1216.588a12.454,12.454,0,0,1-4.378,2.392,19.814,19.814,0,0,0-3.218.977c-2.005.921-5.81,5.03-5.456,5.439,1.134,1.31,5.7-2.1,6.578-1.86s-1.434,2.223-.518,2.762c.478.281,1.379-1.431,2.222-1.672,1.14-.326,1.9-2.048,2.238-2.166a27.235,27.235,0,0,0,3.44-2.718Z" transform="translate(-689.827 -1144.784)" fill="#ffb27d"/>
        <path id="Trazado_204205" data-name="Trazado 204205" d="M580.8,1520.006h20.142c.969-1.182.612-5.545.465-6.969-.03-.287-.051-.454-.051-.454s-6.878-5.5-7.823-1.289c-.029.132-.064.261-.1.389-1.19,3.94-6.529,5.731-9.612,6.23A3.492,3.492,0,0,0,580.8,1520.006Z" transform="translate(-580.804 -1380.878)" fill="#233862"/>
        <path id="Trazado_204206" data-name="Trazado 204206" d="M678.661,1226.223c-.727,0-34.5,6.341-40.09,13.257-2.791,3.455-3.206,43.354-3.206,43.354s3.453,4.281,10.91,1.8c0,0,5.468-27.3,5.064-35.578-.112-2.289,23.077-.331,27.321-1.43s14.615-10.331,12.329-14.829S678.661,1226.223,678.661,1226.223Z" transform="translate(-624.751 -1152.545)" fill="#263238"/>
        <path id="Trazado_204207" data-name="Trazado 204207" d="M860.03,940.447a32.788,32.788,0,0,0,7.179-1.563c2.752-.893,4.971-2.2,3.541-4.714-1.317-2.319-3.45-7.5-3.306-11.789l-5.122,4.127-3.479,2.8a41.715,41.715,0,0,0,.395,4.549q.1.792.247,1.707a1.24,1.24,0,0,1-.572,1.246l-.078.049A1.943,1.943,0,0,0,860.03,940.447Z" transform="translate(-804.006 -907.814)" fill="#ffb27d"/>
        <path id="Trazado_204208" data-name="Trazado 204208" d="M862.472,945.579a8.462,8.462,0,0,0,.128,2.816,14.551,14.551,0,0,0,6-2.98c-1.579-.433-2.153-2.14-3.33-1.981Z" transform="translate(-807.634 -924.762)" fill="#ed975d"/>
        <path id="Trazado_204209" data-name="Trazado 204209" d="M838.3,875.38s11.931,1.982,13.051-5.467,3.414-12.21-4.156-13.79-9.481,1.039-10.459,3.434S835.225,874.672,838.3,875.38Z" transform="translate(-786.331 -854.057)" fill="#ffb27d"/>
        <path id="Trazado_204210" data-name="Trazado 204210" d="M830.433,849.7c-.512,1.794.859,3.978,3.16,4.7,3.417,1.067,2.661,5.258,4.2,5.2s2.158-2.409,3.531-.53c1.171,1.6-.975,3.5-.827,4.382.253,1.509,2.617,4.6,4.747,4.442s6.116-10.278,5.319-13.41-3.986-6.434-7-6.89-7.209.848-8.177.848S830.709,848.731,830.433,849.7Z" transform="translate(-781.783 -847.497)" fill="#233862"/>
        <path id="Trazado_204211" data-name="Trazado 204211" d="M814.88,1019.533c.2,1.719.561,2.889,1.13,3.269,1.779,1.191,4.137,2.672,6.769,4.139,9.332,5.2,22.109,10.226,24.708,1.431,3.053-10.33,1.047-29.726-1.947-41.773-1.723-6.94-6.49-14.223-9.713-14.215-5.491.009-13.385,1.459-16.572,9.321-1.234,3.046-3.047,13.6-3.973,23.269A80.06,80.06,0,0,0,814.88,1019.533Z" transform="translate(-769.189 -948.088)" fill="#ff725e"/>
        <path id="Trazado_204212" data-name="Trazado 204212" d="M867.219,961.721l-1.653-2.658s-10.719,1.087-12.589,7.421C852.977,966.484,861.6,961.856,867.219,961.721Z" transform="translate(-800.028 -937.359)" fill="#eac3a0"/>
        <path id="Trazado_204213" data-name="Trazado 204213" d="M815.666,1145.878c.2,1.719.561,2.889,1.13,3.269,1.779,1.191,4.137,2.672,6.769,4.139,2.746-1.67,8.385-5.653,9.7-10.348,1.723-6.139.515-13.693.515-13.693Z" transform="translate(-769.975 -1074.433)" fill="#cb5a4a"/>
        <path id="Trazado_204214" data-name="Trazado 204214" d="M793.513,1013.244s-.956,26.384-2.457,31.6c-2.558,8.9-25.893,12.064-25.893,12.064a4.778,4.778,0,0,1-.761-4.146s13.95-11,14.358-13.088-3.039-16.279.9-21.437S790.865,1008.608,793.513,1013.244Z" transform="translate(-728.557 -979.435)" fill="#ff725e"/>
      </g>
      <g id="Grupo_143225" data-name="Grupo 143225" transform="translate(34.3 43.853)">
        <g id="Grupo_143222" data-name="Grupo 143222" transform="translate(56.501 52.512)">
          <path id="Trazado_204215" data-name="Trazado 204215" d="M1054.266,1386.208h.077a1.049,1.049,0,0,0,1.055-1.126l-4.192-42.243-3.658.329,6.019,42.47A.682.682,0,0,0,1054.266,1386.208Z" transform="translate(-1047.547 -1342.837)" fill="#172a49"/>
        </g>
        <g id="Grupo_143223" data-name="Grupo 143223" transform="translate(34.925 52.512)">
          <path id="Trazado_204216" data-name="Trazado 204216" d="M943.356,1386.208h.077a1.049,1.049,0,0,0,1.054-1.126l-4.192-42.243-3.658.329,6.019,42.47A.682.682,0,0,0,943.356,1386.208Z" transform="translate(-936.637 -1342.837)" fill="#172a49"/>
        </g>
        <g id="Grupo_143224" data-name="Grupo 143224" transform="translate(0 52.512)">
          <path id="Trazado_204217" data-name="Trazado 204217" d="M758.251,1386.208h-.077a1.049,1.049,0,0,1-1.054-1.126l4.192-42.243,3.658.329-6.019,42.47A.682.682,0,0,1,758.251,1386.208Z" transform="translate(-757.115 -1342.837)" fill="#172a49"/>
        </g>
        <path id="Trazado_204218" data-name="Trazado 204218" d="M923.593,1119.438l3.979-35.282c.522-5.085-1.165-10.063-8.436-10.448l-12.792-.786c-7.582-.316-11.005,6.051-11.965,10.953l-7.594,38.784Z" transform="translate(-861.558 -1072.91)" fill="#172a49"/>
        <path id="Rectángulo_43052" data-name="Rectángulo 43052" d="M3.381,0H60.924a0,0,0,0,1,0,0V3.381a3.381,3.381,0,0,1-3.381,3.381H3.381A3.381,3.381,0,0,1,0,3.381v0A3.381,3.381,0,0,1,3.381,0Z" transform="translate(1.047 46.367)" fill="#172a49"/>
        <path id="Rectángulo_43053" data-name="Rectángulo 43053" d="M3.381,0H36.745a0,0,0,0,1,0,0V3.381a3.381,3.381,0,0,1-3.381,3.381H3.381A3.381,3.381,0,0,1,0,3.381v0A3.381,3.381,0,0,1,3.381,0Z" transform="translate(25.226 46.367)" fill="#172a49"/>
      </g>
    </g>
    <path id="Trazado_204219" data-name="Trazado 204219" d="M588.433,464.589V496.73h-.354v-32.1Z" transform="translate(-386.84 -16.417)" fill="#ff725e"/>
    <path id="Trazado_204220" data-name="Trazado 204220" d="M805.063,462.6v32.511h-.356V462.58Z" transform="translate(-561.325 -14.798)" fill="#ff725e"/>
    <path id="Trazado_204225" data-name="Trazado 204225" d="M0,0H61.608V15.525H0Z" transform="translate(190.343 480.313)" fill="#ff725e"/>
    <g id="Grupo_143227" data-name="Grupo 143227" transform="translate(197.19 483.925)">
      <path id="Trazado_204221" data-name="Trazado 204221" d="M568.989,649.782l-1.425.4-.294-1.131,2.127-.679h.973v7.976h-1.38Z" transform="translate(-567.269 -648.368)" fill="#fff"/>
    </g>
    <g id="Grupo_143228" data-name="Grupo 143228" transform="translate(210.488 483.77)">
      <rect id="Rectángulo_43055" data-name="Rectángulo 43055" width="34.91" height="1.154" transform="translate(0 0)" fill="#fff"/>
      <rect id="Rectángulo_43056" data-name="Rectángulo 43056" width="28.737" height="1.154" transform="translate(0 3.177)" fill="#fff"/>
      <rect id="Rectángulo_43057" data-name="Rectángulo 43057" width="20.475" height="1.154" transform="translate(0 6.354)" fill="#fff"/>
    </g>
    <path id="Trazado_204222" data-name="Trazado 204222" d="M1348.1,468.069v31.464h-.356V468.106Z" transform="translate(-998.717 -19.22)" fill="#ff725e"/>
    <path id="Trazado_204223" data-name="Trazado 204223" d="M1564.738,444.207v36.106h-.356V444.246Z" transform="translate(-1173.211)" fill="#ff725e"/>
    <rect id="Rectángulo_43058" data-name="Rectángulo 43058" width="61.608" height="15.525" transform="translate(338.132 480.313)" fill="#ff725e"/>
    <g id="Grupo_143229" data-name="Grupo 143229" transform="translate(345.239 483.868)">
      <path id="Trazado_204224" data-name="Trazado 204224" d="M1328.279,655.012l2.726-2.319c1.086-.916,1.482-1.425,1.482-2.138a1.187,1.187,0,0,0-1.278-1.233c-.724,0-1.222.4-1.833,1.188l-.984-.769a3.246,3.246,0,0,1,2.919-1.663,2.376,2.376,0,0,1,2.613,2.387c0,1.244-.667,1.912-2.059,3.066l-1.629,1.358H1334v1.222h-5.724Z" transform="translate(-1328.279 -648.077)" fill="#fff"/>
    </g>
    <g id="Grupo_143230" data-name="Grupo 143230" transform="translate(358.277 483.77)">
      <rect id="Rectángulo_43059" data-name="Rectángulo 43059" width="34.91" height="1.154" transform="translate(0 0)" fill="#fff"/>
      <rect id="Rectángulo_43060" data-name="Rectángulo 43060" width="28.737" height="1.154" transform="translate(0 3.177)" fill="#fff"/>
      <rect id="Rectángulo_43061" data-name="Rectángulo 43061" width="20.475" height="1.154" transform="translate(0 6.354)" fill="#fff"/>
    </g>
    <rect id="Rectángulo_43062" data-name="Rectángulo 43062" width="397.385" height="1.225" rx="0.613" transform="translate(117.754 661.782)" fill="#2e3552"/>
  </g>
</svg>
