<svg xmlns="http://www.w3.org/2000/svg" xmlns:xlink="http://www.w3.org/1999/xlink" width="327.184" height="214.828" viewBox="0 0 327.184 214.828">
  <defs>
    <clipPath id="clip-path">
      <rect id="Rectángulo_43296" data-name="Rectángulo 43296" width="197.424" height="3.126" fill="#263238"/>
    </clipPath>
  </defs>
  <g id="Grupo_144527" data-name="Grupo 144527" transform="translate(-151.048 -143.427)">
    <g id="Grupo_144526" data-name="Grupo 144526" transform="translate(151.048 143.427)">
      <path id="Trazado_210035" data-name="Trazado 210035" d="M593.259,337.974a42.338,42.338,0,0,0,4.618-10.874l8.173-1.567.085-9.04.084-9.04-8.142-1.718a42.352,42.352,0,0,0-4.414-10.959l4.668-6.881L592,281.443l-6.332-6.452-6.967,4.539a42.318,42.318,0,0,0-10.875-4.617l-1.566-8.174-9.041-.085-9.04-.084-1.718,8.142a42.33,42.33,0,0,0-10.958,4.415l-6.882-4.669-6.452,6.333-6.452,6.333,4.54,6.967a42.27,42.27,0,0,0-4.618,10.875l-8.174,1.566-.084,9.04-.085,9.04,8.143,1.718a42.34,42.34,0,0,0,4.414,10.958l-4.668,6.881,6.332,6.453,6.333,6.452,6.967-4.54a42.332,42.332,0,0,0,10.875,4.618l1.566,8.173,9.041.085,9.04.085,1.718-8.144a42.3,42.3,0,0,0,10.958-4.414l6.881,4.669,6.453-6.333,6.452-6.333Zm-52.323-6.413a22.167,22.167,0,1,1,31.348.292A22.168,22.168,0,0,1,540.936,331.561Z" transform="translate(-279.035 -187.668)" fill="#263238"/>
      <path id="Trazado_210036" data-name="Trazado 210036" d="M269.31,235.577a31.6,31.6,0,0,0,2.6-8.43l5.952-1.787-.627-6.721-.627-6.722-6.179-.655a31.616,31.616,0,0,0-4.115-7.8l2.943-5.468-5.2-4.31-5.2-4.309-4.829,3.9a31.612,31.612,0,0,0-8.43-2.6l-1.787-5.952-6.722.627-6.722.627-.654,6.18a31.566,31.566,0,0,0-7.8,4.115l-5.467-2.943-4.31,5.2-4.309,5.2,3.9,4.829a31.575,31.575,0,0,0-2.6,8.43l-5.952,1.787.627,6.722.628,6.721,6.179.655a31.62,31.62,0,0,0,4.115,7.8l-2.943,5.467,5.2,4.31,5.2,4.31,4.829-3.9a31.585,31.585,0,0,0,8.431,2.6l1.787,5.952,6.721-.627,6.722-.627.655-6.18a31.605,31.605,0,0,0,7.8-4.115l5.467,2.942,4.31-5.2,4.31-5.2Zm-39.356-.771a16.552,16.552,0,1,1,23.308-2.175A16.553,16.553,0,0,1,229.954,234.806Z" transform="translate(-169.777 -158.263)" fill="#ff725e"/>
      <g id="Grupo_144299" data-name="Grupo 144299" transform="translate(101.988 47.796)">
        <path id="Trazado_210037" data-name="Trazado 210037" d="M507.234,383.49h-.566V343.21a16.272,16.272,0,0,0-16.255-16.253H448.97a16.841,16.841,0,0,1-16.821-16.821V234.843A16.272,16.272,0,0,0,415.9,218.589H310.222v-.567H415.9a16.84,16.84,0,0,1,16.821,16.821v75.292a16.273,16.273,0,0,0,16.254,16.254h41.443a16.839,16.839,0,0,1,16.821,16.821Z" transform="translate(-310.222 -218.022)" fill="#64a4ff"/>
      </g>
      <g id="Grupo_144312" data-name="Grupo 144312" transform="translate(106.57 22.283)">
        <g id="Grupo_144303" data-name="Grupo 144303">
          <g id="Grupo_144302" data-name="Grupo 144302">
            <g id="Grupo_144301" data-name="Grupo 144301">
              <g id="Grupo_144300" data-name="Grupo 144300">
                <path id="Trazado_210038" data-name="Trazado 210038" d="M339.877,178.2s6.4,25.468-8.96,32.43-12.414-5.785-12.414-5.785-6.3-1.75,10.843-11.469C337.424,188.8,339.877,178.2,339.877,178.2Z" transform="translate(-317.372 -178.204)" fill="#afe684"/>
              </g>
            </g>
          </g>
        </g>
        <g id="Grupo_144307" data-name="Grupo 144307" transform="translate(3.605 2.223)">
          <g id="Grupo_144306" data-name="Grupo 144306">
            <g id="Grupo_144305" data-name="Grupo 144305">
              <g id="Grupo_144304" data-name="Grupo 144304">
                <path id="Trazado_210039" data-name="Trazado 210039" d="M382.113,181.673s3.148,22.2-25.913,31.8S323,235.238,323,235.238,322.13,186.034,382.113,181.673Z" transform="translate(-322.999 -181.673)" fill="#95c375"/>
              </g>
            </g>
          </g>
        </g>
        <g id="Grupo_144311" data-name="Grupo 144311" transform="translate(1.435 26.288)">
          <g id="Grupo_144310" data-name="Grupo 144310">
            <g id="Grupo_144309" data-name="Grupo 144309">
              <g id="Grupo_144308" data-name="Grupo 144308">
                <path id="Trazado_210040" data-name="Trazado 210040" d="M321.653,239.689c-8.617-3.289,11.866-20.924,27.607-20.448s26.409,6.3,36.953,3.84C386.213,223.081,364.087,255.886,321.653,239.689Z" transform="translate(-319.612 -219.231)" fill="#7aa15e"/>
              </g>
            </g>
          </g>
        </g>
      </g>
      <g id="Grupo_144334" data-name="Grupo 144334" transform="translate(54.158)">
        <g id="Grupo_144314" data-name="Grupo 144314" transform="translate(3.449 51.464)">
          <g id="Grupo_144313" data-name="Grupo 144313">
            <path id="Trazado_210041" data-name="Trazado 210041" d="M322.346,256.047q.744-10.043,1.037-18.8c-1.616-.856-3.557-1.856-5.111-2.593-4.81-2.291-11.511-5.374-15.811-7.347-2.517-1.157-4.983-2-4.983-2s-17.185-1.647-18.58-1.559a43.239,43.239,0,0,0-5.406,1.848c-6.094,2.313-17.843,7.021-19.713,8.365-2.744,1.964-12.56,50.083-12.821,53.351-.254,3.174,13.351,7.517,25.95,10.844-.009,4.879-.108,11.713-.218,17.951-.017,1.066-.037,2.112-.057,3.127h55.131c-.074-1.071-.138-2.129-.192-3.127-.006-.133-.014-.263-.02-.394-.21-4.226-1.032-11.793-.822-19.164,0,0-.133-7.77.638-11.114C321.453,270.671,322.346,256.047,322.346,256.047Zm-69.908,28.291c.091-6.264,8.433-17.917,8.433-17.917a3.314,3.314,0,0,1,.391-.147c.005.006.43-.059.43-.054s1.3-1.227,1.3-1.227c.306,1.114,3.07,16.851,3.747,26.012C258.909,289.466,252.393,287.326,252.438,284.338Z" transform="translate(-240.955 -223.748)" fill="#dbd8e3"/>
          </g>
        </g>
        <g id="Grupo_144316" data-name="Grupo 144316" transform="translate(62.744 54.075)">
          <g id="Grupo_144315" data-name="Grupo 144315">
            <path id="Trazado_210042" data-name="Trazado 210042" d="M356.614,317.574c-.363-2.61-.705-5.218-1.015-7.772,0-.013-.005-.022-.005-.037-.1-.851-.2-1.69-.3-2.526-.006-.04-.008-.085-.014-.133-.4-3.517-.737-6.891-.978-9.98a31.591,31.591,0,0,1,.308-6.942c.959-15.8,1.435-32.453,1.435-32.453.5-6.817.793-13.189.986-19.127,0,0-21.579-10.2-23.535-10.783,0,0,4.094,9.612,7.163,31.095,1.179,8.251,3.364,22.141,4.952,36.316v0c.859,7.65,2.469,15.442,3.693,22.338.187,1.066.366,2.109.53,3.127h7.223Q356.828,319.141,356.614,317.574Z" transform="translate(-333.498 -227.822)" fill="#263238"/>
          </g>
        </g>
        <g id="Grupo_144318" data-name="Grupo 144318" transform="translate(0 52.358)">
          <g id="Grupo_144317" data-name="Grupo 144317">
            <path id="Trazado_210043" data-name="Trazado 210043" d="M285.505,291.237c.85-7.987,1.616-15.959,1.247-20.326-2.976-35.114-11.4-44.409-12.619-45.769-.944.36-4.538,1.709-5.59,2.126-5.76,2.27-17.5,6.432-19.082,7.568-2.744,1.964-13.561,52.41-13.887,55.673-.218,2.2,13.9,6.814,28.3,10.927-.133,3.948.24,9.517-1.072,15.333a13.469,13.469,0,0,0-.622,3.047l20.076-.079c.122-1.037.249-2.077.377-3.127.382-3.137.782-6.352,1.178-9.767,6.021,1.559,10.114,2.562,10.114,2.562s5.655-9.561,7.3-13.432C301.5,295.313,294.224,293.564,285.505,291.237ZM259.544,279.15c-.19-7.188-.156-12.2-.156-12.2.712,2.463,1.7,9.5,2.562,16.5C259.034,281.975,259.581,280.6,259.544,279.15Z" transform="translate(-235.572 -225.142)" fill="#263238"/>
          </g>
        </g>
        <g id="Grupo_144320" data-name="Grupo 144320" transform="translate(40.491 35.559)">
          <g id="Grupo_144319" data-name="Grupo 144319">
            <path id="Trazado_210044" data-name="Trazado 210044" d="M298.767,215.383s2.186-4.13,1.581-15.856c-.167-3.249,17.064,7.7,17.064,7.7s-.06,1.119-.1,2.63c-.019.629-.031,1.318-.031,2.027,0,.2,0,.391,0,.587,0,.32.006.638.012.955.008.394.023.779.042,1.151.02.422.048.822.088,1.188a10.8,10.8,0,0,0,.638,2.3C318.858,219.893,305.218,220,298.767,215.383Z" transform="translate(-298.767 -198.924)" fill="#eea987"/>
          </g>
        </g>
        <g id="Grupo_144321" data-name="Grupo 144321" transform="translate(52.948 59.476)">
          <path id="Trazado_210045" data-name="Trazado 210045" d="M320.2,236.251l3.176,4.267s-1.861,2.491-5.165.652Z" transform="translate(-318.208 -236.251)" fill="#e8734d"/>
        </g>
        <g id="Grupo_144322" data-name="Grupo 144322" transform="translate(54.638 63.802)">
          <path id="Trazado_210046" data-name="Trazado 210046" d="M323.472,243.116s11.634,28.416,9.152,64.51l-3.669,6.66-4.138-5.672s-.668-47.937-3.97-65.612Z" transform="translate(-320.846 -243.003)" fill="#ff725e"/>
        </g>
        <g id="Grupo_144323" data-name="Grupo 144323" transform="translate(47.732 54.283)">
          <path id="Trazado_210047" data-name="Trazado 210047" d="M320.672,229.362l-3.4,3.978s-5.457-1.057-7.059-3.907S320.672,229.362,320.672,229.362Z" transform="translate(-310.067 -228.147)" fill="#eea987"/>
        </g>
        <g id="Grupo_144324" data-name="Grupo 144324" transform="translate(54.937 52.017)">
          <path id="Trazado_210048" data-name="Trazado 210048" d="M325.493,224.61s-.395,3.032-4.18,7.459l4.131,5.551,2.236-11.515Z" transform="translate(-321.313 -224.61)" fill="#c4c1cc"/>
        </g>
        <g id="Grupo_144325" data-name="Grupo 144325" transform="translate(39.778 48.369)">
          <path id="Trazado_210049" data-name="Trazado 210049" d="M299.405,218.917s7.89,8.925,13.408,11.106l-2.566,6.346-12.593-13.891Z" transform="translate(-297.654 -218.917)" fill="#c4c1cc"/>
        </g>
        <g id="Grupo_144327" data-name="Grupo 144327" transform="translate(74.11 63.488)">
          <g id="Grupo_144326" data-name="Grupo 144326">
            <path id="Trazado_210050" data-name="Trazado 210050" d="M399.77,308.138s-10.473-10.157-17.343-11.846c-3.175-.782-7.358-5.166-11.333-10.318-1.31-1.7-2.595-3.478-3.818-5.241a.013.013,0,0,1,0-.008c-4.877-7.04-8.7-13.789-8.7-13.789s-14.414-16.892-2.847-24.421c0,0,4.957-.107,7.676,1.369,2.8,1.518,8.759,13.964,9.77,16.168s11.964,22.672,12.7,23.132a30.333,30.333,0,0,0,6.339,4.5c5.365,2.889,13.794,11.344,13.794,11.344Z" transform="translate(-351.236 -242.513)" fill="#263238"/>
          </g>
        </g>
        <g id="Grupo_144328" data-name="Grupo 144328" transform="translate(58.354 123.19)">
          <path id="Trazado_210051" data-name="Trazado 210051" d="M340.662,353.369a6.662,6.662,0,0,1-2.09-.4s-1.094-.7-1.9-1.154a6.234,6.234,0,0,0-.639-.323,12.153,12.153,0,0,1-3.518-1.676c-1.378-1.05-5.867-5.25-5.867-5.25l2.9-4.461,1.34-4.418s10.468,1.041,11.864,1.871a4.274,4.274,0,0,1,.384.257,15.553,15.553,0,0,1,2.136,2.389c.2.183,2.018,2.135,1.916,2.926a2.608,2.608,0,0,1-1.365,2.137,6.235,6.235,0,0,1-1.475,3.1,3.874,3.874,0,0,1-1.991,2.782S341.851,353.132,340.662,353.369Z" transform="translate(-326.646 -335.691)" fill="#efaa88"/>
        </g>
        <g id="Grupo_144329" data-name="Grupo 144329" transform="translate(39.147 5.561)">
          <path id="Trazado_210052" data-name="Trazado 210052" d="M313.225,152.453s18.92-4.561,14.935,19.394-8.524,25.9-20.049,21.122-10.725-20.1-11.411-27.595S307.173,152.8,313.225,152.453Z" transform="translate(-296.67 -152.106)" fill="#eea886"/>
        </g>
        <g id="Grupo_144330" data-name="Grupo 144330" transform="translate(40.991 20.694)">
          <path id="Trazado_210053" data-name="Trazado 210053" d="M304.318,177.527c-.281-2.1-4.458-2.815-4.747.35s2.021,8.678,3.594,8.109S304.707,180.428,304.318,177.527Z" transform="translate(-299.546 -175.724)" fill="#eea886"/>
        </g>
        <g id="Grupo_144331" data-name="Grupo 144331" transform="translate(37.637)">
          <path id="Trazado_210054" data-name="Trazado 210054" d="M296.958,174.5s.379-7.534,3.125-7.809,3.213,2.749,3.213,2.749l2.784.484s-.975-6.585,1.754-7.778,17.84,3.371,20.015,1.4.942-15.337-3.07-17.109-15.078-5.715-23.063-.139c0,0-6.3-.624-7.154,4.462S295.194,170.754,296.958,174.5Z" transform="translate(-294.312 -143.427)" fill="#16202e"/>
        </g>
        <g id="Grupo_144332" data-name="Grupo 144332" transform="translate(32.831 116.789)">
          <path id="Trazado_210055" data-name="Trazado 210055" d="M320.146,332.1l-7.812,13.431s-20.7-5.332-25.524-6.694L297.849,325.7S314.124,329.419,320.146,332.1Z" transform="translate(-286.811 -325.7)" fill="#263238"/>
        </g>
        <g id="Grupo_144333" data-name="Grupo 144333" transform="translate(44.981 42.369)">
          <path id="Trazado_210056" data-name="Trazado 210056" d="M319.859,218.4h0a18.094,18.094,0,0,1-14.081-8.847,20.977,20.977,0,0,0,14.028,6.154c0,.2,0,.391,0,.587,0,.32.006.638.012.955C319.825,217.642,319.84,218.027,319.859,218.4Z" transform="translate(-305.775 -209.552)" fill="#a77860"/>
        </g>
      </g>
      <g id="Grupo_144335" data-name="Grupo 144335" transform="translate(247.806 169.037)">
        <path id="Trazado_210057" data-name="Trazado 210057" d="M543.355,408.473a3.089,3.089,0,0,0-5.392.867h0A3.086,3.086,0,0,0,540.6,413.4c.08.007.161.013.243.013.051,0,.1,0,.153,0h.054a3.088,3.088,0,0,0,2.3-4.941Zm-1.676,4.033h0a2.347,2.347,0,0,1-.664.135h0c-.051,0-.1,0-.156,0a2.284,2.284,0,0,1-.631-.1,2.312,2.312,0,0,1-1.653-2.246,2.271,2.271,0,0,1,.06-.488,2.148,2.148,0,0,1,.062-.225,2.315,2.315,0,1,1,2.984,2.919Z" transform="translate(-537.801 -407.244)" fill="#4da8f2"/>
      </g>
      <g id="Grupo_144336" data-name="Grupo 144336" transform="translate(135.009 101.004)">
        <path id="Trazado_210058" data-name="Trazado 210058" d="M361.757,312.219c11.762,12.108,27.3,27.356,27.3,27.356l6.075-11.532s-13.8-16.181-23.16-26.979C369.106,302.47,363.84,305.826,361.757,312.219Z" transform="translate(-361.757 -301.064)" fill="#eea886"/>
      </g>
      <g id="Grupo_144338" data-name="Grupo 144338" transform="translate(126.298 128.439)">
        <g id="Grupo_144337" data-name="Grupo 144337">
          <path id="Trazado_210059" data-name="Trazado 210059" d="M349.609,343.882a34.489,34.489,0,0,1,3.994,2.212c.827.682,4.176,3.19,4.989,3.78s-1.224,2.268-7.215-.326S349.609,343.882,349.609,343.882Z" transform="translate(-348.163 -343.882)" fill="#eea886"/>
        </g>
      </g>
      <g id="Grupo_144339" data-name="Grupo 144339" transform="translate(122.502 93.785)">
        <path id="Trazado_210060" data-name="Trazado 210060" d="M347.756,289.8l-5.519,51.313h72.643L420.4,289.8Z" transform="translate(-342.237 -289.797)" fill="#ff725e"/>
      </g>
      <g id="Grupo_144340" data-name="Grupo 144340" transform="translate(126.079 90.849)">
        <path id="Trazado_210061" data-name="Trazado 210061" d="M421.033,337.1H347.82l5.58-51.88h73.214Zm-72.582-.568h72.073l5.458-50.745H353.909Z" transform="translate(-347.82 -285.216)" fill="#ffc955"/>
      </g>
      <g id="Grupo_144341" data-name="Grupo 144341" transform="translate(116.721 140.481)">
        <rect id="Rectángulo_43230" data-name="Rectángulo 43230" width="12.133" height="4.617" transform="translate(12.133 4.617) rotate(180)" fill="#ffc955"/>
      </g>
      <g id="Grupo_144344" data-name="Grupo 144344" transform="translate(0 144.991)">
        <g id="Grupo_144343" data-name="Grupo 144343">
          <g id="Grupo_144342" data-name="Grupo 144342" clip-path="url(#clip-path)">
            <path id="Trazado_210062" data-name="Trazado 210062" d="M151.048,369.716v0Z" transform="translate(-151.048 -369.716)" fill="#263238"/>
            <rect id="Rectángulo_43231" data-name="Rectángulo 43231" width="3.037" height="3.126" fill="#263238"/>
            <rect id="Rectángulo_43232" data-name="Rectángulo 43232" width="3.037" height="3.126" transform="translate(3.037)" fill="#263238"/>
            <rect id="Rectángulo_43233" data-name="Rectángulo 43233" width="3.037" height="3.126" transform="translate(6.074)" fill="#263238"/>
            <rect id="Rectángulo_43234" data-name="Rectángulo 43234" width="3.037" height="3.126" transform="translate(9.112)" fill="#263238"/>
            <rect id="Rectángulo_43235" data-name="Rectángulo 43235" width="3.037" height="3.126" transform="translate(12.149)" fill="#263238"/>
            <rect id="Rectángulo_43236" data-name="Rectángulo 43236" width="3.037" height="3.126" transform="translate(15.186)" fill="#263238"/>
            <rect id="Rectángulo_43237" data-name="Rectángulo 43237" width="3.037" height="3.126" transform="translate(18.223)" fill="#263238"/>
            <rect id="Rectángulo_43238" data-name="Rectángulo 43238" width="3.037" height="3.126" transform="translate(21.261)" fill="#263238"/>
            <rect id="Rectángulo_43239" data-name="Rectángulo 43239" width="3.038" height="3.126" transform="translate(24.298)" fill="#263238"/>
            <rect id="Rectángulo_43240" data-name="Rectángulo 43240" width="3.037" height="3.126" transform="translate(27.336)" fill="#263238"/>
            <rect id="Rectángulo_43241" data-name="Rectángulo 43241" width="3.037" height="3.126" transform="translate(30.373)" fill="#263238"/>
            <rect id="Rectángulo_43242" data-name="Rectángulo 43242" width="3.037" height="3.126" transform="translate(33.41)" fill="#263238"/>
            <rect id="Rectángulo_43243" data-name="Rectángulo 43243" width="3.037" height="3.126" transform="translate(36.447)" fill="#263238"/>
            <rect id="Rectángulo_43244" data-name="Rectángulo 43244" width="3.037" height="3.126" transform="translate(39.485)" fill="#263238"/>
            <rect id="Rectángulo_43245" data-name="Rectángulo 43245" width="3.037" height="3.126" transform="translate(42.522)" fill="#263238"/>
            <rect id="Rectángulo_43246" data-name="Rectángulo 43246" width="3.037" height="3.126" transform="translate(45.559)" fill="#263238"/>
            <rect id="Rectángulo_43247" data-name="Rectángulo 43247" width="3.037" height="3.126" transform="translate(48.596)" fill="#263238"/>
            <rect id="Rectángulo_43248" data-name="Rectángulo 43248" width="3.037" height="3.126" transform="translate(51.634)" fill="#263238"/>
            <rect id="Rectángulo_43249" data-name="Rectángulo 43249" width="3.037" height="3.126" transform="translate(54.671)" fill="#263238"/>
            <rect id="Rectángulo_43250" data-name="Rectángulo 43250" width="3.038" height="3.126" transform="translate(57.708)" fill="#263238"/>
            <rect id="Rectángulo_43251" data-name="Rectángulo 43251" width="3.037" height="3.126" transform="translate(60.746)" fill="#263238"/>
            <rect id="Rectángulo_43252" data-name="Rectángulo 43252" width="3.037" height="3.126" transform="translate(63.783)" fill="#263238"/>
            <rect id="Rectángulo_43253" data-name="Rectángulo 43253" width="3.037" height="3.126" transform="translate(66.82)" fill="#263238"/>
            <rect id="Rectángulo_43254" data-name="Rectángulo 43254" width="3.037" height="3.126" transform="translate(69.858)" fill="#263238"/>
            <rect id="Rectángulo_43255" data-name="Rectángulo 43255" width="3.037" height="3.126" transform="translate(72.895)" fill="#263238"/>
            <rect id="Rectángulo_43256" data-name="Rectángulo 43256" width="3.037" height="3.126" transform="translate(75.932)" fill="#263238"/>
            <rect id="Rectángulo_43257" data-name="Rectángulo 43257" width="3.037" height="3.126" transform="translate(78.969)" fill="#263238"/>
            <rect id="Rectángulo_43258" data-name="Rectángulo 43258" width="3.037" height="3.126" transform="translate(82.007)" fill="#263238"/>
            <rect id="Rectángulo_43259" data-name="Rectángulo 43259" width="3.037" height="3.126" transform="translate(85.044)" fill="#263238"/>
            <rect id="Rectángulo_43260" data-name="Rectángulo 43260" width="3.037" height="3.126" transform="translate(88.081)" fill="#263238"/>
            <rect id="Rectángulo_43261" data-name="Rectángulo 43261" width="3.038" height="3.126" transform="translate(91.118)" fill="#263238"/>
            <rect id="Rectángulo_43262" data-name="Rectángulo 43262" width="3.037" height="3.126" transform="translate(94.156)" fill="#263238"/>
            <rect id="Rectángulo_43263" data-name="Rectángulo 43263" width="3.037" height="3.126" transform="translate(97.193)" fill="#263238"/>
            <rect id="Rectángulo_43264" data-name="Rectángulo 43264" width="3.037" height="3.126" transform="translate(100.231)" fill="#263238"/>
            <rect id="Rectángulo_43265" data-name="Rectángulo 43265" width="3.037" height="3.126" transform="translate(103.268)" fill="#263238"/>
            <rect id="Rectángulo_43266" data-name="Rectángulo 43266" width="3.037" height="3.126" transform="translate(106.305)" fill="#263238"/>
            <rect id="Rectángulo_43267" data-name="Rectángulo 43267" width="3.037" height="3.126" transform="translate(109.342)" fill="#263238"/>
            <rect id="Rectángulo_43268" data-name="Rectángulo 43268" width="3.037" height="3.126" transform="translate(112.379)" fill="#263238"/>
            <rect id="Rectángulo_43269" data-name="Rectángulo 43269" width="3.037" height="3.126" transform="translate(115.417)" fill="#263238"/>
            <rect id="Rectángulo_43270" data-name="Rectángulo 43270" width="3.037" height="3.126" transform="translate(118.454)" fill="#263238"/>
            <rect id="Rectángulo_43271" data-name="Rectángulo 43271" width="3.038" height="3.126" transform="translate(121.491)" fill="#263238"/>
            <rect id="Rectángulo_43272" data-name="Rectángulo 43272" width="3.037" height="3.126" transform="translate(124.529)" fill="#263238"/>
            <rect id="Rectángulo_43273" data-name="Rectángulo 43273" width="3.037" height="3.126" transform="translate(127.566)" fill="#263238"/>
            <rect id="Rectángulo_43274" data-name="Rectángulo 43274" width="3.037" height="3.126" transform="translate(130.603)" fill="#263238"/>
            <rect id="Rectángulo_43275" data-name="Rectángulo 43275" width="3.037" height="3.126" transform="translate(133.641)" fill="#263238"/>
            <rect id="Rectángulo_43276" data-name="Rectángulo 43276" width="3.037" height="3.126" transform="translate(136.678)" fill="#263238"/>
            <rect id="Rectángulo_43277" data-name="Rectángulo 43277" width="3.037" height="3.126" transform="translate(139.715)" fill="#263238"/>
            <rect id="Rectángulo_43278" data-name="Rectángulo 43278" width="3.037" height="3.126" transform="translate(142.752)" fill="#263238"/>
            <rect id="Rectángulo_43279" data-name="Rectángulo 43279" width="3.037" height="3.126" transform="translate(145.79)" fill="#263238"/>
            <rect id="Rectángulo_43280" data-name="Rectángulo 43280" width="3.037" height="3.126" transform="translate(148.827)" fill="#263238"/>
            <rect id="Rectángulo_43281" data-name="Rectángulo 43281" width="3.037" height="3.126" transform="translate(151.864)" fill="#263238"/>
            <rect id="Rectángulo_43282" data-name="Rectángulo 43282" width="3.038" height="3.126" transform="translate(154.901)" fill="#263238"/>
            <rect id="Rectángulo_43283" data-name="Rectángulo 43283" width="3.037" height="3.126" transform="translate(157.939)" fill="#263238"/>
            <rect id="Rectángulo_43284" data-name="Rectángulo 43284" width="3.037" height="3.126" transform="translate(160.976)" fill="#263238"/>
            <rect id="Rectángulo_43285" data-name="Rectángulo 43285" width="3.037" height="3.126" transform="translate(164.014)" fill="#263238"/>
            <rect id="Rectángulo_43286" data-name="Rectángulo 43286" width="3.037" height="3.126" transform="translate(167.051)" fill="#263238"/>
            <rect id="Rectángulo_43287" data-name="Rectángulo 43287" width="3.037" height="3.126" transform="translate(170.088)" fill="#263238"/>
            <rect id="Rectángulo_43288" data-name="Rectángulo 43288" width="3.037" height="3.126" transform="translate(173.125)" fill="#263238"/>
            <rect id="Rectángulo_43289" data-name="Rectángulo 43289" width="3.037" height="3.126" transform="translate(176.163)" fill="#263238"/>
            <rect id="Rectángulo_43290" data-name="Rectángulo 43290" width="3.037" height="3.126" transform="translate(179.2)" fill="#263238"/>
            <rect id="Rectángulo_43291" data-name="Rectángulo 43291" width="3.037" height="3.126" transform="translate(182.237)" fill="#263238"/>
            <rect id="Rectángulo_43292" data-name="Rectángulo 43292" width="3.037" height="3.126" transform="translate(185.274)" fill="#263238"/>
            <rect id="Rectángulo_43293" data-name="Rectángulo 43293" width="3.038" height="3.126" transform="translate(188.312)" fill="#263238"/>
            <rect id="Rectángulo_43294" data-name="Rectángulo 43294" width="3.037" height="3.126" transform="translate(191.349)" fill="#263238"/>
            <rect id="Rectángulo_43295" data-name="Rectángulo 43295" width="3.037" height="3.126" transform="translate(194.387)" fill="#263238"/>
            <path id="Trazado_210063" data-name="Trazado 210063" d="M459.169,372.841v0Z" transform="translate(-261.745 -369.716)" fill="#263238"/>
          </g>
        </g>
      </g>
      <g id="Grupo_144345" data-name="Grupo 144345" transform="translate(147.017 211.701)">
        <rect id="Rectángulo_43297" data-name="Rectángulo 43297" width="171.051" height="3.127" fill="#ffc955"/>
      </g>
      <g id="Grupo_144346" data-name="Grupo 144346" transform="translate(157.412 114.201)">
        <path id="Trazado_210064" data-name="Trazado 210064" d="M396.859,326.077c-.584,2.856.749,5.542,2.977,6s4.507-1.492,5.091-4.349-.748-5.543-2.976-6S397.443,323.22,396.859,326.077Z" transform="translate(-396.722 -321.662)" fill="#cfa345"/>
      </g>
      <g id="Grupo_144349" data-name="Grupo 144349" transform="translate(293.318 96.88)">
        <g id="Grupo_144348" data-name="Grupo 144348">
          <g id="Grupo_144347" data-name="Grupo 144347">
            <path id="Trazado_210065" data-name="Trazado 210065" d="M611.608,296.027a17.945,17.945,0,0,0,2.384,3.3c.96.63.359,1.267-.1,1.267s-2.786.168-3.3-.415-.768-2.328-1.245-2.785-.971-2.271.233-2.713C610.645,294.3,611.608,296.027,611.608,296.027Z" transform="translate(-608.832 -294.629)" fill="#6069a8"/>
          </g>
        </g>
      </g>
      <g id="Grupo_144352" data-name="Grupo 144352" transform="translate(293.987 96.938)">
        <g id="Grupo_144351" data-name="Grupo 144351">
          <g id="Grupo_144350" data-name="Grupo 144350">
            <path id="Trazado_210066" data-name="Trazado 210066" d="M611.257,294.81s1.92,3.326,2.25,3.818-.623.491-1.214.256-2.077-2.619-2.291-3.053a1.6,1.6,0,0,1-.045-1.113Z" transform="translate(-609.876 -294.718)" fill="#202338"/>
          </g>
        </g>
      </g>
      <g id="Grupo_144355" data-name="Grupo 144355" transform="translate(293.424 98.819)">
        <g id="Grupo_144354" data-name="Grupo 144354">
          <g id="Grupo_144353" data-name="Grupo 144353">
            <path id="Trazado_210067" data-name="Trazado 210067" d="M609,297.654l.443,3.411.235.01-.073-2.453Z" transform="translate(-608.997 -297.654)" fill="#6069a8"/>
          </g>
        </g>
      </g>
      <g id="Grupo_144358" data-name="Grupo 144358" transform="translate(276.695 96.891)">
        <g id="Grupo_144357" data-name="Grupo 144357">
          <g id="Grupo_144356" data-name="Grupo 144356">
            <path id="Trazado_210068" data-name="Trazado 210068" d="M585.67,296.033a17.964,17.964,0,0,0,2.383,3.3c.96.63.359,1.267-.1,1.267s-2.785.168-3.3-.415-.768-2.328-1.246-2.785-.987-2.318.233-2.713C584.714,294.346,585.67,296.033,585.67,296.033Z" transform="translate(-582.888 -294.645)" fill="#6069a8"/>
          </g>
        </g>
      </g>
      <g id="Grupo_144361" data-name="Grupo 144361" transform="translate(277.371 96.938)">
        <g id="Grupo_144360" data-name="Grupo 144360">
          <g id="Grupo_144359" data-name="Grupo 144359">
            <path id="Trazado_210069" data-name="Trazado 210069" d="M585.424,294.816s1.818,3.32,2.149,3.812-.623.491-1.214.256-2.077-2.619-2.291-3.053a1.6,1.6,0,0,1-.046-1.113Z" transform="translate(-583.943 -294.718)" fill="#202338"/>
          </g>
        </g>
      </g>
      <g id="Grupo_144364" data-name="Grupo 144364" transform="translate(276.807 98.819)">
        <g id="Grupo_144363" data-name="Grupo 144363">
          <g id="Grupo_144362" data-name="Grupo 144362">
            <path id="Trazado_210070" data-name="Trazado 210070" d="M583.064,297.654l.443,3.411.235.01-.073-2.453Z" transform="translate(-583.064 -297.654)" fill="#6069a8"/>
          </g>
        </g>
      </g>
      <g id="Grupo_144367" data-name="Grupo 144367" transform="translate(272.042 70.061)">
        <g id="Grupo_144366" data-name="Grupo 144366">
          <g id="Grupo_144365" data-name="Grupo 144365">
            <path id="Trazado_210071" data-name="Trazado 210071" d="M575.627,255.137l15.164,6.909a2.915,2.915,0,0,1,1.882,2.43c.591,5.867,4.98,15.172,4.98,15.172,1.408.689,1.3.092,1.3.092-.887-2.848-1.967-14.586-2.352-19.306-.081-1-.133-1.684-.143-1.9-.008-.149-.171-.344-.452-.572-2.081-1.687-10.643-5.18-10.643-5.18C578.934,252.616,575.627,255.137,575.627,255.137Z" transform="translate(-575.627 -252.771)" fill="#202338"/>
          </g>
        </g>
      </g>
      <g id="Grupo_144370" data-name="Grupo 144370" transform="translate(269.123 69.019)">
        <g id="Grupo_144369" data-name="Grupo 144369">
          <g id="Grupo_144368" data-name="Grupo 144368">
            <path id="Trazado_210072" data-name="Trazado 210072" d="M571.132,257.52c.47,4.1,6.32,3.629,6.32,3.629h7.091a44.306,44.306,0,0,0-2.581,7.641c-.763,3.71-2.562,10.274-2.562,10.274s.118.224,1.4.1c0,0,5.567-11.094,7.7-13.883a18.837,18.837,0,0,0,2-5.8c.076-.654.029-1.16-.215-1.364a17.73,17.73,0,0,0-1.565-1.07c-2.221-1.4-6.079-3.557-8.228-4.04-2.878-.647-7.431-1.859-7.431-1.859A7.837,7.837,0,0,0,571.132,257.52Z" transform="translate(-571.071 -251.145)" fill="#202338"/>
          </g>
        </g>
      </g>
      <g id="Grupo_144371" data-name="Grupo 144371" transform="translate(273.324 36.114)">
        <path id="Trazado_210073" data-name="Trazado 210073" d="M578.313,207.5a6.6,6.6,0,0,1-.544-4.161c.517-2.146,2.508-4.284,5.424-3.3s5.272,3.247,3.525,5.866,1.581,3.8.733,5.047a2.418,2.418,0,0,0-.168,2.837,3.3,3.3,0,0,1,1.39,2.547c-.127,1.223-5.656-3.566-5.656-3.566S580.006,206.717,578.313,207.5Z" transform="translate(-577.627 -199.791)" fill="#464240"/>
      </g>
      <g id="Grupo_144372" data-name="Grupo 144372" transform="translate(271.131 68.592)">
        <path id="Trazado_210074" data-name="Trazado 210074" d="M585.97,251.464s-.44,2.133-11.765-.56C574.205,250.9,578,249.643,585.97,251.464Z" transform="translate(-574.205 -250.478)" fill="#eb4747"/>
      </g>
      <g id="Grupo_144374" data-name="Grupo 144374" transform="translate(268.701 49.21)">
        <g id="Grupo_144373" data-name="Grupo 144373">
          <path id="Trazado_210075" data-name="Trazado 210075" d="M572.714,240.634l-.527,1.006,12.42.361c-.655-2.193-.443-5.162-.328-7.417.14-2.753,1.661-4.667,1.5-7.451.819.133.961.158,1.781.283-1.254-3.574-1.684-5.345-5.581-6.721a7.284,7.284,0,0,0-3.475-.424c-4.513.372-5.874.425-8.091,4.515,3.47.553,2.9,1.8,3.951,5.251a12.358,12.358,0,0,1,.773,5.337C574.866,237.123,572.714,239.04,572.714,240.634Z" transform="translate(-570.412 -220.229)" fill="#ff725e"/>
        </g>
      </g>
      <g id="Grupo_144376" data-name="Grupo 144376" transform="translate(276.716 45.642)">
        <g id="Grupo_144375" data-name="Grupo 144375">
          <path id="Trazado_210076" data-name="Trazado 210076" d="M584.41,219.562c-1.847-.349-1.454-1.376-1.454-1.376s.086-.581.119-1.313c.009-.188.014-.386.013-.586a8,8,0,0,0-.051-.909c-.151-1.239,3.353-.5,3.353-.5s-.2,2.508.281,3.26S586.257,219.912,584.41,219.562Z" transform="translate(-582.921 -214.66)" fill="#eea886"/>
        </g>
      </g>
      <g id="Grupo_144378" data-name="Grupo 144378" transform="translate(274.682 48.825)">
        <g id="Grupo_144377" data-name="Grupo 144377">
          <path id="Trazado_210077" data-name="Trazado 210077" d="M579.746,219.964a58.462,58.462,0,0,0,5.1,5.3s1.583-1.43.607-5.206C585.456,220.058,583.658,219.156,579.746,219.964Z" transform="translate(-579.746 -219.628)" fill="#eea886"/>
        </g>
      </g>
      <g id="Grupo_144379" data-name="Grupo 144379" transform="translate(273.919 38.114)">
        <path id="Trazado_210078" data-name="Trazado 210078" d="M579.419,203.605s-1.934,3.728-.015,7.259,5.689-1.538,5.933-2.132,1.536-3.958-1.035-4.98S579.967,202.593,579.419,203.605Z" transform="translate(-578.555 -202.912)" fill="#eea886"/>
      </g>
      <g id="Grupo_144380" data-name="Grupo 144380" transform="translate(273.846 37.342)">
        <path id="Trazado_210079" data-name="Trazado 210079" d="M580.022,204.5a8.388,8.388,0,0,0-1.489,3.042,6.93,6.93,0,0,1,.969-4.792c1.5-2.348,5.311-.111,5.822.827s2.007,1.765-.507,5.8C584.817,209.367,580.3,206.227,580.022,204.5Z" transform="translate(-578.442 -201.706)" fill="#464240"/>
      </g>
      <g id="Grupo_144381" data-name="Grupo 144381" transform="translate(276.87 46.439)">
        <path id="Trazado_210080" data-name="Trazado 210080" d="M584.81,215.9a3.621,3.621,0,0,1-1.649,1.417c.009-.188.014-.386.013-.586A3.138,3.138,0,0,0,584.81,215.9Z" transform="translate(-583.161 -215.904)" fill="#a77860"/>
      </g>
      <g id="Grupo_144382" data-name="Grupo 144382" transform="translate(255.126 66.129)">
        <path id="Trazado_210081" data-name="Trazado 210081" d="M553.064,246.767s-.92.409-1.356.224a4.09,4.09,0,0,0-1.324-.222c-.284,0-1.175-.318-1.159.03s1.446.591,1.738.7-.876.752-.984,1.037,1.21,2.161,1.954,1.627,1.147-1.6,1.3-1.668a5.458,5.458,0,0,0,.558-.367Z" transform="translate(-549.225 -246.636)" fill="#eea886"/>
      </g>
      <g id="Grupo_144383" data-name="Grupo 144383" transform="translate(253.824 67.863)">
        <path id="Trazado_210082" data-name="Trazado 210082" d="M549.389,249.341a19.336,19.336,0,0,0-2.191,2.03c-.033.242.079.354.289.2s2.139-1.667,2.139-1.667-2.161,2.553-2.234,2.742c-.042.111.165.342.285.267s2.419-2.477,2.419-2.477-2.013,2.387-2.024,2.565a.234.234,0,0,0,.4.158c.163-.167,2.166-2.273,2.166-2.273a11.878,11.878,0,0,0-1.264,1.995c.051.1.221.306.552-.179s1.244-1.541,1.244-1.541Z" transform="translate(-547.193 -249.341)" fill="#eea886"/>
      </g>
      <g id="Grupo_144385" data-name="Grupo 144385" transform="translate(269.124 69.019)">
        <g id="Grupo_144384" data-name="Grupo 144384">
          <path id="Trazado_210083" data-name="Trazado 210083" d="M583.8,261.149h-6.352s-5.851.469-6.32-3.63a7.835,7.835,0,0,1,1.924-6.375s3.091.823,5.789,1.475a20.914,20.914,0,0,1,4.881-.425s11.439,3.78,11.095,5.77C594.821,257.964,590.036,255.406,583.8,261.149Z" transform="translate(-571.072 -251.145)" fill="#263238"/>
        </g>
      </g>
      <g id="Grupo_144386" data-name="Grupo 144386" transform="translate(277.721 71.748)">
        <path id="Trazado_210084" data-name="Trazado 210084" d="M584.49,255.582,596.6,255.4l-6.114,3.1Z" transform="translate(-584.49 -255.404)" fill="#5e5853"/>
      </g>
      <g id="Grupo_144387" data-name="Grupo 144387" transform="translate(275.263 69.233)">
        <path id="Trazado_210085" data-name="Trazado 210085" d="M586.874,252.625a10.353,10.353,0,0,1-6.063.1l-.157-1.246,6.875.382Z" transform="translate(-580.654 -251.48)" fill="#5f8cc9"/>
      </g>
      <g id="Grupo_144388" data-name="Grupo 144388" transform="translate(277.721 71.926)">
        <path id="Trazado_210086" data-name="Trazado 210086" d="M590.485,258.608l-6-2.322v-.6l6.469,2.334Z" transform="translate(-584.49 -255.682)" fill="#91887f"/>
      </g>
      <g id="Grupo_144391" data-name="Grupo 144391" transform="translate(257.906 48.893)">
        <g id="Grupo_144389" data-name="Grupo 144389" transform="translate(22.485 0.361)">
          <path id="Trazado_210087" data-name="Trazado 210087" d="M589.707,242a.6.6,0,0,0,.832.594l.7-.3a.5.5,0,0,0,.3-.54c-.293-1.831-.921-8.961,0-10.184a4.429,4.429,0,0,0,.671-1.194c.606,1.562,1.36,3.575,1.659,4.658l5.721,7.611,1.918.486a64.8,64.8,0,0,0-4.316-8.823c-.374-1.005-1.448-4.049-2.4-6.759-.6-1.711-1.152-3.289-1.449-4.138a1.942,1.942,0,0,0-.837-1.026c-.886-.529-2.362-1.364-3.7-2.014l-.017-.007-.128-.062h0c2.546,3.852,1.553,14.73,1.051,21.686Z" transform="translate(-588.657 -220.298)" fill="#eddad3"/>
        </g>
        <g id="Grupo_144390" data-name="Grupo 144390">
          <path id="Trazado_210088" data-name="Trazado 210088" d="M567.649,220.424c-.816.126-2.838,2.089-3.911,4.071-1.226,2.262-2.473,4.836-3.409,5.683-1.719,1.558-6.531,7.063-6.76,6.93a14.978,14.978,0,0,0,1.5,1.723c.09.039,7.91-6.737,8.661-7.77.712-.979,2.617-5.087,3.187-5v0a30.386,30.386,0,0,1,1.393,3.791l.033.109a12.189,12.189,0,0,1,.166,5.062,17.235,17.235,0,0,1-1.873,4.838.759.759,0,0,0,.026.586h0a.421.421,0,0,0,.208.243l2.3.85.539.2a1.176,1.176,0,0,0,1.574-.95,69.948,69.948,0,0,1,1.671-9.451,14.314,14.314,0,0,0-.882-11.615A42.743,42.743,0,0,0,567.649,220.424Z" transform="translate(-553.565 -219.735)" fill="#eddad3"/>
        </g>
      </g>
      <g id="Grupo_144392" data-name="Grupo 144392" transform="translate(283.716 65.018)">
        <path id="Trazado_210089" data-name="Trazado 210089" d="M593.847,254.735l3.6-9.834,11.611.19-3.433,9.062Z" transform="translate(-593.847 -244.901)" fill="#6e6760"/>
      </g>
      <g id="Grupo_144393" data-name="Grupo 144393" transform="translate(290.825 68.453)">
        <path id="Trazado_210090" data-name="Trazado 210090" d="M605.15,251.177c-.354.708-.248,1.479.239,1.723s1.167-.134,1.522-.842.248-1.48-.239-1.723S605.5,250.469,605.15,251.177Z" transform="translate(-604.941 -250.261)" fill="#807066"/>
      </g>
      <g id="Grupo_144394" data-name="Grupo 144394" transform="translate(278.069 42.441)">
        <path id="Trazado_210091" data-name="Trazado 210091" d="M585.757,209.744a2.087,2.087,0,0,1,.056,2.156c-.687,1,.174,1.979.322,3.035s-2.868,3.866.488,5.279,4.424-.923,3.568-2.209a7.254,7.254,0,0,1-1.536-4.162C588.582,212.01,587.98,209.152,585.757,209.744Z" transform="translate(-585.032 -209.664)" fill="#464240"/>
      </g>
      <g id="Grupo_144395" data-name="Grupo 144395" transform="translate(262.393 37.716)">
        <path id="Trazado_210092" data-name="Trazado 210092" d="M560.567,202.29h7v6.143l-1.069-1.069h-5.932Z" transform="translate(-560.567 -202.29)" fill="#ffcb55"/>
      </g>
      <g id="Grupo_144408" data-name="Grupo 144408" transform="translate(179.306 99.841)">
        <g id="Grupo_144399" data-name="Grupo 144399" transform="translate(33.917 15.742)">
          <g id="Grupo_144398" data-name="Grupo 144398">
            <g id="Grupo_144397" data-name="Grupo 144397">
              <g id="Grupo_144396" data-name="Grupo 144396">
                <path id="Trazado_210093" data-name="Trazado 210093" d="M493.7,323.818s-15.258,14.52-7.836,25.825,10.9,1.4,10.9,1.4,5.02,1.515-2.431-12.423C490.816,332.053,493.7,323.818,493.7,323.818Z" transform="translate(-483.826 -323.818)" fill="#bbd070"/>
              </g>
            </g>
          </g>
        </g>
        <g id="Grupo_144403" data-name="Grupo 144403" transform="translate(11.389)">
          <g id="Grupo_144402" data-name="Grupo 144402">
            <g id="Grupo_144401" data-name="Grupo 144401">
              <g id="Grupo_144400" data-name="Grupo 144400">
                <path id="Trazado_210094" data-name="Trazado 210094" d="M452.854,299.249s-11.656,13.7,3.928,32.667,13.168,29,13.168,29S491.643,327.932,452.854,299.249Z" transform="translate(-448.668 -299.249)" fill="#afe684"/>
              </g>
            </g>
          </g>
        </g>
        <g id="Grupo_144407" data-name="Grupo 144407" transform="translate(0 16.641)">
          <g id="Grupo_144406" data-name="Grupo 144406">
            <g id="Grupo_144405" data-name="Grupo 144405">
              <g id="Grupo_144404" data-name="Grupo 144404">
                <path id="Trazado_210095" data-name="Trazado 210095" d="M467.078,364.516c7.252,1.467,1.384-19.62-9.491-26.048s-20.6-7.056-26.695-13.247C430.892,325.221,431.367,357.294,467.078,364.516Z" transform="translate(-430.892 -325.221)" fill="#95c375"/>
              </g>
            </g>
          </g>
        </g>
      </g>
      <g id="Grupo_144409" data-name="Grupo 144409" transform="translate(19.422 73.252)">
        <path id="Rectángulo_43298" data-name="Rectángulo 43298" d="M6.4,0H32.443a6.4,6.4,0,0,1,6.4,6.4V50.206a6.4,6.4,0,0,1-6.4,6.4H6.4a6.4,6.4,0,0,1-6.4-6.4V6.4A6.4,6.4,0,0,1,6.4,0Z" fill="#ffc955"/>
      </g>
      <g id="Grupo_144453" data-name="Grupo 144453" transform="translate(23.548 78.205)">
        <g id="Grupo_144413" data-name="Grupo 144413" transform="translate(28.575 31.603)">
          <g id="Grupo_144412" data-name="Grupo 144412">
            <g id="Grupo_144411" data-name="Grupo 144411">
              <g id="Grupo_144410" data-name="Grupo 144410">
                <rect id="Rectángulo_43299" data-name="Rectángulo 43299" width="2.013" height="15.316" fill="#e3f2ff"/>
              </g>
            </g>
          </g>
        </g>
        <g id="Grupo_144417" data-name="Grupo 144417" transform="translate(24.599 33.319)">
          <g id="Grupo_144416" data-name="Grupo 144416">
            <g id="Grupo_144415" data-name="Grupo 144415">
              <g id="Grupo_144414" data-name="Grupo 144414">
                <rect id="Rectángulo_43300" data-name="Rectángulo 43300" width="2.012" height="13.599" fill="#e3f2ff"/>
              </g>
            </g>
          </g>
        </g>
        <g id="Grupo_144421" data-name="Grupo 144421" transform="translate(20.279 35.552)">
          <g id="Grupo_144420" data-name="Grupo 144420">
            <g id="Grupo_144419" data-name="Grupo 144419">
              <g id="Grupo_144418" data-name="Grupo 144418">
                <rect id="Rectángulo_43301" data-name="Rectángulo 43301" width="2.012" height="11.367" fill="#e3f2ff"/>
              </g>
            </g>
          </g>
        </g>
        <g id="Grupo_144425" data-name="Grupo 144425" transform="translate(15.843 38.367)">
          <g id="Grupo_144424" data-name="Grupo 144424">
            <g id="Grupo_144423" data-name="Grupo 144423">
              <g id="Grupo_144422" data-name="Grupo 144422">
                <rect id="Rectángulo_43302" data-name="Rectángulo 43302" width="2.012" height="8.552" fill="#e3f2ff"/>
              </g>
            </g>
          </g>
        </g>
        <g id="Grupo_144428" data-name="Grupo 144428" transform="translate(3.399)">
          <g id="Grupo_144427" data-name="Grupo 144427">
            <g id="Grupo_144426" data-name="Grupo 144426">
              <path id="Trazado_210096" data-name="Trazado 210096" d="M193.541,302.034l-.436-.155,3.795-10.647,8.229-2.176,2.958-11.685,6.351-2.8,1.422-9.086.457.072-1.462,9.336L208.48,277.7l-2.969,11.73-8.258,2.185Z" transform="translate(-193.105 -265.482)" fill="#e3f2ff"/>
            </g>
          </g>
        </g>
        <g id="Grupo_144430" data-name="Grupo 144430" transform="translate(14.379 22.528)">
          <g id="Grupo_144429" data-name="Grupo 144429">
            <path id="Trazado_210097" data-name="Trazado 210097" d="M212.433,301.094a1.235,1.235,0,1,1-1.738-.174A1.236,1.236,0,0,1,212.433,301.094Z" transform="translate(-210.242 -300.641)" fill="#ffc955"/>
          </g>
        </g>
        <g id="Grupo_144432" data-name="Grupo 144432" transform="translate(14.149 22.297)">
          <g id="Grupo_144431" data-name="Grupo 144431">
            <path id="Trazado_210098" data-name="Trazado 210098" d="M212.276,302.882a1.467,1.467,0,1,1,.208-2.064A1.467,1.467,0,0,1,212.276,302.882Zm-1.563-1.913a1,1,0,1,0,1.412.142A1,1,0,0,0,210.713,300.97Z" transform="translate(-209.882 -300.28)" fill="#e3f2ff"/>
          </g>
        </g>
        <g id="Grupo_144434" data-name="Grupo 144434" transform="translate(17.376 10.891)">
          <g id="Grupo_144433" data-name="Grupo 144433">
            <path id="Trazado_210099" data-name="Trazado 210099" d="M217.111,282.933a1.235,1.235,0,1,1-1.738-.175A1.235,1.235,0,0,1,217.111,282.933Z" transform="translate(-214.92 -282.479)" fill="#ffc955"/>
          </g>
        </g>
        <g id="Grupo_144436" data-name="Grupo 144436" transform="translate(17.145 10.66)">
          <g id="Grupo_144435" data-name="Grupo 144435">
            <path id="Trazado_210100" data-name="Trazado 210100" d="M216.953,284.72a1.467,1.467,0,1,1,.207-2.064A1.469,1.469,0,0,1,216.953,284.72Zm-1.563-1.913a1,1,0,1,0,1.412.142A1,1,0,0,0,215.39,282.808Z" transform="translate(-214.559 -282.119)" fill="#e3f2ff"/>
          </g>
        </g>
        <g id="Grupo_144438" data-name="Grupo 144438" transform="translate(23.629 8.008)">
          <g id="Grupo_144437" data-name="Grupo 144437">
            <path id="Trazado_210101" data-name="Trazado 210101" d="M226.869,278.433a1.235,1.235,0,1,1-1.738-.174A1.235,1.235,0,0,1,226.869,278.433Z" transform="translate(-224.678 -277.98)" fill="#ffc955"/>
          </g>
        </g>
        <g id="Grupo_144440" data-name="Grupo 144440" transform="translate(23.398 7.777)">
          <g id="Grupo_144439" data-name="Grupo 144439">
            <path id="Trazado_210102" data-name="Trazado 210102" d="M226.712,280.221a1.466,1.466,0,1,1,.208-2.063A1.468,1.468,0,0,1,226.712,280.221Zm-1.563-1.912a1,1,0,1,0,1.413.142A1,1,0,0,0,225.148,278.309Z" transform="translate(-224.318 -277.619)" fill="#e3f2ff"/>
          </g>
        </g>
        <g id="Grupo_144442" data-name="Grupo 144442" transform="translate(6.182 24.813)">
          <g id="Grupo_144441" data-name="Grupo 144441">
            <path id="Trazado_210103" data-name="Trazado 210103" d="M199.639,304.661a1.235,1.235,0,1,1-1.738-.175A1.235,1.235,0,0,1,199.639,304.661Z" transform="translate(-197.448 -304.208)" fill="#ffc955"/>
          </g>
        </g>
        <g id="Grupo_144444" data-name="Grupo 144444" transform="translate(5.951 24.582)">
          <g id="Grupo_144443" data-name="Grupo 144443">
            <path id="Trazado_210104" data-name="Trazado 210104" d="M199.482,306.449a1.467,1.467,0,1,1,.208-2.064A1.468,1.468,0,0,1,199.482,306.449Zm-1.563-1.912a1,1,0,1,0,1.412.141A1,1,0,0,0,197.919,304.537Z" transform="translate(-197.088 -303.848)" fill="#e3f2ff"/>
          </g>
        </g>
        <g id="Grupo_144448" data-name="Grupo 144448" transform="translate(0 11.115)">
          <g id="Grupo_144447" data-name="Grupo 144447">
            <g id="Grupo_144446" data-name="Grupo 144446">
              <g id="Grupo_144445" data-name="Grupo 144445">
                <rect id="Rectángulo_43303" data-name="Rectángulo 43303" width="12.364" height="2.561" rx="1.281" fill="#ebebeb"/>
              </g>
            </g>
          </g>
        </g>
        <g id="Grupo_144452" data-name="Grupo 144452" transform="translate(0 6.637)">
          <g id="Grupo_144451" data-name="Grupo 144451">
            <g id="Grupo_144450" data-name="Grupo 144450">
              <g id="Grupo_144449" data-name="Grupo 144449">
                <path id="Rectángulo_43304" data-name="Rectángulo 43304" d="M1.28,0h9.8a1.28,1.28,0,0,1,1.28,1.28v0a1.281,1.281,0,0,1-1.281,1.281h-9.8A1.281,1.281,0,0,1,0,1.28v0A1.28,1.28,0,0,1,1.28,0Z" fill="#ebebeb"/>
              </g>
            </g>
          </g>
        </g>
      </g>
      <g id="Grupo_144510" data-name="Grupo 144510" transform="translate(0.91 89.577)">
        <g id="Grupo_144454" data-name="Grupo 144454" transform="translate(11.881 4.364)">
          <path id="Trazado_210105" data-name="Trazado 210105" d="M172.893,290.042s-.358,3.536.295,4.423c0,0-1.729-.377-2.13-.973S172.893,290.042,172.893,290.042Z" transform="translate(-171.01 -290.042)" fill="#16202e"/>
        </g>
        <g id="Grupo_144456" data-name="Grupo 144456" transform="translate(24.336 15.129)">
          <g id="Grupo_144455" data-name="Grupo 144455">
            <path id="Trazado_210106" data-name="Trazado 210106" d="M190.676,307.369s.627-.422.725-.483a1.82,1.82,0,0,1,.789-.008,2.1,2.1,0,0,1,.877.326.323.323,0,0,1,.062.264.629.629,0,0,1-.133.288.379.379,0,0,1-.08.358.332.332,0,0,1-.14.341.277.277,0,0,1-.1.288,2.48,2.48,0,0,0-.443.022,5.3,5.3,0,0,1-1.424-.2S190.1,308.415,190.676,307.369Z" transform="translate(-190.45 -306.842)" fill="#eea886"/>
          </g>
        </g>
        <g id="Grupo_144458" data-name="Grupo 144458" transform="translate(25.33 15.948)">
          <g id="Grupo_144457" data-name="Grupo 144457">
            <path id="Trazado_210107" data-name="Trazado 210107" d="M192.3,308.12a1.866,1.866,0,0,1-.289.4c-.1.066.483.693.483.693S192.7,308.361,192.3,308.12Z" transform="translate(-192.001 -308.12)" fill="#cf8c6c"/>
          </g>
        </g>
        <g id="Grupo_144460" data-name="Grupo 144460" transform="translate(23.699 15.553)">
          <g id="Grupo_144459" data-name="Grupo 144459">
            <path id="Trazado_210108" data-name="Trazado 210108" d="M189.947,307.667a2.557,2.557,0,0,0,.639-.156c.243-.112-.045,1.229-.045,1.229a2.523,2.523,0,0,0-.977-.419C189.178,308.307,189.947,307.667,189.947,307.667Z" transform="translate(-189.455 -307.504)" fill="#eea886"/>
          </g>
        </g>
        <g id="Grupo_144462" data-name="Grupo 144462" transform="translate(6.22 51.409)">
          <g id="Grupo_144461" data-name="Grupo 144461">
            <path id="Trazado_210109" data-name="Trazado 210109" d="M163.791,363.5a22.18,22.18,0,0,0,1.665,2.187s.861.447.887.8c.051.675.087,1.073-1.046,1.1s-1.84,0-2.048-.689a5.187,5.187,0,0,0-.565-1.225l-.087,1.786h-.255s-.114-1.789-.13-2.045-.184-1.236.355-1.67A1.494,1.494,0,0,1,163.791,363.5Z" transform="translate(-162.175 -363.465)" fill="#162d40"/>
          </g>
        </g>
        <g id="Grupo_144464" data-name="Grupo 144464" transform="translate(6.495 50.941)">
          <g id="Grupo_144463" data-name="Grupo 144463">
            <path id="Trazado_210110" data-name="Trazado 210110" d="M165.774,365.521a2.86,2.86,0,0,1-1.34-.011c-.729-.183-1.427-1.927-1.64-2.072l-.189-.7h1.419a2.532,2.532,0,0,0,.241.966A17,17,0,0,0,165.774,365.521Z" transform="translate(-162.605 -362.734)" fill="#162d40"/>
          </g>
        </g>
        <g id="Grupo_144466" data-name="Grupo 144466" transform="translate(13.942 50.412)">
          <g id="Grupo_144465" data-name="Grupo 144465">
            <path id="Trazado_210111" data-name="Trazado 210111" d="M176.13,362.27a4.58,4.58,0,0,0,.534.893c.257.334,1.053,1.707,1.4,1.8s1.435.288,1.531.893.144,1.037-.925,1.085-1.77.112-2.28-.638a5.556,5.556,0,0,0-1.324-1.292v1.956h-.415a17.633,17.633,0,0,0-.3-2.178,2.461,2.461,0,0,1,.59-2.521C175.932,361.457,176.13,362.27,176.13,362.27Z" transform="translate(-174.227 -361.909)" fill="#162d40"/>
          </g>
        </g>
        <g id="Grupo_144468" data-name="Grupo 144468" transform="translate(14.433 50.559)">
          <g id="Grupo_144467" data-name="Grupo 144467">
            <path id="Trazado_210112" data-name="Trazado 210112" d="M178.345,365.048s-.957.239-1.324,0-1.614-2.347-2.027-2.473c0,0,.4-.812,1.413-.222C176.406,362.353,178.073,364.7,178.345,365.048Z" transform="translate(-174.993 -362.138)" fill="#162d40"/>
          </g>
        </g>
        <g id="Grupo_144470" data-name="Grupo 144470" transform="translate(5.034 20.915)">
          <g id="Grupo_144469" data-name="Grupo 144469">
            <path id="Trazado_210113" data-name="Trazado 210113" d="M162.583,316.439a10.007,10.007,0,0,0-1.716,3.836c-.366,2.081.217,9.067.2,10.1s-.907,4.229-.717,6.168,1.194,10.027,1.194,10.027l2.338-.042s-.468-8.728-.349-9.542.5-4.274.548-4.609,2.664-9.193,2.664-10.693S165.837,313.991,162.583,316.439Z" transform="translate(-160.324 -315.873)" fill="#1d3b54"/>
          </g>
        </g>
        <g id="Grupo_144472" data-name="Grupo 144472" transform="translate(9.432 21.729)">
          <g id="Grupo_144471" data-name="Grupo 144471">
            <path id="Trazado_210114" data-name="Trazado 210114" d="M171.828,317.582s2.217,8.461,2.48,9.633.789,2.7.766,2.919-.279,3.827-.279,3.827l-.63,12.3h-2.336s-.75-7.824-.87-9.4.862-4.02.622-4.69-3.852-8.4-3.852-8.4S164.993,315.125,171.828,317.582Z" transform="translate(-167.188 -317.142)" fill="#1d3b54"/>
          </g>
        </g>
        <g id="Grupo_144474" data-name="Grupo 144474" transform="translate(12.605 9.503)">
          <g id="Grupo_144473" data-name="Grupo 144473">
            <path id="Trazado_210115" data-name="Trazado 210115" d="M172.921,298.062a2.683,2.683,0,0,1,1.556.8,10.273,10.273,0,0,1,1.474,2.245c.175.383,2.635,3.931,2.763,4.01s1.2-.2,2.063-.275a18.828,18.828,0,0,0,3.508-.833l.312,1.588s-5.171,1.668-6.364,1.374c-1.46-.359-4.818-4.669-4.818-4.669S170.912,299.37,172.921,298.062Z" transform="translate(-172.141 -298.062)" fill="#eddad3"/>
          </g>
        </g>
        <g id="Grupo_144476" data-name="Grupo 144476" transform="translate(5.684 8.821)">
          <g id="Grupo_144475" data-name="Grupo 144475">
            <path id="Trazado_210116" data-name="Trazado 210116" d="M167.493,297.057a12.038,12.038,0,0,0,1.547.622,8.534,8.534,0,0,1,2.217,2.823,4.694,4.694,0,0,1-.558,3.126c-.559,1.292-.031,1.724-.287,3.015a36.123,36.123,0,0,0-.207,5.531c.047.718-7.384,2.072-8.867.764,0,0,1-3.311,2.193-4.554a4.89,4.89,0,0,0,.054-2.507c-.176-.447-2.154-3.78-2.154-3.78s-.145-3.382.718-4.052c.75-.582,2.793-.789,3.159-.917A6.274,6.274,0,0,1,167.493,297.057Z" transform="translate(-161.338 -296.997)" fill="#eddad3"/>
          </g>
        </g>
        <g id="Grupo_144478" data-name="Grupo 144478" transform="translate(12.172 8.472)">
          <g id="Grupo_144477" data-name="Grupo 144477">
            <path id="Trazado_210117" data-name="Trazado 210117" d="M171.5,299.422l.7-.818-.606-2.152A14.237,14.237,0,0,0,171.5,299.422Z" transform="translate(-171.465 -296.453)" fill="#d1c0ba"/>
          </g>
        </g>
        <g id="Grupo_144480" data-name="Grupo 144480" transform="translate(3.042 9.455)">
          <g id="Grupo_144479" data-name="Grupo 144479">
            <path id="Trazado_210118" data-name="Trazado 210118" d="M162,298.035a2,2,0,0,0-2.277,1.18,8.558,8.558,0,0,0-.814,3.174c-.19.718-.957,5.519-1,5.727a15.994,15.994,0,0,0-.686,3.4c.1.75.782,6.428.75,6.619s1.323-.183,1.323-.183-.056-5.8-.008-6.277a15.592,15.592,0,0,1,.454-3.636c.359-.646,1.244-4.593,1.436-5S163.224,298.553,162,298.035Z" transform="translate(-157.215 -297.986)" fill="#eea886"/>
          </g>
        </g>
        <g id="Grupo_144482" data-name="Grupo 144482" transform="translate(9.655 5.984)">
          <g id="Grupo_144481" data-name="Grupo 144481">
            <path id="Trazado_210119" data-name="Trazado 210119" d="M170.268,294.142a27.518,27.518,0,0,0-.181,2.793s-1.194,1.2-2.551-1.4a3.557,3.557,0,0,0,.142-2.524C167.248,291.559,170.268,294.142,170.268,294.142Z" transform="translate(-167.536 -292.57)" fill="#eea886"/>
          </g>
        </g>
        <g id="Grupo_144484" data-name="Grupo 144484" transform="translate(10.923 10.304)">
          <g id="Grupo_144483" data-name="Grupo 144483">
            <path id="Trazado_210120" data-name="Trazado 210120" d="M170.8,299.357v1.092l-1.283-1.137Z" transform="translate(-169.515 -299.312)" fill="#eea886"/>
          </g>
        </g>
        <g id="Grupo_144486" data-name="Grupo 144486" transform="translate(8.995 8.821)">
          <g id="Grupo_144485" data-name="Grupo 144485">
            <path id="Trazado_210121" data-name="Trazado 210121" d="M169.717,299.617l-.57-.706L167.226,297l-.72.32Z" transform="translate(-166.506 -296.997)" fill="#d1c0ba"/>
          </g>
        </g>
        <g id="Grupo_144488" data-name="Grupo 144488" transform="translate(12.297 8.472)">
          <g id="Grupo_144487" data-name="Grupo 144487">
            <path id="Trazado_210122" data-name="Trazado 210122" d="M172.266,298.6l.88.243-1.485-2.394Z" transform="translate(-171.66 -296.453)" fill="#fae6de"/>
          </g>
        </g>
        <g id="Grupo_144490" data-name="Grupo 144490" transform="translate(8.966 8.688)">
          <g id="Grupo_144489" data-name="Grupo 144489">
            <path id="Trazado_210123" data-name="Trazado 210123" d="M169.13,298.837l-.8,1.287L166.46,297.2l.8-.407Z" transform="translate(-166.46 -296.789)" fill="#fae6de"/>
          </g>
        </g>
        <g id="Grupo_144491" data-name="Grupo 144491" transform="translate(15.129 12.857)">
          <path id="Trazado_210124" data-name="Trazado 210124" d="M176.677,306.368a9.767,9.767,0,0,0-.018-3.072s-.169.937-.581,2.4Z" transform="translate(-176.079 -303.296)" fill="#d1c0ba"/>
        </g>
        <g id="Grupo_144492" data-name="Grupo 144492" transform="translate(6.807 12.904)">
          <path id="Trazado_210125" data-name="Trazado 210125" d="M163.091,306.141s.794-2.627.841-2.771a22.259,22.259,0,0,1-.358,3.609S163.281,306.469,163.091,306.141Z" transform="translate(-163.091 -303.37)" fill="#d1c0ba"/>
        </g>
        <g id="Grupo_144493" data-name="Grupo 144493" transform="translate(23.888 2.51)">
          <path id="Trazado_210126" data-name="Trazado 210126" d="M202.245,287.147l-12.5,15.744.436.336Z" transform="translate(-189.749 -287.147)" fill="#54281a"/>
        </g>
        <g id="Grupo_144495" data-name="Grupo 144495" transform="translate(25.46 15.449)">
          <g id="Grupo_144494" data-name="Grupo 144494">
            <path id="Trazado_210127" data-name="Trazado 210127" d="M193.6,307.368s-.937-.088-.971.062a.24.24,0,0,0,.046.224l-.4.139s-.215.242.111.4c0,0-.223.206.111.325,0,0-.087.2.058.284a3.18,3.18,0,0,0,.751.114s.131-.051.1-.288a.325.325,0,0,0,.14-.341.356.356,0,0,0,.08-.358s.289-.292.07-.552A.848.848,0,0,0,193.6,307.368Z" transform="translate(-192.204 -307.342)" fill="#db9c7c"/>
          </g>
        </g>
        <g id="Grupo_144497" data-name="Grupo 144497" transform="translate(24.985 15.172)">
          <g id="Grupo_144496" data-name="Grupo 144496">
            <path id="Trazado_210128" data-name="Trazado 210128" d="M191.795,306.909a3.222,3.222,0,0,1,.759.668c.048.073.082.152.033.224s-.217.094-.46-.044a2.353,2.353,0,0,0-.623-.206S191.3,307.334,191.795,306.909Z" transform="translate(-191.461 -306.909)" fill="#eea886"/>
          </g>
        </g>
        <g id="Grupo_144498" data-name="Grupo 144498" transform="translate(8.966 0.385)">
          <path id="Trazado_210129" data-name="Trazado 210129" d="M168.914,283.832a2.583,2.583,0,0,1,2.5,2.448,7.577,7.577,0,0,1-.862,5.054,2.54,2.54,0,0,1-2.965-1.215c-.5-1.3-1.228-2.248-1.118-3.366S166.314,283.789,168.914,283.832Z" transform="translate(-166.461 -283.831)" fill="#eea886"/>
        </g>
        <g id="Grupo_144499" data-name="Grupo 144499" transform="translate(7.606)">
          <path id="Trazado_210130" data-name="Trazado 210130" d="M170.744,287.011s.566-3.122-2.241-3.681a3.174,3.174,0,0,0-4.058,2.5,21.8,21.8,0,0,0,.049,4.362,14.587,14.587,0,0,0,2.988,2.066,17.937,17.937,0,0,1-.583-5.881,12,12,0,0,0,3.8-.015S170.74,286.877,170.744,287.011Z" transform="translate(-164.338 -283.23)" fill="#16202e"/>
        </g>
        <g id="Grupo_144500" data-name="Grupo 144500" transform="translate(10.606 7.372)">
          <path id="Trazado_210131" data-name="Trazado 210131" d="M170.754,295.39a3.571,3.571,0,0,1-1.733-.654,4.116,4.116,0,0,0,1.682,1.205S170.761,295.5,170.754,295.39Z" transform="translate(-169.021 -294.736)" fill="#a77860"/>
        </g>
        <g id="Grupo_144501" data-name="Grupo 144501" transform="translate(0 24.146)">
          <rect id="Rectángulo_43305" data-name="Rectángulo 43305" width="8.273" height="6.119" transform="matrix(0.987, -0.161, 0.161, 0.987, 0, 1.333)" fill="#366e9c"/>
        </g>
        <g id="Grupo_144507" data-name="Grupo 144507" transform="translate(3.249 28.393)">
          <g id="Grupo_144506" data-name="Grupo 144506">
            <g id="Grupo_144505" data-name="Grupo 144505">
              <g id="Grupo_144504" data-name="Grupo 144504">
                <g id="Grupo_144503" data-name="Grupo 144503">
                  <g id="Grupo_144502" data-name="Grupo 144502">
                    <path id="Trazado_210132" data-name="Trazado 210132" d="M157.807,330.563a1.112,1.112,0,0,1-.14-.326s0-.217-.017-.371a1.157,1.157,0,0,0-.015-.119,2.062,2.062,0,0,1-.1-.643,13.815,13.815,0,0,1,.411-1.513l.723.025.68-.073a13.768,13.768,0,0,1,.837,1.838.625.625,0,0,1,0,.078,2.61,2.61,0,0,1-.132.518c-.007.045-.108.479-.227.538a.435.435,0,0,1-.423.01,1.046,1.046,0,0,1-.566.085.646.646,0,0,1-.57-.018S157.951,330.706,157.807,330.563Z" transform="translate(-157.538 -327.543)" fill="#eea886"/>
                  </g>
                </g>
              </g>
            </g>
          </g>
        </g>
        <g id="Grupo_144509" data-name="Grupo 144509" transform="translate(3.049 9.455)">
          <g id="Grupo_144508" data-name="Grupo 144508">
            <path id="Trazado_210133" data-name="Trazado 210133" d="M162.008,298.035a2,2,0,0,0-2.277,1.18,7.293,7.293,0,0,0-.936,3.054c-.1.736-1.116,5.1-1.164,5.312s-.381,2.938-.4,3.931c-.018.756.16,5.71.128,5.9s2.291-.335,2.291-.335-.257-4.569-.209-5.048a26.4,26.4,0,0,1,.384-3.566c.274-.823,1.359-4.971,1.55-5.379S163.228,298.553,162.008,298.035Z" transform="translate(-157.226 -297.986)" fill="#eddad3"/>
          </g>
        </g>
      </g>
      <g id="Grupo_144520" data-name="Grupo 144520" transform="translate(196.475 89.253)">
        <g id="Grupo_144511" data-name="Grupo 144511" transform="translate(4.329)">
          <path id="Trazado_210134" data-name="Trazado 210134" d="M510.592,313.193s7.34-21.524-6.666-28.2-25.9,2.973-28.144,8.192-1.652,14.71.264,21.328,1.637,16.692-2.525,20.062-9.323,8.965-9.068,20.356c.159,7.067,27.809-18.076,27.809-18.076Z" transform="translate(-464.444 -282.725)" fill="#252e3b"/>
        </g>
        <g id="Grupo_144512" data-name="Grupo 144512" transform="translate(0 55.49)">
          <path id="Trazado_210135" data-name="Trazado 210135" d="M488.486,369.911s-11.512,2.551-16.082,5.222-14.716,14.953-14.716,20.235,44.375,10.216,44.375,10.216l8.411,30.707s22.43-5.473,25.1-10.013S527.055,389.2,525.14,382.62c-1.954-6.716-9.993-11.4-19.339-12.71A64.185,64.185,0,0,0,488.486,369.911Z" transform="translate(-457.688 -369.329)" fill="#ff725e"/>
        </g>
        <g id="Grupo_144513" data-name="Grupo 144513" transform="translate(26.974 55.149)">
          <path id="Trazado_210136" data-name="Trazado 210136" d="M520.128,369.614s-.258,13.992-11.355,14.407-8.786-13.42-8.786-13.42S508.1,367.312,520.128,369.614Z" transform="translate(-499.786 -368.796)" fill="#eea886"/>
        </g>
        <g id="Grupo_144514" data-name="Grupo 144514" transform="translate(40.994 13.744)">
          <path id="Trazado_210137" data-name="Trazado 210137" d="M532.683,304.176s3.925,22.5-7.253,38.761C513.853,359.772,532.683,304.176,532.683,304.176Z" transform="translate(-521.667 -304.176)" fill="#252e3b"/>
        </g>
        <g id="Grupo_144515" data-name="Grupo 144515" transform="translate(28.493 41.481)">
          <path id="Trazado_210138" data-name="Trazado 210138" d="M518.6,352.057s-.772,6.693.516,10.855-16.967,4.278-16.957.855c.012-3.887,1.868-7.136.12-13.8S518.6,352.057,518.6,352.057Z" transform="translate(-502.158 -347.464)" fill="#eea886"/>
        </g>
        <g id="Grupo_144516" data-name="Grupo 144516" transform="translate(30.773 46.927)">
          <path id="Trazado_210139" data-name="Trazado 210139" d="M505.716,355.965a9.856,9.856,0,0,0,13.134.626s-.609,3.838-5.91,4.334S505.716,355.965,505.716,355.965Z" transform="translate(-505.716 -355.965)" fill="#a77860"/>
        </g>
        <g id="Grupo_144517" data-name="Grupo 144517" transform="translate(21.796 5.65)">
          <path id="Trazado_210140" data-name="Trazado 210140" d="M507.9,291.835s14.566,4.31,12.485,24.526-11.594,19.175-12.485,19.323-12.189.892-15.756-23.634S507.9,291.835,507.9,291.835Z" transform="translate(-491.705 -291.544)" fill="#eea886"/>
        </g>
        <g id="Grupo_144518" data-name="Grupo 144518" transform="translate(20.739 4.406)">
          <path id="Trazado_210141" data-name="Trazado 210141" d="M503.547,300.151s7.916,12.591,16.246,15.512c0,0,4.549-21.128-14.239-25.554s-15.845,21.34-14.443,28.211A55.846,55.846,0,0,1,503.547,300.151Z" transform="translate(-490.055 -289.601)" fill="#252e3b"/>
        </g>
        <g id="Grupo_144519" data-name="Grupo 144519" transform="translate(23.614 3.501)">
          <path id="Trazado_210142" data-name="Trazado 210142" d="M494.543,297.747s4.167-8.069,11.2-8.43,11.219,5.744,11.219,5.744a11.962,11.962,0,0,0-11.211-6.873C497.29,288.189,494.543,297.747,494.543,297.747Z" transform="translate(-494.543 -288.189)" fill="#ff725e"/>
        </g>
      </g>
      <g id="Grupo_144521" data-name="Grupo 144521" transform="translate(183.713 165.774)">
        <path id="Trazado_210143" data-name="Trazado 210143" d="M502.79,402.152l4.94,45.927H442.711l-4.94-45.927Z" transform="translate(-437.771 -402.152)" fill="#ff725e"/>
      </g>
      <g id="Grupo_144522" data-name="Grupo 144522" transform="translate(181.518 163.631)">
        <path id="Trazado_210144" data-name="Trazado 210144" d="M504.934,445.3H439.345l-5-46.494h65.589Zm-65.079-.566H504.3l-4.879-45.361H434.974Z" transform="translate(-434.344 -398.807)" fill="#5fa0ff"/>
      </g>
      <g id="Grupo_144523" data-name="Grupo 144523" transform="translate(214.521 183.581)">
        <path id="Trazado_210145" data-name="Trazado 210145" d="M494.058,434.358c.584,2.857-.749,5.542-2.977,6s-4.507-1.492-5.091-4.349.748-5.542,2.976-6S493.474,431.5,494.058,434.358Z" transform="translate(-485.853 -429.943)" fill="#5189db"/>
      </g>
      <g id="Grupo_144524" data-name="Grupo 144524" transform="translate(247.526 207.085)">
        <rect id="Rectángulo_43306" data-name="Rectángulo 43306" width="12.133" height="4.617" transform="translate(12.133 4.617) rotate(180)" fill="#5fa0ff"/>
      </g>
      <g id="Grupo_144525" data-name="Grupo 144525" transform="translate(199.798 53.799)">
        <path id="Trazado_210146" data-name="Trazado 210146" d="M472.878,247.4a10,10,0,1,1,10-10A10.014,10.014,0,0,1,472.878,247.4Zm0-19.439a9.436,9.436,0,1,0,9.436,9.436A9.447,9.447,0,0,0,472.878,227.958Z" transform="translate(-462.875 -227.391)" fill="#64a4ff"/>
      </g>
    </g>
  </g>
</svg>
