<svg xmlns="http://www.w3.org/2000/svg" width="81.788" height="81.769" viewBox="0 0 81.788 81.769">
  <g id="rompecabezas" transform="translate(-2 -2.003)">
    <g id="Outline_copy" data-name="Outline copy" transform="translate(2 2.003)">
      <path id="Trazado_203238" data-name="Trazado 203238" d="M67.294,75.261a5.243,5.243,0,0,1-4.371.48,1.365,1.365,0,0,0-.863,2.589A7.967,7.967,0,0,0,68.7,77.6l.2-.117c-.029.352-.075.7-.078,1.058L68.791,82.4a1.363,1.363,0,0,0,1.353,1.368h.01a1.363,1.363,0,0,0,1.363-1.355l.025-3.862a11.219,11.219,0,0,1,1.6-5.7,13.9,13.9,0,0,0,1.717-4.44l.2-1.011a17.328,17.328,0,0,1,.9-3.011l2.726-6.823a2.726,2.726,0,0,0,.172-.758l3.873-3.875a1.363,1.363,0,0,0,0-1.927l-5.4-5.4a1.227,1.227,0,0,1-.273-1.306,6.814,6.814,0,1,0-6.9-6.9,1.227,1.227,0,0,1-1.3-.273l-5.4-5.4a1.363,1.363,0,0,0-1.927,0L55.05,38.227c.02-.124.048-.244.063-.369a6.78,6.78,0,0,0-6.664-7.552,1.227,1.227,0,0,1,.273-1.3l5.4-5.4a1.363,1.363,0,1,0-1.927-1.927l-5.393,5.4a3.952,3.952,0,0,0,0,5.588,1.387,1.387,0,0,0,1.108.393A4.089,4.089,0,1,1,44.3,36.664a1.363,1.363,0,0,0-.391-1.108,3.952,3.952,0,0,0-5.588,0l-4.435,4.427-8.192-8.191-8.274-8.275a7.6,7.6,0,0,0,5.3-2.239,7.692,7.692,0,0,0,1.849-3l.315-.942a1.049,1.049,0,0,1,.253-.409l.954-.954a1.066,1.066,0,0,1,.29-.207,8.305,8.305,0,0,0,5.06-7.44V7.957a1.191,1.191,0,0,0-.038-.181l2.489-2.487,5.2,5.2a6.151,6.151,0,0,1-1.841.69A6.709,6.709,0,0,0,33.889,13a6.783,6.783,0,0,0-1.954,5.588,6.854,6.854,0,0,0,3.2,5.043A6.789,6.789,0,0,0,45.34,19.29a6.153,6.153,0,0,1,.694-1.852l2.705,2.705a1.363,1.363,0,0,0,1.926-1.926l-3.772-3.771a1.363,1.363,0,0,0-1.926,0l-.183.184a8.016,8.016,0,0,0-2.11,4.089,4,4,0,0,1-1.859,2.6,4.089,4.089,0,0,1-5-6.4,4,4,0,0,1,2-1.082A8,8,0,0,0,41.9,11.735l.181-.184a1.363,1.363,0,0,0,0-1.926L34.854,2.4a1.363,1.363,0,0,0-1.927,0L29.468,5.85a2.708,2.708,0,0,0-1.661.113L20.992,8.689a17.284,17.284,0,0,1-3.013.9,19.86,19.86,0,0,0-6.337,2.453A6.6,6.6,0,0,1,7.9,12.98L3.386,12.9a1.363,1.363,0,1,0-.046,2.726l4.469.075H7.93l-.15.248a7.973,7.973,0,0,0-.728,6.637,1.365,1.365,0,1,0,2.589-.863,5.251,5.251,0,0,1,.48-4.371l1.334-2.238a9.412,9.412,0,0,0,1.584-.743,17.118,17.118,0,0,1,5.469-2.114A20.013,20.013,0,0,0,22,11.223l6.7-2.682a5.7,5.7,0,0,1-3.505,4.77,3.783,3.783,0,0,0-1.039.735L23.2,15a3.782,3.782,0,0,0-.91,1.475l-.315.942a4.94,4.94,0,0,1-1.191,1.926,4.89,4.89,0,0,1-3.482,1.443H14.13a1.363,1.363,0,0,0-.968,2.339L21.837,31.8l-.358.05A6.089,6.089,0,0,1,16.2,30.014a8.45,8.45,0,0,0-6.133-2.472H3.363a1.363,1.363,0,1,0,0,2.726h6.7a5.724,5.724,0,0,1,4.164,1.625,8.815,8.815,0,0,0,7.632,2.654l2.381-.341,8.675,8.673a1.4,1.4,0,0,0,1.927,0l5.4-5.4a1.227,1.227,0,0,1,1.306-.273,6.742,6.742,0,0,0,7.9,6.625l-7.192,7.191a1.363,1.363,0,0,0,0,1.927l8.192,8.192-.318,2.183a9.238,9.238,0,0,0,2.6,7.8,6.475,6.475,0,0,1,1.874,4.08l.557,7.3a1.363,1.363,0,0,0,1.363,1.259h.1a1.363,1.363,0,0,0,1.246-1.466L57.333,75a9.2,9.2,0,0,0-2.666-5.8,6.494,6.494,0,0,1-1.832-5.488l.023-.172,4.06,4.059a1.363,1.363,0,1,0,1.927-1.927l-13.7-13.7,5.2-5.2a6.114,6.114,0,0,1,.69,1.841,6.776,6.776,0,0,0,7.4,5.315,6.8,6.8,0,0,0,.709-13.408,6.212,6.212,0,0,1-1.854-.694l5.2-5.2,4.429,4.433a4.046,4.046,0,0,0,5.588,0,1.363,1.363,0,0,0,.391-1.108,4.08,4.08,0,1,1,7.546,1.68,4.026,4.026,0,0,1-3.937,1.927,1.363,1.363,0,0,0-1.108.391,3.952,3.952,0,0,0,0,5.588l4.432,4.432-2.268,2.269a2.725,2.725,0,0,0-.338-.188,5.967,5.967,0,0,0-8.258,4.634,1.063,1.063,0,0,1-.3.6l-.954.954a1.056,1.056,0,0,1-.409.252l-.942.315a7.68,7.68,0,0,0-2.992,1.848A7.6,7.6,0,0,0,61.14,68.07v3.177a1.363,1.363,0,0,0,2.726,0V68.074a4.9,4.9,0,0,1,1.441-3.482,4.964,4.964,0,0,1,1.926-1.19l.943-.313a3.816,3.816,0,0,0,1.476-.913l.954-.954a3.808,3.808,0,0,0,1.071-2.138,3.241,3.241,0,0,1,4.487-2.521l-2.726,6.821A20,20,0,0,0,72.4,66.872l-.2,1.011a11.175,11.175,0,0,1-1.382,3.572A13.92,13.92,0,0,0,69.7,73.873ZM58.572,43.186a4.007,4.007,0,0,1,2.6,1.859,4.089,4.089,0,0,1-6.4,5,3.975,3.975,0,0,1-1.082-2,8.006,8.006,0,0,0-2.107-4.089l-.183-.183a1.338,1.338,0,0,0-.631-.334,6.654,6.654,0,0,0,1.134-.553,6.99,6.99,0,0,0,2.227-2.245,1.335,1.335,0,0,0,.159.24l.183.181a8.011,8.011,0,0,0,4.094,2.115Z" transform="translate(-2 -2.003)" fill="#30610c"/>
      <path id="Trazado_203239" data-name="Trazado 203239" d="M36.289,44.33a1.363,1.363,0,0,0-1.927,0l-.184.183A8.022,8.022,0,0,0,32.071,48.6a3.985,3.985,0,0,1-1.082,2,4.089,4.089,0,0,1-6.4-5.006,4.008,4.008,0,0,1,2.6-1.858,8.03,8.03,0,0,0,4.089-2.108l.183-.181a1.363,1.363,0,0,0,0-1.93l-7.223-7.223a1.4,1.4,0,0,0-1.927,0l-5.4,5.4a1.227,1.227,0,0,1-1.3.273A6.778,6.778,0,0,0,8.064,31.3,6.8,6.8,0,0,0,8.72,44.858a1.227,1.227,0,0,1-.273,1.306l-5.4,5.4a1.363,1.363,0,0,0,0,1.927L22.315,72.758a1.363,1.363,0,0,0,1.927,0l5.833-5.83A1.363,1.363,0,1,0,28.148,65l-4.869,4.867L5.933,52.521l4.432-4.433a3.952,3.952,0,0,0,0-5.588,1.363,1.363,0,0,0-1.108-.391A4.084,4.084,0,1,1,12.866,38.5a1.353,1.353,0,0,0,.391,1.107,3.952,3.952,0,0,0,5.588,0l4.432-4.432,5.2,5.2a6.25,6.25,0,0,1-1.854.694,6.8,6.8,0,1,0,8.111,8.093,6.092,6.092,0,0,1,.69-1.84l5.2,5.2L32,61.141a1.366,1.366,0,1,0,1.931,1.931l9.588-9.588a1.363,1.363,0,0,0,0-1.927Z" transform="translate(-1.999 8.611)" fill="#30610c"/>
    </g>
  </g>
</svg>
