<svg xmlns="http://www.w3.org/2000/svg" xmlns:xlink="http://www.w3.org/1999/xlink" width="278.236" height="278.068" viewBox="0 0 278.236 278.068">
  <defs>
    <linearGradient id="linear-gradient" y1="0.5" x2="1" y2="0.5" gradientUnits="objectBoundingBox">
      <stop offset="0" stop-color="#dae3fe"/>
      <stop offset="1" stop-color="#e9effd"/>
    </linearGradient>
    <linearGradient id="linear-gradient-2" x1="-30.68" y1="-2.445" x2="159.69" y2="15.534" gradientUnits="objectBoundingBox">
      <stop offset="0" stop-color="#a737d5"/>
      <stop offset="1" stop-color="#ef497a"/>
    </linearGradient>
    <linearGradient id="linear-gradient-3" x1="1.876" y1="-0.315" x2="1.234" y2="0.061" gradientUnits="objectBoundingBox">
      <stop offset="0" stop-color="#e1473d"/>
      <stop offset="1" stop-color="#e9605a"/>
    </linearGradient>
    <linearGradient id="linear-gradient-4" x1="-0.897" y1="-0.736" x2="7.16" y2="6.41" xlink:href="#linear-gradient-2"/>
    <linearGradient id="linear-gradient-5" x1="0.882" y1="0.204" x2="10.345" y2="-7.223" gradientUnits="objectBoundingBox">
      <stop offset="0" stop-color="#ff928e"/>
      <stop offset="1" stop-color="#fe7062"/>
    </linearGradient>
  </defs>
  <g id="Grupo_143170" data-name="Grupo 143170" transform="translate(-461.552 -455)">
    <path id="Trazado_203853" data-name="Trazado 203853" d="M703.96,691.723a99.12,99.12,0,0,1-15.167,12.77c-49.476,35.5-108.019,25.152-120.461,22.625-18.373-3.732-53.888-10.945-79.564-41.14-38.846-45.683-32.8-117.654-2.666-165.164,5.512-8.69,34.625-56.923,93.8-64.658,35.811-4.681,77.556,4.76,107.786,30.087C751.143,539.406,746.626,646.806,703.96,691.723Z" transform="translate(0 0)" fill="none"/>
    <g id="Grupo_143152" data-name="Grupo 143152" transform="translate(642.637 455.683)">
      <g id="Grupo_143150" data-name="Grupo 143150" transform="translate(0)">
        <path id="Trazado_203854" data-name="Trazado 203854" d="M2287.141,617.932s-.805-33.864,14.792-42.927,45.253-14.73,46.365-63.355c.651-28.467,1.355-40.914,1.827-46.341a3.205,3.205,0,0,0-3.785-3.432c-14.772,2.783-62.759,14.237-72.82,46.99C2261.592,547.7,2287.141,617.932,2287.141,617.932Z" transform="translate(-2270.347 -461.82)" fill="#98c773"/>
        <path id="Trazado_203855" data-name="Trazado 203855" d="M2444.277,596.127c-16.215,14.462-34.965,40.056-44.958,65.65-1.283,4.218-5.035,13.188-6.665,29.126-1.455,13.292-.732,27.338,1.033,36.636a1.083,1.083,0,0,0,1.266.862,1.1,1.1,0,0,0,.867-1.245,148.545,148.545,0,0,1,3.439-53.5c5.9-21.905,19.06-43.144,32.671-61.156l1.4-1.774c10.546-13.543,12.766-13.643,11.78-14.587A.617.617,0,0,0,2444.277,596.127Z" transform="translate(-2379.709 -582.542)" fill="#bdd0fb"/>
      </g>
      <g id="Grupo_143151" data-name="Grupo 143151" transform="translate(0 87.107)">
        <path id="Trazado_203856" data-name="Trazado 203856" d="M2242.128,1463.017c-2.11,1.035,19.978-26.741,26.9-70.365,3.26-20.557,3.3-46.312,15.013-56.238,9.746-8.261,42.91-3.045,53.761-1.063a1.627,1.627,0,0,1,.757,2.847c-5.2,4.37-16.336,14.679-19.236,25.068-3.823,13.693-16.842,22.4-28.5,24.76s-18.138,4.645-23.816,23.283S2248.124,1460.077,2242.128,1463.017Z" transform="translate(-2241.987 -1331.898)" fill="#afe684"/>
        <path id="Trazado_203857" data-name="Trazado 203857" d="M2569.16,1424.177c-13.844.58-28.705,6.9-36.247,18.742l-.712,1.13c-1.644,2.651-10.961,21.493-16.136,37.113a.371.371,0,0,0,.236.469.379.379,0,0,0,.465-.222c3.605-8.824,8.783-20.011,12.908-28.377,4.423-9.129,7.518-15.311,17.606-21.233a56.167,56.167,0,0,1,21.923-7.027.3.3,0,0,0-.043-.594Z" transform="translate(-2488.61 -1414.938)" fill="url(#linear-gradient)"/>
      </g>
    </g>
    <g id="Grupo_143166" data-name="Grupo 143166" transform="translate(514.639 475.321)">
      <path id="Trazado_203858" data-name="Trazado 203858" d="M991.82,969.2a15.837,15.837,0,0,1,15.837-15.837h134.679a13.953,13.953,0,0,1,13.935,13.243l9.941,195.259a10.289,10.289,0,0,1-10.089,10.811l-154.359,2.806a9.767,9.767,0,0,1-9.944-9.765Z" transform="translate(-991.82 -923.794)" fill="#455a64"/>
      <path id="Trazado_203859" data-name="Trazado 203859" d="M1067.051,2803.78h0l-17.272-.223a10.652,10.652,0,0,1-10.474-10.61V2766.87a.369.369,0,0,1,.737,0v26.077a9.912,9.912,0,0,0,9.746,9.873l17.272.223a.369.369,0,0,1,0,.737Z" transform="translate(-1034.547 -2555.409)" fill="#91b3fa"/>
      <path id="Trazado_203860" data-name="Trazado 203860" d="M1039.669,2648.593a.369.369,0,0,1-.369-.369V2644a.369.369,0,1,1,.737,0v4.223A.369.369,0,0,1,1039.669,2648.593Z" transform="translate(-1034.547 -2444.841)" fill="url(#linear-gradient-2)"/>
      <g id="Grupo_143165" data-name="Grupo 143165" transform="translate(11.034 27.947)">
        <path id="Trazado_203861" data-name="Trazado 203861" d="M1102.03,941.763a4.6,4.6,0,0,1,5.218-4.588c18.391,2.494,81.635,10.208,133.925,6.194a4.254,4.254,0,0,1,4.581,4.012l10.424,196.129a4.9,4.9,0,0,1-4.6,5.148c-21.992,1.3-112.562,6.333-144.866,2.949a3.879,3.879,0,0,1-3.47-3.838Z" transform="translate(-1102.03 -937.132)" fill="url(#linear-gradient-3)"/>
        <path id="Trazado_203862" data-name="Trazado 203862" d="M1123.669,992.423a4.427,4.427,0,0,1,5.021-4.415c17.7,2.4,78.562,9.823,128.882,5.961a4.094,4.094,0,0,1,4.408,3.861l10.031,188.744a4.711,4.711,0,0,1-4.426,4.954c-21.164,1.252-108.323,6.094-139.411,2.838a3.732,3.732,0,0,1-3.339-3.694Z" transform="translate(-1121.503 -982.878)" fill="#ffe98f"/>
        <path id="Trazado_203863" data-name="Trazado 203863" d="M1287.3,1152.106l1.88,40.465a2.572,2.572,0,0,0,2.5,2.454c7.494.211,30.846.781,44.031.094a2.873,2.873,0,0,0,2.721-2.777c.251-7.589.8-29.676-.928-38.909a3.242,3.242,0,0,0-3.078-2.637l-44.3-1.549A2.736,2.736,0,0,0,1287.3,1152.106Z" transform="translate(-1268.75 -1128.008)" fill="#fff" opacity="0.78"/>
        <g id="Grupo_143153" data-name="Grupo 143153" transform="translate(79.561 24.01)" opacity="0.6">
          <path id="Trazado_203864" data-name="Trazado 203864" d="M1946.619,1180.567a1.392,1.392,0,0,0,1.466-1.358,1.526,1.526,0,0,0-1.545-1.384l-48.718-.868a.979.979,0,0,0-1.005,1.393l.28.8a2.284,2.284,0,0,0,2.006,1.42Z" transform="translate(-1896.736 -1176.956)" fill="#fff"/>
        </g>
        <g id="Grupo_143154" data-name="Grupo 143154" transform="translate(79.561 31.553)" opacity="0.6">
          <path id="Trazado_203865" data-name="Trazado 203865" d="M1897.822,1252.307a.979.979,0,0,0-1.005,1.394l.28.8a2.284,2.284,0,0,0,2.006,1.42h47.516a1.392,1.392,0,0,0,1.466-1.357,1.526,1.526,0,0,0-1.545-1.384Z" transform="translate(-1896.736 -1252.306)" fill="#fff"/>
        </g>
        <g id="Grupo_143155" data-name="Grupo 143155" transform="translate(79.561 39.207)" opacity="0.6">
          <path id="Trazado_203866" data-name="Trazado 203866" d="M1897.822,1328.753a.979.979,0,0,0-1.005,1.393l.28.8a2.283,2.283,0,0,0,2.006,1.42h47.516a1.392,1.392,0,0,0,1.466-1.358,1.526,1.526,0,0,0-1.545-1.384Z" transform="translate(-1896.736 -1328.753)" fill="#fff"/>
        </g>
        <g id="Grupo_143156" data-name="Grupo 143156" transform="translate(19.209 76.1)" opacity="0.6">
          <path id="Trazado_203867" data-name="Trazado 203867" d="M1408.854,1700.89a1.333,1.333,0,0,0,1.416-1.357,1.577,1.577,0,0,0-1.6-1.369l-113.939-.9c-.828-.007-1.084.518-.568,1.166l1.02,1.281a3.546,3.546,0,0,0,2.444,1.178Z" transform="translate(-1293.902 -1697.265)" fill="#fff"/>
        </g>
        <g id="Grupo_143157" data-name="Grupo 143157" transform="translate(19.209 83.643)" opacity="0.6">
          <path id="Trazado_203868" data-name="Trazado 203868" d="M1294.736,1772.616c-.828-.006-1.084.518-.568,1.166l1.02,1.281a3.545,3.545,0,0,0,2.444,1.178h111.222a1.332,1.332,0,0,0,1.416-1.357,1.578,1.578,0,0,0-1.6-1.369Z" transform="translate(-1293.902 -1772.616)" fill="#fff"/>
        </g>
        <path id="Trazado_203869" data-name="Trazado 203869" d="M1282.739,1895.316c2.736-.21,7.86-.307,10.68-.346a2.556,2.556,0,0,1,2.524,1.955,41.666,41.666,0,0,1,1.2,10.327,2.27,2.27,0,0,1-2.29,2.222l-10.408-.112a2.5,2.5,0,0,1-2.462-2.267l-.915-9.791A1.821,1.821,0,0,1,1282.739,1895.316Z" transform="translate(-1263.136 -1799.077)" fill="url(#linear-gradient-4)"/>
        <g id="Grupo_143158" data-name="Grupo 143158" transform="translate(37.48 100.255)" opacity="0.6">
          <path id="Trazado_203870" data-name="Trazado 203870" d="M1477.7,1938.549a1.2,1.2,0,0,0-1.281,1.426l.274,1.821a1.809,1.809,0,0,0,1.729,1.489h25.422a1.488,1.488,0,0,0,1.487-1.506l-.007-.571a1.612,1.612,0,0,0-1.523-1.569Z" transform="translate(-1476.404 -1938.548)" fill="#fff"/>
        </g>
        <path id="Trazado_203871" data-name="Trazado 203871" d="M1849.112,1895.316c2.736-.21,7.86-.307,10.68-.346a2.556,2.556,0,0,1,2.524,1.955,41.66,41.66,0,0,1,1.2,10.327,2.27,2.27,0,0,1-2.29,2.222l-10.408-.112a2.5,2.5,0,0,1-2.462-2.267l-.915-9.791A1.821,1.821,0,0,1,1849.112,1895.316Z" transform="translate(-1772.808 -1799.077)" fill="url(#linear-gradient-5)"/>
        <g id="Grupo_143159" data-name="Grupo 143159" transform="translate(94.181 100.255)" opacity="0.6">
          <path id="Trazado_203872" data-name="Trazado 203872" d="M2044.074,1938.549a1.2,1.2,0,0,0-1.281,1.426l.273,1.821a1.809,1.809,0,0,0,1.729,1.489h25.422a1.488,1.488,0,0,0,1.487-1.506l-.007-.571a1.613,1.613,0,0,0-1.523-1.569Z" transform="translate(-2042.776 -1938.548)" fill="#fff"/>
        </g>
        <g id="Grupo_143164" data-name="Grupo 143164" transform="translate(16.309 126.743)">
          <g id="Grupo_143160" data-name="Grupo 143160" opacity="0.6">
            <path id="Trazado_203873" data-name="Trazado 203873" d="M1265.042,2206.118a3.037,3.037,0,0,0,2.985,1.776l114.008-.758a2.087,2.087,0,0,0,2.293-1.843,2.119,2.119,0,0,0-2.3-1.764l-114.011-.405C1266,2203.117,1264.528,2204.6,1265.042,2206.118Z" transform="translate(-1264.939 -2203.125)" fill="#fff"/>
          </g>
          <g id="Grupo_143161" data-name="Grupo 143161" transform="translate(0 20.584)" opacity="0.6">
            <path id="Trazado_203874" data-name="Trazado 203874" d="M1265.042,2411.725a3.037,3.037,0,0,0,2.985,1.776l114.008-.758a2.088,2.088,0,0,0,2.293-1.843,2.119,2.119,0,0,0-2.3-1.764l-114.011-.405C1266,2408.724,1264.528,2410.208,1265.042,2411.725Z" transform="translate(-1264.939 -2408.732)" fill="#fff"/>
          </g>
          <g id="Grupo_143162" data-name="Grupo 143162" transform="translate(0 41.168)" opacity="0.6">
            <path id="Trazado_203875" data-name="Trazado 203875" d="M1265.042,2617.331a3.037,3.037,0,0,0,2.985,1.777l114.008-.758a2.087,2.087,0,0,0,2.293-1.843,2.119,2.119,0,0,0-2.3-1.764l-114.011-.405C1266,2614.331,1264.528,2615.814,1265.042,2617.331Z" transform="translate(-1264.939 -2614.338)" fill="#fff"/>
          </g>
          <g id="Grupo_143163" data-name="Grupo 143163" transform="translate(0 61.752)" opacity="0.6">
            <path id="Trazado_203876" data-name="Trazado 203876" d="M1265.042,2822.938h0a3.037,3.037,0,0,0,2.985,1.776l114.008-.758a2.087,2.087,0,0,0,2.293-1.843,2.119,2.119,0,0,0-2.3-1.764l-114.011-.405C1266,2819.938,1264.528,2821.421,1265.042,2822.938Z" transform="translate(-1264.939 -2819.945)" fill="#fff"/>
          </g>
        </g>
      </g>
      <path id="Trazado_203877" data-name="Trazado 203877" d="M1759.415,660.927c-4.865-3.384-9.095-3.317-12.073-2.439a5.94,5.94,0,0,0-4.219,6.244l1.284,14.016,15.281,1.356S1768.955,667.564,1759.415,660.927Zm-6.72,11.308a3.81,3.81,0,1,1,3.81-3.81A3.81,3.81,0,0,1,1752.695,672.235Z" transform="translate(-1667.885 -657.977)" fill="#455a64"/>
      <path id="Trazado_203878" data-name="Trazado 203878" d="M1762.914,691.3a.368.368,0,0,1-.367-.335l-.2-2.232a.369.369,0,1,1,.734-.067l.2,2.232a.369.369,0,0,1-.333.4Zm-.4-4.374a.369.369,0,0,1-.367-.335l-.155-1.695a5.669,5.669,0,0,1,4.02-5.948,11.418,11.418,0,0,1,5.585-.229.369.369,0,1,1-.148.722,10.7,10.7,0,0,0-5.228.214,4.931,4.931,0,0,0-3.494,5.174l.156,1.695a.369.369,0,0,1-.333.4Z" transform="translate(-1684.865 -676.426)" fill="#91b3fa"/>
      <path id="Trazado_203879" data-name="Trazado 203879" d="M1547.856,853.945V846.9a4.3,4.3,0,0,1,4.448-4.3l48.587,1.665a4.182,4.182,0,0,1,4.032,3.929l.406,6.771Z" transform="translate(-1492.189 -824.114)" fill="#263238"/>
      <path id="Trazado_203880" data-name="Trazado 203880" d="M1706.721,862.517h-2.089a.369.369,0,1,1,0-.737h2.089a.369.369,0,1,1,0,.737Z" transform="translate(-1632.938 -841.377)" fill="#91b3fa"/>
      <path id="Trazado_203881" data-name="Trazado 203881" d="M1570.81,868.994a.369.369,0,0,1-.369-.369v-2.851a4,4,0,0,1,3.995-3.994h7.682a.369.369,0,0,1,0,.737h-7.682a3.261,3.261,0,0,0-3.257,3.257v2.851A.369.369,0,0,1,1570.81,868.994Z" transform="translate(-1512.513 -841.377)" fill="#91b3fa"/>
      <path id="Trazado_203882" data-name="Trazado 203882" d="M1348.387,934.518a4.578,4.578,0,0,1,4.573-4.359l84.963,0a6.28,6.28,0,0,1,6.188,5.209l.072.415a5.393,5.393,0,0,1-5.314,6.313H1351.7a3.506,3.506,0,0,1-3.5-3.675Z" transform="translate(-1312.518 -902.908)" fill="#cb5a4a"/>
    </g>
    <g id="Grupo_143169" data-name="Grupo 143169" transform="translate(462.703 593.37)">
      <g id="Grupo_143167" data-name="Grupo 143167" transform="translate(0 105.238)">
        <rect id="Rectángulo_43035" data-name="Rectángulo 43035" width="122.143" height="28.466" transform="translate(2.543 0.797)" fill="#263238"/>
        <path id="Rectángulo_43036" data-name="Rectángulo 43036" d="M0,0H126.837a0,0,0,0,1,0,0V5.764a5.167,5.167,0,0,1-5.167,5.167H7.733A7.733,7.733,0,0,1,0,3.2V0A0,0,0,0,1,0,0Z" transform="translate(0 16.51)" fill="#455a64"/>
        <path id="Rectángulo_43037" data-name="Rectángulo 43037" d="M0,0H126.837a0,0,0,0,1,0,0V3.264a7.667,7.667,0,0,1-7.667,7.667H9.566A9.566,9.566,0,0,1,0,1.365V0A0,0,0,0,1,0,0Z" transform="translate(0 4.099)" fill="#455a64"/>
        <path id="Rectángulo_43038" data-name="Rectángulo 43038" d="M4.048,0h118.69a4.1,4.1,0,0,1,4.1,4.1v0a0,0,0,0,1,0,0H0a0,0,0,0,1,0,0V4.048A4.048,4.048,0,0,1,4.048,0Z" fill="#263238"/>
      </g>
      <g id="Grupo_143168" data-name="Grupo 143168" transform="translate(35.084 0)">
        <ellipse id="Elipse_6839" data-name="Elipse 6839" cx="9.613" cy="8.275" rx="9.613" ry="8.275" transform="translate(187.384 132.46) rotate(-64.067)" fill="#455a64"/>
        <path id="Trazado_203892" data-name="Trazado 203892" d="M3.554,0H7.322a3.554,3.554,0,0,1,3.554,3.554h0A3.554,3.554,0,0,1,7.322,7.109H3.554A3.554,3.554,0,0,1,3.554,0Z" transform="matrix(0.437, -0.899, 0.899, 0.437, 185.706, 127.001)" fill="#608191"/>
        <path id="Trazado_203883" data-name="Trazado 203883" d="M1603.763,2478.558a22.533,22.533,0,0,1-5.091,10.414,6.152,6.152,0,0,1-5.936,1.955c-21.561-4.329-66.749-32.258-110.634-56.656-2.908-1.617-4.918-3.451-3.548-6.27l3.026-6.224c1.362-2.8,4.622-1.224,7.68.032,46.42,19.072,95.654,35.7,112.556,51.077A6.11,6.11,0,0,1,1603.763,2478.558Z" transform="translate(-1412.577 -2361.842)" fill="#ff725e"/>
        <path id="Trazado_203884" data-name="Trazado 203884" d="M1431.714,2340.818l-10.275,21.129a.6.6,0,0,1-.8.277l-5.42-2.635a.6.6,0,0,1-.277-.8l10.275-21.129a.6.6,0,0,1,.8-.278l5.42,2.636A.6.6,0,0,1,1431.714,2340.818Z" transform="translate(-1355.671 -2287.243)" fill="#263238"/>
        <path id="Trazado_203885" data-name="Trazado 203885" d="M975.52,2130.131l-10.275,21.129a.6.6,0,0,1-.8.278l-5.42-2.635a.6.6,0,0,1-.277-.8l10.275-21.129a.6.6,0,0,1,.8-.278l5.42,2.636A.6.6,0,0,1,975.52,2130.131Z" transform="translate(-945.149 -2097.649)" fill="#455a64"/>
        <rect id="Rectángulo_43040" data-name="Rectángulo 43040" width="74.24" height="50.297" transform="translate(2.852 77.709) rotate(-64.067)" fill="#ff725e"/>
        <rect id="Rectángulo_43041" data-name="Rectángulo 43041" width="9.336" height="50.297" transform="translate(0.481 82.584) rotate(-64.067)" fill="#263238"/>
        <path id="Trazado_203886" data-name="Trazado 203886" d="M871.043,2646.159l-2.029,4.173a2.9,2.9,0,0,1-3.434,1.512,140.868,140.868,0,0,1-40.876-19.9,2.857,2.857,0,0,1-.931-3.589l2.038-4.19Z" transform="translate(-823.485 -2545.372)" fill="#455a64"/>
        <path id="Trazado_203887" data-name="Trazado 203887" d="M892.575,2565.928l-1.692,3.479a.625.625,0,0,1-.836.289l-47.357-23.029a.625.625,0,0,1-.289-.836l1.692-3.479a.626.626,0,0,1,.836-.289l47.357,23.029A.626.626,0,0,1,892.575,2565.928Z" transform="translate(-840.451 -2471.433)" fill="#263238"/>
        <path id="Trazado_203888" data-name="Trazado 203888" d="M894.79,2571.784l-1.151,2.366a.567.567,0,0,1-.758.262l-47.463-23.08a.567.567,0,0,1-.262-.758l1.151-2.366a.567.567,0,0,1,.758-.262l47.463,23.08A.567.567,0,0,1,894.79,2571.784Z" transform="translate(-842.936 -2476.733)" fill="#455a64"/>
        <rect id="Rectángulo_43042" data-name="Rectángulo 43042" width="9.336" height="50.297" transform="translate(84.897 24.002) rotate(115.933)" fill="#263238"/>
        <path id="Trazado_203889" data-name="Trazado 203889" d="M1246.5,1864.929l2.029-4.173a2.9,2.9,0,0,0-.931-3.635,140.86,140.86,0,0,0-40.895-19.863,2.857,2.857,0,0,0-3.4,1.484l-2.038,4.19Z" transform="translate(-1163.446 -1837.135)" fill="#455a64"/>
        <path id="Trazado_203890" data-name="Trazado 203890" d="M1195.445,1943.1l1.692-3.479a.626.626,0,0,0-.289-.836l-47.357-23.029a.626.626,0,0,0-.836.289l-1.692,3.479a.626.626,0,0,0,.289.836l47.357,23.029A.626.626,0,0,0,1195.445,1943.1Z" transform="translate(-1114.521 -1907.827)" fill="#303f46"/>
        <path id="Trazado_203891" data-name="Trazado 203891" d="M1198.2,1947.843l1.151-2.366a.567.567,0,0,0-.262-.758l-47.463-23.08a.567.567,0,0,0-.758.262l-1.151,2.366a.567.567,0,0,0,.262.758l47.463,23.08A.567.567,0,0,0,1198.2,1947.843Z" transform="translate(-1117.007 -1913.127)" fill="#455a64"/>
      </g>
    </g>
  </g>
</svg>
