<svg xmlns="http://www.w3.org/2000/svg" width="98.69" height="98.689" viewBox="0 0 98.69 98.689">
  <g id="seguro" transform="translate(-1 -1)">
    <g id="Grupo_142965" data-name="Grupo 142965" transform="translate(1 1)">
      <path id="Trazado_203284" data-name="Trazado 203284" d="M28.169,35.977l.167.336a6.743,6.743,0,0,0,12.062,0l.167-.336-2.848-1.425-.167.336a3.559,3.559,0,0,1-6.367,0l-.167-.336Z" transform="translate(15.078 18.855)" fill="#30610c"/>
      <circle id="Elipse_6825" data-name="Elipse 6825" cx="1.645" cy="1.645" r="1.645" transform="translate(52.635 47.7)" fill="#30610c"/>
      <circle id="Elipse_6826" data-name="Elipse 6826" cx="1.645" cy="1.645" r="1.645" transform="translate(42.766 47.7)" fill="#30610c"/>
      <path id="Trazado_203285" data-name="Trazado 203285" d="M97.074,68.371,79.554,59.22a8.224,8.224,0,0,0-7.48,0L58.192,66.469l-.172-.029L57.272,64.2A12.762,12.762,0,0,0,62.66,56.71h.521a6.373,6.373,0,0,0,6.367-6.367,6.309,6.309,0,0,0-1.425-3.965L69.271,42.1a9.435,9.435,0,0,0,.277-2.259c0-.013,0-.025,0-.04.7-3.933,5.457-6.966,9.452-6.966a7.968,7.968,0,0,1,7.959,7.959h3.184a39.794,39.794,0,0,0-79.588,0h3.184a7.968,7.968,0,0,1,7.959-7.959c4.326,0,9.551,3.55,9.551,7.959a14.006,14.006,0,0,0,1.383,5.759,6.3,6.3,0,0,0-1.281,3.792,6.373,6.373,0,0,0,6.367,6.367h.318A12.772,12.772,0,0,0,43.419,64.2l-.748,2.243-4.71.785a13.854,13.854,0,0,0-2.217.57,4.728,4.728,0,0,0,.275-1.534V63.079A4.781,4.781,0,0,0,31.244,58.3H5.775A4.781,4.781,0,0,0,1,63.079v3.184a4.781,4.781,0,0,0,4.775,4.775H7.66a4.722,4.722,0,0,0-.293,1.592v3.184A4.722,4.722,0,0,0,7.66,77.4H5.775A4.781,4.781,0,0,0,1,82.18v3.184a4.781,4.781,0,0,0,4.775,4.775H7.66a4.721,4.721,0,0,0-.293,1.592v3.184a4.781,4.781,0,0,0,4.775,4.775h81.18V77.1a4.758,4.758,0,0,0,3.752-8.728ZM56.266,70.654l-.75,7.48L52.529,74.39Zm6.913-17.126h-.1V47.161h.1a3.184,3.184,0,1,1,0,6.367ZM50.345,4.457c2.95,1.928,13.368,9.934,15.524,27.974A9.249,9.249,0,0,0,63.41,31.08L52.939,27.272a13.365,13.365,0,0,0-15.255,4.54l-.946,1.259a8.183,8.183,0,0,0-2.092,1.1c1.675-19.26,12.656-27.721,15.7-29.71ZM85.9,32.055A11.077,11.077,0,0,0,79,29.652a14.027,14.027,0,0,0-9.778,4.266C67.859,18.153,60.589,9.038,55.676,4.6A36.7,36.7,0,0,1,85.9,32.055Zm-64.209-2.4a11.077,11.077,0,0,0-6.905,2.4A36.7,36.7,0,0,1,45.014,4.6C40.1,9.038,32.832,18.153,31.471,33.918a14.027,14.027,0,0,0-9.778-4.266ZM34.527,50.345a3.184,3.184,0,0,1,3.083-3.174v6.346A3.181,3.181,0,0,1,34.527,50.345ZM66.188,41.3l-.828,3.083a6.28,6.28,0,0,0-2.181-.409h-1.5l-.608-.153a31.513,31.513,0,0,1-9.847-4.355l-.882-.589-.883.589a31.416,31.416,0,0,1-9.848,4.355l-.606.153H37.712a6.32,6.32,0,0,0-2.505.517,10.313,10.313,0,0,1-.78-3.7,4.978,4.978,0,0,1,3.441-4.743l.815-.266,1.547-2.061a10.178,10.178,0,0,1,11.621-3.459l10.471,3.807a6.156,6.156,0,0,1,3.932,4.672A6.58,6.58,0,0,1,66.188,41.3ZM40.794,53.528v-6.72a34.611,34.611,0,0,0,9.551-4.121A34.584,34.584,0,0,0,59.9,46.808v6.72a9.551,9.551,0,1,1-19.1,0Zm9.551,12.734a12.659,12.659,0,0,0,4.038-.667l.61,1.829-4.648,4.648L45.7,67.424l.61-1.829A12.659,12.659,0,0,0,50.345,66.262ZM48.161,74.39l-2.988,3.744-.75-7.48ZM4.184,66.262V63.079a1.592,1.592,0,0,1,1.592-1.592H7.367v3.184h3.184V61.487h3.184v3.184h3.184V61.487H20.1v3.184h3.184V61.487h3.184v3.184h3.184V61.487h1.592a1.592,1.592,0,0,1,1.592,1.592v3.184a1.592,1.592,0,0,1-1.592,1.592H5.775A1.592,1.592,0,0,1,4.184,66.262Zm6.367,9.551V72.629a1.592,1.592,0,0,1,1.592-1.592h1.592v3.184h3.184V71.038H20.1v3.184h3.184V71.038h7.26c-.04.04-.086.068-.126.108A13.658,13.658,0,0,0,26.9,77.4H12.142a1.592,1.592,0,0,1-1.592-1.592ZM4.184,85.364V82.18a1.592,1.592,0,0,1,1.592-1.592H7.367v3.184h3.184V80.588h3.184v3.184h3.184V80.588H20.1v3.184h3.184V80.588h3.193c0,.068-.01.137-.01.205v6.162H5.775A1.592,1.592,0,0,1,4.184,85.364Zm7.959,11.142a1.592,1.592,0,0,1-1.592-1.592V91.731a1.592,1.592,0,0,1,1.592-1.592h1.592v3.184h3.184V90.139H20.1v3.184h3.184V90.139h3.184v6.367Zm17.509,0V80.794a10.574,10.574,0,0,1,8.833-10.428l2.668-.444,1.632,16.3,7.561-9.466,7.562,9.466,1.632-16.3,2.666.444a10.574,10.574,0,0,1,8.834,10.428V96.506H64.672V80.588H61.489V96.506H39.2V80.588H36.019V96.506H29.652ZM74.221,83.772h6.367V96.506H74.221Zm9.551,12.734V80.588h-9.56A13.667,13.667,0,0,0,70.3,71.176l5.514-2.757,14.327,7.163V96.506ZM96.339,73.343a1.635,1.635,0,0,1-2.136.712L75.811,64.86,67.5,69.015a13.677,13.677,0,0,0-4.166-1.64l10.211-5.332a4.985,4.985,0,0,1,4.535,0l17.546,9.164a1.6,1.6,0,0,1,.713,2.136Z" transform="translate(-1 -1)" fill="#30610c"/>
    </g>
  </g>
</svg>
