<svg xmlns="http://www.w3.org/2000/svg" width="92.693" height="95.118" viewBox="0 0 92.693 95.118">
  <g id="seguro_1_" data-name="seguro (1)" transform="translate(-6.527)">
    <path id="Trazado_203263" data-name="Trazado 203263" d="M373.123,67.46a1.393,1.393,0,0,0-.045,1.97l3.8,3.974a1.394,1.394,0,0,0,2,.013l9.416-9.6a1.393,1.393,0,0,0-1.99-1.951L377.9,70.439l-2.8-2.934A1.393,1.393,0,0,0,373.123,67.46Z" transform="translate(-298.14 -50.03)" fill="#30610c"/>
    <path id="Trazado_203264" data-name="Trazado 203264" d="M337.847,1.791a1.393,1.393,0,1,0-.559,2.73,14.743,14.743,0,1,1-6.731,28.7,1.393,1.393,0,0,0-1.243.275,23.863,23.863,0,0,1-4.32,2.8,24.093,24.093,0,0,0,1.416-3.718,1.394,1.394,0,0,0-.538-1.534,14.743,14.743,0,0,1,5.472-26.523,1.393,1.393,0,1,0-.559-2.73,17.529,17.529,0,0,0-7.338,30.92,17.012,17.012,0,0,1-2.379,4.736,1.776,1.776,0,0,0,2.047,2.726,29.309,29.309,0,0,0,7.426-4.093,17.53,17.53,0,1,0,7.306-34.289Z" transform="translate(-252.623 -1.435)" fill="#30610c"/>
    <path id="Trazado_203265" data-name="Trazado 203265" d="M69.316,56.794l-.027-.011L50.7,49.585V45.07a14.336,14.336,0,0,0,5.5-9.6A6.431,6.431,0,0,0,60.8,24.8V19.014a19.014,19.014,0,1,0-38.027,0v5.937a6.065,6.065,0,0,0-1.595,4.081,6.454,6.454,0,0,0,6.194,6.434,14.2,14.2,0,0,0,3.937,8.217,14.058,14.058,0,0,0,1.877,1.61v4.291l-18.568,7.2-.026.01A13.554,13.554,0,0,0,6.527,69.257h0V91.324a3.8,3.8,0,0,0,3.794,3.794H73.589a3.8,3.8,0,0,0,3.794-3.794V82.589a1.393,1.393,0,1,0-2.787,0v8.736a1.008,1.008,0,0,1-1.007,1.007h-7.78V73.265a1.393,1.393,0,0,0-2.787,0V92.332H50.882l6.538-37.156,1.34.519,9.5,3.681.006,0a10.954,10.954,0,0,1,6.327,9.88v6.829a1.393,1.393,0,0,0,2.787,0V69.257A13.643,13.643,0,0,0,69.316,56.794ZM49.709,63.433l-5.747-4.082,5.789-7.146,4.66,1.8Zm-5.749,2.23H39.94L38.633,63.7,41.95,61.34,45.267,63.7ZM11.773,62.35a12.192,12.192,0,0,1,5.835-3.735l8.873-3.44,6.538,37.157H20.888V73.265a1.393,1.393,0,1,0-2.787,0V92.332h-7.78a1.008,1.008,0,0,1-1.007-1.007V69.258A10.468,10.468,0,0,1,11.773,62.35Zm22.418,1.083-4.7-9.423,4.652-1.8,5.79,7.147Zm-3.6-.968,1.225,2.455h0a2.556,2.556,0,0,0,3.765.942l.776-.551,1.367,2.058L34.652,85.533Zm25.722-29.8V25.405a3.645,3.645,0,0,1,0,7.256ZM25.562,19.014a16.227,16.227,0,1,1,32.454,0v3.929a6.735,6.735,0,0,0-1.7-.337v-.291h0c0-1.043-.149-1.2-2.644-3.862-.571-.609-1.287-1.372-2.184-2.336a2.589,2.589,0,0,0-3.317-.4A30.016,30.016,0,0,1,30.163,20.6a2.58,2.58,0,0,0-2.844,2.052,7.579,7.579,0,0,0-1.756.409V19.014h0ZM23.967,29.032a3.854,3.854,0,0,1,3.3-3.561V32.66A3.654,3.654,0,0,1,23.967,29.032Zm6.083,4.67V23.382a32.846,32.846,0,0,0,19.507-5.249c2.35,2.525,3.607,3.829,3.971,4.289V33.7a11.74,11.74,0,0,1-23.478,0ZM47.915,46.752v3.294L41.95,57.408l-5.974-7.374V46.856A15.052,15.052,0,0,0,47.915,46.752ZM36.328,92.332,40.37,68.45h3.16l4.042,23.882Zm12.92-6.8L46.174,67.369l1.367-2.058.776.551a2.555,2.555,0,0,0,3.765-.942h0l1.225-2.455Z" fill="#30610c"/>
  </g>
</svg>
