<svg xmlns="http://www.w3.org/2000/svg" width="68.334" height="94.175" viewBox="0 0 68.334 94.175">
  <g id="jubilacion" transform="translate(-77.5 -10)">
    <path id="Trazado_202824" data-name="Trazado 202824" d="M356.047,30.445a2.889,2.889,0,1,0-2.889,2.883,2.889,2.889,0,0,0,2.889-2.883Zm-2.889.586a.586.586,0,1,1,.592-.586A.586.586,0,0,1,353.158,31.032Z" transform="translate(-220.558 -14.191)" fill="#30610c"/>
    <path id="Trazado_202825" data-name="Trazado 202825" d="M83.793,48.88v53H78.648a1.148,1.148,0,0,0,0,2.3h66.037a1.148,1.148,0,1,0,0-2.3H122.948A14.74,14.74,0,0,0,126.72,98.4a14.019,14.019,0,0,0,2.459-12.267q-.049-.181-.1-.363a17.254,17.254,0,0,0-9.368-11.06,2.378,2.378,0,0,0,.129-.767V72.394a2.388,2.388,0,0,0-1.067-1.988,29.054,29.054,0,0,1,2.363-4.17,12.039,12.039,0,0,1,2.936-2.972c.383-.3.781-.605,1.182-.958a2.175,2.175,0,0,0,.667-2.259,2.047,2.047,0,0,0-2.222-1.432,6.485,6.485,0,0,1-3.1-1.18,10.374,10.374,0,0,0-1.258-.661,3.732,3.732,0,0,0-4.307,1.269,5.352,5.352,0,0,1-1.32.769c-.045.018-.091.033-.137.047a2.271,2.271,0,0,1-2.628-.63,3.712,3.712,0,0,0-4.687-.641,3.483,3.483,0,0,0-1.131,1.6,8.536,8.536,0,0,1-.4.808.938.938,0,0,1-.166.229.244.244,0,0,1-.049.011c-.205.033-.247.04-.655-.256l-.159-.117a14.079,14.079,0,0,0-2.913-1.684l-.143-.067c-.158-.074-.354-.167-.574-.253a8.3,8.3,0,0,0-3.958-.156,2.364,2.364,0,0,0-.757.332,2.438,2.438,0,0,0-.91,1.319,2.8,2.8,0,0,0,1.168,3.1,14.311,14.311,0,0,1,3.775,3.624,16.042,16.042,0,0,1,2.072,4.028,2.393,2.393,0,0,0-1.682,2.282v1.553a2.376,2.376,0,0,0,.277,1.113c-2.676,1.34-7.152,4.041-9.18,9.584-.107.292-.208.59-.3.886A14.028,14.028,0,0,0,92.7,98.155a14.771,14.771,0,0,0,3.955,3.722H86.09v-53a13.648,13.648,0,0,1,27.29,0,1.148,1.148,0,1,0,2.3,0A15.639,15.639,0,0,0,107.5,35.2h1.7a7.507,7.507,0,0,1,3.241.74l.745.359a13.155,13.155,0,0,0,13.653-1.329c.025-.019.05-.038.073-.06l1.8-1.6a5.907,5.907,0,0,1,1.909-1.132l.921,3.011a1.148,1.148,0,0,0,1.1.813h8.7a1.148,1.148,0,0,0,1.14-1.288l-2.9-23.709A1.148,1.148,0,0,0,138.442,10H125.391a1.148,1.148,0,0,0-1.1,1.484l1.639,5.358-5.111,3.221a2.888,2.888,0,0,1-2.092.266l-.072-.016L107.794,18.32A14.434,14.434,0,0,0,98.9,19.572a1.132,1.132,0,0,0-.141.082L79.971,32.514a1.148,1.148,0,0,0-.334,1.541,5.5,5.5,0,0,0,7.325,2l.086-.046a5.1,5.1,0,0,0,1.947,1.3,15.514,15.514,0,0,0-5.2,11.57ZM102.4,74.039h-.239a.092.092,0,0,1-.092-.092V72.394a.092.092,0,0,1,.092-.092h15.287a.092.092,0,0,1,.092.092v1.553a.092.092,0,0,1-.092.092ZM96.889,60.554a.517.517,0,0,1-.246-.548.5.5,0,0,1,.028-.072l.057-.017A6.48,6.48,0,0,1,99.237,60c.142.055.289.125.419.186l.184.086a11.845,11.845,0,0,1,2.488,1.437l.175.129a2.9,2.9,0,0,0,2.372.664,2.542,2.542,0,0,0,1.821-1.332,10.4,10.4,0,0,0,.519-1.029,5.154,5.154,0,0,1,.331-.653c.549-.327,1.161-.178,1.87.453a4.5,4.5,0,0,0,4.8,1.121c.107-.031.216-.068.325-.11a7.3,7.3,0,0,0,2.152-1.325c.789-.827,1.158-.975,1.792-.722a9.431,9.431,0,0,1,.957.515,9.12,9.12,0,0,0,3.9,1.49c-.221.181-.447.355-.68.536a14.321,14.321,0,0,0-3.421,3.486A31.623,31.623,0,0,0,116.43,70h-3.12a5.622,5.622,0,0,1,1.233-3.352,4.844,4.844,0,0,1,1.335-1.058,1.149,1.149,0,0,0-1.1-2.018,7.134,7.134,0,0,0-1.966,1.562A7.954,7.954,0,0,0,111.009,70h-1.2a30.468,30.468,0,0,0-2.067-4.85,1.149,1.149,0,0,0-1.939,1.232A26.669,26.669,0,0,1,107.38,70h-3.54a18.413,18.413,0,0,0-2.6-5.268,16.744,16.744,0,0,0-4.353-4.182ZM94.554,96.8a11.753,11.753,0,0,1-1.8-10.577c.083-.263.172-.528.268-.787,2-5.464,6.759-7.718,9.046-8.8.236-.112.438-.208.615-.3h14.76c.057,0,.114,0,.17-.009a14.818,14.818,0,0,1,9.253,10.092c.031.107.061.213.09.319a11.737,11.737,0,0,1-2.067,10.27,12.335,12.335,0,0,1-9.872,4.87H104.6A12.33,12.33,0,0,1,94.553,96.8Zm42.872-84.5,2.619,21.412h-6.554L126.943,12.3Zm-55.109,21.4L99.987,21.6a12.124,12.124,0,0,1,7.395-1.017l10.826,1.987a5.178,5.178,0,0,0,3.755-.511l.053-.031,4.611-2.906,3.323,10.865a8.206,8.206,0,0,0-2.761,1.613l-1.763,1.564a10.863,10.863,0,0,1-11.24,1.07l-.745-.359A9.818,9.818,0,0,0,109.2,32.9h-7.226a4.23,4.23,0,0,1-4.046-3l4.785.216a31.8,31.8,0,0,0,5.762-.265,1.149,1.149,0,0,0-.314-2.276,29.431,29.431,0,0,1-5.343.246l-6.163-.278a1.148,1.148,0,0,0-1.2,1.147c0,.063,0,.125,0,.187l-.658.345-8.929,4.8a3.211,3.211,0,0,1-3.558-.339ZM95.88,31.257l.083-.043a6.485,6.485,0,0,0,.648,1.174l-5.141,2.761a2.322,2.322,0,0,1-2.268-.3Z" fill="#30610c"/>
    <path id="Trazado_202826" data-name="Trazado 202826" d="M218.148,384.912a9.337,9.337,0,1,0-9.332,9.037A9.2,9.2,0,0,0,218.148,384.912Zm-9.332,6.74a6.747,6.747,0,1,1,7.035-6.74A6.9,6.9,0,0,1,208.816,391.652Z" transform="translate(-98.635 -295.842)" fill="#30610c"/>
    <path id="Trazado_202827" data-name="Trazado 202827" d="M236.279,392.835V392.8a1.148,1.148,0,1,0-2.3,0v.051a2.718,2.718,0,0,0-.958.6,3.14,3.14,0,0,0-.89,2.267,2.857,2.857,0,0,0,2.422,2.712l.325.062c.031.007.068.019.1.028l.03.012.136.051c.045.022.061.032.094.051l.071.04.031.019c.293.174.61.492.621.738.014.327-.093.435-.133.475a1.266,1.266,0,0,1-.851.262c-.244-.01-.786-.266-.816-.527a1.148,1.148,0,1,0-2.282.26,2.981,2.981,0,0,0,2.1,2.379,1.148,1.148,0,0,0,2.294-.031,3.1,3.1,0,0,0,1.176-.721,2.828,2.828,0,0,0,.8-2.2,3.4,3.4,0,0,0-1.7-2.591l-.016-.01-.025-.015-.057-.033v0l-.077-.043c-.073-.042-.109-.062-.221-.118a2.062,2.062,0,0,0-.194-.085l-.131-.049c-.061-.025-.124-.047-.19-.067-.115-.034-.22-.064-.325-.084l-.332-.064c-.38-.073-.553-.3-.555-.489a.878.878,0,0,1,.2-.589.768.768,0,0,1,.569-.142.921.921,0,0,1,.933.642l-.007-.026,2.232-.542a3.234,3.234,0,0,0-2.075-2.193Z" transform="translate(-124.825 -308.598)" fill="#30610c"/>
  </g>
</svg>
