<svg xmlns="http://www.w3.org/2000/svg" width="77.969" height="77.969" viewBox="0 0 77.969 77.969">
  <g id="comunidad-online" transform="translate(-16 -15.998)">
    <g id="Grupo_142716" data-name="Grupo 142716" transform="translate(62.781 38.09)">
      <path id="Trazado_202444" data-name="Trazado 202444" d="M305.3,161.1a1.3,1.3,0,0,1-.919-2.218l6.5-6.5a1.3,1.3,0,1,1,1.838,1.838l-6.5,6.5A1.3,1.3,0,0,1,305.3,161.1Z" transform="translate(-304 -152.001)" fill="#30610c"/>
    </g>
    <g id="Grupo_142717" data-name="Grupo 142717" transform="translate(38.091 38.09)">
      <path id="Trazado_202445" data-name="Trazado 202445" d="M159.8,161.1a1.3,1.3,0,0,1-.919-.381l-6.5-6.5a1.3,1.3,0,1,1,1.838-1.838l6.5,6.5a1.3,1.3,0,0,1-.919,2.218Z" transform="translate(-152 -152.001)" fill="#30610c"/>
    </g>
    <g id="Grupo_142718" data-name="Grupo 142718" transform="translate(62.781 62.78)">
      <path id="Trazado_202446" data-name="Trazado 202446" d="M311.8,313.1a1.3,1.3,0,0,1-.919-.381l-6.5-6.5a1.3,1.3,0,0,1,1.838-1.838l6.5,6.5a1.3,1.3,0,0,1-.919,2.218Z" transform="translate(-304 -304.001)" fill="#30610c"/>
    </g>
    <g id="Grupo_142719" data-name="Grupo 142719" transform="translate(38.091 62.78)">
      <path id="Trazado_202447" data-name="Trazado 202447" d="M153.3,313.1a1.3,1.3,0,0,1-.919-2.218l6.5-6.5a1.3,1.3,0,0,1,1.838,1.838l-6.5,6.5A1.3,1.3,0,0,1,153.3,313.1Z" transform="translate(-152 -304.001)" fill="#30610c"/>
    </g>
    <g id="Grupo_142725" data-name="Grupo 142725" transform="translate(16 15.998)">
      <path id="Trazado_202457" data-name="Trazado 202457" d="M219.566,200.772a5.2,5.2,0,1,0-7.539,0A7.8,7.8,0,0,0,208,207.594v1.3a1.3,1.3,0,0,0,1.3,1.3h12.995a1.3,1.3,0,0,0,1.3-1.3v-1.3A7.8,7.8,0,0,0,219.566,200.772ZM213.2,197.2a2.6,2.6,0,1,1,2.6,2.6A2.6,2.6,0,0,1,213.2,197.2Zm-2.6,10.4a5.2,5.2,0,0,1,10.4,0Z" transform="translate(-176.812 -163.411)" fill="#30610c"/>
      <path id="Trazado_202458" data-name="Trazado 202458" d="M71.594,56.893v-1.3a7.8,7.8,0,0,0-4.028-6.821,5.2,5.2,0,1,0-7.537,0A7.8,7.8,0,0,0,56,55.594v1.3a1.3,1.3,0,0,0,1.3,1.3H70.294A1.3,1.3,0,0,0,71.594,56.893ZM63.8,42.6a2.6,2.6,0,1,1-2.6,2.6A2.6,2.6,0,0,1,63.8,42.6ZM58.6,55.594a5.2,5.2,0,1,1,10.4,0Z" transform="translate(-49.503 -36.101)" fill="#30610c"/>
      <path id="Trazado_202459" data-name="Trazado 202459" d="M361.3,58.193h12.995a1.3,1.3,0,0,0,1.3-1.3v-1.3a7.8,7.8,0,0,0-4.028-6.822,5.2,5.2,0,1,0-7.539,0A7.8,7.8,0,0,0,360,55.594v1.3A1.3,1.3,0,0,0,361.3,58.193ZM365.2,45.2a2.6,2.6,0,1,1,2.6,2.6A2.6,2.6,0,0,1,365.2,45.2Zm2.6,5.2a5.2,5.2,0,0,1,5.2,5.2H362.6A5.2,5.2,0,0,1,367.8,50.4Z" transform="translate(-304.122 -36.101)" fill="#30610c"/>
      <path id="Trazado_202460" data-name="Trazado 202460" d="M67.566,352.772a5.2,5.2,0,1,0-7.539,0A7.8,7.8,0,0,0,56,359.594v1.3a1.3,1.3,0,0,0,1.3,1.3H70.294a1.3,1.3,0,0,0,1.3-1.3v-1.3A7.8,7.8,0,0,0,67.566,352.772ZM61.2,349.2a2.6,2.6,0,1,1,2.6,2.6A2.6,2.6,0,0,1,61.2,349.2Zm-2.6,10.4a5.2,5.2,0,0,1,10.4,0Z" transform="translate(-49.503 -290.721)" fill="#30610c"/>
      <path id="Trazado_202461" data-name="Trazado 202461" d="M80.974,65.438V58.658a3.9,3.9,0,0,0,0-7.35V44.527A14.294,14.294,0,1,0,65.44,28.993H58.659a3.9,3.9,0,0,0-7.35,0H44.529A14.294,14.294,0,1,0,28.995,44.527v6.781a3.9,3.9,0,0,0,0,7.35v6.781A14.294,14.294,0,1,0,44.529,80.973H51.31a3.9,3.9,0,0,0,7.35,0H65.44A14.294,14.294,0,1,0,80.974,65.438ZM70.533,68.693l-4.568-4.568a14.265,14.265,0,0,0,0-18.284l4.568-4.568a14.23,14.23,0,0,0,7.843,3.255v6.781a3.9,3.9,0,0,0,0,7.35v6.781A14.229,14.229,0,0,0,70.533,68.693Zm-5.093,9.68H58.659a3.9,3.9,0,0,0-7.35,0H44.529a14.231,14.231,0,0,0-3.255-7.843l4.568-4.568a14.265,14.265,0,0,0,18.284,0l4.568,4.568a14.229,14.229,0,0,0-3.255,7.843ZM34.193,54.983a3.9,3.9,0,0,0-2.6-3.675V44.527a14.231,14.231,0,0,0,7.843-3.255L44,45.841a14.265,14.265,0,0,0,0,18.284l-4.568,4.568a14.23,14.23,0,0,0-7.843-3.255V58.658a3.9,3.9,0,0,0,2.6-3.675ZM44.529,31.592H51.31a3.9,3.9,0,0,0,7.35,0H65.44A14.231,14.231,0,0,0,68.7,39.435L64.127,44a14.265,14.265,0,0,0-18.284,0l-4.568-4.568a14.231,14.231,0,0,0,3.255-7.843ZM54.985,66.678a11.7,11.7,0,1,1,11.7-11.7A11.709,11.709,0,0,1,54.985,66.678Zm24.69-10.4a1.3,1.3,0,1,1,1.3-1.3A1.3,1.3,0,0,1,79.675,56.282Zm0-37.685a11.7,11.7,0,1,1-11.7,11.7A11.709,11.709,0,0,1,79.675,18.6Zm-24.69,10.4a1.3,1.3,0,1,1-1.3,1.3A1.3,1.3,0,0,1,54.985,28.993ZM18.6,30.293a11.7,11.7,0,1,1,11.7,11.7A11.709,11.709,0,0,1,18.6,30.293Zm11.7,23.391a1.3,1.3,0,1,1-1.3,1.3A1.3,1.3,0,0,1,30.294,53.683Zm0,37.685a11.7,11.7,0,1,1,11.7-11.7A11.709,11.709,0,0,1,30.294,91.368Zm24.69-10.4a1.3,1.3,0,1,1,1.3-1.3A1.3,1.3,0,0,1,54.985,80.973Zm24.69,10.4a11.7,11.7,0,1,1,11.7-11.7A11.709,11.709,0,0,1,79.675,91.368Z" transform="translate(-16 -15.998)" fill="#30610c"/>
      <path id="Trazado_202462" data-name="Trazado 202462" d="M371.566,352.772a5.2,5.2,0,1,0-7.539,0A7.8,7.8,0,0,0,360,359.594v1.3a1.3,1.3,0,0,0,1.3,1.3h12.995a1.3,1.3,0,0,0,1.3-1.3v-1.3A7.8,7.8,0,0,0,371.566,352.772ZM365.2,349.2a2.6,2.6,0,1,1,2.6,2.6A2.6,2.6,0,0,1,365.2,349.2Zm-2.6,10.4a5.2,5.2,0,0,1,10.4,0Z" transform="translate(-304.122 -290.721)" fill="#30610c"/>
    </g>
  </g>
</svg>
