<svg xmlns="http://www.w3.org/2000/svg" width="95.396" height="95.365" viewBox="0 0 95.396 95.365">
  <g id="mejoramiento" transform="translate(-6.945 -8.029)">
    <path id="Trazado_202948" data-name="Trazado 202948" d="M23.078,76.546h-5.4a3.306,3.306,0,0,1-3.29-3.306V72.09a.134.134,0,0,0-.128-.128,15.972,15.972,0,0,1-3.5-2.076l-1.118.527a3.194,3.194,0,0,1-2.492.351A3.29,3.29,0,0,1,5.206,69.2l-2.7-4.791a3.338,3.338,0,0,1,1.1-4.456l.974-.575V57.125a16.722,16.722,0,0,1,.144-2.172l-1.118-.639a3.338,3.338,0,0,1-1.2-4.5l2.7-4.791a3.338,3.338,0,0,1,2.012-1.6,3.194,3.194,0,0,1,2.492.335l.99.591a18.16,18.16,0,0,1,3.626-2.124s.128-.08.128-.128v-1.15a3.306,3.306,0,0,1,3.29-3.306h5.4a3.306,3.306,0,0,1,3.29,3.306V42.1s0,.1.128.128a16.482,16.482,0,0,1,3.5,2.06l1.118-.527a3.194,3.194,0,0,1,2.492-.335,3.338,3.338,0,0,1,2.012,1.6l2.7,4.791a3.338,3.338,0,0,1-1.134,4.5l-.974.575c0,.8.08,1.6.08,2.236a16.519,16.519,0,0,1-.143,2.169l1.038.658a3.338,3.338,0,0,1,1.2,4.5L35.551,69.2a3.29,3.29,0,0,1-2.012,1.6,3.194,3.194,0,0,1-2.492-.351l-.99-.575a18.159,18.159,0,0,1-3.625,2.124.125.125,0,0,0-.128.128v1.15a3.306,3.306,0,0,1-3.226,3.274Zm-12.442-9.9a3.418,3.418,0,0,1,2.092.719,12.426,12.426,0,0,0,2.795,1.6,3.322,3.322,0,0,1,2.06,3.066v1.15l5.494.112.1-1.262a3.322,3.322,0,0,1,2.06-3.066,12.426,12.426,0,0,0,2.795-1.6,3.29,3.29,0,0,1,3.705-.272l.99.575,2.811-4.791a.144.144,0,0,0,0-.176l-1.006-.527a3.194,3.194,0,0,1-1.6-3.194,12.985,12.985,0,0,0,.112-1.757,12.777,12.777,0,0,0-.112-1.741,3.194,3.194,0,0,1,1.6-3.194l.974-.575v-.16L32.8,46.76l-1.1.543A3.194,3.194,0,0,1,28,47.015a12.346,12.346,0,0,0-2.795-1.6,3.338,3.338,0,0,1-2.06-3.066V41.2l-5.494-.112-.1,1.262a3.338,3.338,0,0,1-2.06,3.067,12.346,12.346,0,0,0-2.795,1.6,3.194,3.194,0,0,1-3.705.287L8,46.728,5.206,51.391v.16l.974.575a3.194,3.194,0,0,1,1.6,3.194,12.777,12.777,0,0,0-.112,1.741,12.985,12.985,0,0,0,.112,1.757,3.194,3.194,0,0,1-1.6,3.194l-.974.687a.144.144,0,0,0,0,.176l2.7,4.791,1.1-.543a3.083,3.083,0,0,1,1.629-.479Z" transform="translate(4.964 26.848)" fill="#f67409"/>
    <path id="Trazado_202949" data-name="Trazado 202949" d="M17.083,63.166a9.583,9.583,0,1,1,9.583-9.583,9.583,9.583,0,0,1-9.583,9.583Zm0-15.971a6.389,6.389,0,1,0,6.389,6.389A6.389,6.389,0,0,0,17.083,47.194Z" transform="translate(8.26 30.646)" fill="#f67409"/>
    <path id="Trazado_202953" data-name="Trazado 202953" d="M41.157,93.726q-1.6,0-3.306-.144a1.582,1.582,0,0,1-.862-2.955L53.982,73.538,45.6,52.568l-20.97-8.385L7.57,61.224a1.576,1.576,0,0,1-2.923-.91A36.734,36.734,0,0,1,51.619,21.743L71.024,2.29l2.252,2.268L53.216,24.682a1.6,1.6,0,0,1-1.6.4A33.54,33.54,0,0,0,7.634,56.656L23.11,41.18a1.6,1.6,0,0,1,1.725-.367l22.583,9.04a1.6,1.6,0,0,1,.894.894l9.04,22.583a1.6,1.6,0,0,1-.367,1.725L41.525,90.532A33.54,33.54,0,0,0,73.084,46.626a1.6,1.6,0,0,1,.4-1.6L93.607,24.905l2.268,2.252L76.422,46.547A36.734,36.734,0,0,1,41.157,93.726Z" transform="translate(6.466 5.739)" fill="#f67409"/>
    <path id="Trazado_202954" data-name="Trazado 202954" d="M20.592,13.829l-.862-3.194a47.2,47.2,0,0,1,9.822-1.6,47.689,47.689,0,0,1,6.229,0l-.192,3.194a44.4,44.4,0,0,0-5.846,0,45.31,45.31,0,0,0-9.152,1.6Z" transform="translate(15.563 9.708)" fill="#f67409"/>
    <path id="Trazado_202955" data-name="Trazado 202955" d="M46.4,62.97l-2.14-2.364a48.027,48.027,0,0,0,4.057-4.2,44.718,44.718,0,0,0,5.255-7.666l2.811,1.517a48.728,48.728,0,0,1-5.638,8.225A48.042,48.042,0,0,1,46.4,62.97Z" transform="translate(30.211 33.476)" fill="#f67409"/>
  </g>
</svg>
