<svg xmlns="http://www.w3.org/2000/svg" width="97.221" height="103.925" viewBox="0 0 97.221 103.925">
  <g id="corredor" transform="translate(-3 -1)">
    <path id="Trazado_202572" data-name="Trazado 202572" d="M19,21h3.352v6.7H19Z" transform="translate(10.819 13.524)" fill="#30610c"/>
    <path id="Trazado_202573" data-name="Trazado 202573" d="M29,21h3.352v6.7H29Z" transform="translate(17.582 13.524)" fill="#30610c"/>
    <path id="Trazado_202574" data-name="Trazado 202574" d="M36.762,28H33.41a5.029,5.029,0,1,1-10.057,0H20a8.381,8.381,0,1,0,16.762,0Z" transform="translate(11.496 18.258)" fill="#30610c"/>
    <path id="Trazado_202575" data-name="Trazado 202575" d="M98.544,57.991H96.379a16.427,16.427,0,0,1-14.764-9.13,1.747,1.747,0,0,0-3,0,16.427,16.427,0,0,1-14.781,9.13H61.668a1.676,1.676,0,0,0-1.676,1.676v3.289c0,.429.027.853.04,1.281l-10.1-2.524v-2.85A21.881,21.881,0,0,0,60.6,46.258h1.066a6.69,6.69,0,0,0,.986-13.309L64.7,28.862a19.052,19.052,0,0,0,2-8.472v-.449A18.941,18.941,0,0,0,47.755,1H32A18.941,18.941,0,0,0,13.057,19.941v.448a19.052,19.052,0,0,0,2,8.472L17.1,32.947a6.69,6.69,0,0,0,.986,13.311h1.066A21.881,21.881,0,0,0,29.819,58.865v2.85L14.427,65.57A15.057,15.057,0,0,0,3,80.195v23.055a1.676,1.676,0,0,0,1.676,1.676h70.4a1.676,1.676,0,0,0,1.676-1.676V96.263c.795.588,1.609,1.158,2.452,1.7a1.676,1.676,0,0,0,1.8,0,41.3,41.3,0,0,0,19.214-35V59.668a1.676,1.676,0,0,0-1.676-1.676ZM30.88,64.9l6.353,7.623-6.5,3.249-3.714-9.9Zm7.082,18.234h3.828l2.836,18.438h-9.5Zm4.058-3.352H37.733L36.658,76.56l3.218-1.609L43.1,76.56Zm.5-7.258L48.876,64.9l3.855.965-3.714,9.906Zm22.5-32.971a3.352,3.352,0,0,1-3.352,3.352h-.285a21.885,21.885,0,0,0,.285-3.352V36.2A3.352,3.352,0,0,1,65.02,39.553ZM16.41,19.941A15.589,15.589,0,0,1,32,4.352H47.755A15.589,15.589,0,0,1,63.344,19.941v.448A15.667,15.667,0,0,1,61.7,27.362l-.5.987a1.659,1.659,0,0,0-1.2-.53,10.656,10.656,0,0,1-9.938-6.728l-.24-.6a1.676,1.676,0,0,0-3.111,0l-.241.6a10.651,10.651,0,0,1-9.937,6.728H19.762a1.659,1.659,0,0,0-1.212.531l-.494-.987A15.668,15.668,0,0,1,16.41,20.39Zm1.676,22.964a3.352,3.352,0,0,1,0-6.7v3.352a21.885,21.885,0,0,0,.285,3.352Zm3.352-3.352V31.172H36.524a13.978,13.978,0,0,0,11.734-6.309,13.953,13.953,0,0,0,10.057,6.2v8.488a18.438,18.438,0,1,1-36.877,0ZM39.877,61.344a21.69,21.69,0,0,0,6.7-1.066v2.135l-6.7,8.046-6.7-8.046V60.278A21.69,21.69,0,0,0,39.877,61.344ZM6.352,80.195a11.713,11.713,0,0,1,8.884-11.383l8.507-2.127,4.5,12.012a1.676,1.676,0,0,0,2.32.91l3.061-1.53L34.8,81.6l-3.066,19.969H18.086V86.487H14.734v15.086H6.352ZM73.4,101.573H65.02V86.487H61.668v15.086H48.02L44.947,81.6l1.173-3.528,3.061,1.53a1.676,1.676,0,0,0,2.32-.91l4.5-12.012,4.269,1.068A41.178,41.178,0,0,0,73.4,93.494ZM96.868,62.956A37.951,37.951,0,0,1,80.106,94.541,37.951,37.951,0,0,1,63.344,62.956V61.344h.489a19.739,19.739,0,0,0,16.273-8.46,19.739,19.739,0,0,0,16.273,8.46h.489Z" transform="translate(0 0)" fill="#30610c"/>
    <path id="Trazado_202576" data-name="Trazado 202576" d="M53.734,37A11.734,11.734,0,1,0,65.467,48.734,11.734,11.734,0,0,0,53.734,37Zm0,20.115a8.381,8.381,0,1,1,8.381-8.381,8.381,8.381,0,0,1-8.381,8.381Z" transform="translate(26.372 24.344)" fill="#30610c"/>
    <path id="Trazado_202577" data-name="Trazado 202577" d="M52.7,41H49.352v3.352H46V47.7h3.352v3.352H52.7V47.7h3.352V44.352H52.7Z" transform="translate(29.077 27.049)" fill="#30610c"/>
  </g>
</svg>
