<svg xmlns="http://www.w3.org/2000/svg" width="77.474" height="72.195" viewBox="0 0 77.474 72.195">
  <g id="_21_-_30" data-name="21 - 30" transform="translate(-2 -2.998)">
    <g id="Political_Science" data-name="Political Science" transform="translate(2 2.998)">
      <path id="Trazado_202443" data-name="Trazado 202443" d="M77.06,14.922,41.628,3.178a3.543,3.543,0,0,0-2.227,0L4.4,14.922A3.522,3.522,0,0,0,2,18.26v5.87a3.522,3.522,0,0,0,3.522,3.522H7.282v3.522a3.509,3.509,0,0,0,1.761,3.032V62.868H7.282a3.522,3.522,0,0,0-3.522,3.522v5.282a3.522,3.522,0,0,0,3.522,3.522H74.191a3.522,3.522,0,0,0,3.522-3.522V66.389a3.522,3.522,0,0,0-3.522-3.522H72.431V34.206a3.509,3.509,0,0,0,1.761-3.032V27.652h1.761a3.522,3.522,0,0,0,3.522-3.522V18.264A3.522,3.522,0,0,0,77.06,14.922ZM61.866,34.206V62.868H54.823V34.206a3.509,3.509,0,0,0,1.761-3.032V27.652h3.522v3.522a3.509,3.509,0,0,0,1.761,3.032ZM47.78,34.7H51.3V62.868H47.78Zm5.282-3.522H46.019V27.652h7.043Zm-8.8,3.032V62.868H37.215V34.206a3.509,3.509,0,0,0,1.761-3.032V27.652H42.5v3.522A3.509,3.509,0,0,0,44.258,34.206ZM30.172,34.7h3.522V62.868H30.172Zm5.282-3.522H28.412V27.652h7.043Zm-8.8,3.032V62.868H19.608V34.206a3.509,3.509,0,0,0,1.761-3.032V27.652H24.89v3.522a3.509,3.509,0,0,0,1.761,3.032Zm-8.8-3.032H10.8V27.652h7.043ZM12.565,34.7h3.522V62.868H12.565ZM74.191,66.389v5.282H7.282V66.389Zm-8.8-3.522V34.7h3.522V62.868ZM70.67,31.174H63.627V27.652H70.67ZM5.522,24.131V18.26l35-11.737L75.952,18.264v5.867Z" transform="translate(-2 -2.998)" fill="#30610c"/>
    </g>
  </g>
</svg>
