<svg id="lista-de-verificacion" xmlns="http://www.w3.org/2000/svg" width="84" height="84" viewBox="0 0 84 84">
  <g id="Grupo_142817" data-name="Grupo 142817">
    <path id="Trazado_202907" data-name="Trazado 202907" d="M79.8,0H4.2A4.2,4.2,0,0,0,0,4.2V79.8A4.2,4.2,0,0,0,4.2,84H79.8A4.2,4.2,0,0,0,84,79.8V4.2A4.2,4.2,0,0,0,79.8,0ZM4.2,2.8H79.8a1.4,1.4,0,0,1,1.4,1.4v7H2.8v-7A1.4,1.4,0,0,1,4.2,2.8ZM79.8,81.2H4.2a1.4,1.4,0,0,1-1.4-1.4V14H81.2V79.8A1.4,1.4,0,0,1,79.8,81.2Z" fill="#30610c"/>
    <path id="Trazado_202908" data-name="Trazado 202908" d="M44.067,36.934h1.4a1.4,1.4,0,1,0,0-2.8h-1.4a1.4,1.4,0,1,0,0,2.8Z" transform="translate(-35.667 -28.534)" fill="#30610c"/>
    <path id="Trazado_202909" data-name="Trazado 202909" d="M86.734,36.934h1.4a1.4,1.4,0,0,0,0-2.8h-1.4a1.4,1.4,0,1,0,0,2.8Z" transform="translate(-71.334 -28.534)" fill="#30610c"/>
    <path id="Trazado_202910" data-name="Trazado 202910" d="M129.4,36.934h1.4a1.4,1.4,0,1,0,0-2.8h-1.4a1.4,1.4,0,1,0,0,2.8Z" transform="translate(-107 -28.534)" fill="#30610c"/>
    <path id="Trazado_202911" data-name="Trazado 202911" d="M445.134,36.934h1.4a1.4,1.4,0,0,0,0-2.8h-1.4a1.4,1.4,0,0,0,0,2.8Z" transform="translate(-370.934 -28.534)" fill="#30610c"/>
    <path id="Trazado_202912" data-name="Trazado 202912" d="M63.667,110.933h-16.8a4.2,4.2,0,0,0-4.2,4.2v8.4a4.2,4.2,0,0,0,4.2,4.2h16.8a4.2,4.2,0,0,0,4.2-4.2v-8.4A4.2,4.2,0,0,0,63.667,110.933Zm-18.2,12.6v-8.4a1.4,1.4,0,0,1,1.4-1.4h2.8v11.2h-2.8A1.4,1.4,0,0,1,45.467,123.533Zm19.6,0a1.4,1.4,0,0,1-1.4,1.4h-11.2v-11.2h11.2a1.4,1.4,0,0,1,1.4,1.4Z" transform="translate(-35.667 -92.733)" fill="#30610c"/>
    <path id="Trazado_202913" data-name="Trazado 202913" d="M125.067,153.6h-4.2a1.4,1.4,0,0,0,0,2.8h4.2a1.4,1.4,0,0,0,0-2.8Z" transform="translate(-99.867 -128.4)" fill="#30610c"/>
    <path id="Trazado_202914" data-name="Trazado 202914" d="M63.667,238.933h-16.8a4.2,4.2,0,0,0-4.2,4.2v8.4a4.2,4.2,0,0,0,4.2,4.2h16.8a4.2,4.2,0,0,0,4.2-4.2v-8.4A4.2,4.2,0,0,0,63.667,238.933Zm-18.2,12.6v-8.4a1.4,1.4,0,0,1,1.4-1.4h2.8v11.2h-2.8A1.4,1.4,0,0,1,45.467,251.533Zm19.6,0a1.4,1.4,0,0,1-1.4,1.4h-11.2v-11.2h11.2a1.4,1.4,0,0,1,1.4,1.4Z" transform="translate(-35.667 -199.733)" fill="#30610c"/>
    <path id="Trazado_202915" data-name="Trazado 202915" d="M125.067,281.6h-4.2a1.4,1.4,0,1,0,0,2.8h4.2a1.4,1.4,0,0,0,0-2.8Z" transform="translate(-99.867 -235.4)" fill="#30610c"/>
    <path id="Trazado_202916" data-name="Trazado 202916" d="M63.667,366.933h-16.8a4.2,4.2,0,0,0-4.2,4.2v8.4a4.2,4.2,0,0,0,4.2,4.2h16.8a4.2,4.2,0,0,0,4.2-4.2v-8.4A4.2,4.2,0,0,0,63.667,366.933Zm-18.2,12.6v-8.4a1.4,1.4,0,0,1,1.4-1.4h2.8v11.2h-2.8A1.4,1.4,0,0,1,45.467,379.533Zm19.6,0a1.4,1.4,0,0,1-1.4,1.4h-11.2v-11.2h11.2a1.4,1.4,0,0,1,1.4,1.4Z" transform="translate(-35.667 -306.733)" fill="#30610c"/>
    <path id="Trazado_202917" data-name="Trazado 202917" d="M125.067,409.6h-4.2a1.4,1.4,0,1,0,0,2.8h4.2a1.4,1.4,0,0,0,0-2.8Z" transform="translate(-99.867 -342.4)" fill="#30610c"/>
    <path id="Trazado_202918" data-name="Trazado 202918" d="M241.467,153.6h-18.2a1.4,1.4,0,1,0,0,2.8h18.2a1.4,1.4,0,0,0,0-2.8Z" transform="translate(-185.467 -128.4)" fill="#30610c"/>
    <path id="Trazado_202919" data-name="Trazado 202919" d="M241.467,281.6h-18.2a1.4,1.4,0,1,0,0,2.8h18.2a1.4,1.4,0,0,0,0-2.8Z" transform="translate(-185.467 -235.4)" fill="#30610c"/>
    <path id="Trazado_202920" data-name="Trazado 202920" d="M241.467,409.6h-18.2a1.4,1.4,0,1,0,0,2.8h18.2a1.4,1.4,0,0,0,0-2.8Z" transform="translate(-185.467 -342.4)" fill="#30610c"/>
    <path id="Trazado_202921" data-name="Trazado 202921" d="M385.764,128.5l-6.01,6.01-1.81-1.81a1.4,1.4,0,0,0-1.98,1.98l2.8,2.8a1.4,1.4,0,0,0,1.98,0l7-7a1.4,1.4,0,0,0-1.98-1.98Z" transform="translate(-313.954 -107.088)" fill="#30610c"/>
    <path id="Trazado_202922" data-name="Trazado 202922" d="M385.764,256.5l-6.01,6.01-1.81-1.81a1.4,1.4,0,0,0-1.98,1.98l2.8,2.8a1.4,1.4,0,0,0,1.98,0l7-7a1.4,1.4,0,0,0-1.98-1.98Z" transform="translate(-313.954 -214.088)" fill="#30610c"/>
    <path id="Trazado_202923" data-name="Trazado 202923" d="M385.764,384.5l-6.01,6.01-1.81-1.81a1.4,1.4,0,0,0-1.98,1.98l2.8,2.8a1.4,1.4,0,0,0,1.98,0l7-7a1.4,1.4,0,0,0-1.98-1.98Z" transform="translate(-313.954 -321.088)" fill="#30610c"/>
  </g>
</svg>
