<svg xmlns="http://www.w3.org/2000/svg" xmlns:xlink="http://www.w3.org/1999/xlink" width="429.417" height="370.518" viewBox="0 0 429.417 370.518">
  <defs>
    <filter id="Trazado_191657" x="0" y="0" width="429.417" height="370.518" filterUnits="userSpaceOnUse">
      <feOffset dy="3" input="SourceAlpha"/>
      <feGaussianBlur stdDeviation="5" result="blur"/>
      <feFlood flood-opacity="0.161"/>
      <feComposite operator="in" in2="blur"/>
      <feComposite in="SourceGraphic"/>
    </filter>
  </defs>
  <g id="Grupo_145572" data-name="Grupo 145572" transform="translate(-1005.583 -6553.8)">
    <g transform="matrix(1, 0, 0, 1, 1005.58, 6553.8)" filter="url(#Trazado_191657)">
      <path id="Trazado_191657-2" data-name="Trazado 191657" d="M27.441,0H371.976c15.155,0,27.441,8.216,27.441,18.351V322.166c0,10.135-12.286,18.351-27.441,18.351H27.441C12.286,340.518,0,332.3,0,322.166V18.351C0,8.216,12.286,0,27.441,0Z" transform="translate(15 12)" fill="#e5f2db"/>
    </g>
    <text id="Políticas_específicas" data-name="Políticas específicas" transform="translate(1223.134 6805.558)" fill="#12263f" font-size="20" font-family="Roboto-Black, Roboto" font-weight="800"><tspan x="-93.628" y="0">Políticas específicas</tspan></text>
    <g id="politica_1_" data-name="politica (1)" transform="translate(1156.319 6617.4)">
      <path id="Trazado_203000" data-name="Trazado 203000" d="M251.946,105.075l1.931-1.973-.757-10.448a.675.675,0,0,0-.646-.642h-1.055a.675.675,0,0,0-.646.642l-.757,10.448Z" transform="translate(-154.644 -62.616)" fill="#428212"/>
      <g id="Grupo_142823" data-name="Grupo 142823" transform="translate(0 0)">
        <path id="Trazado_203003" data-name="Trazado 203003" d="M89.625,146.04a33.34,33.34,0,0,0-9.387-4.595,1.315,1.315,0,0,0-1.749,1.321v10.7a1.374,1.374,0,0,0,.981,1.317,31.969,31.969,0,0,1,8.53,4.12,1.4,1.4,0,0,0,2.182-1.11V147.147A1.373,1.373,0,0,0,89.625,146.04ZM87.437,155.3a34.5,34.5,0,0,0-6.2-2.834v-7.781a30.011,30.011,0,0,1,6.2,3.169Z" transform="translate(-50.425 -92.606)" fill="#428212"/>
        <path id="Trazado_203004" data-name="Trazado 203004" d="M79.562,69.127c.427.1,1.506.357,1.622.357a1.377,1.377,0,0,0,.349-2.7c-1.072-.321-2.637-.79-3.007.7A1.373,1.373,0,0,0,79.562,69.127Z" transform="translate(-50.429 -47.085)" fill="#428212"/>
        <path id="Trazado_203005" data-name="Trazado 203005" d="M103.988,77.842a51.712,51.712,0,0,1,15.208,10.8c1.118,1.036,3.305-.221,2.026-1.854A53.551,53.551,0,0,0,105.1,75.332a1.374,1.374,0,0,0-1.114,2.511Z" transform="translate(-65.43 -52.403)" fill="#428212"/>
        <path id="Trazado_203006" data-name="Trazado 203006" d="M79.585,94.922c13.825,3.132,24.543,14.122,24.657,14.226a1.373,1.373,0,0,0,1.978-1.906c-.458-.475-11.384-11.681-26.027-15A1.374,1.374,0,0,0,79.585,94.922Z" transform="translate(-50.452 -62.735)" fill="#428212"/>
        <path id="Trazado_203007" data-name="Trazado 203007" d="M79.562,120.779c13.825,3.132,24.55,14.115,24.657,14.226a1.566,1.566,0,0,0,1.942.035,1.342,1.342,0,0,0,.036-1.942c-.458-.475-11.384-11.681-26.027-15a1.373,1.373,0,0,0-.607,2.679Z" transform="translate(-50.429 -78.446)" fill="#428212"/>
        <path id="Trazado_203008" data-name="Trazado 203008" d="M120.577,161.7a1.374,1.374,0,0,0-1.334,2.4,44.51,44.51,0,0,1,9.292,7.429,1.558,1.558,0,0,0,1.941.072,1.362,1.362,0,0,0,.073-1.941,46.572,46.572,0,0,0-9.971-7.962Z" transform="translate(-74.762 -104.845)" fill="#428212"/>
        <path id="Trazado_203009" data-name="Trazado 203009" d="M130.467,197.477a1.369,1.369,0,0,0,.073-1.94,46.53,46.53,0,0,0-9.971-7.962,1.373,1.373,0,1,0-1.334,2.4,44.5,44.5,0,0,1,9.292,7.429,1.56,1.56,0,0,0,1.94.072Z" transform="translate(-74.754 -120.573)" fill="#428212"/>
        <path id="Trazado_203010" data-name="Trazado 203010" d="M134.17,56.754a65.246,65.246,0,0,0-7.6-3.218,1.375,1.375,0,1,0-.9,2.6,62.274,62.274,0,0,1,6.5,2.7v70.131c-22.258-9.885-43.558-6.449-60.039.056V58.855a71.319,71.319,0,0,1,8.854-3.188,1.534,1.534,0,0,0,1.065-1.378A1.38,1.38,0,0,0,80.29,53,73.327,73.327,0,0,0,71.348,56.2C61.78,41.7,47.784,31.057,21.9,28.613a1.368,1.368,0,0,0-1.473,1.37V51.958A69.485,69.485,0,0,0,7.7,56.77a1.362,1.362,0,0,0-.719,1.207v84.7a1.407,1.407,0,0,0,1.749,1.37c33.954-9.5,57-1.235,62.027-.039,5.092-1.147,28.445-9.5,62.42.039,1.125.209,1.749-.365,1.749-1.361V57.978a1.37,1.37,0,0,0-.752-1.225ZM9.725,58.821a68.57,68.57,0,0,1,10.7-4v48.2a1.373,1.373,0,0,0,1.275,1.37c24.055,2.463,35.687,10.895,45.706,23.82-17.056-5.989-35.468-8.8-57.685.753ZM69.389,140.8c-17.276-4.82-34.765-6.075-59.664.12v-2.938c26.676-11.635,55.37-1.651,59.664-.028Zm0-5.779c-16.067-5.5-38.265-8.7-59.664-.027v-3c21.457-10.383,44.517-6.559,59.664.019Zm0-8.79c-1.785-2.492-14.284-22.167-46.214-24.483V31.473c23.466,2.234,38.491,13.861,46.214,26.844Zm62.786,14.69c-19.342-6.024-47.4-4.445-60.039-.113v-2.821c4.042-1.525,33.187-11.715,60.039,0Zm0-5.925c-21.362-8.7-44.027-5.431-60.039.06v-3.041c4.905-2.179,32.6-13.29,60.039-.024Z" transform="translate(-6.978 -24.093)" fill="#428212"/>
        <path id="Trazado_203011" data-name="Trazado 203011" d="M238.268,17.992a5.032,5.032,0,0,0-7.185,1.695,82.154,82.154,0,0,1-8.236,11.863c-1.742-9.668-15.675-9.662-17.413,0A82.041,82.041,0,0,1,197.2,19.687a4.977,4.977,0,0,0-3.2-2.426c-3.9-1.054-7.538,3.3-5.734,6.943a111.831,111.831,0,0,0,11.385,19.772,10.425,10.425,0,0,1,2.08,5.275l1.339,13.967h-8.861a1.373,1.373,0,0,0-1.373,1.373c.039,3.8-.788,7.966,4.122,8.91l.646,28a1.373,1.373,0,0,0,1.373,1.342H229.3a1.373,1.373,0,0,0,1.373-1.342l.645-28c4.905-.938,4.087-5.116,4.12-8.91a1.373,1.373,0,0,0-1.373-1.373h-8.859l1.339-13.967a10.422,10.422,0,0,1,2.08-5.275A111.8,111.8,0,0,0,240.011,24.2a4.994,4.994,0,0,0-1.743-6.212Zm-24.128,8.98c8.033.211,8.031,11.974,0,12.184C206.108,38.945,206.109,27.182,214.141,26.973ZM200.322,100.1l-.612-26.554h28.861l-.612,26.554ZM232.7,68.835a1.962,1.962,0,0,1-1.962,1.962H197.546c-2.6-.1-1.864-3.117-1.962-4.83h37.109Zm4.818-45.769a108.955,108.955,0,0,1-11.077,19.257,13.169,13.169,0,0,0-2.624,6.667L222.45,63.218H205.833l-1.364-14.229a13.169,13.169,0,0,0-2.623-6.667,108.954,108.954,0,0,1-11.077-19.257c-1.18-2.56,2.652-4.525,4.025-2.05A91.731,91.731,0,0,0,205.956,36.4c2.865,7.279,13.525,7.264,16.375-.017a90.84,90.84,0,0,0,11.156-15.364c1.369-2.467,5.208-.518,4.027,2.05Z" transform="translate(-116.838 -17.101)" fill="#428212"/>
        <path id="Trazado_203012" data-name="Trazado 203012" d="M250.6,88.51h-2.629a1.373,1.373,0,0,0-1.368,1.252l-.96,10.738a1.377,1.377,0,0,0,.387,1.083l2.276,2.324a1.382,1.382,0,0,0,1.962,0l2.276-2.324a1.373,1.373,0,0,0,.387-1.083l-.962-10.738A1.373,1.373,0,0,0,250.6,88.51Zm-1.315,12.472-.85-.869.792-8.856h.118l.792,8.856Z" transform="translate(-151.985 -60.488)" fill="#428212"/>
      </g>
    </g>
  </g>
</svg>
