<svg xmlns="http://www.w3.org/2000/svg" xmlns:xlink="http://www.w3.org/1999/xlink" width="186.067" height="188.446" viewBox="0 0 186.067 188.446">
  <defs>
    <filter id="Elipse_6734" x="0" y="0" width="186.067" height="186.067" filterUnits="userSpaceOnUse">
      <feOffset dy="3" input="SourceAlpha"/>
      <feGaussianBlur stdDeviation="2" result="blur"/>
      <feFlood flood-color="#8b8b8b" flood-opacity="0.502"/>
      <feComposite operator="in" in2="blur"/>
      <feComposite in="SourceGraphic"/>
    </filter>
  </defs>
  <g id="Grupo_145579" data-name="Grupo 145579" transform="translate(-1131.749 -2672.485)">
    <g id="Grupo_139097" data-name="Grupo 139097" transform="translate(1137.749 2675.485)">
      <g id="Grupo_139096" data-name="Grupo 139096" transform="translate(0 0)">
        <g transform="matrix(1, 0, 0, 1, -6, -3)" filter="url(#Elipse_6734)">
          <ellipse id="Elipse_6734-2" data-name="Elipse 6734" cx="72.347" cy="72.347" rx="72.347" ry="72.347" transform="matrix(0.23, -0.97, 0.97, 0.23, 6, 143.82)" fill="#fff"/>
        </g>
        <path id="Trazado_200918" data-name="Trazado 200918" d="M625.392,418.582a61.134,61.134,0,1,1,61.133-61.135A61.2,61.2,0,0,1,625.392,418.582Zm0-116.662a55.527,55.527,0,1,0,55.527,55.527A55.589,55.589,0,0,0,625.392,301.921Z" transform="translate(-538.358 -270.414)" fill="#fbcfab"/>
      </g>
      <path id="Trazado_200919" data-name="Trazado 200919" d="M699.827,376.428a84.992,84.992,0,0,1-135.726,0H547.883a98.446,98.446,0,0,0,168.175,0Z" transform="translate(-544.937 -238.233)" fill="#fbcfab"/>
    </g>
    <g id="terrorista" transform="translate(1165.358 2719.934)">
      <path id="Trazado_203353" data-name="Trazado 203353" d="M233.666,471.633Z" transform="translate(-176.776 -400.718)" fill="#f67409"/>
      <path id="Trazado_203369" data-name="Trazado 203369" d="M187.352,125.172h2.081a1.128,1.128,0,0,0,0-2.255h-2.081a1.128,1.128,0,1,0,0,2.255Z" transform="translate(-136.467 -104.435)" fill="#f67409"/>
      <path id="Trazado_203370" data-name="Trazado 203370" d="M266.567,125.172h2.081a1.128,1.128,0,1,0,0-2.255h-2.081a1.128,1.128,0,1,0,0,2.255Z" transform="translate(-203.771 -104.435)" fill="#f67409"/>
      <path id="Trazado_203371" data-name="Trazado 203371" d="M164.587,105.95a30.883,30.883,0,0,0,9.65.054l4.063-.619h0a4.668,4.668,0,0,0,3.988-4.641,4.74,4.74,0,0,0-4.735-4.735H162.1a4.735,4.735,0,0,0-.765,9.408Zm-4.97-5.206a2.483,2.483,0,0,1,2.48-2.48h15.457a2.483,2.483,0,0,1,2.48,2.48,2.425,2.425,0,0,1-2.072,2.411l-4.063.619a28.628,28.628,0,0,1-8.946-.05l-3.256-.533A2.471,2.471,0,0,1,159.616,100.744Z" transform="translate(-111.944 -81.573)" fill="#f67409"/>
      <path id="Trazado_203372" data-name="Trazado 203372" d="M87.288,76.985a2.87,2.87,0,0,0,2.867-2.867V61.007a14.2,14.2,0,0,0-.581-4.037,1.969,1.969,0,0,0,1.554-1.29l.7-1.984a1.967,1.967,0,0,0-1.2-2.509L87.54,50.1a3.23,3.23,0,0,0,.13-.9V45.188a3.215,3.215,0,0,0-.319-1.4,42.324,42.324,0,0,0,6.972-5.932,2.075,2.075,0,0,0-.147-2.992h0L91.5,32.541a2.073,2.073,0,0,0-2.859.135,34.91,34.91,0,0,1-4.965,4.3V35.23a6.924,6.924,0,0,0-1.632-4.462,4.513,4.513,0,0,1-1.027-2.919V16.793a1.128,1.128,0,1,0-2.255,0v3.338H77.647V5.823h.865a.251.251,0,0,1,.251.251v5.41a1.128,1.128,0,1,0,2.255,0V6.073a2.509,2.509,0,0,0-2.243-2.492h0V1.128a1.128,1.128,0,0,0-2.255,0v2.44h0a1.127,1.127,0,0,0-1.128,1.128V20.5a1.845,1.845,0,0,0-.751,1.484V38.526c-1.075-.524-2.223-1.007-3.28-1.452-.773-.326-1.521-.641-2.165-.939,3.338-4.265,5.051-9.605,5.051-12.22V16.2a15.3,15.3,0,0,0-5.2-11.649A16.983,16.983,0,0,0,57.893.277h-.025A16.985,16.985,0,0,0,46.717,4.546a15.3,15.3,0,0,0-5.2,11.649v7.72c0,2.614,1.713,7.955,5.051,12.22-.644.3-1.391.613-2.165.939-2.77,1.166-5.91,2.488-7.269,4.264a6.369,6.369,0,0,0-.832,5.87l-.325.06a1.073,1.073,0,0,0-.112.027A14.293,14.293,0,0,0,25.606,61.007v1.422a1.128,1.128,0,0,0,2.255,0V61.007a12.038,12.038,0,0,1,8.584-11.532l1.219-.227a12.942,12.942,0,0,0,2.608,1.732L40.3,51l.27.141.179.091.295.146.32.154.149.071c.153.072.309.144.47.217a38.615,38.615,0,0,0,31.787,0c.141-.063.278-.127.414-.19l.1-.046.3-.145.051-.024v3.269a2.55,2.55,0,0,0,1.97,2.48l2.345,17.57m0,0H37.076V66.709a1.128,1.128,0,0,0-2.255,0V74.73H28.473a.612.612,0,0,1-.612-.611V67.741a1.128,1.128,0,0,0-2.255,0v6.377a2.87,2.87,0,0,0,2.867,2.867H87.288M43.769,23.915V16.2a13.042,13.042,0,0,1,4.419-9.94,14.478,14.478,0,0,1,19.384,0,13.043,13.043,0,0,1,4.419,9.94v7.72c0,1.707-1.134,5.806-3.655,9.574A20.539,20.539,0,0,1,66.6,35.74l0,0A15.861,15.861,0,0,1,64.513,37.7c-.015.011-.028.024-.042.036a10.367,10.367,0,0,1-13.181,0c-.015-.013-.029-.027-.045-.039a15.889,15.889,0,0,1-2.082-1.955l-.009-.009a20.483,20.483,0,0,1-1.732-2.247C44.9,29.721,43.769,25.622,43.769,23.915ZM65.821,46.408A13.1,13.1,0,0,1,58.2,49.068c-.072,0-.144,0-.216,0h-.212c-.072,0-.144,0-.215,0a13.1,13.1,0,0,1-7.618-2.659,5.289,5.289,0,0,0,1.743-3.818v-1.9a12.348,12.348,0,0,0,12.394,0v1.9A5.288,5.288,0,0,0,65.821,46.408Zm8.819,2.466c-.529.289-1.13.586-1.795.887a36.36,36.36,0,0,1-29.93,0l-.275-.126-.074-.034-.2-.095-.066-.031q-.262-.125-.5-.245l-.023-.011-.216-.11-.028-.014q-.352-.182-.649-.351l0,0c-.2-.113-.383-.222-.55-.326l-.012-.007-.143-.091-.021-.013-.143-.094h0l-.126-.086-.058-.04-.054-.038-.074-.053-.018-.013a5.021,5.021,0,0,1-.793-.695l-.02-.02a1.689,1.689,0,0,1-.223-.311,4.117,4.117,0,0,1,.28-4.245c.994-1.3,3.965-2.551,6.352-3.556,1.025-.432,2.008-.845,2.821-1.251a17.973,17.973,0,0,0,1.332,1.229v3.46a2.62,2.62,0,0,1-1.694,2.494A1.128,1.128,0,0,0,47.173,47,15.353,15.353,0,0,0,57.5,51.323c.093,0,.187,0,.28,0h.191c.093,0,.187,0,.281,0A15.352,15.352,0,0,0,68.589,47a1.128,1.128,0,0,0-.562-1.916,2.62,2.62,0,0,1-1.694-2.494v-3.46A17.976,17.976,0,0,0,67.665,37.9c.813.406,1.8.82,2.82,1.251,1.372.578,2.9,1.223,4.155,1.91v7.812Zm9.036-2.869q.873-.465,1.725-.972a.985.985,0,0,1,.014.154V49.2a1.01,1.01,0,0,1-.012.148l-1.727-.609V46.005h0ZM77.607,54.97h-.421a.291.291,0,0,1-.29-.29V22.386h1.866v5.462a6.77,6.77,0,0,0,1.559,4.374,4.667,4.667,0,0,1,1.1,3.007V54.97H77.607Zm2.445,10.922-1.157-8.667h2.831l3.817,11.913L80.66,70.447Zm1.173,8.79-.264-1.98,5.271-1.413.605,1.889ZM87.9,69.1,83.676,55.921V55.14l3.259,1.148a11.927,11.927,0,0,1,.964,4.719v8.1Zm1.7-15.884-.507,1.44-5.421-1.91V51.13ZM83.676,43.43V39.7a36.768,36.768,0,0,0,6.476-5.347l2.4,2.087A39.528,39.528,0,0,1,83.676,43.43Z" transform="translate(0)" fill="#f67409"/>
    </g>
  </g>
</svg>
