<svg xmlns="http://www.w3.org/2000/svg" width="291.023" height="225.125" viewBox="0 0 291.023 225.125">
  <g id="Grupo_140999" data-name="Grupo 140999" transform="translate(-417.618 -275.829)">
    <g id="Grupo_140934" data-name="Grupo 140934" transform="translate(586.489 298.159)">
      <path id="Trazado_201703" data-name="Trazado 201703" d="M1683.217,538.653s9.578-40.6,41.891-45.06c0,0,6.287-.772,8.38,6.151s-10.406,6.973-18.133,9.757S1689.615,524.09,1683.217,538.653Z" transform="translate(-1682.318 -484.963)" fill="#afe684"/>
      <path id="Trazado_201704" data-name="Trazado 201704" d="M1677.052,479.1s-3.359-33.627,20.221-45.562a6.454,6.454,0,0,1,8.041,2.5c3.428,4.752-6.136,8.084-11.322,12.254S1678.117,466.252,1677.052,479.1Z" transform="translate(-1676.887 -433.003)" fill="#afe684"/>
    </g>
    <g id="Grupo_140936" data-name="Grupo 140936" transform="translate(463.157 339.747)" opacity="0.8">
      <path id="Trazado_201705" data-name="Trazado 201705" d="M859.64,761.612s13.859-7.761,7.392-18.294c0,0-5.174-6.468-10.718-8.131,0,0,2.957,15.707,0,16.077s-2.033-17.74-2.033-17.74-14.6-7.022-20.327-6.468c0,0,9.055,15.337,6.1,14.968s-13.12-15.892-13.12-15.892-14.968-2.772-17.37,6.1,1.478,13.3,3.7,13.859,16.446.37,16.077,2.218-9.979,4.8-15.338,3.141c0,0,5.913,14.6,13.674,13.859s10.163-5.544,14.968-5.913,8.316.924,5.913,2.217-10.533.424-14.414,3.723-7.022,5.332.185,6.81,20.142.554,22.729-4.989Z" transform="translate(-808.804 -725.722)" fill="#afe684"/>
      <g id="Grupo_140935" data-name="Grupo 140935" transform="translate(7.595 9.28)">
        <path id="Trazado_201706" data-name="Trazado 201706" d="M862.263,791.04s38.806,12.566,43.241,26.61a29.479,29.479,0,0,0,3.7,13.49v2.772s-4.065-9.424-6.283-10.718C902.917,823.193,911.6,811,862.263,791.04Z" transform="translate(-862.263 -791.04)" fill="#afe684"/>
        <path id="Trazado_201707" data-name="Trazado 201707" d="M1181.435,1062.867a25.594,25.594,0,0,1,2.573,20.15l-1.54-.414s1.495-12.184-1.636-18.312S1181.435,1062.867,1181.435,1062.867Z" transform="translate(-1134.499 -1022.767)" fill="#afe684"/>
      </g>
    </g>
    <g id="Grupo_140938" data-name="Grupo 140938" transform="translate(417.618 404.277)" opacity="0.5">
      <path id="Trazado_201708" data-name="Trazado 201708" d="M592.348,1213.949s9.079-27.2-12.353-33.409c0,0-14.766-2.351-24.189,2.162,0,0,23.029,17.383,19.53,21.468s-24.265-21.22-24.265-21.22-28.024,8.357-35,16.056c0,0,30.723,9.482,26.326,12.58s-36.825-5.284-36.825-5.284-23.355,14.482-15.788,29.244,18.137,15.971,21.771,14.017,22.411-19.485,24.162-16.569-7.489,18.538-16.665,22.827c0,0,25.63,12.311,35.1,1.9s6.837-19.749,12.8-26.079,12.227-8.868,10.59-4.222-13.551,13.361-14.725,22.481-2.9,15.65,8.52,8.869,27.57-23.728,24.291-34.274Z" transform="translate(-488.274 -1179.928)" fill="#afe684"/>
      <g id="Grupo_140937" data-name="Grupo 140937" transform="translate(14.006 30.621)">
        <path id="Trazado_201709" data-name="Trazado 201709" d="M586.859,1415.854s67.085-30.361,90.067-16.995c0,0,7.812,9.579,3.28,10.546C680.206,1409.4,676.988,1382.567,586.859,1415.854Z" transform="translate(-586.859 -1395.459)" fill="#e4e4e4"/>
      </g>
    </g>
    <g id="Grupo_140940" data-name="Grupo 140940" transform="translate(585.86 427.246)">
      <path id="Trazado_201710" data-name="Trazado 201710" d="M1879.493,1355.553s2.675-16.267,15.239-13.679c0,0,8.14,2.763,11.722,7.585,0,0-16.372,2.667-15.688,5.682s18.029-4.287,18.029-4.287,12.012,11.763,13.5,17.549c0,0-18.167-3.414-16.761-.66s20.145,7.186,20.145,7.186,8,13.626.189,19.105-13.505,3.26-14.83,1.292-6.174-15.918-7.846-14.9-1.161,11.435,2.356,16.077c0,0-16.335-.61-18.357-8.445s1.817-11.877.48-16.7-3.841-7.788-4.254-4.987,3.309,10.428,1.462,15.381-2.721,8.737-6.711,2.227-7.66-19.459-3.165-23.943Z" transform="translate(-1844.451 -1341.595)" fill="#afe684"/>
      <g id="Grupo_140939" data-name="Grupo 140939" transform="translate(0 13.949)">
        <path id="Trazado_201711" data-name="Trazado 201711" d="M1856.646,1472.576s-25.978-33.426-41.25-32.789a30.6,30.6,0,0,1-14.47,1.162l-2.7.98s10.633.636,12.679,2.343C1810.9,1444.271,1819.732,1431.485,1856.646,1472.576Z" transform="translate(-1780.354 -1439.778)" fill="#afe684"/>
        <path id="Trazado_201712" data-name="Trazado 201712" d="M1693.032,1445.211s-10.983-2.628-20.572,4.612l.948,1.356s11.362-5.765,18.448-4.876S1693.032,1445.211,1693.032,1445.211Z" transform="translate(-1672.46 -1444.04)" fill="#afe684"/>
      </g>
    </g>
    <g id="Grupo_140942" data-name="Grupo 140942" transform="translate(604.881 329.961)">
      <path id="Trazado_201713" data-name="Trazado 201713" d="M1817.48,700.716s-16.941-9.487-9.035-22.362c0,0,6.325-7.906,13.1-9.939,0,0-3.614,19.2,0,19.652s2.485-21.685,2.485-21.685,17.844-8.583,24.847-7.906c0,0-11.068,18.748-7.454,18.3s16.038-19.426,16.038-19.426,18.3-3.388,21.233,7.454-1.807,16.263-4.518,16.941-20.1.452-19.652,2.711,12.2,5.873,18.748,3.84c0,0-7.228,17.845-16.715,16.941s-12.423-6.777-18.3-7.228-10.165,1.129-7.228,2.711,12.875.518,17.619,4.551,8.583,6.517-.226,8.325-24.621.677-27.783-6.1Z" transform="translate(-1806.343 -656.845)" fill="#afe684"/>
      <g id="Grupo_140941" data-name="Grupo 140941" transform="translate(2.19 11.344)">
        <path id="Trazado_201714" data-name="Trazado 201714" d="M1910.31,736.689s-47.435,15.36-52.856,32.527a36.036,36.036,0,0,1-4.518,16.489v3.388s4.969-11.52,7.68-13.1C1860.616,775.992,1850,761.084,1910.31,736.689Z" transform="translate(-1848.506 -736.689)" fill="#afe684"/>
        <path id="Trazado_201715" data-name="Trazado 201715" d="M1826.186,1068.963s-7.315,11.109-3.145,24.631l1.882-.505s-1.827-14.894,2-22.385S1826.186,1068.963,1826.186,1068.963Z" transform="translate(-1821.757 -1019.946)" fill="#afe684"/>
      </g>
    </g>
    <g id="Grupo_140986" data-name="Grupo 140986" transform="translate(502.381 326.854)">
      <g id="Grupo_140943" data-name="Grupo 140943" transform="translate(0)">
        <rect id="Rectángulo_42593" data-name="Rectángulo 42593" width="126.629" height="173.167" fill="#455a64"/>
        <path id="Trazado_201813" data-name="Trazado 201813" d="M0,0H115.837V163.723H0Z" transform="translate(5.396 4.673)" fill="#fff"/>
        <path id="Trazado_201716" data-name="Trazado 201716" d="M1361.5,634.977v5.9a5.9,5.9,0,0,0,5.893,5.9h31.655a5.9,5.9,0,0,0,5.893-5.9v-5.9Z" transform="translate(-1322.203 -634.977)" fill="#455a64"/>
      </g>
      <g id="Grupo_140944" data-name="Grupo 140944" transform="translate(18.842 145.22)">
        <rect id="Rectángulo_42595" data-name="Rectángulo 42595" width="14.332" height="1.451" fill="#ff725e"/>
        <rect id="Rectángulo_42596" data-name="Rectángulo 42596" width="14.332" height="1.451" transform="translate(17.651)" fill="#ff725e"/>
        <rect id="Rectángulo_42597" data-name="Rectángulo 42597" width="19.876" height="1.451" transform="translate(0 3.219)" fill="#ff725e"/>
      </g>
      <g id="Grupo_140946" data-name="Grupo 140946" transform="translate(31.208 24.289)">
        <g id="Grupo_140945" data-name="Grupo 140945" transform="translate(4.279)">
          <path id="Trazado_201717" data-name="Trazado 201717" d="M1334.665,807.093h5.246a4.573,4.573,0,0,1,3.344,1.164,3.629,3.629,0,0,1,.984,2.656,3.564,3.564,0,0,1-2.459,3.557l2.8,4.1h-2.951l-2.492-3.672h-1.951v3.672h-2.525Zm5.082,5.574c1.23,0,1.935-.656,1.935-1.656,0-1.082-.754-1.639-1.984-1.639h-2.508v3.3Z" transform="translate(-1334.665 -806.929)" fill="#ff725e"/>
          <path id="Trazado_201718" data-name="Trazado 201718" d="M1416.828,813.651v-6.558h2.525v6.492c0,1.869.934,2.836,2.475,2.836s2.475-.935,2.475-2.754v-6.574h2.525v6.476c0,3.476-1.951,5.181-5.033,5.181S1416.828,817.028,1416.828,813.651Z" transform="translate(-1405.155 -806.929)" fill="#ff725e"/>
          <path id="Trazado_201719" data-name="Trazado 201719" d="M1505.338,807.093h2.525v9.181h5.722v2.3h-8.246Z" transform="translate(-1481.09 -806.929)" fill="#ff725e"/>
          <path id="Trazado_201720" data-name="Trazado 201720" d="M1576.769,807.093h8.656v2.246h-6.148v2.328h5.41v2.246h-5.41v2.41h6.23v2.246h-8.738Z" transform="translate(-1542.373 -806.929)" fill="#ff725e"/>
          <path id="Trazado_201721" data-name="Trazado 201721" d="M1648.547,815.907l1.492-1.787a5.264,5.264,0,0,0,3.426,1.394c1.033,0,1.656-.41,1.656-1.115,0-.639-.393-.967-2.312-1.459-2.312-.59-3.8-1.229-3.8-3.541,0-2.082,1.672-3.459,4.017-3.459a6.643,6.643,0,0,1,4.262,1.459l-1.312,1.9a5.384,5.384,0,0,0-2.984-1.131c-.967,0-1.475.443-1.475,1.033,0,.754.492,1,2.476,1.508,2.328.607,3.64,1.443,3.64,3.475,0,2.279-1.738,3.558-4.214,3.558A7.3,7.3,0,0,1,1648.547,815.907Z" transform="translate(-1603.953 -805.939)" fill="#ff725e"/>
        </g>
        <rect id="Rectángulo_42598" data-name="Rectángulo 42598" width="62.234" height="0.803" transform="translate(0 14.346)" fill="#ff725e"/>
      </g>
      <g id="Grupo_140957" data-name="Grupo 140957" transform="translate(13.055 40.97)">
        <g id="Grupo_140949" data-name="Grupo 140949" transform="translate(75.641)">
          <g id="Grupo_140947" data-name="Grupo 140947" transform="translate(0 3.592)">
            <path id="Trazado_201722" data-name="Trazado 201722" d="M1730.138,969.581h-20.95V948.63h20.95Zm-19.964-.987h18.977V949.617h-18.977Z" transform="translate(-1709.188 -948.63)" fill="#ff725e"/>
          </g>
          <g id="Grupo_140948" data-name="Grupo 140948" transform="translate(3.051)">
            <path id="Trazado_201723" data-name="Trazado 201723" d="M1738.6,943.678a1.48,1.48,0,0,1-1.141-.537L1731,935.32a1.48,1.48,0,1,1,2.281-1.886l5.127,6.2,9.275-15.567a1.48,1.48,0,1,1,2.543,1.515l-10.35,17.371a1.479,1.479,0,0,1-1.158.718C1738.681,943.676,1738.643,943.678,1738.6,943.678Z" transform="translate(-1730.66 -923.346)" fill="#455a64"/>
          </g>
        </g>
        <g id="Grupo_140956" data-name="Grupo 140956" transform="translate(0 6.446)">
          <g id="Grupo_140953" data-name="Grupo 140953" transform="translate(12.931 0.238)">
            <g id="Grupo_140950" data-name="Grupo 140950">
              <rect id="Rectángulo_42599" data-name="Rectángulo 42599" width="46.542" height="2.044" fill="#ff725e"/>
            </g>
            <g id="Grupo_140951" data-name="Grupo 140951" transform="translate(0 9.13)">
              <rect id="Rectángulo_42600" data-name="Rectángulo 42600" width="42.893" height="2.044" fill="#ff725e"/>
            </g>
            <g id="Grupo_140952" data-name="Grupo 140952" transform="translate(0 4.565)">
              <rect id="Rectángulo_42601" data-name="Rectángulo 42601" width="12.687" height="2.044" transform="translate(33.855)" fill="#ff725e"/>
              <rect id="Rectángulo_42602" data-name="Rectángulo 42602" width="30.339" height="2.044" fill="#ff725e"/>
            </g>
          </g>
          <g id="Grupo_140955" data-name="Grupo 140955">
            <g id="Grupo_140954" data-name="Grupo 140954">
              <path id="Trazado_201724" data-name="Trazado 201724" d="M1179.293,970.783l-2.082.579-.43-1.653,3.107-.992h1.421v11.651h-2.016Z" transform="translate(-1176.781 -968.717)" fill="#ff725e"/>
            </g>
            <path id="Trazado_201725" data-name="Trazado 201725" d="M1218.021,1041.1a.736.736,0,1,1,.736.736A.736.736,0,0,1,1218.021,1041.1Z" transform="translate(-1212.162 -1030.184)" fill="#ff725e"/>
          </g>
        </g>
      </g>
      <g id="Grupo_140969" data-name="Grupo 140969" transform="translate(12.966 72.266)">
        <g id="Grupo_140960" data-name="Grupo 140960" transform="translate(75.893)">
          <g id="Grupo_140958" data-name="Grupo 140958" transform="translate(0 3.592)">
            <path id="Trazado_201726" data-name="Trazado 201726" d="M1731.28,1189.864h-20.95v-20.95h20.95Zm-19.963-.987h18.977V1169.9h-18.977Z" transform="translate(-1710.33 -1168.914)" fill="#ff725e"/>
          </g>
          <g id="Grupo_140959" data-name="Grupo 140959" transform="translate(3.051)">
            <path id="Trazado_201727" data-name="Trazado 201727" d="M1739.747,1163.961a1.481,1.481,0,0,1-1.141-.537l-6.465-7.821a1.48,1.48,0,0,1,2.282-1.886l5.127,6.2,9.275-15.567a1.48,1.48,0,1,1,2.543,1.515l-10.35,17.371a1.48,1.48,0,0,1-1.158.718C1739.823,1163.96,1739.785,1163.961,1739.747,1163.961Z" transform="translate(-1731.802 -1143.629)" fill="#455a64"/>
          </g>
        </g>
        <g id="Grupo_140968" data-name="Grupo 140968" transform="translate(0 6.446)">
          <g id="Grupo_140962" data-name="Grupo 140962">
            <g id="Grupo_140961" data-name="Grupo 140961">
              <path id="Trazado_201728" data-name="Trazado 201728" d="M1176.15,1199.059l3.955-3.364c1.575-1.329,2.15-2.068,2.15-3.1a1.722,1.722,0,0,0-1.854-1.789c-1.05,0-1.772.574-2.658,1.723l-1.428-1.116a4.709,4.709,0,0,1,4.234-2.412c2.248,0,3.791,1.378,3.791,3.462,0,1.8-.968,2.773-2.986,4.447l-2.363,1.969h5.464v1.772h-8.3Z" transform="translate(-1176.15 -1189)" fill="#ff725e"/>
            </g>
            <path id="Trazado_201729" data-name="Trazado 201729" d="M1244.211,1261.451a.731.731,0,1,1,.731.731A.731.731,0,0,1,1244.211,1261.451Z" transform="translate(-1234.542 -1250.531)" fill="#ff725e"/>
          </g>
          <g id="Grupo_140967" data-name="Grupo 140967" transform="translate(13.406 0.238)">
            <g id="Grupo_140966" data-name="Grupo 140966">
              <g id="Grupo_140963" data-name="Grupo 140963">
                <rect id="Rectángulo_42603" data-name="Rectángulo 42603" width="48.908" height="2.044" fill="#ff725e"/>
              </g>
              <g id="Grupo_140964" data-name="Grupo 140964" transform="translate(0 9.13)">
                <rect id="Rectángulo_42604" data-name="Rectángulo 42604" width="45.073" height="2.044" fill="#ff725e"/>
              </g>
              <g id="Grupo_140965" data-name="Grupo 140965" transform="translate(0 4.565)">
                <rect id="Rectángulo_42605" data-name="Rectángulo 42605" width="13.332" height="2.044" transform="translate(35.575)" fill="#ff725e"/>
                <rect id="Rectángulo_42606" data-name="Rectángulo 42606" width="31.881" height="2.044" fill="#ff725e"/>
              </g>
            </g>
          </g>
        </g>
      </g>
      <g id="Grupo_140980" data-name="Grupo 140980" transform="translate(12.82 103.793)">
        <g id="Grupo_140972" data-name="Grupo 140972" transform="translate(76.038)">
          <g id="Grupo_140970" data-name="Grupo 140970" transform="translate(0 3.592)">
            <path id="Trazado_201730" data-name="Trazado 201730" d="M1731.28,1411.773h-20.95v-20.95h20.95Zm-19.963-.987h18.977V1391.81h-18.977Z" transform="translate(-1710.33 -1390.823)" fill="#ff725e"/>
          </g>
          <g id="Grupo_140971" data-name="Grupo 140971" transform="translate(3.051)">
            <path id="Trazado_201731" data-name="Trazado 201731" d="M1739.747,1385.871a1.48,1.48,0,0,1-1.141-.537l-6.465-7.821a1.48,1.48,0,0,1,2.282-1.886l5.127,6.2,9.275-15.567a1.48,1.48,0,0,1,2.543,1.515l-10.35,17.371a1.48,1.48,0,0,1-1.158.718C1739.823,1385.87,1739.785,1385.871,1739.747,1385.871Z" transform="translate(-1731.802 -1365.54)" fill="#455a64"/>
          </g>
        </g>
        <g id="Grupo_140977" data-name="Grupo 140977" transform="translate(13.551 6.684)">
          <g id="Grupo_140976" data-name="Grupo 140976">
            <g id="Grupo_140973" data-name="Grupo 140973">
              <rect id="Rectángulo_42607" data-name="Rectángulo 42607" width="48.908" height="2.044" fill="#ff725e"/>
            </g>
            <g id="Grupo_140974" data-name="Grupo 140974" transform="translate(0 9.13)">
              <rect id="Rectángulo_42608" data-name="Rectángulo 42608" width="45.073" height="2.044" fill="#ff725e"/>
            </g>
            <g id="Grupo_140975" data-name="Grupo 140975" transform="translate(0 4.565)">
              <rect id="Rectángulo_42609" data-name="Rectángulo 42609" width="13.332" height="2.044" transform="translate(35.575)" fill="#ff725e"/>
              <rect id="Rectángulo_42610" data-name="Rectángulo 42610" width="31.881" height="2.044" fill="#ff725e"/>
            </g>
          </g>
        </g>
        <g id="Grupo_140979" data-name="Grupo 140979" transform="translate(0 6.555)">
          <g id="Grupo_140978" data-name="Grupo 140978">
            <path id="Trazado_201732" data-name="Trazado 201732" d="M1175.126,1421.134l1.381-1.285a3.666,3.666,0,0,0,2.954,1.477,1.764,1.764,0,0,0,1.943-1.734c0-1.108-1.011-1.734-2.585-1.734h-.915l-.321-1.236,3.035-3.228h-4.865v-1.718h7.434v1.477l-3.131,3.212c1.782.257,3.308,1.172,3.308,3.2,0,2.071-1.606,3.549-3.934,3.549A5.329,5.329,0,0,1,1175.126,1421.134Z" transform="translate(-1175.126 -1411.676)" fill="#ff725e"/>
          </g>
          <path id="Trazado_201733" data-name="Trazado 201733" d="M1237.09,1482.8a.715.715,0,1,1,.715.715A.715.715,0,0,1,1237.09,1482.8Z" transform="translate(-1228.286 -1472.081)" fill="#ff725e"/>
        </g>
      </g>
      <g id="Grupo_140985" data-name="Grupo 140985" transform="translate(59.21 128.336)">
        <g id="Grupo_140981" data-name="Grupo 140981" transform="translate(3.914 13.691)">
          <path id="Trazado_201734" data-name="Trazado 201734" d="M1537.909,1642.479a8.913,8.913,0,0,1-8.705-7.1.609.609,0,0,1,1.193-.244,7.671,7.671,0,0,0,15.01.072.609.609,0,1,1,1.19.256A8.929,8.929,0,0,1,1537.909,1642.479Z" transform="translate(-1529.191 -1634.653)" fill="#ff725e"/>
        </g>
        <g id="Grupo_140982" data-name="Grupo 140982" transform="translate(3.897 3.746)">
          <path id="Trazado_201735" data-name="Trazado 201735" d="M1529.682,1572.562a.6.6,0,0,1-.116-.011.608.608,0,0,1-.482-.713,8.888,8.888,0,0,1,17.342-.471.609.609,0,1,1-1.181.3,7.671,7.671,0,0,0-14.967.407A.609.609,0,0,1,1529.682,1572.562Z" transform="translate(-1529.073 -1564.65)" fill="#ff725e"/>
        </g>
        <g id="Grupo_140983" data-name="Grupo 140983">
          <path id="Trazado_201736" data-name="Trazado 201736" d="M1514.276,1563.548a12.632,12.632,0,1,1,12.632-12.632A12.646,12.646,0,0,1,1514.276,1563.548Zm0-23.533a10.9,10.9,0,1,0,10.9,10.9A10.914,10.914,0,0,0,1514.276,1540.015Z" transform="translate(-1501.645 -1538.285)" fill="#ff725e"/>
        </g>
        <g id="Grupo_140984" data-name="Grupo 140984" transform="translate(8.949 11.049)">
          <rect id="Rectángulo_42611" data-name="Rectángulo 42611" width="5.003" height="0.801" transform="translate(1.18)" fill="#ff725e"/>
          <rect id="Rectángulo_42612" data-name="Rectángulo 42612" width="5.003" height="0.801" transform="translate(1.18 3.277)" fill="#ff725e"/>
          <rect id="Rectángulo_42613" data-name="Rectángulo 42613" width="7.364" height="0.801" transform="translate(0 1.582)" fill="#ff725e"/>
        </g>
      </g>
    </g>
    <g id="Grupo_140990" data-name="Grupo 140990" transform="translate(452.599 386.733)">
      <path id="Trazado_201737" data-name="Trazado 201737" d="M1013.746,1228.485s.394-.885.648-1.3,1.344-1.647,1.529-1.369.927,2.149.533,2.673.026,1.435-1.933,1.987Z" transform="translate(-974.071 -1201.714)" fill="#ffb27d"/>
      <path id="Trazado_201738" data-name="Trazado 201738" d="M860.564,1205.54s10.025,8.368,13.934,7.594a77.066,77.066,0,0,0,7.748-2.214l.938,2.4s-4.207,5.707-8.593,5.744a24.984,24.984,0,0,1-11.921-2.969Z" transform="translate(-842.652 -1184.357)" fill="#ff725e"/>
      <path id="Trazado_201739" data-name="Trazado 201739" d="M736.814,1817.7s.291,4.695,1.2,4.762c.121.009,4.607.009,4.607.009l5.726-.033a1.858,1.858,0,0,0-1.711-1.671c-1.674-.292-4.476-1.468-5.489-3.68C740.079,1814.754,736.814,1817.7,736.814,1817.7Z" transform="translate(-736.484 -1708.246)" fill="#1c4b8e"/>
      <path id="Trazado_201740" data-name="Trazado 201740" d="M734.491,1479.124a11.937,11.937,0,0,0,3.1.582,11.385,11.385,0,0,0,2.894-.413,79.235,79.235,0,0,1,2.131-10.153c.946-3.66,2.3-8.366,4.217-14.214,5.312-16.162,6.927-25.617,7.074-26.512.008-.047.011-.071.011-.071l-.017-.008-16.33-7.17s2.018,22.275-.557,30.825a36.008,36.008,0,0,0-.935,4.1C734.453,1465.374,734.491,1479.124,734.491,1479.124Z" transform="translate(-734.49 -1369.349)" fill="#455a64"/>
      <path id="Trazado_201741" data-name="Trazado 201741" d="M757.758,1469.141c.946-3.66,2.3-8.366,4.217-14.214,5.311-16.162,6.927-25.617,7.074-26.512,0-.027,0-.052-.006-.078l-16.33-7.17s2.018,22.275-.557,30.825C751.8,1453.186,757.758,1469.141,757.758,1469.141Z" transform="translate(-749.633 -1369.349)" fill="#304854"/>
      <path id="Trazado_201742" data-name="Trazado 201742" d="M826.587,1817.7s.291,4.695,1.2,4.762c.121.009,4.607.009,4.607.009l5.726-.033a1.858,1.858,0,0,0-1.711-1.671c-1.674-.292-4.475-1.468-5.49-3.68C829.852,1814.754,826.587,1817.7,826.587,1817.7Z" transform="translate(-813.502 -1708.246)" fill="#1c4b8e"/>
      <path id="Trazado_201743" data-name="Trazado 201743" d="M786.91,1424.861a232.447,232.447,0,0,1-2.285,32.157c-2.5,17.723-1.651,25.246-1.651,25.246a17.017,17.017,0,0,1-2.408.613,10.929,10.929,0,0,1-3.573-.414s-3.575-17.729-2.55-26.6-4.895-30.439-4.895-30.439Z" transform="translate(-764.567 -1372.519)" fill="#455a64"/>
      <path id="Trazado_201744" data-name="Trazado 201744" d="M810.253,1144.021l3.188,2.09,2.9-.821a6.935,6.935,0,0,0,.679-3.481,21.659,21.659,0,0,0-.114-2.318l-4.3-1.9-1.6-.707c0,.025.125,1.317.142,1.506A10.979,10.979,0,0,1,810.253,1144.021Z" transform="translate(-799.489 -1125.457)" fill="#ffb27d"/>
      <path id="Trazado_201745" data-name="Trazado 201745" d="M770.743,1217.587c-3.968,3.831-18.983,3.186-19.909-1.034s1.009-35.929,7.786-37.921c1.406-.413,8.925,2.017,8.925,2.017a47.689,47.689,0,0,1,1.954,7.016c.15.765.588,8.868.917,16.448.153,3.545.282,6.977.349,9.49A27.39,27.39,0,0,1,770.743,1217.587Z" transform="translate(-748.327 -1161.232)" fill="#ff725e"/>
      <path id="Trazado_201746" data-name="Trazado 201746" d="M818.062,1142.719c.873,1.475,3.934,2.766,5.556,3.358a21.648,21.648,0,0,0-.114-2.318l-4.3-1.9C818.252,1141.847,817.673,1142.06,818.062,1142.719Z" transform="translate(-806.083 -1129.724)" fill="#fca56b"/>
      <path id="Trazado_201747" data-name="Trazado 201747" d="M810.166,1084.511s-6.929,2.161-8.209-2.174-3.036-6.977,1.334-8.541,5.722-.164,6.5,1.18S811.936,1083.837,810.166,1084.511Z" transform="translate(-791.124 -1070.739)" fill="#ffb27d"/>
      <path id="Trazado_201748" data-name="Trazado 201748" d="M791.316,1060.261s-.442,5.046-1.486,4.827-2.192-.688-2.039.833-1.015,4.128-2.519,4.122c-3.227-.013-6.733-8.294-5.85-9.864C781.971,1055.649,795,1054.734,791.316,1060.261Z" transform="translate(-772.92 -1056.442)" fill="#163560"/>
      <path id="Trazado_201749" data-name="Trazado 201749" d="M814.028,1166.841c-.089-.038-5.158-2.312-5.751-2.116s-1.332,2.006-1.332,2.006l8.926,2.018A4.432,4.432,0,0,0,814.028,1166.841Z" transform="translate(-796.651 -1149.331)" fill="#ff725e"/>
      <g id="Grupo_140988" data-name="Grupo 140988" transform="translate(17.862 3.195)">
        <path id="Trazado_201750" data-name="Trazado 201750" d="M891.287,1336.125l-28.415,26.753c-.557.524-1.259.691-1.561.371l-.959-1.019c-.3-.32-.092-1.011.465-1.535l28.415-26.753c.557-.524,1.259-.692,1.561-.371l.959,1.019C892.052,1334.909,891.844,1335.6,891.287,1336.125Z" transform="translate(-860.214 -1297.254)" fill="#455a64"/>
        <path id="Trazado_201751" data-name="Trazado 201751" d="M875.341,1445.022l-12.469,11.74c-.557.524-1.259.692-1.561.371l-.959-1.019c-.3-.32-.092-1.011.465-1.535l12.469-11.74Z" transform="translate(-860.214 -1391.138)" fill="#455a64"/>
        <path id="Trazado_201752" data-name="Trazado 201752" d="M1027.123,1107.7a22.272,22.272,0,1,0,36.915-22.382q-.171-.17-.35-.337a22.273,22.273,0,0,0-36.565,22.719Zm6.366-20.555a20.514,20.514,0,1,1,.884,29A20.489,20.489,0,0,1,1033.488,1087.149Z" transform="translate(-1002.581 -1078.934)" fill="#1f4d84"/>
        <g id="Grupo_140987" data-name="Grupo 140987" transform="translate(25.334 1.758)" opacity="0.5">
          <path id="Trazado_201753" data-name="Trazado 201753" d="M1073.981,1125.879a20.515,20.515,0,1,1-.884-29A20.428,20.428,0,0,1,1073.981,1125.879Z" transform="translate(-1038.528 -1091.31)" fill="#809ba8"/>
        </g>
      </g>
      <path id="Trazado_201754" data-name="Trazado 201754" d="M805.579,1267.793c-15.657-11.157-14.355-26.044-14.355-26.044,5.723,3.228,11.4,10.364,14.006,16.554C805.384,1261.849,805.513,1265.281,805.579,1267.793Z" transform="translate(-783.141 -1215.422)" fill="#e66755"/>
      <g id="Grupo_140989" data-name="Grupo 140989" transform="translate(7.757 19.418)">
        <path id="Trazado_201755" data-name="Trazado 201755" d="M989.87,1381.844a4.273,4.273,0,0,0,2-1.235s.471.032-.077,1.036c-.046.084-.148.3-.224.453a.1.1,0,0,0,.082.14,10.437,10.437,0,0,1,2.505.052c.169.035.219.441.212.614a1.567,1.567,0,0,1-.33,1.069,5.47,5.47,0,0,1-1.979,1.036,5.983,5.983,0,0,1-3.061-.385l-1-.464.311-1.863.252.053C988.958,1382.435,989.453,1381.947,989.87,1381.844Z" transform="translate(-959.735 -1353.972)" fill="#ffb27d"/>
        <path id="Trazado_201756" data-name="Trazado 201756" d="M794.272,1193.121s-14.068,2.679,4.139,23.051c2.912,3.258,18.644,7.5,18.644,7.5s1.6-1.358.791-2.457c0,0-10.832-7.866-13.216-9.117-1.072-.562-4.161-12.555-5.909-15.443A7.88,7.88,0,0,0,794.272,1193.121Z" transform="translate(-789.086 -1193.121)" fill="#ff725e"/>
      </g>
      <path id="Trazado_201757" data-name="Trazado 201757" d="M1016.431,1225.9a7.16,7.16,0,0,0,.55-1.343,7.424,7.424,0,0,1,.908-2.055c.1-.1.411.028.448.438a2.387,2.387,0,0,1-.226.89,10.037,10.037,0,0,0-.3,1.768C1017.6,1226.309,1016.431,1225.9,1016.431,1225.9Z" transform="translate(-976.375 -1198.885)" fill="#ffb27d"/>
    </g>
    <g id="Grupo_140992" data-name="Grupo 140992" transform="translate(539.12 485.673)">
      <path id="Trazado_201758" data-name="Trazado 201758" d="M1343.475,1778.576a5.5,5.5,0,0,0,.044.707,5.8,5.8,0,0,0,5.76,5.1H1430.9a5.8,5.8,0,0,0,0-11.609h-81.625A5.8,5.8,0,0,0,1343.475,1778.576Z" transform="translate(-1343.475 -1769.939)" fill="#455a64"/>
      <path id="Trazado_201759" data-name="Trazado 201759" d="M1381.918,1754.622H1409.9a.893.893,0,0,0,.891-.891h0a.893.893,0,0,0-.891-.891h-27.986a.893.893,0,0,0-.891.891h0A.893.893,0,0,0,1381.918,1754.622Z" transform="translate(-1375.692 -1752.84)" fill="#2b478b"/>
      <rect id="Rectángulo_42614" data-name="Rectángulo 42614" width="3.034" height="1.051" transform="translate(10.805 2.832) rotate(180)" fill="#233862"/>
      <path id="Trazado_201760" data-name="Trazado 201760" d="M1348.432,1833.172a5.812,5.812,0,0,0,5.1,3.027h17.29v-3.027Z" transform="translate(-1347.728 -1821.759)" fill="#233862"/>
      <path id="Trazado_201761" data-name="Trazado 201761" d="M1512.766,1776.876v3.4a4.1,4.1,0,0,1-4.1,4.1h-85.027a4.1,4.1,0,0,1-4.1-4.1v-3.4a4.1,4.1,0,0,1,4.1-4.1h85.027A4.1,4.1,0,0,1,1512.766,1776.876Z" transform="translate(-1408.727 -1769.94)" fill="#ff725e"/>
      <path id="Trazado_201762" data-name="Trazado 201762" d="M1513.487,1833.172a4.1,4.1,0,0,1-3.96,3.027H1424.5a4.1,4.1,0,0,1-3.96-3.027Z" transform="translate(-1409.591 -1821.759)" fill="#e56957"/>
      <g id="Grupo_140991" data-name="Grupo 140991" transform="translate(95.594 2.832)">
        <path id="Trazado_201763" data-name="Trazado 201763" d="M2016.323,1778.6a6.451,6.451,0,0,0,1.688,4.482l.069.071a4.119,4.119,0,0,0,2.913,1.272c1.721,0,5.988-2.6,8.632-4.322,1.317-.86,2.232-1.5,2.232-1.5s-.915-.643-2.232-1.5c-2.644-1.726-6.91-4.323-8.632-4.323a3.85,3.85,0,0,0-1.429.277,4.676,4.676,0,0,0-1.968,1.553,6.407,6.407,0,0,0-1.182,2.841.275.275,0,0,0,0,.038A7.192,7.192,0,0,0,2016.323,1778.6Z" transform="translate(-2016.323 -1772.771)" fill="#65808d"/>
        <path id="Trazado_201764" data-name="Trazado 201764" d="M2016.323,1807.026a6.452,6.452,0,0,0,1.688,4.482l13.086-4.5-14.688-1.1A7.2,7.2,0,0,0,2016.323,1807.026Z" transform="translate(-2016.323 -1801.201)" fill="#65808d"/>
        <path id="Trazado_201765" data-name="Trazado 201765" d="M2025.285,1776.271l13.055,3.565-11.087-5.118A4.678,4.678,0,0,0,2025.285,1776.271Z" transform="translate(-2024.012 -1774.441)" fill="#65808d"/>
        <path id="Trazado_201766" data-name="Trazado 201766" d="M2103.953,1804.7a1.611,1.611,0,0,0,.852,1.5c1.317-.86,2.232-1.5,2.232-1.5s-.915-.643-2.232-1.5A1.607,1.607,0,0,0,2103.953,1804.7Z" transform="translate(-2091.503 -1798.875)" fill="#65808d"/>
      </g>
    </g>
    <g id="Grupo_140994" data-name="Grupo 140994" transform="translate(637.798 387.58)">
      <path id="Trazado_201767" data-name="Trazado 201767" d="M2162.93,1063.036a4.926,4.926,0,0,0-3.895-.417c-6.616-.777-8.546,6.938-8.456,9.593s.393,5.506-2.562,8.955c-8.534,9.962,9.339,10.4,9.339,10.4.151-7.959,9.693-5.055,9.274-4.249C2178.863,1090.256,2167.847,1065.587,2162.93,1063.036Z" transform="translate(-2130.412 -1062.401)" fill="#163560"/>
      <path id="Trazado_201768" data-name="Trazado 201768" d="M2045.037,1276.52s-1.164-1.771-2.1-1.806-2.674-.521-2.535-.174,1.216.382,1.32.59-1.6.521-2.084.556-1.632,0-1.6.243a5.517,5.517,0,0,0,3.5,1.112,9.719,9.719,0,0,1,3.2.417Z" transform="translate(-2038.038 -1244.295)" fill="#ffb27d"/>
      <path id="Trazado_201769" data-name="Trazado 201769" d="M2099.858,1207.854a17.455,17.455,0,0,1-1.78,2.691c-1.383,1.732-3.514,3.732-6.19,4.127a6.646,6.646,0,0,1-3.678-.6h0a16.772,16.772,0,0,1-5.695-4.761,2.673,2.673,0,0,1,.365-2.622s6.564,1.476,7.189,1.164,4.468-8.839,5.16-10.259a7.785,7.785,0,0,1,3.806-3.884Z" transform="translate(-2076.033 -1175.055)" fill="#ff725e"/>
      <path id="Trazado_201770" data-name="Trazado 201770" d="M2133.611,1291.195c-1.383,1.732-3.514,3.732-6.191,4.127a6.645,6.645,0,0,1-3.677-.6c.127.017,3.374.418,4.667-1.9,1.32-2.362,2.748-6.112,4.708-4.862C2133.965,1288.505,2133.927,1289.846,2133.611,1291.195Z" transform="translate(-2111.567 -1255.705)" fill="#db604e"/>
      <path id="Trazado_201771" data-name="Trazado 201771" d="M2334.273,1786.722s2,1.828,1.612,3.127-2.2,2.164-2.443,3.752-1.221,2.453-2.1,2.453h-4.192s-.647-1.117.916-1.454,2.153-2.2,2.055-3.933a30.533,30.533,0,0,1,.146-4.04l3.322-.77Z" transform="translate(-2285.961 -1683.072)" fill="#1c4b8e"/>
      <path id="Trazado_201772" data-name="Trazado 201772" d="M2189.861,1797.412s.72,7.743-.159,8.176l-11.253-.023s0-1.3,1.807-1.587,4.982-1.347,5.52-3.7S2189.861,1797.412,2189.861,1797.412Z" transform="translate(-2158.5 -1692.987)" fill="#1c4b8e"/>
      <path id="Trazado_201773" data-name="Trazado 201773" d="M2196.929,1197.02c1.178,3.641.168,2.364,0,5.2-.111,1.881-2.014,4.4-2.284,5.022-.677,1.563-1.441,1.817-1.441,1.817l-5.908,1.448-2.077.508-6.551-1.957s-2.984-8.328-1.786-13.017a36.011,36.011,0,0,1,3.029-7.944s4.441-1.753,12.306-.444C2192.217,1187.656,2195.751,1193.379,2196.929,1197.02Z" transform="translate(-2156.913 -1169.444)" fill="#ff725e"/>
      <path id="Trazado_201774" data-name="Trazado 201774" d="M2244.305,1287.021a18.4,18.4,0,0,1-.554,4.255c-.677,1.563-1.441,1.817-1.441,1.817l-5.908,1.448-2.566-.754s8.566-1.3,7.617-8.668Z" transform="translate(-2206.018 -1253.476)" fill="#f2ccaa"/>
      <path id="Trazado_201775" data-name="Trazado 201775" d="M2173.219,1350.145s-3.245,10.1-3.453,13.536,6.2,48.841,6.46,50.425c.243,1.493,2.1,2.445,2.1,2.445a2.806,2.806,0,0,0,2.07.159,5.115,5.115,0,0,0,2.222-1.048s2.525-32.381.963-43.948a183.244,183.244,0,0,1-1.581-21.57Z" transform="translate(-2151.046 -1309.264)" fill="#304854"/>
      <path id="Trazado_201776" data-name="Trazado 201776" d="M2214.292,1348.025s4.948,6.64,5.41,11.128.724,20.255,1.707,24.631,4.594,12.8,4.594,26.445a2.723,2.723,0,0,1-1.534,1.2,12.628,12.628,0,0,1-1.349.373,2.122,2.122,0,0,1-2.373-1.126c-2.441-4.916-10.219-20.77-10.617-24.061-.282-2.329-2.738-17.744-8.094-26.788-1.286-2.171.789-10.807.789-10.807Z" transform="translate(-2178.375 -1307.445)" fill="#455a64"/>
      <path id="Trazado_201777" data-name="Trazado 201777" d="M2189.337,1339.172a6.8,6.8,0,0,0,3.89,1.082c3.09.062,10.748-.788,10.748-.788a6.335,6.335,0,0,1,.327,1.955s-9.353,2.359-14.772.344A3.425,3.425,0,0,1,2189.337,1339.172Z" transform="translate(-2167.684 -1299.85)" fill="#233862"/>
      <g id="Grupo_140993" data-name="Grupo 140993" transform="translate(23.392 39.875)">
        <path id="Trazado_201778" data-name="Trazado 201778" d="M2204.094,1346.259a1.608,1.608,0,1,1,1.41-1.6A1.513,1.513,0,0,1,2204.094,1346.259Zm0-2.725a1.147,1.147,0,1,0,.943,1.129A1.05,1.05,0,0,0,2204.094,1343.534Z" transform="translate(-2202.684 -1343.067)" fill="#fff"/>
      </g>
      <path id="Trazado_201779" data-name="Trazado 201779" d="M2239.792,1276.958l-7.595,6.613a1.318,1.318,0,0,1-1.859-.128l-9.691-11.129a1.317,1.317,0,0,1,.128-1.859l7.595-6.613a1.318,1.318,0,0,1,1.859.129l9.691,11.129A1.317,1.317,0,0,1,2239.792,1276.958Z" transform="translate(-2194.426 -1234.945)" fill="#2b478b"/>
      <path id="Trazado_201780" data-name="Trazado 201780" d="M2253.9,1352.244c-.108.029-4.034.49-4.035,1.3a2.441,2.441,0,0,0,2.235,2.136,12.882,12.882,0,0,0,2.465-1.887Z" transform="translate(-2219.773 -1311.065)" fill="#ffb27d"/>
      <path id="Trazado_201781" data-name="Trazado 201781" d="M2227.567,1158.722a13.067,13.067,0,0,1-.7-4.776l-.3.058-4.988.988s.114,1.569.117,3.048v.036c.006,1.284-.868,2.573,1.192,3.082C2223.528,1161.317,2228.505,1161,2227.567,1158.722Z" transform="translate(-2195.452 -1140.94)" fill="#ffb27d"/>
      <path id="Trazado_201782" data-name="Trazado 201782" d="M2221.957,1155.345s.114,1.569.117,3.048c2.791-.079,4.266-2.625,4.871-4.036Z" transform="translate(-2195.827 -1141.293)" fill="#e8945b"/>
      <path id="Trazado_201783" data-name="Trazado 201783" d="M2202.116,1103.879s6.6.109,6.608-4,.86-6.869-3.356-7.113-5.037,1.325-5.372,2.7S2200.4,1103.745,2202.116,1103.879Z" transform="translate(-2176.918 -1088.427)" fill="#ffb27d"/>
      <path id="Trazado_201784" data-name="Trazado 201784" d="M2217.116,1087.157s1.808,4.826,4.583,5.539,3.979-.03,3.979-.03a7.858,7.858,0,0,1-2.57-4.642S2218.48,1084.86,2217.116,1087.157Z" transform="translate(-2191.674 -1082.922)" fill="#163560"/>
      <path id="Trazado_201785" data-name="Trazado 201785" d="M2200.081,1090.211a4.1,4.1,0,0,0-1.892,1.479,6.647,6.647,0,0,0-.893,3.776s-1.362-3.28.169-5.135C2199.087,1088.363,2200.081,1090.211,2200.081,1090.211Z" transform="translate(-2174.19 -1085.585)" fill="#163560"/>
      <path id="Trazado_201786" data-name="Trazado 201786" d="M2262.183,1350.853a4.491,4.491,0,0,0-1.57-.214c-.629.088-1.094-.012-1.094.164s.812.258.984.343A8.568,8.568,0,0,0,2262.183,1350.853Z" transform="translate(-2228.052 -1309.674)" fill="#ffb27d"/>
      <path id="Trazado_201787" data-name="Trazado 201787" d="M2273.687,1190.587a7.994,7.994,0,0,1,6.484,4.7c1.8,4.368,5.206,11.7,5.206,12.935s-1.9,5.037-12.132,7.224c0,0-1.058-1.113-.994-1.993,0,0,6.384-5.484,6.367-6.125-.033-1.212-1.047-2.813-6.652-8.419C2270.443,1197.381,2273.687,1190.587,2273.687,1190.587Z" transform="translate(-2238.382 -1172.375)" fill="#ff725e"/>
    </g>
    <g id="Grupo_140998" data-name="Grupo 140998" transform="translate(496.633 275.829)">
      <g id="Grupo_140995" data-name="Grupo 140995">
        <path id="Trazado_201788" data-name="Trazado 201788" d="M1100.472,275.938s-3.76-.636-6.145,1.166-2.766,1.219-4.111,2.331.031,2.437-.71,3.179a1.52,1.52,0,0,0,.33,2.543c1.1.371.359,2.384,2.743,2.649s1.316,1.369,3.577,1.536a19.9,19.9,0,0,1,5.324.745,1.883,1.883,0,0,0,2.613-.924c.341-.908,1.295.263,1.573-.978s-.715-1.731-.159-2.737S1107.438,277.289,1100.472,275.938Z" transform="translate(-1082.646 -275.829)" fill="#233862"/>
        <path id="Trazado_201789" data-name="Trazado 201789" d="M1214.259,734.094a.929.929,0,0,0-.159.995.009.009,0,0,0,0,0,6.174,6.174,0,0,0,1.966,2.127c.118.094.223.18.315.259.024.021.048.042.071.063l.054.048c.863.785.542.968,2.094,2.562,1.77,1.816,2.98,1.84,3.323,1.671.29-.144-.308-1.109-.971-2.195-.032-.052-.063-.105-.1-.158-.089-.144-.176-.291-.264-.436-.777-1.306-.584-1.923-.416-3.876.137-1.587,2.405-8.879,2.405-8.879l-3.371-.556s-.973,5.8-2.084,6.7c-.594.48-1.263.49-1.834.847-.04.025-.08.05-.119.076A4.417,4.417,0,0,0,1214.259,734.094Z" transform="translate(-1189.929 -661.805)" fill="#ffb27d"/>
        <path id="Trazado_201790" data-name="Trazado 201790" d="M1214.259,779.669a.929.929,0,0,0-.159.995.009.009,0,0,0,0,0,7.149,7.149,0,0,0,1.969,2.12c.117.1.22.184.312.266.024.021.048.042.071.062l.054.048c.863.785.542.968,2.094,2.562,1.77,1.816,2.98,1.84,3.323,1.671.29-.144-.308-1.109-.971-2.195a7.487,7.487,0,0,1-3.148-2.286c-1.068-1.343-1.785-3.072-2.513-4.072-.04.025-.08.05-.119.076A4.421,4.421,0,0,0,1214.259,779.669Z" transform="translate(-1189.929 -707.381)" fill="#233862"/>
        <path id="Trazado_201791" data-name="Trazado 201791" d="M1390.115,724.644c.215,1.038,1.7.854,3.348.438s1.262.068,3.616-.21,3.061-1.161,3.131-1.512c.062-.311-1.1-.413-2.352-.548-.157-.016-.315-.035-.473-.053-1.411-.167-2.449-1.069-3.735-1.807-1.218-.7-3.048-3.569-3.048-3.569l-3.229.279s1.714,2.563,2.377,3.678a3.9,3.9,0,0,1,.333,2.2A4.156,4.156,0,0,0,1390.115,724.644Z" transform="translate(-1338.65 -654.65)" fill="#ffb27d"/>
        <path id="Trazado_201792" data-name="Trazado 201792" d="M1409.7,757.869c1.652-.416,1.262.067,3.616-.21s3.061-1.161,3.131-1.512c.062-.311-1.1-.413-2.352-.548l-.012.024a6.641,6.641,0,0,1-3.366,1.072c-1.6.05-3.294-.4-4.4-.37a4.161,4.161,0,0,0,.033,1.105C1406.569,758.469,1408.049,758.285,1409.7,757.869Z" transform="translate(-1354.888 -687.437)" fill="#233862"/>
        <path id="Trazado_201793" data-name="Trazado 201793" d="M1252.326,592.619l-2.963,8.148-3.868,10.639a6.387,6.387,0,0,1-2.1-.177,9.079,9.079,0,0,1-2.033-.972s1.015-11.4,3.011-17.956a11.644,11.644,0,0,1,1.73-3.813C1249.248,584.725,1252.326,592.619,1252.326,592.619Z" transform="translate(-1213.388 -543.195)" fill="#304854"/>
        <path id="Trazado_201794" data-name="Trazado 201794" d="M1120.578,524.353c-1.983-.624-7.62.235-13.281,1.385l-1.2-1.949-12.251-.87s-3.836,8.486-1.725,14.682c.41,1.2,2.371,1.245,2.371,1.245s7.177.078,9.544.062c6.089-.043,12.857-4.277,13.735-4.459,1.437-.3,2.033,2.577,3.494,5.589s13.624,13.29,13.624,13.29a10.648,10.648,0,0,0,2.624-.288,2.587,2.587,0,0,0,1.123-.72s-2.035-3.978-4.849-9.045C1129.485,535.53,1123.319,525.216,1120.578,524.353Z" transform="translate(-1084.801 -487.813)" fill="#455a64"/>
        <path id="Trazado_201795" data-name="Trazado 201795" d="M1131.012,354.934a5.764,5.764,0,0,1-3.592.136c-1.366-.592-2.413-2.825-2.393-2.826.619-.033,1.3-.579,1.794-4.136l.265.093,4.446,1.564s-.312,1.425-.51,2.781C1130.855,353.684,1130.769,354.774,1131.012,354.934Z" transform="translate(-1113.577 -337.838)" fill="#ffb27d"/>
        <path id="Trazado_201796" data-name="Trazado 201796" d="M1143.963,350.324s-.189,1-.453,2.426a5.179,5.179,0,0,1-3.993-3.991Z" transform="translate(-1126.008 -338.398)" fill="#ed975d"/>
        <path id="Trazado_201797" data-name="Trazado 201797" d="M1141.9,305.322s-6.073-.772-5.534-4.546.118-6.416,4.018-6.083,4.446,1.881,4.573,3.184S1143.5,305.426,1141.9,305.322Z" transform="translate(-1123.278 -291.989)" fill="#ffb27d"/>
        <path id="Trazado_201798" data-name="Trazado 201798" d="M1134.112,293.772s-3.86,3.374-6.5,3.663-3.646-.552-3.646-.552a10.32,10.32,0,0,0,2.471-3.4,1.857,1.857,0,0,1,1.523-1.106C1129.845,292.2,1133.421,292.1,1134.112,293.772Z" transform="translate(-1112.666 -289.948)" fill="#233862"/>
        <path id="Trazado_201799" data-name="Trazado 201799" d="M1178.278,296.307a9.555,9.555,0,0,1,1.724,2.176,7.343,7.343,0,0,1,.227,3.9s2-3.951.837-5.855C1179.836,294.511,1178.278,296.307,1178.278,296.307Z" transform="translate(-1159.262 -292.766)" fill="#233862"/>
        <path id="Trazado_201800" data-name="Trazado 201800" d="M1105.208,387.929c-.1,12.283.018,9.716-1.317,10.89a5.159,5.159,0,0,1-2.428.544c-3.764.276-10.389-.3-10.645-.991-.886-2.4-.278-3.154-1.028-6.836-.078-.392-.175-.815-.288-1.277-.622-2.528-1.216-3.385.9-7.468,1.918-3.7,3.917-6.7,4.1-6.6,5.151,3.009,5.546.447,5.546.447S1105.255,381.938,1105.208,387.929Z" transform="translate(-1082.6 -361.932)" fill="#ff725e"/>
        <path id="Trazado_201801" data-name="Trazado 201801" d="M1249.364,629.937l-3.868,10.639a6.387,6.387,0,0,1-2.1-.177,9.081,9.081,0,0,1-2.033-.972s1.015-11.4,3.011-17.956Z" transform="translate(-1213.388 -572.365)" fill="#455a64"/>
        <path id="Trazado_201802" data-name="Trazado 201802" d="M1167.222,379.348s5.284.858,5.92,3.125,4.377,15.6,4.377,15.6-2.68.5-3.928-.73-4.394-11.469-4.394-11.469Z" transform="translate(-1149.777 -364.641)" fill="#ff725e"/>
        <path id="Trazado_201803" data-name="Trazado 201803" d="M1106.706,461.062c-3.764.276-10.389-.3-10.645-.991-.886-2.4-.278-3.154-1.028-6.836l1.78-5.128s-.26,5.7,1.43,7.184,6.9,2.843,7.723,4.089A4.585,4.585,0,0,1,1106.706,461.062Z" transform="translate(-1087.843 -423.631)" fill="#e66755"/>
        <path id="Trazado_201804" data-name="Trazado 201804" d="M1146.708,519.011s3.709-.853,4.311-.528a8.729,8.729,0,0,1,2.262,1.932c.186.417-1.337-.308-1.832-.437a4.394,4.394,0,0,0-1.576.357,5.244,5.244,0,0,1-2.826.3Z" transform="translate(-1132.177 -483.945)" fill="#ffb27d"/>
        <path id="Trazado_201805" data-name="Trazado 201805" d="M1056.327,376.192s-4.987.342-6.7,2.763c-2.407,3.408-7.128,17.892-4.35,19.8,3.128,2.148,14.17.468,14.17.468a4.49,4.49,0,0,0-.162-2.55c-.518-.828-8.844-2.113-9.23-2.494s4.745-7.519,4.737-8.67S1056.327,376.192,1056.327,376.192Z" transform="translate(-1044.431 -361.933)" fill="#ff725e"/>
        <path id="Trazado_201806" data-name="Trazado 201806" d="M1178.371,526.2a7.182,7.182,0,0,0,1.042,1.117.76.76,0,0,0,.421.087l-.531-.94Z" transform="translate(-1159.342 -490.628)" fill="#ffb27d"/>
        <path id="Trazado_201807" data-name="Trazado 201807" d="M1177.054,518.93l2.271,1.083a.4.4,0,0,1-.374.147,5.393,5.393,0,0,1-.984-.263Z" transform="translate(-1158.212 -484.392)" fill="#ffb27d"/>
      </g>
      <g id="Grupo_140997" data-name="Grupo 140997" transform="translate(14.055 24.751)">
        <g id="Grupo_140996" data-name="Grupo 140996">
          <path id="Trazado_201808" data-name="Trazado 201808" d="M1182.294,463.6l17.9-.126,5.291-13.431-17.876.126Z" transform="translate(-1176.762 -450.044)" fill="#233862"/>
          <path id="Trazado_201809" data-name="Trazado 201809" d="M1167,540.9l-23.642.167,0,.522,23.432-.165Z" transform="translate(-1143.356 -527.988)" fill="#233862"/>
        </g>
        <path id="Trazado_201810" data-name="Trazado 201810" d="M1265.673,492.548a.62.62,0,0,0-.614-.848,1.221,1.221,0,0,0-1.091.86.62.62,0,0,0,.614.848A1.222,1.222,0,0,0,1265.673,492.548Z" transform="translate(-1246.804 -485.782)" fill="#ebf3fa"/>
      </g>
    </g>
    <path id="Trazado_201811" data-name="Trazado 201811" d="M537.4,1766.614h13.065c.7-.594-.484-1.943-1.722-2.033a7.626,7.626,0,0,0-1.994.236c-.18-2.388-1.207-13.123-5.076-12.691-4.351.483,0,4.728,1.23,7.24a59.81,59.81,0,0,1,2.311,5.79c-.353.077-.719.152-1.093.221-.577-1.771-2.722-7.727-5.451-7.38-3.2.406-1.916,2.794.355,4.212,1.666,1.042,3.712,2.524,4.684,3.24a13.9,13.9,0,0,1-2.555.2A5.506,5.506,0,0,0,537.4,1766.614Z" transform="translate(-112.247 -1266.543)" fill="#afe684"/>
    <path id="Trazado_201812" data-name="Trazado 201812" d="M2442.935,1757.086h-14.455c-.774-.657.536-2.149,1.905-2.25a8.429,8.429,0,0,1,2.206.261c.2-2.642,1.335-14.519,5.616-14.042,4.813.534,0,5.23-1.361,8.01a66.144,66.144,0,0,0-2.557,6.406c.391.085.8.168,1.209.244.638-1.959,3.012-8.548,6.031-8.165,3.544.45,2.12,3.092-.393,4.66-1.843,1.153-4.106,2.792-5.182,3.584a15.358,15.358,0,0,0,2.827.226A6.094,6.094,0,0,1,2442.935,1757.086Z" transform="translate(-1735.012 -1257.046)" fill="#afe684"/>
  </g>
</svg>
