<svg xmlns="http://www.w3.org/2000/svg" width="307.446" height="208.153" viewBox="0 0 307.446 208.153">
  <g id="Grupo_140933" data-name="Grupo 140933" transform="translate(-160.663 -307)">
    <g id="Grupo_140702" data-name="Grupo 140702" transform="translate(384.812 456.929)">
      <g id="Grupo_140688" data-name="Grupo 140688" transform="translate(0 0)">
        <g id="Grupo_140681" data-name="Grupo 140681">
          <g id="Grupo_140680" data-name="Grupo 140680">
            <g id="Grupo_140679" data-name="Grupo 140679">
              <path id="Trazado_201630" data-name="Trazado 201630" d="M2118.548,1412.705c.778-.665,13.533-27.047,21.933-14.573,0,0,12.6-45.738,29.867-43.576s2.644,36.092,2.644,36.092,14.778-6.486,11.355,10.645c0,0,18.822-3.659,17.422,10.811Z" transform="translate(-2118.548 -1354.482)" fill="#afe684"/>
            </g>
          </g>
        </g>
        <g id="Grupo_140684" data-name="Grupo 140684" transform="translate(66.54 9.185)">
          <g id="Grupo_140683" data-name="Grupo 140683" transform="translate(0 0)">
            <g id="Grupo_140682" data-name="Grupo 140682">
              <path id="Trazado_201814" data-name="Trazado 201814" d="M6.8-.222c3.756-.123,6.748,1.389,6.682,3.376s-3.164,3.7-6.92,3.821S-.185,5.586-.119,3.6,3.045-.1,6.8-.222Z" transform="translate(0 10.756) rotate(-50.345)" fill="#afe684"/>
            </g>
          </g>
        </g>
        <g id="Grupo_140687" data-name="Grupo 140687" transform="translate(72.878 24.181)">
          <g id="Grupo_140686" data-name="Grupo 140686">
            <g id="Grupo_140685" data-name="Grupo 140685">
              <path id="Trazado_201631" data-name="Trazado 201631" d="M2745.674,1550.746c-1.363,1.758-1.754,3.817-.873,4.6s2.7-.011,4.063-1.77,1.754-3.817.873-4.6S2747.037,1548.988,2745.674,1550.746Z" transform="translate(-2744.33 -1548.676)" fill="#afe684"/>
            </g>
          </g>
        </g>
      </g>
      <g id="Grupo_140695" data-name="Grupo 140695" transform="translate(53.618 37.125)">
        <g id="Grupo_140691" data-name="Grupo 140691">
          <g id="Grupo_140690" data-name="Grupo 140690">
            <g id="Grupo_140689" data-name="Grupo 140689">
              <path id="Trazado_201632" data-name="Trazado 201632" d="M2579.093,1655.016a.18.18,0,0,1-.112-.081.2.2,0,0,1,.05-.268c.151-.108,3.733-2.633,6.876-1.9h0a.194.194,0,0,1,.138.23.181.181,0,0,1-.215.148h0c-2.993-.694-6.563,1.822-6.6,1.848A.17.17,0,0,1,2579.093,1655.016Z" transform="translate(-2578.95 -1652.631)"/>
            </g>
          </g>
        </g>
        <g id="Grupo_140694" data-name="Grupo 140694" transform="translate(2.407 1.303)">
          <g id="Grupo_140693" data-name="Grupo 140693">
            <g id="Grupo_140692" data-name="Grupo 140692">
              <path id="Trazado_201633" data-name="Trazado 201633" d="M2599.762,1664.469a.182.182,0,0,1-.113-.082.2.2,0,0,1,.051-.268,7.553,7.553,0,0,1,4.661-1,.189.189,0,0,1,.169.2.185.185,0,0,1-.191.181,7.332,7.332,0,0,0-4.439.935A.17.17,0,0,1,2599.762,1664.469Z" transform="translate(-2599.62 -1663.098)"/>
            </g>
          </g>
        </g>
      </g>
      <g id="Grupo_140698" data-name="Grupo 140698" transform="translate(11.13 43.523)">
        <g id="Grupo_140697" data-name="Grupo 140697">
          <g id="Grupo_140696" data-name="Grupo 140696">
            <path id="Trazado_201634" data-name="Trazado 201634" d="M2214.3,1707.756a.175.175,0,0,1-.125-.054.2.2,0,0,1,0-.273c.126-.139,3.125-3.419,6.342-3.419a.194.194,0,0,1,0,.386h0c-3.065,0-6.052,3.268-6.082,3.3A.175.175,0,0,1,2214.3,1707.756Z" transform="translate(-2214.12 -1704.009)"/>
          </g>
        </g>
      </g>
      <g id="Grupo_140701" data-name="Grupo 140701" transform="translate(13.54 44.644)">
        <g id="Grupo_140700" data-name="Grupo 140700">
          <g id="Grupo_140699" data-name="Grupo 140699">
            <path id="Trazado_201635" data-name="Trazado 201635" d="M2234.992,1715.372a.175.175,0,0,1-.126-.055.2.2,0,0,1,0-.273,7.766,7.766,0,0,1,4.356-2.032.182.182,0,0,1,.206.162.192.192,0,0,1-.151.22,7.57,7.57,0,0,0-4.153,1.92A.175.175,0,0,1,2234.992,1715.372Z" transform="translate(-2234.812 -1713.01)"/>
          </g>
        </g>
      </g>
    </g>
    <g id="Grupo_140720" data-name="Grupo 140720" transform="translate(160.663 468.502)">
      <g id="Grupo_140706" data-name="Grupo 140706" transform="translate(0)">
        <g id="Grupo_140705" data-name="Grupo 140705">
          <g id="Grupo_140704" data-name="Grupo 140704">
            <g id="Grupo_140703" data-name="Grupo 140703">
              <path id="Trazado_201636" data-name="Trazado 201636" d="M260.586,1494.074c-.623-.533-10.843-21.671-17.574-11.676,0,0-10.1-36.647-23.93-34.914s-2.119,28.918-2.119,28.918-11.84-5.2-9.1,8.529c0,0-15.081-2.932-13.959,8.662Z" transform="translate(-193.846 -1447.424)" fill="#afe684"/>
            </g>
          </g>
        </g>
      </g>
      <g id="Grupo_140713" data-name="Grupo 140713" transform="translate(17.916 29.746)">
        <g id="Grupo_140709" data-name="Grupo 140709" transform="translate(0.174)">
          <g id="Grupo_140708" data-name="Grupo 140708">
            <g id="Grupo_140707" data-name="Grupo 140707">
              <path id="Trazado_201637" data-name="Trazado 201637" d="M354.753,1688.221a.144.144,0,0,0,.09-.065.161.161,0,0,0-.04-.215c-.121-.086-2.991-2.11-5.509-1.526h0a.155.155,0,0,0-.111.184.145.145,0,0,0,.172.118h0c2.4-.556,5.258,1.46,5.287,1.481A.136.136,0,0,0,354.753,1688.221Z" transform="translate(-349.178 -1686.31)"/>
            </g>
          </g>
        </g>
        <g id="Grupo_140712" data-name="Grupo 140712" transform="translate(0 1.044)">
          <g id="Grupo_140711" data-name="Grupo 140711">
            <g id="Grupo_140710" data-name="Grupo 140710">
              <path id="Trazado_201638" data-name="Trazado 201638" d="M351.5,1695.794a.145.145,0,0,0,.09-.066.161.161,0,0,0-.041-.214,6.047,6.047,0,0,0-3.734-.8.151.151,0,0,0-.135.164.149.149,0,0,0,.153.145,5.871,5.871,0,0,1,3.556.749A.136.136,0,0,0,351.5,1695.794Z" transform="translate(-347.681 -1694.696)"/>
            </g>
          </g>
        </g>
      </g>
      <g id="Grupo_140716" data-name="Grupo 140716" transform="translate(52.553 34.872)">
        <g id="Grupo_140715" data-name="Grupo 140715">
          <g id="Grupo_140714" data-name="Grupo 140714">
            <path id="Trazado_201639" data-name="Trazado 201639" d="M650.227,1730.477a.139.139,0,0,0,.1-.044.163.163,0,0,0,0-.219c-.1-.112-2.5-2.74-5.082-2.74a.155.155,0,0,0,0,.309h0c2.456,0,4.849,2.619,4.873,2.645A.139.139,0,0,0,650.227,1730.477Z" transform="translate(-645.103 -1727.475)"/>
          </g>
        </g>
      </g>
      <g id="Grupo_140719" data-name="Grupo 140719" transform="translate(52.193 35.77)">
        <g id="Grupo_140718" data-name="Grupo 140718">
          <g id="Grupo_140717" data-name="Grupo 140717">
            <path id="Trazado_201640" data-name="Trazado 201640" d="M645.561,1736.58a.139.139,0,0,0,.1-.044.162.162,0,0,0,0-.219,6.221,6.221,0,0,0-3.49-1.628.146.146,0,0,0-.165.129.154.154,0,0,0,.121.177,6.066,6.066,0,0,1,3.327,1.538A.14.14,0,0,0,645.561,1736.58Z" transform="translate(-642.008 -1734.687)"/>
          </g>
        </g>
      </g>
    </g>
    <path id="Trazado_201641" data-name="Trazado 201641" d="M1601.989,1121.349l-80.809,86.4v.081h115.268C1636.091,1173.978,1622.97,1143.4,1601.989,1121.349Z" transform="translate(-1205.937 -693.449)" fill="#95c96d"/>
    <path id="Trazado_201642" data-name="Trazado 201642" d="M532.082,1208.114H647.273v-.081L566.5,1121.672C545.543,1143.722,532.438,1174.282,532.082,1208.114Z" transform="translate(-332.029 -693.732)" fill="#ff725e"/>
    <path id="Trazado_201643" data-name="Trazado 201643" d="M908.409,959.169V837.412c-31.466.022-59.982,13.523-80.771,35.4Z" transform="translate(-593.164 -444.868)" fill="#ffe98f"/>
    <path id="Trazado_201644" data-name="Trazado 201644" d="M1521.178,959.169l80.809-86.4c-20.8-21.867-49.331-35.356-80.809-35.356Z" transform="translate(-1205.935 -444.868)" fill="#597b8b"/>
    <path id="Trazado_201645" data-name="Trazado 201645" d="M2138.013,1121.349l-10.07,10.767q2.326,2.336,4.531,4.823c16.509,18.611,25.672,43.293,28.994,70.892h11C2172.115,1173.978,2158.994,1143.4,2138.013,1121.349Z" transform="translate(-1742.037 -693.449)" fill="#90ddb8" opacity="0.3" style="mix-blend-mode: multiply;isolation: isolate"/>
    <path id="Trazado_201646" data-name="Trazado 201646" d="M531.432,1208.114h12.445c3.319-27.579,10.874-52.245,27.365-70.852q2.239-2.526,4.6-4.9l-9.995-10.686C544.893,1143.722,531.788,1174.282,531.432,1208.114Z" transform="translate(-331.454 -693.732)" fill="#ed3b5e" opacity="0.3" style="mix-blend-mode: multiply;isolation: isolate"/>
    <path id="Trazado_201647" data-name="Trazado 201647" d="M836.984,883.494c18.89-18.969,43.627-30.472,70.706-30.492h.071v-15.59c-31.466.022-59.982,13.523-80.771,35.4Z" transform="translate(-592.591 -444.868)" fill="#fecc86" opacity="0.3" style="mix-blend-mode: multiply;isolation: isolate"/>
    <path id="Trazado_201648" data-name="Trazado 201648" d="M1520.529,853c27.1.022,51.845,11.539,70.739,30.533l10.07-10.767c-20.8-21.867-49.331-35.356-80.809-35.356Z" transform="translate(-1205.362 -444.868)" fill="#6eafea" opacity="0.3" style="mix-blend-mode: multiply;isolation: isolate"/>
    <g id="Grupo_140721" data-name="Grupo 140721" transform="translate(222.185 458.775)">
      <path id="Trazado_201649" data-name="Trazado 201649" d="M731.065,1638.737a6.643,6.643,0,0,0-.078-4.237,3.992,3.992,0,0,0-2.8-2.161,3.757,3.757,0,0,0-3.43.453,6.31,6.31,0,0,0-1.981,3.673l-.656,2.737,15.285,4.191.4-1.677-7-1.919Zm-1.2-.718-.341,1.423-5.573-1.528.341-1.423a3.794,3.794,0,0,1,1.294-2.3,2.619,2.619,0,0,1,2.31-.254,2.726,2.726,0,0,1,1.868,1.406A4,4,0,0,1,729.862,1638.019Z" transform="translate(-722.121 -1599.406)" fill="#fff"/>
      <path id="Trazado_201650" data-name="Trazado 201650" d="M760.682,1549.207a12.511,12.511,0,0,0-6.153-.9,3.581,3.581,0,0,0-2.979,2.615,3.916,3.916,0,0,0,.956,3.989,13.19,13.19,0,0,0,5.473,3.145,12.682,12.682,0,0,0,6.159.916,3.562,3.562,0,0,0,2.989-2.612,3.93,3.93,0,0,0-.972-3.994A13.156,13.156,0,0,0,760.682,1549.207Zm5.029,6.656a2.141,2.141,0,0,1-2.207,1.5,15.926,15.926,0,0,1-5.349-1.166,13.063,13.063,0,0,1-4.38-2.248,2.351,2.351,0,0,1-.837-2.545,2.133,2.133,0,0,1,2.154-1.5,14.192,14.192,0,0,1,5.054,1.051,14.6,14.6,0,0,1,4.665,2.341A2.351,2.351,0,0,1,765.711,1555.863Z" transform="translate(-747.952 -1525.921)" fill="#fff"/>
      <path id="Trazado_201651" data-name="Trazado 201651" d="M793.727,1460.3a12.575,12.575,0,0,0-6.075-1.378,3.536,3.536,0,0,0-3.149,2.377,3.937,3.937,0,0,0,.682,4.053,13.363,13.363,0,0,0,5.245,3.562,12.745,12.745,0,0,0,6.081,1.392,3.518,3.518,0,0,0,3.158-2.372,3.95,3.95,0,0,0-.7-4.059A13.337,13.337,0,0,0,793.727,1460.3Zm4.562,7.03a2.117,2.117,0,0,1-2.3,1.325,16.022,16.022,0,0,1-5.255-1.579,13.219,13.219,0,0,1-4.215-2.582,2.368,2.368,0,0,1-.662-2.6,2.109,2.109,0,0,1,2.25-1.323,14.277,14.277,0,0,1,4.969,1.441,14.783,14.783,0,0,1,4.493,2.7A2.368,2.368,0,0,1,798.289,1467.333Z" transform="translate(-776.984 -1447.734)" fill="#fff"/>
      <path id="Trazado_201652" data-name="Trazado 201652" d="M824.244,1371.672a4.42,4.42,0,0,0-1.869-1.778,3.568,3.568,0,0,0-3.351-.3,6.259,6.259,0,0,0-2.648,3.157l-1.3,2.744,14.077,7.623.732-1.545-6.654-3.6.284-.6q.14-.295.294-.646t.429-.981L832,1377.1l.789-1.667-8.17-1.334A3.842,3.842,0,0,0,824.244,1371.672Zm-1.664,4.3-.621,1.311-4.9-2.656.621-1.311a3.875,3.875,0,0,1,1.713-2,2.414,2.414,0,0,1,2.207.231,2.674,2.674,0,0,1,1.471,1.773A4.19,4.19,0,0,1,822.58,1375.968Z" transform="translate(-804.251 -1369.301)" fill="#fff"/>
    </g>
    <g id="Grupo_140722" data-name="Grupo 140722" transform="translate(379.233 459.172)">
      <path id="Trazado_201653" data-name="Trazado 201653" d="M2082.807,1372.513q-2.32-.207-6.278,1.633a12.572,12.572,0,0,0-5.048,3.657,4.107,4.107,0,0,0-.488,4.158,4.043,4.043,0,0,0,.892,1.393,3.332,3.332,0,0,0,1.328.78l-.772.558.455,1.118,6.781-3.152-1.525-3.751-1.3.6.913,2.246-1.7.79a3.28,3.28,0,0,1-2.261.325,2.1,2.1,0,0,1-1.415-1.336,2.662,2.662,0,0,1,.536-2.9,12.9,12.9,0,0,1,4.322-2.842,14.86,14.86,0,0,1,5.179-1.65,2.2,2.2,0,0,1,2.315,1.421,2.152,2.152,0,0,1-.161,2.019,5.291,5.291,0,0,1-2.135,1.793l.624,1.536a5.8,5.8,0,0,0,2.911-2.57,3.914,3.914,0,0,0,.068-3.361A3.656,3.656,0,0,0,2082.807,1372.513Z" transform="translate(-2070.642 -1372.492)" fill="#fff"/>
      <path id="Trazado_201654" data-name="Trazado 201654" d="M2115.988,1460.469a12.632,12.632,0,0,0-6.129,1.094,13.333,13.333,0,0,0-5.4,3.306,3.92,3.92,0,0,0-.869,4.021,3.56,3.56,0,0,0,3.054,2.524,12.594,12.594,0,0,0,6.137-1.085,13.157,13.157,0,0,0,5.382-3.313,3.94,3.94,0,0,0,.859-4.017A3.549,3.549,0,0,0,2115.988,1460.469Zm.816,5.646a14.725,14.725,0,0,1-4.6,2.475,14.162,14.162,0,0,1-5.03,1.2,2.12,2.12,0,0,1-2.177-1.437,2.369,2.369,0,0,1,.886-2.63,16.5,16.5,0,0,1,4.9-2.577,12.64,12.64,0,0,1,4.75-1.088,2.123,2.123,0,0,1,2.118,1.466A2.36,2.36,0,0,1,2116.8,1466.115Z" transform="translate(-2099.557 -1449.451)" fill="#fff"/>
      <path id="Trazado_201655" data-name="Trazado 201655" d="M2143.608,1551.189a12.586,12.586,0,0,0-6.187.61,13.158,13.158,0,0,0-5.608,2.874,3.9,3.9,0,0,0-1.143,3.942,3.607,3.607,0,0,0,2.874,2.756,12.55,12.55,0,0,0,6.2-.6,12.991,12.991,0,0,0,5.594-2.882,3.916,3.916,0,0,0,1.132-3.939A3.6,3.6,0,0,0,2143.608,1551.189Zm.427,5.695a14.548,14.548,0,0,1-4.756,2.108,14.086,14.086,0,0,1-5.1.8,2.148,2.148,0,0,1-2.073-1.6,2.351,2.351,0,0,1,1.065-2.554,16.3,16.3,0,0,1,5.062-2.187,12.581,12.581,0,0,1,4.812-.712,2.149,2.149,0,0,1,2.012,1.627A2.342,2.342,0,0,1,2144.035,1556.884Z" transform="translate(-2123.553 -1528.786)" fill="#fff"/>
      <path id="Trazado_201656" data-name="Trazado 201656" d="M2163.726,1639.747l-15.5,3.134.544,3.078a4.728,4.728,0,0,0,2.579,3.821q2.068.932,6.172.1,4.062-.821,5.664-2.5a4.979,4.979,0,0,0,1.091-4.562Zm-1.666,6.493q-1.222,1.221-4.791,1.942-3.623.732-5.187.069a3.648,3.648,0,0,1-1.98-3.014c-.017-.1-.033-.21-.049-.338s-.036-.325-.061-.591l12.657-2.558q.1.386.146.579t.073.35A3.817,3.817,0,0,1,2162.06,1646.24Z" transform="translate(-2139.186 -1606.469)" fill="#fff"/>
    </g>
    <path id="Trazado_201657" data-name="Trazado 201657" d="M1411.821,1696.009h0q-.227-.008-.454-.008a13.447,13.447,0,0,0-9.6,4.091,15.389,15.389,0,0,0-4.358,10.835h27.921a15.433,15.433,0,0,0-3.9-10.35A13.531,13.531,0,0,0,1411.821,1696.009Z" transform="translate(-1096.576 -1196.546)" fill="#49263e"/>
    <path id="Trazado_201658" data-name="Trazado 201658" d="M1456.013,1004.917l6.445-3.445,17.13-111.231-27.966,107.164Z" transform="translate(-1144.479 -491.119)" fill="#49263e"/>
    <g id="Grupo_140932" data-name="Grupo 140932" transform="translate(247.893 399.485)">
      <g id="Grupo_140723" data-name="Grupo 140723" transform="translate(2.891 102.476)">
        <path id="Trazado_201659" data-name="Trazado 201659" d="M971.788,1716.134c-.145.038-3.274,1.156-3.274,1.156a7.492,7.492,0,0,0-.821,2.292c.036.659.362,2.209,1.015,2.635s.761.736,1.341.5a13.431,13.431,0,0,0,1.526-.818l4.018-4.648S971.932,1716.095,971.788,1716.134Z" transform="translate(-967.691 -1716.133)" fill="#ffb294"/>
      </g>
      <g id="Grupo_140736" data-name="Grupo 140736" transform="translate(34.861 105.686)">
        <g id="Grupo_140735" data-name="Grupo 140735">
          <g id="Grupo_140734" data-name="Grupo 140734">
            <g id="Grupo_140733" data-name="Grupo 140733">
              <g id="Grupo_140732" data-name="Grupo 140732">
                <g id="Grupo_140731" data-name="Grupo 140731">
                  <g id="Grupo_140730" data-name="Grupo 140730">
                    <g id="Grupo_140729" data-name="Grupo 140729">
                      <g id="Grupo_140728" data-name="Grupo 140728">
                        <g id="Grupo_140727" data-name="Grupo 140727">
                          <g id="Grupo_140726" data-name="Grupo 140726">
                            <g id="Grupo_140725" data-name="Grupo 140725">
                              <g id="Grupo_140724" data-name="Grupo 140724">
                                <path id="Trazado_201660" data-name="Trazado 201660" d="M1242.21,1747.718l.017,1.565,5.253-.019,2.9-6.62-6.1-.734Z" transform="translate(-1242.21 -1741.911)" fill="#ffb294"/>
                              </g>
                            </g>
                          </g>
                        </g>
                      </g>
                    </g>
                  </g>
                </g>
              </g>
            </g>
          </g>
        </g>
      </g>
      <g id="Grupo_140787" data-name="Grupo 140787" transform="translate(34.506 109.913)">
        <g id="Grupo_140740" data-name="Grupo 140740" transform="translate(0.049 0.883)">
          <g id="Grupo_140739" data-name="Grupo 140739">
            <g id="Grupo_140738" data-name="Grupo 140738">
              <g id="Grupo_140737" data-name="Grupo 140737">
                <path id="Trazado_201661" data-name="Trazado 201661" d="M1253.055,1785.652h-.915l-4.249-2.706-2.323,2.706h-5.73a.268.268,0,0,0-.259.277v.928a.184.184,0,0,0,.177.19h13.323a.686.686,0,0,0,.64-.835A.679.679,0,0,0,1253.055,1785.652Z" transform="translate(-1239.579 -1782.946)" fill="#fec786"/>
              </g>
            </g>
          </g>
        </g>
        <g id="Grupo_140744" data-name="Grupo 140744" transform="translate(0.358 0.048)">
          <g id="Grupo_140743" data-name="Grupo 140743">
            <g id="Grupo_140742" data-name="Grupo 140742">
              <g id="Grupo_140741" data-name="Grupo 140741">
                <path id="Trazado_201662" data-name="Trazado 201662" d="M1253.719,1778.543l-4.865-2.307a3.143,3.143,0,0,1-4.181.354,1.971,1.971,0,0,0-2.434.68v2.515h13.176C1255.053,1779.02,1253.719,1778.543,1253.719,1778.543Z" transform="translate(-1242.238 -1776.236)" fill="#3aa1c9"/>
              </g>
            </g>
          </g>
        </g>
        <g id="Grupo_140750" data-name="Grupo 140750" transform="translate(0.31 1.082)">
          <g id="Grupo_140749" data-name="Grupo 140749">
            <g id="Grupo_140748" data-name="Grupo 140748">
              <g id="Grupo_140747" data-name="Grupo 140747">
                <g id="Grupo_140746" data-name="Grupo 140746">
                  <g id="Grupo_140745" data-name="Grupo 140745">
                    <rect id="Rectángulo_42589" data-name="Rectángulo 42589" width="0.098" height="2.502"/>
                  </g>
                </g>
              </g>
            </g>
          </g>
        </g>
        <g id="Grupo_140756" data-name="Grupo 140756" transform="translate(2.765 0.359)">
          <g id="Grupo_140755" data-name="Grupo 140755">
            <g id="Grupo_140754" data-name="Grupo 140754">
              <g id="Grupo_140753" data-name="Grupo 140753">
                <g id="Grupo_140752" data-name="Grupo 140752">
                  <g id="Grupo_140751" data-name="Grupo 140751">
                    <path id="Trazado_201663" data-name="Trazado 201663" d="M1262.958,1778.736l-.055.086a3.433,3.433,0,0,0,2.019.664,2.206,2.206,0,0,0,.3-.017l-.014-.1A3.275,3.275,0,0,1,1262.958,1778.736Z" transform="translate(-1262.903 -1778.736)"/>
                  </g>
                </g>
              </g>
            </g>
          </g>
        </g>
        <g id="Grupo_140762" data-name="Grupo 140762" transform="translate(0.921 2.593)">
          <g id="Grupo_140761" data-name="Grupo 140761" transform="translate(0 0)">
            <g id="Grupo_140760" data-name="Grupo 140760" transform="translate(0)">
              <g id="Grupo_140759" data-name="Grupo 140759">
                <g id="Grupo_140758" data-name="Grupo 140758">
                  <g id="Grupo_140757" data-name="Grupo 140757">
                    <path id="Trazado_201815" data-name="Trazado 201815" d="M0,0,.1,0,.078.763l-.1,0Z" transform="translate(0 0.087) rotate(-56.009)"/>
                  </g>
                </g>
              </g>
            </g>
          </g>
        </g>
        <g id="Grupo_140768" data-name="Grupo 140768" transform="translate(1.367 2.466)">
          <g id="Grupo_140767" data-name="Grupo 140767" transform="translate(0 0)">
            <g id="Grupo_140766" data-name="Grupo 140766">
              <g id="Grupo_140765" data-name="Grupo 140765">
                <g id="Grupo_140764" data-name="Grupo 140764">
                  <g id="Grupo_140763" data-name="Grupo 140763">
                    <path id="Trazado_201816" data-name="Trazado 201816" d="M0,0,.1,0,.078.763l-.1,0Z" transform="translate(0 0.086) rotate(-56.007)"/>
                  </g>
                </g>
              </g>
            </g>
          </g>
        </g>
        <g id="Grupo_140780" data-name="Grupo 140780" transform="translate(0 3.541)">
          <g id="Grupo_140779" data-name="Grupo 140779">
            <g id="Grupo_140778" data-name="Grupo 140778">
              <g id="Grupo_140777" data-name="Grupo 140777">
                <g id="Grupo_140776" data-name="Grupo 140776">
                  <g id="Grupo_140775" data-name="Grupo 140775">
                    <g id="Grupo_140774" data-name="Grupo 140774">
                      <g id="Grupo_140773" data-name="Grupo 140773">
                        <g id="Grupo_140772" data-name="Grupo 140772">
                          <g id="Grupo_140771" data-name="Grupo 140771">
                            <g id="Grupo_140770" data-name="Grupo 140770">
                              <g id="Grupo_140769" data-name="Grupo 140769">
                                <path id="Trazado_201664" data-name="Trazado 201664" d="M1252.71,1804.294h-13.174a.39.39,0,0,0-.376.4v.7h.1v-.7a.289.289,0,0,1,.278-.3h13.174a.626.626,0,0,1,.6.645.664.664,0,0,1-.213.492l.063.079a.77.77,0,0,0,.247-.571A.727.727,0,0,0,1252.71,1804.294Z" transform="translate(-1239.161 -1804.294)"/>
                              </g>
                            </g>
                          </g>
                        </g>
                      </g>
                    </g>
                  </g>
                </g>
              </g>
            </g>
          </g>
        </g>
        <g id="Grupo_140786" data-name="Grupo 140786" transform="translate(6.954)">
          <g id="Grupo_140785" data-name="Grupo 140785">
            <g id="Grupo_140784" data-name="Grupo 140784">
              <g id="Grupo_140783" data-name="Grupo 140783">
                <g id="Grupo_140782" data-name="Grupo 140782">
                  <g id="Grupo_140781" data-name="Grupo 140781">
                    <path id="Trazado_201665" data-name="Trazado 201665" d="M1304.241,1778.361c-.979-.446-5.283-2.487-5.326-2.508l-.04.1c.043.021,4.348,2.062,5.327,2.509a2.423,2.423,0,0,1,1.224,1.012l.088-.045A2.468,2.468,0,0,0,1304.241,1778.361Z" transform="translate(-1298.875 -1775.853)"/>
                  </g>
                </g>
              </g>
            </g>
          </g>
        </g>
      </g>
      <g id="Grupo_140788" data-name="Grupo 140788" transform="translate(33.808 59.504)">
        <path id="Trazado_201666" data-name="Trazado 201666" d="M1246.1,1371.027l-12.943,4v4.305s9.154,8.547,16.764,10.717L1235.2,1417.49a11.546,11.546,0,0,0,8.166,3.515s20.142-31.387,20.149-35.057C1263.517,1383.319,1246.1,1371.027,1246.1,1371.027Z" transform="translate(-1233.161 -1371.027)" fill="#455a64"/>
      </g>
      <g id="Grupo_140789" data-name="Grupo 140789" transform="translate(2.731 50.013)">
        <path id="Trazado_201667" data-name="Trazado 201667" d="M995.078,1295.38l-28.763,51.973a30.867,30.867,0,0,0,7.838,5s4.027-6.3,10.57-17.068,12.728-15.453,18.049-20.682a69.217,69.217,0,0,0,8.629-10.3l-7.815-9.491Z" transform="translate(-966.315 -1294.808)" fill="#455a64"/>
      </g>
      <g id="Grupo_140790" data-name="Grupo 140790" transform="translate(0.669 103.598)">
        <path id="Trazado_201668" data-name="Trazado 201668" d="M957.274,1734a17.46,17.46,0,0,0-3.024-1.21l.463-3c-2.746-.864-3.006-4.648-3.006-4.648l-2.491.32a.74.74,0,0,0-.563.994l3.177,8.97h5.444S958.041,1734.429,957.274,1734Z" transform="translate(-948.608 -1725.14)" fill="#3aa1c9"/>
      </g>
      <g id="Grupo_140791" data-name="Grupo 140791" transform="translate(0.058 104.395)">
        <path id="Trazado_201669" data-name="Trazado 201669" d="M952.779,1741.225a.365.365,0,0,0-.324-.2h-4.7a.8.8,0,0,1-.75-.553l-3.034-8.678a.362.362,0,0,0-.3-.255.269.269,0,0,0-.181.05.336.336,0,0,0-.1.372l3.006,9.312a.931.931,0,0,0,.872.661H952.5a.377.377,0,0,0,.364-.492A.924.924,0,0,0,952.779,1741.225Z" transform="translate(-943.366 -1731.538)" fill="#fec786"/>
      </g>
      <g id="Grupo_140792" data-name="Grupo 140792" transform="translate(0 104.332)">
        <path id="Trazado_201670" data-name="Trazado 201670" d="M952.388,1740.757a.421.421,0,0,0-.375-.232h-4.7a.75.75,0,0,1-.7-.513l-3.034-8.678a.419.419,0,0,0-.353-.294.314.314,0,0,0-.217.061.4.4,0,0,0-.123.443l.11-.04a.273.273,0,0,1,.079-.3.213.213,0,0,1,.145-.04.3.3,0,0,1,.252.214l3.034,8.678a.867.867,0,0,0,.8.593h4.7a.306.306,0,0,1,.273.168.861.861,0,0,1,.075.2.355.355,0,0,1-.05.293.31.31,0,0,1-.258.122v.124a.42.42,0,0,0,.349-.169.483.483,0,0,0,.072-.4A.994.994,0,0,0,952.388,1740.757Z" transform="translate(-942.866 -1731.037)" fill="#1d1d1b"/>
      </g>
      <g id="Grupo_140793" data-name="Grupo 140793" transform="translate(3.326 103.633)">
        <path id="Trazado_201671" data-name="Trazado 201671" d="M972.53,1726.637l-.136-.29-.22-.551-.3-.376-.445.852s.744,1.743.753,1.753.156.409.156.409l.407-.249.014-.351-.12-.673Z" transform="translate(-971.426 -1725.419)" fill="#3aa1c9"/>
      </g>
      <g id="Grupo_140794" data-name="Grupo 140794" transform="translate(4.657 106.304)">
        <path id="Trazado_201672" data-name="Trazado 201672" d="M982.972,1747.64a1.834,1.834,0,0,0,.447.677l.316.195.586.212.547.073.024-.308-2.042-1.62Z" transform="translate(-982.851 -1746.869)" fill="#fe9f73"/>
      </g>
      <g id="Grupo_140795" data-name="Grupo 140795" transform="translate(6.297 111.184)">
        <path id="Trazado_201673" data-name="Trazado 201673" d="M996.935,1786.18c.027.008,2.684.755,3.224,1.39l.086-.083c-.563-.661-3.17-1.4-3.281-1.426Z" transform="translate(-996.935 -1786.06)" fill="#1d1d1b"/>
      </g>
      <g id="Grupo_140796" data-name="Grupo 140796" transform="translate(3.734 103.548)">
        <path id="Trazado_201674" data-name="Trazado 201674" d="M975.92,1727.658c-.168-2.335-.889-2.9-.92-2.924l-.067.1c.007.006.708.567.871,2.832.111,1.541,1.248,1.7,2.078,1.815l.024,0-.449,2.909-.839.647.068.1.878-.677.476-3.086-.143-.02C977.062,1729.243,976.023,1729.1,975.92,1727.658Z" transform="translate(-974.933 -1724.734)" fill="#1d1d1b"/>
      </g>
      <g id="Grupo_140903" data-name="Grupo 140903" transform="translate(43.861 0)">
        <g id="Grupo_140801" data-name="Grupo 140801" transform="translate(3.252 0.845)">
          <g id="Grupo_140800" data-name="Grupo 140800">
            <g id="Grupo_140799" data-name="Grupo 140799">
              <g id="Grupo_140798" data-name="Grupo 140798">
                <g id="Grupo_140797" data-name="Grupo 140797">
                  <path id="Trazado_201675" data-name="Trazado 201675" d="M1353.234,901.116a6.914,6.914,0,0,0-4.48-1.149s-1.212,1.051-1.337,1.179,1.029-.049,1.029-.049l5.53,5.007.381-1.323A3.455,3.455,0,0,0,1353.234,901.116Z" transform="translate(-1347.408 -899.943)" fill="#ffb294"/>
                </g>
              </g>
            </g>
          </g>
        </g>
        <g id="Grupo_140809" data-name="Grupo 140809" transform="translate(0 1.187)">
          <g id="Grupo_140808" data-name="Grupo 140808">
            <g id="Grupo_140807" data-name="Grupo 140807">
              <g id="Grupo_140806" data-name="Grupo 140806">
                <g id="Grupo_140805" data-name="Grupo 140805">
                  <g id="Grupo_140804" data-name="Grupo 140804">
                    <g id="Grupo_140803" data-name="Grupo 140803">
                      <g id="Grupo_140802" data-name="Grupo 140802">
                        <path id="Trazado_201676" data-name="Trazado 201676" d="M1321.5,909.422l-.449,1.773a30.13,30.13,0,0,0-1.556,4.216,3.47,3.47,0,0,0,2.383,3.241,5.009,5.009,0,0,0,1.614.253c.974-.008,1.033,2.358,1.2,1.332l1.23-5.89c1.7.289,2.2-1.73,2.2-1.73l1.609-5.578-6.061-4.347Z" transform="translate(-1319.488 -902.693)" fill="#ffb294"/>
                      </g>
                    </g>
                  </g>
                </g>
              </g>
            </g>
          </g>
        </g>
        <g id="Grupo_140817" data-name="Grupo 140817" transform="translate(5.111 6.019)">
          <g id="Grupo_140816" data-name="Grupo 140816">
            <g id="Grupo_140815" data-name="Grupo 140815">
              <g id="Grupo_140814" data-name="Grupo 140814">
                <g id="Grupo_140813" data-name="Grupo 140813">
                  <g id="Grupo_140812" data-name="Grupo 140812">
                    <g id="Grupo_140811" data-name="Grupo 140811">
                      <g id="Grupo_140810" data-name="Grupo 140810">
                        <path id="Trazado_201677" data-name="Trazado 201677" d="M1363.408,942.011a.091.091,0,0,0-.011.122.08.08,0,0,0,.053.031.078.078,0,0,0,.061-.019c.046-.041,1.14-.985,1.955-.1a.077.077,0,0,0,.115,0,.091.091,0,0,0,0-.123C1364.663,940.924,1363.42,942,1363.408,942.011Z" transform="translate(-1363.378 -941.499)" fill="#4c222e"/>
                      </g>
                    </g>
                  </g>
                </g>
              </g>
            </g>
          </g>
        </g>
        <g id="Grupo_140825" data-name="Grupo 140825" transform="translate(8.802 6.6)">
          <g id="Grupo_140824" data-name="Grupo 140824">
            <g id="Grupo_140823" data-name="Grupo 140823">
              <g id="Grupo_140822" data-name="Grupo 140822">
                <g id="Grupo_140821" data-name="Grupo 140821">
                  <g id="Grupo_140820" data-name="Grupo 140820">
                    <g id="Grupo_140819" data-name="Grupo 140819">
                      <g id="Grupo_140818" data-name="Grupo 140818">
                        <path id="Trazado_201678" data-name="Trazado 201678" d="M1395.148,946.159a.084.084,0,0,0-.083.085.09.09,0,0,0,.027.066.079.079,0,0,0,.053.022c.009,0,.923.027.988.563a.082.082,0,0,0,.091.075.086.086,0,0,0,.07-.1C1396.211,946.189,1395.191,946.16,1395.148,946.159Z" transform="translate(-1395.065 -946.159)" fill="#4c222e"/>
                      </g>
                    </g>
                  </g>
                </g>
              </g>
            </g>
          </g>
        </g>
        <g id="Grupo_140833" data-name="Grupo 140833" transform="translate(5.981 7.197)">
          <g id="Grupo_140832" data-name="Grupo 140832">
            <g id="Grupo_140831" data-name="Grupo 140831">
              <g id="Grupo_140830" data-name="Grupo 140830">
                <g id="Grupo_140829" data-name="Grupo 140829">
                  <g id="Grupo_140828" data-name="Grupo 140828">
                    <g id="Grupo_140827" data-name="Grupo 140827">
                      <g id="Grupo_140826" data-name="Grupo 140826">
                        <path id="Trazado_201679" data-name="Trazado 201679" d="M1371.164,950.965a.242.242,0,0,0-.305.172.264.264,0,0,0,.161.326.241.241,0,0,0,.3-.172A.264.264,0,0,0,1371.164,950.965Z" transform="translate(-1370.848 -950.954)"/>
                      </g>
                    </g>
                  </g>
                </g>
              </g>
            </g>
          </g>
        </g>
        <g id="Grupo_140841" data-name="Grupo 140841" transform="translate(8.53 7.764)">
          <g id="Grupo_140840" data-name="Grupo 140840">
            <g id="Grupo_140839" data-name="Grupo 140839">
              <g id="Grupo_140838" data-name="Grupo 140838">
                <g id="Grupo_140837" data-name="Grupo 140837">
                  <g id="Grupo_140836" data-name="Grupo 140836">
                    <g id="Grupo_140835" data-name="Grupo 140835">
                      <g id="Grupo_140834" data-name="Grupo 140834">
                        <path id="Trazado_201680" data-name="Trazado 201680" d="M1393.048,955.522a.242.242,0,0,0-.3.172.265.265,0,0,0,.161.326.242.242,0,0,0,.3-.172A.265.265,0,0,0,1393.048,955.522Z" transform="translate(-1392.733 -955.511)"/>
                      </g>
                    </g>
                  </g>
                </g>
              </g>
            </g>
          </g>
        </g>
        <g id="Grupo_140849" data-name="Grupo 140849" transform="translate(0.518 0.614)">
          <g id="Grupo_140848" data-name="Grupo 140848">
            <g id="Grupo_140847" data-name="Grupo 140847">
              <g id="Grupo_140846" data-name="Grupo 140846">
                <g id="Grupo_140845" data-name="Grupo 140845">
                  <g id="Grupo_140844" data-name="Grupo 140844">
                    <g id="Grupo_140843" data-name="Grupo 140843">
                      <g id="Grupo_140842" data-name="Grupo 140842">
                        <path id="Trazado_201681" data-name="Trazado 201681" d="M1325.067,899.188c-1.033,1.68-.461,2.937-.6,3.493s-1.56,4.15.955,4.676l2.424-5.91-.144-2.719.343-.469A2.486,2.486,0,0,0,1325.067,899.188Z" transform="translate(-1323.939 -898.091)" fill="#33192c"/>
                      </g>
                    </g>
                  </g>
                </g>
              </g>
            </g>
          </g>
        </g>
        <g id="Grupo_140857" data-name="Grupo 140857" transform="translate(1.697 4.788)">
          <g id="Grupo_140856" data-name="Grupo 140856">
            <g id="Grupo_140855" data-name="Grupo 140855">
              <g id="Grupo_140854" data-name="Grupo 140854">
                <g id="Grupo_140853" data-name="Grupo 140853">
                  <g id="Grupo_140852" data-name="Grupo 140852">
                    <g id="Grupo_140851" data-name="Grupo 140851">
                      <g id="Grupo_140850" data-name="Grupo 140850">
                        <path id="Trazado_201682" data-name="Trazado 201682" d="M1335.955,931.678a1.448,1.448,0,0,0-1.829,1.034,1.586,1.586,0,0,0,.967,1.956,1.448,1.448,0,0,0,1.829-1.034A1.586,1.586,0,0,0,1335.955,931.678Z" transform="translate(-1334.061 -931.608)" fill="#ffb294"/>
                      </g>
                    </g>
                  </g>
                </g>
              </g>
            </g>
          </g>
        </g>
        <g id="Grupo_140865" data-name="Grupo 140865" transform="translate(2.379 5.451)">
          <g id="Grupo_140864" data-name="Grupo 140864">
            <g id="Grupo_140863" data-name="Grupo 140863">
              <g id="Grupo_140862" data-name="Grupo 140862">
                <g id="Grupo_140861" data-name="Grupo 140861">
                  <g id="Grupo_140860" data-name="Grupo 140860">
                    <g id="Grupo_140859" data-name="Grupo 140859">
                      <g id="Grupo_140858" data-name="Grupo 140858">
                        <path id="Trazado_201683" data-name="Trazado 201683" d="M1340.275,936.932a.042.042,0,0,0-.04.044.042.042,0,0,0,.042.043.88.88,0,0,1,.608.247.731.731,0,0,1,.176.461.666.666,0,0,0-.726-.27.608.608,0,0,0-.417.61.653.653,0,0,0,.414.648l.008,0a.04.04,0,0,0,.05-.03.044.044,0,0,0-.027-.054l-.008,0a.562.562,0,0,1-.356-.563.53.53,0,0,1,.357-.528.629.629,0,0,1,.711.344l.069.138.008-.156a.883.883,0,0,0-.2-.662A.946.946,0,0,0,1340.275,936.932Z" transform="translate(-1339.917 -936.932)" fill="#f07162"/>
                      </g>
                    </g>
                  </g>
                </g>
              </g>
            </g>
          </g>
        </g>
        <g id="Grupo_140873" data-name="Grupo 140873" transform="translate(3.029 9.903)">
          <g id="Grupo_140872" data-name="Grupo 140872">
            <g id="Grupo_140871" data-name="Grupo 140871">
              <g id="Grupo_140870" data-name="Grupo 140870">
                <g id="Grupo_140869" data-name="Grupo 140869">
                  <g id="Grupo_140868" data-name="Grupo 140868">
                    <g id="Grupo_140867" data-name="Grupo 140867">
                      <g id="Grupo_140866" data-name="Grupo 140866">
                        <path id="Trazado_201684" data-name="Trazado 201684" d="M1345.61,972.688a4.394,4.394,0,0,0,2.828,5.169l.465-2.229A3.932,3.932,0,0,1,1345.61,972.688Z" transform="translate(-1345.498 -972.688)" fill="#f07162"/>
                      </g>
                    </g>
                  </g>
                </g>
              </g>
            </g>
          </g>
        </g>
        <g id="Grupo_140881" data-name="Grupo 140881" transform="translate(6.767 7.306)">
          <g id="Grupo_140880" data-name="Grupo 140880">
            <g id="Grupo_140879" data-name="Grupo 140879">
              <g id="Grupo_140878" data-name="Grupo 140878">
                <g id="Grupo_140877" data-name="Grupo 140877">
                  <g id="Grupo_140876" data-name="Grupo 140876">
                    <g id="Grupo_140875" data-name="Grupo 140875">
                      <g id="Grupo_140874" data-name="Grupo 140874">
                        <path id="Trazado_201685" data-name="Trazado 201685" d="M1378.857,951.832a.041.041,0,0,0-.047.036l-.319,2.04-.858.019a.042.042,0,0,0-.04.044.043.043,0,0,0,.029.041l.013,0,.925-.02.33-2.111A.043.043,0,0,0,1378.857,951.832Z" transform="translate(-1377.594 -951.831)" fill="#f07162"/>
                      </g>
                    </g>
                  </g>
                </g>
              </g>
            </g>
          </g>
        </g>
        <g id="Grupo_140887" data-name="Grupo 140887" transform="translate(1.369 7.412)">
          <g id="Grupo_140886" data-name="Grupo 140886">
            <g id="Grupo_140885" data-name="Grupo 140885">
              <g id="Grupo_140884" data-name="Grupo 140884">
                <g id="Grupo_140883" data-name="Grupo 140883">
                  <g id="Grupo_140882" data-name="Grupo 140882">
                    <path id="Trazado_201686" data-name="Trazado 201686" d="M1331.24,955.407l.9.385.812-2.816-.631-.293Z" transform="translate(-1331.24 -952.684)" fill="#ffb294"/>
                  </g>
                </g>
              </g>
            </g>
          </g>
        </g>
        <g id="Grupo_140892" data-name="Grupo 140892" transform="translate(2.434)">
          <g id="Grupo_140891" data-name="Grupo 140891">
            <g id="Grupo_140890" data-name="Grupo 140890">
              <g id="Grupo_140889" data-name="Grupo 140889">
                <g id="Grupo_140888" data-name="Grupo 140888">
                  <path id="Trazado_201687" data-name="Trazado 201687" d="M1348.6,895.563s.871-2.027-1.1-1.992-5.273-1.142-6.72.327,1.573,3.317,1.573,3.317,6.046,1.581,6.841.215A1.2,1.2,0,0,0,1348.6,895.563Z" transform="translate(-1340.387 -893.158)" fill="#33192c"/>
                </g>
              </g>
            </g>
          </g>
        </g>
        <g id="Grupo_140896" data-name="Grupo 140896" transform="translate(3.068 2.819)">
          <g id="Grupo_140895" data-name="Grupo 140895">
            <g id="Grupo_140894" data-name="Grupo 140894">
              <g id="Grupo_140893" data-name="Grupo 140893">
                <path id="Trazado_201688" data-name="Trazado 201688" d="M1347.132,915.8a9.009,9.009,0,0,0-1.291.3c.166.024,1.318.508,1.318.508l-.4,1.37a3.074,3.074,0,0,1-.2,1.94s.322.262.478-.038.42-2.654,1.263-2.82S1347.205,915.782,1347.132,915.8Z" transform="translate(-1345.828 -915.795)" fill="#33192c"/>
              </g>
            </g>
          </g>
        </g>
        <g id="Grupo_140902" data-name="Grupo 140902" transform="translate(6.13 9.784)">
          <g id="Grupo_140901" data-name="Grupo 140901">
            <g id="Grupo_140900" data-name="Grupo 140900">
              <g id="Grupo_140899" data-name="Grupo 140899">
                <g id="Grupo_140898" data-name="Grupo 140898">
                  <g id="Grupo_140897" data-name="Grupo 140897">
                    <path id="Trazado_201689" data-name="Trazado 201689" d="M1372.656,972.609c.528.186.914-.369.914-.369s-1.42-.5-1.444-.509C1372.126,971.731,1372.127,972.422,1372.656,972.609Z" transform="translate(-1372.126 -971.731)" fill="#fbfdfc"/>
                  </g>
                </g>
              </g>
            </g>
          </g>
        </g>
      </g>
      <g id="Grupo_140925" data-name="Grupo 140925" transform="translate(73.287 28.528)">
        <g id="Grupo_140906" data-name="Grupo 140906">
          <g id="Grupo_140905" data-name="Grupo 140905">
            <g id="Grupo_140904" data-name="Grupo 140904">
              <path id="Trazado_201690" data-name="Trazado 201690" d="M1581.448,1125.47s.511-.762-.177-1.139c0,0,.571-.832-.636-1.13a.739.739,0,0,0-.449-.788,4.807,4.807,0,0,0-2.124-.052c-.22.1-2.893,2.035-2.893,2.035s-2.829,3-3.014,3.127l2.4,5.25a23.22,23.22,0,0,0,3.682-2.681s0,0,0,0a1.241,1.241,0,0,0,.138-.171l.005-.006.023-.041a4.7,4.7,0,0,1,.477-.725c.5-.86.913-1.822,1.127-2.056a2.4,2.4,0,0,1,1.142-.4.7.7,0,0,0,.581-.648A.64.64,0,0,0,1581.448,1125.47Z" transform="translate(-1572.155 -1122.266)" fill="#ffb294"/>
            </g>
          </g>
        </g>
        <g id="Grupo_140912" data-name="Grupo 140912" transform="translate(5.45 0.855)">
          <g id="Grupo_140911" data-name="Grupo 140911">
            <g id="Grupo_140910" data-name="Grupo 140910">
              <g id="Grupo_140909" data-name="Grupo 140909">
                <g id="Grupo_140908" data-name="Grupo 140908">
                  <g id="Grupo_140907" data-name="Grupo 140907">
                    <path id="Trazado_201691" data-name="Trazado 201691" d="M1621.982,1129.133a18.684,18.684,0,0,0-1.983.168,5.8,5.8,0,0,0-1.01.577.083.083,0,0,0-.023.111.074.074,0,0,0,.051.035.072.072,0,0,0,.054-.012,5.825,5.825,0,0,1,.968-.557,17.137,17.137,0,0,1,1.948-.162.079.079,0,0,0,.073-.083A.077.077,0,0,0,1621.982,1129.133Z" transform="translate(-1618.954 -1129.133)" fill="#f07162"/>
                  </g>
                </g>
              </g>
            </g>
          </g>
        </g>
        <g id="Grupo_140918" data-name="Grupo 140918" transform="translate(6.302 1.985)">
          <g id="Grupo_140917" data-name="Grupo 140917">
            <g id="Grupo_140916" data-name="Grupo 140916">
              <g id="Grupo_140915" data-name="Grupo 140915">
                <g id="Grupo_140914" data-name="Grupo 140914">
                  <g id="Grupo_140913" data-name="Grupo 140913">
                    <path id="Trazado_201692" data-name="Trazado 201692" d="M1629.074,1138.21a15.058,15.058,0,0,0-1.848.345,5.28,5.28,0,0,0-.924.542.083.083,0,0,0-.02.111.075.075,0,0,0,.05.033.072.072,0,0,0,.056-.013,5.249,5.249,0,0,1,.89-.523,15.419,15.419,0,0,1,1.815-.336.08.08,0,0,0,.066-.089A.076.076,0,0,0,1629.074,1138.21Z" transform="translate(-1626.268 -1138.209)" fill="#f07162"/>
                  </g>
                </g>
              </g>
            </g>
          </g>
        </g>
        <g id="Grupo_140924" data-name="Grupo 140924" transform="translate(6.851 3.124)">
          <g id="Grupo_140923" data-name="Grupo 140923">
            <g id="Grupo_140922" data-name="Grupo 140922">
              <g id="Grupo_140921" data-name="Grupo 140921">
                <g id="Grupo_140920" data-name="Grupo 140920">
                  <g id="Grupo_140919" data-name="Grupo 140919">
                    <path id="Trazado_201693" data-name="Trazado 201693" d="M1633.415,1147.353a9.683,9.683,0,0,0-1.663.3,3.72,3.72,0,0,0-.742.447.084.084,0,0,0-.016.112.073.073,0,0,0,.106.016,3.62,3.62,0,0,1,.707-.426,9.867,9.867,0,0,1,1.62-.288.08.08,0,0,0,.069-.088A.076.076,0,0,0,1633.415,1147.353Z" transform="translate(-1630.98 -1147.353)" fill="#f07162"/>
                  </g>
                </g>
              </g>
            </g>
          </g>
        </g>
      </g>
      <g id="Grupo_140926" data-name="Grupo 140926" transform="translate(42.218 11.493)">
        <path id="Trazado_201694" data-name="Trazado 201694" d="M1305.379,988.4l7.573,7.748.1-4.986-5.226-5.708Z" transform="translate(-1305.379 -985.456)" fill="#a5efed"/>
      </g>
      <g id="Grupo_140927" data-name="Grupo 140927" transform="translate(27.009 14.237)">
        <path id="Trazado_201695" data-name="Trazado 201695" d="M1195.032,1010.175c-2.8-4.151-5.925-2.251-5.925-2.251-4.533,2.743-14.32,42.783-14.32,42.783s5.924-.332,8.028-.165c6.084.481,8.359,6.006,15.528,3.627,0,0-1.842-10.889-1.025-13.214.263-.745,1.066-6.183,1.318-6.763-1.369-2.156-.233-8.343,1.1-15.75C1197.94,1015.068,1196.129,1011.8,1195.032,1010.175Z" transform="translate(-1174.787 -1007.49)" fill="#ff725e"/>
      </g>
      <g id="Grupo_140928" data-name="Grupo 140928" transform="translate(31.357 49.308)">
        <path id="Trazado_201696" data-name="Trazado 201696" d="M1230.176,1289.141h-.155c.005,3.013,1.108,10.769,1.221,11.556-2.694,1.189-6.194.5-10.4-2.035-3.778-2.279-8.673-1.644-8.722-1.638l.02.164c.048-.007,4.894-.634,8.626,1.617a15.393,15.393,0,0,0,7.67,2.623,7.011,7.011,0,0,0,2.924-.6l.055-.025-.009-.064C1231.392,1300.652,1230.181,1292.288,1230.176,1289.141Z" transform="translate(-1212.118 -1289.141)" fill="#1d1d1b"/>
      </g>
      <g id="Grupo_140929" data-name="Grupo 140929" transform="translate(39.486 21.129)">
        <path id="Trazado_201697" data-name="Trazado 201697" d="M1299.692,1075.354l-7.509-12.51-10.267,6.251s8.112,14.084,13.129,16.669,23.536-4.994,23.536-4.994l-.435-8.06Z" transform="translate(-1281.916 -1062.844)" fill="#ff725e"/>
      </g>
      <g id="Grupo_140930" data-name="Grupo 140930" transform="translate(39.42 27.337)">
        <path id="Trazado_201698" data-name="Trazado 201698" d="M1294.578,1129.339c-4.94-2.545-13.016-16.5-13.1-16.638l-.132.087c.081.141,8.181,14.135,13.161,16.7a6.747,6.747,0,0,0,3.014.55c6.948,0,19.939-5.278,20.583-5.542l-.055-.154C1317.868,1124.418,1299.507,1131.878,1294.578,1129.339Z" transform="translate(-1281.35 -1112.701)" fill="#1d1d1b"/>
      </g>
      <g id="Grupo_140931" data-name="Grupo 140931" transform="translate(49.557 20.846)">
        <path id="Trazado_201699" data-name="Trazado 201699" d="M1376.136,1073.275l-7.614-12.705-.13.089,7.667,12.794,15.873-2.274-.021-.164Z" transform="translate(-1368.392 -1060.57)" fill="#1d1d1b"/>
      </g>
    </g>
    <path id="Trazado_201700" data-name="Trazado 201700" d="M2064,678.657s.887-17.079-11.179-18.211c-13.838-1.3-14.006,15.482-14.006,15.482s-6.29-6.384-10.826,1.71c0,0-7.84-4.845-11.794,4.1a1.493,1.493,0,0,0-.1.9h53.543a2.552,2.552,0,0,0-.632-1.94C2068.106,679.683,2066.574,678.849,2064,678.657Z" transform="translate(-1643.186 -289.875)" fill="#fff"/>
    <path id="Trazado_201817" data-name="Trazado 201817" d="M2052.079,674.111s.667-12.833-8.4-13.683c-10.4-.975-10.523,11.632-10.523,11.632s-4.726-4.8-8.134,1.285c0,0-5.89-3.64-8.862,3.083a1.122,1.122,0,0,0-.074.679h40.229a1.917,1.917,0,0,0-.475-1.457A5.273,5.273,0,0,0,2052.079,674.111Z" transform="translate(-1677.089 -353.375)" fill="#fff"/>
    <path id="Trazado_201701" data-name="Trazado 201701" d="M468.657,694.681c-3.46-6.174-8.258-1.3-8.258-1.3s-.128-12.8-10.683-11.809c-9.2.863-8.527,13.891-8.527,13.891a5.354,5.354,0,0,0-3.819,1.563,1.948,1.948,0,0,0-.482,1.479h40.841a1.139,1.139,0,0,0-.076-.689C474.637,690.985,468.657,694.681,468.657,694.681Z" transform="translate(-247.914 -308.381)" fill="#fff"/>
    <path id="Trazado_201818" data-name="Trazado 201818" d="M479.715,699.263c-4.664-8.322-11.132-1.758-11.132-1.758s-.172-17.253-14.4-15.919c-12.406,1.163-11.494,18.724-11.494,18.724-2.649.2-4.224,1.055-5.147,2.107a2.626,2.626,0,0,0-.649,1.994h55.053a1.535,1.535,0,0,0-.1-.929C487.775,694.281,479.715,699.263,479.715,699.263Z" transform="translate(-238.855 -369.229)" fill="#fff"/>
    <path id="Trazado_201702" data-name="Trazado 201702" d="M1136.57,335.435s-1.583-5.23-6.393-4.315-3.109,8.523-3.109,8.523a3.644,3.644,0,0,0-2.628.435,1.327,1.327,0,0,0-.55,1.017h24.973a5.68,5.68,0,0,0,1.623-4.131,8.883,8.883,0,0,0-1.651-4.694C1144.328,325.426,1136.5,331.961,1136.57,335.435Z" transform="translate(-854.915)" fill="#fff"/>
  </g>
</svg>
