<svg xmlns="http://www.w3.org/2000/svg" width="609.699" height="707.018" viewBox="0 0 609.699 707.018">
  <g id="Grupo_145511" data-name="Grupo 145511" transform="translate(-39.075 35.58)">
    <path id="Trazado_210568" data-name="Trazado 210568" d="M559.149,554.364c41.962-48.8,72.5-95.564,72.5-164.969,0-153.98-144.968-424.975-298.947-424.975S68.871,218.705,68.871,372.685A277.7,277.7,0,0,0,136.2,554.364Z" transform="translate(16.068)" fill="#f8e8ac"/>
    <g id="Grupo_145511-2" data-name="Grupo 145511" transform="translate(49.394 492.835)">
      <path id="Trazado_210569" data-name="Trazado 210569" d="M137.808,437.528c-9.022-25.86-18.148-51.939-32.411-75.319s-34.255-44.163-59.619-54.5c8.652,32.877,17.166,67.538,39.442,93.217C99.507,417.4,118.346,427.7,137.808,437.528Z" transform="translate(-45.779 -307.712)" fill="#a4de78"/>
      <path id="Trazado_210570" data-name="Trazado 210570" d="M120.242,406.027c-5.732-10.705-11.624-21.331-17.9-31.73q-5.218-8.647-10.819-17.055c-8.035-12-17.183-23.915-29.928-30.714,5.052,13.345,10.105,26.7,15.714,39.819,4.4,10.293,9.182,20.518,15.8,29.546a113.862,113.862,0,0,0,19.064,19.772c3.545,2.963,7.21,5.777,10.927,8.517.049.037.1.083.154.122q3,1.552,6.025,3.08-2.219-6.361-4.472-12.727Q122.535,410.336,120.242,406.027Z" transform="translate(-37.25 -297.566)" fill="#7cb332"/>
    </g>
    <g id="Grupo_145512" data-name="Grupo 145512" transform="translate(39.075 570.547)">
      <path id="Trazado_210571" data-name="Trazado 210571" d="M131.778,403.7c-13.178-11.88-26.483-23.854-41.866-32.694S56.7,356.588,39.075,358.615c15.151,15.982,30.782,33.022,51.433,40.673C103.752,404.2,117.662,404.18,131.778,403.7Z" transform="translate(-39.075 -358.199)" fill="#a4de78"/>
      <path id="Trazado_210572" data-name="Trazado 210572" d="M111.99,391.133c-6.59-4.3-13.245-8.5-20.047-12.451q-5.657-3.288-11.458-6.32c-8.3-4.318-17.209-8.235-26.566-8.129,7.027,6.008,14.055,12.019,21.328,17.728,5.7,4.476,11.6,8.8,18.176,11.863a73.689,73.689,0,0,0,16.987,5.3c2.935.579,5.894,1.036,8.858,1.435l.125.022q2.189-.053,4.382-.126-3.242-2.923-6.5-5.837Q114.636,392.865,111.99,391.133Z" transform="translate(-31.071 -354.946)" fill="#a4de78"/>
    </g>
    <g id="Grupo_145513" data-name="Grupo 145513" transform="translate(91.164 460.001)">
      <path id="Trazado_210573" data-name="Trazado 210573" d="M105.75,384.323c-.643-17.731-1.31-35.618-5.671-52.817s-12.765-33.882-26.489-45.125c-.928,22-2.281,45.085,6.6,65.238C85.888,364.545,95.582,374.52,105.75,384.323Z" transform="translate(-72.915 -286.381)" fill="#a4de78"/>
      <path id="Trazado_210574" data-name="Trazado 210574" d="M100.66,361.466c-1.5-7.722-3.12-15.425-5.016-23.061q-1.577-6.349-3.439-12.623c-2.68-8.966-6.066-18.089-12.656-24.733.577,9.226,1.154,18.457,2.118,27.651.756,7.213,1.762,14.457,4.134,21.308a73.73,73.73,0,0,0,8.023,15.882c1.627,2.512,3.359,4.953,5.137,7.361.023.032.048.071.072.1q1.559,1.535,3.14,3.059c-.106-2.908-.212-5.82-.336-8.732C101.45,365.609,101.062,363.537,100.66,361.466Z" transform="translate(-69.338 -278.471)" fill="#a4de78"/>
    </g>
    <g id="Grupo_145514" data-name="Grupo 145514" transform="translate(433.478 490.936)">
      <path id="Trazado_210575" data-name="Trazado 210575" d="M297.089,403c10.595-14.232,21.271-28.6,28.632-44.743s11.249-34.415,7.581-51.775c-14.494,16.582-30,33.739-35.68,55.015C293.976,375.14,295.293,388.987,297.089,403Z" transform="translate(-295.304 -306.478)" fill="#a4de78"/>
      <path id="Trazado_210576" data-name="Trazado 210576" d="M304.825,382.132c3.662-6.964,7.221-13.984,10.521-21.126q2.743-5.941,5.22-12c3.52-8.671,6.588-17.9,5.606-27.211-5.324,7.558-10.652,15.119-15.654,22.893-3.924,6.1-7.67,12.377-10.11,19.207a73.729,73.729,0,0,0-3.682,17.407c-.3,2.977-.482,5.966-.6,8.955,0,.039-.006.086-.009.126q.256,2.173.536,4.35,2.607-3.5,5.2-7.021Q303.348,384.928,304.825,382.132Z" transform="translate(-294.866 -298.218)" fill="#a4de78"/>
    </g>
    <g id="Grupo_145515" data-name="Grupo 145515" transform="translate(433.557 463.036)">
      <path id="Trazado_210577" data-name="Trazado 210577" d="M304.812,376.817c5.374-14.3,10.783-28.724,13.027-43.83s1.108-31.148-6.062-44.634c-8.039,17.169-16.775,35.052-16.41,54.006C295.6,354.515,299.989,365.656,304.812,376.817Z" transform="translate(-295.356 -288.353)" fill="#a4de78"/>
      <path id="Trazado_210578" data-name="Trazado 210578" d="M306.777,357.053c1.37-6.633,2.641-13.287,3.67-19.981.571-3.711,1.065-7.435,1.461-11.169.847-8.01,1.185-16.379-1.844-23.843-2.6,7.519-5.209,15.042-7.5,22.664a82,82,0,0,0-3.788,18.3,63.428,63.428,0,0,0,1.1,15.276c.459,2.535,1.022,5.049,1.636,7.55.008.034.015.074.023.108q.73,1.736,1.479,3.471,1.321-3.516,2.631-7.047Q306.221,359.717,306.777,357.053Z" transform="translate(-293.562 -280.961)" fill="#a4de78"/>
    </g>
    <path id="Trazado_210579" data-name="Trazado 210579" d="M317.482,162.226a119.365,119.365,0,0,0-43.125-35.378c-3.265,43.424-4.9,87.116-3.951,130.651,11.688-6.089,23.163-12.841,32.9-21.72s17.826-20.04,21.063-32.814C328.068,188.366,325.423,172.744,317.482,162.226Z" transform="translate(124.603 87.591)" fill="#ff725e"/>
    <path id="Trazado_210580" data-name="Trazado 210580" d="M275.731,127.568a13.563,13.563,0,0,0-2.617,4.918c-.011.035-.015.071-.025.106q-.529,7.375-.991,14.758-.2,25.823-.392,51.647c-.066,8.761-.088,17.777,3.143,25.92a45.559,45.559,0,0,0,6.5,10.973c1.467,1.9,5.25,8.047,8.324,7.262,2.689-.685,3.6-9.234,4.348-11.692q2.163-7.125,4.787-14.1a23.047,23.047,0,0,0,1.932-7.482,22.06,22.06,0,0,0-1.553-7.359c-4.61-13.836-9.074-27.868-10.421-42.391a166.986,166.986,0,0,1-.042-24.867A118.6,118.6,0,0,0,275.731,127.568Z" transform="translate(125.439 87.979)" fill="#d15c4c"/>
    <g id="Grupo_145536" data-name="Grupo 145536" transform="translate(78.713 66.364)">
      <path id="Trazado_210581" data-name="Trazado 210581" d="M140.1,72.716s-14.52-1.178-27.8,19.218c34.633-7.889,53.3-1.347,53.3-1.347S155.774,71.777,140.1,72.716Z" transform="translate(-39.223 -7.983)" fill="#808285"/>
      <path id="Trazado_210582" data-name="Trazado 210582" d="M218.93,97.72a114.064,114.064,0,0,1-15.252-23.17c6.214-5.474,6.848-16.345,4.376-24.249s-9.039-14.193-16.741-17.237-16.4-3.037-24.414-.95c-9.725,2.532-19.07,8.609-22.94,17.883s-.514,21.722,8.669,25.807c-4.507,12.306-10.576,24.463-19.039,34.472,24.226.2,48.46.408,72.678-.291,3.95-.114,8.132-.325,11.409-2.532A6.556,6.556,0,0,0,218.93,97.72ZM190.515,64.345a16.471,16.471,0,0,1-15.357,1.576,12.668,12.668,0,0,1-6.974-6.148,12.6,12.6,0,0,1-.351-8.825,15.444,15.444,0,0,1,5.237-7.547c3.3-2.611,19.984-7.047,23.8,6.559C198.37,55.317,194.955,61.243,190.515,64.345Z" transform="translate(-27.745 -30.649)" fill="#263238"/>
      <path id="Trazado_210583" data-name="Trazado 210583" d="M153.743,109.021a199.249,199.249,0,0,1,12.765-34.449,24.02,24.02,0,0,1-16.561-21.938,24.089,24.089,0,0,1,9.87-19.39c-6.939,3.211-12.947,8.377-15.857,15.353-3.87,9.276-.514,21.722,8.669,25.807-4.507,12.306-10.576,24.463-19.039,34.472Q143.665,108.962,153.743,109.021Z" transform="translate(-27.745 -29.25)" fill="#263238"/>
      <g id="Grupo_145516" data-name="Grupo 145516" transform="translate(0 72.443)">
        <path id="Trazado_210584" data-name="Trazado 210584" d="M72.448,77.713h312.5l39.935,455.526-308.705,37.22Z" transform="translate(-60.716 -77.713)" fill="#263238"/>
        <path id="Trazado_210585" data-name="Trazado 210585" d="M230.373,125.295s28.2-10.448,19.059-47.582H210.347Z" transform="translate(13.647 -77.713)" fill="#263238"/>
        <path id="Trazado_210586" data-name="Trazado 210586" d="M76.558,77.713,64.826,86.261l44,479.664,11.465,4.533Z" transform="translate(-64.826 -77.713)" fill="#1b2023"/>
        <path id="Trazado_210587" data-name="Trazado 210587" d="M415.593,528.423,388.065,214.408,366.06,92.1,89.7,86.642S86.7,446.376,143.062,561.283Z" transform="translate(-51.428 -72.898)" fill="#455a64"/>
      </g>
      <path id="Trazado_210588" data-name="Trazado 210588" d="M93.226,94.116l278.709-5c9.294,137.265,25.4,274.056,52.041,409.03-92.748,2.838-185.959,15.8-277.1,33.223C121.433,438.96,93.226,176.078,93.226,94.116Z" transform="translate(-49.511 0.879)" fill="#fff"/>
      <path id="Trazado_210589" data-name="Trazado 210589" d="M215.59,90.374l11.955,28.409a34.763,34.763,0,0,0,20.677-28.995Z" transform="translate(16.475 1.242)" fill="#e6e7e8"/>
      <path id="Trazado_210590" data-name="Trazado 210590" d="M149.832,81.141l59.051-2.689a114.374,114.374,0,0,1-10.388-14.971,84.9,84.9,0,0,0-19.783,4.073C168.588,70.888,159.046,75.784,149.832,81.141Z" transform="translate(-18.986 -12.945)" fill="#263238"/>
      <g id="Grupo_145517" data-name="Grupo 145517" transform="translate(100.877 59.965)">
        <path id="Trazado_210591" data-name="Trazado 210591" d="M145.595,129.578l127.911.088c6.734-14.584,3.8-32.106-1.573-47.94a13.807,13.807,0,0,0-11.8-9.36c-41.543-3.837-84.064-4.113-129.769,2.009C144.606,81.873,146.857,109.044,145.595,129.578Z" transform="translate(-130.362 -69.607)" fill="#1b2023"/>
        <path id="Trazado_210592" data-name="Trazado 210592" d="M270.916,85.322l-132.278.369a104.771,104.771,0,0,1,2.792,25L272.352,110C273.58,102.035,272.792,93.612,270.916,85.322Z" transform="translate(-125.899 -61.132)" fill="#263238"/>
        <path id="Trazado_210593" data-name="Trazado 210593" d="M187.1,71.553c-7.826.165-15.839.688-23.01,3.825-1.282.56-2.741,1.6-2.484,2.972.223,1.194,1.6,1.733,2.772,2.043,18.017,4.733,36.851,4.518,55.292,3.155,3.623-.268,22.21.262,21.426-4.678-1.048-6.6-17.209-5.806-21.757-6.214A292.313,292.313,0,0,0,187.1,71.553Z" transform="translate(-113.531 -68.592)" fill="#263238"/>
        <ellipse id="Elipse_6942" data-name="Elipse 6942" cx="8.947" cy="3.463" rx="8.947" ry="3.463" transform="translate(24.732 6.38)" fill="#d1d3d4"/>
      </g>
      <g id="Grupo_145518" data-name="Grupo 145518" transform="translate(250.542 160.441)">
        <path id="Trazado_210594" data-name="Trazado 210594" d="M287.89,196.261l-50.618,2.564-9.677-61.379,50.619-2.564Zm-45.4-3.865,38.252-1.938-7.749-49.147-38.251,1.938Z" transform="translate(-227.594 -134.882)" fill="#bcbec0"/>
      </g>
      <g id="Grupo_145519" data-name="Grupo 145519" transform="translate(266.261 267.459)">
        <path id="Trazado_210595" data-name="Trazado 210595" d="M297.832,265.831,247.2,268.164l-9.4-61.424,50.631-2.332Zm-45.382-4.073L290.71,260l-7.522-49.182-38.261,1.762Z" transform="translate(-237.806 -204.408)" fill="#bcbec0"/>
      </g>
      <g id="Grupo_145520" data-name="Grupo 145520" transform="translate(285.07 374.289)">
        <path id="Trazado_210596" data-name="Trazado 210596" d="M260.5,338.286l-10.478-61.249,50.582-3.226,10.479,61.249Zm-3.254-55.539,8.391,49.042,38.223-2.438-8.391-49.042Z" transform="translate(-250.026 -273.811)" fill="#bcbec0"/>
      </g>
      <g id="Grupo_145525" data-name="Grupo 145525" transform="translate(65.727 171.294)">
        <g id="Grupo_145521" data-name="Grupo 145521" transform="translate(3.546 13.505)">
          <path id="Trazado_210597" data-name="Trazado 210597" d="M113.676,163.5a3.848,3.848,0,0,1-.122-7.693l159.489-5.1a3.848,3.848,0,1,1,.246,7.692L113.8,163.5C113.759,163.5,113.718,163.5,113.676,163.5Z" transform="translate(-109.831 -150.707)" fill="#808285"/>
        </g>
        <g id="Grupo_145522" data-name="Grupo 145522" transform="translate(6.63 29.649)">
          <path id="Trazado_210598" data-name="Trazado 210598" d="M115.679,173.991a3.848,3.848,0,0,1-.122-7.693l159.489-5.1a3.848,3.848,0,0,1,.246,7.692l-159.487,5.1C115.762,173.991,115.721,173.991,115.679,173.991Z" transform="translate(-111.834 -161.195)" fill="#808285"/>
        </g>
        <g id="Grupo_145523" data-name="Grupo 145523" transform="translate(9.713 48.344)">
          <path id="Trazado_210599" data-name="Trazado 210599" d="M117.682,183.587a3.848,3.848,0,0,1-.12-7.695l79.743-2.549a3.848,3.848,0,1,1,.246,7.692l-79.743,2.549C117.765,183.585,117.724,183.587,117.682,183.587Z" transform="translate(-113.837 -173.341)" fill="#808285"/>
        </g>
        <g id="Grupo_145524" data-name="Grupo 145524">
          <path id="Trazado_210600" data-name="Trazado 210600" d="M111.372,152.18a3.848,3.848,0,0,1-.12-7.695l79.743-2.551a3.848,3.848,0,0,1,.248,7.692L111.5,152.177C111.457,152.178,111.414,152.18,111.372,152.18Z" transform="translate(-107.527 -141.933)" fill="#f67409"/>
        </g>
      </g>
      <g id="Grupo_145530" data-name="Grupo 145530" transform="translate(86.309 282.094)">
        <g id="Grupo_145526" data-name="Grupo 145526" transform="translate(4.538 8.304)">
          <path id="Trazado_210601" data-name="Trazado 210601" d="M127.688,242.008a3.847,3.847,0,0,1-.357-7.678l158.864-15a3.848,3.848,0,1,1,.723,7.662l-158.864,15A3.661,3.661,0,0,1,127.688,242.008Z" transform="translate(-123.846 -219.31)" fill="#808285"/>
        </g>
        <g id="Grupo_145527" data-name="Grupo 145527" transform="translate(8.617 24.227)">
          <path id="Trazado_210602" data-name="Trazado 210602" d="M130.34,252.351a3.848,3.848,0,0,1-.357-7.679l158.864-15a3.847,3.847,0,1,1,.723,7.661l-158.864,15C130.583,252.345,130.46,252.351,130.34,252.351Z" transform="translate(-126.496 -229.655)" fill="#808285"/>
        </g>
        <g id="Grupo_145528" data-name="Grupo 145528" transform="translate(12.697 47.651)">
          <path id="Trazado_210603" data-name="Trazado 210603" d="M132.991,260.067a3.848,3.848,0,0,1-.357-7.679l79.432-7.5a3.848,3.848,0,0,1,.722,7.662l-79.432,7.5C133.234,260.061,133.111,260.067,132.991,260.067Z" transform="translate(-129.147 -244.873)" fill="#808285"/>
        </g>
        <g id="Grupo_145529" data-name="Grupo 145529">
          <path id="Trazado_210604" data-name="Trazado 210604" d="M124.742,229.113a3.848,3.848,0,0,1-.357-7.679l79.432-7.5a3.848,3.848,0,0,1,.723,7.662l-79.432,7.5C124.985,229.107,124.863,229.113,124.742,229.113Z" transform="translate(-120.898 -213.915)" fill="#f67409"/>
        </g>
      </g>
      <g id="Grupo_145535" data-name="Grupo 145535" transform="translate(104.901 393.469)">
        <g id="Grupo_145531" data-name="Grupo 145531" transform="translate(4.794 6.933)">
          <path id="Trazado_210605" data-name="Trazado 210605" d="M139.936,316.066a3.848,3.848,0,0,1-.42-7.673l158.6-17.591a3.847,3.847,0,1,1,.847,7.647l-158.6,17.592A3.676,3.676,0,0,1,139.936,316.066Z" transform="translate(-136.091 -290.776)" fill="#808285"/>
        </g>
        <g id="Grupo_145532" data-name="Grupo 145532" transform="translate(9.134 22.786)">
          <path id="Trazado_210606" data-name="Trazado 210606" d="M142.755,326.365a3.848,3.848,0,0,1-.42-7.673l158.6-17.591a3.847,3.847,0,1,1,.848,7.647l-158.6,17.592A3.644,3.644,0,0,1,142.755,326.365Z" transform="translate(-138.911 -301.075)" fill="#808285"/>
        </g>
        <g id="Grupo_145533" data-name="Grupo 145533" transform="translate(13.473 47.435)">
          <path id="Trazado_210607" data-name="Trazado 210607" d="M145.574,333.581a3.847,3.847,0,0,1-.419-7.672l79.3-8.8a3.848,3.848,0,0,1,.848,7.649l-79.3,8.8A3.677,3.677,0,0,1,145.574,333.581Z" transform="translate(-141.73 -317.089)" fill="#808285"/>
        </g>
        <g id="Grupo_145534" data-name="Grupo 145534">
          <path id="Trazado_210608" data-name="Trazado 210608" d="M136.821,302.767a3.848,3.848,0,0,1-.42-7.672l79.3-8.8a3.847,3.847,0,1,1,.85,7.647l-79.3,8.8A3.69,3.69,0,0,1,136.821,302.767Z" transform="translate(-132.977 -286.272)" fill="#f67409"/>
        </g>
      </g>
      <path id="Trazado_210609" data-name="Trazado 210609" d="M225.956,147.6c11,3.611,21.2,8.5,29.534,17.281,10.81-13.915,20.554-26.514,35.8-37.356a197.782,197.782,0,0,0-33.2,57.142A109.468,109.468,0,0,0,225.956,147.6Z" transform="translate(22.064 21.593)" fill="#f67409"/>
      <path id="Trazado_210610" data-name="Trazado 210610" d="M236.08,220.365c11,3.611,21.2,8.5,29.534,17.281,10.81-13.915,20.555-26.514,35.8-37.355a197.714,197.714,0,0,0-33.2,57.14A109.505,109.505,0,0,0,236.08,220.365Z" transform="translate(27.524 60.832)" fill="#f67409"/>
      <path id="Trazado_210611" data-name="Trazado 210611" d="M248.637,288.368c11,3.61,21.2,8.5,29.534,17.28,10.81-13.913,20.554-26.512,35.8-37.355a197.738,197.738,0,0,0-33.2,57.14A109.5,109.5,0,0,0,248.637,288.368Z" transform="translate(34.295 97.502)" fill="#f67409"/>
    </g>
    <g id="Grupo_145542" data-name="Grupo 145542" transform="translate(379.975 238.582)">
      <path id="Trazado_210612" data-name="Trazado 210612" d="M321.3,387.785l-30.779,14.938c-1.2.585-2.6,1.485-2.5,2.822.129,1.619,2.24,2.11,3.864,2.169l43.513,1.555V391.612A71.821,71.821,0,0,1,321.3,387.785Z" transform="translate(-245.731 -10.279)" fill="#fff"/>
      <path id="Trazado_210613" data-name="Trazado 210613" d="M386.361,408c-2.951,5.772-16.5,11.349-25.358,15.647-1.039.5-2.246,1.282-2.153,2.434.112,1.4,1.933,1.822,3.336,1.872,9.04.323,23.458.646,35.484.97a7.471,7.471,0,0,0,6.9-10.769l-6.921-15.035C393.776,402.442,390,409.5,386.361,408Z" transform="translate(-207.536 -2.036)" fill="#fff"/>
      <path id="Trazado_210614" data-name="Trazado 210614" d="M396.322,231.461c-16.33,5.611-32.109,5.354-47.115,7.407-2.641,3.688-12.78,18.623-15.422,22.312l42.346,5.317a19.894,19.894,0,0,0,6.884.06c3.343-.76,6.066-3.2,8.189-5.889C397.483,252.7,399.165,241.194,396.322,231.461Z" transform="translate(-221.05 -94.578)" fill="#ff725e"/>
      <path id="Trazado_210615" data-name="Trazado 210615" d="M329.468,221.791c5.491-8.4,13.062-14.224,20.725-13.079-.623-.092-6.543,13.692-7.455,15.265a101.955,101.955,0,0,1-9.328,13.53,80.5,80.5,0,0,1-10.489,10.678c-1.088.911-4.041,4.35-4.978,1.595-.593-1.744,1.913-7.07,2.486-8.675A92.175,92.175,0,0,1,329.468,221.791Z" transform="translate(-229.641 -106.923)" fill="#092942"/>
      <g id="Grupo_145538" data-name="Grupo 145538" transform="translate(0 0)">
        <g id="Grupo_145537" data-name="Grupo 145537" transform="translate(20.043)">
          <path id="Trazado_210616" data-name="Trazado 210616" d="M500.462,178.518l-171.943,152.2L301.239,299.9,473.182,147.7a20.578,20.578,0,0,1,29.047,1.767h0A20.578,20.578,0,0,1,500.462,178.518Z" transform="translate(-258.643 -142.533)" fill="#fbb040"/>
          <path id="Trazado_210617" data-name="Trazado 210617" d="M316.162,244.77l-42.6,65.193,69.876-34.379Z" transform="translate(-273.566 -87.401)" fill="#f98c6e"/>
          <rect id="Rect치ngulo_43318" data-name="Rect치ngulo 43318" width="210.116" height="16.547" transform="matrix(0.749, -0.663, 0.663, 0.749, 50.752, 166.582)" fill="#9c681c"/>
          <path id="Trazado_210618" data-name="Trazado 210618" d="M288.843,271.934l-15.277,23.381,25.061-12.33Z" transform="translate(-273.566 -72.752)" fill="#f67409"/>
          <path id="Trazado_210619" data-name="Trazado 210619" d="M419.072,147.7l-17.491,15.485L428.861,194l17.491-15.485a20.578,20.578,0,1,0-27.28-30.814Z" transform="translate(-204.533 -142.533)" fill="#f98c6e"/>
          <rect id="Rect치ngulo_43319" data-name="Rect치ngulo 43319" width="16.547" height="41.154" transform="translate(187.54 29.073) rotate(-41.519)" fill="#fff"/>
        </g>
        <path id="Trazado_210620" data-name="Trazado 210620" d="M522.407,176.087a20.557,20.557,0,0,0,1.767-29.047L297.659,347.554l-7.242,6.411-9.829,8.7,15.252-7.5,54.624-26.875Z" transform="translate(-260.545 -140.102)" fill="#231f20" opacity="0.25"/>
      </g>
      <path id="Trazado_210621" data-name="Trazado 210621" d="M367.924,224.988c3.964,7.079,4.279,26.471,2.455,34.376,6.066,1.021,12.911-8.6,18.976-7.582a50.893,50.893,0,0,1-1.907-22.382c.345-2.471.8-5.25-.7-7.242-1.9-2.521-5.789-2.26-8.728-1.113S371.07,225.231,367.924,224.988Z" transform="translate(-202.64 -100.647)" fill="#e67a5c"/>
      <path id="Trazado_210622" data-name="Trazado 210622" d="M374.116,295.376s-38,35.389-46.205,63.608S308.1,434.922,308.1,434.922l21.179,4.153L351,371.813,385.376,335.9S386.971,300.522,374.116,295.376Z" transform="translate(-234.9 -60.111)" fill="#263238"/>
      <path id="Trazado_210623" data-name="Trazado 210623" d="M360.642,295.376a279.374,279.374,0,0,0-27.554,30.533c2.067,10.83,4.542,21.6,6.974,32.161q1.027,4.449,2.113,8.885L371.9,335.9S373.5,300.522,360.642,295.376Z" transform="translate(-221.426 -60.111)" fill="#192327"/>
      <path id="Trazado_210624" data-name="Trazado 210624" d="M391.352,337.661c-1.93,5.135-16.325,11.626-21.822,12.69-4.719.911-9.667-1.228-13-4.59s-6.637-7.569-6.7-12.245c-.948-69.436,11.932-84.051,23.642-95.616,10.234-10.107,24.042-8.278,31.838,3.59,8.624,13.125,4.062,30.842.607,44.916C401.236,305.455,399.141,316.945,391.352,337.661Z" transform="translate(-212.426 -94.649)" fill="#ff725e"/>
      <path id="Trazado_210625" data-name="Trazado 210625" d="M376.74,306.288a112.066,112.066,0,0,0,20.966-64.306c-4.487,12.168-11.728,22.095-20.663,31.493a22.208,22.208,0,0,1-4.512,3.882c-4.861,2.92-11.035,2.226-16.546.888-1.216-.294-2.44-.616-3.662-.93-.988,6.419-1.741,13.83-2.2,22.418A165.173,165.173,0,0,0,376.74,306.288Z" transform="translate(-212.241 -88.904)" fill="#e56f5e"/>
      <path id="Trazado_210626" data-name="Trazado 210626" d="M385.15,342.163c5.1-15.648,8.8-24.217,8.227-41.227-26.332,8.015-42.376-5.56-42.376-5.56-4.125,37.6-5.093,57.77-.014,95.274,2.983,22.022,25.221,53.989,37.753,72.919,5.4-1.354,7.875-2.452,13.276-3.807-4.653-17.48-13.176-49.036-22.433-64.875C381.763,375.233,378.92,361.292,385.15,342.163Z" transform="translate(-213.636 -60.111)" fill="#263238"/>
      <path id="Trazado_210627" data-name="Trazado 210627" d="M337.166,211.564c4.272-3.526,12.351-5.417,17.44-3.228,1.308.563,2.654,1.581,2.711,3,.071,1.824-1.926,2.96-3.653,3.554a45.787,45.787,0,0,1-16.752,2.444C335.114,216.824,332.894,215.091,337.166,211.564Z" transform="translate(-220.553 -107.552)" fill="#f98c6e"/>
      <path id="Trazado_210628" data-name="Trazado 210628" d="M365.956,281.088a11.744,11.744,0,0,0,4.978-.388c2.411-.922,3.921-3.286,5.143-5.56a77.407,77.407,0,0,0,8.2-24.166c.833-5.12-.413-10.964-4.325-14.369A48.668,48.668,0,0,0,362.1,268.692c-2.661-.075-5.469-.123-8.252-.177-.854,3.483-1.627,7.325-2.292,11.631Z" transform="translate(-211.466 -91.804)" fill="#d15c4c"/>
      <g id="Grupo_145539" data-name="Grupo 145539" transform="translate(87.572 137.382)">
        <path id="Trazado_210629" data-name="Trazado 210629" d="M328.481,256.631c-1.405-1.884-3.045-3.779-5.287-4.478s-5.177.354-5.677,2.651c-.714,3.282,3.668,6.385,2.35,9.476-.377.887-1.173,1.533-1.616,2.391a4.617,4.617,0,0,0,1.068,5.086,12.668,12.668,0,0,0,4.749,2.772,18.854,18.854,0,0,0,7.521,1.732,5.932,5.932,0,0,0,4.285-1.753c2.053-2.35-.288-5.871-1.407-8.126A63.332,63.332,0,0,0,328.481,256.631Z" transform="translate(-317.438 -220.916)" fill="#f98c6e"/>
        <path id="Trazado_210630" data-name="Trazado 210630" d="M378.027,277.781c4.7-18.994,4.114-23.6,10.833-36.091,2.218-4.124,6.436-7.019,10.775-8.777s9.7-1.589,13.3,1.405a13.482,13.482,0,0,1,4.385,9.708,32.451,32.451,0,0,1-1.7,10.775c-7.167,24.41-10.9,27.9-25.818,48.511-20.337-1.9-47.2-6.122-61.618-13.726-2.929-1.545-3.117-6.522-1.364-9.329,1.9-3.04,6.272-3.1,9.794-2.441C347.927,279.929,360.738,278.108,378.027,277.781Z" transform="translate(-312.985 -231.785)" fill="#ff725e"/>
      </g>
      <path id="Trazado_210631" data-name="Trazado 210631" d="M308.208,383.064l24.95,6.734-2.692,8.466-24.412-6.477Z" transform="translate(-236.004 -12.825)" fill="#263238"/>
      <path id="Trazado_210632" data-name="Trazado 210632" d="M389.9,397.8l-18.024,8.228,3.932,8.08,17.445-8.081Z" transform="translate(-200.51 -4.877)" fill="#0e4066"/>
      <path id="Trazado_210633" data-name="Trazado 210633" d="M335.4,403.626v-4.764l-46.656-.613a2.072,2.072,0,0,0-.72,1.653c.129,1.619,2.24,2.11,3.864,2.169Z" transform="translate(-245.731 -4.636)" fill="#808285"/>
      <path id="Trazado_210634" data-name="Trazado 210634" d="M360.3,417.078c-.808.491-1.518,1.157-1.447,2.05.112,1.4,1.933,1.822,3.336,1.872,9.04.323,23.458.646,35.484.97a7.46,7.46,0,0,0,7.529-6.011Q382.754,416.772,360.3,417.078Z" transform="translate(-207.536 4.914)" fill="#808285"/>
      <g id="Grupo_145541" data-name="Grupo 145541" transform="translate(140.093 63.138)">
        <g id="Grupo_145540" data-name="Grupo 145540">
          <path id="Trazado_210635" data-name="Trazado 210635" d="M357.5,229.377c-.622,4.944.017,12.6,3.329,16.325,2.7,3.039,7.193,4.013,11.2,3.306s7.6-2.861,10.881-5.266a68.708,68.708,0,0,0,14.746-14.755c3.854-5.26,7.055-11.9,5.121-18.128-1.418-4.564-5.37-7.938-9.648-10.065-5.209-2.591-11.306-3.683-16.936-2.22C361.97,202.274,359.031,217.184,357.5,229.377Z" transform="translate(-348.468 -175.803)" fill="#f98c6e"/>
          <path id="Trazado_210636" data-name="Trazado 210636" d="M397.168,234.922a16.273,16.273,0,0,0-13.31-19.65c-3.937-.63-7.939.2-11.889.757s-8.144.8-11.758-.884a14.484,14.484,0,0,1-6.95-7.6,25.107,25.107,0,0,1-1.693-10.319,20.594,20.594,0,0,1,1.267-7.258,10.538,10.538,0,0,1,4.715-5.512,8.379,8.379,0,0,1,11.8,10.114,24.771,24.771,0,0,1,11.235-8.768c2.721-1.111,6.206-1.584,8.3.483a5.944,5.944,0,0,1,1.395,5.2,15.248,15.248,0,0,1-2.178,5.124,18.808,18.808,0,0,1,16.271-5.2,3.186,3.186,0,0,1,1.81.762c.8.824.594,2.172.2,3.246a13.553,13.553,0,0,1-6.279,7.21c4.379,1.709,9.014,3.611,11.712,7.459a16.033,16.033,0,0,1,2.435,10.5,22.265,22.265,0,0,1-10.121,16.933,6.622,6.622,0,0,1-4.4,1.262A3.574,3.574,0,0,1,397.168,234.922Z" transform="translate(-351.558 -183.551)" fill="#092942"/>
          <path id="Trazado_210637" data-name="Trazado 210637" d="M385.563,215.172a4.264,4.264,0,0,1,3.054-.476,3.222,3.222,0,0,1,2.026,2.686,6.79,6.79,0,0,1-.625,3.454,16.031,16.031,0,0,1-8.081,8.383,2.528,2.528,0,0,1-2.337.175c-1.923-1.211-1.279-6.368-.494-8.212C380.2,218.6,383.124,216.326,385.563,215.172Z" transform="translate(-337.118 -166.824)" fill="#f98c6e"/>
        </g>
      </g>
    </g>
    <path id="Trazado_210638" data-name="Trazado 210638" d="M315.313,143.436c-3.571,3.853-10.935,8.817-15.962,10.395-12.353,19.4-2.732,21.844,7.313,16.324q5.978-3.286,11.951-6.579a4.049,4.049,0,0,0,1.729-1.43,4.091,4.091,0,0,0-.188-3.257C318.48,154.066,319.12,146.838,315.313,143.436Z" transform="translate(137.214 96.536)" fill="#e67a5c"/>
    <path id="Trazado_210639" data-name="Trazado 210639" d="M279.782,247.4a84.981,84.981,0,0,0-6.66,11.035,3.593,3.593,0,0,0-.545,2.6,2.464,2.464,0,0,0,1.9,1.527,7.253,7.253,0,0,0,2.543-.077c-1.2,4.262-2.724,11.152-2.555,12.152a2.361,2.361,0,0,0,1.941,2.052c1.225.089,4.544-4.6,7.238-9.277a29.454,29.454,0,0,0,5.658-2.831,9.662,9.662,0,0,0,3.865-4.793c.976-2.992-.122-6.316-1.9-8.914a12.815,12.815,0,0,0-4.159-4C285.419,245.916,281.675,246.977,279.782,247.4Z" transform="translate(125.87 152.105)" fill="#f98c6e"/>
    <path id="Trazado_210640" data-name="Trazado 210640" d="M322.836,165.558c2.715,44.446-12,93.08-32.147,133.107a32.966,32.966,0,0,1-14.943-1.544c2.5-34.9,9.417-69.364,18.454-103.163,1.535-5.737,3.229-11.652,7.05-16.2S317.36,163.258,322.836,165.558Z" transform="translate(127.626 108.282)" fill="#ff725e"/>
    <g id="Grupo_145544" data-name="Grupo 145544" transform="translate(442.613 208.237)">
      <g id="Grupo_145543" data-name="Grupo 145543">
        <path id="Trazado_210641" data-name="Trazado 210641" d="M330.566,180.82c-4.221,3.151-11.709,6.671-17.141,5.837a13.362,13.362,0,0,1-9.748-7.742c-1.733-3.77-1.882-7.966-1.605-12.022a62.8,62.8,0,0,1,4.895-20.337c2.583-6.059,6.837-12.3,13.772-13.961,5.081-1.219,10.57.345,15.1,2.843,5.512,3.045,10.165,7.636,12.166,13.188C353.055,162.649,340.969,173.054,330.566,180.82Z" transform="translate(-300.849 -117.775)" fill="#f98c6e"/>
        <path id="Trazado_210642" data-name="Trazado 210642" d="M306.264,152.006c8.374,2.41,14.863,1.15,19.056-6.944,2.076,9.545,20.149,42.036,37.624,26.478-8.575-4.425-8.078-13.421-10.949-22.17a22.089,22.089,0,0,0-5.692-9.553,13.855,13.855,0,0,0-10.872-3.767,41.589,41.589,0,0,0,6.63-3.086c.707-.408,1.468-.944,1.518-1.705.071-1.1-1.353-1.77-2.56-1.947a11.56,11.56,0,0,0-8.651,2.215,13.2,13.2,0,0,0-6.06-7.8,5.811,5.811,0,0,0-2.44-.9,2.544,2.544,0,0,0-2.3.905,2.8,2.8,0,0,0-.257,2.043,13.342,13.342,0,0,0,3.611,7.124c-5.775-.911-11.563,2.113-15.111,6.291s-5.3,9.362-6.979,14.424C303.649,153.359,305.448,152.263,306.264,152.006Z" transform="translate(-300.379 -122.819)" fill="#092942"/>
        <path id="Trazado_210643" data-name="Trazado 210643" d="M312.289,141.475a4.152,4.152,0,0,0-1.382-2.843,3.876,3.876,0,0,0-3.7-.294,7.148,7.148,0,0,0-2.832,2.363,14.779,14.779,0,0,0-2.96,11.3,2.513,2.513,0,0,0,1.233,2.073c2.27.988,6.674-2.292,7.916-3.937C312.3,147.84,312.673,144.155,312.289,141.475Z" transform="translate(-301.239 -114.629)" fill="#f98c6e"/>
      </g>
    </g>
    <g id="Grupo_145547" data-name="Grupo 145547" transform="translate(123.37 419.954)">
      <path id="Trazado_210644" data-name="Trazado 210644" d="M213.566,358.98a36.348,36.348,0,0,1,10.468-.408c3.463.537,6.911,2.24,8.74,5.23,2.23,3.65,1.629,8.333.486,12.457-2.189,7.906-6.048,15.234-9.967,22.441-9.177,16.881-18.837,33.494-28.495,50.1-2.925.011-6.382.359-9.154-.57s-5.343-2.969-6.115-5.789a13.5,13.5,0,0,1,.243-6.12q5.28-27.037,10.562-54.073c1.136-5.814,2.377-11.865,6.017-16.539S208.357,356.156,213.566,358.98Z" transform="translate(-47.773 -207.634)" fill="#263238"/>
      <path id="Trazado_210645" data-name="Trazado 210645" d="M221.477,394.11a17.5,17.5,0,0,1-.982-1.636,59.416,59.416,0,0,1-6.4-22.755,57.343,57.343,0,0,1,.3-11.34c-1.7.114-3.406.342-5.095.573a6.889,6.889,0,0,0-2.469-.753q-4.338,1.136-8.664,2.323a21.93,21.93,0,0,0-6.08,5.163c-2.583,3.317-3.95,7.328-4.936,11.455,2.15,2.928,4.17,5.98,6.262,8.929a143.3,143.3,0,0,0,20.044,22.695c1.87-3.357,3.737-6.716,5.572-10.091Q220.269,396.4,221.477,394.11Z" transform="translate(-43.516 -207.606)" fill="#1b2327"/>
      <path id="Trazado_210646" data-name="Trazado 210646" d="M212.175,395.581a108.03,108.03,0,0,0-10.235-14.608c-3.4-3.865-8.39-7.49-13.3-5.945-.229.072-.439.18-.657.271l-5.07,25.955a13.862,13.862,0,0,1,2.48.825c5.44,2.681,9.451,7.889,11.728,13.405a48.1,48.1,0,0,1,3,11.862q7.663-13.237,15.146-26.575C214.284,399.007,213.23,397.277,212.175,395.581Z" transform="translate(-45.804 -198.727)" fill="#051d2e"/>
      <path id="Trazado_210647" data-name="Trazado 210647" d="M132.835,318.2a391.134,391.134,0,0,0,74.243,66.134c-2.581,3.3-5.529,6.9-9.688,7.419-3.411.431-6.676-1.325-9.665-3.022-13.655-7.749-27.5-15.643-38.5-26.851A59.29,59.29,0,0,1,132.835,318.2Z" transform="translate(-72.86 -229.178)" fill="#ff725e"/>
      <path id="Trazado_210648" data-name="Trazado 210648" d="M132.835,318.2a59.3,59.3,0,0,0,16.392,43.681,99.812,99.812,0,0,0,11.312,9.787c.08-2.971.112-5.943.065-8.915-.089-5.534-.4-11.092-.92-16.625Q145.584,332.83,132.835,318.2Z" transform="translate(-72.86 -229.178)" fill="#e66958"/>
      <path id="Trazado_210649" data-name="Trazado 210649" d="M126.9,314.443q-11.376,4.281-22.4,9.156c-2.74,1.213-5.6,2.566-7.061,4.858-1.95,3.062-.873,6.888.262,10.324q14.177,42.936,31.767,85.115c.737,1.769,10.638,26.36,12.533,26.648,10.23,1.553,12.356-21.373,22.607-22.122,2.8-.2,5.725-.543,7.913-1.961,2.783-1.8,3.753-4.924,4.479-7.843,3.294-13.21-9.06-79.88-17.429-92.5S142.116,308.719,126.9,314.443Z" transform="translate(-92.477 -232.493)" fill="#ff725e"/>
      <path id="Trazado_210650" data-name="Trazado 210650" d="M168.173,386.622a13.281,13.281,0,0,0,4.045.811c-.623-5.9-1.556-12.537-2.711-19.39a88.633,88.633,0,0,1-19.823-5.277,107.885,107.885,0,0,1-11.137-5.13c-12.282-6.5-23.34-15.086-33.876-24.148,4.071,7.529,8.2,15.136,13.93,21.491,5.137,5.691,11.417,10.216,17.763,14.517C146.361,376.273,156.76,382.67,168.173,386.622Z" transform="translate(-87.997 -220.931)" fill="#dc6e5e"/>
      <path id="Trazado_210651" data-name="Trazado 210651" d="M127.424,307.233a46.872,46.872,0,0,0-.628,17.858,4.613,4.613,0,0,1-4.9,5.358,45.5,45.5,0,0,1-7.05-1.054,5.5,5.5,0,0,1-2.526-1.1,5.839,5.839,0,0,1-1.421-3.486q-1.438-8.612-2.878-17.224c-.272-1.63-.519-3.416.312-4.846,1.128-1.935,3.7-2.375,5.94-2.449a15.964,15.964,0,0,1,7.161,1.061C123.653,302.364,127.975,304.861,127.424,307.233Z" transform="translate(-86.329 -238.842)" fill="#e67a5c"/>
      <g id="Grupo_145545" data-name="Grupo 145545">
        <path id="Trazado_210652" data-name="Trazado 210652" d="M148.344,304.989c1.435,5.066,2.046,13.318-.674,18.094a13.362,13.362,0,0,1-10.715,6.337c-4.142.271-8.112-1.09-11.8-2.8a62.824,62.824,0,0,1-17.244-11.84c-4.736-4.578-9.042-10.781-8.117-17.851.677-5.181,4.1-9.75,8.052-13.085,4.812-4.062,10.762-6.767,16.664-6.65C139.411,277.49,144.808,292.5,148.344,304.989Z" transform="translate(-90.696 -251.289)" fill="#f98c6e"/>
        <path id="Trazado_210653" data-name="Trazado 210653" d="M112.36,324.959a18.8,18.8,0,0,0,.944-22.492,122.8,122.8,0,0,0,25.79-6.6c3.63-1.347,7.482-3.116,9.242-6.565a12.434,12.434,0,0,0,.556-8.406c-1.955-8.447-8.361-15.132-15.142-20.537q1.789,5.35,3.577,10.7A40.346,40.346,0,0,0,125.6,262.39a86.958,86.958,0,0,1,5.757,15.062c-8.309-.731-17.073.114-24.391,4.114s-13.005,11.6-13.125,19.94a23.052,23.052,0,0,0,5.207,14.383C102.271,319.969,107.7,322.642,112.36,324.959Z" transform="translate(-93.839 -260.364)" fill="#092942"/>
        <path id="Trazado_210654" data-name="Trazado 210654" d="M106.656,298.235a4.148,4.148,0,0,0-3.149.274,3.877,3.877,0,0,0-1.6,3.353,7.17,7.17,0,0,0,1.194,3.49,14.778,14.778,0,0,0,9.5,6.8,2.515,2.515,0,0,0,2.378-.409c1.735-1.769.243-7.053-.85-8.8C112.6,300.5,109.3,298.833,106.656,298.235Z" transform="translate(-89.488 -240.038)" fill="#f98c6e"/>
      </g>
      <path id="Trazado_210655" data-name="Trazado 210655" d="M108.222,360.8c10.946,8.908,22.529,17.018,35.152,23.275a118.986,118.986,0,0,0,32.09,10.736c-.18-4.2-.653-9.256-1.35-14.78-4.946-1.766-9.842-3.667-14.658-5.757a247.936,247.936,0,0,1-59.385-36.445Q104.023,349.342,108.222,360.8Z" transform="translate(-90.477 -218.59)" fill="#d15c4c"/>
      <path id="Trazado_210656" data-name="Trazado 210656" d="M120.17,337.163c3.266,13.57,14.88,24.873,28.7,32.121s29.771,10.933,45.625,13.864a10.67,10.67,0,0,1,1.867,4.159,4.016,4.016,0,0,1-1.582,4.278,8.316,8.316,0,0,1-4.365.905,107.96,107.96,0,0,1-56.883-14.9c-16.481-9.928-29.13-24.4-35.655-40.7a18.862,18.862,0,0,1-1.736-7.544,8.339,8.339,0,0,1,3.665-6.791c3.981-2.572,10.034-1.231,13.545,1.8S119.164,332.987,120.17,337.163Z" transform="translate(-92.599 -227.562)" fill="#ff725e"/>
      <path id="Trazado_210657" data-name="Trazado 210657" d="M247.368,350.429c.662,2.883.571,11.08,1.139,14.757-28.068,10.164-57.234,14.132-87.23,22.529L147.052,391.7c-1.716.48-3.633.942-5.21.114s-2.035-3.574-.385-4.247c30.467-12.428,59.72-28.042,90.986-38.292a25.169,25.169,0,0,1,7.241-1.584C242.163,347.639,246.814,348.011,247.368,350.429Z" transform="translate(-68.72 -213.275)" fill="#92c6f0"/>
      <g id="Grupo_145546" data-name="Grupo 145546" transform="translate(99.694 93.63)">
        <path id="Trazado_210658" data-name="Trazado 210658" d="M166.585,331.953l72.679-10.7a5.363,5.363,0,0,1,6.066,6.263,464.464,464.464,0,0,0-6.631,51.959c-25.724,3.429-50.352,6.508-80.094,11.026,1.975-20.07,2.917-36.014,3.393-53.361A5.38,5.38,0,0,1,166.585,331.953Z" transform="translate(-158.606 -321.192)" fill="#92c6f0"/>
        <path id="Trazado_210659" data-name="Trazado 210659" d="M199.724,348.3c-.87,4.99-4.969,8.444-9.157,7.715s-6.877-5.367-6.008-10.358,4.97-8.443,9.157-7.713S200.594,343.315,199.724,348.3Z" transform="translate(-144.699 -312.209)" fill="#a6d7ff"/>
      </g>
      <path id="Trazado_210660" data-name="Trazado 210660" d="M137.1,431.569c8.848,3.186,19.539,2.335,28.479-.582,20.648-6.737,37.088-22.19,52.793-37.193,10.867,15.7,24.085,30.776,34.952,46.475,2.327,3.363,4.879,6.908,8.7,8.372s13.7-10.369,13.224-13.505a28.072,28.072,0,0,0-3.449-8.818,500.2,500.2,0,0,0-30.354-48.931c-4.133-5.966-8.838-12.245-15.768-14.4-7.224-2.247-14.938.563-22.019,3.226-22.795,8.575-41.227,11.329-66.554,19.236C108.113,394.5,122.787,426.414,137.1,431.569Z" transform="translate(-79.504 -205.466)" fill="#263238"/>
      <path id="Trazado_210661" data-name="Trazado 210661" d="M256.243,416.749c1,.2,2.189.565,2.421,1.556.279,1.191-1.05,2.084-2.18,2.557-11.358,4.744-23.718,6.436-35.917,8.083a8.2,8.2,0,0,1-4.544-.248c-1.627-.754-2.564-2.466-3.268-4.116a9.829,9.829,0,0,1-1.027-5.36c.423-2.546,2.537-4.492,4.793-5.743,1.75-.971,4.625-2.818,6.645-2.892,2.206-.082,4.927.933,7.116,1.322q8.379,1.492,16.743,3.071Q251.636,415.851,256.243,416.749Z" transform="translate(-30.308 -179.358)" fill="#fff"/>
      <path id="Trazado_210662" data-name="Trazado 210662" d="M177.032,421.161c-.488,1.669-.868,3.506-.182,5.1a5.57,5.57,0,0,0,3.422,2.878,15.94,15.94,0,0,0,4.547.62c8.218.3,16.444.276,24.668.251a42.777,42.777,0,0,0,6.894-.391c1.275-.211,2.84-.951,2.683-2.233-.112-.91-1.059-1.436-1.895-1.813q-9.277-4.186-18.773-7.866-4.816-1.868-9.685-3.6c-1.827-.651-5.313-2.648-7.319-1.827C178.9,413.3,177.71,418.853,177.032,421.161Z" transform="translate(-49.275 -178.544)" fill="#fff"/>
    </g>
  </g>
</svg>
