<svg xmlns="http://www.w3.org/2000/svg" width="400" height="255" viewBox="0 0 400 255">
  <g id="Grupo_142638" data-name="Grupo 142638" transform="translate(-136.744 -364.414)">
    <g id="Grupo_142635" data-name="Grupo 142635" transform="translate(5919.744 11902.414)">
      <g id="Grupo_128888" data-name="Grupo 128888" transform="translate(-5963 -11938)">
        <rect id="Rectángulo_40354" data-name="Rectángulo 40354" width="400" height="255" transform="translate(180 400)" fill="none"/>
        <g id="Grupo_128268" data-name="Grupo 128268" transform="translate(27.5 -5160)">
          <g id="Grupo_111836" data-name="Grupo 111836" transform="translate(180 5560)">
            <g id="Grupo_79644" data-name="Grupo 79644" transform="translate(0 0)">
              <path id="Trazado_145968" data-name="Trazado 145968" d="M56.454,0A56.454,56.454,0,1,1,0,56.454,56.454,56.454,0,0,1,56.454,0Z" transform="translate(216.915 137.256)" fill="#fece10" opacity="0.444" style="mix-blend-mode: multiply;isolation: isolate"/>
              <path id="Trazado_145969" data-name="Trazado 145969" d="M38.576,0A38.576,38.576,0,1,1,0,38.576,38.576,38.576,0,0,1,38.576,0Z" transform="translate(31.541 14.729)" fill="#fece10" opacity="0.444" style="mix-blend-mode: multiply;isolation: isolate"/>
              <rect id="Rectángulo_34812" data-name="Rectángulo 34812" width="338.5" height="254.178" transform="translate(0 0.41)" fill="none"/>
              <path id="Trazado_145971" data-name="Trazado 145971" d="M10.606,0A10.606,10.606,0,1,1,0,10.606,10.606,10.606,0,0,1,10.606,0Z" transform="translate(41.902 212.358)" fill="#fece10" opacity="0.444" style="mix-blend-mode: multiply;isolation: isolate"/>
              <line id="Línea_138" data-name="Línea 138" y2="149.98" transform="translate(11.083 59.714)" fill="none" stroke="#fff" stroke-width="1" stroke-dasharray="8"/>
              <g id="Grupo_53306" data-name="Grupo 53306" transform="translate(243.559 176.826)">
                <path id="Trazado_99200" data-name="Trazado 99200" d="M415.747,50.957a.767.767,0,1,1-.767-.733A.75.75,0,0,1,415.747,50.957Z" transform="translate(-414.214 -50.224)" fill="#2432ff"/>
                <path id="Trazado_99201" data-name="Trazado 99201" d="M424.193,50.957a.767.767,0,1,1-.766-.733A.75.75,0,0,1,424.193,50.957Z" transform="translate(-415.761 -50.224)" fill="#2432ff"/>
                <path id="Trazado_99202" data-name="Trazado 99202" d="M432.639,50.957a.767.767,0,1,1-.766-.733A.75.75,0,0,1,432.639,50.957Z" transform="translate(-417.308 -50.224)" fill="#2432ff"/>
                <path id="Trazado_99203" data-name="Trazado 99203" d="M441.086,50.957a.767.767,0,1,1-.767-.733A.75.75,0,0,1,441.086,50.957Z" transform="translate(-418.855 -50.224)" fill="#2432ff"/>
                <path id="Trazado_99204" data-name="Trazado 99204" d="M449.532,50.957a.767.767,0,1,1-.766-.733A.75.75,0,0,1,449.532,50.957Z" transform="translate(-420.402 -50.224)" fill="#2432ff"/>
                <path id="Trazado_99205" data-name="Trazado 99205" d="M457.978,50.957a.767.767,0,1,1-.766-.733A.75.75,0,0,1,457.978,50.957Z" transform="translate(-421.949 -50.224)" fill="#2432ff"/>
                <path id="Trazado_99206" data-name="Trazado 99206" d="M466.425,50.957a.767.767,0,1,1-.767-.733A.751.751,0,0,1,466.425,50.957Z" transform="translate(-423.496 -50.224)" fill="#2432ff"/>
                <path id="Trazado_99207" data-name="Trazado 99207" d="M474.871,50.957a.767.767,0,1,1-.766-.733A.75.75,0,0,1,474.871,50.957Z" transform="translate(-425.044 -50.224)" fill="#2432ff"/>
                <path id="Trazado_99208" data-name="Trazado 99208" d="M483.317,50.957a.767.767,0,1,1-.766-.733A.75.75,0,0,1,483.317,50.957Z" transform="translate(-426.591 -50.224)" fill="#2432ff"/>
                <path id="Trazado_99209" data-name="Trazado 99209" d="M491.764,50.957a.767.767,0,1,1-.767-.733A.751.751,0,0,1,491.764,50.957Z" transform="translate(-428.138 -50.224)" fill="#2432ff"/>
                <path id="Trazado_99210" data-name="Trazado 99210" d="M500.21,50.957a.767.767,0,1,1-.767-.733A.75.75,0,0,1,500.21,50.957Z" transform="translate(-429.685 -50.224)" fill="#2432ff"/>
              </g>
              <g id="Grupo_53307" data-name="Grupo 53307" transform="translate(243.559 182.69)">
                <path id="Trazado_99211" data-name="Trazado 99211" d="M415.747,58.465a.767.767,0,1,1-.767-.733A.75.75,0,0,1,415.747,58.465Z" transform="translate(-414.214 -57.732)" fill="#2432ff"/>
                <path id="Trazado_99212" data-name="Trazado 99212" d="M424.193,58.465a.767.767,0,1,1-.766-.733A.75.75,0,0,1,424.193,58.465Z" transform="translate(-415.761 -57.732)" fill="#2432ff"/>
                <path id="Trazado_99213" data-name="Trazado 99213" d="M432.639,58.465a.767.767,0,1,1-.766-.733A.75.75,0,0,1,432.639,58.465Z" transform="translate(-417.308 -57.732)" fill="#2432ff"/>
                <path id="Trazado_99214" data-name="Trazado 99214" d="M441.086,58.465a.767.767,0,1,1-.767-.733A.75.75,0,0,1,441.086,58.465Z" transform="translate(-418.855 -57.732)" fill="#2432ff"/>
                <path id="Trazado_99215" data-name="Trazado 99215" d="M449.532,58.465a.767.767,0,1,1-.766-.733A.75.75,0,0,1,449.532,58.465Z" transform="translate(-420.402 -57.732)" fill="#2432ff"/>
                <path id="Trazado_99216" data-name="Trazado 99216" d="M457.978,58.465a.767.767,0,1,1-.766-.733A.75.75,0,0,1,457.978,58.465Z" transform="translate(-421.949 -57.732)" fill="#2432ff"/>
                <path id="Trazado_99217" data-name="Trazado 99217" d="M466.425,58.465a.767.767,0,1,1-.767-.733A.751.751,0,0,1,466.425,58.465Z" transform="translate(-423.496 -57.732)" fill="#2432ff"/>
                <path id="Trazado_99218" data-name="Trazado 99218" d="M474.871,58.465a.767.767,0,1,1-.766-.733A.75.75,0,0,1,474.871,58.465Z" transform="translate(-425.044 -57.732)" fill="#2432ff"/>
                <path id="Trazado_99219" data-name="Trazado 99219" d="M483.317,58.465a.767.767,0,1,1-.766-.733A.75.75,0,0,1,483.317,58.465Z" transform="translate(-426.591 -57.732)" fill="#2432ff"/>
                <path id="Trazado_99220" data-name="Trazado 99220" d="M491.764,58.465a.767.767,0,1,1-.767-.733A.751.751,0,0,1,491.764,58.465Z" transform="translate(-428.138 -57.732)" fill="#2432ff"/>
                <path id="Trazado_99221" data-name="Trazado 99221" d="M500.21,58.465a.767.767,0,1,1-.767-.733A.75.75,0,0,1,500.21,58.465Z" transform="translate(-429.685 -57.732)" fill="#2432ff"/>
              </g>
              <g id="Grupo_53308" data-name="Grupo 53308" transform="translate(243.559 188.556)">
                <ellipse id="Elipse_3955" data-name="Elipse 3955" cx="0.767" cy="0.733" rx="0.767" ry="0.733" fill="#2432ff"/>
                <path id="Trazado_99222" data-name="Trazado 99222" d="M424.193,65.973a.767.767,0,1,1-.766-.733A.751.751,0,0,1,424.193,65.973Z" transform="translate(-415.761 -65.24)" fill="#2432ff"/>
                <ellipse id="Elipse_3956" data-name="Elipse 3956" cx="0.767" cy="0.733" rx="0.767" ry="0.733" transform="translate(13.798)" fill="#2432ff"/>
                <path id="Trazado_99223" data-name="Trazado 99223" d="M441.086,65.973a.767.767,0,1,1-.767-.733A.751.751,0,0,1,441.086,65.973Z" transform="translate(-418.855 -65.24)" fill="#2432ff"/>
                <path id="Trazado_99224" data-name="Trazado 99224" d="M449.532,65.973a.767.767,0,1,1-.766-.733A.751.751,0,0,1,449.532,65.973Z" transform="translate(-420.402 -65.24)" fill="#2432ff"/>
                <ellipse id="Elipse_3957" data-name="Elipse 3957" cx="0.767" cy="0.733" rx="0.767" ry="0.733" transform="translate(34.496)" fill="#2432ff"/>
                <path id="Trazado_99225" data-name="Trazado 99225" d="M466.425,65.973a.767.767,0,1,1-.767-.733A.751.751,0,0,1,466.425,65.973Z" transform="translate(-423.496 -65.24)" fill="#2432ff"/>
                <ellipse id="Elipse_3958" data-name="Elipse 3958" cx="0.767" cy="0.733" rx="0.767" ry="0.733" transform="translate(48.295)" fill="#2432ff"/>
                <ellipse id="Elipse_3959" data-name="Elipse 3959" cx="0.767" cy="0.733" rx="0.767" ry="0.733" transform="translate(55.194)" fill="#2432ff"/>
                <path id="Trazado_99226" data-name="Trazado 99226" d="M491.764,65.973A.767.767,0,1,1,491,65.24.751.751,0,0,1,491.764,65.973Z" transform="translate(-428.138 -65.24)" fill="#2432ff"/>
                <path id="Trazado_99227" data-name="Trazado 99227" d="M500.21,65.973a.767.767,0,1,1-.767-.733A.751.751,0,0,1,500.21,65.973Z" transform="translate(-429.685 -65.24)" fill="#2432ff"/>
              </g>
              <g id="Grupo_53309" data-name="Grupo 53309" transform="translate(243.559 194.42)">
                <ellipse id="Elipse_3960" data-name="Elipse 3960" cx="0.767" cy="0.733" rx="0.767" ry="0.733" transform="translate(0 0)" fill="#2432ff"/>
                <path id="Trazado_99228" data-name="Trazado 99228" d="M424.193,73.481a.767.767,0,1,1-.766-.734A.75.75,0,0,1,424.193,73.481Z" transform="translate(-415.761 -72.747)" fill="#2432ff"/>
                <ellipse id="Elipse_3961" data-name="Elipse 3961" cx="0.767" cy="0.733" rx="0.767" ry="0.733" transform="translate(13.798 0)" fill="#2432ff"/>
                <path id="Trazado_99229" data-name="Trazado 99229" d="M441.086,73.481a.767.767,0,1,1-.767-.734A.75.75,0,0,1,441.086,73.481Z" transform="translate(-418.855 -72.747)" fill="#2432ff"/>
                <path id="Trazado_99230" data-name="Trazado 99230" d="M449.532,73.481a.767.767,0,1,1-.766-.734A.75.75,0,0,1,449.532,73.481Z" transform="translate(-420.402 -72.747)" fill="#2432ff"/>
                <ellipse id="Elipse_3962" data-name="Elipse 3962" cx="0.767" cy="0.733" rx="0.767" ry="0.733" transform="translate(34.496 0)" fill="#2432ff"/>
                <path id="Trazado_99231" data-name="Trazado 99231" d="M466.425,73.481a.767.767,0,1,1-.767-.734A.751.751,0,0,1,466.425,73.481Z" transform="translate(-423.496 -72.747)" fill="#2432ff"/>
                <ellipse id="Elipse_3963" data-name="Elipse 3963" cx="0.767" cy="0.733" rx="0.767" ry="0.733" transform="translate(48.295 0)" fill="#2432ff"/>
                <ellipse id="Elipse_3964" data-name="Elipse 3964" cx="0.767" cy="0.733" rx="0.767" ry="0.733" transform="translate(55.194 0)" fill="#2432ff"/>
                <path id="Trazado_99232" data-name="Trazado 99232" d="M491.764,73.481a.767.767,0,1,1-.767-.734A.751.751,0,0,1,491.764,73.481Z" transform="translate(-428.138 -72.747)" fill="#2432ff"/>
                <path id="Trazado_99233" data-name="Trazado 99233" d="M500.21,73.481a.767.767,0,1,1-.767-.734A.75.75,0,0,1,500.21,73.481Z" transform="translate(-429.685 -72.747)" fill="#2432ff"/>
              </g>
              <g id="Grupo_53310" data-name="Grupo 53310" transform="translate(243.559 200.285)">
                <path id="Trazado_99234" data-name="Trazado 99234" d="M415.747,80.989a.767.767,0,1,1-.767-.734A.75.75,0,0,1,415.747,80.989Z" transform="translate(-414.214 -80.255)" fill="#2432ff"/>
                <path id="Trazado_99235" data-name="Trazado 99235" d="M424.193,80.989a.767.767,0,1,1-.766-.734A.75.75,0,0,1,424.193,80.989Z" transform="translate(-415.761 -80.255)" fill="#2432ff"/>
                <path id="Trazado_99236" data-name="Trazado 99236" d="M432.639,80.989a.767.767,0,1,1-.766-.734A.75.75,0,0,1,432.639,80.989Z" transform="translate(-417.308 -80.255)" fill="#2432ff"/>
                <path id="Trazado_99237" data-name="Trazado 99237" d="M441.086,80.989a.767.767,0,1,1-.767-.734A.75.75,0,0,1,441.086,80.989Z" transform="translate(-418.855 -80.255)" fill="#2432ff"/>
                <path id="Trazado_99238" data-name="Trazado 99238" d="M449.532,80.989a.767.767,0,1,1-.766-.734A.75.75,0,0,1,449.532,80.989Z" transform="translate(-420.402 -80.255)" fill="#2432ff"/>
                <path id="Trazado_99239" data-name="Trazado 99239" d="M457.978,80.989a.767.767,0,1,1-.766-.734A.75.75,0,0,1,457.978,80.989Z" transform="translate(-421.949 -80.255)" fill="#2432ff"/>
                <path id="Trazado_99240" data-name="Trazado 99240" d="M466.425,80.989a.767.767,0,1,1-.767-.734A.751.751,0,0,1,466.425,80.989Z" transform="translate(-423.496 -80.255)" fill="#2432ff"/>
                <path id="Trazado_99241" data-name="Trazado 99241" d="M474.871,80.989a.767.767,0,1,1-.766-.734A.75.75,0,0,1,474.871,80.989Z" transform="translate(-425.044 -80.255)" fill="#2432ff"/>
                <path id="Trazado_99242" data-name="Trazado 99242" d="M483.317,80.989a.767.767,0,1,1-.766-.734A.75.75,0,0,1,483.317,80.989Z" transform="translate(-426.591 -80.255)" fill="#2432ff"/>
                <path id="Trazado_99243" data-name="Trazado 99243" d="M491.764,80.989a.767.767,0,1,1-.767-.734A.751.751,0,0,1,491.764,80.989Z" transform="translate(-428.138 -80.255)" fill="#2432ff"/>
                <path id="Trazado_99244" data-name="Trazado 99244" d="M500.21,80.989a.767.767,0,1,1-.767-.734A.75.75,0,0,1,500.21,80.989Z" transform="translate(-429.685 -80.255)" fill="#2432ff"/>
              </g>
              <g id="Grupo_53311" data-name="Grupo 53311" transform="translate(243.559 206.149)">
                <ellipse id="Elipse_3965" data-name="Elipse 3965" cx="0.767" cy="0.733" rx="0.767" ry="0.733" transform="translate(0 0)" fill="#2432ff"/>
                <path id="Trazado_99245" data-name="Trazado 99245" d="M424.193,88.5a.767.767,0,1,1-.766-.734A.75.75,0,0,1,424.193,88.5Z" transform="translate(-415.761 -87.763)" fill="#2432ff"/>
                <ellipse id="Elipse_3966" data-name="Elipse 3966" cx="0.767" cy="0.733" rx="0.767" ry="0.733" transform="translate(13.798 0)" fill="#2432ff"/>
                <path id="Trazado_99246" data-name="Trazado 99246" d="M441.086,88.5a.767.767,0,1,1-.767-.734A.75.75,0,0,1,441.086,88.5Z" transform="translate(-418.855 -87.763)" fill="#2432ff"/>
                <path id="Trazado_99247" data-name="Trazado 99247" d="M449.532,88.5a.767.767,0,1,1-.766-.734A.75.75,0,0,1,449.532,88.5Z" transform="translate(-420.402 -87.763)" fill="#2432ff"/>
                <ellipse id="Elipse_3967" data-name="Elipse 3967" cx="0.767" cy="0.733" rx="0.767" ry="0.733" transform="translate(34.496 0)" fill="#2432ff"/>
                <path id="Trazado_99248" data-name="Trazado 99248" d="M466.425,88.5a.767.767,0,1,1-.767-.734A.751.751,0,0,1,466.425,88.5Z" transform="translate(-423.496 -87.763)" fill="#2432ff"/>
                <ellipse id="Elipse_3968" data-name="Elipse 3968" cx="0.767" cy="0.733" rx="0.767" ry="0.733" transform="translate(48.295 0)" fill="#2432ff"/>
                <ellipse id="Elipse_3969" data-name="Elipse 3969" cx="0.767" cy="0.733" rx="0.767" ry="0.733" transform="translate(55.194 0)" fill="#2432ff"/>
                <path id="Trazado_99249" data-name="Trazado 99249" d="M491.764,88.5a.767.767,0,1,1-.767-.734A.751.751,0,0,1,491.764,88.5Z" transform="translate(-428.138 -87.763)" fill="#2432ff"/>
                <path id="Trazado_99250" data-name="Trazado 99250" d="M500.21,88.5a.767.767,0,1,1-.767-.734A.75.75,0,0,1,500.21,88.5Z" transform="translate(-429.685 -87.763)" fill="#2432ff"/>
              </g>
              <g id="Grupo_53312" data-name="Grupo 53312" transform="translate(243.559 212.014)">
                <ellipse id="Elipse_3970" data-name="Elipse 3970" cx="0.767" cy="0.733" rx="0.767" ry="0.733" fill="#2432ff"/>
                <path id="Trazado_99251" data-name="Trazado 99251" d="M424.193,96a.767.767,0,1,1-.766-.733A.75.75,0,0,1,424.193,96Z" transform="translate(-415.761 -95.271)" fill="#2432ff"/>
                <ellipse id="Elipse_3971" data-name="Elipse 3971" cx="0.767" cy="0.733" rx="0.767" ry="0.733" transform="translate(13.798)" fill="#2432ff"/>
                <path id="Trazado_99252" data-name="Trazado 99252" d="M441.086,96a.767.767,0,1,1-.767-.733A.75.75,0,0,1,441.086,96Z" transform="translate(-418.855 -95.271)" fill="#2432ff"/>
                <path id="Trazado_99253" data-name="Trazado 99253" d="M449.532,96a.767.767,0,1,1-.766-.733A.75.75,0,0,1,449.532,96Z" transform="translate(-420.402 -95.271)" fill="#2432ff"/>
                <ellipse id="Elipse_3972" data-name="Elipse 3972" cx="0.767" cy="0.733" rx="0.767" ry="0.733" transform="translate(34.496)" fill="#2432ff"/>
                <path id="Trazado_99254" data-name="Trazado 99254" d="M466.425,96a.767.767,0,1,1-.767-.733A.751.751,0,0,1,466.425,96Z" transform="translate(-423.496 -95.271)" fill="#2432ff"/>
                <ellipse id="Elipse_3973" data-name="Elipse 3973" cx="0.767" cy="0.733" rx="0.767" ry="0.733" transform="translate(48.295)" fill="#2432ff"/>
                <ellipse id="Elipse_3974" data-name="Elipse 3974" cx="0.767" cy="0.733" rx="0.767" ry="0.733" transform="translate(55.194)" fill="#2432ff"/>
                <path id="Trazado_99255" data-name="Trazado 99255" d="M491.764,96a.767.767,0,1,1-.767-.733A.751.751,0,0,1,491.764,96Z" transform="translate(-428.138 -95.271)" fill="#2432ff"/>
                <path id="Trazado_99256" data-name="Trazado 99256" d="M500.21,96a.767.767,0,1,1-.767-.733A.75.75,0,0,1,500.21,96Z" transform="translate(-429.685 -95.271)" fill="#2432ff"/>
              </g>
              <g id="Grupo_53313" data-name="Grupo 53313" transform="translate(243.559 217.879)">
                <path id="Trazado_99257" data-name="Trazado 99257" d="M415.747,103.512a.767.767,0,1,1-.767-.733A.75.75,0,0,1,415.747,103.512Z" transform="translate(-414.214 -102.779)" fill="#2432ff"/>
                <path id="Trazado_99258" data-name="Trazado 99258" d="M424.193,103.512a.767.767,0,1,1-.766-.733A.75.75,0,0,1,424.193,103.512Z" transform="translate(-415.761 -102.779)" fill="#2432ff"/>
                <path id="Trazado_99259" data-name="Trazado 99259" d="M432.639,103.512a.767.767,0,1,1-.766-.733A.75.75,0,0,1,432.639,103.512Z" transform="translate(-417.308 -102.779)" fill="#2432ff"/>
                <path id="Trazado_99260" data-name="Trazado 99260" d="M441.086,103.512a.767.767,0,1,1-.767-.733A.75.75,0,0,1,441.086,103.512Z" transform="translate(-418.855 -102.779)" fill="#2432ff"/>
                <path id="Trazado_99261" data-name="Trazado 99261" d="M449.532,103.512a.767.767,0,1,1-.766-.733A.75.75,0,0,1,449.532,103.512Z" transform="translate(-420.402 -102.779)" fill="#2432ff"/>
                <path id="Trazado_99262" data-name="Trazado 99262" d="M457.978,103.512a.767.767,0,1,1-.766-.733A.75.75,0,0,1,457.978,103.512Z" transform="translate(-421.949 -102.779)" fill="#2432ff"/>
                <path id="Trazado_99263" data-name="Trazado 99263" d="M466.425,103.512a.767.767,0,1,1-.767-.733A.751.751,0,0,1,466.425,103.512Z" transform="translate(-423.496 -102.779)" fill="#2432ff"/>
                <path id="Trazado_99264" data-name="Trazado 99264" d="M474.871,103.512a.767.767,0,1,1-.766-.733A.75.75,0,0,1,474.871,103.512Z" transform="translate(-425.044 -102.779)" fill="#2432ff"/>
                <path id="Trazado_99265" data-name="Trazado 99265" d="M483.317,103.512a.767.767,0,1,1-.766-.733A.75.75,0,0,1,483.317,103.512Z" transform="translate(-426.591 -102.779)" fill="#2432ff"/>
                <path id="Trazado_99266" data-name="Trazado 99266" d="M491.764,103.512a.767.767,0,1,1-.767-.733A.751.751,0,0,1,491.764,103.512Z" transform="translate(-428.138 -102.779)" fill="#2432ff"/>
                <path id="Trazado_99267" data-name="Trazado 99267" d="M500.21,103.512a.767.767,0,1,1-.767-.733A.75.75,0,0,1,500.21,103.512Z" transform="translate(-429.685 -102.779)" fill="#2432ff"/>
              </g>
              <g id="Grupo_53314" data-name="Grupo 53314" transform="translate(243.559 223.744)">
                <ellipse id="Elipse_3975" data-name="Elipse 3975" cx="0.767" cy="0.733" rx="0.767" ry="0.733" fill="#2432ff"/>
                <path id="Trazado_99268" data-name="Trazado 99268" d="M424.193,111.02a.767.767,0,1,1-.766-.733A.751.751,0,0,1,424.193,111.02Z" transform="translate(-415.761 -110.287)" fill="#2432ff"/>
                <ellipse id="Elipse_3976" data-name="Elipse 3976" cx="0.767" cy="0.733" rx="0.767" ry="0.733" transform="translate(13.798)" fill="#2432ff"/>
                <path id="Trazado_99269" data-name="Trazado 99269" d="M441.086,111.02a.767.767,0,1,1-.767-.733A.751.751,0,0,1,441.086,111.02Z" transform="translate(-418.855 -110.287)" fill="#2432ff"/>
                <path id="Trazado_99270" data-name="Trazado 99270" d="M449.532,111.02a.767.767,0,1,1-.766-.733A.751.751,0,0,1,449.532,111.02Z" transform="translate(-420.402 -110.287)" fill="#2432ff"/>
                <ellipse id="Elipse_3977" data-name="Elipse 3977" cx="0.767" cy="0.733" rx="0.767" ry="0.733" transform="translate(34.496)" fill="#2432ff"/>
                <path id="Trazado_99271" data-name="Trazado 99271" d="M466.425,111.02a.767.767,0,1,1-.767-.733A.751.751,0,0,1,466.425,111.02Z" transform="translate(-423.496 -110.287)" fill="#2432ff"/>
                <ellipse id="Elipse_3978" data-name="Elipse 3978" cx="0.767" cy="0.733" rx="0.767" ry="0.733" transform="translate(48.295)" fill="#2432ff"/>
                <ellipse id="Elipse_3979" data-name="Elipse 3979" cx="0.767" cy="0.733" rx="0.767" ry="0.733" transform="translate(55.194)" fill="#2432ff"/>
                <path id="Trazado_99272" data-name="Trazado 99272" d="M491.764,111.02a.767.767,0,1,1-.767-.733A.751.751,0,0,1,491.764,111.02Z" transform="translate(-428.138 -110.287)" fill="#2432ff"/>
                <path id="Trazado_99273" data-name="Trazado 99273" d="M500.21,111.02a.767.767,0,1,1-.767-.733A.751.751,0,0,1,500.21,111.02Z" transform="translate(-429.685 -110.287)" fill="#2432ff"/>
              </g>
              <g id="Grupo_53315" data-name="Grupo 53315" transform="translate(243.559 229.608)">
                <path id="Trazado_99274" data-name="Trazado 99274" d="M415.747,118.528a.767.767,0,1,1-.767-.734A.751.751,0,0,1,415.747,118.528Z" transform="translate(-414.214 -117.794)" fill="#2432ff"/>
                <path id="Trazado_99275" data-name="Trazado 99275" d="M424.193,118.528a.767.767,0,1,1-.766-.734A.751.751,0,0,1,424.193,118.528Z" transform="translate(-415.761 -117.794)" fill="#2432ff"/>
                <path id="Trazado_99276" data-name="Trazado 99276" d="M432.639,118.528a.767.767,0,1,1-.766-.734A.751.751,0,0,1,432.639,118.528Z" transform="translate(-417.308 -117.794)" fill="#2432ff"/>
                <path id="Trazado_99277" data-name="Trazado 99277" d="M441.086,118.528a.767.767,0,1,1-.767-.734A.751.751,0,0,1,441.086,118.528Z" transform="translate(-418.855 -117.794)" fill="#2432ff"/>
                <path id="Trazado_99278" data-name="Trazado 99278" d="M449.532,118.528a.767.767,0,1,1-.766-.734A.751.751,0,0,1,449.532,118.528Z" transform="translate(-420.402 -117.794)" fill="#2432ff"/>
                <path id="Trazado_99279" data-name="Trazado 99279" d="M457.978,118.528a.767.767,0,1,1-.766-.734A.751.751,0,0,1,457.978,118.528Z" transform="translate(-421.949 -117.794)" fill="#2432ff"/>
                <path id="Trazado_99280" data-name="Trazado 99280" d="M466.425,118.528a.767.767,0,1,1-.767-.734A.751.751,0,0,1,466.425,118.528Z" transform="translate(-423.496 -117.794)" fill="#2432ff"/>
                <path id="Trazado_99281" data-name="Trazado 99281" d="M474.871,118.528a.767.767,0,1,1-.766-.734A.751.751,0,0,1,474.871,118.528Z" transform="translate(-425.044 -117.794)" fill="#2432ff"/>
                <path id="Trazado_99282" data-name="Trazado 99282" d="M483.317,118.528a.767.767,0,1,1-.766-.734A.751.751,0,0,1,483.317,118.528Z" transform="translate(-426.591 -117.794)" fill="#2432ff"/>
                <path id="Trazado_99283" data-name="Trazado 99283" d="M491.764,118.528a.767.767,0,1,1-.767-.734A.751.751,0,0,1,491.764,118.528Z" transform="translate(-428.138 -117.794)" fill="#2432ff"/>
                <path id="Trazado_99284" data-name="Trazado 99284" d="M500.21,118.528a.767.767,0,1,1-.767-.734A.751.751,0,0,1,500.21,118.528Z" transform="translate(-429.685 -117.794)" fill="#2432ff"/>
              </g>
              <g id="Grupo_53316" data-name="Grupo 53316" transform="translate(243.559 235.473)">
                <ellipse id="Elipse_3980" data-name="Elipse 3980" cx="0.767" cy="0.733" rx="0.767" ry="0.733" transform="translate(0 0)" fill="#2432ff"/>
                <path id="Trazado_99285" data-name="Trazado 99285" d="M424.193,126.036a.767.767,0,1,1-.766-.734A.75.75,0,0,1,424.193,126.036Z" transform="translate(-415.761 -125.302)" fill="#2432ff"/>
                <ellipse id="Elipse_3981" data-name="Elipse 3981" cx="0.767" cy="0.733" rx="0.767" ry="0.733" transform="translate(13.798 0)" fill="#2432ff"/>
                <path id="Trazado_99286" data-name="Trazado 99286" d="M441.086,126.036a.767.767,0,1,1-.767-.734A.75.75,0,0,1,441.086,126.036Z" transform="translate(-418.855 -125.302)" fill="#2432ff"/>
                <path id="Trazado_99287" data-name="Trazado 99287" d="M449.532,126.036a.767.767,0,1,1-.766-.734A.75.75,0,0,1,449.532,126.036Z" transform="translate(-420.402 -125.302)" fill="#2432ff"/>
                <ellipse id="Elipse_3982" data-name="Elipse 3982" cx="0.767" cy="0.733" rx="0.767" ry="0.733" transform="translate(34.496 0)" fill="#2432ff"/>
                <path id="Trazado_99288" data-name="Trazado 99288" d="M466.425,126.036a.767.767,0,1,1-.767-.734A.751.751,0,0,1,466.425,126.036Z" transform="translate(-423.496 -125.302)" fill="#2432ff"/>
                <ellipse id="Elipse_3983" data-name="Elipse 3983" cx="0.767" cy="0.733" rx="0.767" ry="0.733" transform="translate(48.295 0)" fill="#2432ff"/>
                <ellipse id="Elipse_3984" data-name="Elipse 3984" cx="0.767" cy="0.733" rx="0.767" ry="0.733" transform="translate(55.194 0)" fill="#2432ff"/>
                <path id="Trazado_99289" data-name="Trazado 99289" d="M491.764,126.036A.767.767,0,1,1,491,125.3.751.751,0,0,1,491.764,126.036Z" transform="translate(-428.138 -125.302)" fill="#2432ff"/>
                <path id="Trazado_99290" data-name="Trazado 99290" d="M500.21,126.036a.767.767,0,1,1-.767-.734A.75.75,0,0,1,500.21,126.036Z" transform="translate(-429.685 -125.302)" fill="#2432ff"/>
              </g>
              <g id="Grupo_53317" data-name="Grupo 53317" transform="translate(243.559 241.339)">
                <ellipse id="Elipse_3985" data-name="Elipse 3985" cx="0.767" cy="0.733" rx="0.767" ry="0.733" transform="translate(0 0)" fill="#2432ff"/>
                <path id="Trazado_99291" data-name="Trazado 99291" d="M424.193,133.544a.767.767,0,1,1-.766-.734A.75.75,0,0,1,424.193,133.544Z" transform="translate(-415.761 -132.81)" fill="#2432ff"/>
                <ellipse id="Elipse_3986" data-name="Elipse 3986" cx="0.767" cy="0.733" rx="0.767" ry="0.733" transform="translate(13.798 0)" fill="#2432ff"/>
                <path id="Trazado_99292" data-name="Trazado 99292" d="M441.086,133.544a.767.767,0,1,1-.767-.734A.75.75,0,0,1,441.086,133.544Z" transform="translate(-418.855 -132.81)" fill="#2432ff"/>
                <path id="Trazado_99293" data-name="Trazado 99293" d="M449.532,133.544a.767.767,0,1,1-.766-.734A.75.75,0,0,1,449.532,133.544Z" transform="translate(-420.402 -132.81)" fill="#2432ff"/>
                <ellipse id="Elipse_3987" data-name="Elipse 3987" cx="0.767" cy="0.733" rx="0.767" ry="0.733" transform="translate(34.496 0)" fill="#2432ff"/>
                <path id="Trazado_99294" data-name="Trazado 99294" d="M466.425,133.544a.767.767,0,1,1-.767-.734A.751.751,0,0,1,466.425,133.544Z" transform="translate(-423.496 -132.81)" fill="#2432ff"/>
                <ellipse id="Elipse_3988" data-name="Elipse 3988" cx="0.767" cy="0.733" rx="0.767" ry="0.733" transform="translate(48.295 0)" fill="#2432ff"/>
                <ellipse id="Elipse_3989" data-name="Elipse 3989" cx="0.767" cy="0.733" rx="0.767" ry="0.733" transform="translate(55.194 0)" fill="#2432ff"/>
                <path id="Trazado_99295" data-name="Trazado 99295" d="M491.764,133.544a.767.767,0,1,1-.767-.734A.751.751,0,0,1,491.764,133.544Z" transform="translate(-428.138 -132.81)" fill="#2432ff"/>
                <path id="Trazado_99296" data-name="Trazado 99296" d="M500.21,133.544a.767.767,0,1,1-.767-.734A.75.75,0,0,1,500.21,133.544Z" transform="translate(-429.685 -132.81)" fill="#2432ff"/>
              </g>
            </g>
          </g>
        </g>
      </g>
    </g>
    <g id="Grupo_142637" data-name="Grupo 142637">
      <path id="Trazado_145967" data-name="Trazado 145967" d="M127.348,0A127.5,127.5,0,1,1,0,127.5,127.424,127.424,0,0,1,127.348,0Z" transform="translate(206.146 364.414)" fill="#f67409"/>
      <g id="Grupo_129577" data-name="Grupo 129577" transform="translate(-4073.612 -75.095)">
        <path id="Trazado_194582" data-name="Trazado 194582" d="M4711.869,1643.286c0,4.13-68.248,7.478-152.435,7.478s-144.49-2.538-144.49-6.669,60.3-8.289,144.49-8.289S4711.869,1639.156,4711.869,1643.286Z" transform="translate(-142.755 -956.256)" fill="#e3e5eb"/>
        <path id="Trazado_202277" data-name="Trazado 202277" d="M0,0H211.16V141.7H0Z" transform="translate(4304.8 495.58)" fill="#b5d89b"/>
        <rect id="Rectángulo_41330" data-name="Rectángulo 41330" width="201.409" height="23.588" transform="translate(4293.774 483.513)" fill="#12263f"/>
        <circle id="Elipse_6184" data-name="Elipse 6184" cx="2.872" cy="2.872" r="2.872" transform="translate(4302.793 494.867) rotate(-45)" fill="#fff"/>
        <circle id="Elipse_6185" data-name="Elipse 6185" cx="2.872" cy="2.872" r="2.872" transform="matrix(0.23, -0.973, 0.973, 0.23, 4314.369, 497.002)" fill="#fff"/>
        <circle id="Elipse_6186" data-name="Elipse 6186" cx="2.872" cy="2.872" r="2.872" transform="translate(4325.321 496.421) rotate(-67.5)" fill="#fff"/>
        <g id="Grupo_129565" data-name="Grupo 129565" transform="translate(4327.414 499.216)">
          <g id="Grupo_129564" data-name="Grupo 129564" transform="translate(0 0)">
            <path id="Trazado_194584" data-name="Trazado 194584" d="M4656.18,971.588,4681.472,954l20.6-29.96a1.192,1.192,0,0,1,1.446-.425l36.881,15.441,12.977-41.753a1.2,1.2,0,0,1,.9-.817l60.237-12.24,30.175-35.443a1.2,1.2,0,1,1,1.821,1.55l-30.442,35.757a1.2,1.2,0,0,1-.673.4l-59.948,12.181-13.159,42.333a1.195,1.195,0,0,1-1.6.748l-37.2-15.574-20.168,29.339a1.179,1.179,0,0,1-.3.3L4657.751,974C4657.543,974.149,4655.638,971.965,4656.18,971.588Z" transform="translate(-4656.083 -848.383)" fill="#9ba8d4"/>
          </g>
        </g>
        <circle id="Elipse_6190" data-name="Elipse 6190" cx="5.055" cy="5.055" r="5.055" transform="translate(4480.776 530.478)" fill="#9ba8d4"/>
        <circle id="Elipse_6191" data-name="Elipse 6191" cx="5.055" cy="5.055" r="5.055" transform="translate(4405.044 590.469) rotate(-45)" fill="#9ba8d4"/>
        <circle id="Elipse_6192" data-name="Elipse 6192" cx="5.055" cy="5.055" r="5.055" transform="translate(4368.603 579.369) rotate(-76.718)" fill="#9ba8d4"/>
        <circle id="Elipse_6193" data-name="Elipse 6193" cx="5.055" cy="5.055" r="5.055" transform="translate(4346.677 608.905) rotate(-76.717)" fill="#9ba8d4"/>
        <circle id="Elipse_6194" data-name="Elipse 6194" cx="17.396" cy="17.396" r="17.396" transform="matrix(0.122, -0.993, 0.993, 0.122, 4410.174, 564.777)" fill="#f9a56e"/>
        <g id="Grupo_129566" data-name="Grupo 129566" transform="translate(4426.931 537.221)">
          <path id="Trazado_194585" data-name="Trazado 194585" d="M5093.131,1037.22a2.408,2.408,0,0,1-1.8-.739,2.807,2.807,0,0,1,0-3.759,2.408,2.408,0,0,1,1.8-.739,2.358,2.358,0,0,1,1.779.739,2.86,2.86,0,0,1,0,3.759A2.358,2.358,0,0,1,5093.131,1037.22Zm-1.847-19.065-.1-3.826h3.893l-.134,3.826-.538,11.445h-2.583Z" transform="translate(-5090.613 -1014.329)" fill="#fff"/>
        </g>
        <g id="Grupo_129571" data-name="Grupo 129571" transform="translate(4339.765 624.486)">
          <ellipse id="Elipse_6195" data-name="Elipse 6195" cx="58.318" cy="3.587" rx="58.318" ry="3.587" transform="translate(0 59.277)" fill="#e3e5eb"/>
          <g id="Grupo_129569" data-name="Grupo 129569" transform="translate(30.398 0)">
            <g id="Grupo_129568" data-name="Grupo 129568">
              <rect id="Rectángulo_41331" data-name="Rectángulo 41331" width="14.19" height="33.749" transform="translate(0 28.366)" fill="#3b487a"/>
              <g id="Grupo_129567" data-name="Grupo 129567" transform="translate(28.223 11.163)">
                <rect id="Rectángulo_41332" data-name="Rectángulo 41332" width="19.632" height="50.952" fill="#9ba6c9"/>
              </g>
              <rect id="Rectángulo_41333" data-name="Rectángulo 41333" width="18.183" height="62.115" transform="translate(61.462)" fill="#5a6de0"/>
            </g>
          </g>
          <g id="Grupo_129570" data-name="Grupo 129570" transform="translate(20.148 0)">
            <rect id="Rectángulo_41334" data-name="Rectángulo 41334" width="16.341" height="33.749" transform="translate(0 28.366)" fill="#6a80cc"/>
            <rect id="Rectángulo_41335" data-name="Rectángulo 41335" width="19.632" height="50.952" transform="translate(31.224 11.163)" fill="#afb9d6"/>
            <rect id="Rectángulo_41336" data-name="Rectángulo 41336" width="18.183" height="62.115" transform="translate(64.64)" fill="#6e80eb"/>
          </g>
        </g>
        <g id="Grupo_129574" data-name="Grupo 129574" transform="translate(4399.191 518.997)">
          <path id="Trazado_194586" data-name="Trazado 194586" d="M5221.544,1218.338c-3.345,1.007-5.521.682-7.764-1.5l-5.085-11.591,3.267-1.566,8.729,10.35Z" transform="translate(-5153.914 -1142.09)" fill="#d96e4e" fill-rule="evenodd"/>
          <path id="Trazado_194587" data-name="Trazado 194587" d="M5199.491,1191.82l-1.944-2.663a2.753,2.753,0,0,0-1.6-1.058l-2.6-.608a1.333,1.333,0,0,0-1.626,1.468h0l2.633,3.209a4.15,4.15,0,0,0,2.465,1.391l1.673.309Z" transform="translate(-5140.819 -1129.582)" fill="#d96e4e"/>
          <path id="Trazado_194588" data-name="Trazado 194588" d="M5247.6,1173.2c-1.837.305-2.454-2.755-1.7-4.456l5.068-13.073c1.383-3.481,4.491-5.633,6.532-4.523h0c.805.438.913,1.852.242,3.176l-7.785,21.4Z" transform="translate(-5182.353 -1101.363)" fill="#d96e4e" fill-rule="evenodd"/>
          <path id="Trazado_194589" data-name="Trazado 194589" d="M5277.691,1413.021s3.934-26.3-1.146-36.7l2.773-35.674-16.627,1.147,11.2,71.436Z" transform="translate(-5195.544 -1247.688)" fill="#d96e4e" fill-rule="evenodd"/>
          <path id="Trazado_194590" data-name="Trazado 194590" d="M5285.548,1652.16l-3.3,2.4a22.6,22.6,0,0,1-4.189,1.748h0c-.354.738.337,1.127.923,1.224l10.445-.219s2.413-.5.272-5.151C5287.8,1653,5286.043,1653.606,5285.548,1652.16Z" transform="translate(-5207.317 -1487.861)" fill="#221f14" fill-rule="evenodd"/>
          <path id="Trazado_194591" data-name="Trazado 194591" d="M5257.641,1366.816l3.846,30.211,5.061,30.287h12.168s-1.137-5.266-1-6.937.575-17.52-3.132-24.811l.294-29.694Z" transform="translate(-5191.649 -1267.138)" fill="#12263f" fill-rule="evenodd"/>
          <path id="Trazado_194592" data-name="Trazado 194592" d="M5312.8,1395.566l.292-29.694-5.775.316-.214,21.745a48.159,48.159,0,0,0,1.514,12.125c1.974,7.912,1.653,18.94,1.542,20.319-.134,1.671,1,6.937,1,6.937h5.772s-1.136-5.266-1-6.937S5316.512,1402.857,5312.8,1395.566Z" transform="translate(-5229.784 -1267.138)" fill="#0b1624" fill-rule="evenodd"/>
          <path id="Trazado_194593" data-name="Trazado 194593" d="M5341.563,1409.868s1.748-26.613-4.2-37.143l-.193-36.1-16.532,1.16,17.146,72.3Z" transform="translate(-5240.22 -1244.587)" fill="#d96e4e" fill-rule="evenodd"/>
          <path id="Trazado_194594" data-name="Trazado 194594" d="M5370.245,1651.878l-3.1,2.433c-.6.6-4.044,1.77-4.044,1.77h0c-.292.747.431,1.14,1.025,1.238l10.428-.222s2.371-.507-.156-5.213C5372.565,1652.733,5370.861,1653.342,5370.245,1651.878Z" transform="translate(-5272.904 -1487.644)" fill="#221f14" fill-rule="evenodd"/>
          <path id="Trazado_194595" data-name="Trazado 194595" d="M5317.611,1353.375l6.36,30.574,7.58,30.65h12.166s-1.573-5.329-1.579-7.02-.878-17.73-5.195-25.109l-1.8-32.942Z" transform="translate(-5237.884 -1254.537)" fill="#12263f" fill-rule="evenodd"/>
          <path id="Trazado_194596" data-name="Trazado 194596" d="M5281.608,1263.451l-22.726,1.731c-3.7,1.358-2.22,22.669-2.22,22.669l14.943.692c6.942-.145,15.153,5.3,16.017-6.268C5288.609,1269.053,5281.608,1263.451,5281.608,1263.451Z" transform="translate(-5190.67 -1188.173)" fill="#a7b3d9" fill-rule="evenodd"/>
          <path id="Trazado_194597" data-name="Trazado 194597" d="M5261.744,1143.553l5.057-1.726,6.842-.466,8.7,3.033a6.393,6.393,0,0,1,3.169,7.936l-2.128,9.955c2.262,7.509,3.43,12.773,3.036,20.5-12.333,4.58-29.285,4.355-33.177-1.3C5253.9,1166.016,5255.737,1153.508,5261.744,1143.553Z" transform="translate(-5188.257 -1094.045)" fill="#fff" fill-rule="evenodd"/>
          <path id="Trazado_194598" data-name="Trazado 194598" d="M5309.759,1139.424s-2.735,6.77,1.912,7.067,7.189-6.739,7.189-6.739l-3.393-1.508Z" transform="translate(-5231.216 -1091.641)" fill="#d96e4e"/>
          <path id="Trazado_194599" data-name="Trazado 194599" d="M5376.833,1177.984l-10.038-13.766c-2.463-3.286-2.012-7.034.951-7.876h0a3.524,3.524,0,0,1,3.564,1.855l10.8,16.83Z" transform="translate(-5274.576 -1105.538)" fill="#d96e4e" fill-rule="evenodd"/>
          <g id="Grupo_129572" data-name="Grupo 129572" transform="translate(0 0)">
            <rect id="Rectángulo_41337" data-name="Rectángulo 41337" width="5.264" height="21.695" transform="matrix(0.674, -0.739, 0.739, 0.674, 49.551, 54.797)" fill="#25284d"/>
            <path id="Trazado_194600" data-name="Trazado 194600" d="M5274.7,1237.625h0a5.748,5.748,0,0,1-8.1.357l-32.823-30.058a5.749,5.749,0,0,1-.357-8.1h0a5.746,5.746,0,0,1,8.1-.356l32.826,30.058A5.748,5.748,0,0,1,5274.7,1237.625Z" transform="translate(-5171.824 -1137.692)" fill="#464a82"/>
            <path id="Trazado_194601" data-name="Trazado 194601" d="M4977.5,944.664a30.518,30.518,0,1,0,43.117-1.9A30.517,30.517,0,0,0,4977.5,944.664Zm41.021,37.565a25.105,25.105,0,1,1-1.562-35.47A25.1,25.1,0,0,1,5018.525,982.229Z" transform="translate(-4969.492 -934.755)" fill="#464a82"/>
          </g>
          <path id="Trazado_194602" data-name="Trazado 194602" d="M5373.3,1238.174c1.356,2.9.655,5.338-2.5,7.285l-17.025,6.18.128-3.771,13.067-8.389Z" transform="translate(-5265.764 -1168.685)" fill="#d96e4e" fill-rule="evenodd"/>
          <path id="Trazado_194603" data-name="Trazado 194603" d="M5341.126,1280.5l-2.526,2.122a2.751,2.751,0,0,0-.947,1.666l-.43,2.635a1.331,1.331,0,0,0,1.577,1.52h0l3.024-2.845a4.145,4.145,0,0,0,1.22-2.554l.194-1.69Z" transform="translate(-5252.992 -1201.32)" fill="#d96e4e"/>
          <g id="Grupo_129573" data-name="Grupo 129573" transform="translate(75.062 32.785)">
            <path id="Trazado_194604" data-name="Trazado 194604" d="M5309.316,1112.625s1.054,3.593,1.928,6.57a2.28,2.28,0,0,0,1.667,1.584,2.242,2.242,0,0,0,2.179-.687l.522-.579a2.95,2.95,0,0,0,.531-3.088l-3.1-7.579-3.724,3.779Z" transform="translate(-5306.552 -1101.761)" fill="#d96e4e" fill-rule="evenodd"/>
            <path id="Trazado_194605" data-name="Trazado 194605" d="M5311.106,1132.916l.8,2.108,1.486-2.459Z" transform="translate(-5307.932 -1120.047)" fill="#a6543c" fill-rule="evenodd"/>
            <path id="Trazado_194606" data-name="Trazado 194606" d="M5305.478,1093.985a1.986,1.986,0,0,0-1.6-2.3l-3.722-.662a2.094,2.094,0,0,0-2.276,1.613,21.461,21.461,0,0,0-.635,5.822,2.407,2.407,0,0,0,1.753,2.413c1.142.2,4.751-.288,5.44-2.292a28.916,28.916,0,0,0,1.035-4.592Z" transform="translate(-5297.246 -1087.996)" fill="#d96e4e" fill-rule="evenodd"/>
            <path id="Trazado_194607" data-name="Trazado 194607" d="M5313.322,1092.33s-.886-5.562-2.494-7.168c-2.162-2.158-5.1-3.368-8.356-.7,0,0,.456,4.91,5.816,9.018Z" transform="translate(-5301.275 -1081.783)" fill="#78442a" fill-rule="evenodd"/>
            <path id="Trazado_194608" data-name="Trazado 194608" d="M5312.128,1111.271a1.487,1.487,0,0,1-1.963.74,1.525,1.525,0,0,1-.353-2.089,1.489,1.489,0,0,1,1.966-.74A1.522,1.522,0,0,1,5312.128,1111.271Z" transform="translate(-5306.74 -1101.901)" fill="#d96e4e" fill-rule="evenodd"/>
            <path id="Trazado_194609" data-name="Trazado 194609" d="M5341.069,1094.552a2.391,2.391,0,0,1,.257-1.933c2.733-4.784-4.361-7.159-6.492-8.384-2.224-1.278-.211-5.12-4.761-6.1s-5.716,1.481-5.934,1.435c-.32-.066,1.011,4.186,1.011,4.186s2.267.461,2.717,4.849-.459,6.8,2.631,9.94,13.334-2.5,13.334-2.5C5342.047,1096.227,5341.342,1095.365,5341.069,1094.552Z" transform="translate(-5317.943 -1077.908)" fill="#78442a" fill-rule="evenodd"/>
            <path id="Trazado_194610" data-name="Trazado 194610" d="M5324.729,1084.02s-1.272,2.466,1.733,3.925" transform="translate(-5318.228 -1082.62)" fill="none" stroke="#fff" stroke-linecap="round" stroke-linejoin="round" stroke-width="2.724"/>
          </g>
        </g>
        <g id="Grupo_129576" data-name="Grupo 129576" transform="translate(4280.776 537.763)">
          <g id="Grupo_129575" data-name="Grupo 129575" transform="translate(0 22.37)">
            <path id="Trazado_194611" data-name="Trazado 194611" d="M4480.862,1209.134c-3.054-.874-6.127.3-7.65,3.995l-3.914,19.124,3.73-.855,5.045-13.8Z" transform="translate(-4465.438 -1187.22)" fill="#c95836" fill-rule="evenodd"/>
            <path id="Trazado_194612" data-name="Trazado 194612" d="M4460.03,1300.333l-1.778,3.068a3,3,0,0,1-1.532,1.317l-2.561.957a1.29,1.29,0,0,1-1.717-1.371h0l2.432-3.732a4.453,4.453,0,0,1,2.378-1.773l1.653-.528Z" transform="translate(-4452.439 -1256.155)" fill="#c95836"/>
            <path id="Trazado_194613" data-name="Trazado 194613" d="M4493.559,1114.374c-4.69.6-19.111,20.08-19.659,22.152-.619,2.331-4.65,15.769-4.65,15.769l6.832,1.29s4.944-11.118,5.895-11.957,14.1-12.627,14.1-12.627Z" transform="translate(-4465.4 -1114.374)" fill="#6e80eb" fill-rule="evenodd"/>
          </g>
          <path id="Trazado_194614" data-name="Trazado 194614" d="M4757.628,1045.5c2.481,2.264,5.944,2.6,9.124-.184l12.7-16.268-3.933-.945-11.269,10.69Z" transform="translate(-4687.734 -1025.488)" fill="#c95836" fill-rule="evenodd"/>
          <path id="Trazado_194615" data-name="Trazado 194615" d="M4835.757,1019.307l3.127-2.069a3.171,3.171,0,0,1,2.069-.526l2.876.3a1.363,1.363,0,0,1,.98,2.105h0l-4.057,2.39a4.708,4.708,0,0,1-3.086.561l-1.813-.278Z" transform="translate(-4747.97 -1016.696)" fill="#c95836"/>
          <path id="Trazado_194616" data-name="Trazado 194616" d="M4659.966,1071.2c4.724,1.638,27.542-10.025,29.037-11.728,1.683-1.916,11.822-12.745,11.822-12.745l-5.863-4.435s-9.913,8.2-11.207,8.55-20.884,5.358-20.884,5.358Z" transform="translate(-4612.438 -1036.427)" fill="#6e80eb" fill-rule="evenodd"/>
          <path id="Trazado_194617" data-name="Trazado 194617" d="M4646.447,1047.884s2.217-2.622-.841-5.2-3.246,3.808-3.147,3.885S4646.447,1047.884,4646.447,1047.884Z" transform="translate(-4598.926 -1036.261)" fill="#572a22" fill-rule="evenodd"/>
          <path id="Trazado_194618" data-name="Trazado 194618" d="M4621.172,1057.6s.541,3.254,3.009,3.215,2.173-7.133,2.173-7.133Z" transform="translate(-4582.528 -1045.211)" fill="#572a22" fill-rule="evenodd"/>
          <path id="Trazado_194619" data-name="Trazado 194619" d="M4634.875,1067.679s-.072,3.557-.134,6.5a2.111,2.111,0,0,1-1.284,1.852,2.722,2.722,0,0,1-2.47-.119l-.708-.41a2.739,2.739,0,0,1-1.437-2.718c.381-2.733,1.071-7.711,1.071-7.711l4.961,2.6Z" transform="translate(-4588.424 -1053.997)" fill="#c95836" fill-rule="evenodd"/>
          <path id="Trazado_194620" data-name="Trazado 194620" d="M4647.732,1086.351l-.275,2-2.206-1.79Z" transform="translate(-4601.094 -1070.399)" fill="#633c1d" fill-rule="evenodd"/>
          <path id="Trazado_194621" data-name="Trazado 194621" d="M4627.68,1049.47a1.885,1.885,0,0,1,1.4-2.263l3.5-.812a1.989,1.989,0,0,1,2.239,1.417,20.408,20.408,0,0,1,.89,5.492,2.285,2.285,0,0,1-1.542,2.376c-1.074.249-4.523-.038-5.275-1.905a27.372,27.372,0,0,1-1.209-4.305Z" transform="translate(-4587.51 -1039.558)" fill="#c95836" fill-rule="evenodd"/>
          <path id="Trazado_194622" data-name="Trazado 194622" d="M4618.287,1047.1s-.818-3.944.629-5.547c1.942-2.154,4.666-3.448,7.891-1.077,0,0,1.757.913-3.637,2-.686.138.529,3.382-.329,3.729a14.1,14.1,0,0,1-4.554.9Z" transform="translate(-4580.127 -1034.049)" fill="#572a22" fill-rule="evenodd"/>
          <path id="Trazado_194623" data-name="Trazado 194623" d="M4626.013,1071.411a1.414,1.414,0,0,0,1.9.6,1.449,1.449,0,0,0,.231-2,1.414,1.414,0,0,0-1.9-.6A1.445,1.445,0,0,0,4626.013,1071.411Z" transform="translate(-4586.038 -1057.203)" fill="#c95836" fill-rule="evenodd"/>
          <path id="Trazado_194624" data-name="Trazado 194624" d="M4629.9,1386.086s-6.749-28.615-2.2-39.937l-6.366-38.818,18.2,1.247-4.556,77.783Z" transform="translate(-4582.659 -1240.77)" fill="#e3633d" fill-rule="evenodd"/>
          <path id="Trazado_194625" data-name="Trazado 194625" d="M4660.432,1646.3l2.825,2.616c.762.646,4.722,1.9,4.722,1.9h0c.454.8-.26,1.225-.888,1.331l-11.388-.238s-2.671-.545-.78-5.605C4657.07,1647.219,4660.028,1647.874,4660.432,1646.3Z" transform="translate(-4608.029 -1502.109)" fill="#4a2a1a" fill-rule="evenodd"/>
          <path id="Trazado_194626" data-name="Trazado 194626" d="M4644.527,1335.808l-.717,32.874-2.664,32.956h-13.239s.741-5.73.438-7.548-2.271-19.063,1.079-27l-3.107-32.311Z" transform="translate(-4586.495 -1261.933)" fill="#12263f" fill-rule="evenodd"/>
          <path id="Trazado_194627" data-name="Trazado 194627" d="M4629.018,1367.093l-3.107-32.311,6.314.344,2.274,23.662a51.237,51.237,0,0,1-.509,13.194c-1.4,8.609-.02,20.609.229,22.109.3,1.818-.438,7.548-.438,7.548H4627.5s.741-5.73.439-7.548S4625.667,1375.027,4629.018,1367.093Z" transform="translate(-4586.183 -1261.933)" fill="#091421" fill-rule="evenodd"/>
          <path id="Trazado_194628" data-name="Trazado 194628" d="M4494.564,1379.284s2.117-29.04,10.062-39.258l5.616-38.9,17.534,4.421-28.469,74.862Z" transform="translate(-4484.917 -1235.984)" fill="#e3633d" fill-rule="evenodd"/>
          <path id="Trazado_194629" data-name="Trazado 194629" d="M4488.657,1634.9l1.1,3.544c.28.9,3,3.839,3,3.839h0c-.084.88-.965.886-1.579.671l-9.841-5.671s-2.016-1.735,2.681-5C4485.354,1634.068,4487.358,1636,4488.657,1634.9Z" transform="translate(-4474.389 -1491.301)" fill="#4a2a1a" fill-rule="evenodd"/>
          <path id="Trazado_194630" data-name="Trazado 194630" d="M4515.214,1319.235l-12.491,34.818-12.709,31.607-13.033-2.333s2.485-5.446,2.743-7.269,3.6-18.955,9.327-26.087l6.86-35.187Z" transform="translate(-4471.36 -1246.516)" fill="#12263f" fill-rule="evenodd"/>
          <path id="Trazado_194631" data-name="Trazado 194631" d="M4564.929,1223.335l24.728,1.884c4.023,1.477,2.416,24.667,2.416,24.667l-16.259.753c-7.555-.158-16.49,5.767-17.429-6.82C4557.31,1229.431,4564.929,1223.335,4564.929,1223.335Z" transform="translate(-4534.041 -1176.01)" fill="#727997" fill-rule="evenodd"/>
          <path id="Trazado_194632" data-name="Trazado 194632" d="M4556.877,1294.637s16.409,1.767,21.747-5.438l-22-1.889A64.211,64.211,0,0,0,4556.877,1294.637Z" transform="translate(-4532.759 -1225.334)" fill="#7c8cba" fill-rule="evenodd"/>
          <path id="Trazado_194633" data-name="Trazado 194633" d="M4584.256,1099.724l-8.531-1.821-7.4-.983-12.162,3.244c-3.283,1.37-2.489,4.413-1.489,7.839l-1.614,10.691c-2.98,8-3.342,14.025-3.455,22.444,13.073,5.833,33.3,5.884,37.925.012C4587.9,1124.307,4588.429,1118.146,4584.256,1099.724Z" transform="translate(-4527.354 -1078.547)" fill="#6e80eb" fill-rule="evenodd"/>
          <path id="Trazado_194634" data-name="Trazado 194634" d="M4630.3,1095.559s2.5,7.542-2.57,7.541-7.338-7.82-7.338-7.82l3.791-1.4Z" transform="translate(-4581.927 -1076.203)" fill="#c95836"/>
          <path id="Trazado_194635" data-name="Trazado 194635" d="M4560.81,1175.394l3.771-5.39-.509-1.412" transform="translate(-4535.99 -1133.805)" fill="none" stroke="#515fb8" stroke-linecap="round" stroke-linejoin="round" stroke-width="4" fill-rule="evenodd"/>
          <path id="Trazado_194636" data-name="Trazado 194636" d="M4706.015,1149.9a32.024,32.024,0,0,0-1.51-3.02" transform="translate(-4646.777 -1117.065)" fill="none" stroke="#515fb8" stroke-linecap="round" stroke-linejoin="round" stroke-width="4" fill-rule="evenodd"/>
        </g>
      </g>
    </g>
  </g>
</svg>
