<svg xmlns="http://www.w3.org/2000/svg" width="140.547" height="138.419" viewBox="0 0 140.547 138.419">
  <g id="objetivo_2_" data-name="objetivo (2)" transform="translate(-0.001 -0.5)">
    <path id="Trazado_202973" data-name="Trazado 202973" d="M178.7,255.188l18.524-18.33c6.918-6.918,20.225,1.81,13.036,10.267l-22.43,26.389a15.735,15.735,0,0,1-3,2.723,22.376,22.376,0,0,1-12.165,3.081H139.373a62.462,62.462,0,0,0-7.2.417l-9.573,1.076-19.857-19.269S114,240.269,136.1,246.383a47.581,47.581,0,0,0,12.7,1.689h21.876c10.3,0,10.38,16.363-.086,16.363H151.542" transform="translate(-74.535 -169.659)" fill="#ffcdac"/>
    <path id="Trazado_202974" data-name="Trazado 202974" d="M42.322,361.443l18.891-19.381a.014.014,0,0,0,0-.019L29.158,310.936a.015.015,0,0,0-.019,0l-19.069,19.8Zm0,0" transform="translate(-7.305 -225.217)" fill="#6bd5e1"/>
    <path id="Trazado_202975" data-name="Trazado 202975" d="M64.438,100.317a11.8,11.8,0,0,0-10.673,11.746v12.563a3.929,3.929,0,0,0,3.929,3.929h26.94a3.929,3.929,0,0,0,3.929-3.929V112.063a11.8,11.8,0,0,0-10.687-11.747" transform="translate(-39.006 -72.416)" fill="#ffb677"/>
    <path id="Trazado_202976" data-name="Trazado 202976" d="M95.491,24.016A13.183,13.183,0,1,1,82.308,10.832,13.183,13.183,0,0,1,95.491,24.016Zm0,0" transform="translate(-50.149 -7.496)" fill="#ffcdac"/>
    <path id="Trazado_202977" data-name="Trazado 202977" d="M191.2,100.317a11.8,11.8,0,0,0-10.674,11.746v12.563a3.93,3.93,0,0,0,3.93,3.929H211.4a3.929,3.929,0,0,0,3.929-3.929V112.063a11.8,11.8,0,0,0-10.686-11.747" transform="translate(-130.973 -72.416)" fill="#ff8364"/>
    <path id="Trazado_202978" data-name="Trazado 202978" d="M222.257,24.016a13.183,13.183,0,1,1-13.183-13.184A13.183,13.183,0,0,1,222.257,24.016Zm0,0" transform="translate(-142.116 -7.496)" fill="#ffcdac"/>
    <path id="Trazado_202979" data-name="Trazado 202979" d="M317.975,100.317A11.8,11.8,0,0,0,307.3,112.063v12.563a3.93,3.93,0,0,0,3.929,3.929h26.94a3.93,3.93,0,0,0,3.93-3.929V112.063a11.8,11.8,0,0,0-10.688-11.747" transform="translate(-222.944 -72.416)" fill="#ffd98e"/>
    <path id="Trazado_202980" data-name="Trazado 202980" d="M349.027,24.016a13.183,13.183,0,1,1-13.184-13.184A13.183,13.183,0,0,1,349.027,24.016Zm0,0" transform="translate(-234.087 -7.496)" fill="#ffcdac"/>
    <path id="Trazado_202981" data-name="Trazado 202981" d="M137.228,227.329a12.73,12.73,0,0,0-7.852-3.29,11.24,11.24,0,0,0-8.636,3.288L105.111,242.79a10.373,10.373,0,0,0-1.057-1.509,10.131,10.131,0,0,0-7.916-3.54H74.261a44.871,44.871,0,0,1-11.96-1.589,29.428,29.428,0,0,0-27.452,5.809,39.928,39.928,0,0,0-7.149,7.673l-3.922-3.807a2.788,2.788,0,0,0-1.934-.785h-.018a2.794,2.794,0,0,0-1.983.851L.774,265.69a2.767,2.767,0,0,0,.085,3.92L33.11,300.32A2.764,2.764,0,0,0,37,300.248l18.891-19.381a2.78,2.78,0,0,0-.055-3.934l-1.645-1.6,3.765-.424a59.834,59.834,0,0,1,6.886-.4H98.124c5.409,0,10-1.183,13.655-3.516l.09-.06a18.425,18.425,0,0,0,3.527-3.2l22.43-26.388c3.839-4.515,3.6-10.15-.6-14.02Zm-102.283,67.1L6.686,267.524l15.223-15.8L50,278.982Zm98.669-56.664-22.43,26.389a12.924,12.924,0,0,1-2.428,2.212,19.662,19.662,0,0,1-10.631,2.617H64.838a65.29,65.29,0,0,0-7.514.435l-8.276.929L31.72,253.535a34.484,34.484,0,0,1,6.626-7.289,23.8,23.8,0,0,1,22.481-4.763,50.393,50.393,0,0,0,13.435,1.79H96.139c3.929,0,4.978,3.4,4.978,5.414a5.988,5.988,0,0,1-1.294,3.837,4.7,4.7,0,0,1-3.77,1.582H77.008a2.765,2.765,0,0,0,0,5.53H96.052a10.253,10.253,0,0,0,7.984-3.532,11.355,11.355,0,0,0,2.6-7.045l18-17.81c2.572-2.572,6.591-1.927,8.84.147,1.162,1.072,2.726,3.325.134,6.374Zm0,0" transform="translate(0 -162.164)"/>
    <path id="Trazado_202982" data-name="Trazado 202982" d="M234.7,335.355a2.764,2.764,0,1,0-5.383,1.262l.026.113a2.766,2.766,0,0,0,2.689,2.134,2.8,2.8,0,0,0,.634-.073,2.765,2.765,0,0,0,2.061-3.323Zm0,0" transform="translate(-166.31 -241.387)"/>
    <path id="Trazado_202983" data-name="Trazado 202983" d="M50.385,58.833h26.94a6.653,6.653,0,0,0,3.929-1.28,6.653,6.653,0,0,0,3.929,1.28h26.941a6.653,6.653,0,0,0,3.929-1.28,6.653,6.653,0,0,0,3.929,1.28h26.94a6.7,6.7,0,0,0,6.693-6.694V39.575a14.5,14.5,0,0,0-7.885-12.962,15.948,15.948,0,1,0-24.558,0,14.483,14.483,0,0,0-5.12,4.39,14.455,14.455,0,0,0-5.121-4.39,15.948,15.948,0,1,0-24.557,0A14.456,14.456,0,0,0,81.255,31a14.469,14.469,0,0,0-5.121-4.391,15.947,15.947,0,1,0-24.557,0,14.5,14.5,0,0,0-7.886,12.962V52.139a6.7,6.7,0,0,0,6.694,6.694Zm83.069-52.8a10.418,10.418,0,1,1-10.418,10.418A10.43,10.43,0,0,1,133.454,6.03Zm-7.183,24.651a15.891,15.891,0,0,0,14.364,0,8.983,8.983,0,0,1,7.452,8.895V52.139a1.166,1.166,0,0,1-1.165,1.165h-26.94a1.165,1.165,0,0,1-1.163-1.165V39.576a8.983,8.983,0,0,1,7.451-8.895ZM98.655,6.03A10.418,10.418,0,1,1,88.236,16.448,10.43,10.43,0,0,1,98.655,6.03ZM91.472,30.681a15.891,15.891,0,0,0,14.364,0,8.984,8.984,0,0,1,7.452,8.895V52.139a1.166,1.166,0,0,1-1.165,1.165H85.184a1.166,1.166,0,0,1-1.165-1.165V39.576a8.985,8.985,0,0,1,7.452-8.895ZM63.855,6.03A10.418,10.418,0,1,1,53.437,16.448,10.43,10.43,0,0,1,63.855,6.03ZM49.221,39.576a8.985,8.985,0,0,1,7.452-8.895,15.891,15.891,0,0,0,14.364,0,8.983,8.983,0,0,1,7.452,8.895V52.139A1.166,1.166,0,0,1,77.326,53.3H50.385a1.166,1.166,0,0,1-1.165-1.165Zm0,0" transform="translate(-31.697)"/>
  </g>
</svg>
