<svg xmlns="http://www.w3.org/2000/svg" xmlns:xlink="http://www.w3.org/1999/xlink" width="200.041" height="200.041" viewBox="0 0 200.041 200.041">
  <defs>
    <filter id="Trazado_200921" x="0" y="0" width="200.041" height="200.041" filterUnits="userSpaceOnUse">
      <feOffset dy="3" input="SourceAlpha"/>
      <feGaussianBlur stdDeviation="2" result="blur"/>
      <feFlood flood-color="#acacac" flood-opacity="0.502"/>
      <feComposite operator="in" in2="blur"/>
      <feComposite in="SourceGraphic"/>
    </filter>
  </defs>
  <g id="Grupo_145578" data-name="Grupo 145578" transform="translate(-846.96 -2665.346)">
    <g id="Grupo_139092" data-name="Grupo 139092" transform="translate(852.96 2668.346)">
      <g id="Grupo_139091" data-name="Grupo 139091" transform="translate(0 0)">
        <g transform="matrix(1, 0, 0, 1, -6, -3)" filter="url(#Trazado_200921)">
          <path id="Trazado_200921-2" data-name="Trazado 200921" d="M71.96,0A71.96,71.96,0,1,1,0,71.96,71.96,71.96,0,0,1,71.96,0Z" transform="translate(6 58.08) rotate(-22.5)" fill="#fff"/>
        </g>
        <path id="Trazado_200916" data-name="Trazado 200916" d="M473.273,417.928a60.807,60.807,0,1,1,60.806-60.808A60.875,60.875,0,0,1,473.273,417.928Zm0-116.037a55.23,55.23,0,1,0,55.23,55.23A55.291,55.291,0,0,0,473.273,301.891Z" transform="translate(-379.253 -263.101)" fill="#afb4ff"/>
      </g>
      <path id="Trazado_200917" data-name="Trazado 200917" d="M547.223,376.428a84.538,84.538,0,0,1-135,0H396.092a97.92,97.92,0,0,0,167.275,0Z" transform="translate(-385.708 -231.52)" fill="#afb4ff"/>
    </g>
    <g id="lavado-de-dinero" transform="translate(908.826 2723.92)">
      <g id="Grupo_142812" data-name="Grupo 142812" transform="translate(0)">
        <path id="Trazado_202835" data-name="Trazado 202835" d="M33.174,30.348H30.7a1.235,1.235,0,0,1-1.235-1.235H27a3.709,3.709,0,0,0,3.7,3.7v2.47h2.47v-2.47a3.7,3.7,0,0,0,0-7.409H30.7a1.235,1.235,0,0,1,0-2.47h2.47a1.235,1.235,0,0,1,1.235,1.235h2.47a3.709,3.709,0,0,0-3.7-3.7V18H30.7v2.47a3.7,3.7,0,1,0,0,7.409h2.47a1.235,1.235,0,0,1,0,2.47Z" transform="translate(6.338 4.226)" fill="#2432ff"/>
        <path id="Trazado_202836" data-name="Trazado 202836" d="M74.085,49.39H73.96a6.184,6.184,0,0,0-6.049-4.939,5.043,5.043,0,0,0-.507.026,6.205,6.205,0,0,0-5.666-3.73,6.126,6.126,0,0,0-2.492.527c0-.177.022-.352.022-.527v-.575A21.089,21.089,0,0,0,54.782,27.2L45.993,16.016,51.86,7.8v-.4A7.416,7.416,0,0,0,44.451,0H39.512a4.906,4.906,0,0,0-3.7,1.706A4.906,4.906,0,0,0,32.1,0,7.416,7.416,0,0,0,24.7,7.409v.4l5.866,8.212L21.772,27.2a21.089,21.089,0,0,0-4.486,12.97v.575c0,.007,0,.015,0,.023a6.117,6.117,0,0,0-3.705-1.258,6.185,6.185,0,0,0-6.07,5.043A6.184,6.184,0,0,0,2.6,49.39H2.47A2.472,2.472,0,0,0,0,51.86v2.47A2.472,2.472,0,0,0,2.47,56.8h.075l.873,13.969a6.184,6.184,0,0,0,6.161,5.787H66.021a6.182,6.182,0,0,0,6.126-5.408L73.941,56.8h.144a2.472,2.472,0,0,0,2.47-2.47V51.86a2.472,2.472,0,0,0-2.47-2.47ZM32.1,2.47a2.472,2.472,0,0,1,2.47,2.47v2.47h2.47V4.939a2.472,2.472,0,0,1,2.47-2.47h4.939a4.945,4.945,0,0,1,4.924,4.562l-5.559,7.785H42.459l1.927-5.784-2.341-.782-2.188,6.565H36.7L34.509,8.253l-2.341.782L34.1,14.817H32.738l-5.56-7.785A4.947,4.947,0,0,1,32.1,2.47Zm-12.348,37.7a18.611,18.611,0,0,1,3.957-11.444L32.7,17.287H43.85l8.99,11.442A18.6,18.6,0,0,1,56.8,40.171v.575c0,.58-.033,1.161-.088,1.736a5.828,5.828,0,0,0-2.507-.5,6.174,6.174,0,0,0-12.119.106,6.142,6.142,0,0,0-2.573,1.151,6.25,6.25,0,0,0-5.914-.85,6.134,6.134,0,0,0-10.4,0,6.264,6.264,0,0,0-3.393-.286c-.033-.449-.052-.9-.052-1.356ZM8.643,46.921H9.878V45.686a3.691,3.691,0,0,1,7.181-1.215l.531,1.515,1.327-.9a3.762,3.762,0,0,1,4.145,0l1.327.9.531-1.515a3.674,3.674,0,0,1,6.955,0l.531,1.515,1.327-.9a3.743,3.743,0,0,1,4.848.647l.93,1.063.93-1.063a3.649,3.649,0,0,1,2.774-1.282h1.235V43.216a3.707,3.707,0,0,1,7.412-.077l-.085,1.877,1.614-.426a3.5,3.5,0,0,1,3.318.757l1.113.945.746-1.255a3.675,3.675,0,0,1,3.17-1.821,3.718,3.718,0,0,1,3.622,2.934l.274,1.292,1.271-.359a3.6,3.6,0,0,1,4.485,2.308H61.51a3.7,3.7,0,0,0-3.477-2.47H48.155a3.7,3.7,0,0,0-3.477,2.47H5.166a3.7,3.7,0,0,1,3.477-2.47Zm44.451,7.409a3.709,3.709,0,0,0-3.7,3.7v9.878a1.235,1.235,0,1,1-2.47,0V50.625a1.235,1.235,0,0,1,1.235-1.235h9.878a1.235,1.235,0,0,1,1.235,1.235V60.5a1.235,1.235,0,0,1-2.47,0v-2.47A3.709,3.709,0,0,0,53.094,54.329ZM2.47,51.86H44.451v2.47H2.47ZM69.7,70.84a3.709,3.709,0,0,1-3.675,3.245H9.579a3.71,3.71,0,0,1-3.7-3.473L5.018,56.8H44.451V67.911a3.7,3.7,0,1,0,7.409,0V58.033a1.235,1.235,0,0,1,2.47,0V60.5a3.7,3.7,0,0,0,7.409,0V56.8h9.714Zm4.39-16.511H61.738V51.86H74.085Z" transform="translate(0 0)" fill="#2432ff"/>
        <path id="Trazado_202837" data-name="Trazado 202837" d="M8.913,51.947,6.448,52.1l.312,5.006a2.474,2.474,0,0,0,2.465,2.315H21.947v-2.47H9.225Z" transform="translate(1.514 12.195)" fill="#2432ff"/>
        <path id="Trazado_202838" data-name="Trazado 202838" d="M5.939,30.878A4.939,4.939,0,1,0,1,25.939,4.944,4.944,0,0,0,5.939,30.878Zm0-7.409a2.47,2.47,0,1,1-2.47,2.47A2.472,2.472,0,0,1,5.939,23.47Z" transform="translate(0.235 4.93)" fill="#2432ff"/>
        <path id="Trazado_202839" data-name="Trazado 202839" d="M11.643,18.287A8.643,8.643,0,1,0,3,9.643,8.654,8.654,0,0,0,11.643,18.287Zm0-14.817A6.174,6.174,0,1,1,5.47,9.643,6.181,6.181,0,0,1,11.643,3.47Z" transform="translate(0.704 0.235)" fill="#2432ff"/>
        <path id="Trazado_202840" data-name="Trazado 202840" d="M10.7,7.47V5A3.709,3.709,0,0,0,7,8.7H9.47A1.235,1.235,0,0,1,10.7,7.47Z" transform="translate(1.643 1.174)" fill="#2432ff"/>
        <path id="Trazado_202841" data-name="Trazado 202841" d="M51,25.7A3.7,3.7,0,1,0,54.7,22,3.709,3.709,0,0,0,51,25.7Zm4.939,0A1.235,1.235,0,1,1,54.7,24.47,1.235,1.235,0,0,1,55.939,25.7Z" transform="translate(11.972 5.165)" fill="#2432ff"/>
        <path id="Trazado_202842" data-name="Trazado 202842" d="M58.174,20.348A6.174,6.174,0,1,0,52,14.174,6.181,6.181,0,0,0,58.174,20.348Zm0-9.878a3.7,3.7,0,1,1-3.7,3.7A3.709,3.709,0,0,1,58.174,10.47Z" transform="translate(12.207 1.878)" fill="#2432ff"/>
        <path id="Trazado_202843" data-name="Trazado 202843" d="M48.939,9.878A4.939,4.939,0,1,0,44,4.939,4.944,4.944,0,0,0,48.939,9.878Zm0-7.409a2.47,2.47,0,1,1-2.47,2.47A2.472,2.472,0,0,1,48.939,2.47Z" transform="translate(10.329)" fill="#2432ff"/>
        <path id="Trazado_202844" data-name="Trazado 202844" d="M10,20.7A3.7,3.7,0,1,0,13.7,17,3.709,3.709,0,0,0,10,20.7Zm4.939,0A1.235,1.235,0,1,1,13.7,19.47,1.235,1.235,0,0,1,14.939,20.7Z" transform="translate(2.348 3.991)" fill="#2432ff"/>
        <path id="Trazado_202845" data-name="Trazado 202845" d="M21,56h2.47v2.47H21Z" transform="translate(4.93 13.146)" fill="#2432ff"/>
      </g>
    </g>
  </g>
</svg>
