<svg xmlns="http://www.w3.org/2000/svg" width="140.09" height="140.09" viewBox="0 0 140.09 140.09">
  <g id="nicho" transform="translate(-1 -1)">
    <path id="Trazado_202956" data-name="Trazado 202956" d="M39.557,35.893,53.114,22.336H46.336V2H32.779V22.336H26Z" transform="translate(31.488 1.26)" fill="#ff8088"/>
    <circle id="Elipse_6806" data-name="Elipse 6806" cx="40.671" cy="40.671" r="40.671" transform="translate(30.374 43.931)" fill="#ffe38f"/>
    <circle id="Elipse_6807" data-name="Elipse 6807" cx="6.779" cy="6.779" r="6.779" transform="translate(64.266 57.488)" fill="#759acc"/>
    <path id="Trazado_202957" data-name="Trazado 202957" d="M40.557,32H36.038A9.038,9.038,0,0,0,27,41.038v11.3l4.519,2.26V72.671H45.076V54.6l4.519-2.26v-11.3A9.038,9.038,0,0,0,40.557,32Z" transform="translate(32.747 39.045)" fill="#759acc"/>
    <g id="Grupo_142820" data-name="Grupo 142820" transform="translate(3.26 84.602)">
      <circle id="Elipse_6808" data-name="Elipse 6808" cx="6.779" cy="6.779" r="6.779" transform="translate(117.495)" fill="#adc4e6"/>
      <path id="Trazado_202958" data-name="Trazado 202958" d="M65.557,44H61.038A9.038,9.038,0,0,0,52,53.038v11.3l4.519,2.26V84.671H70.076V66.6l4.519-2.26v-11.3A9.038,9.038,0,0,0,65.557,44Z" transform="translate(60.976 -30.443)" fill="#adc4e6"/>
      <circle id="Elipse_6809" data-name="Elipse 6809" cx="6.779" cy="6.779" r="6.779" transform="translate(4.519)" fill="#adc4e6"/>
      <path id="Trazado_202959" data-name="Trazado 202959" d="M15.557,44H11.038A9.038,9.038,0,0,0,2,53.038v11.3L6.519,66.6V84.671H20.076V66.6l4.519-2.26v-11.3A9.038,9.038,0,0,0,15.557,44Z" transform="translate(-2 -30.443)" fill="#adc4e6"/>
    </g>
    <path id="Trazado_202960" data-name="Trazado 202960" d="M71.586,51.651a9.038,9.038,0,1,0-14.059,0A11.286,11.286,0,0,0,51,61.855v11.3a2.262,2.262,0,0,0,1.25,2.022l3.27,1.634v16.68a2.259,2.259,0,0,0,2.26,2.26H71.336a2.259,2.259,0,0,0,2.26-2.26V76.808l3.27-1.636a2.256,2.256,0,0,0,1.25-2.02v-11.3A11.286,11.286,0,0,0,71.586,51.651ZM64.557,41.519a4.519,4.519,0,1,1-4.519,4.519A4.524,4.524,0,0,1,64.557,41.519ZM73.6,71.756l-3.27,1.636a2.256,2.256,0,0,0-1.25,2.02V91.228H60.038V75.412a2.262,2.262,0,0,0-1.25-2.022l-3.27-1.634v-9.9A6.787,6.787,0,0,1,62.3,55.076h4.519A6.787,6.787,0,0,1,73.6,61.855Z" transform="translate(62.976 45.342)"/>
    <path id="Trazado_202961" data-name="Trazado 202961" d="M5.519,93.488a2.259,2.259,0,0,0,2.26,2.26H21.336a2.259,2.259,0,0,0,2.26-2.26V76.808l3.27-1.636a2.256,2.256,0,0,0,1.25-2.02v-11.3a11.286,11.286,0,0,0-6.528-10.2A9.02,9.02,0,1,0,5.519,46.038a8.962,8.962,0,0,0,2.009,5.613A11.286,11.286,0,0,0,1,61.855v11.3a2.262,2.262,0,0,0,1.25,2.022l3.27,1.634Zm9.038-51.969a4.519,4.519,0,1,1-4.519,4.519A4.524,4.524,0,0,1,14.557,41.519ZM5.519,61.855A6.787,6.787,0,0,1,12.3,55.076h4.519A6.787,6.787,0,0,1,23.6,61.855v9.9l-3.27,1.636a2.256,2.256,0,0,0-1.25,2.02V91.228H10.038V75.412a2.262,2.262,0,0,0-1.25-2.022l-3.27-1.634Z" transform="translate(0 45.342)"/>
    <path id="Trazado_202962" data-name="Trazado 202962" d="M46.586,39.651a9.038,9.038,0,1,0-14.059,0A11.286,11.286,0,0,0,26,49.855v11.3a2.262,2.262,0,0,0,1.25,2.022l3.27,1.634v16.68a2.259,2.259,0,0,0,2.26,2.26H46.336a2.259,2.259,0,0,0,2.26-2.26V64.808l3.27-1.636a2.256,2.256,0,0,0,1.25-2.02v-11.3a11.286,11.286,0,0,0-6.528-10.2ZM39.557,29.519a4.519,4.519,0,1,1-4.519,4.519A4.524,4.524,0,0,1,39.557,29.519ZM48.6,59.756l-3.27,1.636a2.256,2.256,0,0,0-1.25,2.02V79.228H35.038V63.412a2.262,2.262,0,0,0-1.25-2.022l-3.27-1.634v-9.9A6.787,6.787,0,0,1,37.3,43.076h4.519A6.787,6.787,0,0,1,48.6,49.855Z" transform="translate(31.488 30.228)"/>
    <path id="Trazado_202963" data-name="Trazado 202963" d="M25.172,22.73a2.259,2.259,0,0,0,.49,2.463L39.219,38.75a2.258,2.258,0,0,0,3.195,0L55.971,25.193a2.259,2.259,0,0,0-1.6-3.857H49.855V3.26A2.259,2.259,0,0,0,47.6,1H34.038a2.259,2.259,0,0,0-2.26,2.26V21.336H27.26a2.26,2.26,0,0,0-2.088,1.394Zm8.866,3.125A2.259,2.259,0,0,0,36.3,23.6V5.519h9.038V23.6a2.259,2.259,0,0,0,2.26,2.26h1.324l-8.1,8.1-8.1-8.1Z" transform="translate(30.228 0)"/>
    <path id="Trazado_202964" data-name="Trazado 202964" d="M55.931,19A42.931,42.931,0,1,0,98.862,61.931,42.978,42.978,0,0,0,55.931,19Zm0,81.342A38.412,38.412,0,1,1,94.342,61.931,38.455,38.455,0,0,1,55.931,100.342Z" transform="translate(15.114 22.671)"/>
    <path id="Trazado_202965" data-name="Trazado 202965" d="M47.779,43.3a2.26,2.26,0,1,1,2.26-2.26h4.519a6.769,6.769,0,0,0-4.519-6.363V32H45.519v2.675a6.762,6.762,0,0,0,2.26,13.141,2.26,2.26,0,1,1-2.26,2.26H41a6.769,6.769,0,0,0,4.519,6.363v2.675h4.519V56.439A6.762,6.762,0,0,0,47.779,43.3Z" transform="translate(50.381 39.045)"/>
    <path id="Trazado_202966" data-name="Trazado 202966" d="M23.779,38.779a2.262,2.262,0,0,1,2.26,2.26h4.519a6.769,6.769,0,0,0-4.519-6.363V32H21.519v2.675a6.762,6.762,0,0,0,2.26,13.141,2.26,2.26,0,1,1-2.26,2.26H17a6.769,6.769,0,0,0,4.519,6.363v2.675h4.519V56.439A6.762,6.762,0,0,0,23.779,43.3a2.26,2.26,0,1,1,0-4.519Z" transform="translate(20.152 39.045)"/>
  </g>
</svg>
