<svg xmlns="http://www.w3.org/2000/svg" xmlns:xlink="http://www.w3.org/1999/xlink" width="200.041" height="200.041" viewBox="0 0 200.041 200.041">
  <defs>
    <filter id="Trazado_200923" x="0" y="0" width="200.041" height="200.041" filterUnits="userSpaceOnUse">
      <feOffset dy="3" input="SourceAlpha"/>
      <feGaussianBlur stdDeviation="2" result="blur"/>
      <feFlood flood-color="#a5a5a5" flood-opacity="0.502"/>
      <feComposite operator="in" in2="blur"/>
      <feComposite in="SourceGraphic"/>
    </filter>
  </defs>
  <g id="Grupo_145577" data-name="Grupo 145577" transform="translate(-566.997 -2665.346)">
    <g id="Grupo_139087" data-name="Grupo 139087" transform="translate(572.997 2668.346)">
      <g id="Grupo_139086" data-name="Grupo 139086" transform="translate(0 0)">
        <g transform="matrix(1, 0, 0, 1, -6, -3)" filter="url(#Trazado_200923)">
          <path id="Trazado_200923-2" data-name="Trazado 200923" d="M71.96,0A71.96,71.96,0,1,1,0,71.96,71.96,71.96,0,0,1,71.96,0Z" transform="translate(6 58.08) rotate(-22.5)" fill="#fff"/>
        </g>
        <path id="Trazado_200914" data-name="Trazado 200914" d="M320.3,417.929a60.807,60.807,0,1,1,60.807-60.808A60.876,60.876,0,0,1,320.3,417.929Zm0-116.038a55.23,55.23,0,1,0,55.23,55.23A55.292,55.292,0,0,0,320.3,301.891Z" transform="translate(-226.281 -263.101)" fill="#fbcfab"/>
      </g>
      <path id="Trazado_200915" data-name="Trazado 200915" d="M394.251,376.428a84.538,84.538,0,0,1-135,0H243.12a97.92,97.92,0,0,0,167.276,0Z" transform="translate(-232.736 -231.52)" fill="#fbcfab"/>
    </g>
    <g id="layer1" transform="translate(628.207 2728.049)">
      <path id="rect820" d="M9.3,0A4.669,4.669,0,0,0,4.653,4.653V24.021a6.505,6.505,0,0,0-3.529,2.784A8.1,8.1,0,0,0,0,31v9.9c0,2.059.934,4.589,1.81,7.047.438,1.229.87,2.421,1.186,3.416a9.931,9.931,0,0,1,.488,2.128v4.395a3.479,3.479,0,0,0-1.158,2.584V70.924a3.511,3.511,0,0,0,3.486,3.5H22.1a3.509,3.509,0,0,0,3.484-3.5V60.461a3.5,3.5,0,0,0-1.992-3.143c.2-.8.6-1.887,1.056-3.157a20.7,20.7,0,0,0,1.263-5.321H47.543l5.442,10.89a3.5,3.5,0,0,0-1.819,3.057v8.137a3.509,3.509,0,0,0,3.484,3.5H70.924a3.518,3.518,0,0,0,3.5-3.5V62.786a3.508,3.508,0,0,0-2.173-3.223,19.934,19.934,0,0,1,.911-2.262,11.964,11.964,0,0,0,1.263-4.978V4.654A4.671,4.671,0,0,0,69.765,0Zm0,2.326H69.765a2.3,2.3,0,0,1,2.326,2.328V38.572a3.229,3.229,0,0,0-1.167-.2,3.045,3.045,0,0,0-1.158.211V8.137a3.5,3.5,0,0,0-3.484-3.484H12.788A3.5,3.5,0,0,0,9.3,8.137v20.2c-.071-.031-.142-.064-.213-.093a3.748,3.748,0,0,0-2.112-.25V4.653A2.3,2.3,0,0,1,9.3,2.326ZM11.63,30.448V8.137a1.128,1.128,0,0,1,1.158-1.158H66.282A1.128,1.128,0,0,1,67.44,8.137V37.418a3.083,3.083,0,0,0-1.158-.209,3.359,3.359,0,0,0-1.724.447,3.457,3.457,0,0,0-2.93-1.615,3.7,3.7,0,0,0-1.167.2V31.4h3.477a1.164,1.164,0,0,0,0-2.328H60.461a3.49,3.49,0,1,0-6.979,0H43.019a1.164,1.164,0,0,0,0,2.328H53.482V42.169L52.11,39.794A4.083,4.083,0,0,0,46.555,38.3a4.032,4.032,0,0,0-1.989,3.561H14.594c-.536-.587-1.021-1.064-1.34-1.451-.363-.44-.466-.677-.466-.872V34.53a8.016,8.016,0,0,0-1.158-4.082ZM56.977,9.3a3.509,3.509,0,0,0-3.5,3.484H43.019a1.164,1.164,0,0,0,0,2.328H53.482a3.49,3.49,0,0,0,6.979,0h3.493a1.164,1.164,0,0,0,0-2.328H60.461A3.5,3.5,0,0,0,56.977,9.3Zm0,2.326a1.128,1.128,0,0,1,1.158,1.158v2.328a1.164,1.164,0,1,1-2.328,0V12.788A1.138,1.138,0,0,1,56.977,11.63Zm-30.23,1.158A12.807,12.807,0,0,0,13.958,25.579V30.23a1.163,1.163,0,0,0,1.158,1.17H38.365a1.163,1.163,0,0,0,1.17-1.17V25.579A12.807,12.807,0,0,0,26.747,12.788ZM25.579,15.18v1.1a1.163,1.163,0,0,0,2.326,0v-1.1A10.412,10.412,0,0,1,33.28,17.4l-.784.784a1.166,1.166,0,0,0,1.649,1.649l.784-.784a10.408,10.408,0,0,1,2.214,5.376H36.051a1.163,1.163,0,1,0,0,2.326h1.156v2.326H31.4a4.63,4.63,0,0,0-1.14-3.039l1.955-1.955a1.159,1.159,0,1,0-1.64-1.64l-2.267,2.255a4.6,4.6,0,0,0-1.563-.273A4.669,4.669,0,0,0,22.1,29.072H16.284V26.746h1.158a1.163,1.163,0,0,0,0-2.326H16.347a10.411,10.411,0,0,1,2.217-5.376l.784.784a1.163,1.163,0,1,0,1.64-1.649l-.779-.779a10.41,10.41,0,0,1,5.371-2.221ZM47.67,17.442a3.5,3.5,0,0,0-3.484,3.484H43.019a1.164,1.164,0,0,0,0,2.328h1.167a3.49,3.49,0,1,0,6.979,0H63.954a1.164,1.164,0,0,0,0-2.328H51.165A3.509,3.509,0,0,0,47.67,17.442Zm0,2.326a1.138,1.138,0,0,1,1.17,1.158v2.328a1.164,1.164,0,1,1-2.328,0V20.926A1.128,1.128,0,0,1,47.67,19.767ZM4.653,26.526V39.542a1.163,1.163,0,0,0,2.326,0V31.055c0-.559.126-.639.275-.72a1.2,1.2,0,0,1,.961.059c.935.38,2.172,1.654,2.248,4.188v4.953a3.727,3.727,0,0,0,1,2.36c.507.616,1.083,1.153,1.622,1.76a7.085,7.085,0,0,1,2.035,5.185,1.163,1.163,0,0,0,2.326,0h6.13a18.834,18.834,0,0,1-1.117,4.54,23.768,23.768,0,0,0-.995,3.6H5.812v-3.5a9.59,9.59,0,0,0-.593-2.832c-.339-1.07-.786-2.266-1.22-3.484a25.949,25.949,0,0,1-1.674-6.275V31a5.97,5.97,0,0,1,.781-2.986,3.925,3.925,0,0,1,1.547-1.483Zm22.093.22a2.308,2.308,0,0,1,2.326,2.326H24.421A2.308,2.308,0,0,1,26.747,26.746Zm31.389,2.326V44.186a1.163,1.163,0,0,0,2.326,0V39.535a1.163,1.163,0,1,1,2.326,0v4.651a1.163,1.163,0,0,0,2.326,0V40.693a1.164,1.164,0,0,1,2.328,0v3.493a1.163,1.163,0,0,0,2.326,0V41.86a1.163,1.163,0,1,1,2.326,0V52.323a9.741,9.741,0,0,1-1.063,4.033A15.1,15.1,0,0,0,69.893,59.3H55.369l-8.255-16.54a1.769,1.769,0,0,1,.6-2.448,1.72,1.72,0,0,1,2.387.636l3.545,6.136a1.163,1.163,0,0,0,2.162-.575c0-5.811,0-11.635,0-17.44a1.164,1.164,0,1,1,2.328,0ZM16.293,44.186H45.22l1.161,2.326h-29.2a9.356,9.356,0,0,0-.883-2.326ZM5.812,59.3H22.1a1.128,1.128,0,0,1,1.158,1.158V70.924A1.136,1.136,0,0,1,22.1,72.091H5.812a1.136,1.136,0,0,1-1.158-1.167V60.461A1.128,1.128,0,0,1,5.812,59.3Zm48.837,2.326H70.924a1.136,1.136,0,0,1,1.167,1.158v8.137a1.143,1.143,0,0,1-1.167,1.167H54.649a1.143,1.143,0,0,1-1.167-1.167V62.786A1.136,1.136,0,0,1,54.649,61.628Z" transform="translate(0)" fill="#f67409"/>
    </g>
  </g>
</svg>
