<svg xmlns="http://www.w3.org/2000/svg" xmlns:xlink="http://www.w3.org/1999/xlink" width="416.471" height="224.373" viewBox="0 0 416.471 224.373">
  <defs>
    <linearGradient id="linear-gradient" x1="7.604" y1="0.753" x2="8.553" y2="0.001" gradientUnits="objectBoundingBox">
      <stop offset="0.014" stop-color="#e289d9"/>
      <stop offset="0.17" stop-color="#e397cf"/>
      <stop offset="0.442" stop-color="#e4abc3"/>
      <stop offset="0.717" stop-color="#e5b7bc"/>
      <stop offset="1" stop-color="#e6bbba"/>
    </linearGradient>
    <linearGradient id="linear-gradient-2" x1="0.652" y1="1.17" x2="-0.211" y2="0.192" gradientUnits="objectBoundingBox">
      <stop offset="0" stop-color="#f59c36"/>
      <stop offset="0.996" stop-color="#f1d660"/>
    </linearGradient>
  </defs>
  <g id="Grupo_143149" data-name="Grupo 143149" transform="translate(-25.636 -63.144)">
    <g id="BACKGROUND" transform="translate(56.379 63.144)">
      <g id="Grupo_143083" data-name="Grupo 143083" transform="translate(0)">
        <path id="Trazado_203713" data-name="Trazado 203713" d="M440.091,131.985c-.407-7.033-1.914-14.117-5.4-20.241-7.342-12.911-22.389-19.683-37.1-21.758-15.356-2.167-31.3,1.5-46.389-1.14-22.757-3.985-41.9-18.17-64.368-23.394-15.063-3.5-31.443-3.454-45.409,3.19l-.26.126a98.106,98.106,0,0,1-74.709,5.423c-8.215-2.722-15.974-5.086-21.959-6.478-15.064-3.5-31.444-3.454-45.409,3.189A54.139,54.139,0,0,0,77.762,89.337c-9.306,13.7-8.548,29.376-1.179,43.815,3.68,7.21,8.918,14.408,13.029,21.974,3.637,6.695,6.39,13.678,6.4,21.214.016,16.068-13.263,29.47-14.936,45.45A32.565,32.565,0,0,0,94.322,251.2c5.791,4.089,198.881,3.547,270.3,3.206a40.135,40.135,0,0,0,39.925-38.01c.007-.131.013-.26.02-.39.573-11.967,5.039-22.468,11.941-32.1,7.118-9.932,16.328-19.04,20.727-30.638A51.692,51.692,0,0,0,440.091,131.985Z" transform="translate(-70.918 -63.144)" fill="none"/>
      </g>
    </g>
    <g id="OBJECTS" transform="translate(25.636 71.386)">
      <ellipse id="Elipse_6836" data-name="Elipse 6836" cx="208.236" cy="7.689" rx="208.236" ry="7.689" transform="translate(0 180.493)" fill="#f2f2f2"/>
      <g id="Grupo_143094" data-name="Grupo 143094" transform="translate(1.248 33.882)">
        <g id="Grupo_143088" data-name="Grupo 143088" transform="translate(343.589)">
          <g id="Grupo_143084" data-name="Grupo 143084" transform="translate(10.943)">
            <path id="Trazado_203714" data-name="Trazado 203714" d="M649.693,158.851c-5.729-2.179-.564-4.729,3.032-5.746,2.909-.823,10.194-2.164,7.237-7.13-3.1-5.2-6.064,1.222-8.527,1.948-5.506,1.621.224-5.286,1.592-7.127,1.874-2.523,5.815-7.678.948-8.537-3.936-.695-8.013,4.79-9.645,7.523-1.164,1.949-4.027,11.077-7.006,9.053-2.256-1.532.078-10.671-5.306-4.138-2.19,2.656-1.837,6.924-2.824,9.962-1.445,4.45-2.054,6.294-6,5.152-2.047-.592-2.113-3.161-4.64-1.426-1.3.894-1.686,5.006-1.675,6.434.1,13.118,5.346,21.9,7.82,23.035,3.35,1.533,9.574-.682,12.438-2.327,1.424-.818,4.022-2.17,3.839-4.243-.206-2.327-3.8-1.992-3.932-3.359-.378-3.876,6.752-.173,8.727-.726,2.557-.716,6.792-5.283,4.11-7.7-.276-.248-11.42-1.055-5.045-4.6,3.53-1.964,7.315,3.486,10.72-.384C660.45,158.942,651.841,159.669,649.693,158.851Z" transform="translate(-616.873 -132.198)" fill="#afe684"/>
            <path id="Trazado_203715" data-name="Trazado 203715" d="M649.884,168.245a25.523,25.523,0,0,0-7.686-2.205,52.539,52.539,0,0,0,5.3-7.3c.4-.738-.8-1.247-1.2-.515-.175.319-.37.629-.559.941a8.049,8.049,0,0,1,.116-2.631,16.746,16.746,0,0,1,1.462-4.639.655.655,0,0,0-1.2-.514,18.038,18.038,0,0,0-1.652,5.974,4.69,4.69,0,0,0,.476,3.065c-2.027,3.008-4.552,5.779-6.666,8.7a12.8,12.8,0,0,1-1.872-4.62c-.333-1.847-.107-3.725-.3-5.585a.655.655,0,0,0-1.3.163c.23,2.236-.032,4.433.531,6.638a14.746,14.746,0,0,0,2.127,4.55,80.6,80.6,0,0,0-6.518,11.021c-.612,1.281-1.172,2.586-1.714,3.9a24.371,24.371,0,0,1-2.934-5.823,19.554,19.554,0,0,1-.98-3.622,9.774,9.774,0,0,0-.385-2.674.654.654,0,0,0-1.215.486c.446,1.075.3,2.475.578,3.624a33.586,33.586,0,0,0,1,3.286,25.821,25.821,0,0,0,3.284,6.1.694.694,0,0,0,.066.062c-.914,2.27-1.807,4.549-2.823,6.769a.605.605,0,0,0-.2.264,6.088,6.088,0,0,0-.354.895c-1.817,4.585-3.647,9.168-5.4,13.776-.3.784.9,1.3,1.2.515,1.752-4.592,3.575-9.159,5.386-13.728.012-.02.027-.032.037-.053.581-1.2,1.114-2.417,1.628-3.646,2.38.606,5.025-.09,7.246-.982a.655.655,0,0,0-.487-1.215,11.369,11.369,0,0,1-6.25.967c1.144-2.811,2.223-5.654,3.527-8.391.518-1.089,1.074-2.159,1.654-3.215a.606.606,0,0,0,.134.089,19.2,19.2,0,0,0,10.221,1.3c.83-.13.672-1.429-.163-1.3a17.86,17.86,0,0,1-9.543-1.2.183.183,0,0,0-.018,0,99.013,99.013,0,0,1,5.917-9.012c.36-.495.735-.983,1.116-1.47a.544.544,0,0,0,.489.345,24.19,24.19,0,0,1,7.427,2.12A.654.654,0,0,0,649.884,168.245Z" transform="translate(-618.015 -139.528)" fill="#263238"/>
          </g>
          <path id="Trazado_203716" data-name="Trazado 203716" d="M609.069,251.235c-2.176,1.782-4.973,4.041-7.235,5.693-2.949,2.152-2.949,4.27-.41,6.815,3.133,3.142,8.71,4.858,13.026,5.545,1.526.243,1.811.138,1.842-1.594.023-1.28-.146-2.466-.032-3.756a12.664,12.664,0,0,1,2.085-6.682c2.308-3.241,2.514.786,1.853,2.651a21.262,21.262,0,0,0-1.305,6.872c-.033,4.04,13.162-2.017,15.1-4.33-1.51-1.149-3.276-5.892-2.1-7.75,1.033-1.635,1.476.157,1.7,1.241a8.489,8.489,0,0,0,1.119,3.462c3.032,4.231,9.348-6.944,10.536-9.244,1.562-3.026,3.364-3.47,6.509-3.6-2.236-2.938-5.492-7.176-9.433-7.326-1.909-.073-3.536,1.284-5.037,2.272-1.034.681-4.431,2.4-2.616-.173,1.268-1.8,3.7-2.392,4.946-4.263-1.016-1.271-4.531-3.6-6.229-3.22-2.033.454-2.654,4.441-3.937,5.82-1.439-2.447,1.326-4.884,2.283-6.888-2.678-1.931-8.106-4.3-11.6-3.365-5.093,1.369-.35,7.963.614,9.057.71.806,1.831,2.265-.076,1.632-1.672-.556-3.826-4.254-4.521-5.844-.339-.777-.4-2.991-1.111-3.476-.814-.553-14.358,5.476-15.885,9.957C597.563,245.4,605.116,250.644,609.069,251.235Z" transform="translate(-598.934 -170.031)" fill="#afe684"/>
          <g id="Grupo_143087" data-name="Grupo 143087" transform="translate(6.864 30.149)">
            <g id="Grupo_143086" data-name="Grupo 143086">
              <g id="Grupo_143085" data-name="Grupo 143085" transform="translate(0 4.086)">
                <path id="Trazado_203717" data-name="Trazado 203717" d="M669.755,189.884c-5.785,2.25-11.7,3.6-17.116,6.761a132.059,132.059,0,0,0-14.993,10.2c-4.364,3.428-8.545,7.067-12.928,10.479-5.116,3.983-8.721,8.82-13.091,13.506-.7.752-1.934-.269-1.23-1.023,3.962-4.249,7.237-8.829,11.785-12.519,4.831-3.919,9.65-7.908,14.539-11.749a130.478,130.478,0,0,1,15.634-10.568c5.317-3.047,11.189-4.387,16.856-6.591a.8.8,0,0,1,.546,1.5Z" transform="translate(-610.186 -188.32)" fill="#f3d656"/>
              </g>
              <path id="Trazado_203718" data-name="Trazado 203718" d="M702.719,189.955a4.727,4.727,0,0,1,4.444.594c1.181,1.1.1,2.17-1.182,2.416-1.427.273-2.9-.265-4.28-.536-1.435-.281-2.989.037-4.335-.431a10.442,10.442,0,0,1,3.4-1.293c1.067-.273,2.051-.8,3.1-1.08" transform="translate(-644.185 -184.742)" fill="#f3d656"/>
              <path id="Trazado_203719" data-name="Trazado 203719" d="M701.485,188.443c2.2-.775,5.444-.527,6.982-2.666,1.007-1.4.655-2.669-1.14-2.823a4.273,4.273,0,0,0-3.337,1.716,27.533,27.533,0,0,0-3.249,4.044" transform="translate(-645.502 -182.137)" fill="#f3d656"/>
              <path id="Trazado_203720" data-name="Trazado 203720" d="M692,189.348c.8-2.546,1.728-5.781,4.189-7.313,1.534-.955,1.832.917,1.454,1.983-.861,2.431-3.235,4.493-5.388,5.78Z" transform="translate(-642.094 -181.68)" fill="#f3d656"/>
              <path id="Trazado_203721" data-name="Trazado 203721" d="M682.62,191.7c.486-3.222,1-7.3,3.681-9.611,1.671-1.44,2.383.763,2.128,2.12-.583,3.1-3.06,6.03-5.416,7.987Z" transform="translate(-638.435 -181.621)" fill="#f3d656"/>
              <path id="Trazado_203722" data-name="Trazado 203722" d="M662.586,203.84c-.084-3.257-.292-7.362,1.945-10.106,1.394-1.71,2.48.335,2.465,1.716-.032,3.149-1.961,6.472-3.938,8.81Z" transform="translate(-630.604 -186.091)" fill="#f3d656"/>
              <path id="Trazado_203723" data-name="Trazado 203723" d="M645.455,214.851c-1.119-3.686-2.646-8.3-.958-12.128,1.052-2.386,2.93-.4,3.348,1.18.952,3.6-.2,7.991-1.72,11.277Z" transform="translate(-623.274 -189.42)" fill="#f3d656"/>
              <path id="Trazado_203724" data-name="Trazado 203724" d="M669.27,198.811c1.056-3.6,2.277-8.181,5.667-10.354,2.113-1.354,2.569,1.293,2.067,2.8-1.144,3.44-4.4,6.362-7.37,8.188Z" transform="translate(-633.228 -184.141)" fill="#f3d656"/>
              <path id="Trazado_203725" data-name="Trazado 203725" d="M692.742,195.929c2.245,1.441,5.033,3.328,7.9,2.926,1.789-.251.817-1.879-.156-2.455-2.219-1.313-5.364-1.373-7.841-.981Z" transform="translate(-642.346 -186.92)" fill="#f3d656"/>
              <path id="Trazado_203726" data-name="Trazado 203726" d="M670.954,203.116c2.915.849,6.564,2.009,9.566.644,1.871-.85.286-2.313-.961-2.627-2.845-.717-6.3.232-8.871,1.459Z" transform="translate(-633.781 -189.134)" fill="#f3d656"/>
              <path id="Trazado_203727" data-name="Trazado 203727" d="M660.011,213.542c3.126.909,7.038,2.153,10.257.69,2.006-.913.307-2.48-1.031-2.818-3.05-.769-6.75.248-9.511,1.564Z" transform="translate(-629.506 -193.137)" fill="#f3d656"/>
              <path id="Trazado_203728" data-name="Trazado 203728" d="M648.572,221.517c4.169,1.041,9.384,2.485,13.8.395,2.752-1.3.538-3.284-1.249-3.661-4.076-.861-9.116.666-12.907,2.538Z" transform="translate(-625.017 -195.811)" fill="#f3d656"/>
              <path id="Trazado_203729" data-name="Trazado 203729" d="M653.744,209.079c-.716-2-1.8-3.74-1.871-5.912a7.3,7.3,0,0,1,1.969-5c.534-.618,1.1-1.441,1.993-1.546,1.255-.147.729,1.2.493,2.015a50.618,50.618,0,0,0-1.222,5.324c-.17.983-.36,1.9-.61,2.832a12.9,12.9,0,0,1-.428,2.258" transform="translate(-626.442 -187.465)" fill="#f3d656"/>
              <path id="Trazado_203730" data-name="Trazado 203730" d="M652.619,227.984c-2.33.029-9.845.755-12.735.79-.659.528-1.332,1.045-2.011,1.563,4.712,1.142,12.481,1.89,14.533,1.4.885-.21,2.725-.98,3.043-1.887C656.021,228.214,653.636,227.973,652.619,227.984Z" transform="translate(-620.984 -199.702)" fill="#f3d656"/>
              <path id="Trazado_203731" data-name="Trazado 203731" d="M639.348,245.152c-2.8-.621-12-1.864-15.466-2.634-.938.447-1.887.876-2.848,1.306,5.32,2.691,14.409,5.77,17,5.762,1.119,0,3.537-.407,4.173-1.4C643.357,246.383,640.569,245.424,639.348,245.152Z" transform="translate(-614.417 -205.37)" fill="#f3d656"/>
              <path id="Trazado_203732" data-name="Trazado 203732" d="M633.57,223.866c-.375-1.252-3.573-4.976-2.185-11.815.2-.971.548-2.244,1.582-2.62,1.436-.522,1.542,1.088,1.581,2.106.076,2.01-.181,9.647,0,11.552" transform="translate(-618.318 -192.427)" fill="#f3d656"/>
              <path id="Trazado_203733" data-name="Trazado 203733" d="M628.906,237.7c1.41.405,2.818,1.282,4.279,1.752,1.566.5,10.258,1.98,13,1.416,1.191-.245,3.513-.156,3.809-1.673.285-1.465-1.5-2.376-2.646-2.754-2.668-.879-15.278.01-18.484.684" transform="translate(-617.471 -202.858)" fill="#f3d656"/>
              <path id="Trazado_203734" data-name="Trazado 203734" d="M624.443,229.3c-3.3-4.689-4.612-14.4-3.806-15.38,1.747-2.135,3.952,1.191,4.387,2.81.975,3.628.092,12.169-.512,12.293" transform="translate(-614.172 -193.946)" fill="#f3d656"/>
            </g>
          </g>
        </g>
        <g id="Grupo_143093" data-name="Grupo 143093" transform="translate(0 2.195)">
          <g id="Grupo_143089" data-name="Grupo 143089" transform="translate(16.364)">
            <path id="Trazado_203735" data-name="Trazado 203735" d="M73.472,162.449c5.729-2.179.564-4.729-3.032-5.746-2.909-.823-10.194-2.165-7.237-7.13,3.1-5.2,6.064,1.222,8.527,1.948,5.506,1.621-.224-5.286-1.592-7.127-1.874-2.523-5.815-7.678-.948-8.537,3.936-.695,8.013,4.79,9.645,7.523,1.165,1.949,4.027,11.077,7.007,9.053,2.255-1.532-.078-10.671,5.306-4.139,2.189,2.656,1.836,6.924,2.823,9.962,1.446,4.451,2.055,6.295,6,5.152,2.047-.592,2.114-3.161,4.64-1.426,1.3.894,1.686,5.006,1.675,6.434-.1,13.117-5.346,21.9-7.82,23.035-3.349,1.534-9.574-.681-12.438-2.327-1.424-.818-4.022-2.17-3.839-4.243.206-2.327,3.8-1.992,3.932-3.359.378-3.876-6.752-.173-8.727-.726-2.557-.716-6.792-5.283-4.11-7.7.276-.248,11.42-1.055,5.045-4.6-3.53-1.965-7.315,3.486-10.72-.384C62.714,162.54,71.323,163.267,73.472,162.449Z" transform="translate(-62.509 -135.796)" fill="#afe684"/>
            <path id="Trazado_203736" data-name="Trazado 203736" d="M81.792,171.843a25.524,25.524,0,0,1,7.686-2.205,52.539,52.539,0,0,1-5.3-7.305c-.4-.738.8-1.247,1.2-.514.175.319.37.628.559.941a8.047,8.047,0,0,0-.116-2.631,16.724,16.724,0,0,0-1.462-4.639.655.655,0,0,1,1.2-.514,18.024,18.024,0,0,1,1.652,5.974,4.687,4.687,0,0,1-.476,3.065c2.027,3.009,4.552,5.779,6.666,8.7a12.812,12.812,0,0,0,1.873-4.62c.333-1.847.107-3.725.3-5.585a.655.655,0,0,1,1.3.163c-.23,2.236.032,4.432-.53,6.638a14.762,14.762,0,0,1-2.128,4.55,80.6,80.6,0,0,1,6.518,11.021c.612,1.281,1.172,2.586,1.714,3.9a24.351,24.351,0,0,0,2.934-5.823,19.561,19.561,0,0,0,.98-3.622,9.8,9.8,0,0,1,.385-2.675.655.655,0,0,1,1.215.487c-.446,1.074-.3,2.475-.578,3.624a33.746,33.746,0,0,1-1,3.286,25.807,25.807,0,0,1-3.284,6.1.63.63,0,0,1-.066.062c.914,2.27,1.807,4.549,2.823,6.769a.606.606,0,0,1,.2.264,6.03,6.03,0,0,1,.354.9c1.817,4.585,3.647,9.168,5.4,13.776.3.784-.9,1.3-1.2.515-1.752-4.592-3.575-9.159-5.386-13.729-.011-.02-.027-.031-.037-.052-.581-1.2-1.114-2.417-1.628-3.646-2.38.606-5.025-.09-7.245-.982a.654.654,0,0,1,.486-1.215,11.364,11.364,0,0,0,6.25.966c-1.144-2.81-2.223-5.653-3.526-8.39-.519-1.089-1.074-2.159-1.654-3.215a.607.607,0,0,1-.134.089,19.2,19.2,0,0,1-10.221,1.3c-.83-.13-.672-1.429.163-1.3a17.86,17.86,0,0,0,9.543-1.2c.007,0,.012,0,.018,0a99.222,99.222,0,0,0-5.917-9.011c-.361-.495-.736-.983-1.116-1.47a.542.542,0,0,1-.488.345,24.162,24.162,0,0,0-7.427,2.12A.655.655,0,0,1,81.792,171.843Z" transform="translate(-69.879 -143.126)" fill="#263238"/>
          </g>
          <path id="Trazado_203737" data-name="Trazado 203737" d="M108.319,254.832c2.176,1.782,4.973,4.041,7.235,5.693,2.949,2.152,2.949,4.269.411,6.815-3.133,3.142-8.71,4.858-13.026,5.545-1.526.243-1.811.138-1.842-1.594-.023-1.28.147-2.466.032-3.756a12.674,12.674,0,0,0-2.084-6.683c-2.308-3.24-2.515.786-1.853,2.652a21.265,21.265,0,0,1,1.305,6.872c.033,4.04-13.162-2.017-15.1-4.33,1.51-1.149,3.276-5.892,2.1-7.75-1.032-1.635-1.476.157-1.7,1.241A8.492,8.492,0,0,1,82.682,263c-3.032,4.231-9.348-6.944-10.535-9.245-1.562-3.025-3.364-3.469-6.509-3.6,2.235-2.938,5.493-7.176,9.432-7.326,1.909-.073,3.536,1.284,5.037,2.272,1.034.681,4.431,2.4,2.616-.173-1.268-1.8-3.7-2.392-4.946-4.263,1.016-1.271,4.531-3.6,6.229-3.22,2.033.454,2.654,4.441,3.937,5.82,1.439-2.447-1.326-4.884-2.282-6.888,2.677-1.931,8.106-4.3,11.6-3.365,5.093,1.37.35,7.964-.614,9.058-.71.806-1.831,2.265.076,1.632,1.672-.556,3.827-4.254,4.521-5.844.339-.777.4-2.991,1.111-3.476.814-.553,14.358,5.475,15.885,9.957C119.825,249,112.273,254.242,108.319,254.832Z" transform="translate(-47.365 -173.628)" fill="#afe684"/>
          <g id="Grupo_143092" data-name="Grupo 143092" transform="translate(0 33.553)">
            <g id="Grupo_143091" data-name="Grupo 143091">
              <g id="Grupo_143090" data-name="Grupo 143090" transform="translate(3.449 4.086)">
                <path id="Trazado_203738" data-name="Trazado 203738" d="M41.84,199.062c5.785,2.25,11.7,3.6,17.116,6.761a132.065,132.065,0,0,1,14.993,10.2c4.364,3.428,8.545,7.068,12.928,10.479,5.116,3.983,8.721,8.82,13.091,13.506.7.752,1.934-.269,1.23-1.023-3.963-4.249-7.237-8.829-11.785-12.518-4.831-3.919-9.65-7.908-14.539-11.749a130.627,130.627,0,0,0-15.634-10.568c-5.317-3.047-11.189-4.387-16.856-6.59a.8.8,0,0,0-.546,1.5Z" transform="translate(-41.338 -197.499)" fill="#f3d656"/>
              </g>
              <path id="Trazado_203739" data-name="Trazado 203739" d="M40.692,199.133a4.729,4.729,0,0,0-4.444.594c-1.181,1.1-.1,2.17,1.182,2.416,1.427.273,2.9-.265,4.28-.536,1.435-.281,2.989.036,4.335-.431a10.433,10.433,0,0,0-3.4-1.294c-1.067-.273-2.051-.8-3.1-1.08" transform="translate(-35.706 -193.921)" fill="#f3d656"/>
              <path id="Trazado_203740" data-name="Trazado 203740" d="M43.22,197.621c-2.2-.775-5.444-.527-6.982-2.666-1.007-1.4-.655-2.669,1.14-2.823a4.271,4.271,0,0,1,3.337,1.715,27.539,27.539,0,0,1,3.249,4.044" transform="translate(-35.683 -191.316)" fill="#f3d656"/>
              <path id="Trazado_203741" data-name="Trazado 203741" d="M54.295,198.526c-.8-2.546-1.728-5.781-4.189-7.313-1.534-.955-1.832.917-1.454,1.983.861,2.431,3.235,4.493,5.388,5.78Z" transform="translate(-40.683 -190.859)" fill="#f3d656"/>
              <path id="Trazado_203742" data-name="Trazado 203742" d="M63.634,200.881c-.486-3.222-1-7.3-3.681-9.611-1.671-1.44-2.383.763-2.128,2.12.583,3.095,3.06,6.029,5.416,7.986Z" transform="translate(-44.299 -190.8)" fill="#f3d656"/>
              <path id="Trazado_203743" data-name="Trazado 203743" d="M84.564,213.018c.084-3.257.292-7.362-1.945-10.105-1.394-1.71-2.48.334-2.465,1.715.032,3.149,1.96,6.472,3.938,8.81Z" transform="translate(-53.026 -195.27)" fill="#f3d656"/>
              <path id="Trazado_203744" data-name="Trazado 203744" d="M101.7,224.029c1.119-3.686,2.646-8.3.958-12.128-1.052-2.386-2.931-.4-3.348,1.181-.952,3.6.2,7.99,1.72,11.276Z" transform="translate(-60.363 -198.598)" fill="#f3d656"/>
              <path id="Trazado_203745" data-name="Trazado 203745" d="M75.667,207.989c-1.056-3.6-2.277-8.181-5.667-10.354-2.113-1.354-2.569,1.294-2.067,2.8,1.144,3.44,4.4,6.363,7.37,8.188Z" transform="translate(-48.187 -193.32)" fill="#f3d656"/>
              <path id="Trazado_203746" data-name="Trazado 203746" d="M51.508,205.107c-2.245,1.441-5.033,3.328-7.9,2.926-1.789-.251-.817-1.878.156-2.455,2.219-1.313,5.364-1.373,7.84-.98Z" transform="translate(-38.383 -196.098)" fill="#f3d656"/>
              <path id="Trazado_203747" data-name="Trazado 203747" d="M72.211,212.294c-2.915.849-6.564,2.009-9.566.644-1.871-.851-.286-2.313.961-2.628,2.845-.717,6.3.232,8.871,1.459Z" transform="translate(-45.862 -198.312)" fill="#f3d656"/>
              <path id="Trazado_203748" data-name="Trazado 203748" d="M82.66,222.72c-3.126.909-7.038,2.153-10.257.69-2.006-.912-.307-2.48,1.031-2.818,3.05-.769,6.75.248,9.511,1.564Z" transform="translate(-49.644 -202.315)" fill="#f3d656"/>
              <path id="Trazado_203749" data-name="Trazado 203749" d="M91.549,230.7c-4.169,1.042-9.384,2.485-13.8.395-2.752-1.3-.538-3.283,1.249-3.661,4.075-.86,9.116.666,12.907,2.538Z" transform="translate(-51.583 -204.989)" fill="#f3d656"/>
              <path id="Trazado_203750" data-name="Trazado 203750" d="M93.206,218.257c.715-2,1.8-3.74,1.871-5.912a7.3,7.3,0,0,0-1.969-5.005c-.534-.618-1.1-1.441-1.993-1.546-1.255-.146-.729,1.2-.493,2.015a50.59,50.59,0,0,1,1.222,5.325c.17.982.36,1.9.61,2.831a12.907,12.907,0,0,0,.428,2.258" transform="translate(-56.987 -196.644)" fill="#f3d656"/>
              <path id="Trazado_203751" data-name="Trazado 203751" d="M86.089,237.163c2.33.028,9.845.755,12.735.789.659.529,1.332,1.045,2.011,1.564-4.712,1.141-12.481,1.889-14.533,1.4-.885-.21-2.726-.98-3.043-1.887C82.686,237.392,85.072,237.151,86.089,237.163Z" transform="translate(-54.203 -208.881)" fill="#f3d656"/>
              <path id="Trazado_203752" data-name="Trazado 203752" d="M96.941,254.33c2.8-.621,12-1.864,15.466-2.634.938.447,1.887.876,2.848,1.306-5.32,2.691-14.409,5.77-17,5.762-1.119,0-3.537-.407-4.173-1.4C92.932,255.562,95.72,254.6,96.941,254.33Z" transform="translate(-58.351 -214.549)" fill="#f3d656"/>
              <path id="Trazado_203753" data-name="Trazado 203753" d="M114.177,233.045c.375-1.252,3.573-4.976,2.185-11.815-.2-.97-.548-2.244-1.582-2.619-1.436-.522-1.542,1.088-1.581,2.106-.076,2.01.181,9.647,0,11.552" transform="translate(-65.908 -201.606)" fill="#f3d656"/>
              <path id="Trazado_203754" data-name="Trazado 203754" d="M107.565,246.88c-1.41.405-2.818,1.283-4.279,1.753-1.567.5-10.258,1.979-13,1.416-1.191-.245-3.513-.157-3.809-1.674-.285-1.465,1.5-2.376,2.646-2.754,2.668-.879,15.278.01,18.484.684" transform="translate(-55.48 -212.036)" fill="#f3d656"/>
              <path id="Trazado_203755" data-name="Trazado 203755" d="M122.326,238.474c3.3-4.689,4.612-14.4,3.806-15.38-1.747-2.134-3.952,1.192-4.387,2.81-.975,3.628-.092,12.169.512,12.293" transform="translate(-69.077 -203.124)" fill="#f3d656"/>
            </g>
          </g>
        </g>
      </g>
      <g id="Grupo_143110" data-name="Grupo 143110" transform="translate(44.419 36.351)">
        <path id="Trazado_203851" data-name="Trazado 203851" d="M0,0H189.143V126.038H0Z" transform="translate(67.342 13.748)" fill="#727997"/>
        <path id="Trazado_203852" data-name="Trazado 203852" d="M0,0H189.143V7.916H0Z" transform="translate(67.342 13.748)" fill="#565d7c" style="mix-blend-mode: multiply;isolation: isolate"/>
        <path id="Trazado_203756" data-name="Trazado 203756" d="M392.243,136.247H230.6a13.748,13.748,0,0,0-13.747,13.748H405.99A13.747,13.747,0,0,0,392.243,136.247Z" transform="translate(-149.506 -136.247)" fill="#ff725e"/>
        <path id="Trazado_203893" data-name="Trazado 203893" d="M0,0H307.03V100.72H0Z" transform="translate(5.963 39.066)" fill="#565d7c"/>
        <path id="Rectángulo_43012" data-name="Rectángulo 43012" d="M92.293,0H214.737A92.293,92.293,0,0,1,307.03,92.293v0a0,0,0,0,1,0,0H0a0,0,0,0,1,0,0v0A92.293,92.293,0,0,1,92.293,0Z" transform="translate(5.963 47.493)" fill="#727997" opacity="0.44" style="mix-blend-mode: multiply;isolation: isolate"/>
        <rect id="Rectángulo_43013" data-name="Rectángulo 43013" width="307.03" height="8.427" transform="translate(5.963 39.066)" fill="#ff725e" style="mix-blend-mode: multiply;isolation: isolate"/>
        <path id="Trazado_203757" data-name="Trazado 203757" d="M423.259,194.86H116.228a8.491,8.491,0,0,1,8.491-8.491H414.767a8.491,8.491,0,0,1,8.491,8.491Z" transform="translate(-110.265 -155.794)" fill="#ff725e"/>
        <g id="Grupo_143095" data-name="Grupo 143095" transform="translate(89.594 52.879)">
          <rect id="Rectángulo_43014" data-name="Rectángulo 43014" width="9.662" height="86.907" fill="#3a405c"/>
          <rect id="Rectángulo_43015" data-name="Rectángulo 43015" width="3.773" height="86.907" transform="translate(5.889)" fill="#3a405c" opacity="0.5" style="mix-blend-mode: multiply;isolation: isolate"/>
          <rect id="Rectángulo_43016" data-name="Rectángulo 43016" width="9.662" height="86.907" transform="translate(19.355)" fill="#3a405c"/>
          <rect id="Rectángulo_43017" data-name="Rectángulo 43017" width="4.831" height="86.907" transform="translate(24.186)" fill="#3a405c" opacity="0.5" style="mix-blend-mode: multiply;isolation: isolate"/>
        </g>
        <g id="Grupo_143096" data-name="Grupo 143096" transform="translate(204.368 52.879)">
          <rect id="Rectángulo_43018" data-name="Rectángulo 43018" width="9.662" height="86.907" fill="#3a405c"/>
          <rect id="Rectángulo_43019" data-name="Rectángulo 43019" width="4.831" height="86.907" fill="#3a405c" opacity="0.5" style="mix-blend-mode: multiply;isolation: isolate"/>
          <rect id="Rectángulo_43020" data-name="Rectángulo 43020" width="9.662" height="86.907" transform="translate(19.355)" fill="#3a405c"/>
          <rect id="Rectángulo_43021" data-name="Rectángulo 43021" width="4.831" height="86.907" transform="translate(19.355)" fill="#3a405c" opacity="0.5" style="mix-blend-mode: multiply;isolation: isolate"/>
        </g>
        <g id="Grupo_143097" data-name="Grupo 143097" transform="translate(84.605 27.647)">
          <path id="Trazado_203758" data-name="Trazado 203758" d="M398.57,187.723V208.1a6.552,6.552,0,0,1-6.553,6.552H251.7a6.55,6.55,0,0,1-6.553-6.552V187.723a6.155,6.155,0,0,1,6.155-6.154H392.415a5.488,5.488,0,0,1,.7.041A6.157,6.157,0,0,1,398.57,187.723Z" transform="translate(-245.147 -181.569)" fill="#263238"/>
          <path id="Trazado_203759" data-name="Trazado 203759" d="M398.97,187.75v20.379a6.552,6.552,0,0,1-6.553,6.552H252.1a6.548,6.548,0,0,1-5.926-3.753l147.338-29.291A6.157,6.157,0,0,1,398.97,187.75Z" transform="translate(-245.548 -181.595)" fill="#5455cf" opacity="0.5" style="mix-blend-mode: multiply;isolation: isolate"/>
        </g>
        <g id="Grupo_143102" data-name="Grupo 143102" transform="translate(13.371 60.732)">
          <g id="Grupo_143099" data-name="Grupo 143099">
            <g id="Grupo_143098" data-name="Grupo 143098" transform="translate(1.757)">
              <path id="Trazado_203760" data-name="Trazado 203760" d="M146.156,235.806H142.7a11.448,11.448,0,0,0-11.447,11.448v35.692H157.6V247.254A11.448,11.448,0,0,0,146.156,235.806Zm-1.728,1.8a11.448,11.448,0,0,1,11.447,11.447v10.879H132.98V249.053A11.448,11.448,0,0,1,144.428,237.606ZM132.98,281.146V261.833h22.895v19.314Z" transform="translate(-131.252 -235.806)" fill="#ff725e"/>
              <path id="Trazado_203761" data-name="Trazado 203761" d="M156.98,250.2v10.88h-22.9V250.2a11.448,11.448,0,0,1,22.9,0Z" transform="translate(-132.356 -236.956)" fill="#e7effa"/>
              <path id="Trazado_203762" data-name="Trazado 203762" d="M156.98,252.927v10.88h-22.9a18.053,18.053,0,0,1,18.065-18.065h2.289A11.355,11.355,0,0,1,156.98,252.927Z" transform="translate(-132.356 -239.681)" fill="#f4f8fd" opacity="0.59" style="mix-blend-mode: screen;isolation: isolate"/>
              <rect id="Rectángulo_43022" data-name="Rectángulo 43022" width="22.895" height="19.314" transform="translate(1.728 26.026)" fill="#f4f8fd"/>
              <path id="Trazado_203847" data-name="Trazado 203847" d="M19.314,0H22.9V19.314H0A19.314,19.314,0,0,1,19.314,0Z" transform="translate(1.728 26.026)" fill="#f4f8fd" opacity="0.59" style="mix-blend-mode: screen;isolation: isolate"/>
            </g>
            <rect id="Rectángulo_43024" data-name="Rectángulo 43024" width="29.865" height="5.465" transform="translate(0 42.845)" fill="#263238"/>
          </g>
          <g id="Grupo_143101" data-name="Grupo 143101" transform="translate(38.112)">
            <g id="Grupo_143100" data-name="Grupo 143100" transform="translate(1.757)">
              <path id="Trazado_203763" data-name="Trazado 203763" d="M208.633,235.806h-3.456a11.448,11.448,0,0,0-11.447,11.448v35.692H220.08V247.254A11.448,11.448,0,0,0,208.633,235.806Zm-1.728,1.8a11.448,11.448,0,0,1,11.447,11.447v10.879H195.457V249.053A11.448,11.448,0,0,1,206.9,237.606Zm-11.447,43.541V261.833h22.895v19.314Z" transform="translate(-193.729 -235.806)" fill="#ff725e"/>
              <path id="Trazado_203764" data-name="Trazado 203764" d="M219.457,250.2v10.88h-22.9V250.2a11.448,11.448,0,0,1,22.9,0Z" transform="translate(-194.833 -236.956)" fill="#e7effa"/>
              <path id="Trazado_203765" data-name="Trazado 203765" d="M219.457,252.927v10.88h-22.9a18.053,18.053,0,0,1,18.065-18.065h2.29A11.356,11.356,0,0,1,219.457,252.927Z" transform="translate(-194.833 -239.681)" fill="#f3f9ff" opacity="0.59" style="mix-blend-mode: screen;isolation: isolate"/>
              <rect id="Rectángulo_43025" data-name="Rectángulo 43025" width="22.895" height="19.314" transform="translate(1.728 26.026)" fill="#e7effa"/>
              <path id="Rectángulo_43026" data-name="Rectángulo 43026" d="M19.314,0H22.9a0,0,0,0,1,0,0V19.314a0,0,0,0,1,0,0H0a0,0,0,0,1,0,0v0A19.314,19.314,0,0,1,19.314,0Z" transform="translate(1.728 26.026)" fill="#ff725e" opacity="0.59" style="mix-blend-mode: screen;isolation: isolate"/>
            </g>
            <rect id="Rectángulo_43027" data-name="Rectángulo 43027" width="29.865" height="5.465" transform="translate(0 42.845)" fill="#263238"/>
          </g>
        </g>
        <g id="Grupo_143107" data-name="Grupo 143107" transform="translate(238.026 60.732)">
          <g id="Grupo_143104" data-name="Grupo 143104">
            <g id="Grupo_143103" data-name="Grupo 143103" transform="translate(1.757)">
              <path id="Trazado_203766" data-name="Trazado 203766" d="M514.437,235.806H510.98a11.448,11.448,0,0,0-11.447,11.448v35.692h26.351V247.254A11.448,11.448,0,0,0,514.437,235.806Zm-1.728,1.8a11.448,11.448,0,0,1,11.447,11.447v10.879H501.261V249.053A11.448,11.448,0,0,1,512.709,237.606Zm-11.447,43.541V261.833h22.895v19.314Z" transform="translate(-499.533 -235.806)" fill="#ff725e"/>
              <path id="Trazado_203767" data-name="Trazado 203767" d="M525.261,250.2v10.88h-22.9V250.2a11.448,11.448,0,0,1,22.9,0Z" transform="translate(-500.637 -236.956)" fill="#f4f8fd"/>
              <path id="Trazado_203768" data-name="Trazado 203768" d="M525.261,252.927v10.88h-22.9a18.053,18.053,0,0,1,18.065-18.065h2.29A11.356,11.356,0,0,1,525.261,252.927Z" transform="translate(-500.637 -239.681)" fill="#f4f8fd" opacity="0.59" style="mix-blend-mode: screen;isolation: isolate"/>
              <rect id="Rectángulo_43028" data-name="Rectángulo 43028" width="22.895" height="19.314" transform="translate(1.728 26.026)" fill="#f4f8fd"/>
              <path id="Trazado_203848" data-name="Trazado 203848" d="M19.314,0H22.9V19.314H0A19.314,19.314,0,0,1,19.314,0Z" transform="translate(1.728 26.026)" fill="#f4f8fd" opacity="0.59" style="mix-blend-mode: screen;isolation: isolate"/>
            </g>
            <rect id="Rectángulo_43030" data-name="Rectángulo 43030" width="29.865" height="5.465" transform="translate(0 42.845)" fill="#263238"/>
          </g>
          <g id="Grupo_143106" data-name="Grupo 143106" transform="translate(38.112)">
            <g id="Grupo_143105" data-name="Grupo 143105" transform="translate(1.757)">
              <path id="Trazado_203769" data-name="Trazado 203769" d="M576.914,235.806h-3.456a11.448,11.448,0,0,0-11.447,11.448v35.692h26.351V247.254A11.448,11.448,0,0,0,576.914,235.806Zm-1.728,1.8a11.448,11.448,0,0,1,11.447,11.447v10.879H563.738V249.053A11.448,11.448,0,0,1,575.186,237.606Zm-11.448,43.541V261.833h22.895v19.314Z" transform="translate(-562.01 -235.806)" fill="#ff725e"/>
              <path id="Trazado_203770" data-name="Trazado 203770" d="M587.738,250.2v10.88h-22.9V250.2a11.448,11.448,0,0,1,22.9,0Z" transform="translate(-563.114 -236.956)" fill="#fafcfe"/>
              <path id="Trazado_203771" data-name="Trazado 203771" d="M587.738,252.927v10.88h-22.9a18.029,18.029,0,0,1,5.288-12.778,18.5,18.5,0,0,1,4.006-3.021,17.828,17.828,0,0,1,8.771-2.266h2.29A11.356,11.356,0,0,1,587.738,252.927Z" transform="translate(-563.114 -239.681)" fill="#fafcfe" opacity="0.59" style="mix-blend-mode: screen;isolation: isolate"/>
              <path id="Trazado_203850" data-name="Trazado 203850" d="M0,0H22.895V19.314H0Z" transform="translate(1.728 26.026)" fill="#fafcfe"/>
              <path id="Trazado_203849" data-name="Trazado 203849" d="M19.314,0h3.581V19.314H0A19.314,19.314,0,0,1,19.314,0Z" transform="translate(1.728 26.026)" fill="#fafcfe" opacity="0.59" style="mix-blend-mode: screen;isolation: isolate"/>
            </g>
            <rect id="Rectángulo_43033" data-name="Rectángulo 43033" width="29.865" height="5.465" transform="translate(0 42.845)" fill="#263238"/>
          </g>
        </g>
        <text id="BANK" transform="translate(115.644 52.19)" fill="#fff" font-size="27" font-family="SegoeUI, Segoe UI" letter-spacing="0.1em"><tspan x="0" y="0">BANK</tspan></text>
        <g id="Grupo_143109" data-name="Grupo 143109" transform="translate(137.645 62.42)">
          <g id="Grupo_143108" data-name="Grupo 143108">
            <path id="Trazado_203772" data-name="Trazado 203772" d="M358.268,238.573h0A26.172,26.172,0,0,0,332.1,264.744v51.476h4.151V265.357a22.018,22.018,0,0,1,20.16-21.937v72.8h4.035V243.445a22.022,22.022,0,0,1,19.847,21.913v50.863h4.151V264.744A26.172,26.172,0,0,0,358.268,238.573Z" transform="translate(-332.096 -238.573)" fill="#ff725e"/>
            <path id="Trazado_203773" data-name="Trazado 203773" d="M378.564,246.559v72.776h19.847V268.472A22.022,22.022,0,0,0,378.564,246.559Z" transform="translate(-350.218 -241.687)" fill="#f4f8fd"/>
            <path id="Trazado_203774" data-name="Trazado 203774" d="M398.407,270.865v4.662l-19.845,8.485V260.377a7.646,7.646,0,0,1,12.818-5.64A21.957,21.957,0,0,1,398.407,270.865Z" transform="translate(-350.217 -244.081)" fill="#a6bcfe" opacity="0.59" style="mix-blend-mode: screen;isolation: isolate"/>
            <path id="Trazado_203775" data-name="Trazado 203775" d="M378.562,320.617l19.845-8.485v32.775H378.562Z" transform="translate(-350.217 -267.26)" fill="#a6bcfe" opacity="0.59" style="mix-blend-mode: screen;isolation: isolate"/>
            <path id="Trazado_203776" data-name="Trazado 203776" d="M338.9,268.457V319.32h20.16v-72.8A22.018,22.018,0,0,0,338.9,268.457Z" transform="translate(-334.75 -241.672)" fill="#f4f8fd"/>
          </g>
          <path id="Trazado_203777" data-name="Trazado 203777" d="M359.057,261.952V286.1L338.9,294.715V271.227a21.925,21.925,0,0,1,5.909-15C349.893,250.767,359.057,254.5,359.057,261.952Z" transform="translate(-334.748 -244.444)" fill="#a6bcfe" opacity="0.59" style="mix-blend-mode: screen;isolation: isolate"/>
          <path id="Trazado_203778" data-name="Trazado 203778" d="M338.9,337.484l20.161-8.62v22.568H338.9Z" transform="translate(-334.748 -273.786)" fill="#a6bcfe" opacity="0.59" style="mix-blend-mode: screen;isolation: isolate"/>
        </g>
        <rect id="Rectángulo_43034" data-name="Rectángulo 43034" width="327.633" height="9.955" transform="translate(0 143.592)" fill="#565d7c"/>
        <path id="Trazado_203779" data-name="Trazado 203779" d="M429.108,364.44H111.431a4.978,4.978,0,0,0-4.978,4.978H434.086A4.978,4.978,0,0,0,429.108,364.44Z" transform="translate(-106.453 -225.24)" fill="#263238"/>
      </g>
      <g id="Grupo_143122" data-name="Grupo 143122" transform="translate(242.011 140.368)">
        <path id="Trazado_203780" data-name="Trazado 203780" d="M467.691,312.418s5.479,7.354,12.731,8.258l-.971,4.947s-11.932-5.949-12.987-11.552Z" transform="translate(-444.446 -308.969)" fill="url(#linear-gradient)"/>
        <g id="Grupo_143121" data-name="Grupo 143121">
          <path id="Trazado_203781" data-name="Trazado 203781" d="M485.992,426.718c.953,2.571-1.282,2.592-6.286,2.541-.7-.012-1.177-.749.007-1.105l3.675-1.5s2.161-.046,2.525-.021Z" transform="translate(-449.332 -353.508)" fill="#3a3772"/>
          <g id="Grupo_143117" data-name="Grupo 143117" transform="translate(29.092)">
            <path id="Trazado_203782" data-name="Trazado 203782" d="M488.913,318a41.1,41.1,0,0,1,1.191,5.435c.155,1.191-2.885,2.606-3.011,2.56a.385.385,0,0,1-.256-.386,9.794,9.794,0,0,0-.964-5.143Z" transform="translate(-481.107 -311.144)" fill="#e6b7ba"/>
            <g id="Grupo_143115" data-name="Grupo 143115" transform="translate(1.683 0.878)">
              <g id="Grupo_143114" data-name="Grupo 143114">
                <path id="Trazado_203783" data-name="Trazado 203783" d="M488.537,312.763c-.349-2.022-1.734-4.319-3.193-4.51-1.909-.251-3.574.286-4.086,5.236a5.926,5.926,0,0,0-.439,1.048c.013.171.253.238.431.274a.085.085,0,0,0,.045,0c.311,1.508,1.379,3.2,2.829,3.517,1.4.31,3.12-1.136,3.969-2.706C488.725,315.468,488.737,312.657,488.537,312.763Z" transform="translate(-480.819 -308.203)" fill="#edcacd"/>
                <g id="Grupo_143111" data-name="Grupo 143111" transform="translate(1.085 6.04)">
                  <path id="Trazado_203784" data-name="Trazado 203784" d="M483.415,319.447a1.392,1.392,0,0,0,.63-1.248.1.1,0,0,0-.193,0,1.337,1.337,0,0,1-1.172,1.34.1.1,0,1,0,.027.191A1.9,1.9,0,0,0,483.415,319.447Z" transform="translate(-482.597 -318.104)" fill="#3a3772"/>
                </g>
                <g id="Grupo_143112" data-name="Grupo 143112" transform="translate(0.945 5.034)">
                  <path id="Trazado_203785" data-name="Trazado 203785" d="M483.083,316.811a.358.358,0,1,1-.361-.356A.358.358,0,0,1,483.083,316.811Z" transform="translate(-482.368 -316.455)" fill="#3a3772"/>
                </g>
                <g id="Grupo_143113" data-name="Grupo 143113" transform="translate(1.097 3.804)">
                  <path id="Trazado_203786" data-name="Trazado 203786" d="M483.684,315.037l.01,0a.1.1,0,0,0,.04-.131.8.8,0,0,0-1.06-.391.1.1,0,0,0-.047.127.094.094,0,0,0,.128.048.611.611,0,0,1,.808.307A.1.1,0,0,0,483.684,315.037Z" transform="translate(-482.617 -314.438)" fill="#3a3772"/>
                </g>
              </g>
            </g>
            <g id="Grupo_143116" data-name="Grupo 143116">
              <path id="Trazado_203787" data-name="Trazado 203787" d="M489.013,311.834a5.489,5.489,0,0,0-5.7-5.069c-1.923.041-5.023.758-5.249,3.448-.033.387.181,1.03.541,1.121,0,0-.117-1.174.439-1.477a1.04,1.04,0,0,0,.5,1.091,2.8,2.8,0,0,0,1.239.357,1.534,1.534,0,0,1,.492-1.114,2.441,2.441,0,0,0,1.337,1.263,3.693,3.693,0,0,1,.971.524,2.606,2.606,0,0,1,.626,1.77.856.856,0,0,1,.971-.339.83.83,0,0,1,.545.857,1.193,1.193,0,0,1-.742.859c-.115.053-.25.111-.282.231a.382.382,0,0,0,.012.188c.037.159.075.318.112.477a1.122,1.122,0,0,0,.148.393,1.069,1.069,0,0,0,.667.313,2.511,2.511,0,0,0,2.366-1.02,4,4,0,0,0,.784-1.668A8.212,8.212,0,0,0,489.013,311.834Z" transform="translate(-478.06 -306.763)" fill="#3a3772"/>
            </g>
          </g>
          <path id="Trazado_203788" data-name="Trazado 203788" d="M474.234,365.516a3.457,3.457,0,0,1-2.545.165.235.235,0,0,1,0-.412c1.662-.924,2.579-1.378,3.727-2.079a1.5,1.5,0,0,1,1.975-.459l.156.041-.427.587A6,6,0,0,1,474.234,365.516Z" transform="translate(-446.435 -328.516)" fill="#edcacd"/>
          <path id="Trazado_203789" data-name="Trazado 203789" d="M489.932,326.045c3.386,3.439,1.027,14.524,5.424,22.877H483.994c-1.716-10.608-3.024-13.7-3.4-17.545,0-.031-.006-.062-.009-.092a5.62,5.62,0,0,1,4.954-6l1.562-.193A3.381,3.381,0,0,1,489.932,326.045Z" transform="translate(-449.946 -313.902)" fill="#ff725e"/>
          <g id="Grupo_143120" data-name="Grupo 143120" transform="translate(0 1.819)">
            <circle id="Elipse_6837" data-name="Elipse 6837" cx="16.783" cy="16.783" r="16.783" transform="translate(2.411 2.411)" fill="#f3d656"/>
            <path id="Trazado_203790" data-name="Trazado 203790" d="M437.209,331.6a15.022,15.022,0,0,0,15.019,15.024,14.439,14.439,0,0,0,2.118-.151,15.023,15.023,0,0,0,12.882-14.026c.015-.282.024-.565.024-.847a15.023,15.023,0,0,0-15.024-15.024c-.166,0-.331,0-.5.01a14.93,14.93,0,0,0-8.316,2.843,15.292,15.292,0,0,0-2.337,2.108,14.9,14.9,0,0,0-3.666,7.6A14.577,14.577,0,0,0,437.209,331.6Z" transform="translate(-433.036 -312.41)" fill="#f3d656" style="mix-blend-mode: multiply;isolation: isolate"/>
            <circle id="Elipse_6838" data-name="Elipse 6838" cx="13.685" cy="13.685" r="13.685" transform="matrix(0.792, -0.61, 0.61, 0.792, 0, 16.709)" fill="#f3d656" style="mix-blend-mode: multiply;isolation: isolate"/>
            <path id="Trazado_203791" data-name="Trazado 203791" d="M465.037,314.2c-.469,1.238-.337,2.436.292,2.674s1.52-.573,1.988-1.812.338-2.436-.292-2.674S465.506,312.964,465.037,314.2Z" transform="translate(-443.78 -310.761)" fill="#edcacd"/>
            <g id="Grupo_143118" data-name="Grupo 143118" transform="translate(12.106 7.127)">
              <path id="Trazado_203792" data-name="Trazado 203792" d="M456.392,343.3c-3.557-.3-6.1-2.206-6.178-5.517h4.137a2.453,2.453,0,0,0,2.041,2.4v-5.267c-2.841-.717-6.178-1.517-6.178-5.6,0-3.255,2.592-5.379,6.178-5.655v-2.233h1.765v2.233c3.447.276,5.765,2.125,6.012,5.407h-4.164a2.529,2.529,0,0,0-1.848-2.235v5.213c2.868.746,6.232,1.49,6.232,5.572,0,2.813-2.206,5.433-6.232,5.708v2.235h-1.765Zm0-11.777V326.75a2.277,2.277,0,0,0-2.152,2.373C454.241,330.419,455.123,331.081,456.392,331.523Zm1.765,3.888v4.826a2.466,2.466,0,0,0,2.234-2.455C460.392,336.487,459.453,335.853,458.158,335.411Z" transform="translate(-450.214 -321.428)" fill="#f3d656"/>
            </g>
            <g id="Grupo_143119" data-name="Grupo 143119" transform="translate(5.704 5.509)" opacity="0.46" style="mix-blend-mode: screen;isolation: isolate">
              <path id="Trazado_203793" data-name="Trazado 203793" d="M448.684,321.365l18.924,19.368a13.6,13.6,0,0,0,2.768-7.509l-14.117-14.449A13.6,13.6,0,0,0,448.684,321.365Z" transform="translate(-443.215 -318.775)" fill="#f3d656"/>
              <path id="Trazado_203794" data-name="Trazado 203794" d="M439.719,333.1l15.425,15.789a13.577,13.577,0,0,0,7-3.175l-19.084-19.541A13.574,13.574,0,0,0,439.719,333.1Z" transform="translate(-439.719 -321.659)" fill="#f3d656"/>
            </g>
            <path id="Trazado_203795" data-name="Trazado 203795" d="M450.165,312.025l-.553,1.011a.823.823,0,0,1-.326.326l-1.011.553a.82.82,0,0,0,0,1.44l1.011.553a.819.819,0,0,1,.326.326l.553,1.011a.82.82,0,0,0,1.44,0l.553-1.011a.815.815,0,0,1,.326-.326l1.011-.553a.82.82,0,0,0,0-1.44l-1.011-.553a.819.819,0,0,1-.326-.326l-.553-1.011A.82.82,0,0,0,450.165,312.025Z" transform="translate(-437.185 -310.468)" fill="#fff"/>
            <path id="Trazado_203796" data-name="Trazado 203796" d="M442.914,320.39l-.371.678a.556.556,0,0,1-.219.219l-.678.371a.55.55,0,0,0,0,.965l.678.371a.555.555,0,0,1,.219.218l.371.678a.55.55,0,0,0,.965,0l.371-.678a.549.549,0,0,1,.218-.218l.678-.371a.55.55,0,0,0,0-.965l-.678-.371a.551.551,0,0,1-.218-.219l-.371-.678A.55.55,0,0,0,442.914,320.39Z" transform="translate(-434.655 -313.784)" fill="#fff"/>
          </g>
          <path id="Trazado_203797" data-name="Trazado 203797" d="M477.119,348.427c4.024-6.4,6.883-13.567,5.893-19.8a2.57,2.57,0,0,1,.728-2.235h0a2.571,2.571,0,0,1,4.2.89h0a10.346,10.346,0,0,1,.507,5.811c-1.072,5.345-5.21,11.361-9.182,16.328Z" transform="translate(-448.601 -314.128)" fill="#ff725e"/>
          <path id="Trazado_203798" data-name="Trazado 203798" d="M495.63,364.173H484.667l-1.651,5.884c-1.576,5.616-2.391,18.341-1.129,24.036l2.428,8.231h2.511L486.2,398.4c-.768-8.139,1.954-23.1,6.512-29.884Z" transform="translate(-450.219 -329.152)" fill="#263238"/>
          <path id="Trazado_203799" data-name="Trazado 203799" d="M491.446,364.173c4.644,11.74,10.683,28.227,20.757,34.5h2.791c-8.931-9.475-15.04-25.608-15.395-34.5Z" transform="translate(-454.188 -329.152)" fill="#263238"/>
          <path id="Trazado_203800" data-name="Trazado 203800" d="M526.219,420.729h-2.791l-.906,2.658a2.737,2.737,0,0,1-1.6,1.681,2.112,2.112,0,0,0-.445.23.6.6,0,0,0,.365,1.076h1.48a2.719,2.719,0,0,0,2.262-1.211l1.637-2.458A1.55,1.55,0,0,0,526.219,420.729Z" transform="translate(-465.414 -351.209)" fill="#3a3772"/>
        </g>
      </g>
      <g id="Grupo_143139" data-name="Grupo 143139" transform="translate(168.009 128.133)">
        <g id="Grupo_143138" data-name="Grupo 143138">
          <path id="Trazado_203801" data-name="Trazado 203801" d="M319.348,302.54a29.129,29.129,0,0,1,.749-5.352c.364-1.547.847-3.182.336-4.687a6.971,6.971,0,0,0-2.854-3.164,6.326,6.326,0,0,0-4.28-1.521,3.351,3.351,0,0,0-2.865,4.029,16.912,16.912,0,0,1,.745,2.5,6.043,6.043,0,0,1-1.2,3.1,6.823,6.823,0,0,0-.9,2.569,3.655,3.655,0,0,0,.645,2.6c.616.8,1.634,1.273,2.108,2.168.587,1.11.143,2.473-.416,3.6a6.835,6.835,0,0,0-1.13,3.535,3.687,3.687,0,0,0,2.9,3,7.175,7.175,0,0,0,4.344-.569,4.3,4.3,0,0,0,2.18-1.626c.676-1.156.337-2.608.082-3.922A26.537,26.537,0,0,1,319.348,302.54Z" transform="translate(-309.056 -287.128)" fill="#3a3772"/>
          <g id="Grupo_143123" data-name="Grupo 143123" transform="translate(17.639 30.863)">
            <path id="Trazado_203802" data-name="Trazado 203802" d="M337.972,344.774l0-.025Z" transform="translate(-337.972 -340.206)" fill="#edcacd"/>
            <path id="Trazado_203803" data-name="Trazado 203803" d="M339.623,337.382c.04-.162.012-.035,0,0Z" transform="translate(-338.616 -337.301)" fill="#edcacd"/>
          </g>
          <path id="Trazado_203804" data-name="Trazado 203804" d="M321.87,307.939" transform="translate(-314.053 -294.987)" fill="#edcacd"/>
          <path id="Trazado_203805" data-name="Trazado 203805" d="M327.883,307.975a7.217,7.217,0,0,1-5.432-3.6l.5-.834a8.366,8.366,0,0,0,.749-1.619l.537-1.583,2.163.93a3.331,3.331,0,0,0,.079,2.411,1.747,1.747,0,0,0,.8.888l.012.006,1.29.6C330.665,307.92,327.883,307.975,327.883,307.975Z" transform="translate(-314.28 -292.025)" fill="#edcacd"/>
          <g id="Grupo_143133" data-name="Grupo 143133" transform="translate(6.996 0.865)">
            <path id="Trazado_203806" data-name="Trazado 203806" d="M320.9,295.209c-.392-.546-.562-1.412-.077-1.667a.925.925,0,0,1,.548-.063c-.345-1.877.124-4.327,1.336-4.964,1.585-.833,3.351-.62,5.39,3.535a3.9,3.9,0,0,1-1.086,4.862c-1.124.722-3.089.012-4.333-1.085A1.7,1.7,0,0,1,320.9,295.209Z" transform="translate(-320.524 -288.125)" fill="#edcacd"/>
            <g id="Grupo_143132" data-name="Grupo 143132" transform="translate(2.809 2.608)">
              <g id="Grupo_143125" data-name="Grupo 143125" transform="translate(2.864 2.178)">
                <g id="Grupo_143124" data-name="Grupo 143124">
                  <path id="Trazado_203807" data-name="Trazado 203807" d="M330.473,296.745a.105.105,0,0,0,.023-.01c.179-.109.411-.276.358-.467-.074-.265-.677-.3-.932-.3a.1.1,0,0,0,0,.2c.361,0,.723.076.744.153,0,0,.007.078-.271.248a.1.1,0,0,0-.033.134A.1.1,0,0,0,330.473,296.745Z" transform="translate(-329.824 -295.972)" fill="#3a3772"/>
                </g>
              </g>
              <g id="Grupo_143127" data-name="Grupo 143127" transform="translate(1.627 3.413)">
                <g id="Grupo_143126" data-name="Grupo 143126">
                  <path id="Trazado_203808" data-name="Trazado 203808" d="M329.954,298.7a1.581,1.581,0,0,0,.165-.078.112.112,0,0,0,.042-.151.108.108,0,0,0-.152-.041,1.539,1.539,0,0,1-2.012-.387.11.11,0,0,0-.156-.022.112.112,0,0,0-.023.156A1.719,1.719,0,0,0,329.954,298.7Z" transform="translate(-327.796 -297.997)" fill="#3a3772"/>
                </g>
              </g>
              <path id="Trazado_203809" data-name="Trazado 203809" d="M326.963,296.11" transform="translate(-325.844 -293.848)" fill="#3a3772"/>
              <g id="Grupo_143129" data-name="Grupo 143129" transform="translate(0 0.922)">
                <g id="Grupo_143128" data-name="Grupo 143128">
                  <path id="Trazado_203810" data-name="Trazado 203810" d="M325.272,294.879a.112.112,0,0,0,.079-.091.7.7,0,0,1,.752-.652.111.111,0,1,0,.019-.221.916.916,0,0,0-.992.842.112.112,0,0,0,.1.126A.1.1,0,0,0,325.272,294.879Z" transform="translate(-325.128 -293.912)" fill="#3a3772"/>
                </g>
              </g>
              <g id="Grupo_143131" data-name="Grupo 143131" transform="translate(2.739)">
                <g id="Grupo_143130" data-name="Grupo 143130">
                  <path id="Trazado_203811" data-name="Trazado 203811" d="M329.674,292.78a.093.093,0,0,0,.1-.015.586.586,0,0,1,.836,0,.093.093,0,1,0,.133-.13.768.768,0,0,0-1.092-.009.093.093,0,0,0-.009.132A.088.088,0,0,0,329.674,292.78Z" transform="translate(-329.619 -292.401)" fill="#3a3772"/>
                </g>
              </g>
              <path id="Trazado_203812" data-name="Trazado 203812" d="M326.906,295.786a.316.316,0,1,0,.19-.406A.317.317,0,0,0,326.906,295.786Z" transform="translate(-325.814 -293.556)" fill="#3a3772"/>
              <path id="Trazado_203813" data-name="Trazado 203813" d="M330.175,294.482a.316.316,0,1,0,.19-.406A.316.316,0,0,0,330.175,294.482Z" transform="translate(-327.089 -293.047)" fill="#3a3772"/>
            </g>
          </g>
          <path id="Trazado_203814" data-name="Trazado 203814" d="M321.728,307.013l.081-.107c1.45-.557,2.544,1.891,4.9,2.332a.978.978,0,0,0,.809-1.716.059.059,0,0,1-.03-.024l.314.145a10.659,10.659,0,0,1,2.4,1.474,3.339,3.339,0,0,1,1.13,3.232l-.858,3.317a10.868,10.868,0,0,0-.036,4.434H324.2c-.617-2.906-3-7.685-3.13-8.428-.047-.279-.091-.494-.132-.664A4.76,4.76,0,0,1,321.728,307.013Z" transform="translate(-313.635 -294.553)" fill="#ff725e"/>
          <path id="Trazado_203815" data-name="Trazado 203815" d="M316.72,359.469h6.453c-.217,1.657-.457,3.373-.7,5.03-.293,1.968-.592,3.853-.872,5.446a34.942,34.942,0,0,1-.9,4.1,120.139,120.139,0,0,1-6.319,15.1c-.574-.346-1.119-.644-1.692-1.007,2.161-3.139,2.7-13.48,4.679-14.13.029-.685-.024-2.172-.112-4.064C317.118,366.947,316.884,362.936,316.72,359.469Z" transform="translate(-310.474 -315.083)" fill="#edcacd"/>
          <path id="Trazado_203816" data-name="Trazado 203816" d="M337.037,364.16a36.753,36.753,0,0,1-.41,5.785c-1.1,8.626-3.964,21.924-3.994,22.018-.68-.064-1.365-.129-2.05-.181.779-3.461.486-16.894,1.9-17.937,0,0-.106-1.6-.275-3.9-.129-1.6-.287-3.548-.468-5.528-.158-1.692-.334-3.408-.521-4.948h5.849c.006.867.006,1.88,0,3.2v.053c.006.111.006.2.006.3C337.078,363.24,337.02,363.826,337.037,364.16Z" transform="translate(-317.452 -315.083)" fill="#edcacd"/>
          <path id="Trazado_203817" data-name="Trazado 203817" d="M332.548,348.448H326.7c-.182-1.528-.381-2.893-.586-3.9-.1.831-.2,1.728-.322,2.647-.047.369-.1.744-.146,1.119-.006.046-.012.088-.018.134h-6.453a58.883,58.883,0,0,1-.117-7.22,16.694,16.694,0,0,1,1.95-5.416c.9-1.511,2.266-2.822,2.588-4.6h6.5c.878,3.262,2.442,6.494,2.407,10.031v.088C332.478,344.776,332.531,346.006,332.548,348.448Z" transform="translate(-312.928 -304.062)" fill="#263238"/>
          <path id="Trazado_203818" data-name="Trazado 203818" d="M326.493,330.119a4.416,4.416,0,0,0-.115-1.529h6.241c.1.538.223,1.064.362,1.6h-6.5C326.487,330.161,326.487,330.143,326.493,330.119Z" transform="translate(-315.811 -303.041)" fill="#3a3772"/>
          <path id="Trazado_203819" data-name="Trazado 203819" d="M330.32,412.518c-.969,2.613,1.3,2.635,6.389,2.583.707-.012,1.2-.761-.007-1.124l-4.215-1.529s-1.717-.043-2.087-.017Z" transform="translate(-317.263 -335.735)" fill="#f3d656"/>
          <path id="Trazado_203820" data-name="Trazado 203820" d="M310.654,407.319l1.1-.849,1.739.849.922,2.7a2.783,2.783,0,0,0,1.629,1.708,2.133,2.133,0,0,1,.452.234.608.608,0,0,1-.371,1.094h-1.5a2.761,2.761,0,0,1-2.3-1.231l-1.665-2.5A1.574,1.574,0,0,1,310.654,407.319Z" transform="translate(-309.53 -333.413)" fill="#f3d656"/>
          <path id="Trazado_203821" data-name="Trazado 203821" d="M326.023,287.111a2.89,2.89,0,0,0-1.688-.4,4.642,4.642,0,0,0-2.966.911,3.421,3.421,0,0,0-1.261,2.649,4.606,4.606,0,0,0,2.519,4.351,9.558,9.558,0,0,0,.919.483,8.16,8.16,0,0,1-.851-1.934,2.868,2.868,0,0,1,.373-2.047c.4-.6,1.068-1.013,1.38-1.667a2.385,2.385,0,0,1,.04.994s.82-.515.925-.614c.577-.539,1.338-1.632.859-2.439A1.035,1.035,0,0,0,326.023,287.111Z" transform="translate(-313.366 -286.707)" fill="#3a3772"/>
          <g id="Grupo_143136" data-name="Grupo 143136" transform="translate(10.986 7.356)">
            <path id="Trazado_203822" data-name="Trazado 203822" d="M345.769,316.309c0,6.154-4.187,8.474-9.352,8.474s-9.351-2.319-9.351-8.474c0-4.843,2.594-8.948,6.213-10.482a6.618,6.618,0,0,1,.808-.3c-.159-.193-.328-.381-.469-.569a3.533,3.533,0,0,1-.293-.422,9.333,9.333,0,0,1-1.06-3.145c-.135-.767-.3-3.051,1.077-2.447.767.334.826,2.834,2.173,2.249.773-.346,1.259-4.046,2.26-1.593.334.825-.017,1.347,1.1.866.791-.339,1.154-1.305,1.663-.052.439,1.089-.515,2.349-.814,3.367a6.371,6.371,0,0,0-.223,1.493c-.005.176-.012.345-.018.521a6.774,6.774,0,0,1,.627.293C343.438,307.789,345.769,311.724,345.769,316.309Z" transform="translate(-327.065 -298.766)" fill="#f3d656"/>
            <g id="Grupo_143134" data-name="Grupo 143134" transform="translate(6.378 11.126)">
              <path id="Trazado_203823" data-name="Trazado 203823" d="M340.113,326.179c-1.493-.127-2.557-.925-2.592-2.314h1.735a1.03,1.03,0,0,0,.856,1.007v-2.21c-1.192-.3-2.592-.636-2.592-2.349a2.482,2.482,0,0,1,2.592-2.372V317h.741v.937a2.432,2.432,0,0,1,2.522,2.268h-1.746a1.061,1.061,0,0,0-.775-.937v2.186c1.2.313,2.614.625,2.614,2.338a2.517,2.517,0,0,1-2.614,2.395v.937h-.741Zm0-4.94v-2a.956.956,0,0,0-.9,1C339.21,320.776,339.58,321.054,340.113,321.239Zm.741,1.632v2.024a1.034,1.034,0,0,0,.937-1.03C341.79,323.321,341.4,323.055,340.853,322.87Z" transform="translate(-337.521 -317.004)" fill="#3a3772"/>
            </g>
            <path id="Trazado_203824" data-name="Trazado 203824" d="M350.636,316.308c0,6.154-4.187,8.474-9.352,8.474a13.934,13.934,0,0,1-1.739-.1c4.333-.486,7.607-2.927,7.607-8.374,0-4.585-2.331-8.52-5.657-10.218a6.843,6.843,0,0,0-.626-.293c.006-.176.012-.345.017-.521a6.372,6.372,0,0,1,.223-1.493c.3-1.019,1.254-2.278.814-3.367-.258-.627-.475-.7-.727-.568.41-.937.831-1.757,1.446-.246.334.825-.018,1.347,1.1.866.791-.339,1.154-1.305,1.663-.052.439,1.089-.515,2.349-.814,3.367a6.374,6.374,0,0,0-.223,1.493c-.005.176-.012.345-.018.521a6.768,6.768,0,0,1,.626.293C348.305,307.788,350.636,311.723,350.636,316.308Z" transform="translate(-331.932 -298.765)" fill="#f3d656" style="mix-blend-mode: multiply;isolation: isolate"/>
            <g id="Grupo_143135" data-name="Grupo 143135" transform="translate(6.213 6.194)">
              <path id="Trazado_203825" data-name="Trazado 203825" d="M344.084,310.049c-2.208.27-4.62-.21-6.834-.264a6.618,6.618,0,0,1,.808-.3c-.159-.193-.328-.381-.468-.569a50.793,50.793,0,0,0,5.885.317c-.005.176-.012.345-.018.521A6.774,6.774,0,0,1,344.084,310.049Z" transform="translate(-337.25 -308.919)" fill="#3a3772"/>
            </g>
          </g>
          <path id="Trazado_203826" data-name="Trazado 203826" d="M345.508,310.977c-1.119.6-2.275.63-2.582.061s.353-1.519,1.473-2.122,2.275-.63,2.582-.06S346.628,310.374,345.508,310.977Z" transform="translate(-322.236 -295.185)" fill="#edcacd"/>
          <g id="Grupo_143137" data-name="Grupo 143137" transform="translate(6.352 12.272)">
            <path id="Trazado_203827" data-name="Trazado 203827" d="M336.57,337.795c-.573.316-.96.334-2.512.052a4.415,4.415,0,0,1-2.255-1.258l-.005.005c-.006-.012-.018-.023-.024-.035a6.611,6.611,0,0,1-.486-.515l-.141-.176c-.89-1-1.768-2.044-2.605-3.121l1.692-1.142a33.466,33.466,0,0,0,2.588,4.2l-.006.006c.035.029.07.052.112.088,1.1.591,2.1.392,3.695,1.165C336.781,337.139,337.15,337.473,336.57,337.795Z" transform="translate(-323.007 -316.489)" fill="#edcacd"/>
            <path id="Trazado_203828" data-name="Trazado 203828" d="M326.7,321.941,325,323.083c-2.559-3.279-4.709-6.833-5.44-10.007-.375-1.628.486-4.866.486-4.866.439-1.54,2.161-1.815,3.42-.727a1.984,1.984,0,0,1,.7,1.868C323.457,313.251,324.506,317.7,326.7,321.941Z" transform="translate(-319.469 -306.825)" fill="#ff725e"/>
          </g>
        </g>
      </g>
      <g id="Grupo_143148" data-name="Grupo 143148" transform="translate(188.103 0)">
        <path id="Trazado_203829" data-name="Trazado 203829" d="M396.856,85.829a25.5,25.5,0,0,1-2.6-.777l-.013-.007A3.092,3.092,0,0,1,392.51,82.5l0-.062-2.208.933c-.933.107,1.535,4.574,1.755,5.019a42.093,42.093,0,0,1,3.652,9.455c.032.145.107.326.256.319a.313.313,0,0,0,.146-.059,6.529,6.529,0,0,0,2.244-2.429c.224-.392.434-.8.622-1.206.116-.251.2-.837.432-.958a3.36,3.36,0,0,1,.085,1.123,5.075,5.075,0,0,0,.727-1.448,9.481,9.481,0,0,0,.7-1.8C401.527,88.654,399.193,86.629,396.856,85.829Z" transform="translate(-360.751 -78.91)" fill="#3a3772"/>
        <path id="Trazado_203830" data-name="Trazado 203830" d="M392.459,90.941l-.321-.468h0L390.8,88.519l-2.361,1.131a6.991,6.991,0,0,1,1.532,2.217.966.966,0,0,1-.073.7l-1.183,2.328,2.175,1.089,2.9-3.7C393.285,91.806,392.784,91.329,392.459,90.941Z" transform="translate(-360.108 -81.282)" fill="#985d63"/>
        <path id="Trazado_203831" data-name="Trazado 203831" d="M388.391,102.244a5.3,5.3,0,0,1-.039-5.791h0a1.948,1.948,0,0,0,2.488-1.232l1.266-2.7c4.744,2.508,2.583,11.924,5.081,13.542l-7.373.3a6.048,6.048,0,0,0-.533-2.065Z" transform="translate(-359.747 -82.843)" fill="#ff725e"/>
        <path id="Trazado_203832" data-name="Trazado 203832" d="M391.059,116.7a5.183,5.183,0,0,0,.139-1.686l7.373-.3a14.74,14.74,0,0,0,.174,1.674Z" transform="translate(-361.13 -91.5)" fill="#3a3772"/>
        <path id="Trazado_203833" data-name="Trazado 203833" d="M371.5,116.605l-2.67,7.565-1.669-.919-2.372-1.306-.872-.486a4.587,4.587,0,0,0-2.255-.557,4.46,4.46,0,0,0-2.383.732,4.508,4.508,0,0,0-1.938,4.773l.591,2.612-.012.046-5.335,7.039-.053.07a.574.574,0,0,1,.012.14l-1.382-.72,6.43-16.888a6.716,6.716,0,0,1,8.239-4.111l.96.345,3.812,1.371.012.005Z" transform="translate(-345.57 -91.331)" fill="#a46f74"/>
        <path id="Trazado_203834" data-name="Trazado 203834" d="M372.2,127.862V131.9l-2.876-.006-2.793-.005c2.793.005.592,10.23.832,19.16v.053c.017.018.029.041.046.059l-1.5.287-4.1-18.194-.591-2.612a4.508,4.508,0,0,1,1.938-4.773,4.46,4.46,0,0,1,2.383-.732,4.587,4.587,0,0,1,2.255.557l.872.486,2.395,1.142Z" transform="translate(-349.449 -95.561)" fill="#985d63"/>
        <path id="Trazado_203835" data-name="Trazado 203835" d="M375.309,106.635l-.49,1.418-9.912-3.393s-1.972-11.04-1.859-11.045l1.441-.058,1.952,9.853Z" transform="translate(-350.204 -83.247)" fill="#8492c7"/>
        <g id="Grupo_143147" data-name="Grupo 143147" transform="translate(24.336 0.763)">
          <g id="Grupo_143146" data-name="Grupo 143146">
            <path id="Trazado_203836" data-name="Trazado 203836" d="M388.256,80.927a5.769,5.769,0,0,0-.415-.7c-.781-1.123-2.088-2.574-3.626-2.288-1.717.319-2.941,1.547-1.995,5.96.041.192-.108.883-.054,1.014s.285.135.449.116a.076.076,0,0,0,.037-.016,3.627,3.627,0,0,0,3.334,1.954c1.307-.126,2.128-1.545,2.519-2.654A4.231,4.231,0,0,0,388.256,80.927Z" transform="translate(-381.891 -77.907)" fill="#a46f74"/>
            <g id="Grupo_143141" data-name="Grupo 143141" transform="translate(1.462 5.785)">
              <g id="Grupo_143140" data-name="Grupo 143140">
                <path id="Trazado_203837" data-name="Trazado 203837" d="M384.944,88.7a1.261,1.261,0,0,0,.193-1.253.087.087,0,0,0-.165.057,1.213,1.213,0,0,1-.636,1.484.088.088,0,1,0,.077.157A1.716,1.716,0,0,0,384.944,88.7Z" transform="translate(-384.287 -87.39)" fill="#3a3772"/>
              </g>
            </g>
            <g id="Grupo_143143" data-name="Grupo 143143" transform="translate(0.752 5.261)">
              <g id="Grupo_143142" data-name="Grupo 143142">
                <path id="Trazado_203838" data-name="Trazado 203838" d="M383.7,86.747a.3.3,0,1,1-.38-.2A.3.3,0,0,1,383.7,86.747Z" transform="translate(-383.123 -86.532)" fill="#3a3772"/>
              </g>
            </g>
            <g id="Grupo_143145" data-name="Grupo 143145" transform="translate(0.46 4.088)">
              <g id="Grupo_143144" data-name="Grupo 143144">
                <path id="Trazado_203839" data-name="Trazado 203839" d="M383.692,84.974l.007-.007a.088.088,0,0,0,0-.124.723.723,0,0,0-1.025-.04.088.088,0,0,0,0,.123.084.084,0,0,0,.124,0,.555.555,0,0,1,.783.038A.088.088,0,0,0,383.692,84.974Z" transform="translate(-382.645 -84.609)" fill="#3a3772"/>
              </g>
            </g>
          </g>
        </g>
        <path id="Trazado_203840" data-name="Trazado 203840" d="M390.718,112.357c-1.019,2.8-17.046-1.476-17.046-1.476l-4.187-1.516c.586-1.664,2.512-1.546,4.831.492l13.744.217s-.041-.076-.106-.222A6,6,0,0,1,390.718,112.357Z" transform="translate(-352.717 -88.963)" fill="#a46f74"/>
        <path id="Trazado_203841" data-name="Trazado 203841" d="M399.686,106.164c-.005.012-.005.024-.018.035a6,6,0,0,0-2.764-2.506c-.673-1.388-4.251-8.8-4.4-9.282a1.594,1.594,0,0,1,1.926-1.95C397.554,93.117,400.471,103.669,399.686,106.164Z" transform="translate(-361.667 -82.805)" fill="#ff725e"/>
        <path id="Trazado_203842" data-name="Trazado 203842" d="M342.562,150.841c-.65-.153-.937-.949.24-1.031l4.737-.486.018-.029.029-.076,1.382.72C349.231,152.381,347.129,151.93,342.562,150.841Z" transform="translate(-341.996 -104.955)" fill="#e0e0e0"/>
        <path id="Trazado_203843" data-name="Trazado 203843" d="M363.028,172.127c-.626.229-1.312-.257-.375-.983l3.689-3.027-.012-.035,1.5-.287C369.458,169.72,367.461,170.493,363.028,172.127Z" transform="translate(-349.873 -112.199)" fill="#e0e0e0"/>
        <path id="Trazado_203844" data-name="Trazado 203844" d="M388.718,80.927c-.247-2.45-2.389-4.688-4.967-4.205a4.336,4.336,0,0,0-.62.165,8.9,8.9,0,0,0-1.5.711,3.961,3.961,0,0,1-.428.195,1.84,1.84,0,0,0-.695,2.949l.018.018a.646.646,0,0,0,.334.172,7.771,7.771,0,0,0,1.492.2,2.05,2.05,0,0,1-.223-1.013c-.006.113.4.365.49.425.185.129.38.242.565.371a4.517,4.517,0,0,1,.915.833,7.022,7.022,0,0,1,1.19,2.344,2.675,2.675,0,0,0,.556-2.27.506.506,0,0,1,.509-.629.91.91,0,0,1,.776.711,1.015,1.015,0,0,1-.36,1.25,6.692,6.692,0,0,1,.133.677c.924,3.419,2.194,2.608,2.271,2.483.234-.384-.888-2.8-.731-3.221A4.857,4.857,0,0,0,388.718,80.927Z" transform="translate(-356.829 -76.656)" fill="#3a3772"/>
        <path id="Trazado_203845" data-name="Trazado 203845" d="M393.059,127.577c3.352-4.083,1.906-6.793,1.42-10.113l-7.686.309a6.934,6.934,0,0,1-.422,1.236l-3.581-1.165-2.67,7.566,4.064,2.243a10.731,10.731,0,0,0,3.9,1.271h.006a10.08,10.08,0,0,0,1.516.059,4.636,4.636,0,0,0,3.156-1.051l0,0,.016-.02A2.473,2.473,0,0,0,393.059,127.577Z" transform="translate(-356.864 -92.571)" fill="#263238"/>
        <path id="Trazado_203846" data-name="Trazado 203846" d="M387.759,133.659l-8.473-.018v-4.035Z" transform="translate(-356.539 -97.306)" fill="url(#linear-gradient-2)"/>
      </g>
    </g>
  </g>
</svg>
