<svg xmlns="http://www.w3.org/2000/svg" xmlns:xlink="http://www.w3.org/1999/xlink" width="375.989" height="214.779" viewBox="0 0 375.989 214.779">
  <defs>
    <linearGradient id="linear-gradient" x1="-11.43" y1="0.262" x2="-10.69" y2="0.262" gradientUnits="objectBoundingBox">
      <stop offset="0" stop-color="#abc460"/>
      <stop offset="1" stop-color="#d1e07b"/>
    </linearGradient>
    <linearGradient id="linear-gradient-2" x1="-11.905" y1="0.666" x2="-11.905" y2="-0.189" gradientUnits="objectBoundingBox">
      <stop offset="0" stop-color="#4b7f29"/>
      <stop offset="1" stop-color="#729937"/>
    </linearGradient>
    <linearGradient id="linear-gradient-3" x1="-14.62" y1="0.61" x2="-14.62" y2="-0.257" xlink:href="#linear-gradient"/>
    <linearGradient id="linear-gradient-4" x1="-34.965" y1="0.446" x2="-34.965" y2="-0.877" xlink:href="#linear-gradient-2"/>
    <linearGradient id="linear-gradient-5" x1="11.792" y1="1.728" x2="11.792" y2="0.687" xlink:href="#linear-gradient-2"/>
    <linearGradient id="linear-gradient-6" x1="-10.745" y1="1.582" x2="-10.005" y2="1.582" xlink:href="#linear-gradient"/>
    <linearGradient id="linear-gradient-7" x1="-11.166" y1="2.125" x2="-11.166" y2="1.216" xlink:href="#linear-gradient-2"/>
    <linearGradient id="linear-gradient-8" x1="-13.716" y1="2.321" x2="-13.716" y2="1.411" xlink:href="#linear-gradient"/>
    <linearGradient id="linear-gradient-9" x1="-33.063" y1="3.882" x2="-33.063" y2="2.637" xlink:href="#linear-gradient-2"/>
    <linearGradient id="linear-gradient-10" x1="12.238" y1="1.712" x2="12.238" y2="0.661" xlink:href="#linear-gradient-2"/>
    <linearGradient id="linear-gradient-11" x1="-9.18" y1="-3.997" x2="-8.396" y2="-3.997" xlink:href="#linear-gradient"/>
    <linearGradient id="linear-gradient-12" x1="-9.489" y1="-3.941" x2="-9.489" y2="-4.793" xlink:href="#linear-gradient-2"/>
    <linearGradient id="linear-gradient-13" x1="-11.839" y1="-4.856" x2="-11.839" y2="-5.719" xlink:href="#linear-gradient"/>
    <linearGradient id="linear-gradient-14" x1="-28.529" y1="-11.837" x2="-28.529" y2="-13.109" xlink:href="#linear-gradient-2"/>
    <linearGradient id="linear-gradient-15" x1="13.865" y1="1.772" x2="13.865" y2="0.735" xlink:href="#linear-gradient-2"/>
    <linearGradient id="linear-gradient-16" x1="-7.624" y1="1.225" x2="-6.678" y2="1.225" gradientUnits="objectBoundingBox">
      <stop offset="0" stop-color="#a2bf54"/>
      <stop offset="1" stop-color="#c7db6c"/>
    </linearGradient>
    <linearGradient id="linear-gradient-17" x1="-8.187" y1="1.269" x2="-7.245" y2="1.269" gradientUnits="objectBoundingBox">
      <stop offset="0" stop-color="#467a24"/>
      <stop offset="1" stop-color="#6b9430"/>
    </linearGradient>
    <linearGradient id="linear-gradient-18" x1="-9.506" y1="1.417" x2="-8.56" y2="1.417" xlink:href="#linear-gradient-16"/>
    <linearGradient id="linear-gradient-19" x1="-41.784" y1="-4.383" x2="-41.784" y2="-5.342" xlink:href="#linear-gradient-2"/>
    <linearGradient id="linear-gradient-20" x1="19.789" y1="1.868" x2="19.789" y2="0.869" xlink:href="#linear-gradient-2"/>
    <linearGradient id="linear-gradient-21" x1="12.221" y1="-2.187" x2="13.228" y2="-2.187" gradientUnits="objectBoundingBox">
      <stop offset="0" stop-color="#c27040"/>
      <stop offset="1" stop-color="#e3924d"/>
    </linearGradient>
    <linearGradient id="linear-gradient-22" x1="-15.823" y1="8.539" x2="-15.036" y2="8.539" xlink:href="#linear-gradient"/>
    <linearGradient id="linear-gradient-23" x1="-16.63" y1="9.601" x2="-16.63" y2="8.766" xlink:href="#linear-gradient-2"/>
    <linearGradient id="linear-gradient-24" x1="-20.663" y1="11.215" x2="-20.663" y2="10.37" xlink:href="#linear-gradient"/>
    <linearGradient id="linear-gradient-25" x1="-49.552" y1="25.1" x2="-49.552" y2="23.817" xlink:href="#linear-gradient-2"/>
    <linearGradient id="linear-gradient-26" x1="18.87" y1="2.03" x2="18.87" y2="1.051" xlink:href="#linear-gradient-2"/>
    <linearGradient id="linear-gradient-27" x1="-10.738" y1="-4.954" x2="-9.947" y2="-4.954" xlink:href="#linear-gradient"/>
    <linearGradient id="linear-gradient-28" x1="-11.166" y1="-4.971" x2="-11.166" y2="-5.759" xlink:href="#linear-gradient-2"/>
    <linearGradient id="linear-gradient-29" x1="-13.917" y1="-5.966" x2="-13.917" y2="-6.753" xlink:href="#linear-gradient"/>
    <linearGradient id="linear-gradient-30" x1="-33.11" y1="-16.5" x2="-33.11" y2="-17.824" xlink:href="#linear-gradient-2"/>
    <linearGradient id="linear-gradient-31" x1="17.904" y1="2.032" x2="17.904" y2="1.018" xlink:href="#linear-gradient-2"/>
    <linearGradient id="linear-gradient-32" x1="17.094" y1="-13.07" x2="18.022" y2="-13.07" xlink:href="#linear-gradient-16"/>
    <linearGradient id="linear-gradient-33" x1="18.339" y1="-14.099" x2="19.26" y2="-14.099" xlink:href="#linear-gradient-17"/>
    <linearGradient id="linear-gradient-34" x1="21.491" y1="-16.642" x2="22.42" y2="-16.642" xlink:href="#linear-gradient-16"/>
    <linearGradient id="linear-gradient-35" x1="-10.795" y1="-4.483" x2="-10.021" y2="-4.483" xlink:href="#linear-gradient"/>
    <linearGradient id="linear-gradient-36" x1="-11.206" y1="-4.488" x2="-11.206" y2="-5.292" xlink:href="#linear-gradient-2"/>
    <linearGradient id="linear-gradient-37" x1="-13.717" y1="-5.581" x2="-13.717" y2="-6.407" xlink:href="#linear-gradient"/>
    <linearGradient id="linear-gradient-38" x1="-32.582" y1="-14.358" x2="-32.582" y2="-15.69" xlink:href="#linear-gradient-2"/>
    <linearGradient id="linear-gradient-39" x1="15.633" y1="1.958" x2="15.633" y2="0.928" xlink:href="#linear-gradient-2"/>
    <linearGradient id="linear-gradient-40" x1="-15.3" y1="0.226" x2="-14.531" y2="0.226" xlink:href="#linear-gradient"/>
    <linearGradient id="linear-gradient-41" x1="-16.038" y1="0.642" x2="-16.038" y2="-0.248" xlink:href="#linear-gradient-2"/>
    <linearGradient id="linear-gradient-42" x1="-19.656" y1="0.575" x2="-19.656" y2="-0.319" xlink:href="#linear-gradient"/>
    <linearGradient id="linear-gradient-43" x1="-47.05" y1="0.352" x2="-47.05" y2="-0.903" xlink:href="#linear-gradient-2"/>
    <linearGradient id="linear-gradient-44" x1="-41.082" y1="-18.159" x2="-41.082" y2="-19.711" xlink:href="#linear-gradient-2"/>
    <linearGradient id="linear-gradient-45" x1="-21.431" y1="15.928" x2="-20.655" y2="15.928" xlink:href="#linear-gradient"/>
    <linearGradient id="linear-gradient-46" x1="-22.617" y1="17.563" x2="-22.617" y2="16.744" xlink:href="#linear-gradient-2"/>
    <linearGradient id="linear-gradient-47" x1="-27.687" y1="20.927" x2="-27.687" y2="20.093" xlink:href="#linear-gradient"/>
    <linearGradient id="linear-gradient-48" x1="-65.701" y1="49.464" x2="-65.701" y2="48.133" xlink:href="#linear-gradient-2"/>
    <linearGradient id="linear-gradient-49" x1="0.119" y1="2.77" x2="0.119" y2="1.788" xlink:href="#linear-gradient-2"/>
    <linearGradient id="linear-gradient-50" x1="0.786" y1="2.556" x2="1.786" y2="2.556" gradientUnits="objectBoundingBox">
      <stop offset="0" stop-color="#4e7f29"/>
      <stop offset="1" stop-color="#7ca043"/>
    </linearGradient>
    <linearGradient id="linear-gradient-51" x1="-1.125" y1="-4.337" x2="-2.353" y2="-4.34" xlink:href="#linear-gradient-16"/>
    <linearGradient id="linear-gradient-52" x1="-1.38" y1="-4.602" x2="-2.702" y2="-4.605" xlink:href="#linear-gradient-17"/>
    <linearGradient id="linear-gradient-53" x1="-1.695" y1="-4.837" x2="-3.154" y2="-4.84" xlink:href="#linear-gradient-16"/>
    <linearGradient id="linear-gradient-54" x1="-5.434" y1="-36.344" x2="-5.434" y2="-37.652" xlink:href="#linear-gradient-17"/>
    <linearGradient id="linear-gradient-55" x1="13.849" y1="1.394" x2="14.85" y2="1.394" xlink:href="#linear-gradient-21"/>
  </defs>
  <g id="Grupo_143194" data-name="Grupo 143194" transform="translate(-36.587 -60.947)">
    <path id="Trazado_203894" data-name="Trazado 203894" d="M412.577,60.947,372.6,68.424l10.569,10.57-52.706,48.654L288.546,98.1l-62.5,57.095-56.665-38.982-132.8,119h64.953l72.783-77.95,55.263,34.025,61.3-63.778,42.205,29.75,60.882-67.47,11.13,11.13Z" transform="translate(0 0)" fill="#ff725e"/>
    <g id="Grupo_143193" data-name="Grupo 143193" transform="translate(83.155 114.727)">
      <g id="Grupo_143172" data-name="Grupo 143172" transform="translate(143.424 74.887)">
        <path id="Trazado_203895" data-name="Trazado 203895" d="M497.8,324.273q3.886,11.562,8.2,23.082c.734-.715,47.591-15.046,48.339-17.482.057-.949.918-5.1,1.532-8.738-.18-.239-.357-.483-.535-.724,0,0,.48-3.451.684-4.7l.678-.036c.462-2.8.79-4.876.79-4.876C538.908,313.99,518.964,318.419,497.8,324.273Z" transform="translate(-399.886 -283.499)" fill="#4e7f29"/>
        <path id="Trazado_203896" data-name="Trazado 203896" d="M342.116,298.866q-.044,2.868-.078,5.728c-.228.222-.461.446-.687.665q.06,2.958.137,5.91c.147.115-.668,2.074-.524,2.192.016,1.488.991,1.134,1.014,2.619-.174.116-.348.23-.521.345q.265,2.077.547,4.151c-.182-.05,24.268,8.343,40.167,11.5,15.254,2.437,64.659,10.43,64.888,10.894q-.526-1.753-1.052-3.506c.336-.216.677-.429,1.012-.64q.1-2.3.2-4.595c-.579-.239-1.16-.477-1.739-.717q-.023-3.347-.052-6.7c.487-.114.974-.228,1.459-.336q-.046-2.816-.093-5.639A921.4,921.4,0,0,0,342.116,298.866Z" transform="translate(-340.947 -279.017)" fill="#7ca043"/>
        <path id="Trazado_203897" data-name="Trazado 203897" d="M508.254,341.265l34.864-8.438L508.32,343.8Z" transform="translate(-403.816 -291.778)" fill="#406529"/>
        <path id="Trazado_203898" data-name="Trazado 203898" d="M529.986,347.935l37.111-12.8-.4,1.9Z" transform="translate(-411.982 -292.644)" fill="#406529"/>
        <path id="Trazado_203899" data-name="Trazado 203899" d="M341.459,325.494l42.723,6.777-43.233-9Z" transform="translate(-340.948 -288.186)" fill="#4e7f29"/>
        <path id="Trazado_203900" data-name="Trazado 203900" d="M368.935,320.434l4.906,2.189,24.02,3.264Z" transform="translate(-351.464 -287.121)" fill="#4e7f29"/>
        <path id="Trazado_203901" data-name="Trazado 203901" d="M342.331,302.123c-.017,1.232-.037,2.464-.05,3.695-.228.222-.461.446-.687.665q.058,2.845.134,5.68l39-1.687Z" transform="translate(-341.19 -280.241)" fill="#4e7f29" opacity="0.3" style="mix-blend-mode: multiply;isolation: isolate"/>
        <path id="Trazado_203902" data-name="Trazado 203902" d="M401.949,267.068c-18.856,5.828-38.743,12.464-59.129,19.849,21.595,13.591,58.338,18.505,104.686,21.872,18.7-5.774,35.993-10.517,51.748-14.426C458.659,287.116,424.544,279.682,401.949,267.068Z" transform="translate(-341.651 -267.068)" fill="url(#linear-gradient)"/>
        <path id="Trazado_203903" data-name="Trazado 203903" d="M403.8,270.167c-16.668,5.244-34.138,11.137-52.059,17.641,20.994,12.328,55.015,17.375,97.579,20.894,17.239-5.151,33.353-9.444,48.2-13.023C458.678,288.96,425.955,281.943,403.8,270.167Z" transform="translate(-345.001 -268.232)" fill="url(#linear-gradient-2)"/>
        <path id="Trazado_203904" data-name="Trazado 203904" d="M491.017,296.6c-29.71-5.27-55.219-11.058-74.344-19.6-5.289,1.4-11.98,1.608-15.935.426q-12.1,4.3-24.751,9.074c.054.028.128.054.172.084,3.471,1.862,2.043,4.715-3.526,6.921,18.182,8.089,43.425,12.512,73.839,15.708a68.736,68.736,0,0,1,18.02-1.528q14.385-3.954,27.7-7.151C487.533,299.581,487.138,297.918,491.017,296.6Z" transform="translate(-352.854 -270.8)" fill="url(#linear-gradient-3)"/>
        <path id="Trazado_203905" data-name="Trazado 203905" d="M462.775,305.265c-10.025,3.173-27.451,4.925-37.131,3.037-9.6-1.965-7.385-7.061,3.237-10.487,10.676-3.387,25.518-3.837,34.585-1.663C472.471,298.3,472.827,302.083,462.775,305.265Z" transform="translate(-370.482 -277.497)" fill="url(#linear-gradient-4)"/>
        <path id="Trazado_203906" data-name="Trazado 203906" d="M415.98,309.043c-12.366-2.421-8.991-9.315,4.586-13.664,13.681-4.3,32.278-4.672,43.673-1.871,11.328,2.769,12.168,7.483-.478,11.43C451.176,308.929,428.354,311.466,415.98,309.043Zm46.753-15.088c-10.729-2.607-28.225-2.22-40.98,1.8-12.673,4.072-15.654,10.355-4.1,12.705,11.591,2.207,32.744-.016,44.584-3.765C474.109,300.985,473.378,296.543,462.732,293.956Z" transform="translate(-366.263 -276.329)" fill="url(#linear-gradient-5)"/>
        <path id="Trazado_203907" data-name="Trazado 203907" d="M505.386,316.324c-3.052-.4-3.187-1.476-.409-2.35a27,27,0,0,1,10.295-.758c2.959.438,3.253,1.439.586,2.274A29.75,29.75,0,0,1,505.386,316.324Zm7.867-2.479a16.163,16.163,0,0,0-6.051.451c-1.606.508-1.507,1.122.257,1.358a16.961,16.961,0,0,0,6.1-.476C515.15,314.686,514.978,314.095,513.253,313.845Z" transform="translate(-401.838 -284.335)" fill="#5e8c32"/>
        <path id="Trazado_203908" data-name="Trazado 203908" d="M406.724,293.639c-2.019-.794-1.1-2.278,1.954-3.232s7.127-1.013,9.137-.241c2.033.78,1.274,2.144-1.752,3.111C413,294.236,408.743,294.434,406.724,293.639Zm8.8-2.763a9.7,9.7,0,0,0-5.353.16c-1.8.551-2.309,1.4-1.127,1.864a9.867,9.867,0,0,0,5.411-.2C416.256,292.141,416.7,291.329,415.528,290.876Z" transform="translate(-365.26 -275.549)" fill="#5e8c32"/>
        <g id="Grupo_143171" data-name="Grupo 143171" transform="translate(38.935 12.801)">
          <path id="Trazado_203909" data-name="Trazado 203909" d="M476.836,292.9l-48.38,18.038,1.045,20.674-24.871-5.522-.151-17.054,55.146-20.313Z" transform="translate(-403.755 -288.006)" fill="#e7dcad"/>
          <path id="Trazado_203910" data-name="Trazado 203910" d="M428.48,322.836l1.02,20.211-24.87-5.523-.152-17.053,3.569-1.315C414.893,320.242,421.727,321.412,428.48,322.836Z" transform="translate(-403.755 -299.442)" fill="#cac195"/>
          <path id="Trazado_203911" data-name="Trazado 203911" d="M429.05,331.9a.7.7,0,0,0,.477-.169.727.727,0,0,0,.258-.589L428.767,311l47.882-17.855a.719.719,0,0,0-.081-1.375l-17.21-4.174a.772.772,0,0,0-.419.024l-55.145,20.31a.724.724,0,0,0-.474.68l.152,17.056a.724.724,0,0,0,.565.7l24.869,5.521A.71.71,0,0,0,429.05,331.9Zm44.9-39.285L427.77,309.831a.718.718,0,0,0-.468.709l.994,19.734-23.387-5.2-.142-15.973,54.467-20.057Z" transform="translate(-403.32 -287.575)" fill="#ae6439"/>
        </g>
        <path id="Trazado_203912" data-name="Trazado 203912" d="M487.405,341.618l-38.651-2.193,37.142,4.32Z" transform="translate(-381.458 -294.257)" fill="#4e7f29"/>
        <path id="Trazado_203913" data-name="Trazado 203913" d="M488.982,349.838l-.072,1.547-32.408-4.7Z" transform="translate(-384.369 -296.988)" fill="#4e7f29"/>
        <path id="Trazado_203914" data-name="Trazado 203914" d="M496.3,361.4l-22.5-3.794,22.961,5.006Z" transform="translate(-390.866 -301.09)" fill="#4e7f29"/>
        <path id="Trazado_203915" data-name="Trazado 203915" d="M579.955,318.664l-.238,1.342-18.227,4.931Z" transform="translate(-423.82 -286.456)" fill="#406529"/>
      </g>
      <g id="Grupo_143174" data-name="Grupo 143174" transform="translate(132.29 53.799)">
        <path id="Trazado_203916" data-name="Trazado 203916" d="M479.629,285.662q4.457,11.351,9.338,22.645c.7-.75,47.521-14.348,48.15-16.817.008-.953-.071-8.178.363-11.837-.192-.232-.383-.463-.569-.7,0,0,.308-3.471.448-4.737l.673-.067c.327-2.817.551-4.911.551-4.911C520.184,273.354,500.478,278.765,479.629,285.662Z" transform="translate(-381.925 -246.797)" fill="#4e7f29"/>
        <path id="Trazado_203917" data-name="Trazado 203917" d="M323.16,269.736q.092,2.865.205,5.724c-.217.233.194,2.451-.026,2.683.139,1.968-.353,1.946-.2,3.908.15.111.3.216.45.328.087,1.485.182,2.974.274,4.458-.165.122-.335.243-.5.369.245,1.374.5,2.746.751,4.118-.18-.04,25.284,5.455,41.317,7.824,15.355,1.682,64.469,8.9,64.719,9.345-.408-1.152-.82-2.3-1.224-3.448.329-.234.654-.462.978-.689,0-1.533-.011-3.069-.023-4.6-.589-.212-1.18-.421-1.769-.63q-.186-3.346-.385-6.689c.483-.138.961-.277,1.441-.411q-.189-2.808-.371-5.623A920.991,920.991,0,0,0,323.16,269.736Z" transform="translate(-323.111 -246.983)" fill="#7ca043"/>
        <path id="Trazado_203918" data-name="Trazado 203918" d="M323.881,289.99l.111,1.681,34.608,4.551Z" transform="translate(-323.4 -254.594)" fill="#4e7f29"/>
        <path id="Trazado_203919" data-name="Trazado 203919" d="M401.031,310.537l51.035,7.81S414.94,308.476,401.031,310.537Z" transform="translate(-352.391 -262.208)" fill="#4e7f29"/>
        <path id="Trazado_203920" data-name="Trazado 203920" d="M351.321,305.94l-24.344-3.7S346.189,303.066,351.321,305.94Z" transform="translate(-324.564 -259.199)" fill="#4e7f29"/>
        <path id="Trazado_203921" data-name="Trazado 203921" d="M381.26,233.286c-18.545,6.754-38.077,14.368-58.071,22.753,22.238,12.5,59.182,15.6,105.639,16.666,18.384-6.7,35.425-12.289,50.97-16.974C438.894,250.5,404.454,244.769,381.26,233.286Z" transform="translate(-323.14 -233.286)" fill="url(#linear-gradient-6)"/>
        <path id="Trazado_203922" data-name="Trazado 203922" d="M383.192,236.5c-16.389,6.064-33.546,12.813-51.124,20.194,21.58,11.276,55.813,14.63,98.495,16.042,16.964-6,32.846-11.083,47.5-15.392C438.937,252.555,405.907,247.166,383.192,236.5Z" transform="translate(-326.477 -234.495)" fill="url(#linear-gradient-7)"/>
        <path id="Trazado_203923" data-name="Trazado 203923" d="M471.581,258.825c-29.933-3.795-55.7-8.314-75.223-15.894-5.216,1.661-11.887,2.195-15.9,1.213q-11.875,4.894-24.272,10.288c.052.026.132.047.174.073,3.563,1.69,2.273,4.611-3.18,7.09,18.563,7.177,44,10.347,74.529,12.036a68.377,68.377,0,0,1,17.922-2.418q14.168-4.665,27.314-8.516C468.248,261.975,467.772,260.332,471.581,258.825Z" transform="translate(-334.412 -236.91)" fill="url(#linear-gradient-8)"/>
        <path id="Trazado_203924" data-name="Trazado 203924" d="M443.594,269.213c-9.854,3.665-27.172,6.28-36.935,4.873-9.682-1.486-7.725-6.686,2.715-10.633,10.5-3.913,25.295-5.1,34.461-3.371C452.935,261.778,453.477,265.538,443.594,269.213Z" transform="translate(-352.142 -243.065)" fill="url(#linear-gradient-9)"/>
        <path id="Trazado_203925" data-name="Trazado 203925" d="M397.126,275.058c-12.466-1.8-9.439-8.86,3.905-13.875,13.451-4.973,32.008-6.263,43.526-4.028,11.453,2.2,12.528,6.87.092,11.437C432.274,273.2,409.607,276.864,397.126,275.058Zm45.949-17.385c-10.845-2.073-28.3-.821-40.84,3.828-12.454,4.693-15.124,11.115-3.463,12.891,11.688,1.629,32.7-1.639,44.344-5.967C454.784,264.131,453.837,259.73,443.075,257.673Z" transform="translate(-347.955 -241.857)" fill="url(#linear-gradient-10)"/>
        <path id="Trazado_203926" data-name="Trazado 203926" d="M486.481,278.828c-3.067-.243-3.255-1.315-.524-2.325a27.006,27.006,0,0,1,10.242-1.268c2.979.292,3.318,1.274.7,2.242A29.7,29.7,0,0,1,486.481,278.828Zm7.736-2.865a16.123,16.123,0,0,0-6.021.748c-1.581.589-1.449,1.2.322,1.346a16.922,16.922,0,0,0,6.069-.777C496.153,276.712,495.954,276.129,494.218,275.963Z" transform="translate(-383.582 -249.02)" fill="#5e8c32"/>
        <path id="Trazado_203927" data-name="Trazado 203927" d="M386.84,261.086c-2.054-.694-1.212-2.223,1.792-3.324,3.019-1.089,7.069-1.365,9.112-.69,2.071.676,1.384,2.075-1.594,3.19C393.142,261.371,388.9,261.78,386.84,261.086Zm8.654-3.2a9.7,9.7,0,0,0-5.337.428c-1.764.636-2.235,1.513-1.034,1.916a9.85,9.85,0,0,0,5.393-.469C396.283,259.12,396.69,258.285,395.494,257.89Z" transform="translate(-346.635 -242.087)" fill="#5e8c32"/>
        <g id="Grupo_143173" data-name="Grupo 143173" transform="translate(38.459 11.076)">
          <path id="Trazado_203928" data-name="Trazado 203928" d="M457.346,255.5,409.92,275.91l2.062,20.6-25.109-4.284-1-17.026,54.077-23.015Z" transform="translate(-385.155 -251.463)" fill="#e7dcad"/>
          <path id="Trazado_203929" data-name="Trazado 203929" d="M409.964,289.329l2.018,20.136-25.109-4.284-1-17.026,3.5-1.49C396.267,287.413,403.152,288.24,409.964,289.329Z" transform="translate(-385.155 -264.42)" fill="#cac195"/>
          <path id="Trazado_203930" data-name="Trazado 203930" d="M411.574,296.794a.727.727,0,0,0,.694-.794l-2.012-20.069,46.939-20.2a.719.719,0,0,0,.435-.738.73.73,0,0,0-.581-.63l-17.4-3.317a.761.761,0,0,0-.419.044L385.161,274.1a.724.724,0,0,0-.439.7l1,17.028a.726.726,0,0,0,.6.671l25.112,4.282C411.478,296.789,411.525,296.792,411.574,296.794Zm42.894-41.46L409.2,274.816a.717.717,0,0,0-.435.732l1.97,19.657-23.617-4.029-.933-15.948L439.6,252.5Z" transform="translate(-384.721 -251.029)" fill="#ae6439"/>
        </g>
        <path id="Trazado_203931" data-name="Trazado 203931" d="M469.711,305.276,431,305l37.308,2.475Z" transform="translate(-363.652 -260.234)" fill="#4e7f29"/>
        <path id="Trazado_203932" data-name="Trazado 203932" d="M492.965,301.77l22.849-6.1-22.93,4.415Z" transform="translate(-386.907 -256.727)" fill="#406529"/>
        <path id="Trazado_203933" data-name="Trazado 203933" d="M494.111,311.762l38.713-12.611-38.66,14.456Z" transform="translate(-387.367 -258.036)" fill="#406529"/>
        <path id="Trazado_203934" data-name="Trazado 203934" d="M385.878,294.754c10.6-4.112,19.64-8.368,30.755-12.475-29.5-5.9-51.711-9.1-78.012-11.875-.085,2.5-1.077,1.979-1.162,4.46C352.941,283.532,368.977,289.616,385.878,294.754Z" transform="translate(-328.503 -247.234)" fill="#4e7f29" opacity="0.3" style="mix-blend-mode: multiply;isolation: isolate"/>
      </g>
      <g id="Grupo_143176" data-name="Grupo 143176" transform="translate(147.015 99.197)">
        <path id="Trazado_203935" data-name="Trazado 203935" d="M481.07,358.267l5.425,22.079s39.176-17.6,41.123-21.026c.222-.97,1.715-5.312,2.979-9.114l-.333-.661s1.1-3.595,1.547-4.915l.612-.138c.994-2.938,1.742-5.129,1.742-5.129Z" transform="translate(-397.193 -318.544)" fill="#7ca043"/>
        <path id="Trazado_203936" data-name="Trazado 203936" d="M346.7,331.761l.959,5.219-.493.528,1.159,5.416.435.37.8,4.1-.39.253,1.156,3.87s21.783,10.521,34.548,14.391S436,377.489,436,377.489l-.628-3.363.828-.653.428-4.461-1.341-.639.894-5.534.637-1.341.261-5.467Z" transform="translate(-346.701 -315.687)" fill="#4e7f29"/>
        <path id="Trazado_203937" data-name="Trazado 203937" d="M419.277,373.19l24.484,4.977L419.733,374.7Z" transform="translate(-373.973 -331.255)" fill="#406529"/>
        <path id="Trazado_203938" data-name="Trazado 203938" d="M397.805,308.257c-17.005,5.346-34.081,10.268-51.1,14.672,22.068,14.829,52.492,22.974,90.381,24.27q23.658-9.633,46.592-19.525C448.182,326.764,419.325,320.195,397.805,308.257Z" transform="translate(-346.701 -306.855)" fill="url(#linear-gradient-11)"/>
        <path id="Trazado_203939" data-name="Trazado 203939" d="M399.512,311.143q-22.388,7.116-44.879,13.229c21.015,13.457,49.332,21.1,84.232,22.765q21.833-8.575,43.126-17.427C448.2,328.642,420.5,322.377,399.512,311.143Z" transform="translate(-349.682 -307.94)" fill="url(#linear-gradient-12)"/>
        <path id="Trazado_203940" data-name="Trazado 203940" d="M476.633,332.41c-25.648-1.722-47.451-6.692-65.094-14.793-4.712,1.306-10.681,1.339-14.35.107q-10.584,3.614-21.22,7.032c.049.031.119.059.162.088,3.352,1.973,2.4,4.523-2.182,6.083,17.125,8.994,38.361,14.693,63.415,17.015a58.473,58.473,0,0,1,15.1-2.226q12.377-4.685,24.605-9.491C473.116,335.806,472.98,334.192,476.633,332.41Z" transform="translate(-356.94 -310.373)" fill="url(#linear-gradient-13)"/>
        <path id="Trazado_203941" data-name="Trazado 203941" d="M452.112,344.009c-8.69,3.434-23.149,4.982-31.424,2.817-8.209-2.226-6.836-6.822,2.224-9.749,9.091-2.892,22.221-3.548,30.092-1.853C460.846,336.877,460.8,340.576,452.112,344.009Z" transform="translate(-372.461 -316.643)" fill="url(#linear-gradient-14)"/>
        <path id="Trazado_203942" data-name="Trazado 203942" d="M412.636,347.278c-10.574-2.91-8.527-9.012,3.071-12.62,11.659-3.566,28.248-4.282,38.17-2.2,9.912,2.026,10.063,6.654-.928,11.055C441.976,347.994,423.194,350.184,412.636,347.278Zm39.895-14.32c-9.337-1.946-24.9-1.281-35.768,2.082-10.817,3.412-12.634,9.011-2.751,11.761,9.9,2.635,27.348.7,37.649-3.466C461.958,339.237,461.827,334.895,452.531,332.958Z" transform="translate(-368.888 -315.513)" fill="url(#linear-gradient-15)"/>
        <path id="Trazado_203943" data-name="Trazado 203943" d="M488.135,353.485c-2.562-.244-2.63-1.281-.215-2.255a22.436,22.436,0,0,1,8.872-1.34c2.512.224,2.668,1.181.313,2.183A22.156,22.156,0,0,1,488.135,353.485Zm6.873-2.845a13.122,13.122,0,0,0-5.206.789c-1.4.573-1.352,1.166.133,1.3a12.831,12.831,0,0,0,5.23-.812C496.565,351.341,496.468,350.771,495.008,350.64Z" transform="translate(-399.105 -322.482)" fill="#5e8c32"/>
        <path id="Trazado_203944" data-name="Trazado 203944" d="M402.969,332.387c-1.844-.841-1.185-2.167,1.433-2.913s6.23-.67,8.055.109c1.85.783,1.253,2.043-1.33,2.848C408.515,333.231,404.816,333.229,402.969,332.387Zm7.519-2.213a8.227,8.227,0,0,0-4.709-.051c-1.54.436-1.911,1.2-.835,1.687a8.01,8.01,0,0,0,4.734.027C411.215,331.382,411.553,330.634,410.489,330.174Z" transform="translate(-367.451 -314.635)" fill="#5e8c32"/>
        <path id="Trazado_203945" data-name="Trazado 203945" d="M442.729,345.237c8.283-2.8-3.336-4.063,1.036-5.52,4.91-1.615,7.885.634,7.9.627q1.986-.348,3.975-.714c.019-.44-.825-.941-2.208-1.328.669-.239,1.34-.484,2.011-.725-.787-.092-1.564-.188-2.342-.285-.537.2-1.076.4-1.611.6a22.691,22.691,0,0,0-9.739.773c-7.29,2.246,1.124,4.552-2.017,5.614a11.121,11.121,0,0,1-8.958-.9q-1.982.28-3.955.557a10.944,10.944,0,0,0,3.647,1.621q-1.145.364-2.287.732.85.189,1.708.371,1.041-.367,2.087-.738A20.9,20.9,0,0,0,442.729,345.237Z" transform="translate(-376.807 -317.765)" fill="#cfdf7d"/>
        <g id="Grupo_143175" data-name="Grupo 143175" transform="translate(30.958 19.612)">
          <path id="Trazado_203946" data-name="Trazado 203946" d="M412.987,371.71l1.2-17.588L457.149,338.6l-26.576-.1-32.9,11.185-.355,17.6Z" transform="translate(-396.679 -337.831)" fill="#ffe98f"/>
          <path id="Trazado_203947" data-name="Trazado 203947" d="M412.581,371.976a.522.522,0,0,1-.145-.022l-15.671-4.425a.662.662,0,0,1-.469-.659l.353-17.6a.675.675,0,0,1,.445-.624l32.9-11.186a.525.525,0,0,1,.2-.031l26.574.1a.694.694,0,0,1,.628.559.678.678,0,0,1-.424.742l-42.556,15.378-1.175,17.148a.673.673,0,0,1-.267.5A.627.627,0,0,1,412.581,371.976Zm-15-5.6,14.443,4.077,1.15-16.777a.668.668,0,0,1,.429-.586L453,338.851l-22.711-.086-32.37,11.005Z" transform="translate(-396.295 -337.43)" fill="#ae6439"/>
        </g>
        <path id="Trazado_203948" data-name="Trazado 203948" d="M347.449,340.38s17.349,9.362,26.365,10.809c-4.96-2.624-25.453-11.785-25.453-11.785Z" transform="translate(-346.982 -318.559)" fill="#406529"/>
        <path id="Trazado_203949" data-name="Trazado 203949" d="M349.3,349.644l26.514,10.647-25.811-9.121Z" transform="translate(-347.679 -322.407)" fill="#406529"/>
        <path id="Trazado_203950" data-name="Trazado 203950" d="M350.666,357.206l.323,1.383L373.513,367Z" transform="translate(-348.191 -325.249)" fill="#406529"/>
        <path id="Trazado_203951" data-name="Trazado 203951" d="M466.587,378.223l-37.768-5.364,38.86,4.083Z" transform="translate(-377.558 -331.13)" fill="#406529"/>
        <path id="Trazado_203952" data-name="Trazado 203952" d="M468.085,386.993l-34.108-5.681,35.4,7.34.115-.666Z" transform="translate(-379.496 -334.307)" fill="#406529"/>
        <path id="Trazado_203953" data-name="Trazado 203953" d="M490.48,366.8l34.467-12.95L489.978,368.3Z" transform="translate(-400.54 -323.987)" fill="#4e7f29"/>
        <path id="Trazado_203954" data-name="Trazado 203954" d="M488.607,388.307l21.829-10.1-22.008,11.431Z" transform="translate(-399.957 -333.141)" fill="#4e7f29"/>
        <path id="Trazado_203955" data-name="Trazado 203955" d="M538.654,363.895l-31.479,16,31.137-14.327Z" transform="translate(-407.002 -327.762)" fill="#4e7f29"/>
        <path id="Trazado_203956" data-name="Trazado 203956" d="M547.19,355.673l-21.075,8.237,21.408-7.576Z" transform="translate(-414.119 -324.673)" fill="#4e7f29"/>
        <path id="Trazado_203957" data-name="Trazado 203957" d="M421.553,340.242,381.569,337.2l-7.555-24.051,8.614-7.134Z" transform="translate(-356.964 -306.012)" fill="#4e7f29" opacity="0.3" style="mix-blend-mode: multiply;isolation: isolate"/>
      </g>
      <g id="Grupo_143179" data-name="Grupo 143179" transform="translate(163.82 72.683)">
        <path id="Trazado_203958" data-name="Trazado 203958" d="M425.426,341.684s-43.815-28.13-51.005-44.349c-.086-6.61-.8-12.49-.8-12.49s41.624,30.011,54.406,36.5c5.778,1.452,3.876,10.594,3.876,10.594Z" transform="translate(-373.621 -271.544)" fill="#4e7f29"/>
        <g id="Grupo_143177" data-name="Grupo 143177" transform="translate(21.053 38.178)">
          <path id="Trazado_203959" data-name="Trazado 203959" d="M446.487,357.24c-8.448-4.344-16.485-8.587-24.07-14.479-.217-.167-.446.181-.242.354,7.375,6.2,15.07,11.568,24.1,14.719C446.651,357.965,446.83,357.416,446.487,357.24Z" transform="translate(-412.89 -331.468)" fill="#406529"/>
          <path id="Trazado_203960" data-name="Trazado 203960" d="M431.827,336.1c-6.058-2.128-11.567-5.734-16.875-9.388-.121-.082-.249.106-.129.2,9.667,7.182,20.313,13.08,32.318,13.81a7.508,7.508,0,0,0-.366-.9C441.784,338.6,436.733,337.823,431.827,336.1Z" transform="translate(-410.139 -325.446)" fill="#406529"/>
          <path id="Trazado_203961" data-name="Trazado 203961" d="M444.865,344.117a71.769,71.769,0,0,1-19.791-7.355A161.7,161.7,0,0,1,407.5,324.715c-.1-.072-.2.086-.111.164,10.784,8.755,23.152,18.992,37.469,19.562C444.856,344.336,444.864,344.228,444.865,344.117Z" transform="translate(-407.348 -324.697)" fill="#406529"/>
        </g>
        <path id="Trazado_203962" data-name="Trazado 203962" d="M459.212,333.8l-.795,6.621,1.865.846-.689,4.338-2.108,2.014-.875,6.525,41.974-15.087.988-6.005,2.183-1.456,1.647-6.583-1.17-.486s3.155-6.006,2.845-6.527C498.406,320.121,459.212,333.8,459.212,333.8Z" transform="translate(-404.806 -284.002)" fill="#7ca043"/>
        <path id="Trazado_203963" data-name="Trazado 203963" d="M473.892,297.534c-14,7.121-30.178,11.935-45.865,15.8-20.175-6.27-44.619-22.637-54.406-36.5,12.271-3.693,24.992-8.091,38.122-13.3C422.578,277.371,447.594,291.624,473.892,297.534Z" transform="translate(-373.621 -263.537)" fill="url(#linear-gradient-16)"/>
        <path id="Trazado_203964" data-name="Trazado 203964" d="M471.163,299.383c-12.355,6.093-28.823,8.938-40.392,13.726-23.615-8.58-42.855-21.741-52.773-34.862q16.488-5.15,33.99-12.091C422.594,279.355,446.45,293.15,471.163,299.383Z" transform="translate(-375.266 -264.521)" fill="url(#linear-gradient-17)"/>
        <path id="Trazado_203965" data-name="Trazado 203965" d="M416.856,273.089c9.875,10.178,29.29,21.3,47.915,27.34-3.427,2.013-5.6,3.709-3.346,5.089a105.716,105.716,0,0,1-22.24,6.383l-.158-.069a21.509,21.509,0,0,0-13.279.007c-17.268-7.561-31.624-17.48-40.763-27.644,2.544-1.155,3.589-2.932,2.734-4.517q9.314-3.172,18.938-6.908C408.6,274.188,412.9,274.34,416.856,273.089Z" transform="translate(-377.892 -267.006)" fill="url(#linear-gradient-18)"/>
        <path id="Trazado_203966" data-name="Trazado 203966" d="M444.927,309.527c-6.752,2.03-16.86,1.626-21.834-1.367-4.913-3.042-2.768-7.035,4.093-8.561,6.869-1.49,15.852-.44,20.681,2.075C452.686,304.149,451.661,307.5,444.927,309.527Z" transform="translate(-391.207 -276.83)" fill="url(#linear-gradient-19)"/>
        <path id="Trazado_203967" data-name="Trazado 203967" d="M417.184,308c-6.324-3.961-3.318-9.23,5.426-11.06,8.774-1.775,20.09-.353,26.193,2.768,6.109,3.072,4.978,7.289-3.571,9.905C436.676,312.311,423.487,311.949,417.184,308Zm30.584-8c-5.747-2.93-16.365-4.265-24.552-2.575-8.166,1.746-10.878,6.594-4.982,10.322,5.935,3.621,18.159,4.044,26.183,1.55C452.416,306.866,453.489,302.913,447.768,300Z" transform="translate(-388.724 -275.798)" fill="url(#linear-gradient-20)"/>
        <path id="Trazado_203968" data-name="Trazado 203968" d="M463.316,322.692a8.984,8.984,0,0,0,6.707-.288c2-.963,2.212-2.337.534-3.093a9.317,9.317,0,0,0-6.668.284C461.891,320.5,461.612,321.891,463.316,322.692Zm5.723-2.659c.988.445.848,1.255-.317,1.808a5.267,5.267,0,0,1-3.911.169c-.994-.462-.839-1.277.33-1.81A5.384,5.384,0,0,1,469.039,320.033Z" transform="translate(-406.905 -284.311)" fill="#487c27"/>
        <path id="Trazado_203969" data-name="Trazado 203969" d="M460.2,342.1l-.356,1.364,32.4-9.293Z" transform="translate(-406.022 -290.08)" fill="#4e7f29"/>
        <path id="Trazado_203970" data-name="Trazado 203970" d="M459.9,357.017s23.694-6.136,31.172-8.644c-3.446,2.107-33.64,11.091-33.64,11.091Z" transform="translate(-405.116 -295.416)" fill="#4e7f29"/>
        <path id="Trazado_203971" data-name="Trazado 203971" d="M457.19,367.684l15.772-3.161-16.018,4.663Z" transform="translate(-404.931 -301.484)" fill="#4e7f29"/>
        <path id="Trazado_203972" data-name="Trazado 203972" d="M521.364,329.233l-16.955,7.119,16.434-5.26Z" transform="translate(-422.767 -288.224)" fill="#4e7f29"/>
        <path id="Trazado_203973" data-name="Trazado 203973" d="M481.67,345.622s29.507-8.029,33.888-8.273c-.883-1.029-3.882-1.362-3.882-1.362Z" transform="translate(-414.222 -290.761)" fill="#4e7f29"/>
        <g id="Grupo_143178" data-name="Grupo 143178" transform="translate(14.031 15.475)">
          <path id="Trazado_203974" data-name="Trazado 203974" d="M396.869,316.543l1.353-14.1,42.817-13.3,13.085,5.8-44.711,15.189L407.1,324.942Z" transform="translate(-396.388 -288.632)" fill="#ffe98f"/>
          <path id="Trazado_203975" data-name="Trazado 203975" d="M398.222,310.309l-1.353,14.1,10.231,8.4,2.314-14.815.642-.219a64.526,64.526,0,0,1-11.075-7.7Z" transform="translate(-396.388 -296.499)" fill="#ffe98f"/>
          <path id="Trazado_203976" data-name="Trazado 203976" d="M406.792,325.142a.47.47,0,0,1-.283-.107l-10.229-8.4a.517.517,0,0,1-.18-.445l1.352-14.1a.5.5,0,0,1,.345-.436l42.815-13.306a.48.48,0,0,1,.326.021l13.086,5.8a.506.506,0,0,1,.292.488.5.5,0,0,1-.333.459l-44.43,15.091-2.267,14.51a.5.5,0,0,1-.3.391A.468.468,0,0,1,406.792,325.142Zm-9.706-9.132,9.379,7.7,2.182-13.968a.507.507,0,0,1,.327-.4l43.479-14.768-11.735-5.2L398.38,302.525Z" transform="translate(-396.098 -288.328)" fill="url(#linear-gradient-21)"/>
        </g>
      </g>
      <g id="Grupo_143180" data-name="Grupo 143180" transform="translate(0 91.446)">
        <path id="Trazado_203977" data-name="Trazado 203977" d="M164.481,345.173,159.3,367.354s-39.365-16.868-41.348-20.26c-.232-.965-1.774-5.277-3.076-9.054l.323-.669s-1.139-3.576-1.6-4.885l-.614-.125c-1.023-2.918-1.8-5.1-1.8-5.1Z" transform="translate(-111.187 -306.247)" fill="#7ca043"/>
        <path id="Trazado_203978" data-name="Trazado 203978" d="M276.264,315.567l-.9,5.238.5.517-1.1,5.439-.433.378-.761,4.113.394.243-1.116,3.895s-21.664,10.924-34.388,15.031-50.99,12.538-50.99,12.538l.59-3.377-.836-.636-.474-4.454,1.335-.661-.953-5.519-.654-1.327-.323-5.461Z" transform="translate(-139.357 -301.851)" fill="#4e7f29"/>
        <path id="Trazado_203979" data-name="Trazado 203979" d="M243.684,358.346l-24.429,5.433,23.989-3.914Z" transform="translate(-151.795 -317.926)" fill="#406529"/>
        <path id="Trazado_203980" data-name="Trazado 203980" d="M196.837,293.6c17.061,5.027,34.188,9.635,51.257,13.716-21.9,15.241-52.236,23.951-90.11,25.957q-23.759-9.193-46.8-18.655C146.663,313.04,175.449,305.935,196.837,293.6Z" transform="translate(-111.187 -293.595)" fill="url(#linear-gradient-22)"/>
        <path id="Trazado_203981" data-name="Trazado 203981" d="M200.942,296.44q22.463,6.7,45.017,12.39c-20.866,13.849-49.1,22.014-83.974,24.333Q140.059,325,118.672,316.542C152.449,314.848,180.083,308.063,200.942,296.44Z" transform="translate(-114 -294.664)" fill="url(#linear-gradient-23)"/>
        <path id="Trazado_203982" data-name="Trazado 203982" d="M138.647,318.966c25.63-2.2,47.374-7.574,64.928-16,4.725,1.217,10.695,1.14,14.35-.16q10.621,3.414,21.293,6.634c-.051.031-.118.061-.162.094-3.328,2.035-2.355,4.566,2.247,6.043-17.025,9.31-38.194,15.4-63.22,18.194a58.312,58.312,0,0,0-15.123-1.946q-12.425-4.454-24.708-9.03C142.2,322.3,142.32,320.68,138.647,318.966Z" transform="translate(-121.357 -297.055)" fill="url(#linear-gradient-24)"/>
        <path id="Trazado_203983" data-name="Trazado 203983" d="M199.083,330.088c8.724,3.27,23.2,4.547,31.451,2.228,8.183-2.38,6.76-6.947-2.332-9.707-9.12-2.725-22.253-3.132-30.108-1.292C190.273,323.114,190.358,326.818,199.083,330.088Z" transform="translate(-141.696 -303.589)" fill="url(#linear-gradient-25)"/>
        <path id="Trazado_203984" data-name="Trazado 203984" d="M231.374,332.7c10.543-3.107,8.428-9.168-3.208-12.563-11.7-3.347-28.29-3.754-38.187-1.488-9.892,2.212-9.99,6.843,1.047,11.036C202.043,333.958,220.848,335.8,231.374,332.7ZM191.33,319.123c9.315-2.121,24.882-1.744,35.788,1.415,10.852,3.213,12.728,8.775,2.876,11.709-9.865,2.818-27.337,1.207-37.682-2.764C181.971,325.576,182.051,321.235,191.33,319.123Z" transform="translate(-138.04 -302.474)" fill="url(#linear-gradient-26)"/>
        <path id="Trazado_203985" data-name="Trazado 203985" d="M181.735,340.035c2.559-.292,2.615-1.329.19-2.262a22.475,22.475,0,0,0-8.886-1.173c-2.509.272-2.654,1.233-.288,2.187A21.982,21.982,0,0,0,181.735,340.035Zm-6.9-2.72a13.1,13.1,0,0,1,5.217.694c1.407.547,1.363,1.141-.119,1.308a12.845,12.845,0,0,1-5.239-.715C173.282,338.045,173.374,337.472,174.831,337.315Z" transform="translate(-133.687 -309.728)" fill="#5e8c32"/>
        <path id="Trazado_203986" data-name="Trazado 203986" d="M267.275,317.318c1.835-.875,1.16-2.188-1.467-2.885a14.409,14.409,0,0,0-8.051.257c-1.841.818-1.228,2.069,1.362,2.825C261.738,318.263,265.439,318.193,267.275,317.318Zm-7.543-2.074a8.253,8.253,0,0,1,4.707-.138c1.544.405,1.925,1.167.855,1.672a8.01,8.01,0,0,1-4.734.115C259.02,316.466,258.67,315.723,259.732,315.243Z" transform="translate(-165.864 -301.259)" fill="#5e8c32"/>
        <path id="Trazado_203987" data-name="Trazado 203987" d="M217.3,331.127c-8.312-2.649,3.295-4.122-1.1-5.5-4.926-1.523-7.877.782-7.894.777-1.326-.21-2.649-.424-3.981-.642-.023-.439.816-.958,2.194-1.37l-2.017-.687c.784-.108,1.562-.219,2.34-.331l1.617.572a22.587,22.587,0,0,1,9.744.592c7.315,2.108-1.075,4.573,2.078,5.576a11.163,11.163,0,0,0,8.948-1.067q1.984.249,3.962.486a10.985,10.985,0,0,1-3.629,1.685c.765.23,1.529.464,2.3.691-.567.136-1.135.27-1.7.405-.7-.234-1.4-.466-2.1-.7A20.881,20.881,0,0,1,217.3,331.127Z" transform="translate(-146.188 -304.785)" fill="#cfdf7d"/>
        <path id="Trazado_203988" data-name="Trazado 203988" d="M314.062,324.211s-17.247,9.687-26.247,11.3c4.931-2.715,25.322-12.259,25.322-12.259Z" transform="translate(-177.558 -304.74)" fill="#406529"/>
        <path id="Trazado_203989" data-name="Trazado 203989" d="M312.21,333.5l-26.4,11.139,25.709-9.6Z" transform="translate(-176.806 -308.59)" fill="#406529"/>
        <path id="Trazado_203990" data-name="Trazado 203990" d="M313.132,341.084l-.307,1.392L290.394,351.3Z" transform="translate(-178.527 -311.44)" fill="#406529"/>
        <path id="Trazado_203991" data-name="Trazado 203991" d="M187.777,364.263l37.706-6.07L186.671,363Z" transform="translate(-139.552 -317.869)" fill="#406529"/>
        <path id="Trazado_203992" data-name="Trazado 203992" d="M188.4,373.062l34.042-6.317-35.32,8L187,374.08Z" transform="translate(-139.675 -321.082)" fill="#406529"/>
        <path id="Trazado_203993" data-name="Trazado 203993" d="M166.075,353.68l-34.6-12.307,35.12,13.794Z" transform="translate(-118.809 -311.548)" fill="#4e7f29"/>
        <path id="Trazado_203994" data-name="Trazado 203994" d="M175.985,375l-21.936-9.685,22.128,11.018Z" transform="translate(-127.293 -320.546)" fill="#4e7f29"/>
        <path id="Trazado_203995" data-name="Trazado 203995" d="M119.973,351.637l31.652,15.408L120.334,353.3Z" transform="translate(-114.488 -315.405)" fill="#4e7f29"/>
        <path id="Trazado_203996" data-name="Trazado 203996" d="M117.418,343.454l21.164,7.843L117.1,344.123Z" transform="translate(-113.407 -312.33)" fill="#4e7f29"/>
      </g>
      <g id="Grupo_143182" data-name="Grupo 143182" transform="translate(34.225 78.966)">
        <path id="Trazado_203997" data-name="Trazado 203997" d="M297.34,329.978l3.863,22.444s40.295-14.544,42.476-17.812c.288-.95,2.082-5.166,3.6-8.861l-.282-.685s1.351-3.5,1.885-4.783l.621-.092c1.195-2.854,2.1-4.983,2.1-4.983Z" transform="translate(-215.363 -289.235)" fill="#7ca043"/>
        <path id="Trazado_203998" data-name="Trazado 203998" d="M166.015,290.748l.594,5.28-.529.491.775,5.493.409.4.514,4.147-.407.222.883,3.954S189.238,322.9,201.7,327.745s50.159,15.487,50.159,15.487l-.389-3.406.871-.586.737-4.416-1.291-.739,1.275-5.453.731-1.288.644-5.432Z" transform="translate(-166.015 -280.045)" fill="#4e7f29"/>
        <path id="Trazado_203999" data-name="Trazado 203999" d="M235.48,337.654l24.065,6.85L235.83,339.2Z" transform="translate(-192.118 -297.671)" fill="#406529"/>
        <path id="Trazado_204000" data-name="Trazado 204000" d="M218,273.6c-17.327,4.022-34.7,7.621-51.981,10.7,20.967,16.49,50.731,26.954,88.419,31.163q24.262-7.789,47.822-15.9C266.934,295.933,238.618,287.164,218,273.6Z" transform="translate(-166.015 -273.602)" fill="url(#linear-gradient-27)"/>
        <path id="Trazado_204001" data-name="Trazado 204001" d="M219.559,276.319c-15.214,3.587-30.471,6.857-45.673,9.745C193.9,301.107,221.6,310.9,256.278,315.248q22.37-6.872,44.221-14.067C266.88,297.523,239.7,289.139,219.559,276.319Z" transform="translate(-168.973 -274.623)" fill="url(#linear-gradient-28)"/>
        <path id="Trazado_204002" data-name="Trazado 204002" d="M294.964,302.528c-25.457-3.69-46.845-10.326-63.87-19.763-4.79.94-10.743.516-14.317-1q-10.8,2.791-21.648,5.383c.049.032.114.069.158.1,3.2,2.225,2.079,4.694-2.6,5.9C209.129,303.442,229.9,310.758,254.72,315a58.37,58.37,0,0,1,15.213-1.062q12.668-3.72,25.2-7.574C291.22,305.646,291.2,304.022,294.964,302.528Z" transform="translate(-176.036 -276.671)" fill="url(#linear-gradient-29)"/>
        <path id="Trazado_204003" data-name="Trazado 204003" d="M269.9,312.217c-8.9,2.755-23.432,3.186-31.53.394-8.028-2.856-6.336-7.332,2.9-9.555,9.267-2.19,22.4-1.828,30.132.464C279.108,305.771,278.8,309.462,269.9,312.217Z" transform="translate(-191.274 -284.12)" fill="url(#linear-gradient-30)"/>
        <path id="Trazado_204004" data-name="Trazado 204004" d="M230.217,312.74c-10.34-3.717-7.872-9.645,3.947-12.354,11.873-2.66,28.462-2.1,38.208.74,9.742,2.782,9.57,7.411-1.7,10.958C259.42,315.712,240.54,316.451,230.217,312.74ZM271,301.521c-9.176-2.66-24.74-3.189-35.81-.672-11.026,2.572-13.228,8.02-3.566,11.522,9.681,3.388,27.218,2.8,37.78-.564C279.958,308.512,280.133,304.17,271,301.521Z" transform="translate(-187.694 -283.02)" fill="url(#linear-gradient-31)"/>
        <path id="Trazado_204005" data-name="Trazado 204005" d="M305.4,323.7c-2.537-.44-2.532-1.48-.055-2.269a22.391,22.391,0,0,1,8.939-.652c2.489.416,2.574,1.386.159,2.2A22.042,22.042,0,0,1,305.4,323.7Zm7.054-2.31a13.077,13.077,0,0,0-5.252.386c-1.434.463-1.426,1.06.043,1.311a12.872,12.872,0,0,0,5.272-.407C313.955,322.207,313.9,321.635,312.455,321.392Z" transform="translate(-217.674 -291.258)" fill="#5e8c32"/>
        <path id="Trazado_204006" data-name="Trazado 204006" d="M221.98,295.974c-1.782-.982-1.031-2.252,1.632-2.8a14.422,14.422,0,0,1,8.023.726c1.787.925,1.106,2.138-1.527,2.74C227.449,297.243,223.76,296.954,221.98,295.974Zm7.65-1.631a8.233,8.233,0,0,0-4.691-.411c-1.567.316-1.99,1.051-.951,1.617a7.987,7.987,0,0,0,4.719.39C230.272,295.6,230.662,294.885,229.63,294.343Z" transform="translate(-186.681 -280.863)" fill="#5e8c32"/>
        <path id="Trazado_204007" data-name="Trazado 204007" d="M260.54,312.763c8.456-2.16-3.046-4.308,1.419-5.423,5.006-1.233,7.815,1.238,7.833,1.232q2.007-.2,4.013-.406c.049-.438-.758-1-2.108-1.5.685-.189,1.37-.38,2.054-.568q-1.162-.231-2.315-.466l-1.649.476a22.592,22.592,0,0,0-9.763.023c-7.426,1.679.8,4.627-2.405,5.445a11.159,11.159,0,0,1-8.867-1.584q-2,.131-3.984.252a11.049,11.049,0,0,0,3.524,1.9c-.778.182-1.556.372-2.329.553.555.17,1.115.338,1.675.5l2.131-.577A20.877,20.877,0,0,0,260.54,312.763Z" transform="translate(-195.607 -285.622)" fill="#cfdf7d"/>
        <g id="Grupo_143181" data-name="Grupo 143181" transform="translate(28.558 19.22)">
          <path id="Trazado_204008" data-name="Trazado 204008" d="M228.1,337.237l2.435-17.453,43.913-12.18-26.487-2.143-33.589,8.628-1.585,17.53Z" transform="translate(-212.148 -304.793)" fill="#ffe98f"/>
          <path id="Trazado_204009" data-name="Trazado 204009" d="M227.692,337.5a.624.624,0,0,1-.187-.036l-15.317-5.621a.666.666,0,0,1-.421-.692l1.586-17.529a.664.664,0,0,1,.484-.589l33.588-8.628a.814.814,0,0,1,.2-.017l26.488,2.141a.653.653,0,0,1,.586.607.671.671,0,0,1-.473.708l-43.508,12.066-2.372,17.017a.672.672,0,0,1-.3.475A.621.621,0,0,1,227.692,337.5Zm-14.608-6.745,14.113,5.179,2.322-16.651a.656.656,0,0,1,.471-.55l40.274-11.172-22.636-1.832-33.047,8.491Z" transform="translate(-211.764 -304.392)" fill="#ae6439"/>
        </g>
        <path id="Trazado_204010" data-name="Trazado 204010" d="M166.119,299.448s16.642,10.672,25.53,12.809c-4.761-3-24.553-13.713-24.553-13.713Z" transform="translate(-166.054 -282.975)" fill="#406529"/>
        <path id="Trazado_204011" data-name="Trazado 204011" d="M167.361,308.791l25.692,12.659-25.1-11.084Z" transform="translate(-166.521 -286.825)" fill="#406529"/>
        <path id="Trazado_204012" data-name="Trazado 204012" d="M168.188,316.435l.225,1.406,21.87,10.115Z" transform="translate(-166.831 -289.697)" fill="#406529"/>
        <path id="Trazado_204013" data-name="Trazado 204013" d="M282.3,346.317l-37.283-8.255,38.46,7.06Z" transform="translate(-195.701 -297.824)" fill="#406529"/>
        <path id="Trazado_204014" data-name="Trazado 204014" d="M283.181,355.18l-33.612-8.292,34.785,10.044.162-.657Z" transform="translate(-197.412 -301.141)" fill="#406529"/>
        <path id="Trazado_204015" data-name="Trazado 204015" d="M306.313,338.375l35.274-10.27-35.876,11.725Z" transform="translate(-218.508 -294.083)" fill="#4e7f29"/>
        <path id="Trazado_204016" data-name="Trazado 204016" d="M303.068,359.088l22.471-8.391L302.8,360.406Z" transform="translate(-217.413 -302.572)" fill="#4e7f29"/>
        <path id="Trazado_204017" data-name="Trazado 204017" d="M354.485,339.022l-32.506,13.537,32.049-11.9Z" transform="translate(-224.621 -298.185)" fill="#4e7f29"/>
        <path id="Trazado_204018" data-name="Trazado 204018" d="M363.9,331l-21.592,6.6,21.874-5.91Z" transform="translate(-232.26 -295.169)" fill="#4e7f29"/>
      </g>
      <g id="Grupo_143184" data-name="Grupo 143184" transform="translate(63.305 49.452)">
        <path id="Trazado_204019" data-name="Trazado 204019" d="M281.576,304.942s47.87-19.931,57.671-34.632c1.194-6.5,2.882-12.166,2.882-12.166s-46.03,22.18-59.705,26.3c-5.933.407-5.594,9.747-5.594,9.747Z" transform="translate(-236.734 -238.28)" fill="#4e7f29"/>
        <g id="Grupo_143183" data-name="Grupo 143183" transform="translate(40.237 40.617)">
          <path id="Trazado_204020" data-name="Trazado 204020" d="M281.467,316.506c9.047-2.78,17.677-5.533,26.133-9.991.242-.129.409.259.179.393-8.3,4.8-16.782,8.719-26.206,10.221C281.184,317.191,281.1,316.619,281.467,316.506Z" transform="translate(-278.627 -297.063)" fill="#406529"/>
          <path id="Trazado_204021" data-name="Trazado 204021" d="M294.911,298.292c6.325-1.022,12.355-3.594,18.193-6.254a.12.12,0,0,1,.1.219c-10.726,5.358-22.2,9.28-34.146,7.87a7.247,7.247,0,0,1,.508-.827C284.685,298.985,289.791,299.121,294.911,298.292Z" transform="translate(-277.809 -291.629)" fill="#406529"/>
          <path id="Trazado_204022" data-name="Trazado 204022" d="M277.1,303.878a71.124,71.124,0,0,0,20.728-3.73,160,160,0,0,0,19.334-8.748c.11-.056.189.12.081.18-12.088,6.71-25.986,14.6-40.184,12.622C277.072,304.094,277.085,303.989,277.1,303.878Z" transform="translate(-277.059 -291.389)" fill="#406529"/>
        </g>
        <path id="Trazado_204023" data-name="Trazado 204023" d="M260.161,286l-.327,6.664-1.981.5-.047,4.4,1.74,2.355-.233,6.584L220.5,284.2l.028-6.092-1.905-1.822-.517-6.777,1.233-.27s-2.1-6.478-1.708-6.936C223.846,265.576,260.161,286,260.161,286Z" transform="translate(-214.472 -239.841)" fill="#7ca043"/>
        <path id="Trazado_204024" data-name="Trazado 204024" d="M217.66,248.781c12.593,9.5,27.725,17.113,42.531,23.7,20.925-2.6,47.74-14.379,59.705-26.3q-17.209-8.717-35.325-19.864C271.582,238.025,244.553,247.628,217.66,248.781Z" transform="translate(-214.501 -226.322)" fill="url(#linear-gradient-32)"/>
        <path id="Trazado_204025" data-name="Trazado 204025" d="M224.326,251.533c11.153,8.192,26.9,13.919,37.491,20.686,24.7-4.261,45.853-13.812,57.822-24.977q-15.38-8-31.457-17.935C275.523,240.422,249.716,249.779,224.326,251.533Z" transform="translate(-217.006 -227.444)" fill="url(#linear-gradient-33)"/>
        <path id="Trazado_204026" data-name="Trazado 204026" d="M290.723,235.68c-11.433,8.276-32.42,15.782-51.78,18.428,3.039,2.591,4.9,4.647,2.442,5.607a106.812,106.812,0,0,0,20.841,10.232c.059-.012.109-.026.168-.039a21.539,21.539,0,0,1,13.075,2.363c18.276-4.385,34.079-11.608,44.785-19.995-2.313-1.592-3.044-3.529-1.936-4.937q-8.643-4.774-17.5-10.164C298.673,238.229,294.41,237.616,290.723,235.68Z" transform="translate(-222.499 -229.838)" fill="url(#linear-gradient-34)"/>
        <path id="Trazado_204027" data-name="Trazado 204027" d="M280.931,278.831a9.016,9.016,0,0,1-6.556-1.475c-1.8-1.3-1.787-2.694-.007-3.139a9.349,9.349,0,0,1,6.519,1.459C282.707,276.917,282.743,278.342,280.931,278.831Zm-5.19-3.636c-1.046.263-1.046,1.084.009,1.837a5.289,5.289,0,0,0,3.825.861c1.056-.281,1.041-1.109-.022-1.843A5.41,5.41,0,0,0,275.74,275.194Z" transform="translate(-235.307 -244.268)" fill="#487c27"/>
        <path id="Trazado_204028" data-name="Trazado 204028" d="M267.347,295.725l.124,1.408-30.356-14.9Z" transform="translate(-221.812 -247.331)" fill="#4e7f29"/>
        <path id="Trazado_204029" data-name="Trazado 204029" d="M264.408,310.338S242.1,300.089,235.15,296.295c3.046,2.684,31.28,16.891,31.28,16.891Z" transform="translate(-221.074 -252.616)" fill="#4e7f29"/>
        <path id="Trazado_204030" data-name="Trazado 204030" d="M275.744,323.206l-15.006-5.913,15,7.437Z" transform="translate(-230.689 -260.506)" fill="#4e7f29"/>
        <path id="Trazado_204031" data-name="Trazado 204031" d="M218.42,273.845l15.506,10.022-15.3-8.1Z" transform="translate(-214.787 -244.179)" fill="#4e7f29"/>
        <path id="Trazado_204032" data-name="Trazado 204032" d="M244.592,295.624S216.875,282.48,212.6,281.462c1.042-.86,4.052-.654,4.052-.654Z" transform="translate(-212.6 -246.788)" fill="#4e7f29"/>
      </g>
      <g id="Grupo_143185" data-name="Grupo 143185" transform="translate(86.51 36.209)">
        <path id="Trazado_204033" data-name="Trazado 204033" d="M391.762,258.088q3.544,10.984,7.8,22.21c1.114-.2,39.748-11.842,39.634-14.918-.036-.968.373-5.2.613-8.938q-.234-.371-.471-.74s.148-3.547.23-4.845c.174-.013.351-.029.525-.041.18-2.891.3-5.05.3-5.05C426.2,249.537,409.983,253.543,391.762,258.088Z" transform="translate(-303.128 -220.385)" fill="#7ca043"/>
        <path id="Trazado_204034" data-name="Trazado 204034" d="M251.579,230.911q-.266,2.308-.5,4.619c-.233.172-.464.346-.7.523q-.153,2.39-.262,4.786c.128.1.259.195.388.295q-.12,1.814-.216,3.636c-.172.086-.345.175-.514.262q.131,1.7.291,3.406c-.169-.137,22.743,7.933,37.441,11.832,14.432,2.96,58.722,13.947,58.7,14.447q-.538-1.7-1.059-3.394c.284-.179.571-.361.856-.54q0-2.172.011-4.338c-.509-.26-1.019-.524-1.53-.784q.223-2.666.445-5.338c.189-.412.373-.828.557-1.244q-.115-2.667-.223-5.338A512.791,512.791,0,0,0,251.579,230.911Z" transform="translate(-249.777 -214.803)" fill="#4e7f29"/>
        <path id="Trazado_204035" data-name="Trazado 204035" d="M307.562,205.107c-16.73,5.135-35.184,10.442-54.9,16.108,19.212,11.145,53.85,17.591,93.692,22.828,15.895-4.678,29.808-9.117,41.774-13.555C356.152,223.91,326.553,215.983,307.562,205.107Z" transform="translate(-250.858 -205.107)" fill="url(#linear-gradient-35)"/>
        <path id="Trazado_204036" data-name="Trazado 204036" d="M309.3,207.814c-14.844,4.567-31.029,9.283-48.254,14.275,18.7,10.27,50.5,16.583,87.11,21.723,14.683-4.155,27.744-8.106,39.169-12.043C356.477,225.516,328.034,218.02,309.3,207.814Z" transform="translate(-254.009 -206.124)" fill="url(#linear-gradient-36)"/>
        <path id="Trazado_204037" data-name="Trazado 204037" d="M383.033,232.524c-24.072-5.121-46.063-11.1-62.375-18.7-4.67,1.2-10.6,1.3-14.055.26q-11,3.6-22.919,7.348c.046.027.112.047.153.074,3.059,1.6,1.6,3.983-3.69,5.679,16.341,7.125,39.489,12.241,65.925,16.518a55.877,55.877,0,0,1,15.42-.763q12.086-3.3,22.658-6.488C380.346,235.493,379.97,233.858,383.033,232.524Z" transform="translate(-261.187 -208.384)" fill="url(#linear-gradient-37)"/>
        <path id="Trazado_204038" data-name="Trazado 204038" d="M360.879,239.871c-8.573,2.675-24.039,3.5-32.753,1.454-8.633-2.107-6.382-6.36,3.214-9.1,9.644-2.69,22.487-2.9,30.167-.772C369.119,233.545,369.49,237.183,360.879,239.871Z" transform="translate(-277.194 -214.466)" fill="url(#linear-gradient-38)"/>
        <path id="Trazado_204039" data-name="Trazado 204039" d="M319.312,241.728c-11.217-2.632-7.749-8.287,4.583-11.76,12.422-3.409,28.433-3.585,38.011-.867,9.5,2.658,10.335,7.277-.4,10.645C350.85,243.176,330.544,244.363,319.312,241.728ZM360.63,229.5c-9.041-2.531-24.13-2.36-35.694.827-11.49,3.255-14.547,8.435-4.091,10.96,10.493,2.415,29.3,1.4,39.356-1.8C370.306,236.325,369.578,232,360.63,229.5Z" transform="translate(-273.351 -213.416)" fill="url(#linear-gradient-39)"/>
        <path id="Trazado_204040" data-name="Trazado 204040" d="M398.076,250.85c-2.61-.464-2.729-1.474-.375-2.224a20.64,20.64,0,0,1,8.674-.484c2.484.476,2.755,1.444.539,2.185A21.646,21.646,0,0,1,398.076,250.85ZM404.7,248.7a12.218,12.218,0,0,0-5.1.283c-1.358.439-1.267,1.021.234,1.29a12.478,12.478,0,0,0,5.149-.3C406.306,249.547,406.145,248.977,404.7,248.7Z" transform="translate(-304.729 -221.183)" fill="#5e8c32"/>
        <path id="Trazado_204041" data-name="Trazado 204041" d="M311.788,227.836c-1.787-.725-.87-1.964,1.922-2.724,2.811-.746,6.437-.75,8.191-.04,1.777.712,1.047,1.889-1.7,2.66C317.425,228.5,313.576,228.562,311.788,227.836Zm8.041-2.194a9.029,9.029,0,0,0-4.8.037c-1.639.436-2.145,1.153-1.107,1.578a9.288,9.288,0,0,0,4.871-.061C320.425,226.754,320.854,226.057,319.83,225.642Z" transform="translate(-272.731 -212.412)" fill="#5e8c32"/>
        <path id="Trazado_204042" data-name="Trazado 204042" d="M351.456,240.49c8.52-2.305-3.314-4,1.182-5.2,4.961-1.353,7.888.963,7.923.959,1.321-.159,2.632-.305,3.936-.46.009-.423-.835-.955-2.2-1.4.656-.194,1.313-.392,1.969-.587q-1.161-.2-2.309-.4l-1.585.494a22.644,22.644,0,0,0-9.728.328c-7.487,1.9.988,4.345-2.246,5.249a12.666,12.666,0,0,1-9.249-1.076q-2.088.234-4.183.473a11.417,11.417,0,0,0,3.707,1.567q-1.23.322-2.466.65c.59.125,1.183.252,1.778.374.751-.218,1.5-.436,2.249-.65A24.83,24.83,0,0,0,351.456,240.49Z" transform="translate(-281.785 -215.736)" fill="#cfdf7d"/>
        <path id="Trazado_204043" data-name="Trazado 204043" d="M250.751,238.567c-.145-.092,39.676,14.075,49.628,15.253-5.239-2.442-48.482-16.374-48.341-16.219C251.611,237.92,251.181,238.246,250.751,238.567Z" transform="translate(-250.14 -217.316)" fill="#406529"/>
        <path id="Trazado_204044" data-name="Trazado 204044" d="M250.331,246.816q13.4,3.6,27.529,8.133-13.843-3.847-27.158-6.817C250.574,247.695,250.453,247.255,250.331,246.816Z" transform="translate(-249.983 -220.78)" fill="#406529"/>
        <path id="Trazado_204045" data-name="Trazado 204045" d="M249.779,253.531c-.005.409-.006.815-.006,1.225q11.789,2.835,24.027,6.35Q261.5,256.956,249.779,253.531Z" transform="translate(-249.773 -223.303)" fill="#406529"/>
        <path id="Trazado_204046" data-name="Trazado 204046" d="M376.559,273.23q-20.5-4.677-41.323-7.682,21.456,2.415,42.369,6.545Q377.088,272.663,376.559,273.23Z" transform="translate(-281.887 -227.819)" fill="#406529"/>
        <path id="Trazado_204047" data-name="Trazado 204047" d="M378.6,281.726q-18.948-4.744-38.051-8.059,19.784,4.124,39.634,9.84c.022-.213.041-.428.06-.64Z" transform="translate(-283.883 -230.87)" fill="#406529"/>
        <path id="Trazado_204048" data-name="Trazado 204048" d="M402.128,266.146c11.723-3.028,22.571-5.847,32.542-8.538-10.023,3.179-21,6.466-32.936,9.955C401.864,267.092,402,266.621,402.128,266.146Z" transform="translate(-306.875 -224.835)" fill="#4e7f29"/>
        <path id="Trazado_204049" data-name="Trazado 204049" d="M401.956,286.185q11.562-3.676,21.921-7.152-10.34,4.142-21.99,8.443Z" transform="translate(-306.932 -232.886)" fill="#4e7f29"/>
        <path id="Trazado_204050" data-name="Trazado 204050" d="M450.433,269.825c-8.752,3.722-18.389,7.483-28.91,11.364,10.477-3.341,20.138-6.55,28.991-9.7C450.487,270.936,450.461,270.378,450.433,269.825Z" transform="translate(-314.311 -229.426)" fill="#4e7f29"/>
        <path id="Trazado_204051" data-name="Trazado 204051" d="M456.706,261.683q-8.862,2.516-18.731,5.165,10.093-2.3,19.2-4.425Q456.943,262.053,456.706,261.683Z" transform="translate(-320.493 -226.366)" fill="#4e7f29"/>
      </g>
      <g id="Grupo_143187" data-name="Grupo 143187" transform="translate(97.61 17.189)">
        <path id="Trazado_204052" data-name="Trazado 204052" d="M394.877,220.483q3.471,9.718,7.291,19.387c.574-.629,38.183-14.164,38.723-16.258.017-.8.6-4.367,1-7.468-.154-.2-.3-.406-.454-.6,0,0,.292-2.947.425-4.02.182-.019.366-.032.547-.054.3-2.389.5-4.163.5-4.163A481.179,481.179,0,0,0,394.877,220.483Z" transform="translate(-315.398 -186.913)" fill="#7ca043"/>
        <path id="Trazado_204053" data-name="Trazado 204053" d="M268,204.4q.04,2.435.094,4.865c-.179.2-.358.4-.539.589q.127,2.511.272,5.019c.122.095.242.19.364.282.048,1.267.107,2.536.167,3.795-.14.1-.273.205-.411.31.178,1.172.367,2.34.554,3.509-.145-.037,19.915,6.393,32.9,8.619,12.438,1.634,52.728,7,52.927,7.387-.317-.981-.635-1.968-.949-2.951.267-.191.537-.381.8-.571.014-1.306.026-2.608.038-3.914-.474-.187-.953-.371-1.426-.558-.074-1.9-.149-3.8-.23-5.694q.59-.171,1.172-.333-.106-2.389-.227-4.789A715.754,715.754,0,0,0,268,204.4Z" transform="translate(-267.555 -185.823)" fill="#4e7f29"/>
        <g id="Grupo_143186" data-name="Grupo 143186" transform="translate(31.398 10.99)">
          <path id="Trazado_204054" data-name="Trazado 204054" d="M377.03,196.272,338.291,213l1.412,17.542-20.322-3.978-.591-14.5,44.161-18.853Z" transform="translate(-318.206 -192.611)" fill="#e7dcad"/>
          <path id="Trazado_204055" data-name="Trazado 204055" d="M338.319,224.01l1.384,17.153-20.322-3.978-.591-14.5,2.858-1.216C327.232,222.2,332.805,223,338.319,224.01Z" transform="translate(-318.206 -203.227)" fill="#ffe98f"/>
          <path id="Trazado_204056" data-name="Trazado 204056" d="M339.361,230.791a.564.564,0,0,0,.383-.157.619.619,0,0,0,.192-.5l-1.38-17.1L376.9,196.472a.623.623,0,0,0,.36-.62.6.6,0,0,0-.464-.544l-14.073-3.054a.622.622,0,0,0-.338.034l-44.165,18.856a.614.614,0,0,0-.363.592l.591,14.495a.6.6,0,0,0,.476.577l20.323,3.976A.532.532,0,0,0,339.361,230.791Zm35.331-34.69-36.978,15.971a.618.618,0,0,0-.361.614l1.353,16.748-19.112-3.744-.553-13.576,43.62-18.62Z" transform="translate(-317.854 -192.244)" fill="#ae6439"/>
        </g>
        <path id="Trazado_204057" data-name="Trazado 204057" d="M268,204.4q.04,2.435.094,4.865c-.179.2-.358.4-.539.589q.127,2.511.272,5.019c.122.095.242.19.364.282.048,1.267.107,2.536.167,3.795-.14.1-.273.205-.411.31.178,1.172.367,2.34.554,3.509-.137-.032,17.615,5.654,30.528,8.181a67.863,67.863,0,0,0,15.028-2.758,92.337,92.337,0,0,0,24.308-11.734A706.934,706.934,0,0,0,268,204.4Z" transform="translate(-267.555 -185.823)" fill="#4e7f29" opacity="0.3" style="mix-blend-mode: multiply;isolation: isolate"/>
        <path id="Trazado_204058" data-name="Trazado 204058" d="M315.677,174.638c-15.135,5.493-31.079,11.71-47.408,18.582,17.885,10.924,47.82,14.042,85.5,15.565,15-5.447,28.9-9.978,41.568-13.754C362.22,190.037,334.346,184.7,315.677,174.638Z" transform="translate(-267.823 -174.638)" fill="url(#linear-gradient-40)"/>
        <path id="Trazado_204059" data-name="Trazado 204059" d="M317.219,177.341c-13.375,4.938-27.379,10.453-41.735,16.493,17.367,9.879,45.1,13.184,79.714,14.95,13.839-4.881,26.791-9,38.735-12.465C362.249,191.725,335.518,186.7,317.219,177.341Z" transform="translate(-270.534 -175.654)" fill="url(#linear-gradient-41)"/>
        <path id="Trazado_204060" data-name="Trazado 204060" d="M388.666,197.427c-24.238-3.624-45.086-7.807-60.829-14.513-4.257,1.343-9.674,1.712-12.915.82q-9.7,4.008-19.826,8.427c.042.024.1.043.144.071,2.869,1.485,1.785,3.947-2.67,5.987,14.971,6.349,35.566,9.38,60.32,11.224a52.806,52.806,0,0,1,14.568-1.823q11.56-3.777,22.271-6.88C385.925,200.063,385.559,198.66,388.666,197.427Z" transform="translate(-276.955 -177.748)" fill="url(#linear-gradient-42)"/>
        <path id="Trazado_204061" data-name="Trazado 204061" d="M365.884,205.817c-8.041,2.99-22.127,4.978-30.032,3.654-7.837-1.4-6.184-5.792,2.338-9.009,8.568-3.189,20.592-4,28.006-2.411C373.555,199.611,373.949,202.817,365.884,205.817Z" transform="translate(-291.319 -183.139)" fill="url(#linear-gradient-43)"/>
        <path id="Trazado_204062" data-name="Trazado 204062" d="M328.085,210.239c-10.1-1.7-7.549-7.662,3.343-11.75,10.978-4.05,26.047-4.9,35.368-2.849,9.261,2.028,10.074,6.01-.074,9.726C356.624,209.126,338.185,211.939,328.085,210.239Zm37.5-14.174c-8.777-1.906-22.952-1.076-33.188,2.714-10.166,3.822-12.408,9.253-2.971,10.913,9.461,1.541,26.555-.956,36.055-4.488C375,201.708,374.293,197.957,365.585,196.065Z" transform="translate(-287.913 -182.126)" fill="url(#linear-gradient-44)"/>
        <path id="Trazado_204063" data-name="Trazado 204063" d="M400.628,214.372c-2.486-.247-2.63-1.157-.4-1.986a21.066,21.066,0,0,1,8.328-.945c2.413.292,2.674,1.135.539,1.918A23.074,23.074,0,0,1,400.628,214.372Zm6.311-2.332a12.577,12.577,0,0,0-4.9.558c-1.286.474-1.191,1,.248,1.145a13.142,13.142,0,0,0,4.931-.579C408.5,212.7,408.344,212.2,406.939,212.04Z" transform="translate(-316.818 -188.434)" fill="#5e8c32"/>
        <path id="Trazado_204064" data-name="Trazado 204064" d="M320,197.958c-1.659-.614-.956-1.909,1.494-2.8s5.751-1.072,7.4-.474c1.675.6,1.091,1.788-1.335,2.7C325.105,198.284,321.658,198.572,320,197.958Zm7.061-2.606a7.531,7.531,0,0,0-4.335.3c-1.442.512-1.832,1.254-.863,1.617a7.733,7.733,0,0,0,4.383-.33C327.685,196.409,328.024,195.7,327.059,195.353Z" transform="translate(-286.922 -182.039)" fill="#5e8c32"/>
        <path id="Trazado_204065" data-name="Trazado 204065" d="M386.7,236.563l-31.4-.744,30.242,2.6Z" transform="translate(-300.526 -197.628)" fill="#406529"/>
        <path id="Trazado_204066" data-name="Trazado 204066" d="M388.213,243.51l-.018,1.317-26.415-3.055Z" transform="translate(-302.961 -199.865)" fill="#406529"/>
        <path id="Trazado_204067" data-name="Trazado 204067" d="M394.461,253.123l-18.354-2.574,18.757,3.6Z" transform="translate(-308.345 -203.163)" fill="#406529"/>
        <path id="Trazado_204068" data-name="Trazado 204068" d="M456.507,220.6l-22.739,7.186,22.288-8.614Z" transform="translate(-330.012 -191.374)" fill="#4e7f29"/>
        <path id="Trazado_204069" data-name="Trazado 204069" d="M461.236,214.061l-.159,1.143-14.646,4.721Z" transform="translate(-334.771 -189.452)" fill="#4e7f29"/>
        <path id="Trazado_204070" data-name="Trazado 204070" d="M405.581,234.071l18.62-4.884-18.66,3.455Z" transform="translate(-319.406 -195.136)" fill="#4e7f29"/>
        <path id="Trazado_204071" data-name="Trazado 204071" d="M406.326,242.713l31.568-10.21-31.548,11.78Z" transform="translate(-319.701 -196.382)" fill="#4e7f29"/>
        <path id="Trazado_204072" data-name="Trazado 204072" d="M268.285,208.2l19.946,8.53-19.871-6.642Z" transform="translate(-267.829 -187.249)" fill="#406529"/>
      </g>
      <g id="Grupo_143189" data-name="Grupo 143189" transform="translate(91.61)">
        <path id="Trazado_204073" data-name="Trazado 204073" d="M306.681,198.568q-2.884,9.942-6.13,19.857c-.611-.586-38.951-11.379-39.618-13.425-.065-.806-.862-4.315-1.443-7.382.139-.207.279-.419.419-.629,0,0-.471-2.92-.666-3.98-.182-.008-.366-.011-.548-.009-.441-2.365-.752-4.118-.752-4.118A477.539,477.539,0,0,1,306.681,198.568Z" transform="translate(-257.943 -162.801)" fill="#4e7f29"/>
        <path id="Trazado_204074" data-name="Trazado 204074" d="M410.146,171.318q.1,2.427.194,4.865c.187.185.384.364.572.546q.021,2.51.023,5.028l-.344.307c.024,1.262.041,2.526.062,3.795.137.095.283.18.426.273q-.167,1.775-.351,3.545c.146-.047-19.5,7.809-32.326,10.968-12.319,2.521-52.225,10.781-52.4,11.179q.4-1.508.773-3.008l-.835-.517c-.093-1.3-.18-2.6-.268-3.9l1.391-.661c-.037-1.895-.076-3.8-.108-5.7-.4-.079-.8-.165-1.19-.243-.019-1.6-.037-3.2-.056-4.791A722.191,722.191,0,0,1,410.146,171.318Z" transform="translate(-283.393 -156.201)" fill="#7ca043"/>
        <path id="Trazado_204075" data-name="Trazado 204075" d="M336.269,147.1c15.432,4.391,31.72,9.44,48.428,15.117-17.21,12.189-46.907,17.452-84.44,21.693-15.3-4.358-29.446-7.873-42.314-10.729C290.711,165.813,318.222,158.49,336.269,147.1Z" transform="translate(-257.943 -147.101)" fill="url(#linear-gradient-45)"/>
        <path id="Trazado_204076" data-name="Trazado 204076" d="M340.016,149.664c13.644,3.96,27.954,8.453,42.642,13.447-16.751,11.1-44.242,16.4-78.7,20.65-14.1-3.871-27.274-7.039-39.407-9.636C295.914,167.259,322.3,160.325,340.016,149.664Z" transform="translate(-260.427 -148.064)" fill="url(#linear-gradient-46)"/>
        <path id="Trazado_204077" data-name="Trazado 204077" d="M282.628,174.5c23.984-5.358,44.551-11.035,59.875-18.86,4.322,1.042,9.754,1.009,12.938-.109q9.918,3.3,20.289,6.979c-.043.027-.1.049-.138.077-2.773,1.686-1.547,4.072,3.019,5.775-14.568,7.418-34.949,11.927-59.552,15.543a53.135,53.135,0,0,0-14.655-.767q-11.759-2.939-22.643-5.257C285.524,176.931,285.807,175.5,282.628,174.5Z" transform="translate(-266.893 -150.268)" fill="url(#linear-gradient-47)"/>
        <path id="Trazado_204078" data-name="Trazado 204078" d="M339.116,180.828c8.206,2.4,22.384,3.379,30.194,1.488,7.745-1.958,5.836-6.225-2.865-8.819-8.736-2.564-20.788-2.5-28.1-.388C331.089,175.195,330.887,178.421,339.116,180.828Z" transform="translate(-286.118 -156.287)" fill="url(#linear-gradient-48)"/>
        <path id="Trazado_204079" data-name="Trazado 204079" d="M370.381,182.792c9.98-2.423,7.083-8.184-4.033-11.48-11.2-3.248-26.295-3.013-35.476-.293-9.128,2.688-9.7,6.717.647,9.7C341.823,183.734,360.4,185.217,370.381,182.792ZM332.1,171.354c8.647-2.537,22.849-2.724,33.294.317,10.373,3.082,12.937,8.336,3.612,10.677-9.356,2.215-26.569.958-36.258-1.881C323.031,177.663,323.524,173.871,332.1,171.354Z" transform="translate(-282.724 -155.303)" fill="url(#linear-gradient-49)"/>
        <path id="Trazado_204080" data-name="Trazado 204080" d="M322.338,191.122c2.466-.424,2.553-1.343.279-2.009a20.968,20.968,0,0,0-8.372-.34c-2.39.461-2.606,1.321-.426,1.949A22.977,22.977,0,0,0,322.338,191.122Zm-6.442-1.87a12.549,12.549,0,0,1,4.92.2c1.317.387,1.25.913-.177,1.164a13.044,13.044,0,0,1-4.96-.222C314.377,190.021,314.5,189.514,315.9,189.251Z" transform="translate(-278.372 -162.658)" fill="#5e8c32"/>
        <path id="Trazado_204081" data-name="Trazado 204081" d="M402.553,168.915c1.62-.734.838-1.974-1.661-2.69s-5.8-.652-7.418.067c-1.632.724-.986,1.858,1.493,2.586C397.473,169.605,400.932,169.649,402.553,168.915Zm-7.208-2.09a7.536,7.536,0,0,1,4.348-.021c1.467.412,1.906,1.125.96,1.548a7.64,7.64,0,0,1-4.4-.009C394.789,167.923,394.4,167.242,395.345,166.825Z" transform="translate(-308.533 -154.098)" fill="#5e8c32"/>
        <g id="Grupo_143188" data-name="Grupo 143188" transform="translate(36.181 11.9)">
          <path id="Trazado_204082" data-name="Trazado 204082" d="M316.842,171.2l39.666,13.9-.373,17.6,20.052-5.43-.267-14.5-45.208-15.63Z" transform="translate(-316.256 -166.531)" fill="#ffe98f"/>
          <path id="Trazado_204083" data-name="Trazado 204083" d="M380.152,194.287l-.365,17.208,20.052-5.43-.267-14.5-2.927-1.013C391.116,191.679,385.6,192.882,380.152,194.287Z" transform="translate(-339.909 -175.33)" fill="#ffe98f"/>
          <path id="Trazado_204084" data-name="Trazado 204084" d="M355.809,202.944a.61.61,0,0,1-.393-.132.632.632,0,0,1-.219-.495l.365-17.152L316.3,171.413a.613.613,0,0,1-.4-.6.622.622,0,0,1,.433-.577l13.867-4.054a.6.6,0,0,1,.34.006l45.209,15.628a.6.6,0,0,1,.4.563l.268,14.5a.626.626,0,0,1-.445.612l-20.052,5.426A.872.872,0,0,1,355.809,202.944Zm-37.323-32.061,37.858,13.267a.6.6,0,0,1,.4.588l-.352,16.8,18.852-5.11-.248-13.58-44.649-15.435Z" transform="translate(-315.904 -166.164)" fill="#ae6439"/>
        </g>
        <path id="Trazado_204085" data-name="Trazado 204085" d="M325.818,211.932l31.309-3.01-30.035,4.769Z" transform="translate(-283.448 -170.331)" fill="#4e7f29"/>
        <path id="Trazado_204086" data-name="Trazado 204086" d="M327.754,218.972l.09,1.309,26.191-4.948Z" transform="translate(-284.176 -172.74)" fill="#4e7f29"/>
        <path id="Trazado_204087" data-name="Trazado 204087" d="M326.757,229l18.171-3.891-18.514,4.937Z" transform="translate(-283.672 -176.415)" fill="#4e7f29"/>
        <path id="Trazado_204088" data-name="Trazado 204088" d="M260.421,202l23.124,5.531-22.76-6.983Z" transform="translate(-258.874 -167.186)" fill="#406529"/>
        <path id="Trazado_204089" data-name="Trazado 204089" d="M260.025,195.494l.224,1.135,14.9,3.651Z" transform="translate(-258.725 -165.285)" fill="#406529"/>
        <path id="Trazado_204090" data-name="Trazado 204090" d="M314.457,211.618l-18.875-3.532,18.828,2.1Z" transform="translate(-272.087 -170.017)" fill="#406529"/>
        <path id="Trazado_204091" data-name="Trazado 204091" d="M306.467,220.841l-32.124-7.91,32.2,9.478Z" transform="translate(-264.106 -171.838)" fill="#406529"/>
        <path id="Trazado_204092" data-name="Trazado 204092" d="M449.518,175.109l-19.4,9.945L449.556,177Z" transform="translate(-322.639 -157.626)" fill="#4e7f29"/>
      </g>
      <g id="Grupo_143192" data-name="Grupo 143192" transform="translate(109.51 63.886)">
        <path id="Trazado_204093" data-name="Trazado 204093" d="M286.619,373.212l1.6,5.018.807.394.588,2.288-.468.752.509,1.814,1.437.6,1.609,5.535,67.735-.379,3.049-5.494-.752-.823.973-3.494,1-.079.486-1.79-.6-1.625.724-2.462Z" transform="translate(-286.619 -295.953)" fill="url(#linear-gradient-50)"/>
        <path id="Trazado_204094" data-name="Trazado 204094" d="M351.031,250.364q-20.556-.457-41.094-.919c-2.335,26.082-13.861,51.741-23.318,77.259a366.474,366.474,0,0,0,78.7.25C360.215,301.258,351.36,276,351.031,250.364Z" transform="translate(-286.619 -249.445)" fill="url(#linear-gradient-51)"/>
        <path id="Trazado_204095" data-name="Trazado 204095" d="M351.52,253.438q-18.251-.272-36.493-.541c-2.534,24.652-11.812,49.018-20.643,73.507a379.183,379.183,0,0,0,69.4.641C359.032,302.188,352.068,277.952,351.52,253.438Z" transform="translate(-289.536 -250.742)" fill="url(#linear-gradient-52)"/>
        <path id="Trazado_204096" data-name="Trazado 204096" d="M361.964,320.265c-3.629-19.666-7.862-38.917-9.043-58.253-4.016-.478-7.343-3.1-8.169-6.3q-9.6.1-19.231.208c0,.062,0,.119,0,.18-.243,3.88-3.871,6.8-8.29,6.884-2.9,19-9.115,37.888-15.628,56.909,5.5,1.065,9.206,3.671,9.355,6.824,12.846.963,25.579,1.287,38.43.978C350.13,324.191,355.233,321.192,361.964,320.265Z" transform="translate(-292.248 -251.801)" fill="url(#linear-gradient-53)"/>
        <path id="Trazado_204097" data-name="Trazado 204097" d="M341.438,317.654c-11.629.084-19.772-6.268-17.936-13.586,1.845-7.348,10.136-12.939,18.855-12.573,8.714.388,16.741,6.212,17.986,13.108C361.561,311.474,353.047,317.57,341.438,317.654Z" transform="translate(-300.381 -265.24)" fill="#4e7f29"/>
        <path id="Trazado_204098" data-name="Trazado 204098" d="M336.449,319.136c-8.822-.3-16.384-3.6-19.73-8.6a10.242,10.242,0,0,1-1.362-8.988c2.875-9.255,13.252-16.228,23.625-15.875l.352.015c10.742.569,20.786,7.843,22.876,16.565a9.667,9.667,0,0,1-1.866,8.118c-3.893,5.272-12.386,8.638-22.168,8.784C337.591,319.161,337.018,319.155,336.449,319.136Zm2.494-32.321c-9.913-.336-19.822,6.287-22.554,15.085a9.094,9.094,0,0,0,1.219,7.98C320.765,314.6,328,317.71,336.488,318c.551.018,1.113.025,1.68.02,9.452-.14,17.624-3.338,21.317-8.341a8.525,8.525,0,0,0,1.67-7.144c-1.948-8.126-11.761-15.172-21.877-15.706Z" transform="translate(-297.235 -263.054)" fill="url(#linear-gradient-54)"/>
        <path id="Trazado_204099" data-name="Trazado 204099" d="M346.543,353.206a6.362,6.362,0,0,1-4.634-1.795,2.531,2.531,0,0,1-.608-1.9c.215-2.035,2.833-3.615,6.092-3.677,3.322-.057,5.806,1.487,5.829,3.531.023,2.073-2.645,3.759-6.075,3.842C346.945,353.213,346.741,353.213,346.543,353.206Zm1.3-5.772c-.143-.005-.287-.007-.433,0-2.576.048-4.492,1.226-4.6,2.255a.905.905,0,0,0,.245.678c.65.783,2.262,1.294,4.059,1.253,2.594-.063,4.592-1.247,4.583-2.225C351.692,348.509,350.141,347.511,347.847,347.434Z" transform="translate(-307.162 -285.665)" fill="#57872c"/>
        <path id="Trazado_204100" data-name="Trazado 204100" d="M352.175,276.2l-.14-.009a3.964,3.964,0,0,1-3.981-3.857,3.726,3.726,0,0,1,4.05-3.31l.2.011a4.077,4.077,0,0,1,3.978,3.808,3.1,3.1,0,0,1-.923,2.186A4.276,4.276,0,0,1,352.175,276.2Zm-.125-5.582a2.208,2.208,0,0,0-2.478,1.8c-.059,1.091,1.111,2.09,2.557,2.18l.1,0a2.822,2.822,0,0,0,2.081-.722,1.489,1.489,0,0,0,.457-1.04,2.608,2.608,0,0,0-2.574-2.219Z" transform="translate(-309.702 -256.801)" fill="#57872c"/>
        <g id="Grupo_143190" data-name="Grupo 143190" transform="translate(11.196 32.094)">
          <path id="Trazado_204101" data-name="Trazado 204101" d="M309.505,301.773l-3.778,12.6,60.8,2.106-3.383-14.436Z" transform="translate(-304.996 -301.202)" fill="#ffe98f"/>
          <path id="Trazado_204102" data-name="Trazado 204102" d="M366.787,316.731l-62.232-2.157,4.113-13.716,54.464.272Zm-60.766-3.245,59.371,2.058-3.111-13.28L309.463,302Z" transform="translate(-304.555 -300.858)" fill="url(#linear-gradient-55)"/>
        </g>
        <g id="Grupo_143191" data-name="Grupo 143191" transform="translate(1.715 82.331)">
          <path id="Trazado_204103" data-name="Trazado 204103" d="M293.666,390.554l.077.035.741,2.544,57.375-1.864Z" transform="translate(-290.982 -384.8)" fill="#406529"/>
          <path id="Trazado_204104" data-name="Trazado 204104" d="M289.367,381.336l.695.34.523,2.035,58.133-1.249S303.737,381.946,289.367,381.336Z" transform="translate(-289.367 -381.336)" fill="#406529"/>
        </g>
        <path id="Trazado_204105" data-name="Trazado 204105" d="M349.127,386.072s17.547.986,35.556,1.506a15.094,15.094,0,0,0-.406-2.383Z" transform="translate(-310.107 -300.456)" fill="#a8c35b"/>
        <path id="Trazado_204106" data-name="Trazado 204106" d="M365.5,394.653s23.608,1.192,26.86,1.629a8.179,8.179,0,0,0-.769-2.387Z" transform="translate(-316.259 -303.725)" fill="#a8c35b"/>
      </g>
    </g>
  </g>
</svg>
