<svg xmlns="http://www.w3.org/2000/svg" xmlns:xlink="http://www.w3.org/1999/xlink" width="535" height="430" viewBox="0 0 535 430">
  <defs>
    <filter id="Trazado_200118" x="0" y="0" width="535" height="430" filterUnits="userSpaceOnUse">
      <feOffset dy="3" input="SourceAlpha"/>
      <feGaussianBlur stdDeviation="5" result="blur"/>
      <feFlood flood-opacity="0.161"/>
      <feComposite operator="in" in2="blur"/>
      <feComposite in="SourceGraphic"/>
    </filter>
  </defs>
  <g id="Grupo_145573" data-name="Grupo 145573" transform="translate(-795 -796)">
    <g transform="matrix(1, 0, 0, 1, 795, 796)" filter="url(#Trazado_200118)">
      <path id="Trazado_200118-2" data-name="Trazado 200118" d="M34.695,0H470.305C489.467,0,505,9.651,505,21.557V378.443C505,390.349,489.467,400,470.305,400H34.695C15.533,400,0,390.349,0,378.443V21.557C0,9.651,15.533,0,34.695,0Z" transform="translate(15 12)" fill="#feeada"/>
    </g>
    <path id="Trazado_210664" data-name="Trazado 210664" d="M2,62H505a32,32,0,0,1-32,32H32A32,32,0,0,1,0,62Z" transform="translate(809 1114)" fill="#fbdb5e"/>
    <g id="Grupo_138348" data-name="Grupo 138348" transform="translate(531.611 694.435)">
      <g id="Grupo_138325" data-name="Grupo 138325" transform="translate(591.119 360.784)">
        <path id="Trazado_200475" data-name="Trazado 200475" d="M1808.351,1154.835l4.969.817a2.118,2.118,0,0,1,1.022.463,1.77,1.77,0,0,1,.587.9,1.441,1.441,0,0,1,.048.323,1.5,1.5,0,0,1-.018.3l-11.434,69.295a1.824,1.824,0,0,1-2.093,1.376l-.1-.014-4.97-.817-.1-.018a1.822,1.822,0,0,1-1.541-1.974l11.433-69.3a1.516,1.516,0,0,1,.228-.581,1.781,1.781,0,0,1,.847-.669A2.119,2.119,0,0,1,1808.351,1154.835Z" transform="translate(-1794.68 -1154.805)" fill="#ffb93e"/>
        <path id="Trazado_200476" data-name="Trazado 200476" d="M1809.528,1318.449l-6.125,37.124a1.751,1.751,0,0,1-2.063,1.2l-.1-.014-4.97-.817-.1-.018a1.749,1.749,0,0,1-1.57-1.794l5.373-32.565A16.618,16.618,0,0,0,1809.528,1318.449Z" transform="translate(-1794.586 -1283.26)" fill="#ffa412"/>
        <g id="Grupo_138324" data-name="Grupo 138324" transform="translate(3.97 0.141)">
          <rect id="Rectángulo_42420" data-name="Rectángulo 42420" width="0.798" height="8.918" transform="translate(6.265 8.79) rotate(-80.616)" fill="#ffa412"/>
          <rect id="Rectángulo_42421" data-name="Rectángulo 42421" width="0.798" height="8.918" transform="translate(5.825 11.458) rotate(-80.643)" fill="#ffa412"/>
          <rect id="Rectángulo_42422" data-name="Rectángulo 42422" width="0.798" height="8.918" transform="translate(5.297 14.653) rotate(-80.627)" fill="#ffa412"/>
          <rect id="Rectángulo_42423" data-name="Rectángulo 42423" width="0.798" height="8.918" transform="translate(4.489 19.554) rotate(-80.631)" fill="#ffa412"/>
          <rect id="Rectángulo_42424" data-name="Rectángulo 42424" width="0.798" height="8.918" transform="translate(3.634 24.736) rotate(-80.629)" fill="#ffa412"/>
          <rect id="Rectángulo_42425" data-name="Rectángulo 42425" width="0.798" height="8.918" transform="translate(2.323 32.681) rotate(-80.642)" fill="#ffa412"/>
          <rect id="Rectángulo_42426" data-name="Rectángulo 42426" width="0.798" height="8.918" transform="translate(1.096 40.116) rotate(-80.615)" fill="#ffa412"/>
          <rect id="Rectángulo_42427" data-name="Rectángulo 42427" width="0.798" height="8.918" transform="translate(0 46.759) rotate(-80.631)" fill="#ffa412"/>
          <rect id="Rectángulo_42428" data-name="Rectángulo 42428" width="0.798" height="8.918" transform="translate(6.683 6.254) rotate(-80.642)" fill="#ffa412"/>
          <rect id="Rectángulo_42429" data-name="Rectángulo 42429" width="0.798" height="8.918" transform="translate(6.96 4.577) rotate(-80.629)" fill="#ffa412"/>
          <rect id="Rectángulo_42430" data-name="Rectángulo 42430" width="0.798" height="8.918" transform="translate(7.227 2.959) rotate(-80.642)" fill="#ffa412"/>
          <path id="Trazado_200477" data-name="Trazado 200477" d="M1847.592,1160.706l8.8,1.447.081-.492a1.475,1.475,0,0,0,.018-.3l-8.739-1.437a1.473,1.473,0,0,0-.079.291Z" transform="translate(-1840.164 -1158.963)" fill="#ffa412"/>
          <path id="Trazado_200478" data-name="Trazado 200478" d="M1849.031,1156.129l8.542,1.4a1.77,1.77,0,0,0-.587-.9l-7.108-1.169A1.776,1.776,0,0,0,1849.031,1156.129Z" transform="translate(-1841.294 -1155.46)" fill="#ffa412"/>
        </g>
      </g>
      <g id="Grupo_138327" data-name="Grupo 138327" transform="translate(600.134 360.784)">
        <path id="Trazado_200479" data-name="Trazado 200479" d="M1850.277,1154.835l4.969.817a2.119,2.119,0,0,1,1.022.463,1.77,1.77,0,0,1,.587.9,1.527,1.527,0,0,1,.03.624l-11.433,69.295a1.825,1.825,0,0,1-2.093,1.376l-.1-.014-4.97-.817-.1-.018a1.822,1.822,0,0,1-1.54-1.974l11.433-69.3a1.523,1.523,0,0,1,.228-.581,1.779,1.779,0,0,1,.847-.669A2.119,2.119,0,0,1,1850.277,1154.835Z" transform="translate(-1836.606 -1154.805)" fill="#ffb93e"/>
        <path id="Trazado_200480" data-name="Trazado 200480" d="M1851.454,1318.449l-6.125,37.124a1.752,1.752,0,0,1-2.064,1.2l-.1-.014-4.97-.817-.1-.018a1.749,1.749,0,0,1-1.571-1.794l5.373-32.565A16.619,16.619,0,0,0,1851.454,1318.449Z" transform="translate(-1836.512 -1283.26)" fill="#ffa412"/>
        <g id="Grupo_138326" data-name="Grupo 138326" transform="translate(3.97 0.141)">
          <rect id="Rectángulo_42431" data-name="Rectángulo 42431" width="0.798" height="8.918" transform="translate(6.265 8.79) rotate(-80.616)" fill="#ffa412"/>
          <rect id="Rectángulo_42432" data-name="Rectángulo 42432" width="0.798" height="8.918" transform="matrix(0.163, -0.987, 0.987, 0.163, 5.825, 11.458)" fill="#ffa412"/>
          <rect id="Rectángulo_42433" data-name="Rectángulo 42433" width="0.798" height="8.918" transform="translate(5.297 14.653) rotate(-80.627)" fill="#ffa412"/>
          <rect id="Rectángulo_42434" data-name="Rectángulo 42434" width="0.798" height="8.918" transform="translate(4.489 19.554) rotate(-80.629)" fill="#ffa412"/>
          <rect id="Rectángulo_42435" data-name="Rectángulo 42435" width="0.798" height="8.918" transform="translate(3.634 24.736) rotate(-80.629)" fill="#ffa412"/>
          <rect id="Rectángulo_42436" data-name="Rectángulo 42436" width="0.798" height="8.918" transform="translate(2.323 32.679) rotate(-80.627)" fill="#ffa412"/>
          <rect id="Rectángulo_42437" data-name="Rectángulo 42437" width="0.798" height="8.918" transform="translate(1.096 40.117) rotate(-80.629)" fill="#ffa412"/>
          <rect id="Rectángulo_42438" data-name="Rectángulo 42438" width="0.798" height="8.918" transform="translate(0 46.759) rotate(-80.629)" fill="#ffa412"/>
          <rect id="Rectángulo_42439" data-name="Rectángulo 42439" width="0.798" height="8.918" transform="translate(6.683 6.253) rotate(-80.627)" fill="#ffa412"/>
          <rect id="Rectángulo_42440" data-name="Rectángulo 42440" width="0.798" height="8.918" transform="matrix(0.163, -0.987, 0.987, 0.163, 6.96, 4.578)" fill="#ffa412"/>
          <rect id="Rectángulo_42441" data-name="Rectángulo 42441" width="0.798" height="8.918" transform="translate(7.227 2.959) rotate(-80.642)" fill="#ffa412"/>
          <path id="Trazado_200481" data-name="Trazado 200481" d="M1889.518,1160.706l8.8,1.447.081-.492a1.449,1.449,0,0,0,.018-.3l-8.739-1.437a1.481,1.481,0,0,0-.079.291Z" transform="translate(-1882.091 -1158.963)" fill="#ffa412"/>
          <path id="Trazado_200482" data-name="Trazado 200482" d="M1890.957,1156.129l8.542,1.4a1.77,1.77,0,0,0-.587-.9l-7.108-1.169A1.778,1.778,0,0,0,1890.957,1156.129Z" transform="translate(-1883.22 -1155.46)" fill="#ffa412"/>
        </g>
      </g>
      <g id="Grupo_138333" data-name="Grupo 138333" transform="translate(499.703 336.778)">
        <g id="Grupo_138329" data-name="Grupo 138329" transform="translate(7.493 88.449)">
          <path id="Trazado_200483" data-name="Trazado 200483" d="M1477.947,1456.6l-.009,5.036a2.123,2.123,0,0,1-.293,1.083,1.777,1.777,0,0,1-.8.724,1.439,1.439,0,0,1-.312.1,1.457,1.457,0,0,1-.3.03l-70.232-.167a1.825,1.825,0,0,1-1.694-1.845c0-.034,0-.067,0-.1l.009-5.037c0-.033,0-.066,0-.1a1.822,1.822,0,0,1,1.7-1.837l70.232.167a1.508,1.508,0,0,1,.61.132,1.773,1.773,0,0,1,.8.729A2.118,2.118,0,0,1,1477.947,1456.6Z" transform="translate(-1404.308 -1454.49)" fill="#ffb93e"/>
          <path id="Trazado_200484" data-name="Trazado 200484" d="M1443.447,1463.5l-37.625-.089a1.751,1.751,0,0,1-1.512-1.845c0-.033,0-.067,0-.1l.009-5.037c0-.033,0-.066,0-.1a1.748,1.748,0,0,1,1.518-1.837l33.005.078A16.622,16.622,0,0,0,1443.447,1463.5Z" transform="translate(-1404.308 -1454.488)" fill="#ffa412"/>
          <g id="Grupo_138328" data-name="Grupo 138328" transform="translate(25.797 0.058)">
            <rect id="Rectángulo_42442" data-name="Rectángulo 42442" width="8.918" height="0.798" transform="translate(38.483 9.009) rotate(-89.864)" fill="#ffa412"/>
            <rect id="Rectángulo_42443" data-name="Rectángulo 42443" width="8.918" height="0.798" transform="translate(35.781 9.003) rotate(-89.864)" fill="#ffa412"/>
            <rect id="Rectángulo_42444" data-name="Rectángulo 42444" width="8.918" height="0.798" transform="translate(32.539 8.995) rotate(-89.849)" fill="#ffa412"/>
            <rect id="Rectángulo_42445" data-name="Rectángulo 42445" width="8.918" height="0.798" transform="matrix(0.002, -1, 1, 0.002, 27.574, 8.984)" fill="#ffa412"/>
            <rect id="Rectángulo_42446" data-name="Rectángulo 42446" width="8.918" height="0.798" transform="translate(22.322 8.971) rotate(-89.864)" fill="#ffa412"/>
            <rect id="Rectángulo_42447" data-name="Rectángulo 42447" width="8.918" height="0.798" transform="translate(14.271 8.952) rotate(-89.864)" fill="#ffa412"/>
            <rect id="Rectángulo_42448" data-name="Rectángulo 42448" width="8.918" height="0.798" transform="translate(6.732 8.934) rotate(-89.864)" fill="#ffa412"/>
            <rect id="Rectángulo_42449" data-name="Rectángulo 42449" width="8.918" height="0.798" transform="matrix(0.003, -1, 1, 0.003, 0, 8.918)" fill="#ffa412"/>
            <rect id="Rectángulo_42450" data-name="Rectángulo 42450" width="8.918" height="0.798" transform="translate(41.055 9.016) rotate(-89.864)" fill="#ffa412"/>
            <rect id="Rectángulo_42451" data-name="Rectángulo 42451" width="8.918" height="0.798" transform="translate(42.755 9.02) rotate(-89.88)" fill="#ffa412"/>
            <rect id="Rectángulo_42452" data-name="Rectángulo 42452" width="8.918" height="0.798" transform="translate(44.395 9.024) rotate(-89.864)" fill="#ffa412"/>
            <path id="Trazado_200485" data-name="Trazado 200485" d="M1736.5,1455.26l-.016,8.918h.5a1.5,1.5,0,0,0,.3-.03l.016-8.856a1.47,1.47,0,0,0-.3-.032Z" transform="translate(-1690.85 -1455.152)" fill="#ffa412"/>
            <path id="Trazado_200486" data-name="Trazado 200486" d="M1741.658,1455.881l-.016,8.657a1.771,1.771,0,0,0,.8-.724l.013-7.2A1.773,1.773,0,0,0,1741.658,1455.881Z" transform="translate(-1694.901 -1455.639)" fill="#ffa412"/>
          </g>
        </g>
        <g id="Grupo_138331" data-name="Grupo 138331" transform="translate(0 79.513)">
          <path id="Trazado_200487" data-name="Trazado 200487" d="M1443.1,1415.046l-.009,5.036a2.123,2.123,0,0,1-.293,1.083,1.774,1.774,0,0,1-.8.724,1.44,1.44,0,0,1-.311.1,1.461,1.461,0,0,1-.3.031l-70.232-.167a1.825,1.825,0,0,1-1.694-1.845c0-.033,0-.067,0-.1l.009-5.037c0-.033,0-.066,0-.1a1.823,1.823,0,0,1,1.7-1.837l70.231.167c.045,0,.09,0,.134.007a.465.465,0,0,1,.057.007.636.636,0,0,1,.063.01l.045.009a1.46,1.46,0,0,1,.311.1l.044.021.043.021.085.047.049.031c.015.01.029.018.043.029s.054.037.08.058.059.049.087.074.044.04.066.062l0,0,.043.044a1.76,1.76,0,0,1,.123.145l.034.045.032.047c.022.032.043.066.063.1A2.115,2.115,0,0,1,1443.1,1415.046Z" transform="translate(-1369.463 -1412.934)" fill="#ffb93e"/>
          <path id="Trazado_200488" data-name="Trazado 200488" d="M1408.6,1421.94l-37.626-.09a1.75,1.75,0,0,1-1.512-1.845c0-.033,0-.066,0-.1l.009-5.037c0-.033,0-.066,0-.1a1.748,1.748,0,0,1,1.518-1.838l33,.079c.015.073.03.146.046.22A16.5,16.5,0,0,0,1408.6,1421.94Z" transform="translate(-1369.463 -1412.932)" fill="#ffa412"/>
          <g id="Grupo_138330" data-name="Grupo 138330" transform="translate(25.799 0.058)">
            <rect id="Rectángulo_42453" data-name="Rectángulo 42453" width="8.918" height="0.798" transform="translate(38.481 9.009) rotate(-89.866)" fill="#ffa412"/>
            <rect id="Rectángulo_42454" data-name="Rectángulo 42454" width="8.918" height="0.798" transform="matrix(0.002, -1, 1, 0.002, 35.779, 9.003)" fill="#ffa412"/>
            <rect id="Rectángulo_42455" data-name="Rectángulo 42455" width="8.918" height="0.798" transform="translate(32.539 8.995) rotate(-89.864)" fill="#ffa412"/>
            <rect id="Rectángulo_42456" data-name="Rectángulo 42456" width="8.918" height="0.798" transform="translate(27.572 8.983) rotate(-89.864)" fill="#ffa412"/>
            <rect id="Rectángulo_42457" data-name="Rectángulo 42457" width="8.918" height="0.798" transform="matrix(0.002, -1, 1, 0.002, 22.321, 8.971)" fill="#ffa412"/>
            <rect id="Rectángulo_42458" data-name="Rectángulo 42458" width="8.918" height="0.798" transform="translate(14.268 8.952) rotate(-89.85)" fill="#ffa412"/>
            <rect id="Rectángulo_42459" data-name="Rectángulo 42459" width="8.918" height="0.798" transform="translate(6.73 8.934) rotate(-89.864)" fill="#ffa412"/>
            <rect id="Rectángulo_42460" data-name="Rectángulo 42460" width="8.918" height="0.798" transform="matrix(0.002, -1, 1, 0.002, 0, 8.918)" fill="#ffa412"/>
            <rect id="Rectángulo_42461" data-name="Rectángulo 42461" width="8.918" height="0.798" transform="matrix(0.002, -1, 1, 0.002, 41.053, 9.016)" fill="#ffa412"/>
            <rect id="Rectángulo_42462" data-name="Rectángulo 42462" width="8.918" height="0.798" transform="translate(42.752 9.02) rotate(-89.864)" fill="#ffa412"/>
            <rect id="Rectángulo_42463" data-name="Rectángulo 42463" width="8.918" height="0.798" transform="translate(44.392 9.024) rotate(-89.864)" fill="#ffa412"/>
            <path id="Trazado_200489" data-name="Trazado 200489" d="M1701.652,1413.7l-.016,8.918h.5a1.457,1.457,0,0,0,.3-.031l.016-8.856a1.432,1.432,0,0,0-.3-.032Z" transform="translate(-1656.007 -1413.594)" fill="#ffa412"/>
            <path id="Trazado_200490" data-name="Trazado 200490" d="M1706.813,1414.324l-.016,8.656a1.769,1.769,0,0,0,.8-.724l.013-7.2A1.771,1.771,0,0,0,1706.813,1414.324Z" transform="translate(-1660.058 -1414.083)" fill="#ffa412"/>
          </g>
        </g>
        <path id="Trazado_200491" data-name="Trazado 200491" d="M1460.051,1374.635l-.009,5.036a2.118,2.118,0,0,1-.293,1.083,1.771,1.771,0,0,1-.8.724,1.52,1.52,0,0,1-.611.13l-70.231-.167a1.519,1.519,0,0,1-.783-.222,1.974,1.974,0,0,1-.905-1.537c0-.029-.005-.057-.006-.086s0-.067,0-.1l.009-5.036c0-.033,0-.066,0-.1a1.823,1.823,0,0,1,1.7-1.837l70.232.167a1.5,1.5,0,0,1,.3.032,1.445,1.445,0,0,1,.311.1,1.775,1.775,0,0,1,.8.728A2.125,2.125,0,0,1,1460.051,1374.635Z" transform="translate(-1382.767 -1301.699)" fill="#ffb93e"/>
        <path id="Trazado_200492" data-name="Trazado 200492" d="M1425.551,1381.529l-37.626-.089a1.248,1.248,0,0,1-.7-.222,2.018,2.018,0,0,1-.808-1.536c0-.029-.005-.058-.006-.087s0-.067,0-.1l.009-5.036c0-.033,0-.066,0-.1a1.748,1.748,0,0,1,1.518-1.837l33.005.078a16.79,16.79,0,0,0,4.374,8.709Q1425.434,1381.42,1425.551,1381.529Z" transform="translate(-1382.767 -1301.699)" fill="#ffa412"/>
        <path id="Trazado_200493" data-name="Trazado 200493" d="M1467.95,1333.18l-.009,5.036a2.12,2.12,0,0,1-.294,1.083,1.769,1.769,0,0,1-.8.724,1.426,1.426,0,0,1-.311.1,1.445,1.445,0,0,1-.3.031l-70.232-.167a1.825,1.825,0,0,1-1.694-1.845c0-.033,0-.067,0-.1l.01-5.036q0-.05,0-.1a1.859,1.859,0,0,1,1.5-1.824,1.415,1.415,0,0,1,.2-.013l70.232.167a1.5,1.5,0,0,1,.3.032,1.439,1.439,0,0,1,.311.1,1.774,1.774,0,0,1,.8.728A2.12,2.12,0,0,1,1467.95,1333.18Z" transform="translate(-1388.967 -1269.159)" fill="#ffb93e"/>
        <path id="Trazado_200494" data-name="Trazado 200494" d="M1433.449,1340.073l-37.626-.089a1.751,1.751,0,0,1-1.512-1.845c0-.033,0-.067,0-.1l.01-5.036c0-.033,0-.066,0-.1a1.815,1.815,0,0,1,1.339-1.824,1.135,1.135,0,0,1,.179-.014l33,.079a.118.118,0,0,1,0,.014A16.621,16.621,0,0,0,1433.449,1340.073Z" transform="translate(-1388.967 -1269.157)" fill="#ffa412"/>
        <path id="Trazado_200495" data-name="Trazado 200495" d="M1444.013,1291.714l-.009,5.036a2.119,2.119,0,0,1-.293,1.083,1.767,1.767,0,0,1-.8.724,1.442,1.442,0,0,1-.311.1c-.033.006-.066.012-.1.017l-.055.006-.055,0c-.03,0-.06,0-.09,0l-70.232-.167a1.826,1.826,0,0,1-1.694-1.845c0-.033,0-.067,0-.1l.009-5.036c0-.033,0-.067,0-.1s0-.055,0-.082a1.894,1.894,0,0,1,1.277-1.7l.052-.014a1.485,1.485,0,0,1,.367-.045l70.232.167c.052,0,.1,0,.152.008l.068.009h0l.079.015a1.445,1.445,0,0,1,.311.1,1.771,1.771,0,0,1,.8.729A2.116,2.116,0,0,1,1444.013,1291.714Z" transform="translate(-1370.178 -1236.61)" fill="#ffb93e"/>
        <path id="Trazado_200496" data-name="Trazado 200496" d="M1409.513,1298.608l-37.626-.089a1.752,1.752,0,0,1-1.512-1.845c0-.033,0-.067,0-.1l.009-5.036c0-.033,0-.067,0-.1s0-.055,0-.082a1.857,1.857,0,0,1,1.18-1.708.486.486,0,0,1,.065-.017,1.164,1.164,0,0,1,.268-.031l33.005.078c0,.022.009.042.013.064a16.6,16.6,0,0,0,4.576,8.852Z" transform="translate(-1370.178 -1236.609)" fill="#ffa412"/>
        <path id="Trazado_200497" data-name="Trazado 200497" d="M1443.4,1250.534l-.009,5.036a2.114,2.114,0,0,1-.293,1.083,1.77,1.77,0,0,1-.8.725,1.389,1.389,0,0,1-.242.083h0c-.023.006-.044.012-.067.016a1.45,1.45,0,0,1-.3.03l-70.232-.167a1.352,1.352,0,0,1-.22-.018.747.747,0,0,1-.083-.015,1.881,1.881,0,0,1-1.391-1.812c0-.034,0-.067,0-.1l.009-5.037c0-.034,0-.067,0-.1a1.823,1.823,0,0,1,1.7-1.838l70.232.167c.045,0,.09,0,.134.006l.057.007a.615.615,0,0,1,.063.01l.045.009a1.411,1.411,0,0,1,.311.1l.044.02.043.021.085.047c.031.02.062.038.092.061s.053.038.08.058.059.048.087.074.044.04.066.061l0,0c.014.014.029.029.043.044a1.751,1.751,0,0,1,.123.145c.012.015.023.03.034.045l.032.047c.022.032.043.066.063.1A2.115,2.115,0,0,1,1443.4,1250.534Z" transform="translate(-1369.698 -1204.284)" fill="#ffb93e"/>
        <path id="Trazado_200498" data-name="Trazado 200498" d="M1408.9,1257.428l-37.626-.089-.089,0a.926.926,0,0,1-.1-.012,1.819,1.819,0,0,1-1.325-1.829c0-.034,0-.067,0-.1l.009-5.036c0-.034,0-.067,0-.1a1.748,1.748,0,0,1,1.518-1.838l33,.078c.015.073.03.146.046.22a16.552,16.552,0,0,0,4.492,8.646Z" transform="translate(-1369.698 -1204.283)" fill="#ffa412"/>
        <path id="Trazado_200499" data-name="Trazado 200499" d="M1460.35,1210.123l-.009,5.036a2.125,2.125,0,0,1-.293,1.083,1.772,1.772,0,0,1-.8.724,1.51,1.51,0,0,1-.611.13l-70.232-.167a1.516,1.516,0,0,1-.783-.222,1.975,1.975,0,0,1-.906-1.536c0-.029,0-.058-.005-.087s0-.067,0-.1l.009-5.036q0-.05,0-.1a1.822,1.822,0,0,1,1.7-1.837l70.231.167a1.517,1.517,0,0,1,.61.132,1.772,1.772,0,0,1,.8.728A2.121,2.121,0,0,1,1460.35,1210.123Z" transform="translate(-1383.002 -1172.564)" fill="#ffb93e"/>
        <path id="Trazado_200500" data-name="Trazado 200500" d="M1425.85,1217.016l-37.626-.089a1.248,1.248,0,0,1-.7-.222,2.019,2.019,0,0,1-.808-1.536c0-.029,0-.058-.005-.087s0-.066,0-.1l.009-5.036c0-.034,0-.067,0-.1a1.748,1.748,0,0,1,1.518-1.838l33.005.078a16.793,16.793,0,0,0,4.373,8.709Q1425.733,1216.908,1425.85,1217.016Z" transform="translate(-1383.002 -1172.562)" fill="#ffa412"/>
        <path id="Trazado_200501" data-name="Trazado 200501" d="M1487.116,1168.713l-.009,5.036a2.122,2.122,0,0,1-.293,1.083,1.772,1.772,0,0,1-.8.724,1.515,1.515,0,0,1-.611.13l-70.232-.167a1.825,1.825,0,0,1-1.694-1.845c0-.033,0-.066,0-.1l.009-5.036c0-.033,0-.066,0-.1a1.86,1.86,0,0,1,1.5-1.824,1.425,1.425,0,0,1,.2-.013l70.232.167a1.511,1.511,0,0,1,.61.132,1.775,1.775,0,0,1,.8.729A2.12,2.12,0,0,1,1487.116,1168.713Z" transform="translate(-1404.013 -1140.058)" fill="#ffb93e"/>
        <path id="Trazado_200502" data-name="Trazado 200502" d="M1452.616,1175.606l-37.625-.089a1.751,1.751,0,0,1-1.512-1.845c0-.033,0-.066,0-.1l.009-5.036c0-.033,0-.067,0-.1a1.816,1.816,0,0,1,1.339-1.824,1.086,1.086,0,0,1,.18-.013l33.005.078a.113.113,0,0,0,0,.014A16.612,16.612,0,0,0,1452.616,1175.606Z" transform="translate(-1404.013 -1140.056)" fill="#ffa412"/>
        <path id="Trazado_200503" data-name="Trazado 200503" d="M1444.312,1127.2l-.009,5.036a2.117,2.117,0,0,1-.293,1.083,1.773,1.773,0,0,1-.8.725,1.435,1.435,0,0,1-.311.1c-.033.006-.066.012-.1.017s-.053.006-.079.008l-.039,0-.083,0-70.232-.167a1.825,1.825,0,0,1-1.694-1.845c0-.033,0-.067,0-.1l.009-5.036c0-.033,0-.066,0-.1a1.823,1.823,0,0,1,1.7-1.837l70.231.167c.03,0,.06,0,.09,0a1.472,1.472,0,0,1,.21.028,1.448,1.448,0,0,1,.311.1,1.493,1.493,0,0,1,.147.076c.03.017.059.035.087.054a.024.024,0,0,1,.01.006c.029.02.057.04.085.061a.105.105,0,0,1,.014.011.881.881,0,0,1,.075.064,1.524,1.524,0,0,1,.169.169.7.7,0,0,1,.047.057.047.047,0,0,1,.009.011.376.376,0,0,1,.029.036l.005.008c.017.022.034.046.05.071s.046.069.067.105A2.117,2.117,0,0,1,1444.312,1127.2Z" transform="translate(-1370.412 -1107.474)" fill="#ffb93e"/>
        <path id="Trazado_200504" data-name="Trazado 200504" d="M1409.812,1134.1l-37.625-.089a1.751,1.751,0,0,1-1.512-1.845c0-.033,0-.066,0-.1l.009-5.036c0-.033,0-.066,0-.1a1.749,1.749,0,0,1,1.519-1.838l33,.078c.013.068.027.136.043.206a16.51,16.51,0,0,0,4.546,8.709Z" transform="translate(-1370.412 -1107.471)" fill="#ffa412"/>
        <path id="Trazado_200505" data-name="Trazado 200505" d="M1468.4,1086.744l-.009,5.037a2.117,2.117,0,0,1-.293,1.083,1.769,1.769,0,0,1-.8.724,1.44,1.44,0,0,1-.311.1,1.456,1.456,0,0,1-.3.031l-70.231-.167a1.511,1.511,0,0,1-.759-.207,1.967,1.967,0,0,1-.931-1.558c0-.026,0-.053,0-.08s0-.066,0-.1l.009-5.036c0-.034,0-.067,0-.1a1.859,1.859,0,0,1,1.5-1.824,1.351,1.351,0,0,1,.2-.013l70.231.167a1.514,1.514,0,0,1,.61.132,1.778,1.778,0,0,1,.8.729A2.118,2.118,0,0,1,1468.4,1086.744Z" transform="translate(-1389.319 -1075.715)" fill="#ffb93e"/>
        <path id="Trazado_200506" data-name="Trazado 200506" d="M1433.9,1093.638l-37.626-.09a1.234,1.234,0,0,1-.677-.208,2.011,2.011,0,0,1-.83-1.557c0-.026,0-.053,0-.08s0-.066,0-.1l.009-5.036c0-.034,0-.067,0-.1a1.816,1.816,0,0,1,1.339-1.824,1.1,1.1,0,0,1,.18-.014l33,.078,0,.014a16.769,16.769,0,0,0,4.386,8.709C1433.753,1093.5,1433.826,1093.57,1433.9,1093.638Z" transform="translate(-1389.319 -1075.714)" fill="#ffa412"/>
        <path id="Trazado_200507" data-name="Trazado 200507" d="M1444.461,1045.277l-.009,5.037a2.119,2.119,0,0,1-.293,1.083,1.771,1.771,0,0,1-.8.725,1.418,1.418,0,0,1-.311.1c-.033.006-.066.013-.1.017l-.055.006-.055,0c-.03,0-.06,0-.09,0l-70.232-.167a1.825,1.825,0,0,1-1.694-1.845c0-.034,0-.067,0-.1l.009-5.036c0-.033,0-.067,0-.1a1.823,1.823,0,0,1,1.7-1.837l70.232.167a1.477,1.477,0,0,1,.3.032,1.448,1.448,0,0,1,.311.1,1.773,1.773,0,0,1,.8.728A2.12,2.12,0,0,1,1444.461,1045.277Z" transform="translate(-1370.53 -1043.166)" fill="#ffb93e"/>
        <path id="Trazado_200508" data-name="Trazado 200508" d="M1409.961,1052.172l-37.626-.089a1.751,1.751,0,0,1-1.512-1.845c0-.033,0-.067,0-.1l.009-5.036c0-.033,0-.067,0-.1a1.748,1.748,0,0,1,1.518-1.837l33.006.078a16.627,16.627,0,0,0,4.589,8.915Z" transform="translate(-1370.53 -1043.164)" fill="#ffa412"/>
        <g id="Grupo_138332" data-name="Grupo 138332" transform="translate(25.865 0.058)">
          <rect id="Rectángulo_42464" data-name="Rectángulo 42464" width="8.918" height="0.798" transform="translate(42.06 79.832) rotate(-89.864)" fill="#ffa412"/>
          <rect id="Rectángulo_42465" data-name="Rectángulo 42465" width="8.918" height="0.798" transform="translate(39.359 79.826) rotate(-89.88)" fill="#ffa412"/>
          <rect id="Rectángulo_42466" data-name="Rectángulo 42466" width="8.918" height="0.798" transform="matrix(0.002, -1, 1, 0.002, 36.119, 79.818)" fill="#ffa412"/>
          <rect id="Rectángulo_42467" data-name="Rectángulo 42467" width="8.918" height="0.798" transform="translate(31.151 79.806) rotate(-89.864)" fill="#ffa412"/>
          <rect id="Rectángulo_42468" data-name="Rectángulo 42468" width="8.918" height="0.798" transform="translate(25.899 79.794) rotate(-89.864)" fill="#ffa412"/>
          <rect id="Rectángulo_42469" data-name="Rectángulo 42469" width="8.918" height="0.798" transform="translate(17.848 79.775) rotate(-89.864)" fill="#ffa412"/>
          <rect id="Rectángulo_42470" data-name="Rectángulo 42470" width="8.918" height="0.798" transform="translate(10.31 79.757) rotate(-89.88)" fill="#ffa412"/>
          <rect id="Rectángulo_42471" data-name="Rectángulo 42471" width="8.918" height="0.798" transform="translate(3.578 79.741) rotate(-89.864)" fill="#ffa412"/>
          <rect id="Rectángulo_42472" data-name="Rectángulo 42472" width="8.918" height="0.798" transform="translate(44.632 79.838) rotate(-89.864)" fill="#ffa412"/>
          <rect id="Rectángulo_42473" data-name="Rectángulo 42473" width="8.918" height="0.798" transform="translate(46.332 79.843) rotate(-89.88)" fill="#ffa412"/>
          <rect id="Rectángulo_42474" data-name="Rectángulo 42474" width="8.918" height="0.798" transform="translate(47.971 79.846) rotate(-89.864)" fill="#ffa412"/>
          <path id="Trazado_200509" data-name="Trazado 200509" d="M1718.6,1373.292l-.016,8.918h.5a1.469,1.469,0,0,0,.3-.031l.016-8.856a1.493,1.493,0,0,0-.3-.032Z" transform="translate(-1669.377 -1302.361)" fill="#ffa412"/>
          <path id="Trazado_200510" data-name="Trazado 200510" d="M1723.761,1373.913l-.015,8.656a1.774,1.774,0,0,0,.8-.724l.013-7.2A1.774,1.774,0,0,0,1723.761,1373.913Z" transform="translate(-1673.428 -1302.849)" fill="#ffa412"/>
          <rect id="Rectángulo_42475" data-name="Rectángulo 42475" width="8.918" height="0.798" transform="translate(19.546 70.86) rotate(-89.864)" fill="#ffa412"/>
          <rect id="Rectángulo_42476" data-name="Rectángulo 42476" width="8.918" height="0.798" transform="matrix(0.002, -1, 1, 0.002, 12.008, 70.842)" fill="#ffa412"/>
          <rect id="Rectángulo_42477" data-name="Rectángulo 42477" width="8.918" height="0.798" transform="translate(5.276 70.827) rotate(-89.864)" fill="#ffa412"/>
          <path id="Trazado_200511" data-name="Trazado 200511" d="M1703.438,1244.128l.016-8.918-.7,0c.037,0,.074-.01.111-.017l.016-8.856c-.049-.01-.1-.018-.148-.023l.016-8.642h.311l-.016,8.567a1.771,1.771,0,0,0,.8-.724l.013-7.2a1.809,1.809,0,0,0-.632-.638h.279l.016-8.918-.8,0-.016,8.722a1.452,1.452,0,0,0-.255-.025h-.5l-.016,8.918h.148l-.016,8.854h.5c.031,0,.061,0,.091,0l-.016,8.909Z" transform="translate(-1656.307 -1173.202)" fill="#ffa412"/>
          <rect id="Rectángulo_42478" data-name="Rectángulo 42478" width="8.918" height="0.798" transform="translate(48.029 70.928) rotate(-89.864)" fill="#ffa412"/>
          <rect id="Rectángulo_42479" data-name="Rectángulo 42479" width="8.918" height="0.798" transform="translate(49.669 70.932) rotate(-89.85)" fill="#ffa412"/>
          <path id="Trazado_200512" data-name="Trazado 200512" d="M1726.5,1331.836l-.016,8.918h.5a1.445,1.445,0,0,0,.3-.031l.016-8.856a1.463,1.463,0,0,0-.3-.032Z" transform="translate(-1675.577 -1269.82)" fill="#ffa412"/>
          <path id="Trazado_200513" data-name="Trazado 200513" d="M1731.66,1332.457l-.016,8.656a1.769,1.769,0,0,0,.8-.724l.013-7.2A1.774,1.774,0,0,0,1731.66,1332.457Z" transform="translate(-1679.628 -1270.307)" fill="#ffa412"/>
          <path id="Trazado_200514" data-name="Trazado 200514" d="M1667.211,1266.889l.016-8.918h-.148l.016-8.854-.8,0-.016,8.918h.148l-.016,8.84-.779,0-.016,8.918.8,0,.016-8.9Z" transform="translate(-1627.8 -1204.886)" fill="#ffa412"/>
          <path id="Trazado_200515" data-name="Trazado 200515" d="M1642.016,1257.905h-.148l.016-8.854-.8,0-.016,8.918h.148l-.016,8.855h.2l-.016,8.9.8,0,.016-8.918h-.2Z" transform="translate(-1608.53 -1204.835)" fill="#ffa412"/>
          <path id="Trazado_200516" data-name="Trazado 200516" d="M1707.723,1290.991l-.016,8.657a1.774,1.774,0,0,0,.8-.725l.013-7.2A1.772,1.772,0,0,0,1707.723,1290.991Z" transform="translate(-1660.838 -1237.758)" fill="#ffa412"/>
          <path id="Trazado_200517" data-name="Trazado 200517" d="M1618.788,1249l-.8,0-.016,8.918h.148l-.016,8.841h-.088l-.016,8.918.8,0,.016-8.9h.088l.016-8.918h-.147Z" transform="translate(-1590.4 -1204.791)" fill="#ffa412"/>
          <path id="Trazado_200518" data-name="Trazado 200518" d="M1594.364,1248.938l-.8,0-.016,8.918h.148l-.016,8.854.8,0,.016-8.919h-.148Z" transform="translate(-1571.229 -1204.745)" fill="#ffa412"/>
          <path id="Trazado_200519" data-name="Trazado 200519" d="M1556.922,1248.849h-.8l-.016,8.918h.148l-.016,8.854.8,0,.016-8.918h-.148Z" transform="translate(-1541.837 -1204.677)" fill="#ffa412"/>
          <path id="Trazado_200520" data-name="Trazado 200520" d="M1521.865,1248.765l-.8,0-.016,8.918h.148l-.016,8.855.8,0,.016-8.918h-.148Z" transform="translate(-1514.319 -1204.61)" fill="#ffa412"/>
          <path id="Trazado_200521" data-name="Trazado 200521" d="M1490.561,1248.691l-.8,0-.016,8.918h.148l-.016,8.855.8,0,.016-8.918h-.147Z" transform="translate(-1489.746 -1204.552)" fill="#ffa412"/>
          <path id="Trazado_200522" data-name="Trazado 200522" d="M1681.479,1249.145l-.8,0-.016,8.918h.147l-.016,8.841h-.11l-.017,8.918.8,0,.016-8.9h.111l.016-8.918h-.148Z" transform="translate(-1639.61 -1204.909)" fill="#ffa412"/>
          <path id="Trazado_200523" data-name="Trazado 200523" d="M1687.093,1217.406l-.642,0,.016-8.7-.8,0-.016,8.918h.642l-.016,8.7h.148l-.016,8.854.8,0,.016-8.918h-.148Z" transform="translate(-1643.526 -1173.165)" fill="#ffa412"/>
          <rect id="Rectángulo_42480" data-name="Rectángulo 42480" width="8.918" height="0.798" transform="translate(39.422 44.451) rotate(-89.864)" fill="#ffa412"/>
          <path id="Trazado_200524" data-name="Trazado 200524" d="M1656.543,1217.337h-.389l-.016,8.919h.147l-.016,8.855.8,0,.016-8.918h-.148l.016-8.635h.389l.016-8.918-.8,0Z" transform="translate(-1620.359 -1173.114)" fill="#ffa412"/>
          <rect id="Rectángulo_42481" data-name="Rectángulo 42481" width="8.918" height="0.798" transform="translate(31.214 44.431) rotate(-89.849)" fill="#ffa412"/>
          <rect id="Rectángulo_42482" data-name="Rectángulo 42482" width="8.918" height="0.798" transform="translate(25.963 44.419) rotate(-89.864)" fill="#ffa412"/>
          <rect id="Rectángulo_42483" data-name="Rectángulo 42483" width="8.918" height="0.798" transform="translate(17.912 44.4) rotate(-89.866)" fill="#ffa412"/>
          <rect id="Rectángulo_42484" data-name="Rectángulo 42484" width="8.918" height="0.798" transform="matrix(0.002, -1, 1, 0.002, 10.375, 44.382)" fill="#ffa412"/>
          <rect id="Rectángulo_42485" data-name="Rectángulo 42485" width="8.918" height="0.798" transform="translate(3.642 44.366) rotate(-89.864)" fill="#ffa412"/>
          <path id="Trazado_200525" data-name="Trazado 200525" d="M1694.19,1217.431h-.289l-.016,8.918h.148l-.016,8.841-.748,0-.016,8.918.8,0,.016-8.9.749,0,.016-8.918h-.148l.016-8.634h.289l.016-8.918-.8,0Z" transform="translate(-1649.491 -1173.188)" fill="#ffa412"/>
          <rect id="Rectángulo_42486" data-name="Rectángulo 42486" width="8.918" height="0.798" transform="translate(48.036 44.471) rotate(-89.864)" fill="#ffa412"/>
          <path id="Trazado_200526" data-name="Trazado 200526" d="M1719.683,1217.67l.016-8.856a1.48,1.48,0,0,0-.3-.032h-.5l-.016,8.919h.5A1.46,1.46,0,0,0,1719.683,1217.67Z" transform="translate(-1669.612 -1173.226)" fill="#ffa412"/>
          <path id="Trazado_200527" data-name="Trazado 200527" d="M1724.844,1217.334l.013-7.2a1.776,1.776,0,0,0-.8-.728l-.016,8.657A1.77,1.77,0,0,0,1724.844,1217.334Z" transform="translate(-1673.663 -1173.713)" fill="#ffa412"/>
          <rect id="Rectángulo_42487" data-name="Rectángulo 42487" width="8.918" height="0.798" transform="translate(47.88 35.552) rotate(-89.864)" fill="#ffa412"/>
          <rect id="Rectángulo_42488" data-name="Rectángulo 42488" width="8.918" height="0.798" transform="translate(36.971 35.526) rotate(-89.864)" fill="#ffa412"/>
          <rect id="Rectángulo_42489" data-name="Rectángulo 42489" width="8.918" height="0.798" transform="translate(31.719 35.514) rotate(-89.864)" fill="#ffa412"/>
          <rect id="Rectángulo_42490" data-name="Rectángulo 42490" width="8.918" height="0.798" transform="translate(23.668 35.495) rotate(-89.864)" fill="#ffa412"/>
          <rect id="Rectángulo_42491" data-name="Rectángulo 42491" width="8.918" height="0.798" transform="translate(16.129 35.477) rotate(-89.864)" fill="#ffa412"/>
          <rect id="Rectángulo_42492" data-name="Rectángulo 42492" width="8.918" height="0.798" transform="translate(9.399 35.461) rotate(-89.88)" fill="#ffa412"/>
          <rect id="Rectángulo_42493" data-name="Rectángulo 42493" width="8.918" height="0.798" transform="translate(50.452 35.558) rotate(-89.864)" fill="#ffa412"/>
          <rect id="Rectángulo_42494" data-name="Rectángulo 42494" width="8.918" height="0.798" transform="translate(52.151 35.562) rotate(-89.864)" fill="#ffa412"/>
          <rect id="Rectángulo_42495" data-name="Rectángulo 42495" width="8.918" height="0.798" transform="matrix(0.002, -1, 1, 0.002, 53.792, 35.566)" fill="#ffa412"/>
          <path id="Trazado_200528" data-name="Trazado 200528" d="M1745.668,1167.371l-.016,8.918h.5a1.426,1.426,0,0,0,.3-.03l.016-8.856a1.487,1.487,0,0,0-.3-.032Z" transform="translate(-1690.624 -1140.72)" fill="#ffa412"/>
          <path id="Trazado_200529" data-name="Trazado 200529" d="M1750.829,1167.991l-.016,8.657a1.776,1.776,0,0,0,.8-.725l.013-7.2A1.775,1.775,0,0,0,1750.829,1167.991Z" transform="translate(-1694.675 -1141.207)" fill="#ffa412"/>
          <path id="Trazado_200530" data-name="Trazado 200530" d="M1666.83,1070.393l.8,0,.016-8.918-.779,0,.016-8.7.779,0,.016-8.918-.8,0-.016,8.9-.779,0-.016,8.919.779,0Z" transform="translate(-1628.152 -1043.767)" fill="#ffa412"/>
          <rect id="Rectángulo_42496" data-name="Rectángulo 42496" width="8.918" height="0.798" transform="translate(35.972 26.619) rotate(-89.849)" fill="#ffa412"/>
          <rect id="Rectángulo_42497" data-name="Rectángulo 42497" width="8.918" height="0.798" transform="translate(22.515 26.588) rotate(-89.864)" fill="#ffa412"/>
          <rect id="Rectángulo_42498" data-name="Rectángulo 42498" width="8.918" height="0.798" transform="matrix(0.002, -1, 1, 0.002, 14.464, 26.569)" fill="#ffa412"/>
          <rect id="Rectángulo_42499" data-name="Rectángulo 42499" width="8.918" height="0.798" transform="translate(6.925 26.551) rotate(-89.864)" fill="#ffa412"/>
          <rect id="Rectángulo_42500" data-name="Rectángulo 42500" width="8.918" height="0.798" transform="translate(0.194 26.535) rotate(-89.866)" fill="#ffa412"/>
          <path id="Trazado_200531" data-name="Trazado 200531" d="M1681.23,1070.421l.707,0-.016,8.9.8,0,.017-8.918-.707,0,.016-8.9h-.11l.016-8.7h.11l.016-8.918-.8,0-.016,8.9h-.11l-.016,8.918h.11Z" transform="translate(-1639.98 -1043.789)" fill="#ffa412"/>
          <rect id="Rectángulo_42501" data-name="Rectángulo 42501" width="8.918" height="0.798" transform="translate(42.949 26.636) rotate(-89.895)" fill="#ffa412"/>
          <path id="Trazado_200532" data-name="Trazado 200532" d="M1696.93,1061.751h.141l.016-8.918h-.7c.037-.005.075-.01.111-.017l.016-8.856a1.448,1.448,0,0,0-.3-.032h-.5l-.016,8.918h.5c.031,0,.061,0,.09,0l-.016,8.708c-.03,0-.06-.005-.091-.005h-.5l-.016,8.9h-.436l.016-8.9h-.748l.016-8.7.748,0,.017-8.918-.8,0-.016,8.9-.748,0-.016,8.918.749,0-.016,8.712.607,0-.016,8.9.8,0,.016-8.9h.328a1.468,1.468,0,0,0,.3-.031l.016-8.681h.31l-.015,8.581a1.77,1.77,0,0,0,.8-.725l.013-7.2A1.8,1.8,0,0,0,1696.93,1061.751Z" transform="translate(-1649.843 -1043.818)" fill="#ffa412"/>
          <rect id="Rectángulo_42502" data-name="Rectángulo 42502" width="8.918" height="0.798" transform="translate(19.644 17.868) rotate(-89.88)" fill="#ffa412"/>
          <rect id="Rectángulo_42503" data-name="Rectángulo 42503" width="8.918" height="0.798" transform="translate(12.104 17.851) rotate(-89.864)" fill="#ffa412"/>
          <rect id="Rectángulo_42504" data-name="Rectángulo 42504" width="8.918" height="0.798" transform="translate(5.373 17.835) rotate(-89.864)" fill="#ffa412"/>
          <rect id="Rectángulo_42505" data-name="Rectángulo 42505" width="8.918" height="0.798" transform="matrix(0.002, -1, 1, 0.002, 48.126, 17.936)" fill="#ffa412"/>
          <rect id="Rectángulo_42506" data-name="Rectángulo 42506" width="8.918" height="0.798" transform="translate(49.766 17.94) rotate(-89.864)" fill="#ffa412"/>
          <path id="Trazado_200533" data-name="Trazado 200533" d="M1726.949,1085.4l-.016,8.918h.5a1.474,1.474,0,0,0,.3-.031l.016-8.856a1.458,1.458,0,0,0-.3-.032Z" transform="translate(-1675.93 -1076.376)" fill="#ffa412"/>
          <path id="Trazado_200534" data-name="Trazado 200534" d="M1732.892,1093.954l.013-7.2a1.774,1.774,0,0,0-.8-.728l-.016,8.656A1.773,1.773,0,0,0,1732.892,1093.954Z" transform="translate(-1679.98 -1076.864)" fill="#ffa412"/>
          <rect id="Rectángulo_42507" data-name="Rectángulo 42507" width="8.918" height="0.798" transform="translate(36.005 9.003) rotate(-89.864)" fill="#ffa412"/>
          <path id="Trazado_200535" data-name="Trazado 200535" d="M1642.828,1043.795l-.8,0-.016,8.918h.2l-.016,8.7h-.2l-.016,8.918.8,0,.016-8.713h.2l.016-8.918h-.2Z" transform="translate(-1609.245 -1043.716)" fill="#ffa412"/>
          <path id="Trazado_200536" data-name="Trazado 200536" d="M1618.652,1052.641h-.089l-.016,8.918h.088l-.016,8.713.8,0,.016-8.918h-.088l.016-8.7h.089l.016-8.918-.8,0Z" transform="translate(-1590.851 -1043.672)" fill="#ffa412"/>
          <rect id="Rectángulo_42508" data-name="Rectángulo 42508" width="8.918" height="0.798" transform="translate(22.547 8.971) rotate(-89.864)" fill="#ffa412"/>
          <rect id="Rectángulo_42509" data-name="Rectángulo 42509" width="8.918" height="0.798" transform="translate(14.496 8.952) rotate(-89.864)" fill="#ffa412"/>
          <rect id="Rectángulo_42510" data-name="Rectángulo 42510" width="8.918" height="0.798" transform="translate(6.956 8.934) rotate(-89.85)" fill="#ffa412"/>
          <rect id="Rectángulo_42511" data-name="Rectángulo 42511" width="8.918" height="0.798" transform="matrix(0.002, -1, 1, 0.002, 0.227, 8.918)" fill="#ffa412"/>
          <rect id="Rectángulo_42512" data-name="Rectángulo 42512" width="8.918" height="0.798" transform="translate(42.977 9.019) rotate(-89.849)" fill="#ffa412"/>
          <path id="Trazado_200537" data-name="Trazado 200537" d="M1708.172,1044.557l-.016,8.656a1.774,1.774,0,0,0,.8-.725l.013-7.2A1.769,1.769,0,0,0,1708.172,1044.557Z" transform="translate(-1661.191 -1044.315)" fill="#ffa412"/>
        </g>
      </g>
      <g id="Grupo_138335" data-name="Grupo 138335" transform="translate(581.37 360.819)">
        <path id="Trazado_200538" data-name="Trazado 200538" d="M1763.931,1155l4.959.88a2.122,2.122,0,0,1,1.016.476,1.773,1.773,0,0,1,.576.912,1.425,1.425,0,0,1,.043.324,1.456,1.456,0,0,1-.022.3l-12.319,69.143a1.824,1.824,0,0,1-2.11,1.349l-.1-.015-4.959-.881-.1-.019a1.823,1.823,0,0,1-1.515-1.993l12.319-69.143c.008-.045.018-.089.03-.131,0-.018.01-.037.016-.055s.013-.041.021-.061.01-.028.016-.043a1.453,1.453,0,0,1,.153-.288c.009-.014.018-.026.028-.04l.029-.039c.02-.025.041-.051.062-.075l.039-.043c.012-.013.023-.026.036-.037s.047-.046.071-.069.058-.05.088-.073.047-.037.072-.054l.005,0,.051-.034a1.744,1.744,0,0,1,.164-.1l.05-.026.052-.024c.035-.016.072-.031.108-.045A2.119,2.119,0,0,1,1763.931,1155Z" transform="translate(-1749.353 -1154.968)" fill="#ffb93e"/>
        <path id="Trazado_200539" data-name="Trazado 200539" d="M1764.652,1318.7l-6.6,37.043a1.75,1.75,0,0,1-2.078,1.169l-.1-.016-4.959-.881-.1-.019a1.749,1.749,0,0,1-1.547-1.814l5.789-32.492.224-.007A16.5,16.5,0,0,0,1764.652,1318.7Z" transform="translate(-1749.253 -1283.489)" fill="#ffa412"/>
        <g id="Grupo_138334" data-name="Grupo 138334" transform="translate(4.279 0.132)">
          <rect id="Rectángulo_42513" data-name="Rectángulo 42513" width="0.798" height="8.918" transform="translate(6.75 8.759) rotate(-79.879)" fill="#ffa412"/>
          <rect id="Rectángulo_42514" data-name="Rectángulo 42514" width="0.798" height="8.918" transform="matrix(0.175, -0.985, 0.985, 0.175, 6.276, 11.421)" fill="#ffa412"/>
          <rect id="Rectángulo_42515" data-name="Rectángulo 42515" width="0.798" height="8.918" transform="translate(5.708 14.61) rotate(-79.896)" fill="#ffa412"/>
          <rect id="Rectángulo_42516" data-name="Rectángulo 42516" width="0.798" height="8.918" transform="translate(4.836 19.5) rotate(-79.896)" fill="#ffa412"/>
          <rect id="Rectángulo_42517" data-name="Rectángulo 42517" width="0.798" height="8.918" transform="matrix(0.175, -0.985, 0.985, 0.175, 3.915, 24.671)" fill="#ffa412"/>
          <rect id="Rectángulo_42518" data-name="Rectángulo 42518" width="0.798" height="8.918" transform="translate(2.503 32.597) rotate(-79.894)" fill="#ffa412"/>
          <rect id="Rectángulo_42519" data-name="Rectángulo 42519" width="0.798" height="8.918" transform="matrix(0.175, -0.985, 0.985, 0.175, 1.181, 40.019)" fill="#ffa412"/>
          <rect id="Rectángulo_42520" data-name="Rectángulo 42520" width="0.798" height="8.918" transform="translate(0 46.644) rotate(-79.882)" fill="#ffa412"/>
          <rect id="Rectángulo_42521" data-name="Rectángulo 42521" width="0.798" height="8.918" transform="translate(7.201 6.228) rotate(-79.896)" fill="#ffa412"/>
          <rect id="Rectángulo_42522" data-name="Rectángulo 42522" width="0.798" height="8.918" transform="translate(7.499 4.555) rotate(-79.894)" fill="#ffa412"/>
          <rect id="Rectángulo_42523" data-name="Rectángulo 42523" width="0.798" height="8.918" transform="translate(7.787 2.94) rotate(-79.896)" fill="#ffa412"/>
          <path id="Trazado_200540" data-name="Trazado 200540" d="M1806.369,1160.763l8.781,1.559.087-.491a1.432,1.432,0,0,0,.022-.3l-8.72-1.549a1.479,1.479,0,0,0-.083.29Z" transform="translate(-1798.366 -1159.036)" fill="#ffa412"/>
          <path id="Trazado_200541" data-name="Trazado 200541" d="M1807.873,1156.238l8.523,1.514a1.77,1.77,0,0,0-.575-.912l-7.093-1.26A1.777,1.777,0,0,0,1807.873,1156.238Z" transform="translate(-1799.547 -1155.58)" fill="#ffa412"/>
        </g>
      </g>
      <path id="Trazado_200542" data-name="Trazado 200542" d="M2483.532,1374.072h-30.18c-1.618-1.371,1.119-4.487,3.978-4.7a17.62,17.62,0,0,1,4.607.545c.416-5.516,2.788-30.314,11.726-29.318,10.05,1.115,0,10.92-2.841,16.726a138.152,138.152,0,0,0-5.339,13.375c.816.177,1.66.35,2.523.509,1.333-4.09,6.289-17.848,12.593-17.047,7.4.939,4.426,6.455-.82,9.729-3.849,2.408-8.574,5.831-10.819,7.484a32.1,32.1,0,0,0,5.9.473C2480.031,1371.729,2482.554,1373.252,2483.532,1374.072Z" transform="translate(-1720.198 -939.842)" fill="#afe684"/>
      <path id="Trazado_200543" data-name="Trazado 200543" d="M722.065,1410.833c-1.2-1.883-4.806-6.77-9.611-6.123-5.235.7,5.782,4.156,9.155,6.138a5.6,5.6,0,0,1-1.866-.218c-2.255-.8-6.117.738-7.351,1.278h21.467a3.4,3.4,0,0,0-1.535-1.963,3.833,3.833,0,0,0-1.975-.176c1.276-1.5,2.163-6.311-1.391-5.074-2.6.9-2.589,3.841-2.334,5.578-.552.087-1.113.174-1.666.254-1.069-5.447-4.849-21.411-12.511-21.837-7.768-.431,6.587,16.556,11.366,21.989C723.2,1410.752,722.61,1410.808,722.065,1410.833Z" transform="translate(-352.249 -977.606)" fill="#afe684"/>
      <g id="Grupo_138338" data-name="Grupo 138338" transform="translate(517.097 232.064)">
        <circle id="Elipse_6710" data-name="Elipse 6710" cx="30.913" cy="30.913" r="30.913" transform="translate(0 43.718) rotate(-45)" fill="#e2810e"/>
        <circle id="Elipse_6711" data-name="Elipse 6711" cx="30.913" cy="30.913" r="30.913" transform="translate(3.604 67.067) rotate(-75.284)" fill="#ffb93e"/>
        <g id="Grupo_138336" data-name="Grupo 138336" transform="translate(13.354 17.162)">
          <path id="Trazado_200544" data-name="Trazado 200544" d="M1540.684,692.349a28.158,28.158,0,1,1,13.55-3.495A28.188,28.188,0,0,1,1540.684,692.349Zm-.085-54.658a26.564,26.564,0,1,0,7.4,1.056A26.339,26.339,0,0,0,1540.6,637.691Z" transform="translate(-1512.459 -636.01)" fill="#ffa412"/>
        </g>
        <g id="Grupo_138337" data-name="Grupo 138337" transform="translate(28.553 25.012)">
          <path id="Trazado_200545" data-name="Trazado 200545" d="M1603.459,698.132a4.644,4.644,0,0,0-.848-1.4,3.4,3.4,0,0,0-1.261-.855,6.42,6.42,0,0,0-1.8-.4,16.921,16.921,0,0,0-2.456-.016,44.446,44.446,0,0,1-4.515.006,14.026,14.026,0,0,1-3.754-.68,8.247,8.247,0,0,1-2.947-1.727,9.307,9.307,0,0,1-2.739-6.527,7.823,7.823,0,0,1,.741-3.177,9.768,9.768,0,0,1,2.018-2.812,13.035,13.035,0,0,1,3.2-2.278l-1.758-4.331,3.486-1.416,1.784,4.392a11.689,11.689,0,0,1,3.8-.388,8.835,8.835,0,0,1,6.174,3.046,11.76,11.76,0,0,1,2.061,3.419l-6.3,2.557a5.723,5.723,0,0,0-2.554-3.2,3.979,3.979,0,0,0-3.376-.032,5.063,5.063,0,0,0-1.578.959,3.421,3.421,0,0,0-.862,1.222,3.2,3.2,0,0,0-.219,1.4,4.7,4.7,0,0,0,.349,1.485,4.308,4.308,0,0,0,.769,1.267,3.176,3.176,0,0,0,1.208.818,6.419,6.419,0,0,0,1.811.4,21.655,21.655,0,0,0,2.572.052q2.433-.068,4.5.058a14.184,14.184,0,0,1,3.751.705,7.965,7.965,0,0,1,5.019,4.859,8.5,8.5,0,0,1,.677,3.45,7.729,7.729,0,0,1-.76,3.161,9.434,9.434,0,0,1-2.06,2.77,14.086,14.086,0,0,1-3.234,2.256L1606,711.2l-3.465,1.406-1.627-4.007a15.782,15.782,0,0,1-3.818.631,10.008,10.008,0,0,1-3.707-.534,8.947,8.947,0,0,1-3.263-2.035,10.889,10.889,0,0,1-2.478-3.851l6.3-2.557a6.708,6.708,0,0,0,1.377,2.235,4.339,4.339,0,0,0,1.7,1.1,4.215,4.215,0,0,0,1.865.186,7.219,7.219,0,0,0,1.849-.48,6.029,6.029,0,0,0,1.69-.993,4.014,4.014,0,0,0,1-1.255,3.2,3.2,0,0,0,.337-1.422A3.9,3.9,0,0,0,1603.459,698.132Z" transform="translate(-1583.137 -672.517)" fill="#ffa412"/>
        </g>
      </g>
      <g id="Grupo_138341" data-name="Grupo 138341" transform="translate(574.974 175.643)">
        <path id="Trazado_200546" data-name="Trazado 200546" d="M1733.748,672.874c-1.293-.913-4.226-2.922-4.378-2.475a1.971,1.971,0,0,0,.4,1.438c-1.774-.663-3.575-1.1-7.835-.279a3.19,3.19,0,0,0-2.1,1.38,1.408,1.408,0,0,0,.49,2.2c2.173,1.352,1.543.542,4.564,2.51s6.719,2.47,8.929,1.089l2.965-.494.368-4.878S1735.465,673.16,1733.748,672.874Z" transform="translate(-1719.507 -589.371)" fill="#ffb27d"/>
        <path id="Trazado_200547" data-name="Trazado 200547" d="M2081.3,434.911s-6.99,8.294-15.894,4.824c0,0-1.915-4.632-1.943-8.047,0-.42-.009-.827-.014-1.215-.048-3.845-.177-6-.177-6l.009,0c.4-.169,13.609-5.59,13.6-5.14C2076.654,429.729,2081.3,434.911,2081.3,434.911Z" transform="translate(-1989.352 -392.32)" fill="#ffb27d"/>
        <path id="Trazado_200548" data-name="Trazado 200548" d="M2075.555,430.6c-1.273,2.36-5.643,6.978-12.1,8.665-.048-3.845-.177-6-.177-6l.009,0C2063.647,433.165,2075.934,429.907,2075.555,430.6Z" transform="translate(-1989.352 -401.114)" fill="#ed975d"/>
        <path id="Trazado_200549" data-name="Trazado 200549" d="M2041.98,352.137s14.85,3.491,16.882-5.79,5.316-15.081-4.079-17.7-12.018.515-13.451,3.448S2038.17,350.989,2041.98,352.137Z" transform="translate(-1970.824 -320.385)" fill="#ffb27d"/>
        <path id="Trazado_200550" data-name="Trazado 200550" d="M2040.217,322.312c.2.13,3.4,1.111,9.45-10.943a10.5,10.5,0,0,0-.618-9.6c-2.214-3.617-10.065-6.461-16.589-7.7s-8.089,2.433-9.625,6.122c-1.613,3.873-6.27,7.061-6.27,7.061,5.625,3.142,12.4-1.352,14.747-.613s3.177,4.438,3.353,5.624.447,2.171,3.4,1.112,1.334,4.183.862,5.185C2038.925,318.557,2038.524,321.227,2040.217,322.312Z" transform="translate(-1952.687 -293.821)" fill="#a9453d"/>
        <g id="Grupo_138339" data-name="Grupo 138339" transform="translate(63.186 114.01)">
          <path id="Trazado_200551" data-name="Trazado 200551" d="M2303.417,1421.6h8.992c1.885,0,3.979-1.888,4.5-5.343s4.4-5.343,5.238-8.172-3.458-6.811-3.458-6.811l-.719-.923-.747-.962-7.123,1.675s-.176,1.7-.285,3.856a49.222,49.222,0,0,0-.029,4.944c.209,3.773-1.057,7.834-4.407,8.567S2303.417,1421.6,2303.417,1421.6Z" transform="translate(-2240.82 -1275.665)" fill="#2c3a64"/>
          <path id="Trazado_200552" data-name="Trazado 200552" d="M2013.35,1455.3h23.834a2.15,2.15,0,0,0,.507-.147c1.591-.8,1.093-6.889.9-8.771-.036-.349-.063-.553-.063-.553s-8.381-6.7-9.534-1.571c-.037.16-.079.318-.123.472v0c-1.455,4.8-7.959,6.984-11.716,7.592C2014.286,1452.794,2013.541,1454.467,2013.35,1455.3Z" transform="translate(-2013.35 -1309.368)" fill="#2c3a64"/>
          <path id="Trazado_200553" data-name="Trazado 200553" d="M2035.691,855.447s1.272,15.881,2.769,34.97c2.033,25.932,4.479,57.785,4.72,63.819.418,10.478,2.1,27.239,2.1,27.239s3.978,3.982,11.943,2.3a274.247,274.247,0,0,0,9.123-49.242c.031-.415.063-.833.094-1.251,1.886-25.772,4.818-80.039,4.818-80.039Z" transform="translate(-2030.887 -846.961)" fill="#263238"/>
          <path id="Trazado_200554" data-name="Trazado 200554" d="M2035.691,855.447s1.272,15.881,2.769,34.97l27.883,44.12c.031-.415.063-.833.094-1.251,1.886-25.772,4.818-80.039,4.818-80.039Z" transform="translate(-2030.887 -846.961)" fill="#1a2226"/>
          <path id="Trazado_200555" data-name="Trazado 200555" d="M2062.723,834.388s22.943,57.514,38.029,84.543,19.8,34.571,19.8,34.571,8.643-3.457,9.429-5.814c0,0-5.769-52.18-15.872-64.9-5.708-7.188-12.414-28.757-12.728-36.3s-2.043-22.472-2.043-22.472Z" transform="translate(-2052.106 -824.016)" fill="#263238"/>
        </g>
        <g id="Grupo_138340" data-name="Grupo 138340" transform="translate(85.994 43.51)">
          <path id="Trazado_200556" data-name="Trazado 200556" d="M2305.383,818.71l.242,3.7a7.971,7.971,0,0,0,4.4,9.942s2.926,1.18,3.045-1.1-.256-1.421-.018-4.628-1.024-6.239-3.145-7.26l-1.741-2.009Z" transform="translate(-2265.252 -748.289)" fill="#ffb27d"/>
          <path id="Trazado_200557" data-name="Trazado 200557" d="M2162.216,569.275c-2.54.815-2.947.631-2.947.631s-12.36-22.5-13.612-24.563-26.242-25.235-26.242-25.235l6.422-23.949s28.424,36.807,31.494,42.089c5.072,8.728,8.044,29,8.044,29A7.435,7.435,0,0,1,2162.216,569.275Z" transform="translate(-2119.415 -496.16)" fill="#263238"/>
        </g>
        <path id="Trazado_200558" data-name="Trazado 200558" d="M2013.059,509.963c.09,4.918.375,10.447.76,16.062q.036.5.071,1c.247,3.479.514,6.965.821,10.365.123,1.363.254,2.711.391,4.034l.021.178c.01.5.071,1.033.126,1.523,1.253,12.736,2.566,22.8,2.811,22.952a1.428,1.428,0,0,0,.977.249c3.34-.419,13.3.338,21.463-1.437,6.885-1.453,12.812-4.205,19.093-7.917.833-.493,2.734-1.8,2.58-2.773-.152-1.072-.433-2.622-.789-4.569a247.184,247.184,0,0,1-4.1-32.064q-.213-3.81-.617-7.516a114.058,114.058,0,0,0-3.326-17.95c-2.8-10.072-6.908-17.784-12.064-20.8-.674-.378-4.3,1.93-7.629,4.066a14.7,14.7,0,0,1-9.461,2.241l-2.771,3.065c-3.355,3.9-6.929,9.094-7.9,16.477q-.11.818-.189,1.741A108.532,108.532,0,0,0,2013.059,509.963Z" transform="translate(-1949.913 -433.102)" fill="#263238"/>
        <path id="Trazado_200559" data-name="Trazado 200559" d="M2013.059,590.183c.09,4.918.375,10.447.76,16.062q.036.5.071,1c19.077-11.941,22.016-33.792,22.016-33.792-9.385.412-16.841,2.569-22.587,5.654A108.533,108.533,0,0,0,2013.059,590.183Z" transform="translate(-1949.913 -513.322)" fill="#263238"/>
        <path id="Trazado_200560" data-name="Trazado 200560" d="M1788.945,552.153c-.2-2.83,1.268-3.3,1.268-3.3s28.763-5.213,31.209-5.982,23.353-22.519,23.353-22.519,8.014-9.038,14.576-7.042c5.7,1.734,7.931,6.182,8.69,10.42a12.482,12.482,0,0,1-5.8,12.813c-9.816,6.02-29.467,17.883-34.1,19.24-10.3,3.02-37.976.242-37.976.242A8.93,8.93,0,0,1,1788.945,552.153Z" transform="translate(-1773.999 -465.886)" fill="#263238"/>
      </g>
      <path id="Trazado_200561" data-name="Trazado 200561" d="M1461.521,837.117V944.032a11.373,11.373,0,0,1-11.338,11.34h-109.9a11.541,11.541,0,0,1-7.8-3.039,11.676,11.676,0,0,1-2.483-3.226c-.034-.065-.067-.13-.1-.2a11.423,11.423,0,0,1-1.176-4.331c-.02-.263-.029-.529-.029-.8V837.8a17.546,17.546,0,0,1,8.154-14.771l.013-.007a15.194,15.194,0,0,0,6.3-17.356h103.891a15.193,15.193,0,0,0,5.787,17.011l0,0c.262.182.529.358.8.522l0,0A16.3,16.3,0,0,1,1461.521,837.117Z" transform="translate(-837.757 -519.96)" fill="#ed9f4a" opacity="0.2"/>
      <path id="Trazado_200562" data-name="Trazado 200562" d="M1686.052,837.117V944.032a11.377,11.377,0,0,1-10.538,11.311c-.264.02-.531.029-.8.029h-48.391a11.625,11.625,0,0,1-11.591-11.591V837.8a17.546,17.546,0,0,1,8.154-14.771,15.188,15.188,0,0,0,6.315-17.363h42.383a15.194,15.194,0,0,0,6.594,17.537A16.3,16.3,0,0,1,1686.052,837.117Z" transform="translate(-1062.288 -519.96)" fill="#ffe98f" opacity="0.2"/>
      <path id="Trazado_200563" data-name="Trazado 200563" d="M1482.652,822.679c-3.394-2.032-18.094-9.234-55.48-8.929-42.821.35-59.975,9-60.5,9.274a15.194,15.194,0,0,0,6.3-17.356h103.892a15.191,15.191,0,0,0,5.786,17.011Z" transform="translate(-867.57 -519.96)" fill="#ed9f4a" opacity="0.6"/>
      <path id="Trazado_200564" data-name="Trazado 200564" d="M1493.63,799.02v4.849a.869.869,0,0,1-.867.869H1385.9a.87.87,0,0,1-.869-.869V799.02a.872.872,0,0,1,.869-.869h106.863A.871.871,0,0,1,1493.63,799.02Z" transform="translate(-881.981 -514.06)" fill="#ff725e"/>
      <path id="Trazado_200565" data-name="Trazado 200565" d="M1736.067,799.02v4.849a.87.87,0,0,1-.867.869h-40.45a.871.871,0,0,1-.869-.869V799.02a.873.873,0,0,1,.869-.869h40.45A.871.871,0,0,1,1736.067,799.02Z" transform="translate(-1124.418 -514.06)" fill="#d55441"/>
      <g id="Grupo_138342" data-name="Grupo 138342" transform="translate(504.444 303.721)">
        <path id="Trazado_200566" data-name="Trazado 200566" d="M1511.266,894.686s-2.755,3.878-5.28,3.932-6.366-1.8-6.366-1.8-2.319-5.167-.746-7.189a3.375,3.375,0,0,1,3.226.53,4.924,4.924,0,0,1,.854.818,2.709,2.709,0,0,0,1.325.9c1.8.548,3.941-.741,4.741.5a8.453,8.453,0,0,0,1.392,1.649A6.38,6.38,0,0,0,1511.266,894.686Z" transform="translate(-1475.358 -889.436)" fill="#f9ddbf"/>
        <path id="Trazado_200567" data-name="Trazado 200567" d="M1391.512,956.173s9.735-23.589,27.259-24.038c0,0,16.176,1.8,17.074,24.038Z" transform="translate(-1391.512 -922.953)" fill="#f9ddbf"/>
        <path id="Trazado_200568" data-name="Trazado 200568" d="M1495.826,924.339s7.023,1.562,9.191.644c0,0,.328-2.937-2.63-2.525a6.206,6.206,0,0,1-4.119-1.086C1497.17,920.814,1495.534,923.111,1495.826,924.339Z" transform="translate(-1473.368 -914.437)" fill="#f1a34f"/>
        <path id="Trazado_200569" data-name="Trazado 200569" d="M1517.7,897.559c-.449.337-1.829-4.749-1.829-4.749a4.934,4.934,0,0,1,.854.818,2.71,2.71,0,0,0,1.326.9C1518.057,894.675,1518.138,897.231,1517.7,897.559Z" transform="translate(-1489.131 -892.084)" fill="#e5c1a1"/>
        <path id="Trazado_200570" data-name="Trazado 200570" d="M1540.527,904.781a28.947,28.947,0,0,1-3.788,2c-.449,0,2.395-3.653,2.395-3.653A8.467,8.467,0,0,0,1540.527,904.781Z" transform="translate(-1505.473 -900.187)" fill="#e5c1a1"/>
        <path id="Trazado_200571" data-name="Trazado 200571" d="M1435.728,975c-.18-.154,6.89-10.409,8.837-10.484s6.321,2.246,9.489,2.546,6.238-.6,6.836,1.273,2.247,8.51,1.236,9.572S1439.615,978.32,1435.728,975Z" transform="translate(-1426.217 -948.369)" fill="#e5c1a1"/>
      </g>
      <g id="Grupo_138347" data-name="Grupo 138347" transform="translate(324.331 227.893)">
        <path id="Trazado_200572" data-name="Trazado 200572" d="M1343.84,1178.886c-.563.3-1.13.576-1.7.847-.544.314-1.1.623-1.66.917a45.324,45.324,0,0,1-8,3.275A11.677,11.677,0,0,1,1330,1180.7c-.433.231-.867.453-1.3.67V1100.7a45.892,45.892,0,0,1,5.926,1.192,43.538,43.538,0,0,1,26.505,20.078C1372.849,1142.234,1365.11,1167.716,1343.84,1178.886Z" transform="translate(-1162.088 -979.446)" fill="#e2810e" opacity="0.5"/>
        <g id="Grupo_138345" data-name="Grupo 138345" transform="translate(103.261 116.593)">
          <path id="Trazado_200573" data-name="Trazado 200573" d="M1132.241,1101.771a43.978,43.978,0,1,0-17.283,59.745A43.978,43.978,0,0,0,1132.241,1101.771Z" transform="translate(-1046.381 -1079.015)" fill="#e2810e"/>
          <path id="Trazado_200574" data-name="Trazado 200574" d="M1100.984,1169.169q-.813.5-1.653.959c-.19.1-.379.208-.569.307-.433.231-.867.453-1.3.67a43.979,43.979,0,0,1-40.589-78.006q.845-.466,1.7-.89.832-.415,1.676-.79a43.924,43.924,0,0,1,13.2-3.549,43.986,43.986,0,0,1,27.535,81.3Z" transform="translate(-1034.114 -1085.775)" fill="#ffb93e"/>
          <g id="Grupo_138343" data-name="Grupo 138343" transform="translate(4.15 6.206)">
            <path id="Trazado_200575" data-name="Trazado 200575" d="M1093.559,1188.052a40.238,40.238,0,0,1-11.192-1.6,39.824,39.824,0,1,1,11.192,1.6Zm-33.054-21.9a37.679,37.679,0,1,0-3.2-28.66A37.43,37.43,0,0,0,1060.505,1166.154Z" transform="translate(-1053.415 -1107.877)" fill="#ffa412"/>
          </g>
          <g id="Grupo_138344" data-name="Grupo 138344" transform="translate(25.771 17.374)">
            <path id="Trazado_200576" data-name="Trazado 200576" d="M1191.808,1192.561c-.087-.217-.179-.426-.273-.632a11.541,11.541,0,0,0-2.668-3.81,11.9,11.9,0,0,0-4.2-2.471,20.092,20.092,0,0,0-5.335-1q-2.945-.181-6.408-.083a30.923,30.923,0,0,1-3.659-.074,9.172,9.172,0,0,1-2.576-.563,4.52,4.52,0,0,1-1.719-1.165,6.126,6.126,0,0,1-1.093-1.8,6.683,6.683,0,0,1-.5-2.113,4.537,4.537,0,0,1,.313-1.988,4.856,4.856,0,0,1,1.226-1.737,7.168,7.168,0,0,1,2.243-1.365,5.661,5.661,0,0,1,4.8.045q2.23,1.091,3.632,4.546l8.96-3.637a16.754,16.754,0,0,0-2.933-4.864,12.569,12.569,0,0,0-8.783-4.333,16.6,16.6,0,0,0-5.407.553l-2.537-6.249-4.959,2.014,2.5,6.162a18.593,18.593,0,0,0-4.553,3.24,13.9,13.9,0,0,0-2.87,4,11.152,11.152,0,0,0-1.055,4.521,13.24,13.24,0,0,0,3.9,9.285,11.726,11.726,0,0,0,4.194,2.456,19.84,19.84,0,0,0,5.339.968,63.075,63.075,0,0,0,6.424-.007,23.726,23.726,0,0,1,3.494.023,9.123,9.123,0,0,1,2.561.569,4.842,4.842,0,0,1,1.793,1.217,6.6,6.6,0,0,1,1.206,1.992,5.524,5.524,0,0,1,.428,2.124,4.533,4.533,0,0,1-.479,2.023,5.712,5.712,0,0,1-1.423,1.786,8.589,8.589,0,0,1-2.406,1.413,10.349,10.349,0,0,1-2.629.682,6,6,0,0,1-2.653-.265,6.172,6.172,0,0,1-2.422-1.566,9.516,9.516,0,0,1-1.96-3.179l-8.958,3.638a15.468,15.468,0,0,0,3.524,5.478,12.722,12.722,0,0,0,4.641,2.895,14.2,14.2,0,0,0,5.274.76,22.378,22.378,0,0,0,5.432-.9l2.313,5.7,4.929-2-2.326-5.729a20.027,20.027,0,0,0,4.6-3.211,13.58,13.58,0,0,0,2.776-3.625c.054-.1.107-.21.157-.316a11.016,11.016,0,0,0,1.08-4.5A12.1,12.1,0,0,0,1191.808,1192.561Z" transform="translate(-1153.962 -1159.814)" fill="#ffa412"/>
          </g>
        </g>
        <g id="Grupo_138346" data-name="Grupo 138346" transform="translate(0)">
          <path id="Trazado_200577" data-name="Trazado 200577" d="M1028.328,571.648c.134-.539-11.714,5.355-12.315,6.021-5.556,6.164-3.972,14.207-.793,14.284,2.039.049,1.644,3.44,1.644,3.44l22.717-9.61S1036.846,569.833,1028.328,571.648Z" transform="translate(-913.757 -564.043)" fill="#2c3a64"/>
          <path id="Trazado_200578" data-name="Trazado 200578" d="M984.039,545.655s.812-8.849-9.076-8.849a11.61,11.61,0,0,1,4.546,2.438s-6.307-3.7-13.169,1.986-2.6,19.957-4.686,22.666-10.214,3.251-9.221,12.01,25.794,19.73,24.2,26.977c0,0,9.719-14.287,2.769-20.807,0,0,3.387,3.191,3.732,6.983,0,0,.919-7.4-3.793-9.773-4.17-2.1-7.585-9.761-7.224-11.131S984.039,545.655,984.039,545.655Z" transform="translate(-866.671 -536.806)" fill="#2c3a64"/>
          <path id="Trazado_200579" data-name="Trazado 200579" d="M995.285,745.824c-1.525-7.342-11.045-9.619-15.549-3.623a7.954,7.954,0,0,0-1.566,3.857c-1.028,8.334,12.3,42.279,14.2,45.353,3.474,5.6,23.932,24.777,23.932,24.777l3.77-2.285s-14.51-24.565-16.757-26.864C1000.723,784.381,998.18,759.764,995.285,745.824Z" transform="translate(-886.895 -695.341)" fill="#ed985f"/>
          <path id="Trazado_200580" data-name="Trazado 200580" d="M1149.061,1075.843s5.5-3.613,7.586-3.38,8.113,1.967,8.186,2.854-6.717,1.439-7.173,1.924-5.067,3.563-6.739,2.6S1149.061,1075.843,1149.061,1075.843Z" transform="translate(-1021.083 -957.27)" fill="#ed985f"/>
          <path id="Trazado_200581" data-name="Trazado 200581" d="M766.175,1014.943l-4.916-.722a58.116,58.116,0,0,1-18.99-37.645,43.8,43.8,0,0,1-.117-7.578,1.329,1.329,0,0,0-.172-.836s0,0-.005-.007c-.529-.811-1.846-2.843-3.629-5.732-1.757-2.846-4.764-8.228-8.073-14.268-5.96-10.876-12.9-23.883-15.279-28.026-7.583-13.2-3.928-22.082-3.928-22.082s21.156-2.091,26.953-7.163l2.088,3.218s4.583,20.292,4.367,20.386l.688,2.108c3.617,11.165,7.778,25.12,10.047,36.486,1.275,6.395,1.951,11.967,1.588,15.763a27.652,27.652,0,0,0,.374,5.774C759.218,989.182,766.175,1014.943,766.175,1014.943Z" transform="translate(-676.58 -814.744)" fill="#263238"/>
          <path id="Trazado_200582" data-name="Trazado 200582" d="M943.237,1455.08H922.728a11.26,11.26,0,0,1,.579-5.5c1.026-2.275,2.49-2.348.187-5.915,1.3,1.342,5.493,1.9,8.458,1.5.363.589,2.342,4.541,3.556,5.412C936.848,1451.541,942.824,1451.2,943.237,1455.08Z" transform="translate(-843.33 -1248.662)" fill="#233862"/>
          <path id="Trazado_200583" data-name="Trazado 200583" d="M745.161,916.6c-1.792,9.881-6.023,26.325-14.889,31.559-5.96-10.876-12.9-23.883-15.279-28.026-7.583-13.2-3.928-22.082-3.928-22.082s21.156-2.091,26.953-7.163l2.088,3.218s4.583,20.292,4.367,20.386Z" transform="translate(-676.58 -814.744)" fill="#1a2226"/>
          <path id="Trazado_200584" data-name="Trazado 200584" d="M1006.833,750.391a21.954,21.954,0,0,1,4.224,6.628s-4.626,13.284-15.437,14.95C995.62,771.968,1004.174,750.385,1006.833,750.391Z" transform="translate(-900.637 -704.463)" fill="#ed7d2b"/>
          <path id="Trazado_200585" data-name="Trazado 200585" d="M618.029,883.948l.07-3.836c-7.643.964-26.352-9.133-26.352-9.133s-8,5.318-9.09,20.5c-.534,7.413-3.914,38.761-4.288,48.122-.136,3.393-.182,5.814-.2,6.782a.024.024,0,0,1,0,.009,1.333,1.333,0,0,1-.325.79,43.781,43.781,0,0,0-4.141,6.348c-11.662,21.7-5.563,51.18-5.563,51.18l2.708-.688s9.86-30.564,16.3-43.784a27.705,27.705,0,0,1,2.919-5c2.423-2.943,4.978-7.941,7.5-13.956,4.761-11.372,9.383-26.378,12.679-38C610.485,903.334,618.029,883.948,618.029,883.948Z" transform="translate(-563.832 -799.12)" fill="#263238"/>
          <path id="Trazado_200586" data-name="Trazado 200586" d="M988.513,704.752c-12.494-2.867-4.512-20.424-3.788-20.115,1.731-.353,5.533-3.392,8.934-9.328l.459.4,7.673,6.728s-1.774,2.617-3.266,5.179c-1.166,2.007-2.157,3.983-2,4.662C997.144,692.763,991.845,705.518,988.513,704.752Z" transform="translate(-889.591 -645.526)" fill="#ffb27d"/>
          <path id="Trazado_200587" data-name="Trazado 200587" d="M1047.155,683.9s-1.775,2.613-3.266,5.179c-4.771-2.941-4.776-8.847-4.409-11.907Z" transform="translate(-934.954 -646.987)" fill="#ed985f"/>
          <path id="Trazado_200588" data-name="Trazado 200588" d="M1046.206,637.2s-11.584-6.446-7.459-13.6,5.409-12.8,12.979-8.988,7.421,7.364,6.624,10.086S1049.326,638.69,1046.206,637.2Z" transform="translate(-933.793 -596.917)" fill="#ffb27d"/>
          <path id="Trazado_200589" data-name="Trazado 200589" d="M1055.862,616.99c-.53-3.176-2.144-3.479-3.268-3.267a9.265,9.265,0,0,0-11.267-4.313,15.774,15.774,0,0,1-9.13,5.484s1.344,2.5,6.883,4.049a9.463,9.463,0,0,0,5.464-.437,30.922,30.922,0,0,1-7.861,2.964c7.3.668,14.243-6,14.964-6.719a10.39,10.39,0,0,1,.574,4.782c-.481,2.151-2.39,6.047-1.224,6.551C1050.995,626.083,1056.658,621.752,1055.862,616.99Z" transform="translate(-929.348 -593.38)" fill="#2c3a64"/>
          <path id="Trazado_200590" data-name="Trazado 200590" d="M574.529,1454.539H554.02a11.26,11.26,0,0,1,.579-5.5c1.027-2.276,2.634-3.31,2.249-6.063a7.385,7.385,0,0,0,6.392,2.446c.363.589,2.345,3.741,3.559,4.613C568.14,1451,574.116,1450.658,574.529,1454.539Z" transform="translate(-553.907 -1248.121)" fill="#233862"/>
          <path id="Trazado_200591" data-name="Trazado 200591" d="M756.2,740.353a49.906,49.906,0,0,1-10.132,1.837c-5.393.589-10.961.991-13.878,2.155a3.132,3.132,0,0,0-2,1.618c-1.264,3.8-6.836,9.668-6.836,9.668-35.712-1.626-39.633-16.563-39.633-16.563,24.027-27.939,64.71-36.027,64.71-36.027s2.906-1.232,10.224,4.583C763.543,711.507,762.9,713,762.9,713S763.968,737.644,756.2,740.353Z" transform="translate(-655.81 -667.209)" fill="#ff725e"/>
          <path id="Trazado_200592" data-name="Trazado 200592" d="M922.57,779.441c-5.393.589-10.961.992-13.878,2.155a56.871,56.871,0,0,1,7.213-31.208S921.389,772.7,922.57,779.441Z" transform="translate(-832.311 -704.461)" fill="#ff725e"/>
          <path id="Trazado_200593" data-name="Trazado 200593" d="M945.952,734.362s-13.516,1.335-14.6,10.118,12.958,44.554,14.97,47.793c3.661,5.9,25.219,26.11,25.219,26.11l3.973-2.408s-15.291-25.886-17.659-28.309C954.138,783.862,950.529,737.4,945.952,734.362Z" transform="translate(-850.142 -691.881)" fill="#ffb27d"/>
          <path id="Trazado_200594" data-name="Trazado 200594" d="M923.036,742.081c.035.2,12.474,4.063,20.478,0,0,0,1.713-18.469-7.843-17.466s-15.216,4.012-15.456,8.587S923.036,742.081,923.036,742.081Z" transform="translate(-841.436 -684.198)" fill="#ff725e"/>
          <path id="Trazado_200595" data-name="Trazado 200595" d="M1112.749,1096.475s4.848-4.453,6.942-4.559,8.323.634,8.539,1.5-6.4,2.5-6.77,3.055-4.427,4.333-6.233,3.65S1112.749,1096.475,1112.749,1096.475Z" transform="translate(-992.579 -972.541)" fill="#ffb27d"/>
        </g>
      </g>
    </g>
  </g>
</svg>
