<svg xmlns="http://www.w3.org/2000/svg" width="135.682" height="135.683" viewBox="0 0 135.682 135.683">
  <g id="intimidad" transform="translate(-0.001 0)">
    <g id="Grupo_142794" data-name="Grupo 142794" transform="translate(14.418 40.674)">
      <path id="Trazado_202754" data-name="Trazado 202754" d="M77.266,143.86a20.665,20.665,0,0,1-9.307-2.211v7.721L74.5,159.731h6.135L87.18,149.37v-8.033A20.67,20.67,0,0,1,77.266,143.86Z" transform="translate(-46.357 -107.101)" fill="#f2ba94"/>
      <path id="Trazado_202755" data-name="Trazado 202755" d="M126.17,76.743a8.7,8.7,0,0,0-1.339.1V92.642c0,.471-.022.936-.052,1.4a8.705,8.705,0,1,0,1.391-17.3Z" transform="translate(-73.062 -76.743)" fill="#f2ba94"/>
      <path id="Trazado_202756" data-name="Trazado 202756" d="M37.25,92.641V78.264c0-.473,0-1.416,0-1.416A8.714,8.714,0,1,0,37.3,94.041c-.032-.463-.053-.929-.053-1.4Z" transform="translate(-27.202 -76.743)" fill="#f2ba94"/>
    </g>
    <path id="Trazado_202757" data-name="Trazado 202757" d="M70.145,58.608c-7.619,9.582-18.859,8.23-22.638,7.439a1.113,1.113,0,0,0-1.346,1.075V83.917a20.861,20.861,0,0,0,41.721,0V65.335q0-.164,0-.326a1.118,1.118,0,0,0-1.077-1.1c-8.666-.254-13.232-3.689-14.987-5.409a1.123,1.123,0,0,0-1.67.1Z" transform="translate(-21.694 -27.344)" fill="#f9d0b4"/>
    <path id="Trazado_202758" data-name="Trazado 202758" d="M38.815,50.787a8.776,8.776,0,0,1,1.339.106v-1A1.113,1.113,0,0,1,41.5,48.815c3.779.791,15.019,2.143,22.638-7.439a1.123,1.123,0,0,1,1.67-.1c1.754,1.72,6.321,5.154,14.987,5.409a1.118,1.118,0,0,1,1.077,1.1q0,.163,0,.326v2.79a8.658,8.658,0,0,1,7.379,2.338V37.565A11.951,11.951,0,0,0,77.338,25.649a11.8,11.8,0,0,0-6.087,1.7,11.928,11.928,0,0,0-10.219-5.832H54.914A21.6,21.6,0,0,0,33.381,43.049V52.7a8.664,8.664,0,0,1,5.434-1.91Z" transform="translate(-15.688 -10.112)" fill="#893c1a"/>
    <path id="Trazado_202759" data-name="Trazado 202759" d="M89.9,189.139H71.2a5.484,5.484,0,0,1-5.468-5.468v-6.811a5.484,5.484,0,0,1,5.468-5.468H88.34a8.229,8.229,0,0,0-5.979-6.016l-7.829-1.971H70.9a5.462,5.462,0,0,1-4.192-1.97l-.547-.138-9.746-4.805-6.543,10.361H43.737l-6.543-10.361L27.448,161.3l-16.2,4.078a8.232,8.232,0,0,0-6.21,7.525L2.513,203.726a3.866,3.866,0,0,0,3.853,4.182H87.242a3.866,3.866,0,0,0,3.853-4.182Z" transform="translate(-1.175 -73.551)" fill="#edf4fc"/>
    <path id="Trazado_202760" data-name="Trazado 202760" d="M185.573,136.051H126.7a5.484,5.484,0,0,0-5.468,5.468v6.811A5.484,5.484,0,0,0,126.7,153.8h58.869a5.484,5.484,0,0,0,5.468-5.468v-6.811a5.484,5.484,0,0,0-5.468-5.468Z" transform="translate(-56.979 -63.943)" fill="#edf4fc"/>
    <path id="Trazado_202761" data-name="Trazado 202761" d="M186.131,184.6H127.262a5.484,5.484,0,0,0-5.468,5.468v6.811a5.484,5.484,0,0,0,5.468,5.468h58.869a5.484,5.484,0,0,0,5.468-5.468v-6.811A5.484,5.484,0,0,0,186.131,184.6Z" transform="translate(-57.242 -86.762)" fill="#edf4fc"/>
    <path id="Trazado_202762" data-name="Trazado 202762" d="M186.409,79.76H164.347a3.094,3.094,0,0,0-3.085,3.085V99.018a3.094,3.094,0,0,0,3.085,3.085h22.062a3.094,3.094,0,0,0,3.085-3.085V82.845A3.094,3.094,0,0,0,186.409,79.76Z" transform="translate(-75.791 -37.486)" fill="#f5c84c"/>
    <path id="Trazado_202763" data-name="Trazado 202763" d="M173,64.413V58.135a5.113,5.113,0,0,1,10.226,0v6.278h5.915V58.135a11.029,11.029,0,0,0-22.058,0v6.278Z" transform="translate(-78.528 -22.14)" fill="#edf4fc"/>
    <path id="Trazado_202764" data-name="Trazado 202764" d="M134.809,184.6h-7.546a5.484,5.484,0,0,0-5.468,5.468v6.811a5.484,5.484,0,0,0,5.468,5.468h7.546Z" transform="translate(-57.242 -86.762)" fill="#fc657e"/>
    <path id="Trazado_202765" data-name="Trazado 202765" d="M134.547,136.051h-7.842a5.484,5.484,0,0,0-5.468,5.468v6.811a5.484,5.484,0,0,0,5.468,5.468h7.842Z" transform="translate(-56.98 -63.943)" fill="#70d6f9"/>
    <circle id="Elipse_6783" data-name="Elipse 6783" cx="3.254" cy="3.254" r="3.254" transform="translate(96.202 48.741)" fill="#edb311"/>
    <path id="Trazado_202766" data-name="Trazado 202766" d="M148.675,16.194h-1.1v1.1a1.487,1.487,0,1,1-2.973,0v-1.1h-1.1a1.487,1.487,0,0,1,0-2.973h1.1v-1.1a1.487,1.487,0,1,1,2.973,0v1.1h1.1a1.487,1.487,0,0,1,0,2.973Z" transform="translate(-66.748 -4.999)" fill="#3caadc"/>
    <path id="Trazado_202767" data-name="Trazado 202767" d="M237.024,88.868a1.486,1.486,0,1,0,1.2,1.457A1.483,1.483,0,0,0,237.024,88.868Z" transform="translate(-110.563 -41.755)" fill="#fc8c48"/>
    <path id="Trazado_202768" data-name="Trazado 202768" d="M32.024,120.868a1.486,1.486,0,1,0,1.2,1.457A1.483,1.483,0,0,0,32.024,120.868Z" transform="translate(-14.215 -56.794)" fill="#ef4460"/>
    <path id="Trazado_202769" data-name="Trazado 202769" d="M124.024.026a1.486,1.486,0,1,0,1.2,1.457,1.483,1.483,0,0,0-1.2-1.457Z" transform="translate(-57.454 0)" fill="#87d147"/>
    <path id="Trazado_202770" data-name="Trazado 202770" d="M19.5,142.255a5.226,5.226,0,0,1-4.189-4.1.094.094,0,0,0-.186,0,5.226,5.226,0,0,1-4.189,4.1.092.092,0,0,0,0,.182,5.226,5.226,0,0,1,4.189,4.1.094.094,0,0,0,.186,0,5.226,5.226,0,0,1,4.189-4.1A.092.092,0,0,0,19.5,142.255Z" transform="translate(-5.101 -64.893)" fill="#fc8c48"/>
    <path id="Trazado_202771" data-name="Trazado 202771" d="M233.544,112.685a3.252,3.252,0,0,1-2.607-2.554.059.059,0,0,0-.116,0,3.251,3.251,0,0,1-2.607,2.554.057.057,0,0,0,0,.113,3.253,3.253,0,0,1,2.607,2.554.059.059,0,0,0,.116,0,3.252,3.252,0,0,1,2.607-2.554A.057.057,0,0,0,233.544,112.685Z" transform="translate(-107.235 -51.738)" fill="#f5c84c"/>
    <path id="Trazado_202772" data-name="Trazado 202772" d="M79.461,159.883H73.327a1.325,1.325,0,0,1-1.12-.617L65.664,148.9a1.325,1.325,0,0,1-.2-.708v-7.721a1.325,1.325,0,0,1,1.92-1.184,19.228,19.228,0,0,0,8.712,2.07A19.468,19.468,0,0,0,85.371,139a1.325,1.325,0,0,1,1.958,1.163V148.2a1.325,1.325,0,0,1-.2.708l-6.543,10.361A1.326,1.326,0,0,1,79.461,159.883Zm-5.4-2.65h4.674l5.948-9.419v-5.542a22.14,22.14,0,0,1-8.589,1.741,21.811,21.811,0,0,1-7.982-1.5v5.3Z" transform="translate(-30.765 -65.253)"/>
    <path id="Trazado_202773" data-name="Trazado 202773" d="M124.994,94.311a10,10,0,0,1-1.6-.138,1.325,1.325,0,0,1-1.112-1.4c.034-.5.05-.918.05-1.31V75.671a1.325,1.325,0,0,1,1.123-1.31,10.034,10.034,0,1,1,1.541,19.95Zm-.014-2.65h.014a7.385,7.385,0,0,0,0-14.769h-.014V91.466C124.981,91.53,124.981,91.6,124.98,91.661Z" transform="translate(-57.469 -34.893)"/>
    <path id="Trazado_202774" data-name="Trazado 202774" d="M34.736,94.311a10.035,10.035,0,1,1,1.542-19.95,1.325,1.325,0,0,1,1.123,1.31V91.465c0,.39.016.806.05,1.311a1.325,1.325,0,0,1-1.112,1.4A10.022,10.022,0,0,1,34.736,94.311Zm0-17.419a7.385,7.385,0,1,0,0,14.769h.015c0-.066,0-.131,0-.2V76.893Z" transform="translate(-11.609 -34.893)"/>
    <path id="Trazado_202775" data-name="Trazado 202775" d="M65.846,104.928A22.211,22.211,0,0,1,43.66,82.743V65.962A2.438,2.438,0,0,1,46.6,63.575c4.069.851,14.3,1.878,21.33-6.967a2.449,2.449,0,0,1,3.634-.226c1.46,1.431,5.756,4.786,14.1,5.031a2.437,2.437,0,0,1,2.363,2.395c0,.118,0,.235,0,.353V82.743A22.211,22.211,0,0,1,65.846,104.928ZM46.31,66.22V82.742a19.536,19.536,0,0,0,39.071,0V64.16c0-.035,0-.07,0-.1-8.595-.3-13.356-3.579-15.511-5.627-7.989,9.866-19.739,8.546-23.56,7.792Zm-.251-.051Zm23.947-7.911h0Z" transform="translate(-20.519 -26.169)"/>
    <path id="Trazado_202776" data-name="Trazado 202776" d="M88.08,53.381a1.323,1.323,0,0,1-.92-.372,7.344,7.344,0,0,0-5.121-2.073,7.484,7.484,0,0,0-1.136.091,1.325,1.325,0,0,1-1.527-1.31v-2.79c0-.035,0-.07,0-.1-8.594-.3-13.356-3.579-15.511-5.627-7.99,9.866-19.739,8.547-23.561,7.792v.73a1.325,1.325,0,0,1-1.527,1.31,7.486,7.486,0,0,0-1.136-.091,7.3,7.3,0,0,0-4.606,1.619,1.325,1.325,0,0,1-2.153-1.035V41.873A22.883,22.883,0,0,1,53.739,19.016h6.119a13.316,13.316,0,0,1,10.653,5.421,13.123,13.123,0,0,1,5.653-1.288A13.256,13.256,0,0,1,89.4,36.39V52.056a1.325,1.325,0,0,1-1.325,1.325Zm-6.042-5.094a9.966,9.966,0,0,1,4.716,1.178V36.39a10.556,10.556,0,0,0-16-9.08,1.325,1.325,0,0,1-1.818-.455,10.662,10.662,0,0,0-9.082-5.188H53.739A20.231,20.231,0,0,0,33.531,41.873v7.291a9.681,9.681,0,0,1,4.163-.877,2.406,2.406,0,0,1,.857-1.447,2.44,2.44,0,0,1,2.046-.5c4.069.851,14.3,1.878,21.33-6.967a2.448,2.448,0,0,1,3.634-.226c1.46,1.431,5.756,4.785,14.1,5.03a2.437,2.437,0,0,1,2.363,2.395c0,.118,0,.235,0,.353v1.359Z" transform="translate(-14.513 -8.937)"/>
    <path id="Trazado_202777" data-name="Trazado 202777" d="M135.38,237.294a1.325,1.325,0,0,1-1.325-1.325V217.524a1.325,1.325,0,0,1,2.65,0v18.445A1.325,1.325,0,0,1,135.38,237.294Z" transform="translate(-63.004 -101.611)"/>
    <path id="Trazado_202778" data-name="Trazado 202778" d="M33.308,237.294a1.325,1.325,0,0,1-1.325-1.325V217.524a1.325,1.325,0,0,1,2.65,0v18.445A1.325,1.325,0,0,1,33.308,237.294Z" transform="translate(-15.031 -101.611)"/>
    <path id="Trazado_202779" data-name="Trazado 202779" d="M78.777,120.544a9.257,9.257,0,0,1-7.679-4.083,1.325,1.325,0,1,1,2.2-1.484,6.614,6.614,0,0,0,10.967,0,1.325,1.325,0,1,1,2.2,1.484A9.257,9.257,0,0,1,78.777,120.544Z" transform="translate(-33.308 -53.764)"/>
    <path id="Trazado_202780" data-name="Trazado 202780" d="M86.067,208.058H5.192a5.192,5.192,0,0,1-5.174-5.615l2.524-30.824a9.5,9.5,0,0,1,7.207-8.7l16.065-4.043,9.62-4.743a1.324,1.324,0,0,1,1.706.481l6.153,9.744h4.674l6.153-9.744a1.325,1.325,0,0,1,1.706-.481l9.62,4.743.411.1a1.325,1.325,0,0,1,.692.435,4.138,4.138,0,0,0,3.176,1.495h3.633a1.3,1.3,0,0,1,.323.04l7.829,1.971a9.535,9.535,0,0,1,6.943,6.984,1.325,1.325,0,0,1-1.287,1.642H70.021a4.148,4.148,0,0,0-4.143,4.143V182.5a4.148,4.148,0,0,0,4.143,4.143H88.726a1.324,1.324,0,0,1,1.32,1.217l1.195,14.587a5.19,5.19,0,0,1-5.173,5.614ZM35.535,157.034l-8.676,4.278a1.32,1.32,0,0,1-.262.1l-16.2,4.078A6.877,6.877,0,0,0,5.185,171.8L2.659,202.659a2.541,2.541,0,0,0,2.533,2.749H86.067A2.541,2.541,0,0,0,88.6,202.66l-1.1-13.37H70.021a6.8,6.8,0,0,1-6.793-6.793v-6.811a6.8,6.8,0,0,1,6.793-6.793H85.246a6.883,6.883,0,0,0-4.383-3.406l-7.669-1.93H69.725a6.773,6.773,0,0,1-4.908-2.108l-.155-.04a1.32,1.32,0,0,1-.262-.1l-8.676-4.278-5.906,9.353A1.325,1.325,0,0,1,48.7,167H42.562a1.325,1.325,0,0,1-1.12-.617Z" transform="translate(0 -72.375)"/>
    <path id="Trazado_202781" data-name="Trazado 202781" d="M184.4,153.949H125.53a6.8,6.8,0,0,1-6.793-6.793v-6.811a6.8,6.8,0,0,1,6.793-6.793H184.4a6.8,6.8,0,0,1,6.793,6.793v6.811A6.8,6.8,0,0,1,184.4,153.949ZM125.53,136.2a4.148,4.148,0,0,0-4.143,4.143v6.811a4.148,4.148,0,0,0,4.143,4.143H184.4a4.148,4.148,0,0,0,4.143-4.143v-6.811A4.148,4.148,0,0,0,184.4,136.2Z" transform="translate(-55.805 -62.768)"/>
    <path id="Trazado_202782" data-name="Trazado 202782" d="M184.956,202.5H126.087a6.8,6.8,0,0,1-6.793-6.793V188.9a6.8,6.8,0,0,1,6.793-6.793h58.869a6.8,6.8,0,0,1,6.793,6.793v6.811A6.8,6.8,0,0,1,184.956,202.5Zm-58.869-17.747a4.148,4.148,0,0,0-4.143,4.143v6.811a4.148,4.148,0,0,0,4.143,4.143h58.869a4.148,4.148,0,0,0,4.143-4.143V188.9a4.148,4.148,0,0,0-4.143-4.143Z" transform="translate(-56.067 -85.587)"/>
    <path id="Trazado_202783" data-name="Trazado 202783" d="M185.234,102.253H163.171a4.415,4.415,0,0,1-4.41-4.41V81.67a4.415,4.415,0,0,1,4.41-4.41h22.063a4.415,4.415,0,0,1,4.41,4.41V97.843A4.415,4.415,0,0,1,185.234,102.253ZM163.171,79.91a1.762,1.762,0,0,0-1.76,1.76V97.843a1.762,1.762,0,0,0,1.76,1.76h22.063a1.762,1.762,0,0,0,1.76-1.76V81.67a1.762,1.762,0,0,0-1.76-1.76Z" transform="translate(-74.616 -36.312)"/>
    <path id="Trazado_202784" data-name="Trazado 202784" d="M162.992,202.014a1.322,1.322,0,0,1-.937-.388l-4.138-4.139a1.325,1.325,0,1,1,1.874-1.874l4.138,4.139a1.325,1.325,0,0,1-.937,2.262Z" transform="translate(-74.036 -91.754)"/>
    <path id="Trazado_202785" data-name="Trazado 202785" d="M158.854,202.014a1.325,1.325,0,0,1-.937-2.262l4.138-4.139a1.325,1.325,0,1,1,1.874,1.874l-4.138,4.139A1.319,1.319,0,0,1,158.854,202.014Z" transform="translate(-74.036 -91.754)"/>
    <path id="Trazado_202786" data-name="Trazado 202786" d="M183.455,202.014a1.322,1.322,0,0,1-.937-.388l-4.138-4.139a1.325,1.325,0,1,1,1.874-1.874l4.138,4.139a1.325,1.325,0,0,1-.937,2.262Z" transform="translate(-83.654 -91.754)"/>
    <path id="Trazado_202787" data-name="Trazado 202787" d="M179.317,202.014a1.325,1.325,0,0,1-.937-2.262l4.138-4.139a1.325,1.325,0,1,1,1.874,1.874l-4.138,4.139A1.32,1.32,0,0,1,179.317,202.014Z" transform="translate(-83.654 -91.754)"/>
    <path id="Trazado_202788" data-name="Trazado 202788" d="M203.918,202.014a1.322,1.322,0,0,1-.937-.388l-4.139-4.139a1.325,1.325,0,1,1,1.874-1.874l4.139,4.139a1.325,1.325,0,0,1-.937,2.262Z" transform="translate(-93.271 -91.754)"/>
    <path id="Trazado_202789" data-name="Trazado 202789" d="M199.779,202.014a1.325,1.325,0,0,1-.937-2.262l4.139-4.139a1.325,1.325,0,1,1,1.874,1.874l-4.139,4.139A1.32,1.32,0,0,1,199.779,202.014Z" transform="translate(-93.271 -91.754)"/>
    <path id="Trazado_202790" data-name="Trazado 202790" d="M224.381,202.014a1.322,1.322,0,0,1-.937-.388l-4.139-4.139a1.325,1.325,0,1,1,1.874-1.874l4.139,4.139a1.325,1.325,0,0,1-.937,2.262Z" transform="translate(-102.888 -91.754)"/>
    <path id="Trazado_202791" data-name="Trazado 202791" d="M220.242,202.014a1.325,1.325,0,0,1-.937-2.262l4.139-4.139a1.325,1.325,0,1,1,1.874,1.874l-4.139,4.139A1.32,1.32,0,0,1,220.242,202.014Z" transform="translate(-102.888 -91.754)"/>
    <path id="Trazado_202792" data-name="Trazado 202792" d="M198.728,152.386H159.684a1.325,1.325,0,1,1,0-2.65h39.044a1.325,1.325,0,1,1,0,2.65Z" transform="translate(-74.427 -70.374)"/>
    <path id="Trazado_202793" data-name="Trazado 202793" d="M187.97,64.563h-5.916a1.325,1.325,0,0,1-1.325-1.325V56.96a3.788,3.788,0,1,0-7.576,0v6.278a1.325,1.325,0,0,1-1.325,1.325h-5.915a1.325,1.325,0,0,1-1.325-1.325V56.96a12.354,12.354,0,0,1,24.709,0v6.278A1.326,1.326,0,0,1,187.97,64.563Zm-4.591-2.65h3.266V56.96a9.7,9.7,0,0,0-19.408,0v4.953H170.5V56.96a6.438,6.438,0,1,1,12.876,0v4.953Z" transform="translate(-77.354 -20.964)"/>
    <path id="Trazado_202794" data-name="Trazado 202794" d="M133.634,202.5h-7.546a6.8,6.8,0,0,1-6.793-6.793V188.9a6.8,6.8,0,0,1,6.793-6.793h7.546a1.325,1.325,0,0,1,1.325,1.325v17.747A1.325,1.325,0,0,1,133.634,202.5Zm-7.547-17.747a4.148,4.148,0,0,0-4.143,4.143v6.811a4.148,4.148,0,0,0,4.143,4.143h6.221v-15.1Z" transform="translate(-56.067 -85.587)"/>
    <path id="Trazado_202795" data-name="Trazado 202795" d="M133.372,153.949H125.53a6.8,6.8,0,0,1-6.793-6.793v-6.811a6.8,6.8,0,0,1,6.793-6.793h7.842a1.325,1.325,0,0,1,1.325,1.325v17.747A1.325,1.325,0,0,1,133.372,153.949ZM125.53,136.2a4.148,4.148,0,0,0-4.143,4.143v6.811a4.148,4.148,0,0,0,4.143,4.143h6.517V136.2H125.53Z" transform="translate(-55.805 -62.768)"/>
    <path id="Trazado_202796" data-name="Trazado 202796" d="M183.587,98.621a4.579,4.579,0,1,1,4.579-4.579A4.584,4.584,0,0,1,183.587,98.621Zm0-6.507a1.929,1.929,0,1,0,1.929,1.929A1.931,1.931,0,0,0,183.587,92.113Z" transform="translate(-84.132 -42.047)"/>
    <circle id="Elipse_6784" data-name="Elipse 6784" cx="1.324" cy="1.324" r="1.324" transform="translate(36.318 47.931)"/>
    <circle id="Elipse_6785" data-name="Elipse 6785" cx="1.324" cy="1.324" r="1.324" transform="translate(51.969 47.931)"/>
    <circle id="Elipse_6786" data-name="Elipse 6786" cx="1.324" cy="1.324" r="1.324" transform="translate(44.008 99.415)"/>
    <circle id="Elipse_6787" data-name="Elipse 6787" cx="1.324" cy="1.324" r="1.324" transform="translate(44.008 108.051)"/>
    <circle id="Elipse_6788" data-name="Elipse 6788" cx="1.324" cy="1.324" r="1.324" transform="translate(44.008 116.687)"/>
    <circle id="Elipse_6789" data-name="Elipse 6789" cx="1.324" cy="1.324" r="1.324" transform="translate(44.008 125.324)"/>
  </g>
</svg>
