<svg xmlns="http://www.w3.org/2000/svg" width="124" height="124" viewBox="0 0 124 124">
  <g id="consumidor" transform="translate(-16 -16)">
    <circle id="Elipse_6936" data-name="Elipse 6936" cx="54" cy="54" r="54" transform="translate(24 24)" fill="#ecfbf9"/>
    <path id="Trazado_210453" data-name="Trazado 210453" d="M42.046,227.893a56.175,56.175,0,0,1,0-30.044l3.981,1.111a52.042,52.042,0,0,0,0,27.823Z" transform="translate(-17.8 -134.871)"/>
    <path id="Trazado_210454" data-name="Trazado 210454" d="M212.873,454.7a55.925,55.925,0,0,1-15.022-2.046l1.111-3.982a52.035,52.035,0,0,0,27.823,0l1.111,3.982A55.926,55.926,0,0,1,212.873,454.7Z" transform="translate(-134.873 -320.895)"/>
    <path id="Trazado_210455" data-name="Trazado 210455" d="M452.65,227.893l-3.981-1.111a52.042,52.042,0,0,0,0-27.823l3.981-1.111A56.175,56.175,0,0,1,452.65,227.893Z" transform="translate(-320.896 -134.871)"/>
    <path id="Trazado_210456" data-name="Trazado 210456" d="M226.784,46.027a52.035,52.035,0,0,0-27.823,0l-1.111-3.982a56.176,56.176,0,0,1,30.044,0Z" transform="translate(-134.873 -17.8)"/>
    <g id="Grupo_145487" data-name="Grupo 145487" transform="translate(49.067 49.067)">
      <path id="Trazado_210457" data-name="Trazado 210457" d="M144,344.8V333.373a5.167,5.167,0,0,1,2.657-4.516L162.6,320h20.667l15.943,8.857a5.167,5.167,0,0,1,2.657,4.516V344.8Z" transform="translate(-144 -274.533)" fill="#57cee6"/>
      <path id="Trazado_210458" data-name="Trazado 210458" d="M208,408h24.8v4.133H208Z" transform="translate(-191.467 -339.8)"/>
      <g id="Grupo_145486" data-name="Grupo 145486" transform="translate(16.533 12.4)">
        <path id="Trazado_210459" data-name="Trazado 210459" d="M236.667,296.267l-10.333,8.267L216,296.267,220.133,288h12.4Z" transform="translate(-213.933 -263.2)" fill="#ffd4cf"/>
        <path id="Trazado_210460" data-name="Trazado 210460" d="M232.8,192H208v17.9a5.167,5.167,0,0,0,2.3,4.3l7.233,4.822a5.167,5.167,0,0,0,5.732,0L230.5,214.2a5.167,5.167,0,0,0,2.3-4.3Z" transform="translate(-208 -192)" fill="#ffd4cf"/>
      </g>
      <path id="Trazado_210461" data-name="Trazado 210461" d="M192,168.533V159.75a7.75,7.75,0,0,1,7.75-7.75h12.917v8.783a7.75,7.75,0,0,1-7.75,7.75Z" transform="translate(-179.6 -149.933)" fill="#fa5d3f"/>
      <path id="Trazado_210462" data-name="Trazado 210462" d="M282.333,162.333H272V152l6.18,1.236a5.167,5.167,0,0,1,4.154,5.067Z" transform="translate(-238.933 -149.933)" fill="#d3463d"/>
      <path id="Trazado_210463" data-name="Trazado 210463" d="M204.133,320l10.333,8.267L200,332.4Z" transform="translate(-185.533 -274.533)" fill="#ecfbf9"/>
      <path id="Trazado_210464" data-name="Trazado 210464" d="M266.333,320,256,328.267l14.467,4.133Z" transform="translate(-227.067 -274.533)" fill="#ecfbf9"/>
      <path id="Trazado_210465" data-name="Trazado 210465" d="M219.322,192.253l-7.708-4.282-3.032-6.063,2.381-1.587a7.219,7.219,0,0,0,3.221-6.018V158.467a2.067,2.067,0,0,0,2.067-2.067v-4.03a7.253,7.253,0,0,0-5.815-7.093l-6.148-1.23a2.005,2.005,0,0,0-.2-.033l-.052-.005h-.01l-.041,0h-.1l-.036-.006H190.935a9.828,9.828,0,0,0-9.817,9.817V162.6a2.067,2.067,0,0,0,2.067,2.067h2.067V174.3a7.219,7.219,0,0,0,3.221,6.019l2.381,1.587-3.032,6.063-7.708,4.282,2.007,3.613,3.622-2.012-2.454,7.36a2.067,2.067,0,0,0,2.529,2.641l13.9-3.973,13.9,3.971a2.067,2.067,0,0,0,2.529-2.641l-2.454-7.36,3.622,2.012Zm-7.2-39.883v1.963h-6.2v-5.746l3.708.741A3.109,3.109,0,0,1,212.119,152.37Zm-26.867,1.447a5.69,5.69,0,0,1,5.683-5.683h10.85v6.717a5.69,5.69,0,0,1-5.683,5.683h-10.85Zm4.133,20.486v-9.636H196.1a9.833,9.833,0,0,0,9.126-6.2h4.824V174.3a3.094,3.094,0,0,1-1.381,2.579l-7.233,4.822a3.092,3.092,0,0,1-3.439,0l-7.233-4.822A3.094,3.094,0,0,1,189.385,174.3Zm6.321,10.841a7.213,7.213,0,0,0,8.024,0l1.386-.924,2.339,4.678-7.738,6.189-7.738-6.19,2.339-4.678ZM188.452,198.8l1.957-5.871,4.893,3.913Zm15.684-1.957,4.893-3.914,1.957,5.871Z" transform="translate(-170.785 -144)"/>
    </g>
    <g id="Grupo_145488" data-name="Grupo 145488" transform="translate(16 16)">
      <circle id="Elipse_6937" data-name="Elipse 6937" cx="20.5" cy="20.5" r="20.5" transform="translate(2 2)" fill="#fac850"/>
      <circle id="Elipse_6938" data-name="Elipse 6938" cx="14.5" cy="14.5" r="14.5" transform="translate(8 8)" fill="#fffdfa"/>
      <path id="Trazado_210466" data-name="Trazado 210466" d="M38.733,61.467A22.733,22.733,0,1,1,61.467,38.733,22.733,22.733,0,0,1,38.733,61.467Zm0-41.333a18.6,18.6,0,1,0,18.6,18.6A18.6,18.6,0,0,0,38.733,20.133Z" transform="translate(-16 -16)"/>
      <path id="Trazado_210467" data-name="Trazado 210467" d="M78.2,62.2H88.533V58.067h-6.2V56H78.2v2.067a6.2,6.2,0,0,0,0,12.4h4.133a2.067,2.067,0,0,1,0,4.133H72v4.133h6.2V80.8h4.133V78.733a6.2,6.2,0,1,0,0-12.4H78.2a2.067,2.067,0,0,1,0-4.133Z" transform="translate(-57.533 -45.667)"/>
    </g>
    <g id="Grupo_145490" data-name="Grupo 145490" transform="translate(94.533 16)">
      <circle id="Elipse_6939" data-name="Elipse 6939" cx="20.5" cy="20.5" r="20.5" transform="translate(2.467 2)" fill="#c85aed"/>
      <path id="Trazado_210468" data-name="Trazado 210468" d="M342.733,61.467a22.733,22.733,0,1,1,22.733-22.733A22.733,22.733,0,0,1,342.733,61.467Zm0-41.333a18.6,18.6,0,1,0,18.6,18.6A18.6,18.6,0,0,0,342.733,20.133Z" transform="translate(-320 -16)"/>
      <g id="Grupo_145489" data-name="Grupo 145489" transform="translate(16.533 10.333)">
        <path id="Trazado_210469" data-name="Trazado 210469" d="M392,76.4V64l16.533,6.2Z" transform="translate(-389.933 -61.933)" fill="#f5f1ff"/>
        <path id="Trazado_210470" data-name="Trazado 210470" d="M386.067,72.533A2.067,2.067,0,0,1,384,70.466v-12.4a2.067,2.067,0,0,1,2.792-1.935l16.533,6.2a2.067,2.067,0,0,1,0,3.87l-16.533,6.2A2.069,2.069,0,0,1,386.067,72.533Zm2.067-11.484v6.436l8.581-3.218Z" transform="translate(-384 -56)"/>
        <path id="Trazado_210471" data-name="Trazado 210471" d="M403.326,62.331l-16.533-6.2A2.067,2.067,0,0,0,384,58.066V80.8h4.133V71.9l15.192-5.7a2.067,2.067,0,0,0,0-3.87Zm-15.192,5.153V61.049l8.581,3.218Z" transform="translate(-384 -56)"/>
      </g>
    </g>
    <g id="Grupo_145492" data-name="Grupo 145492" transform="translate(94.533 94.533)">
      <circle id="Elipse_6940" data-name="Elipse 6940" cx="20.5" cy="20.5" r="20.5" transform="translate(2.467 2.467)" fill="#fac850"/>
      <path id="Trazado_210472" data-name="Trazado 210472" d="M342.733,365.467a22.733,22.733,0,1,1,22.733-22.733A22.733,22.733,0,0,1,342.733,365.467Zm0-41.333a18.6,18.6,0,1,0,18.6,18.6A18.6,18.6,0,0,0,342.733,324.133Z" transform="translate(-320 -320)"/>
      <g id="Grupo_145491" data-name="Grupo 145491" transform="translate(8.266 9.566)">
        <path id="Trazado_210473" data-name="Trazado 210473" d="M380.667,412.4H364.133L360,400h24.8Z" transform="translate(-357.933 -388.899)" fill="#fffdfa"/>
        <path id="Trazado_210474" data-name="Trazado 210474" d="M380.543,366.921a2.067,2.067,0,0,0-1.677-.858h-2.734l-3.614-9.034-3.838,1.535,3,7.5H361.252l3-7.5-3.838-1.535-3.614,9.034h-2.734a2.067,2.067,0,0,0-1.961,2.72l4.133,12.4A2.067,2.067,0,0,0,358.2,382.6h16.533a2.067,2.067,0,0,0,1.961-1.413l4.133-12.4A2.068,2.068,0,0,0,380.543,366.921Zm-7.3,11.542H359.689l-2.755-8.267H376Z" transform="translate(-351.999 -357.029)"/>
      </g>
    </g>
    <g id="Grupo_145493" data-name="Grupo 145493" transform="translate(17.797 96.87)">
      <circle id="Elipse_6941" data-name="Elipse 6941" cx="20.5" cy="20.5" r="20.5" transform="translate(0.203 0.13)" fill="#c85aed"/>
      <path id="Trazado_210475" data-name="Trazado 210475" d="M68.388,360.579l3.823,7.434,8.548,1.192-6.186,5.787,1.46,8.171-7.646-3.858-7.646,3.858,1.46-8.171-6.186-5.787,8.548-1.192Z" transform="translate(-47.476 -352.432)" fill="#f5f1ff"/>
    </g>
    <g id="Grupo_145494" data-name="Grupo 145494" transform="translate(16 94.533)">
      <path id="Trazado_210476" data-name="Trazado 210476" d="M38.733,365.467a22.733,22.733,0,1,1,22.733-22.733,22.733,22.733,0,0,1-22.733,22.733Zm0-41.333a18.6,18.6,0,1,0,18.6,18.6,18.6,18.6,0,0,0-18.6-18.6Z" transform="translate(-16 -320)"/>
      <path id="Trazado_210477" data-name="Trazado 210477" d="M70.1,379.3a2.066,2.066,0,0,1-.93-.221l-6.715-3.388-6.715,3.388a2.067,2.067,0,0,1-2.965-2.209l1.262-7.065-5.365-5.019a2.067,2.067,0,0,1,1.126-3.556l7.487-1.044,3.333-6.48a2.067,2.067,0,0,1,3.676,0l3.332,6.48,7.486,1.044a2.067,2.067,0,0,1,1.127,3.556L70.873,369.8l1.263,7.065A2.067,2.067,0,0,1,70.1,379.3Zm-7.647-7.991a2.067,2.067,0,0,1,.93.221l3.952,1.995-.732-4.1a2.067,2.067,0,0,1,.622-1.873l3.022-2.828-4.26-.594a2.067,2.067,0,0,1-1.552-1.1l-1.985-3.86-1.985,3.86a2.067,2.067,0,0,1-1.552,1.1l-4.26.594,3.023,2.828a2.067,2.067,0,0,1,.623,1.873l-.728,4.1,3.952-1.995a2.066,2.066,0,0,1,.931-.221Z" transform="translate(-39.746 -344.163)"/>
    </g>
  </g>
</svg>
