<svg xmlns="http://www.w3.org/2000/svg" width="294.999" height="216.486" viewBox="0 0 294.999 216.486">
  <g id="Grupo_145569" data-name="Grupo 145569" transform="translate(-180 -397)">
    <path id="Trazado_196482" data-name="Trazado 196482" d="M4251.481,567.481c-7.335-31.024-9.1-115.833,54.72-130.736,67.923-15.862,102.711-5.844,143.715,33.206,0,0,73.506-1.044,91.232,71.867,16.1,66.209-79.046,105.04-179.985,104.2C4314.2,645.623,4262.319,613.327,4251.481,567.481Z" transform="translate(-4067.939 -32.543)" fill="#f6e49d"/>
    <g id="Grupo_131976" data-name="Grupo 131976" transform="translate(186.998 417.337)">
      <g id="Grupo_131975" data-name="Grupo 131975" transform="translate(0 0)">
        <rect id="Rectángulo_42036" data-name="Rectángulo 42036" width="15.871" height="123.654" transform="translate(197.281 0)" fill="#9bc1f9" opacity="0.6"/>
        <rect id="Rectángulo_42037" data-name="Rectángulo 42037" width="15.871" height="85.374" transform="translate(170.347 38.28)" fill="#9bc1f9" opacity="0.6"/>
        <rect id="Rectángulo_42038" data-name="Rectángulo 42038" width="15.871" height="96.229" transform="translate(231.928 27.425)" fill="#9bc1f9" opacity="0.6"/>
        <rect id="Rectángulo_42039" data-name="Rectángulo 42039" width="15.871" height="100.014" transform="translate(143.413 23.641)" fill="#9bc1f9" opacity="0.6"/>
        <rect id="Rectángulo_42040" data-name="Rectángulo 42040" width="15.871" height="70.36" transform="translate(116.479 53.294)" fill="#9bc1f9" opacity="0.6"/>
        <g id="Grupo_131942" data-name="Grupo 131942" transform="translate(142.951 29.122)">
          <rect id="Rectángulo_42041" data-name="Rectángulo 42041" width="15.871" height="94.532" transform="translate(66.494)" fill="#9bc1f9" opacity="0.3" style="mix-blend-mode: multiply;isolation: isolate"/>
          <rect id="Rectángulo_42042" data-name="Rectángulo 42042" width="15.871" height="65.698" transform="translate(44.329 28.835)" fill="#9bc1f9" opacity="0.3" style="mix-blend-mode: multiply;isolation: isolate"/>
          <rect id="Rectángulo_42043" data-name="Rectángulo 42043" width="15.871" height="74.051" transform="translate(88.977 20.481)" fill="#9bc1f9" opacity="0.3" style="mix-blend-mode: multiply;isolation: isolate"/>
          <rect id="Rectángulo_42044" data-name="Rectángulo 42044" width="15.871" height="76.963" transform="translate(22.164 17.569)" fill="#9bc1f9" opacity="0.3" style="mix-blend-mode: multiply;isolation: isolate"/>
          <rect id="Rectángulo_42045" data-name="Rectángulo 42045" width="15.871" height="54.144" transform="translate(0 40.388)" fill="#9bc1f9" opacity="0.3" style="mix-blend-mode: multiply;isolation: isolate"/>
        </g>
        <path id="Trazado_196399" data-name="Trazado 196399" d="M1548.1,308.447l-12.646,9.564,4.824.308-30.189,53.132-16.715-25.06-23.646,55.154-15.209-21.6-18.957,26.8,1.193,4.8,17.756-24.977,16.077,22.835,23.559-54.952,16.218,24.315,33.422-58.823,3.1,3.337Z" transform="translate(-1292.582 -307.507)" fill="#5183bf"/>
        <g id="Grupo_131944" data-name="Grupo 131944" transform="translate(11.514 33.042)">
          <path id="Trazado_196400" data-name="Trazado 196400" d="M440.247,758.656c-18.148-14.452-33.4-33.144-44.942-55.092l-24.961,20.051c13.349,25.377,30.98,46.989,51.963,63.7Z" transform="translate(-370.344 -703.564)" fill="#85a59e"/>
          <path id="Trazado_196401" data-name="Trazado 196401" d="M443.694,769.735l-15.505,12.654a5.849,5.849,0,0,1-1.049,6.961,198.268,198.268,0,0,0,43.568,53.407,3.972,3.972,0,0,1,5.936-.971l11.313-17.794c-1.745-1.416-1.995-4.311-.6-6.411a174.108,174.108,0,0,1-38.26-46.9A3.384,3.384,0,0,1,443.694,769.735Z" transform="translate(-422.641 -764.494)" fill="#d2e8c2"/>
          <g id="Grupo_131943" data-name="Grupo 131943" transform="translate(24.376 32.483)">
            <path id="Trazado_196402" data-name="Trazado 196402" d="M695.7,1133.91c3.875-5,3.838-12.378.182-16.791s-9.927-4.609-14.259-.159a13.382,13.382,0,0,0-.618,17.291C685.119,1139.212,691.831,1138.9,695.7,1133.91Z" transform="translate(-678.134 -1113.719)" fill="#7dc2b2"/>
            <path id="Trazado_196403" data-name="Trazado 196403" d="M746.055,1168.567l-1.461,1.622a4.994,4.994,0,0,1-.338,5.783c-1.268,1.452-2.688,1.586-4.852.3-1.572-.888-2.327-1.15-2.806-.631-.405.438-.54,1.233.319,2.319a5.927,5.927,0,0,0,1.346,1.26,1.455,1.455,0,0,1,.385,1.848h0a1.044,1.044,0,0,1-1.55.45,8.275,8.275,0,0,1-1.417-1.315l-1.264,1.394q-.662-.83-1.316-1.668l1.376-1.491c-1.113-2.149-.891-4.285.4-5.64,1.425-1.5,3.074-1.037,4.963.148,1.31.818,2.07.947,2.612.343.572-.637.386-1.609-.335-2.528a6.423,6.423,0,0,0-1.635-1.469,1.394,1.394,0,0,1-.333-1.847l.041-.07a1.049,1.049,0,0,1,1.482-.455,8.707,8.707,0,0,1,1.793,1.6l1.372-1.5Q745.442,1167.8,746.055,1168.567Z" transform="translate(-728.748 -1162.566)" fill="#85a59e"/>
            <path id="Trazado_196404" data-name="Trazado 196404" d="M918.674,1400.384q-6.2-5.312-11.946-11.247l-1.967,2.558q5.819,6.012,12.114,11.4Z" transform="translate(-886.813 -1367.325)" fill="#50bfa5"/>
          </g>
        </g>
        <g id="Grupo_131946" data-name="Grupo 131946" transform="translate(0 59.828)">
          <path id="Trazado_196405" data-name="Trazado 196405" d="M302.683,1064.266a176.4,176.4,0,0,1-65.889-22.478L224.966,1069.5a203.956,203.956,0,0,0,76.183,25.99Q301.916,1079.878,302.683,1064.266Z" transform="translate(-224.966 -1041.788)" fill="#85a59e"/>
          <path id="Trazado_196406" data-name="Trazado 196406" d="M279.607,1096.652l-7.25,17.372a5.122,5.122,0,0,1,2.494,6.02,202.47,202.47,0,0,0,63.875,21.791,3.988,3.988,0,0,1,4.67-3.576q.551-9.734,1.1-19.469a4.464,4.464,0,0,1-3.651-4.806,177.8,177.8,0,0,1-56.092-19.136A3.515,3.515,0,0,1,279.607,1096.652Z" transform="translate(-268.604 -1090.646)" fill="#d2e8c2"/>
          <g id="Grupo_131945" data-name="Grupo 131945" transform="translate(31.435 19.842)">
            <path id="Trazado_196407" data-name="Trazado 196407" d="M642.751,1306.261a12.383,12.383,0,0,0-8.052-13.412,9.568,9.568,0,0,0-12.435,6.614c-1.576,5.569,1.925,12.029,7.919,14.014S641.842,1312.052,642.751,1306.261Z" transform="translate(-621.886 -1292.325)" fill="#7dc2b2"/>
            <path id="Trazado_196408" data-name="Trazado 196408" d="M704.951,1320.057l-.473,1.977c2.054,1.144,2.919,3.011,2.535,4.749s-1.554,2.529-4.056,2.534c-1.8.038-2.579.187-2.74.826-.137.539.135,1.234,1.411,1.689a6.2,6.2,0,0,0,1.782.364,1.346,1.346,0,0,1,1.237,1.285h0a1.029,1.029,0,0,1-1.124,1.09,8.655,8.655,0,0,1-1.871-.374l-.413,1.7q-.98-.346-1.956-.7l.463-1.833c-2.015-1.179-2.868-2.979-2.411-4.665.5-1.862,2.157-2.276,4.374-2.229,1.535.03,2.256-.227,2.432-.963.184-.777-.453-1.46-1.527-1.848a6.739,6.739,0,0,0-2.135-.393,1.285,1.285,0,0,1-1.192-1.308c0-.025,0-.05,0-.075a1.032,1.032,0,0,1,1.061-1.062,9.152,9.152,0,0,1,2.334.418l.458-1.836Q704.043,1319.736,704.951,1320.057Z" transform="translate(-691.247 -1317.261)" fill="#85a59e"/>
          </g>
        </g>
        <path id="Trazado_196409" data-name="Trazado 196409" d="M955.395,728.477a14.112,14.112,0,0,1-1.623-.648,8.161,8.161,0,0,0-1.85-.695,4.471,4.471,0,0,0-3.753,1c-1.21,1.308-3.36.236-2.927,7.087.49,7.754,4.817,6.9,4.922,6.772s3.859-4.961,3.859-4.961,1.312,2.861,1.312,2.756S962.035,730.705,955.395,728.477Z" transform="translate(-876.021 -692.727)" fill="#0e2e35"/>
        <g id="Grupo_131948" data-name="Grupo 131948" transform="translate(13.488 87.425)">
          <path id="Trazado_196410" data-name="Trazado 196410" d="M453.591,1390.24a143.614,143.614,0,0,1-58.322,9.547l4.1,26.3a166.053,166.053,0,0,0,67.433-11.038Z" transform="translate(-395.269 -1390.24)" fill="#85a59e"/>
          <path id="Trazado_196411" data-name="Trazado 196411" d="M422.492,1438.542l2.691,16.417a4.861,4.861,0,0,1,4.58,3.641,164.8,164.8,0,0,0,56.539-9.255,3.3,3.3,0,0,1,1.761-4.679l-8.132-15.526a4.088,4.088,0,0,1-4.866-2.228,144.716,144.716,0,0,1-49.65,8.127A2.813,2.813,0,0,1,422.492,1438.542Z" transform="translate(-420.336 -1424.007)" fill="#d2e8c2"/>
          <g id="Grupo_131947" data-name="Grupo 131947" transform="translate(26.572 11.926)">
            <path id="Trazado_196412" data-name="Trazado 196412" d="M749.2,1548.046c-2-4.864-7.328-7.9-12.022-7.091s-7.435,5.242-6.025,10.208a11.124,11.124,0,0,0,12.2,7.612C748.641,1557.865,751.2,1552.9,749.2,1548.046Z" transform="translate(-730.787 -1540.826)" fill="#50bfa5"/>
            <path id="Trazado_196413" data-name="Trazado 196413" d="M792.957,1560.059l.563,1.725a4.152,4.152,0,0,1,4.027,2.64c.52,1.515.029,2.594-1.792,3.622-1.291.764-1.793,1.2-1.618,1.76.148.474.665.9,1.8.731a4.92,4.92,0,0,0,1.465-.447,1.209,1.209,0,0,1,1.491.489h0a.868.868,0,0,1-.319,1.3,6.87,6.87,0,0,1-1.535.476l.481,1.489q-.872.133-1.747.256l-.5-1.609a3.972,3.972,0,0,1-3.9-2.626c-.488-1.648.527-2.645,2.164-3.515,1.132-.6,1.54-1.1,1.33-1.74-.222-.676-1-.945-1.96-.807a5.346,5.346,0,0,0-1.735.569,1.158,1.158,0,0,1-1.469-.525l-.034-.059a.872.872,0,0,1,.286-1.256,7.244,7.244,0,0,1,1.893-.631l-.509-1.608Q792.149,1560.182,792.957,1560.059Z" transform="translate(-784.87 -1558.536)" fill="#3c8f7c"/>
            <path id="Trazado_196414" data-name="Trazado 196414" d="M1003.449,1569.26q-6.4,2.268-13.055,3.946l1.028,2.477q6.744-1.7,13.238-4Z" transform="translate(-969.834 -1567.008)" fill="#50bfa5"/>
          </g>
        </g>
        <g id="Grupo_131950" data-name="Grupo 131950" transform="translate(53.085 114.384)">
          <path id="Trazado_196415" data-name="Trazado 196415" d="M758.053,1755.244v6.421c0,1.038,11.58,1.88,25.865,1.88s25.866-.842,25.866-1.88v-6.421Z" transform="translate(-758.053 -1753.297)" fill="#e59f39"/>
          <g id="Grupo_131949" data-name="Grupo 131949" transform="translate(0 1.948)">
            <path id="Trazado_196416" data-name="Trazado 196416" d="M776.771,1763.472v-8.228H758.053v6.421C758.053,1762.523,765.962,1763.247,776.771,1763.472Z" transform="translate(-758.053 -1755.244)" fill="#e8d074"/>
            <path id="Trazado_196417" data-name="Trazado 196417" d="M1005.4,1763.489c2.009.036,4.111.056,6.276.056,3.225,0,6.312-.043,9.16-.122v-8.179H1005.4Z" transform="translate(-985.814 -1755.244)" fill="#e8d074"/>
            <path id="Trazado_196418" data-name="Trazado 196418" d="M1213.385,1763.393c9.215-.288,15.67-.953,15.67-1.728v-6.421h-15.67Z" transform="translate(-1177.324 -1755.244)" fill="#e8d074"/>
          </g>
          <ellipse id="Elipse_6340" data-name="Elipse 6340" cx="25.865" cy="1.88" rx="25.865" ry="1.88" transform="translate(0)" fill="#e59f39"/>
          <path id="Trazado_196419" data-name="Trazado 196419" d="M858.3,1739.232c0,.72-9.536,1.3-21.3,1.3s-21.3-.583-21.3-1.3,9.536-1.3,21.3-1.3S858.3,1738.513,858.3,1739.232Z" transform="translate(-811.138 -1737.353)" fill="#f7cc7f"/>
        </g>
        <g id="Grupo_131952" data-name="Grupo 131952" transform="translate(47.521 107.59)">
          <path id="Trazado_196420" data-name="Trazado 196420" d="M702.176,1669.449v6.421c0,1.038,11.58,1.88,25.865,1.88s25.865-.842,25.865-1.88v-6.421Z" transform="translate(-702.176 -1667.501)" fill="#e59f39"/>
          <g id="Grupo_131951" data-name="Grupo 131951" transform="translate(0 1.948)">
            <path id="Trazado_196421" data-name="Trazado 196421" d="M720.894,1677.677v-8.228H702.176v6.421C702.176,1676.728,710.085,1677.452,720.894,1677.677Z" transform="translate(-702.176 -1669.449)" fill="#e8d074"/>
            <path id="Trazado_196422" data-name="Trazado 196422" d="M949.526,1677.694c2.009.036,4.111.056,6.276.056,3.225,0,6.312-.043,9.159-.121v-8.179H949.526Z" transform="translate(-929.937 -1669.449)" fill="#e8d074"/>
            <path id="Trazado_196423" data-name="Trazado 196423" d="M1157.508,1677.6c9.215-.288,15.67-.953,15.67-1.728v-6.421h-15.67Z" transform="translate(-1121.447 -1669.449)" fill="#e8d074"/>
          </g>
          <ellipse id="Elipse_6341" data-name="Elipse 6341" cx="25.865" cy="1.88" rx="25.865" ry="1.88" transform="translate(0)" fill="#e59f39"/>
          <path id="Trazado_196424" data-name="Trazado 196424" d="M802.426,1653.438c0,.72-9.536,1.3-21.3,1.3s-21.3-.583-21.3-1.3,9.536-1.3,21.3-1.3S802.426,1652.718,802.426,1653.438Z" transform="translate(-755.261 -1651.558)" fill="#f7cc7f"/>
        </g>
        <g id="Grupo_131954" data-name="Grupo 131954" transform="translate(51.228 100.614)">
          <path id="Trazado_196425" data-name="Trazado 196425" d="M739.405,1581.375v6.421c0,1.038,11.58,1.88,25.865,1.88s25.865-.842,25.865-1.88v-6.421Z" transform="translate(-739.405 -1579.427)" fill="#e59f39"/>
          <g id="Grupo_131953" data-name="Grupo 131953" transform="translate(0 1.948)">
            <path id="Trazado_196426" data-name="Trazado 196426" d="M758.123,1589.6v-8.228H739.405v6.421C739.405,1588.654,747.315,1589.378,758.123,1589.6Z" transform="translate(-739.405 -1581.375)" fill="#e8d074"/>
            <path id="Trazado_196427" data-name="Trazado 196427" d="M986.755,1589.62c2.009.036,4.111.056,6.276.056,3.225,0,6.312-.043,9.159-.121v-8.179H986.755Z" transform="translate(-967.166 -1581.375)" fill="#e8d074"/>
            <path id="Trazado_196428" data-name="Trazado 196428" d="M1194.737,1589.524c9.215-.288,15.67-.953,15.67-1.728v-6.421h-15.67Z" transform="translate(-1158.676 -1581.375)" fill="#e8d074"/>
          </g>
          <ellipse id="Elipse_6342" data-name="Elipse 6342" cx="25.865" cy="1.88" rx="25.865" ry="1.88" transform="translate(0)" fill="#e59f39"/>
          <path id="Trazado_196429" data-name="Trazado 196429" d="M839.655,1565.362c0,.72-9.536,1.3-21.3,1.3s-21.3-.583-21.3-1.3,9.536-1.3,21.3-1.3S839.655,1564.643,839.655,1565.362Z" transform="translate(-792.49 -1563.483)" fill="#f7cc7f"/>
        </g>
        <g id="Grupo_131956" data-name="Grupo 131956" transform="translate(47.521 93.587)">
          <path id="Trazado_196430" data-name="Trazado 196430" d="M702.176,1494.507v6.421c0,1.038,11.58,1.879,25.865,1.879s25.865-.841,25.865-1.879v-6.421Z" transform="translate(-702.176 -1492.559)" fill="#e59f39"/>
          <g id="Grupo_131955" data-name="Grupo 131955" transform="translate(0 1.948)">
            <path id="Trazado_196431" data-name="Trazado 196431" d="M720.894,1502.735v-8.228H702.176v6.421C702.176,1501.786,710.085,1502.51,720.894,1502.735Z" transform="translate(-702.176 -1494.507)" fill="#e8d074"/>
            <path id="Trazado_196432" data-name="Trazado 196432" d="M949.526,1502.752c2.009.036,4.111.055,6.276.055,3.225,0,6.312-.043,9.159-.121v-8.179H949.526Z" transform="translate(-929.937 -1494.507)" fill="#e8d074"/>
            <path id="Trazado_196433" data-name="Trazado 196433" d="M1157.508,1502.656c9.215-.287,15.67-.953,15.67-1.728v-6.421h-15.67Z" transform="translate(-1121.447 -1494.507)" fill="#e8d074"/>
          </g>
          <ellipse id="Elipse_6343" data-name="Elipse 6343" cx="25.865" cy="1.88" rx="25.865" ry="1.88" transform="translate(0)" fill="#e59f39"/>
          <path id="Trazado_196434" data-name="Trazado 196434" d="M802.426,1478.494c0,.72-9.536,1.3-21.3,1.3s-21.3-.583-21.3-1.3,9.536-1.3,21.3-1.3S802.426,1477.775,802.426,1478.494Z" transform="translate(-755.261 -1476.615)" fill="#f7cc7f"/>
        </g>
        <g id="Grupo_131958" data-name="Grupo 131958" transform="translate(216.243 113.91)">
          <path id="Trazado_196435" data-name="Trazado 196435" d="M2410.423,1748.316v6.175c0,1-11.136,1.808-24.874,1.808s-24.874-.809-24.874-1.808v-6.175Z" transform="translate(-2360.675 -1746.443)" fill="#e59f39"/>
          <g id="Grupo_131957" data-name="Grupo 131957" transform="translate(0 1.873)">
            <path id="Trazado_196436" data-name="Trazado 196436" d="M2761.529,1756.229v-7.913h18v6.175C2779.53,1755.316,2771.924,1756.012,2761.529,1756.229Z" transform="translate(-2729.782 -1748.316)" fill="#e8d074"/>
            <path id="Trazado_196437" data-name="Trazado 196437" d="M2578.371,1756.245c-1.932.035-3.954.054-6.035.054-3.1,0-6.07-.042-8.808-.117v-7.866h14.843Z" transform="translate(-2547.462 -1748.316)" fill="#e8d074"/>
            <path id="Trazado_196438" data-name="Trazado 196438" d="M2375.744,1756.153c-8.862-.277-15.069-.917-15.069-1.662v-6.175h15.069Z" transform="translate(-2360.675 -1748.316)" fill="#eab054"/>
          </g>
          <ellipse id="Elipse_6344" data-name="Elipse 6344" cx="24.874" cy="1.807" rx="24.874" ry="1.807" transform="translate(0)" fill="#e59f39"/>
          <path id="Trazado_196439" data-name="Trazado 196439" d="M2416.115,1732.918c0,.692,9.171,1.253,20.483,1.253s20.483-.561,20.483-1.253-9.17-1.253-20.483-1.253S2416.115,1732.226,2416.115,1732.918Z" transform="translate(-2411.724 -1731.111)" fill="#f7cc7f"/>
        </g>
        <g id="Grupo_131960" data-name="Grupo 131960" transform="translate(220.498 107.376)">
          <path id="Trazado_196440" data-name="Trazado 196440" d="M2464.157,1665.811v6.175c0,1-11.136,1.807-24.874,1.807s-24.874-.809-24.874-1.807v-6.175Z" transform="translate(-2414.409 -1663.938)" fill="#e59f39"/>
          <g id="Grupo_131959" data-name="Grupo 131959" transform="translate(0 1.873)">
            <path id="Trazado_196441" data-name="Trazado 196441" d="M2815.264,1673.724v-7.913h18v6.175C2833.265,1672.811,2825.659,1673.507,2815.264,1673.724Z" transform="translate(-2783.517 -1665.811)" fill="#e8d074"/>
            <path id="Trazado_196442" data-name="Trazado 196442" d="M2632.105,1673.74c-1.932.035-3.954.053-6.035.053-3.1,0-6.07-.041-8.808-.117v-7.866h14.843Z" transform="translate(-2601.197 -1665.811)" fill="#e8d074"/>
            <path id="Trazado_196443" data-name="Trazado 196443" d="M2429.478,1673.648c-8.862-.276-15.069-.916-15.069-1.662v-6.175h15.069Z" transform="translate(-2414.409 -1665.811)" fill="#eab054"/>
          </g>
          <ellipse id="Elipse_6345" data-name="Elipse 6345" cx="24.874" cy="1.807" rx="24.874" ry="1.807" transform="translate(0)" fill="#e59f39"/>
          <ellipse id="Elipse_6346" data-name="Elipse 6346" cx="20.483" cy="1.253" rx="20.483" ry="1.253" transform="translate(4.391 0.554)" fill="#f7cc7f"/>
        </g>
        <g id="Grupo_131962" data-name="Grupo 131962" transform="translate(217.663 100.668)">
          <path id="Trazado_196444" data-name="Trazado 196444" d="M2428.354,1581.113v6.175c0,1-11.136,1.807-24.874,1.807s-24.874-.809-24.874-1.807v-6.175Z" transform="translate(-2378.607 -1579.24)" fill="#e59f39"/>
          <g id="Grupo_131961" data-name="Grupo 131961" transform="translate(0 1.873)">
            <path id="Trazado_196445" data-name="Trazado 196445" d="M2779.463,1589.026v-7.913h18v6.175C2797.464,1588.113,2789.857,1588.809,2779.463,1589.026Z" transform="translate(-2747.716 -1581.113)" fill="#e8d074"/>
            <path id="Trazado_196446" data-name="Trazado 196446" d="M2596.3,1589.042c-1.932.035-3.954.054-6.035.054-3.1,0-6.07-.041-8.808-.117v-7.866H2596.3Z" transform="translate(-2565.395 -1581.113)" fill="#e8d074"/>
            <path id="Trazado_196447" data-name="Trazado 196447" d="M2393.676,1588.95c-8.862-.276-15.069-.916-15.069-1.662v-6.175h15.069Z" transform="translate(-2378.607 -1581.113)" fill="#e8d074"/>
          </g>
          <ellipse id="Elipse_6347" data-name="Elipse 6347" cx="24.874" cy="1.807" rx="24.874" ry="1.807" transform="translate(0)" fill="#e59f39"/>
          <ellipse id="Elipse_6348" data-name="Elipse 6348" cx="20.483" cy="1.253" rx="20.483" ry="1.253" transform="translate(4.391 0.554)" fill="#f7cc7f"/>
        </g>
        <g id="Grupo_131964" data-name="Grupo 131964" transform="translate(220.498 93.905)">
          <path id="Trazado_196448" data-name="Trazado 196448" d="M2464.157,1497.576v6.175c0,1-11.136,1.807-24.874,1.807s-24.874-.809-24.874-1.807v-6.175Z" transform="translate(-2414.409 -1495.703)" fill="#e59f39"/>
          <g id="Grupo_131963" data-name="Grupo 131963" transform="translate(0 1.873)">
            <path id="Trazado_196449" data-name="Trazado 196449" d="M2815.264,1505.489v-7.912h18v6.175C2833.265,1504.576,2825.659,1505.272,2815.264,1505.489Z" transform="translate(-2783.517 -1497.576)" fill="#e8d074"/>
            <path id="Trazado_196450" data-name="Trazado 196450" d="M2632.105,1505.5c-1.932.035-3.954.053-6.035.053-3.1,0-6.07-.041-8.808-.117v-7.865h14.843Z" transform="translate(-2601.197 -1497.576)" fill="#e8d074"/>
            <path id="Trazado_196451" data-name="Trazado 196451" d="M2429.478,1505.413c-8.862-.277-15.069-.917-15.069-1.662v-6.175h15.069Z" transform="translate(-2414.409 -1497.576)" fill="#e8d074"/>
          </g>
          <ellipse id="Elipse_6349" data-name="Elipse 6349" cx="24.874" cy="1.807" rx="24.874" ry="1.807" transform="translate(0)" fill="#e59f39"/>
          <ellipse id="Elipse_6350" data-name="Elipse 6350" cx="20.483" cy="1.253" rx="20.483" ry="1.253" transform="translate(4.391 0.554)" fill="#f7cc7f"/>
        </g>
        <g id="Grupo_131966" data-name="Grupo 131966" transform="translate(238.294 75.902)">
          <path id="Trazado_196452" data-name="Trazado 196452" d="M2682.637,1262.874l-1.494,5.216c-.241.843-9.845-1.168-21.45-4.492s-20.818-6.7-20.576-7.546l1.494-5.216Z" transform="translate(-2639.112 -1250.589)" fill="#e59f39"/>
          <g id="Grupo_131965" data-name="Grupo 131965" transform="translate(0 0.248)">
            <path id="Trazado_196453" data-name="Trazado 196453" d="M2972.5,1354.517l1.915-6.684,15.207,4.356-1.494,5.216C2987.927,1358.1,2981.333,1356.85,2972.5,1354.517Z" transform="translate(-2946.095 -1340.151)" fill="#e8d074"/>
            <path id="Trazado_196454" data-name="Trazado 196454" d="M2817.9,1310.211c-1.641-.438-3.353-.912-5.111-1.415-2.62-.751-5.118-1.5-7.413-2.23l1.9-6.645,12.54,3.592Z" transform="translate(-2792.204 -1296.034)" fill="#e8d074"/>
            <path id="Trazado_196455" data-name="Trazado 196455" d="M2651.444,1261.1c-7.42-2.378-12.509-4.421-12.328-5.05l1.494-5.216,12.73,3.646Z" transform="translate(-2639.112 -1250.836)" fill="#e8d074"/>
          </g>
          <path id="Trazado_196456" data-name="Trazado 196456" d="M2658.182,1247.9c-.242.843,8.97,4.222,20.575,7.546s21.209,5.335,21.451,4.492-8.971-4.222-20.576-7.546S2658.424,1247.059,2658.182,1247.9Z" transform="translate(-2656.667 -1247.71)" fill="#e59f39"/>
          <path id="Trazado_196457" data-name="Trazado 196457" d="M2705.041,1262.239c-.167.585,7.444,3.278,17,6.015s17.439,4.483,17.607,3.9-7.444-3.278-17-6.015S2705.208,1261.655,2705.041,1262.239Z" transform="translate(-2699.817 -1260.985)" fill="#f7cc7f"/>
        </g>
        <g id="Grupo_131968" data-name="Grupo 131968" transform="translate(226.412 51.871)">
          <path id="Trazado_196458" data-name="Trazado 196458" d="M2531.147,949.5l1.591,5.188c.257.839-8.891,4.388-20.432,7.927s-21.106,5.729-21.363,4.89l-1.591-5.188Z" transform="translate(-2489.33 -949.27)" fill="#e59f39"/>
          <g id="Grupo_131967" data-name="Grupo 131967" transform="translate(0.022 0.234)">
            <path id="Trazado_196459" data-name="Trazado 196459" d="M2828.165,960.79l-2.039-6.648,15.123-4.638,1.591,5.188C2843.053,955.385,2836.842,957.929,2828.165,960.79Z" transform="translate(-2799.454 -949.504)" fill="#e8d074"/>
            <path id="Trazado_196460" data-name="Trazado 196460" d="M2674.29,1017.451c-1.614.527-3.308,1.064-5.057,1.6-2.605.8-5.11,1.529-7.43,2.172l-2.027-6.609,12.47-3.824Z" transform="translate(-2646.279 -1005.936)" fill="#e8d074"/>
            <path id="Trazado_196461" data-name="Trazado 196461" d="M2504.031,1068.906c-7.517,2.051-12.9,3.113-13.088,2.487l-1.591-5.188,12.66-3.883Z" transform="translate(-2489.352 -1053.387)" fill="#e8d074"/>
          </g>
          <path id="Trazado_196462" data-name="Trazado 196462" d="M2489.078,959.545c.257.839,9.821-1.351,21.363-4.89s20.689-7.089,20.432-7.927-9.822,1.351-21.363,4.89S2488.82,958.706,2489.078,959.545Z" transform="translate(-2489.072 -946.549)" fill="#e59f39"/>
          <path id="Trazado_196463" data-name="Trazado 196463" d="M2535.68,972.426c.178.581,8.028-1.31,17.532-4.225s17.064-5.749,16.885-6.33-8.027,1.31-17.531,4.225S2535.5,971.845,2535.68,972.426Z" transform="translate(-2531.986 -960.561)" fill="#f7cc7f"/>
        </g>
        <path id="Trazado_196464" data-name="Trazado 196464" d="M1295.066,1755.614s.615,3.262.615,3.269c.035.425.021,1.5.113,1.871.345,1.395,6.213-2,4.674-2.268a6.386,6.386,0,0,1-1.38-1.479,12.972,12.972,0,0,1-.772-2.155Z" transform="translate(-1192.892 -1638.551)" fill="#f7a491"/>
        <path id="Trazado_196465" data-name="Trazado 196465" d="M1295.208,1792.7a22.907,22.907,0,0,1-2.286.452c-.771.077-1.76-1.12-2.313-.894-.608.249-.94,4.049-.94,4.049s9.679.441,11.966-.191C1302.542,1795.866,1298.219,1793.855,1295.208,1792.7Z" transform="translate(-1187.51 -1672.969)" fill="#89939f"/>
        <path id="Trazado_196466" data-name="Trazado 196466" d="M1465.474,1753.735s.615,3.262.615,3.27c.034.425.022,1.5.114,1.871.345,1.4,6.1-1.772,4.566-2.045a8.708,8.708,0,0,1-1.272-1.7,12.935,12.935,0,0,1-.772-2.155Z" transform="translate(-1347.038 -1636.821)" fill="#f7a491"/>
        <path id="Trazado_196467" data-name="Trazado 196467" d="M1463.737,1792.7a22.92,22.92,0,0,1-2.286.452c-.771.077-1.76-1.12-2.313-.894-.609.249-.94,4.049-.94,4.049s9.679.441,11.966-.191C1471.071,1795.866,1466.748,1793.855,1463.737,1792.7Z" transform="translate(-1339.868 -1672.969)" fill="#89939f"/>
        <path id="Trazado_196468" data-name="Trazado 196468" d="M1038.11,1293.1l17.608-4.084s7.9-2.088,9.8.363,10,36.271,10,36.271a34.258,34.258,0,0,1-4.447.181l-9.773-17.346a15.131,15.131,0,0,1-1.8-5.335l-.693-4.967-7.17,2.088s-8.26,1.815-11.618-.272S1038.11,1293.1,1038.11,1293.1Z" transform="translate(-958.033 -1208.847)" fill="#727997"/>
        <path id="Trazado_196469" data-name="Trazado 196469" d="M1096.166,966.929c.278.012,1.04.266,2.155,2.365,1.423,2.681,3.5,10.778,3.5,10.778l-6.209,2.3-.8-1.69-1.314-13.012S1096.089,966.926,1096.166,966.929Z" transform="translate(-1010.409 -913.442)" fill="#a9adec"/>
        <path id="Trazado_196470" data-name="Trazado 196470" d="M895.458,952.191a38.043,38.043,0,0,1,8.208,1.168s1.5,12.83-1.349,22.579c-.637,2.182.527,9.047.527,9.047l-18.4-.242s2.179-16.6,1.358-19.276-.841-12.022-.841-12.022.126-.02,4.133-.71A41.778,41.778,0,0,1,895.458,952.191Z" transform="translate(-820.782 -899.806)" fill="#cacdf3"/>
        <path id="Trazado_196471" data-name="Trazado 196471" d="M855.1,985.808c1.72-.643,2.562,14.8,2.794,21.161a75.183,75.183,0,0,0,9.678-.1c.622-.047,2.055-.57,2.674-.651a6.211,6.211,0,0,1,1.52-.072,28.708,28.708,0,0,1,3.561,1.6c.337.352,1.247,1.24,1.094,1.624s-1.751-1.07-1.751-1.07l-.781-.437c.972.946,2.826,2.193,2.559,2.647s-1.933-.822-3.125-1.684c1.022.92,2.293,2.567,2,2.824-.263.231-1.708-1.676-3.252-2.225-.572-.2-1.143.36-1.593.428a3.248,3.248,0,0,1-1.166.065l-1.551-.15a8.08,8.08,0,0,0-1.28.186c-.668.141-1.763.291-2.613.5-4.9,1.192-6.529,1.746-8.028,1.745C851.3,1012.2,851.035,987.327,855.1,985.808Z" transform="translate(-791.438 -930.751)" fill="#f7a491"/>
        <path id="Trazado_196472" data-name="Trazado 196472" d="M845.79,983.528c-.322-6.512-.275-14.539,3.388-15.908,1.445-.541,3.993,2.708,3.535,16.041A27.617,27.617,0,0,1,845.79,983.528Z" transform="translate(-786.336 -914.024)" fill="#a9adec"/>
        <path id="Trazado_196473" data-name="Trazado 196473" d="M980.709,1118.858l-17.333,1.132a1.132,1.132,0,0,0-1,.77l-4.487,13.365-9.556.624a.485.485,0,0,0-.452.515h0a.485.485,0,0,0,.516.452l27.2-1.776a1.9,1.9,0,0,0,1.659-1.234l4.592-12.322A1.133,1.133,0,0,0,980.709,1118.858Z" transform="translate(-877.191 -1053.24)" fill="#eb954f"/>
        <path id="Trazado_196474" data-name="Trazado 196474" d="M1231.328,1209.962a.956.956,0,1,1-.884-1.135A1.022,1.022,0,0,1,1231.328,1209.962Z" transform="translate(-1133.791 -1136.098)" fill="#fff"/>
        <path id="Trazado_196475" data-name="Trazado 196475" d="M882.732,1315.62l19.188-3.313s8.3-1.264,10.2,1.187,7.442,34.217,7.442,34.217a34.3,34.3,0,0,1-4.447.182c-.211-.141-5.266-10.731-7.536-15.5a18.138,18.138,0,0,1-1.506-4.775l-.729-4.324-2.415.831a29.472,29.472,0,0,1-13.217,1.414,12.437,12.437,0,0,1-4.684-1.3C881.671,1322.15,882.732,1315.62,882.732,1315.62Z" transform="translate(-818.088 -1230.755)" fill="#727997"/>
        <path id="Trazado_196476" data-name="Trazado 196476" d="M980.967,871.9l.374,2.771s.837,3.992-.24,4.761-4.577-4.875-4.577-4.875l.37-7.021Z" transform="translate(-904.792 -821.987)" fill="#f7a491"/>
        <path id="Trazado_196477" data-name="Trazado 196477" d="M979.684,869.807a7.964,7.964,0,0,0,4.51,4.438l-.317-2.349-4.074-4.364Z" transform="translate(-907.684 -822.001)" fill="#f47458"/>
        <path id="Trazado_196478" data-name="Trazado 196478" d="M975.185,770.515a3.7,3.7,0,0,1,4.269,3.736,27.993,27.993,0,0,1-.312,3.554c-.5,3.2-2.686,6.015-4.133,5.763s-5.091-3.011-4.449-7.562C970.955,773.2,972.791,770.9,975.185,770.515Z" transform="translate(-899.123 -732.662)" fill="#f7a491"/>
        <path id="Trazado_196479" data-name="Trazado 196479" d="M959.627,830.2a1.079,1.079,0,1,1-.82-1.455A1.193,1.193,0,0,1,959.627,830.2Z" transform="translate(-887.757 -786.306)" fill="#f7a491"/>
        <path id="Trazado_196480" data-name="Trazado 196480" d="M967.334,762.754s1.75.434,2.4-.689,2.973-3.543,5.926-2.539-2.6-2.441-2.835-2.441-3.071-.02-3.071-.02-2.185,1.791-2.264,1.988-.709,2.343-.709,2.343Z" transform="translate(-895.733 -720.346)" fill="#0e2e35"/>
        <g id="Grupo_131970" data-name="Grupo 131970" transform="translate(181.996 107.625)">
          <rect id="Rectángulo_42046" data-name="Rectángulo 42046" width="43.575" height="15.86" transform="translate(43.575 15.86) rotate(180)" fill="#aacb91"/>
          <g id="Grupo_131969" data-name="Grupo 131969" transform="translate(0 0)">
            <rect id="Rectángulo_42047" data-name="Rectángulo 42047" width="43.575" height="2.04" transform="translate(43.575 4.351) rotate(180)" fill="#b0d495"/>
            <rect id="Rectángulo_42048" data-name="Rectángulo 42048" width="43.575" height="2.04" transform="translate(43.575 8.337) rotate(180)" fill="#b0d495"/>
            <rect id="Rectángulo_42049" data-name="Rectángulo 42049" width="43.575" height="2.04" transform="translate(43.575 12.322) rotate(180)" fill="#b0d495"/>
            <rect id="Rectángulo_42050" data-name="Rectángulo 42050" width="43.575" height="2.04" transform="translate(43.575 15.86) rotate(180)" fill="#b0d495"/>
            <rect id="Rectángulo_42051" data-name="Rectángulo 42051" width="9.063" height="15.86" transform="translate(25.284 15.86) rotate(180)" fill="#fedbbe"/>
          </g>
          <rect id="Rectángulo_42052" data-name="Rectángulo 42052" width="6.581" height="15.86" transform="translate(49.627 15.86) rotate(180)" fill="#507038"/>
        </g>
      </g>
    </g>
  </g>
</svg>
