<svg xmlns="http://www.w3.org/2000/svg" xmlns:xlink="http://www.w3.org/1999/xlink" width="535" height="430" viewBox="0 0 535 430">
  <defs>
    <filter id="Trazado_200119" x="0" y="0" width="535" height="430" filterUnits="userSpaceOnUse">
      <feOffset dy="3" input="SourceAlpha"/>
      <feGaussianBlur stdDeviation="5" result="blur"/>
      <feFlood flood-opacity="0.161"/>
      <feComposite operator="in" in2="blur"/>
      <feComposite in="SourceGraphic"/>
    </filter>
    <clipPath id="clip-path">
      <rect id="Rectángulo_42533" data-name="Rectángulo 42533" width="162.399" height="94.984" rx="16.81" transform="translate(0 125.293) rotate(-50.49)" fill="none"/>
    </clipPath>
    <clipPath id="clip-path-2">
      <path id="Trazado_200875" data-name="Trazado 200875" d="M549.857,299.4,425.9,353.131a10.85,10.85,0,0,1-14.324-5.859l-27.35-65.25a11.172,11.172,0,0,1,5.762-14.567L513.945,213.72a10.85,10.85,0,0,1,14.324,5.859l27.35,65.25A11.174,11.174,0,0,1,549.857,299.4Z" transform="translate(-383.351 -212.827)" fill="none"/>
    </clipPath>
    <clipPath id="clip-path-3">
      <path id="Trazado_200881" data-name="Trazado 200881" d="M438.429,336.1l-19.489,8.443a4.348,4.348,0,0,1-5.74-2.35l-4.639-11.075a4.479,4.479,0,0,1,2.31-5.838l19.489-8.442a4.349,4.349,0,0,1,5.74,2.349l4.639,11.076A4.477,4.477,0,0,1,438.429,336.1Z" transform="translate(-408.21 -316.477)" fill="none"/>
    </clipPath>
    <clipPath id="clip-path-4">
      <path id="Trazado_200894" data-name="Trazado 200894" d="M400.229,392.984,352.383,395.9l-32.1-41.9,13.748-21.582,18.231-38.092,49.217,33.961,44.285-7.507.817,29.416Z" transform="translate(-320.286 -294.328)" fill="none"/>
    </clipPath>
  </defs>
  <g id="Grupo_145575" data-name="Grupo 145575" transform="translate(-795 -1230.71)">
    <g transform="matrix(1, 0, 0, 1, 795, 1230.71)" filter="url(#Trazado_200119)">
      <path id="Trazado_200119-2" data-name="Trazado 200119" d="M34.695,0H470.305C489.467,0,505,9.651,505,21.557V378.443C505,390.349,489.467,400,470.305,400H34.695C15.533,400,0,390.349,0,378.443V21.557C0,9.651,15.533,0,34.695,0Z" transform="translate(15 12)" fill="#feeada"/>
    </g>
    <path id="Trazado_210666" data-name="Trazado 210666" d="M2,62H505a32,32,0,0,1-32,32H32A32,32,0,0,1,0,62Z" transform="translate(809 1548.71)" fill="#fbdb5e"/>
    <g id="Grupo_139073" data-name="Grupo 139073" transform="translate(761.486 1223.709)">
      <g id="Grupo_139072" data-name="Grupo 139072" transform="translate(129.514 50.551)">
        <g id="Grupo_139018" data-name="Grupo 139018" transform="translate(62.565 31.824)">
          <g id="Grupo_139017" data-name="Grupo 139017">
            <path id="Trazado_200803" data-name="Trazado 200803" d="M264.378,148.374" transform="translate(-242.838 -114.981)" fill="none" stroke="#080022" stroke-linecap="round" stroke-linejoin="round" stroke-width="1.85"/>
            <path id="Trazado_200804" data-name="Trazado 200804" d="M309.184,168.851c-22.72-19.184-54.079-12.9-76.785-32.073L248.264,98.8c22.706,19.172,54.065,12.89,76.785,32.074Z" transform="translate(-232.399 -98.798)" fill="#afe684" stroke="rgba(0,0,0,0)" stroke-width="1"/>
            <g id="Grupo_139014" data-name="Grupo 139014" style="mix-blend-mode: multiply;isolation: isolate">
              <path id="Trazado_200805" data-name="Trazado 200805" d="M322.881,131.163q-7.2,17.247-14.408,34.494c-22.223-17.148-51.693-12.031-73.9-29.17l14.408-34.494c22.211,17.139,51.681,12.022,73.9,29.17m2.168-.291c-22.72-19.184-54.079-12.9-76.785-32.074L232.4,136.778c22.706,19.171,54.065,12.889,76.785,32.073l15.865-37.979Z" transform="translate(-232.399 -98.798)" fill="#78cf45"/>
            </g>
            <path id="Trazado_200806" data-name="Trazado 200806" d="M244.77,142.075a33.923,33.923,0,0,1-4.689-3.476l11.456-27.426a33.922,33.922,0,0,0,4.689,3.476Z" transform="translate(-234.907 -102.838)" fill="#299c90" opacity="0.47" style="mix-blend-mode: multiply;isolation: isolate"/>
            <path id="Trazado_200807" data-name="Trazado 200807" d="M342.528,175.718a34,34,0,0,0-4.7-3.446l11.457-27.426a33.97,33.97,0,0,1,4.7,3.445Z" transform="translate(-266.813 -113.829)" fill="#299c90" opacity="0.47" style="mix-blend-mode: multiply;isolation: isolate"/>
            <g id="Grupo_139016" data-name="Grupo 139016" transform="translate(30.406 21.274)">
              <path id="Trazado_200808" data-name="Trazado 200808" d="M307.712,147.05c-3.336,7.608-12.082,11.765-20.2,10.494a11.729,11.729,0,0,1-8.93-16.488c3.33-7.6,12.07-11.716,20.18-10.446A11.7,11.7,0,0,1,307.712,147.05Z" transform="translate(-277.54 -130.382)" fill="#78cf45" style="mix-blend-mode: multiply;isolation: isolate"/>
              <g id="Grupo_139015" data-name="Grupo 139015" transform="translate(7.263 4.353)">
                <path id="Trazado_200809" data-name="Trazado 200809" d="M295.076,153.234l-.9,2.166-2.115-.372.874-2.109a8.541,8.541,0,0,1-4.613-2.5l2.136-2.141a7.158,7.158,0,0,0,3.527,2.111l1.338-3.23c-2.131-.936-4.446-2.139-3.3-4.9.85-2.05,3.2-3.5,6.683-3.258.356-.859.534-1.289.89-2.147l2.115.372-.874,2.108a8.279,8.279,0,0,1,3.8,1.951l-2.04,2.186a7.36,7.36,0,0,0-2.816-1.584l-1.363,3.288c2.139.917,4.414,2.108,3.284,4.836C300.868,152.015,298.548,153.451,295.076,153.234Zm1.428-8.922,1.138-2.747a2.17,2.17,0,0,0-2.158,1.155C295.2,143.4,295.685,143.877,296.5,144.312Zm1.705,5.3c.28-.677-.18-1.153-.969-1.6l-1.106,2.669C297.279,150.654,297.952,150.234,298.209,149.615Z" transform="translate(-288.323 -136.845)" fill="#78cf45"/>
              </g>
            </g>
            <path id="Trazado_200810" data-name="Trazado 200810" d="M277.712,130.032c-5.87-1.546-8.74-2.475-14.012-5.451l1.174-2.812c5.936,3.35,9.2,4.3,15.865,5.918C279.526,128.632,278.92,129.1,277.712,130.032Z" transform="translate(-242.617 -106.296)" fill="#299c90" opacity="0.47" style="mix-blend-mode: multiply;isolation: isolate"/>
            <path id="Trazado_200811" data-name="Trazado 200811" d="M341.612,146.857c-5.436-3.075-8.4-4.014-14.47-5.581-.269-1.315-.405-1.97-.681-3.272,6.858,1.633,10.227,2.591,16.325,6.041Z" transform="translate(-263.103 -111.596)" fill="#299c90" opacity="0.47" style="mix-blend-mode: multiply;isolation: isolate"/>
            <path id="Trazado_200812" data-name="Trazado 200812" d="M272.648,137.256a46.88,46.88,0,0,1-12.177-4.945l1.175-2.812a46.849,46.849,0,0,0,12.177,4.945Z" transform="translate(-241.563 -108.819)" fill="#299c90" opacity="0.47" style="mix-blend-mode: multiply;isolation: isolate"/>
            <path id="Trazado_200813" data-name="Trazado 200813" d="M339.827,154.987a46.775,46.775,0,0,0-12.173-4.955c.1-1.23.156-1.844.259-3.069A47.786,47.786,0,0,1,341,152.175Z" transform="translate(-263.493 -114.52)" fill="#299c90" opacity="0.47" style="mix-blend-mode: multiply;isolation: isolate"/>
            <path id="Trazado_200814" data-name="Trazado 200814" d="M268.508,144.716a45.856,45.856,0,0,1-11.265-4.678l1.175-2.811a45.881,45.881,0,0,0,11.265,4.677Z" transform="translate(-240.509 -111.342)" fill="#299c90" opacity="0.47" style="mix-blend-mode: multiply;isolation: isolate"/>
            <path id="Trazado_200815" data-name="Trazado 200815" d="M336.819,162.906a46.252,46.252,0,0,0-11.717-4.821l1.175-2.812a46.287,46.287,0,0,1,11.717,4.821Z" transform="translate(-262.66 -117.233)" fill="#299c90" opacity="0.47" style="mix-blend-mode: multiply;isolation: isolate"/>
            <path id="Trazado_200816" data-name="Trazado 200816" d="M267.107,152.971a47.866,47.866,0,0,1-13.093-5.2l1.175-2.812a46.849,46.849,0,0,0,12.177,4.945C267.261,151.131,267.209,151.745,267.107,152.971Z" transform="translate(-239.455 -113.865)" fill="#299c90" opacity="0.47" style="mix-blend-mode: multiply;isolation: isolate"/>
            <path id="Trazado_200817" data-name="Trazado 200817" d="M332.926,170.57a47.773,47.773,0,0,0-13.089-5.213c.837-1.023,1.255-1.534,2.09-2.554a46.756,46.756,0,0,1,12.173,4.954Z" transform="translate(-260.941 -119.691)" fill="#299c90" opacity="0.47" style="mix-blend-mode: multiply;isolation: isolate"/>
            <path id="Trazado_200818" data-name="Trazado 200818" d="M267.582,161.637c-7.057-1.646-10.529-2.6-16.8-6.14l1.175-2.811c5.6,3.162,8.672,4.107,14.936,5.689C267.168,159.685,267.3,160.337,267.582,161.637Z" transform="translate(-238.401 -116.388)" fill="#299c90" opacity="0.47" style="mix-blend-mode: multiply;isolation: isolate"/>
            <path id="Trazado_200819" data-name="Trazado 200819" d="M327.677,177.882c-6.429-3.637-10-4.6-17.258-6.259,1.217-.954,1.825-1.427,3.036-2.368,6.461,1.6,9.629,2.553,15.4,5.815Z" transform="translate(-257.867 -121.797)" fill="#299c90" opacity="0.47" style="mix-blend-mode: multiply;isolation: isolate"/>
          </g>
        </g>
        <g id="Grupo_139023" data-name="Grupo 139023" transform="translate(26.694 42.671)">
          <g id="Grupo_139022" data-name="Grupo 139022">
            <path id="Trazado_200820" data-name="Trazado 200820" d="M212.9,166.056" transform="translate(-190.164 -131.6)" fill="none" stroke="#080022" stroke-linecap="round" stroke-linejoin="round" stroke-width="2.016"/>
            <path id="Trazado_200821" data-name="Trazado 200821" d="M233.291,214.428c-10.36-30.69-43.788-42.058-54.147-72.743l35.98-26.783c10.359,30.685,43.787,42.054,54.147,72.744Z" transform="translate(-179.144 -114.902)" fill="#afe684"/>
            <g id="Grupo_139019" data-name="Grupo 139019" style="mix-blend-mode: multiply;isolation: isolate">
              <path id="Trazado_200822" data-name="Trazado 200822" d="M267.077,186.713,234.4,211.037c-11.061-28.508-42-39.916-53.06-68.42l32.678-24.324c11.06,28.5,42,39.912,53.06,68.42m2.194.933c-10.36-30.69-43.788-42.059-54.147-72.744l-35.98,26.783c10.359,30.685,43.787,42.053,54.147,72.743l35.98-26.782Z" transform="translate(-179.144 -114.902)" fill="#afe684"/>
            </g>
            <path id="Trazado_200823" data-name="Trazado 200823" d="M190.638,152.339a36.984,36.984,0,0,1-2.464-5.865l25.982-19.34A36.988,36.988,0,0,0,216.62,133Z" transform="translate(-182.092 -118.895)" fill="#299c90" opacity="0.47" style="mix-blend-mode: multiply;isolation: isolate"/>
            <path id="Trazado_200824" data-name="Trazado 200824" d="M263.572,238.209a37.007,37.007,0,0,0-2.492-5.843l25.982-19.34a37.033,37.033,0,0,1,2.492,5.843Z" transform="translate(-205.89 -146.932)" fill="#299c90" opacity="0.47" style="mix-blend-mode: multiply;isolation: isolate"/>
            <g id="Grupo_139021" data-name="Grupo 139021" transform="translate(27.336 35.3)">
              <path id="Trazado_200825" data-name="Trazado 200825" d="M249.194,192.427c-7.115,5.411-18.275,3.859-24.768-1.391a12.8,12.8,0,0,1,.795-20.419c6.951-4.883,18.1-4.318,24.722,1.425A12.979,12.979,0,0,1,249.194,192.427Z" transform="translate(-219.727 -167.31)" fill="#afe684" style="mix-blend-mode: multiply;isolation: isolate"/>
              <g id="Grupo_139020" data-name="Grupo 139020" transform="translate(7.296 6.931)">
                <path id="Trazado_200826" data-name="Trazado 200826" d="M235.322,190.624l-2.046,1.532c-.711-.61-1.066-.914-1.776-1.524l1.991-1.491a9.307,9.307,0,0,1-2.932-4.911l3.192-.82a7.8,7.8,0,0,0,2.133,3.94l3.05-2.283c-1.477-2.062-2.98-4.477-.368-6.432,1.937-1.45,4.942-1.5,8.075.66l2.028-1.518,1.775,1.524-1.99,1.491a9.024,9.024,0,0,1,2.476,3.94l-3.127.915a8.032,8.032,0,0,0-1.759-3.049l-3.105,2.325c1.5,2.048,2.966,4.429.39,6.357C241.429,192.7,238.456,192.758,235.322,190.624Zm6.3-7.569,2.594-1.942a2.362,2.362,0,0,0-2.664-.118C240.91,181.474,241.094,182.192,241.619,183.055Zm-1.349,5.919c.639-.478.472-1.181-.018-2.042l-2.521,1.887A2.26,2.26,0,0,0,240.271,188.974Z" transform="translate(-230.559 -177.599)" fill="#afe684"/>
              </g>
            </g>
            <path id="Trazado_200827" data-name="Trazado 200827" d="M234.841,156.59c-4.643-4.712-6.817-7.178-10.106-12.9l2.664-1.983c3.7,6.439,6.236,9.15,11.581,14.366C237.318,156.286,236.49,156.389,234.841,156.59Z" transform="translate(-194.026 -123.653)" fill="#299c90" opacity="0.47" style="mix-blend-mode: multiply;isolation: isolate"/>
            <path id="Trazado_200828" data-name="Trazado 200828" d="M285.57,207.561c-3.387-5.9-5.647-8.434-10.461-13.274.479-1.383.715-2.072,1.181-3.445a63.64,63.64,0,0,1,11.944,14.736Z" transform="translate(-210.47 -139.691)" fill="#299c90" opacity="0.47" style="mix-blend-mode: multiply;isolation: isolate"/>
            <path id="Trazado_200829" data-name="Trazado 200829" d="M226.078,160.547a51.075,51.075,0,0,1-8.665-11.4l2.664-1.983a51.074,51.074,0,0,0,8.665,11.4Z" transform="translate(-191.636 -125.432)" fill="#299c90" opacity="0.47" style="mix-blend-mode: multiply;isolation: isolate"/>
            <path id="Trazado_200830" data-name="Trazado 200830" d="M279.123,214.26a50.948,50.948,0,0,0-8.657-11.41c.782-1.1,1.171-1.642,1.949-2.734a52.1,52.1,0,0,1,9.371,12.161Z" transform="translate(-208.954 -142.718)" fill="#299c90" opacity="0.47" style="mix-blend-mode: multiply;isolation: isolate"/>
            <path id="Trazado_200831" data-name="Trazado 200831" d="M218.051,165.239a50.015,50.015,0,0,1-7.96-10.646l2.664-1.983a50.014,50.014,0,0,0,7.96,10.646Z" transform="translate(-189.246 -127.211)" fill="#299c90" opacity="0.47" style="mix-blend-mode: multiply;isolation: isolate"/>
            <path id="Trazado_200832" data-name="Trazado 200832" d="M271.971,220.258a50.411,50.411,0,0,0-8.3-11.032l2.664-1.982a50.392,50.392,0,0,1,8.3,11.032Z" transform="translate(-206.735 -145.045)" fill="#299c90" opacity="0.47" style="mix-blend-mode: multiply;isolation: isolate"/>
            <path id="Trazado_200833" data-name="Trazado 200833" d="M212.149,172.2a52.143,52.143,0,0,1-9.38-12.154l2.664-1.983a51.056,51.056,0,0,0,8.665,11.4Z" transform="translate(-186.856 -128.99)" fill="#299c90" opacity="0.47" style="mix-blend-mode: multiply;isolation: isolate"/>
            <path id="Trazado_200834" data-name="Trazado 200834" d="M264.131,225.524a52.058,52.058,0,0,0-9.371-12.161l3.379-1.232a50.965,50.965,0,0,1,8.656,11.41Z" transform="translate(-203.827 -146.64)" fill="#299c90" opacity="0.47" style="mix-blend-mode: multiply;isolation: isolate"/>
            <path id="Trazado_200835" data-name="Trazado 200835" d="M207.777,180.584a64.577,64.577,0,0,1-12.33-15.091l2.664-1.982c3.5,6.079,5.846,8.67,10.838,13.634C208.475,178.526,208.24,179.213,207.777,180.584Z" transform="translate(-184.466 -130.769)" fill="#299c90" opacity="0.47" style="mix-blend-mode: multiply;isolation: isolate"/>
            <path id="Trazado_200836" data-name="Trazado 200836" d="M255.2,229.715a65.273,65.273,0,0,0-12.7-15.458c1.671-.218,2.5-.324,4.163-.533,5.166,5.092,7.606,7.745,11.2,14.008Z" transform="translate(-199.825 -147.16)" fill="#299c90" opacity="0.47" style="mix-blend-mode: multiply;isolation: isolate"/>
          </g>
        </g>
        <g id="Grupo_139026" data-name="Grupo 139026" transform="translate(197.806 6.137)">
          <g id="Grupo_139024" data-name="Grupo 139024" transform="translate(0 0)">
            <circle id="Elipse_6713" data-name="Elipse 6713" cx="16.524" cy="16.524" r="16.524" transform="matrix(0.977, -0.215, 0.215, 0.977, 0.194, 8.531)" fill="#d6802b"/>
            <circle id="Elipse_6714" data-name="Elipse 6714" cx="16.524" cy="16.524" r="16.524" transform="matrix(0.977, -0.215, 0.215, 0.977, 0, 7.115)" fill="#fcba33"/>
            <circle id="Elipse_6715" data-name="Elipse 6715" cx="12.802" cy="12.802" r="12.802" transform="translate(4.316 10.138) rotate(-13.143)" fill="#fcba33"/>
            <path id="Trazado_200837" data-name="Trazado 200837" d="M446.073,78.169a12.8,12.8,0,0,1,21.934.548,12.8,12.8,0,1,0-22.924,11.3A12.786,12.786,0,0,1,446.073,78.169Z" transform="translate(-436.521 -64.001)" fill="#d6802b"/>
            <path id="Trazado_200838" data-name="Trazado 200838" d="M449.885,103.151a13.481,13.481,0,0,1-3.94-3.827,12.8,12.8,0,0,0,22.2.283A13.523,13.523,0,0,1,449.885,103.151Z" transform="translate(-437.347 -73.282)" fill="#d6802b"/>
          </g>
          <g id="Grupo_139025" data-name="Grupo 139025" transform="translate(12.619 12.099)">
            <path id="Trazado_200839" data-name="Trazado 200839" d="M456.606,92.564l-1.113,1.751-1.563-.994,1.084-1.7a8.78,8.78,0,0,1-3.1-3.727l2.073-1.361a7.486,7.486,0,0,0,2.327,3.039l1.66-2.611c-1.467-1.526-3.037-3.338-1.615-5.573,1.054-1.657,3.162-2.314,5.812-1.025l1.1-1.735,1.563.994-1.084,1.7a8.375,8.375,0,0,1,2.568,2.972l-2.005,1.426a7.568,7.568,0,0,0-1.875-2.334l-1.691,2.658c1.476,1.51,3.016,3.3,1.614,5.506C461.333,93.177,459.249,93.828,456.606,92.564Zm2.832-7.9,1.412-2.22c-.948-.339-1.565-.095-1.893.421C458.609,83.408,458.889,84,459.438,84.66Zm.293,5.478c.348-.547.084-1.133-.44-1.8L457.919,90.5C458.81,90.825,459.412,90.637,459.731,90.138Z" transform="translate(-451.916 -78.625)" fill="#d6802b"/>
          </g>
        </g>
        <g id="Grupo_139030" data-name="Grupo 139030" transform="translate(123.227 26.327)">
          <g id="Grupo_139029" data-name="Grupo 139029" transform="translate(0 0)">
            <rect id="Rectángulo_42531" data-name="Rectángulo 42531" width="162.399" height="94.984" rx="16.81" transform="translate(1.819 125.293) rotate(-50.49)" fill="#e8231f"/>
            <path id="Trazado_200911" data-name="Trazado 200911" d="M11.323,0H151.076A11.323,11.323,0,0,1,162.4,11.323V83.661a11.323,11.323,0,0,1-11.323,11.323H11.323A11.323,11.323,0,0,1,0,83.661V11.323A11.323,11.323,0,0,1,11.323,0Z" transform="translate(0 125.421) rotate(-50.49)" fill="#ff725e"/>
            <g id="Grupo_139028" data-name="Grupo 139028" transform="translate(0 0.128)" opacity="0.5">
              <g id="Grupo_139027" data-name="Grupo 139027" transform="translate(0 0)" clip-path="url(#clip-path)">
                <path id="Trazado_200840" data-name="Trazado 200840" d="M426.312,310.5,454.273,276.6l-29.114-157.9L397.2,152.6Z" transform="translate(-346.857 -99.923)" fill="#f23a30" style="mix-blend-mode: screen;isolation: isolate"/>
                <path id="Trazado_200841" data-name="Trazado 200841" d="M337.15,344.6,365.11,310.7,336,152.794,308.035,186.7Z" transform="translate(-317.751 -111.055)" fill="#f23a30" style="mix-blend-mode: screen;isolation: isolate"/>
                <path id="Trazado_200842" data-name="Trazado 200842" d="M474,262.031l12.033-14.592-29.114-157.9-12.033,14.592Z" transform="translate(-362.424 -90.405)" fill="#f23a30" style="mix-blend-mode: screen;isolation: isolate"/>
                <path id="Trazado_200843" data-name="Trazado 200843" d="M530.443,188.447l12.033-14.592-29.114-157.9L501.329,30.544Z" transform="translate(-380.848 -66.385)" fill="#f23a30" style="mix-blend-mode: screen;isolation: isolate"/>
              </g>
            </g>
          </g>
          <rect id="Rectángulo_42534" data-name="Rectángulo 42534" width="162.697" height="20.76" transform="matrix(0.635, -0.773, 0.773, 0.635, 15.472, 137.691)" fill="#ff725e" style="mix-blend-mode: multiply;isolation: isolate"/>
          <rect id="Rectángulo_42535" data-name="Rectángulo 42535" width="136.715" height="15.039" transform="translate(43.374 146.016) rotate(-50.61)" fill="#f7dfdf"/>
        </g>
        <g id="Grupo_139031" data-name="Grupo 139031" transform="translate(27.816 131.868)">
          <path id="Trazado_200844" data-name="Trazado 200844" d="M180.81,248.827s30.871-8.769,54.62,16.069,26.938,87.431,26.938,87.431h0s-16.583-40.08-43.553-57.28C203.76,285.447,186.327,273.882,180.81,248.827Z" transform="translate(-180.81 -247.325)" fill="#afe684"/>
          <path id="Trazado_200845" data-name="Trazado 200845" d="M218.815,295.775c-15.055-9.6-32.488-21.166-38-46.22,0,0,24.127,8.018,39.968,23.421s36.336,52.736,41.59,80.08C262.368,353.055,245.785,312.976,218.815,295.775Z" transform="translate(-180.81 -248.053)" fill="#299c90" opacity="0.45" style="mix-blend-mode: multiply;isolation: isolate"/>
          <path id="Trazado_200846" data-name="Trazado 200846" d="M188.926,252.482c2.661,1.095,5.312,2.229,7.9,3.49a110.449,110.449,0,0,1,14.989,8.661,76.443,76.443,0,0,1,9.748,7.952c-.247-.9-.542-1.793-.868-2.677a47.524,47.524,0,0,0-2.449-5.38c-.913-1.76-1.926-3.472-2.984-5.159s-2.172-3.342-3.361-4.945c1.312,1.505,2.551,3.076,3.751,4.678s2.349,3.247,3.414,4.954a48.637,48.637,0,0,1,2.935,5.3,26.725,26.725,0,0,1,1.982,5.689c.313.334.629.666.936,1.006a116.166,116.166,0,0,1,9.431,12.122,28.924,28.924,0,0,0-.015-4.077,47.485,47.485,0,0,0-.831-5.853c-.379-1.946-.868-3.874-1.406-5.791s-1.141-3.819-1.829-5.693c.834,1.815,1.58,3.671,2.279,5.546s1.338,3.778,1.877,5.716a48.594,48.594,0,0,1,1.321,5.913,26.415,26.415,0,0,1,.288,6.178c0,.024-.005.051-.009.075a.951.951,0,0,1-.1.291c1.463,2.177,2.824,4.418,4.211,6.641.742,1.237,1.454,2.492,2.183,3.737l1.085,1.872,1.027,1.9c.678,1.272,1.373,2.536,2.038,3.816l.272.544c.11-1.031.16-2.079.167-3.129a47.5,47.5,0,0,0-.393-5.9c-.232-1.969-.576-3.929-.971-5.88s-.854-3.893-1.4-5.814c.7,1.872,1.3,3.778,1.859,5.7s1.053,3.868,1.445,5.84a48.67,48.67,0,0,1,.877,6,26.683,26.683,0,0,1-.156,6.037l.236.472c.661,1.282,1.26,2.593,1.866,3.9s1.225,2.61,1.786,3.938q3.471,7.922,6.181,16.144c.436,1.373.822,2.763,1.234,4.142.2.692.415,1.378.6,2.074l.52,2.1.519,2.1.259,1.047.207,1.06.793,4.24a145.628,145.628,0,0,0-5.009-16.453c-1.038-2.671-2.018-5.362-3.176-7.983-1.081-2.651-2.287-5.249-3.473-7.854-1.312-2.726-2.638-5.446-4.014-8.139a.946.946,0,0,1-.428-.822c-1.1-2.123-2.219-4.232-3.409-6.3l-1.039-1.877-1.086-1.85-2.182-3.693c-1.526-2.417-3.016-4.859-4.642-7.208a125.492,125.492,0,0,0-10.32-13.629c-.294-.338-.6-.667-.9-1a.946.946,0,0,1-.49-.546,79.41,79.41,0,0,0-11.236-9.866,122,122,0,0,0-14.554-9.037,141.4,141.4,0,0,0-15.6-7.24C183.557,250.4,186.263,251.391,188.926,252.482Z" transform="translate(-180.81 -248.053)" fill="#299c90" opacity="0.66" style="mix-blend-mode: multiply;isolation: isolate"/>
        </g>
        <g id="Grupo_139032" data-name="Grupo 139032" transform="translate(43.228 194.195)">
          <path id="Trazado_200847" data-name="Trazado 200847" d="M203.691,346.16s14.725-11.546,33.023-3.382,33.833,41.239,33.833,41.239h0s-17.794-17.97-36.146-21.3C224.157,360.858,212.2,358.463,203.691,346.16Z" transform="translate(-203.691 -339.858)" fill="#afe684"/>
          <path id="Trazado_200848" data-name="Trazado 200848" d="M234.4,365.729c-10.244-1.859-22.2-4.254-30.71-16.558,0,0,14.79-1,26.738,3.82s31.248,20.442,40.118,34.038C270.547,387.03,252.753,369.059,234.4,365.729Z" transform="translate(-203.691 -342.87)" fill="#afe684" opacity="0.45" style="mix-blend-mode: multiply;isolation: isolate"/>
          <path id="Trazado_200849" data-name="Trazado 200849" d="M208.717,346.95c1.678,0,3.359.03,5.036.139a64.359,64.359,0,0,1,10,1.366,44.513,44.513,0,0,1,7.016,2.141c-.331-.431-.688-.848-1.059-1.253a27.718,27.718,0,0,0-2.509-2.363c-.881-.748-1.806-1.45-2.749-2.126s-1.91-1.324-2.905-1.927c1.04.523,2.056,1.1,3.057,1.7s1.984,1.234,2.935,1.92a28.3,28.3,0,0,1,2.754,2.213,15.582,15.582,0,0,1,2.324,2.632c.243.111.486.221.727.337a67.726,67.726,0,0,1,7.765,4.46,16.81,16.81,0,0,0-.908-2.2,27.629,27.629,0,0,0-1.74-2.975c-.634-.967-1.323-1.9-2.037-2.815s-1.459-1.809-2.244-2.669c.851.795,1.662,1.632,2.454,2.49s1.556,1.744,2.274,2.671a28.316,28.316,0,0,1,2.018,2.9,15.421,15.421,0,0,1,1.519,3.27c0,.014.008.029.011.042a.56.56,0,0,1,.008.18c1.27.853,2.5,1.761,3.738,2.655.673.5,1.334,1.024,2,1.535l1,.771.975.8c.647.538,1.3,1.066,1.942,1.61l.267.233c-.168-.58-.372-1.157-.6-1.726a27.65,27.65,0,0,0-1.514-3.1c-.56-1.011-1.178-1.993-1.821-2.959s-1.32-1.913-2.039-2.828c.789.856,1.536,1.752,2.262,2.666s1.421,1.855,2.068,2.833a28.377,28.377,0,0,1,1.8,3.042,15.592,15.592,0,0,1,1.248,3.292l.232.2c.64.546,1.253,1.121,1.868,1.693s1.237,1.138,1.833,1.731q3.621,3.51,6.9,7.349c.538.645,1.053,1.31,1.579,1.963.261.329.528.652.782.987l.743,1.017.743,1.016.371.508.346.526,1.363,2.113a84.859,84.859,0,0,0-6.334-7.774c-1.15-1.213-2.272-2.448-3.475-3.608-1.169-1.192-2.393-2.329-3.608-3.472-1.309-1.181-2.626-2.357-3.963-3.507a.552.552,0,0,1-.412-.35c-1.06-.9-2.131-1.794-3.231-2.65l-.975-.783-.994-.758-1.992-1.511c-1.357-.968-2.7-1.957-4.1-2.866a73.134,73.134,0,0,0-8.577-5.077c-.233-.118-.469-.228-.7-.341a.55.55,0,0,1-.385-.187,46.294,46.294,0,0,0-8.241-2.844,71.163,71.163,0,0,0-9.849-1.665,82.548,82.548,0,0,0-10.017-.464C205.36,347.012,207.039,346.949,208.717,346.95Z" transform="translate(-203.691 -340.86)" fill="#afe684" opacity="0.66" style="mix-blend-mode: multiply;isolation: isolate"/>
        </g>
        <g id="Grupo_139039" data-name="Grupo 139039" transform="translate(100.695 58)">
          <path id="Trazado_200850" data-name="Trazado 200850" d="M306.092,330.219l74.934,11.871.777-204.275-74.008,4.6a20.254,20.254,0,0,0-18.787,20.2v147.6A20.253,20.253,0,0,0,306.092,330.219Z" transform="translate(-289.008 -137.71)" fill="#263238"/>
          <g id="Grupo_139033" data-name="Grupo 139033" transform="translate(75.618)">
            <path id="Trazado_200851" data-name="Trazado 200851" d="M418.606,342.039h2.144a21.734,21.734,0,0,0,21.679-23.282l-7.77-108.781a72.633,72.633,0,0,1,.688-16.4l4.807-30.737a21.81,21.81,0,0,0-21.548-25.18h0a17.334,17.334,0,0,0-17.334,17.334V324.706A17.334,17.334,0,0,0,418.606,342.039Z" transform="translate(-401.272 -137.659)" fill="#263238"/>
            <path id="Trazado_200852" data-name="Trazado 200852" d="M418.606,342.039h2.144a21.734,21.734,0,0,0,21.679-23.282l-7.77-108.781a72.633,72.633,0,0,1,.688-16.4l4.807-30.737a21.81,21.81,0,0,0-21.548-25.18h0a17.334,17.334,0,0,0-17.334,17.334V324.706A17.334,17.334,0,0,0,418.606,342.039Z" transform="translate(-401.272 -137.659)" fill="#263238" opacity="0.45" style="mix-blend-mode: multiply;isolation: isolate"/>
          </g>
          <g id="Grupo_139034" data-name="Grupo 139034" transform="translate(5.843 101.843)">
            <path id="Trazado_200853" data-name="Trazado 200853" d="M362.792,307.151l16.03,1.537a1.488,1.488,0,0,0,1.63-1.481V294.353a1.487,1.487,0,0,0-1.407-1.486L363.015,292a1.487,1.487,0,0,0-1.569,1.486V305.67A1.487,1.487,0,0,0,362.792,307.151Z" transform="translate(-318.496 -289.881)" fill="#455a64"/>
            <path id="Trazado_200854" data-name="Trazado 200854" d="M330.945,305.929l16.03.837a1.488,1.488,0,0,0,1.616-1.483V293.02a1.488,1.488,0,0,0-1.407-1.486l-16.03-.871a1.488,1.488,0,0,0-1.569,1.486v12.3A1.489,1.489,0,0,0,330.945,305.929Z" transform="translate(-308.096 -289.446)" fill="#455a64"/>
            <path id="Trazado_200855" data-name="Trazado 200855" d="M299.076,303.732l16.03.478a1.488,1.488,0,0,0,1.583-1.485V291.216a1.488,1.488,0,0,0-1.407-1.485l-16.03-.871a1.488,1.488,0,0,0-1.569,1.486v11.9A1.488,1.488,0,0,0,299.076,303.732Z" transform="translate(-297.682 -288.858)" fill="#455a64"/>
          </g>
          <g id="Grupo_139035" data-name="Grupo 139035" transform="translate(5.843 120.657)">
            <path id="Trazado_200856" data-name="Trazado 200856" d="M362.792,335.985l16.03,1.537a1.488,1.488,0,0,0,1.63-1.481V323.186a1.488,1.488,0,0,0-1.407-1.486l-16.03-.87a1.487,1.487,0,0,0-1.569,1.486V334.5A1.488,1.488,0,0,0,362.792,335.985Z" transform="translate(-318.496 -318.108)" fill="#455a64"/>
            <path id="Trazado_200857" data-name="Trazado 200857" d="M330.945,333.921l16.03.776a1.488,1.488,0,0,0,1.616-1.483V320.952a1.488,1.488,0,0,0-1.407-1.486l-16.03-.871a1.488,1.488,0,0,0-1.569,1.486v12.358A1.488,1.488,0,0,0,330.945,333.921Z" transform="translate(-308.096 -317.378)" fill="#455a64"/>
            <path id="Trazado_200858" data-name="Trazado 200858" d="M299.076,331.179l16.03.9a1.488,1.488,0,0,0,1.583-1.485V319.148a1.489,1.489,0,0,0-1.407-1.486l-16.03-.87a1.488,1.488,0,0,0-1.569,1.486v11.416A1.489,1.489,0,0,0,299.076,331.179Z" transform="translate(-297.682 -316.79)" fill="#455a64"/>
          </g>
          <g id="Grupo_139036" data-name="Grupo 139036" transform="translate(5.843 139.228)">
            <path id="Trazado_200859" data-name="Trazado 200859" d="M362.792,364.819l16.03,1.537a1.488,1.488,0,0,0,1.63-1.481V352.02a1.488,1.488,0,0,0-1.407-1.486l-16.03-.871a1.488,1.488,0,0,0-1.569,1.486v12.189A1.488,1.488,0,0,0,362.792,364.819Z" transform="translate(-318.496 -346.091)" fill="#455a64"/>
            <path id="Trazado_200860" data-name="Trazado 200860" d="M330.945,361.25l16.03,1.383a1.488,1.488,0,0,0,1.616-1.483V348.888a1.487,1.487,0,0,0-1.407-1.486l-16.03-1.236a1.489,1.489,0,0,0-1.569,1.486v12.116A1.489,1.489,0,0,0,330.945,361.25Z" transform="translate(-308.096 -344.949)" fill="#455a64"/>
            <path id="Trazado_200861" data-name="Trazado 200861" d="M299.076,358.872l16.03,1.024a1.488,1.488,0,0,0,1.583-1.485V346.963a1.488,1.488,0,0,0-1.407-1.486l-16.03-1.114a1.488,1.488,0,0,0-1.569,1.486v11.538A1.489,1.489,0,0,0,299.076,358.872Z" transform="translate(-297.682 -344.361)" fill="#455a64"/>
          </g>
          <g id="Grupo_139037" data-name="Grupo 139037" transform="translate(5.843 158.65)">
            <path id="Trazado_200862" data-name="Trazado 200862" d="M362.792,393.653l16.03,1.537a1.488,1.488,0,0,0,1.63-1.482V380.854a1.488,1.488,0,0,0-1.407-1.486l-16.03-.871a1.488,1.488,0,0,0-1.569,1.486v12.189A1.488,1.488,0,0,0,362.792,393.653Z" transform="translate(-318.496 -374.925)" fill="#ff776d"/>
            <path id="Trazado_200863" data-name="Trazado 200863" d="M330.945,389.9l16.03,1.383a1.488,1.488,0,0,0,1.616-1.483V377.541a1.488,1.488,0,0,0-1.407-1.486l-16.03-1.235a1.488,1.488,0,0,0-1.569,1.486v12.115A1.488,1.488,0,0,0,330.945,389.9Z" transform="translate(-308.096 -373.724)" fill="#455a64"/>
            <path id="Trazado_200864" data-name="Trazado 200864" d="M299.076,387.7l16.03,1.025a1.488,1.488,0,0,0,1.583-1.485V375.8a1.488,1.488,0,0,0-1.407-1.486l-16.03-1.114a1.488,1.488,0,0,0-1.569,1.486V386.22A1.488,1.488,0,0,0,299.076,387.7Z" transform="translate(-297.682 -373.195)" fill="#ffed92"/>
          </g>
          <path id="Trazado_200865" data-name="Trazado 200865" d="M301.538,166.934,361,166.1a4.381,4.381,0,0,0-4.878-4.321l-50.124.944c-2.482.115-5.056,1.434-5.068,3.919Z" transform="translate(-292.898 -145.529)" fill="#0a5487" opacity="0.3" style="mix-blend-mode: multiply;isolation: isolate"/>
          <g id="Grupo_139038" data-name="Grupo 139038" transform="translate(7.665 25.985)">
            <path id="Trazado_200866" data-name="Trazado 200866" d="M305.634,245.467l49.81,1.992A5.466,5.466,0,0,0,361.128,242V181.7a5.465,5.465,0,0,0-5.684-5.461l-49.81.777a5.466,5.466,0,0,0-5.246,5.461v57.526A5.466,5.466,0,0,0,305.634,245.467Z" transform="translate(-300.388 -176.236)" fill="#e0e0e0"/>
            <path id="Trazado_200867" data-name="Trazado 200867" d="M300.388,240.067V182.541a5.466,5.466,0,0,1,5.246-5.461l41.939-.655Z" transform="translate(-300.388 -176.298)" fill="#e0e0e0" opacity="0.24" style="mix-blend-mode: screen;isolation: isolate"/>
            <path id="Trazado_200868" data-name="Trazado 200868" d="M328.348,246.3l-20.726-.828a5.526,5.526,0,0,1-1.146-.171l49.344-69.03,1.612-.025a5.465,5.465,0,0,1,5.684,5.461v13.106Z" transform="translate(-302.375 -176.236)" fill="#e0e0e0" opacity="0.24" style="mix-blend-mode: screen;isolation: isolate"/>
          </g>
        </g>
        <g id="Grupo_139049" data-name="Grupo 139049" transform="translate(164.242 108.631)">
          <g id="Grupo_139042" data-name="Grupo 139042">
            <path id="Trazado_200869" data-name="Trazado 200869" d="M552.252,300.45,428.3,354.185a10.851,10.851,0,0,1-14.324-5.86l-27.35-65.25a11.174,11.174,0,0,1,5.762-14.567L516.34,214.773a10.851,10.851,0,0,1,14.324,5.86l27.35,65.25A11.174,11.174,0,0,1,552.252,300.45Z" transform="translate(-384.133 -213.171)" fill="#ffe98f"/>
            <path id="Trazado_200870" data-name="Trazado 200870" d="M549.857,299.4,425.9,353.131a10.85,10.85,0,0,1-14.324-5.859l-27.35-65.25a11.172,11.172,0,0,1,5.762-14.567L513.945,213.72a10.85,10.85,0,0,1,14.324,5.859l27.35,65.25A11.174,11.174,0,0,1,549.857,299.4Z" transform="translate(-383.351 -212.827)" fill="#ffe98f"/>
            <g id="Grupo_139041" data-name="Grupo 139041">
              <g id="Grupo_139040" data-name="Grupo 139040" clip-path="url(#clip-path-2)">
                <path id="Trazado_200871" data-name="Trazado 200871" d="M423.083,382.679l38.98-16.9,45.149-150.6-38.98,16.9Z" transform="translate(-396.321 -213.597)" fill="#e89f1f" opacity="0.3" style="mix-blend-mode: screen;isolation: isolate"/>
                <path id="Trazado_200872" data-name="Trazado 200872" d="M331.629,372.127l38.98-16.9,45.149-150.6-38.98,16.9Z" transform="translate(-366.468 -210.152)" fill="#e89f1f" opacity="0.3" style="mix-blend-mode: screen;isolation: isolate"/>
                <path id="Trazado_200873" data-name="Trazado 200873" d="M489.569,358.522l16.776-7.272,45.149-150.6-16.776,7.272Z" transform="translate(-418.024 -208.853)" fill="#e89f1f" opacity="0.3" style="mix-blend-mode: screen;isolation: isolate"/>
                <path id="Trazado_200874" data-name="Trazado 200874" d="M570.535,319.937l16.776-7.272,45.149-150.6-16.776,7.272Z" transform="translate(-444.453 -196.258)" fill="#e89f1f" opacity="0.3" style="mix-blend-mode: screen;isolation: isolate"/>
              </g>
            </g>
          </g>
          <g id="Grupo_139046" data-name="Grupo 139046" transform="translate(16.744 69.815)">
            <g id="Grupo_139045" data-name="Grupo 139045" clip-path="url(#clip-path-3)">
              <path id="Trazado_200876" data-name="Trazado 200876" d="M438.429,336.1l-19.489,8.443a4.348,4.348,0,0,1-5.74-2.35l-4.639-11.075a4.479,4.479,0,0,1,2.31-5.838l19.489-8.442a4.349,4.349,0,0,1,5.74,2.349l4.639,11.076A4.477,4.477,0,0,1,438.429,336.1Z" transform="translate(-408.21 -316.477)" fill="#caaa75"/>
              <g id="Grupo_139043" data-name="Grupo 139043" transform="translate(0.441 6.65)">
                <path id="Trazado_200877" data-name="Trazado 200877" d="M408.865,336.084l6.421-2.781a4.276,4.276,0,0,1,5.644,2.31h0l21.386-9.264" transform="translate(-408.865 -326.35)" fill="none" stroke="#00325b" stroke-miterlimit="10" stroke-width="1.651"/>
                <path id="Trazado_200878" data-name="Trazado 200878" d="M413.871,346.314l6.421-2.781a4.4,4.4,0,0,0,2.272-5.74h0l11.007-4.768" transform="translate(-410.499 -328.529)" fill="none" stroke="#00325b" stroke-miterlimit="10" stroke-width="1.651"/>
              </g>
              <g id="Grupo_139044" data-name="Grupo 139044" transform="translate(2.127 4.032)">
                <path id="Trazado_200879" data-name="Trazado 200879" d="M438.2,322.462l-6.421,2.781a4.4,4.4,0,0,0-2.273,5.74h0l-18.139,7.858" transform="translate(-411.368 -322.462)" fill="none" stroke="#00325b" stroke-miterlimit="10" stroke-width="1.651"/>
                <path id="Trazado_200880" data-name="Trazado 200880" d="M445.028,334.414l-6.42,2.781a4.276,4.276,0,0,1-5.645-2.311h0l-11.008,4.769" transform="translate(-414.824 -326.364)" fill="none" stroke="#00325b" stroke-miterlimit="10" stroke-width="1.651"/>
              </g>
            </g>
          </g>
          <text id="_1234_4567_7899_1234" data-name="1234  4567  7899  1234" transform="translate(29.562 114.18) rotate(-22.847)" fill="#00325b" font-size="9" font-family="Montserrat-SemiBold, Montserrat" font-weight="600" letter-spacing="0.06em"><tspan x="0" y="0">1</tspan><tspan y="0" letter-spacing="0.1em">234</tspan><tspan y="0" letter-spacing="0.04em"> </tspan><tspan y="0" xml:space="preserve" letter-spacing="0.1em"> 4567</tspan><tspan y="0" xml:space="preserve" letter-spacing="0.04em">  </tspan><tspan y="0" letter-spacing="0.08em">7899</tspan><tspan y="0" xml:space="preserve" letter-spacing="0.04em">  </tspan><tspan y="0">1234</tspan></text>
          <text id="NAME_SURNAME" data-name="NAME    SURNAME" transform="translate(33.968 124.694) rotate(-22.847)" fill="#00325b" stroke="#00325b" stroke-miterlimit="10" stroke-width="0.246" font-size="4" font-family="Montserrat-Regular, Montserrat" letter-spacing="0.02em"><tspan x="0" y="0" xml:space="preserve">NAME    SURNAME</tspan></text>
          <text id="CREDIT_CARD" data-name="CREDIT CARD" transform="translate(11.67 71.493) rotate(-22.847)" fill="#00325b" stroke="#00325b" stroke-miterlimit="10" stroke-width="0.232" font-size="7" font-family="Montserrat-Regular, Montserrat" letter-spacing="0.04em"><tspan x="0" y="0">CREDIT CARD</tspan></text>
          <g id="Grupo_139048" data-name="Grupo 139048" transform="translate(115.177 10.762)">
            <g id="Grupo_139047" data-name="Grupo 139047">
              <path id="Trazado_200882" data-name="Trazado 200882" d="M561.039,241.279a6.865,6.865,0,0,1-.348-4.256A1.7,1.7,0,0,0,558.448,235a6.733,6.733,0,0,0-.93.486,6.891,6.891,0,0,0-2.886,7.76,6.667,6.667,0,0,0,9.032,4.291l.033-.015a1.726,1.726,0,0,0,.12-3.044A6.725,6.725,0,0,1,561.039,241.279Z" transform="translate(-554.346 -230.786)" fill="#fefeff"/>
              <path id="Trazado_200883" data-name="Trazado 200883" d="M573.473,229.021a6.8,6.8,0,0,0-.987.346,1.727,1.727,0,0,0-.121,3.045,6.722,6.722,0,0,1,2.778,3.2,6.862,6.862,0,0,1,.348,4.256,1.7,1.7,0,0,0,2.243,2.019l.034-.014a6.858,6.858,0,0,0,3.209-9.6A6.677,6.677,0,0,0,573.473,229.021Z" transform="translate(-559.949 -228.805)" fill="#fefeff"/>
              <path id="Trazado_200884" data-name="Trazado 200884" d="M571.92,238.08a6.744,6.744,0,0,0-1.949-2.623,2.905,2.905,0,0,0-4.718,2.045,6.846,6.846,0,0,0,.511,3.247,6.735,6.735,0,0,0,1.949,2.623,2.905,2.905,0,0,0,4.718-2.045A6.865,6.865,0,0,0,571.92,238.08Z" transform="translate(-557.898 -230.764)" fill="#fefeff"/>
            </g>
          </g>
        </g>
        <g id="Grupo_139054" data-name="Grupo 139054" transform="translate(121.763 163.528)">
          <g id="Grupo_139053" data-name="Grupo 139053" clip-path="url(#clip-path-4)">
            <g id="Grupo_139050" data-name="Grupo 139050" transform="translate(31.597 27.447)">
              <path id="Trazado_200885" data-name="Trazado 200885" d="M367.312,335.077s21.231.273,31.6,20.51.558,60.526.558,60.526h0s-2.94-28.547-16.791-44.549C374.943,362.633,366.075,352.006,367.312,335.077Z" transform="translate(-367.195 -335.077)" fill="#afe684"/>
              <path id="Trazado_200886" data-name="Trazado 200886" d="M382.674,371.565c-7.731-8.932-16.6-19.559-15.363-36.488,0,0,13.783,9.643,20.916,22.4s13.074,40.3,11.239,58.634C399.466,416.114,396.526,387.567,382.674,371.565Z" transform="translate(-367.195 -335.077)" fill="none" opacity="0.45" style="mix-blend-mode: multiply;isolation: isolate"/>
              <path id="Trazado_200887" data-name="Trazado 200887" d="M371.96,338.467c1.481,1.2,2.947,2.417,4.352,3.707a73.051,73.051,0,0,1,7.868,8.323,50.634,50.634,0,0,1,4.678,6.885c.013-.616,0-1.239-.045-1.862a31.3,31.3,0,0,0-.536-3.874c-.246-1.288-.564-2.565-.917-3.835s-.746-2.529-1.2-3.771c.548,1.2,1.037,2.432,1.495,3.675s.876,2.5,1.228,3.786a32.156,32.156,0,0,1,.86,3.915,17.7,17.7,0,0,1,.182,3.982c.135.271.273.541.4.814a76.871,76.871,0,0,1,3.689,9.468,19.142,19.142,0,0,0,.76-2.589,31.434,31.434,0,0,0,.579-3.868c.128-1.305.183-2.621.2-3.938s0-2.637-.084-3.955c.186,1.308.308,2.626.4,3.947s.134,2.648.11,3.979a32.215,32.215,0,0,1-.28,4,17.461,17.461,0,0,1-.985,3.971c-.006.016-.013.031-.02.046a.607.607,0,0,1-.121.164c.516,1.658.956,3.336,1.415,5.007.236.925.451,1.855.678,2.782l.335,1.392.292,1.4c.19.935.391,1.868.57,2.8l.07.4a20.725,20.725,0,0,0,.7-1.953,31.406,31.406,0,0,0,.866-3.814c.224-1.292.377-2.6.5-3.911s.195-2.63.211-3.951c.088,1.318.111,2.642.1,3.966s-.064,2.651-.187,3.975a32.171,32.171,0,0,1-.577,3.967,17.626,17.626,0,0,1-1.239,3.8l.061.344c.176.937.308,1.882.446,2.826s.284,1.886.388,2.834q.7,5.679.869,11.4c.017.953,0,1.907,0,2.859,0,.477,0,.952-.011,1.429l-.067,1.428-.067,1.427-.033.713-.069.711-.3,2.838a96.135,96.135,0,0,0-.066-11.379c-.154-1.89-.267-3.781-.505-5.662-.185-1.885-.458-3.761-.718-5.636-.317-1.976-.644-3.951-1.007-5.919a.625.625,0,0,1-.117-.6c-.294-1.553-.607-3.1-.97-4.642l-.3-1.386-.339-1.379-.686-2.754c-.511-1.821-.994-3.651-1.582-5.448a82.994,82.994,0,0,0-3.968-10.591c-.122-.27-.252-.535-.38-.8a.623.623,0,0,1-.208-.439,52.554,52.554,0,0,0-5.26-8.379,80.73,80.73,0,0,0-7.521-8.48,93.482,93.482,0,0,0-8.524-7.539C368.95,336.133,370.479,337.271,371.96,338.467Z" transform="translate(-367.252 -335.077)" fill="#299c90" opacity="0.66" style="mix-blend-mode: multiply;isolation: isolate"/>
            </g>
            <g id="Grupo_139051" data-name="Grupo 139051" transform="translate(18.234 61.287)">
              <path id="Trazado_200888" data-name="Trazado 200888" d="M347.356,387.842s12.308-6.663,24.775,1.654S391.9,424.154,391.9,424.154h0s-10.863-15.486-23.976-20.246C360.6,401.251,352.082,397.982,347.356,387.842Z" transform="translate(-347.356 -385.316)" fill="#afe684"/>
              <path id="Trazado_200889" data-name="Trazado 200889" d="M367.92,405.132c-7.319-2.657-15.838-5.925-20.564-16.066,0,0,11.03,1.122,19.236,6.175s20.473,19,25.3,30.138C391.9,425.378,381.033,409.893,367.92,405.132Z" transform="translate(-347.356 -386.54)" fill="#afe684" opacity="0.45" style="mix-blend-mode: multiply;isolation: isolate"/>
              <path id="Trazado_200890" data-name="Trazado 200890" d="M351.088,389.116c1.237.214,2.473.445,3.7.736a48.165,48.165,0,0,1,7.2,2.263,33.324,33.324,0,0,1,4.9,2.46c-.19-.36-.4-.712-.624-1.058a20.661,20.661,0,0,0-1.553-2.058c-.555-.662-1.149-1.3-1.759-1.912s-1.242-1.216-1.9-1.786c.7.516,1.378,1.067,2.041,1.635s1.308,1.159,1.923,1.784a21.352,21.352,0,0,1,1.753,1.978,11.624,11.624,0,0,1,1.384,2.234c.165.112.331.224.494.34a50.592,50.592,0,0,1,5.165,4.264,12.586,12.586,0,0,0-.394-1.734,20.592,20.592,0,0,0-.909-2.412c-.346-.792-.737-1.567-1.148-2.331s-.848-1.518-1.319-2.25c.527.693,1.021,1.412,1.5,2.144s.928,1.482,1.341,2.255A21.245,21.245,0,0,1,374,398.059a11.5,11.5,0,0,1,.709,2.6c0,.011,0,.022,0,.033a.416.416,0,0,1-.017.133c.829.788,1.621,1.613,2.423,2.428.433.456.855.922,1.284,1.384l.64.693.618.713c.41.477.825.949,1.23,1.431l.167.205c-.051-.449-.129-.9-.226-1.348a20.7,20.7,0,0,0-.727-2.473c-.286-.816-.618-1.617-.971-2.411s-.733-1.576-1.148-2.341c.474.731.913,1.485,1.332,2.25s.815,1.547,1.17,2.349a21.339,21.339,0,0,1,.942,2.469,11.655,11.655,0,0,1,.507,2.584l.145.179c.4.482.783.984,1.165,1.483s.769.995,1.134,1.507q2.23,3.042,4.163,6.284c.316.544.612,1.1.919,1.646.15.276.307.548.452.826l.421.843.42.843.209.421.189.432.74,1.73a63.472,63.472,0,0,0-3.694-6.528c-.7-1.039-1.368-2.09-2.11-3.1-.712-1.026-1.472-2.017-2.224-3.014-.817-1.035-1.639-2.067-2.481-3.083a.413.413,0,0,1-.261-.31c-.668-.8-1.346-1.59-2.05-2.36l-.62-.7-.638-.684-1.28-1.365c-.878-.884-1.745-1.782-2.66-2.628a54.666,54.666,0,0,0-5.686-4.821c-.157-.116-.317-.227-.477-.339a.414.414,0,0,1-.261-.186,34.6,34.6,0,0,0-5.719-3.133,53.368,53.368,0,0,0-7.053-2.465,61.693,61.693,0,0,0-7.329-1.6C348.605,388.74,349.852,388.9,351.088,389.116Z" transform="translate(-347.356 -386.114)" fill="#afe684" opacity="0.66" style="mix-blend-mode: multiply;isolation: isolate"/>
            </g>
            <g id="Grupo_139052" data-name="Grupo 139052" transform="translate(65.64 30.31)">
              <path id="Trazado_200891" data-name="Trazado 200891" d="M473.856,339.992s-23.072-5.281-39.615,13.919-16.5,65.423-16.5,65.423h0s10.683-30.152,29.892-43.85C458.351,367.838,470.748,358.655,473.856,339.992Z" transform="translate(-417.737 -339.327)" fill="#afe684"/>
              <path id="Trazado_200892" data-name="Trazado 200892" d="M447.629,375.806c10.722-7.646,23.12-16.829,26.227-35.492,0,0-17.464,6.825-28.543,18.775s-24.749,40.228-27.575,60.568C417.737,419.657,428.421,389.5,447.629,375.806Z" transform="translate(-417.737 -339.649)" fill="none" opacity="0.45" style="mix-blend-mode: multiply;isolation: isolate"/>
              <path id="Trazado_200893" data-name="Trazado 200893" d="M467.99,342.779c-1.918.908-3.827,1.844-5.688,2.873a81.454,81.454,0,0,0-10.71,6.951,56.362,56.362,0,0,0-6.876,6.229c.147-.672.331-1.341.538-2.005a35.133,35.133,0,0,1,1.6-4.056c.6-1.33,1.286-2.631,2-3.913s1.472-2.545,2.287-3.771c-.909,1.159-1.761,2.362-2.584,3.588s-1.606,2.481-2.325,3.779a35.806,35.806,0,0,0-1.96,4.015,19.7,19.7,0,0,0-1.242,4.266c-.218.258-.438.515-.651.777a85.8,85.8,0,0,0-6.484,9.289,21.355,21.355,0,0,1-.143-3,34.9,34.9,0,0,1,.389-4.343c.2-1.447.491-2.886.815-4.318s.694-2.857,1.13-4.263c-.545,1.368-1.023,2.764-1.466,4.172s-.841,2.834-1.164,4.281a35.986,35.986,0,0,0-.748,4.406,19.514,19.514,0,0,0,.024,4.561c0,.017.006.036.01.055a.7.7,0,0,0,.088.21c-.994,1.66-1.911,3.362-2.848,5.052-.5.94-.976,1.891-1.465,2.836l-.727,1.42-.684,1.441c-.451.963-.915,1.921-1.355,2.888l-.18.411c-.12-.755-.2-1.525-.242-2.3a35.175,35.175,0,0,1,.064-4.359c.1-1.458.275-2.915.491-4.367s.48-2.9.81-4.336c-.442,1.405-.815,2.832-1.152,4.27s-.628,2.889-.842,4.357a35.876,35.876,0,0,0-.417,4.449,19.713,19.713,0,0,0,.345,4.44l-.156.357c-.438.969-.829,1.958-1.225,2.944s-.8,1.97-1.165,2.969q-2.254,5.967-3.936,12.126c-.268,1.028-.5,2.067-.75,3.1-.121.517-.253,1.031-.363,1.551l-.3,1.565-.3,1.563-.152.781-.112.789-.422,3.153a107.382,107.382,0,0,1,3.061-12.31c.663-2.007,1.282-4.026,2.034-6,.7-1.994,1.484-3.954,2.258-5.917.862-2.058,1.735-4.111,2.646-6.148a.7.7,0,0,0,.284-.622c.725-1.606,1.472-3.2,2.269-4.774l.694-1.422.729-1.4,1.466-2.8c1.031-1.839,2.036-3.694,3.144-5.486a92.593,92.593,0,0,1,7.081-10.432c.2-.26.414-.514.622-.769a.7.7,0,0,0,.341-.421,58.563,58.563,0,0,1,7.9-7.695,89.887,89.887,0,0,1,10.374-7.211,104.2,104.2,0,0,1,11.215-5.927C471.865,341.042,469.91,341.874,467.99,342.779Z" transform="translate(-417.737 -339.649)" fill="#299c90" opacity="0.66" style="mix-blend-mode: multiply;isolation: isolate"/>
            </g>
          </g>
        </g>
        <g id="Grupo_139056" data-name="Grupo 139056" transform="translate(111.384 32.698)">
          <path id="Trazado_200895" data-name="Trazado 200895" d="M389.242,100.1s-26.373,8.849-29.318,44.281l-55.048.2s1.077-32.333,29.4-44.058Z" transform="translate(-304.877 -100.096)" fill="#fff"/>
          <g id="Grupo_139055" data-name="Grupo 139055" transform="translate(6.238 6.766)" opacity="0.3">
            <line id="Línea_390" data-name="Línea 390" x2="41.994" y2="0.217" transform="translate(0 31.366)" fill="none" stroke="#0a5487" stroke-miterlimit="10" stroke-width="0.902"/>
            <line id="Línea_391" data-name="Línea 391" x2="40.718" y2="0.278" transform="translate(2.466 24.517)" fill="none" stroke="#0a5487" stroke-miterlimit="10" stroke-width="0.902"/>
            <line id="Línea_392" data-name="Línea 392" x2="41.265" y2="0.46" transform="translate(4.811 17.669)" fill="none" stroke="#0a5487" stroke-miterlimit="10" stroke-width="0.902"/>
            <line id="Línea_393" data-name="Línea 393" x2="41.386" y2="0.217" transform="translate(8.978 11.124)" fill="none" stroke="#0a5487" stroke-miterlimit="10" stroke-width="0.902"/>
            <line id="Línea_394" data-name="Línea 394" x2="40.718" y2="0.642" transform="translate(14.602 5.065)" fill="none" stroke="#0a5487" stroke-miterlimit="10" stroke-width="0.902"/>
            <line id="Línea_395" data-name="Línea 395" x2="39.26" y2="0.399" transform="translate(20.623)" fill="none" stroke="#0a5487" stroke-miterlimit="10" stroke-width="0.902"/>
          </g>
        </g>
        <g id="Grupo_139059" data-name="Grupo 139059" transform="translate(96.519 13.472)">
          <g id="Grupo_139057" data-name="Grupo 139057" transform="translate(0)">
            <circle id="Elipse_6716" data-name="Elipse 6716" cx="19.241" cy="19.241" r="19.241" transform="matrix(0.473, -0.881, 0.881, 0.473, 1.98, 35.691)" fill="#d6802b"/>
            <circle id="Elipse_6717" data-name="Elipse 6717" cx="19.241" cy="19.241" r="19.241" transform="matrix(0.567, -0.824, 0.824, 0.567, 0, 31.706)" fill="#fcba33"/>
            <circle id="Elipse_6718" data-name="Elipse 6718" cx="14.907" cy="14.907" r="14.907" transform="translate(5.926 29.996) rotate(-53.838)" fill="#fcba33"/>
            <path id="Trazado_200896" data-name="Trazado 200896" d="M302.233,107.206A14.908,14.908,0,0,1,321.6,90.537a14.906,14.906,0,1,0-10.956,27.672A14.886,14.886,0,0,1,302.233,107.206Z" transform="translate(-288.55 -77.294)" fill="#d6802b"/>
            <path id="Trazado_200897" data-name="Trazado 200897" d="M322.069,124.222a15.692,15.692,0,0,1-6.392-.224,14.9,14.9,0,0,0,19.382-17.1A15.746,15.746,0,0,1,322.069,124.222Z" transform="translate(-293.537 -83.089)" fill="#d6802b"/>
          </g>
          <g id="Grupo_139058" data-name="Grupo 139058" transform="translate(20.644 16.488)">
            <path id="Trazado_200898" data-name="Trazado 200898" d="M322.47,113.64l.407,2.382-2.126.363-.4-2.318a10.222,10.222,0,0,1-5.586-.8l.726-2.794a8.727,8.727,0,0,0,4.384.8l-.607-3.552c-2.459-.171-5.23-.507-5.75-3.548-.385-2.254.921-4.469,4.216-5.426l-.4-2.36,2.127-.364.4,2.318a9.762,9.762,0,0,1,4.539.56l-.616,2.8a8.825,8.825,0,0,0-3.443-.55l.618,3.616c2.455.15,5.184.492,5.7,3.491C327.028,110.475,325.739,112.666,322.47,113.64Zm-3.733-9.036-.516-3.02c-1.084.448-1.425,1.141-1.3,1.843C317.043,104.17,317.75,104.465,318.737,104.6Zm4.534,4.5c-.127-.744-.813-1.043-1.782-1.206l.5,2.935C323.013,110.417,323.387,109.784,323.271,109.1Z" transform="translate(-313.456 -96.031)" fill="#d6802b"/>
          </g>
        </g>
        <g id="Grupo_139062" data-name="Grupo 139062" transform="translate(0 70.279)">
          <g id="Grupo_139060" data-name="Grupo 139060" transform="translate(0)">
            <circle id="Elipse_6719" data-name="Elipse 6719" cx="20.757" cy="20.757" r="20.757" transform="matrix(0.857, -0.515, 0.515, 0.857, 0, 22.941)" fill="#d6802b"/>
            <circle id="Elipse_6720" data-name="Elipse 6720" cx="20.757" cy="20.757" r="20.757" transform="translate(0.199 36.269) rotate(-60.885)" fill="#fcba33"/>
            <circle id="Elipse_6721" data-name="Elipse 6721" cx="16.082" cy="16.082" r="16.082" transform="matrix(0.365, -0.931, 0.931, 0.365, 7.59, 37.334)" fill="#fcba33"/>
            <path id="Trazado_200899" data-name="Trazado 200899" d="M161.989,181.775a16.083,16.083,0,0,1,27.331,3.566A16.081,16.081,0,1,0,159.2,196.449,16.061,16.061,0,0,1,161.989,181.775Z" transform="translate(-145.5 -161.778)" fill="#d6802b"/>
            <path id="Trazado_200900" data-name="Trazado 200900" d="M164.328,212.715a16.929,16.929,0,0,1-4.42-5.3,16.075,16.075,0,0,0,27.693,3.27A16.988,16.988,0,0,1,164.328,212.715Z" transform="translate(-146.171 -172.708)" fill="#d6802b"/>
          </g>
          <g id="Grupo_139061" data-name="Grupo 139061" transform="translate(19.376 19.31)">
            <path id="Trazado_200901" data-name="Trazado 200901" d="M173.525,201.094l-1.621,2.042-1.823-1.448,1.578-1.986a11.033,11.033,0,0,1-3.38-5.063l2.768-1.427a9.411,9.411,0,0,0,2.508,4.1l2.417-3.044c-1.632-2.1-3.356-4.568-1.287-7.174,1.534-1.932,4.256-2.476,7.4-.517l1.606-2.023L185.512,186l-1.578,1.986a10.522,10.522,0,0,1,2.817,4.05l-2.692,1.518a9.512,9.512,0,0,0-2.036-3.162l-2.461,3.1c1.646,2.081,3.334,4.522,1.293,7.091C179.349,202.48,176.662,203.021,173.525,201.094Zm4.576-9.5L180.157,189c-1.14-.549-1.943-.325-2.42.277C177.23,189.918,177.5,190.7,178.1,191.591Zm-.354,6.882c.507-.638.253-1.4-.314-2.3l-2,2.515C176.507,199.212,177.284,199.056,177.747,198.473Z" transform="translate(-168.279 -184.556)" fill="#d6802b"/>
          </g>
        </g>
        <g id="Grupo_139065" data-name="Grupo 139065" transform="translate(2.412 193.746)">
          <g id="Grupo_139063" data-name="Grupo 139063" transform="translate(0 0)">
            <circle id="Elipse_6722" data-name="Elipse 6722" cx="23.906" cy="23.906" r="23.906" transform="translate(2.624 4.639)" fill="#d6802b"/>
            <circle id="Elipse_6723" data-name="Elipse 6723" cx="23.906" cy="23.906" r="23.906" transform="translate(0 5.44) rotate(-6.533)" fill="#fcba33"/>
            <circle id="Elipse_6724" data-name="Elipse 6724" cx="18.522" cy="18.522" r="18.522" transform="matrix(0.39, -0.921, 0.921, 0.39, 2.192, 36.301)" fill="#fcba33"/>
            <path id="Trazado_200902" data-name="Trazado 200902" d="M159.663,360.029a18.523,18.523,0,0,1,31.477,4.106,18.521,18.521,0,1,0-34.694,12.793A18.5,18.5,0,0,1,159.663,360.029Z" transform="translate(-146.948 -343.043)" fill="#d6802b"/>
            <path id="Trazado_200903" data-name="Trazado 200903" d="M162.356,395.662a19.483,19.483,0,0,1-5.09-6.1,18.513,18.513,0,0,0,31.894,3.765A19.564,19.564,0,0,1,162.356,395.662Z" transform="translate(-147.72 -355.633)" fill="#d6802b"/>
          </g>
          <g id="Grupo_139064" data-name="Grupo 139064" transform="translate(16.04 16.193)">
            <path id="Trazado_200904" data-name="Trazado 200904" d="M172.948,382.278l-1.867,2.351-2.1-1.667,1.817-2.288a12.7,12.7,0,0,1-3.893-5.831L170.1,373.2a10.836,10.836,0,0,0,2.889,4.724l2.784-3.5c-1.88-2.418-3.866-5.262-1.481-8.263,1.767-2.225,4.9-2.851,8.517-.595l1.85-2.33,2.1,1.667-1.817,2.288a12.124,12.124,0,0,1,3.245,4.664l-3.1,1.749a10.966,10.966,0,0,0-2.345-3.643l-2.834,3.569c1.9,2.4,3.841,5.207,1.489,8.166C179.656,383.875,176.561,384.5,172.948,382.278Zm5.271-10.944,2.368-2.981c-1.313-.632-2.237-.373-2.787.32C177.215,369.406,177.529,370.305,178.219,371.333Zm-.408,7.926c.583-.734.291-1.617-.362-2.648l-2.3,2.9C176.382,380.11,177.277,379.931,177.811,379.259Z" transform="translate(-166.907 -363.231)" fill="#d6802b"/>
          </g>
        </g>
        <g id="Grupo_139068" data-name="Grupo 139068" transform="translate(30.046 153.209)">
          <g id="Grupo_139066" data-name="Grupo 139066" transform="translate(0 0)">
            <circle id="Elipse_6725" data-name="Elipse 6725" cx="16.524" cy="16.524" r="16.524" transform="matrix(0.083, -0.997, 0.997, 0.083, 1.447, 33.626)" fill="#d6802b"/>
            <circle id="Elipse_6726" data-name="Elipse 6726" cx="16.524" cy="16.524" r="16.524" transform="translate(0 32.908) rotate(-84.738)" fill="#fcba33"/>
            <circle id="Elipse_6727" data-name="Elipse 6727" cx="12.802" cy="12.802" r="12.802" transform="translate(1.82 26.153) rotate(-71.873)" fill="#fcba33"/>
            <path id="Trazado_200905" data-name="Trazado 200905" d="M194.653,305.365a12.8,12.8,0,0,1,11.7-18.561,12.8,12.8,0,1,0-2.029,25.479A12.788,12.788,0,0,1,194.653,305.365Z" transform="translate(-186.623 -281.513)" fill="#d6802b"/>
            <path id="Trazado_200906" data-name="Trazado 200906" d="M215.764,314.068a13.483,13.483,0,0,1-5.3,1.425,12.782,12.782,0,0,0,13.048-14.566,12.771,12.771,0,0,0-1.441-4.356A13.524,13.524,0,0,1,215.764,314.068Z" transform="translate(-192.718 -284.742)" fill="#d6802b"/>
          </g>
          <g id="Grupo_139067" data-name="Grupo 139067" transform="translate(12.067 9.566)">
            <path id="Trazado_200907" data-name="Trazado 200907" d="M212.167,306.911l.934,1.854-1.654.834-.909-1.8a8.786,8.786,0,0,1-4.787.752l-.107-2.477a7.491,7.491,0,0,0,3.8-.443l-1.392-2.763c-2.062.479-4.422.9-5.614-1.466-.884-1.754-.369-3.9,2.1-5.517l-.925-1.836,1.654-.834.909,1.8a8.374,8.374,0,0,1,3.868-.684l.2,2.452a7.589,7.589,0,0,0-2.965.416l1.418,2.813c2.053-.5,4.38-.9,5.556,1.433C215.113,303.164,214.606,305.288,212.167,306.911Zm-5.34-6.479-1.184-2.349c-.777.641-.882,1.3-.608,1.842C205.328,300.5,205.982,300.567,206.827,300.432Zm4.855,2.553c-.292-.579-.93-.651-1.766-.541l1.15,2.283C211.8,304.128,211.949,303.514,211.682,302.985Z" transform="translate(-202.035 -293.211)" fill="#d6802b"/>
          </g>
        </g>
        <g id="Grupo_139071" data-name="Grupo 139071" transform="translate(34.972 0)">
          <g id="Grupo_139069" data-name="Grupo 139069">
            <circle id="Elipse_6728" data-name="Elipse 6728" cx="16.524" cy="16.524" r="16.524" transform="translate(4.563 34.682) rotate(-75.571)" fill="#d6802b"/>
            <circle id="Elipse_6729" data-name="Elipse 6729" cx="16.524" cy="16.524" r="16.524" transform="translate(0 23.368) rotate(-45)" fill="#fcba33"/>
            <circle id="Elipse_6730" data-name="Elipse 6730" cx="12.802" cy="12.802" r="12.802" transform="translate(5.932 18.493) rotate(-29.379)" fill="#fcba33"/>
            <path id="Trazado_200908" data-name="Trazado 200908" d="M217.373,92.671a12.8,12.8,0,0,1-5.462-21.251,12.8,12.8,0,1,0,17.132,18.968A12.785,12.785,0,0,1,217.373,92.671Z" transform="translate(-196.553 -58.037)" fill="#d6802b"/>
            <path id="Trazado_200909" data-name="Trazado 200909" d="M239.491,84.3a13.471,13.471,0,0,1-2.605,4.835A12.8,12.8,0,0,0,231.1,67.7,13.522,13.522,0,0,1,239.491,84.3Z" transform="translate(-204.381 -56.824)" fill="#d6802b"/>
          </g>
          <g id="Grupo_139070" data-name="Grupo 139070" transform="translate(14.892 16.84)">
            <path id="Trazado_200910" data-name="Trazado 200910" d="M228.773,83.641l1.989.593-.53,1.776-1.935-.577a8.786,8.786,0,0,1-2.739,4l-1.875-1.623a7.493,7.493,0,0,0,2.288-3.068l-2.965-.885c-1.068,1.828-2.381,3.833-4.92,3.076-1.883-.562-3.09-2.411-2.573-5.312l-1.97-.587.529-1.776,1.935.577a8.385,8.385,0,0,1,2.158-3.281l1.92,1.539a7.581,7.581,0,0,0-1.734,2.441l3.019.9c1.049-1.833,2.352-3.8,4.856-3.056C228.073,78.927,229.268,80.754,228.773,83.641Zm-8.377-.566-2.521-.752c-.067,1,.336,1.531.922,1.705C219.418,84.215,219.914,83.783,220.4,83.076Zm5.19-1.777c-.621-.185-1.112.229-1.606.913l2.45.731C226.5,82,226.154,81.468,225.586,81.3Z" transform="translate(-213.543 -76.552)" fill="#d6802b"/>
          </g>
        </g>
      </g>
    </g>
  </g>
</svg>
