<svg xmlns="http://www.w3.org/2000/svg" xmlns:xlink="http://www.w3.org/1999/xlink" width="217.042" height="217.042" viewBox="0 0 217.042 217.042">
  <defs>
    <filter id="Trazado_200925" x="0" y="0" width="217.042" height="217.042" filterUnits="userSpaceOnUse">
      <feOffset dy="3" input="SourceAlpha"/>
      <feGaussianBlur stdDeviation="2" result="blur"/>
      <feFlood flood-color="#b2b2b4" flood-opacity="0.502"/>
      <feComposite operator="in" in2="blur"/>
      <feComposite in="SourceGraphic"/>
    </filter>
  </defs>
  <g id="Grupo_145576" data-name="Grupo 145576" transform="translate(-280.694 -2656.237)">
    <g id="Grupo_139082" data-name="Grupo 139082" transform="translate(286.694 2659.237)">
      <g id="Grupo_139081" data-name="Grupo 139081" transform="translate(0 0)">
        <g transform="matrix(1, 0, 0, 1, -6, -3)" filter="url(#Trazado_200925)">
          <path id="Trazado_200925-2" data-name="Trazado 200925" d="M72.494,0A72.493,72.493,0,1,1,0,72.494,72.492,72.492,0,0,1,72.494,0Z" transform="translate(6 105.52) rotate(-45)" fill="#fff"/>
        </g>
        <path id="Trazado_200912" data-name="Trazado 200912" d="M168.96,418.83a61.258,61.258,0,1,1,61.256-61.259A61.327,61.327,0,0,1,168.96,418.83Zm0-116.9A55.64,55.64,0,1,0,224.6,357.572,55.7,55.7,0,0,0,168.96,301.932Z" transform="translate(-66.439 -255.051)" fill="#afb4ff"/>
      </g>
      <path id="Trazado_200913" data-name="Trazado 200913" d="M243.579,376.428a85.163,85.163,0,0,1-136,0H91.329a98.644,98.644,0,0,0,168.514,0Z" transform="translate(-73.064 -222.642)" fill="#afb4ff"/>
    </g>
    <path id="gestion-de-riesgos" d="M39.3,18.48A38.537,38.537,0,0,0,69.306,3.925a38.528,38.528,0,0,0,30,14.555,37.577,37.577,0,0,0,6.2-.518c-1.6,41.886-18.238,57.44-36.2,67.739C51.34,75.4,34.7,59.848,33.1,17.962a37.572,37.572,0,0,0,6.2.518ZM68.626,88.488a1.34,1.34,0,0,0,1.359,0C82.493,81.42,91.112,73.391,97.11,63.2c7-11.879,10.668-27.221,11.215-46.882a1.386,1.386,0,0,0-.5-1.11,1.435,1.435,0,0,0-1.175-.284A35.577,35.577,0,0,1,70.423.842a1.384,1.384,0,0,0-2.235,0,35.575,35.575,0,0,1-36.23,14.086,1.433,1.433,0,0,0-1.174.284,1.383,1.383,0,0,0-.5,1.11c.546,19.661,4.216,35,11.215,46.882C47.5,73.391,56.116,81.421,68.626,88.488Zm.681-35.633a.395.395,0,1,0-.392-.395.4.4,0,0,0,.392.395Zm0-3.552a3.157,3.157,0,1,0,3.153,3.157A3.157,3.157,0,0,0,69.307,49.3Zm1.2-16.811a1.022,1.022,0,0,0-.281-.863,1.035,1.035,0,0,0-.835-.37h-.175A1.12,1.12,0,0,0,68.1,32.491l1.206,11.236Zm-1.116-4h-.175a3.878,3.878,0,0,0-3.865,4.292l1.495,13.937a2.47,2.47,0,0,0,4.913,0l1.495-13.937A3.875,3.875,0,0,0,69.393,28.5Zm-21.233,28a1.049,1.049,0,0,0,.947.555H89.5a1.049,1.049,0,0,0,.947-.555,1.024,1.024,0,0,0,0-1.085l-20.2-34.992a1.1,1.1,0,0,0-1.895,0L48.16,55.408A1.025,1.025,0,0,0,48.16,56.493Zm44.684,1.381a3.809,3.809,0,0,0,0-3.848l-20.2-34.992a3.861,3.861,0,0,0-6.68,0l-20.2,34.992a3.861,3.861,0,0,0,3.34,5.784H89.5a3.821,3.821,0,0,0,3.34-1.936Z" transform="translate(319.701 2720.784)" fill="#2432ff" fill-rule="evenodd"/>
  </g>
</svg>
