<svg xmlns="http://www.w3.org/2000/svg" width="79.802" height="79.802" viewBox="0 0 79.802 79.802">
  <g id="objetivo_1_" data-name="objetivo (1)" transform="translate(580.901 29.901)">
    <g id="Grupo_142821" data-name="Grupo 142821" transform="translate(-580.901 -29.901)">
      <path id="Trazado_202970" data-name="Trazado 202970" d="M2.266,54.759,5.8,59.464l-3.687,8.6A1.329,1.329,0,0,0,3.97,69.756l26.6-14.63a1.329,1.329,0,0,0,0-2.33L3.97,38.165a1.329,1.329,0,0,0-1.863,1.689l3.687,8.6L2.266,53.162a1.331,1.331,0,0,0,0,1.6Zm6.012,5.663,12.486-2.938L6.075,65.563Zm12.486-9.985L8.278,47.5l-2.2-5.141Zm-12.9-.3,16.26,3.826L7.862,57.786,4.993,53.96Z" transform="translate(-2 9.881)" fill="#30610c"/>
      <path id="Trazado_202971" data-name="Trazado 202971" d="M57.881,2A21.29,21.29,0,0,0,36.668,21.95H33.161l-3.6-3.6L27.68,20.231l1.72,1.72H23.965a13.965,13.965,0,1,0,0,27.931H38.71l3.6,3.6L44.191,51.6l-1.72-1.72H67.856a7.315,7.315,0,0,1,0,14.63H55.772l-3.6-3.6-1.881,1.881,1.72,1.72H31.281v2.66H52.01l-1.72,1.72,1.881,1.881,3.6-3.6H67.856a9.975,9.975,0,1,0,0-19.95H42.471l1.72-1.72L42.31,43.621l-3.6,3.6H23.965a11.305,11.305,0,1,1,0-22.611H29.4l-1.72,1.72,1.881,1.881,3.6-3.6h3.507A21.268,21.268,0,1,0,57.881,2Zm0,39.9a18.631,18.631,0,0,1-18.553-17.29h3.99a14.63,14.63,0,1,0,0-2.66h-3.99A18.611,18.611,0,1,1,57.881,41.9Zm-3.05-13.69,3.99-3.99a1.33,1.33,0,0,0,0-1.881l-3.99-3.99-1.881,1.881,1.72,1.72H45.989a11.97,11.97,0,1,1,0,2.66H54.67l-1.72,1.72Z" transform="translate(0.64 -2)" fill="#30610c"/>
      <path id="Trazado_202972" data-name="Trazado 202972" d="M53.98,19.98A7.989,7.989,0,0,0,46,12v2.66A5.32,5.32,0,1,1,46,25.3v2.66A7.989,7.989,0,0,0,53.98,19.98Z" transform="translate(12.521 1.3)" fill="#30610c"/>
    </g>
  </g>
</svg>
