<svg id="informe-financiero" xmlns="http://www.w3.org/2000/svg" width="121.224" height="121.224" viewBox="0 0 121.224 121.224">
  <g id="Grupo_142783" data-name="Grupo 142783" transform="translate(1.955 1.955)">
    <g id="Grupo_142765" data-name="Grupo 142765" transform="translate(41.06 105.583)">
      <path id="Trazado_202706" data-name="Trazado 202706" d="M66.015,61.866v5.866H23V61.866L40.6,56h7.821Z" transform="translate(-23 -56)" fill="#969faa"/>
    </g>
    <g id="Grupo_142766" data-name="Grupo 142766" transform="translate(19.552 7.821)">
      <path id="Trazado_202707" data-name="Trazado 202707" d="M12,6H98.03V80.3H12Z" transform="translate(-12 -6)" fill="#e6e9ed"/>
    </g>
    <g id="Grupo_142767" data-name="Grupo 142767" transform="translate(58.657 82.12)">
      <path id="Trazado_202708" data-name="Trazado 202708" d="M32,44h7.821V67.463H32Z" transform="translate(-32 -44)" fill="#aab2bd"/>
    </g>
    <g id="Grupo_142768" data-name="Grupo 142768" transform="translate(4.246 7.821)">
      <path id="Trazado_202709" data-name="Trazado 202709" d="M34.768,31.653a7.834,7.834,0,0,1-4.888,7.762c-1.447.567-3.031,1.193-4.536,1.779l-1.955-3.91-.117-.313A5.824,5.824,0,0,0,27.3,31.418V21.642A19.463,19.463,0,0,1,16.545,18.4l-.978-.665a7.065,7.065,0,0,0-3.91,6.335v7.352a5.824,5.824,0,0,0,4.028,5.553l-.117.313-1.955,3.91c-1.506-.587-3.089-1.212-4.536-1.779a7.834,7.834,0,0,1-4.888-7.762l.743-11.986a14.575,14.575,0,0,1,29.094,0Z" transform="translate(-4.172 -6)" fill="#b27946"/>
    </g>
    <g id="Grupo_142769" data-name="Grupo 142769" transform="translate(19.552 109.493)">
      <path id="Trazado_202710" data-name="Trazado 202710" d="M14.014,60.014a6.808,6.808,0,0,1,8.075-1.193,6.844,6.844,0,0,1,3.6,6.022v.978H12v-.978A6.765,6.765,0,0,1,14.014,60.014Z" transform="translate(-12 -58)" fill="#d3a06c"/>
    </g>
    <g id="Grupo_142770" data-name="Grupo 142770" transform="translate(5.866 109.493)">
      <path id="Trazado_202711" data-name="Trazado 202711" d="M18.687,64.843v.978H5v-.978a6.765,6.765,0,0,1,2.014-4.829A7.316,7.316,0,0,1,8.6,58.821,6.722,6.722,0,0,1,11.843,58,6.851,6.851,0,0,1,18.687,64.843Z" transform="translate(-5 -58)" fill="#d3a06c"/>
    </g>
    <g id="Grupo_142771" data-name="Grupo 142771" transform="translate(19.552 93.851)">
      <path id="Trazado_202712" data-name="Trazado 202712" d="M14.014,67.656A6.765,6.765,0,0,0,12,72.485V50H23.731L22.089,66.463a6.808,6.808,0,0,0-8.075,1.193Z" transform="translate(-12 -50)" fill="#f0d0b4"/>
    </g>
    <g id="Grupo_142772" data-name="Grupo 142772" transform="translate(7.821 93.851)">
      <path id="Trazado_202713" data-name="Trazado 202713" d="M17.731,50V72.485a6.851,6.851,0,0,0-6.843-6.843,6.722,6.722,0,0,0-3.246.821L6,50Z" transform="translate(-6 -50)" fill="#f0d0b4"/>
    </g>
    <g id="Grupo_142773" data-name="Grupo 142773" transform="translate(5.866 70.388)">
      <path id="Trazado_202714" data-name="Trazado 202714" d="M32.373,50.924V61.463H5V50.924c0-.391.02-.8.039-1.193A23.334,23.334,0,0,1,8.91,38H28.463a23.334,23.334,0,0,1,3.871,11.731C32.354,50.122,32.373,50.533,32.373,50.924Z" transform="translate(-5 -38)" fill="#969faa"/>
    </g>
    <g id="Grupo_142774" data-name="Grupo 142774" transform="translate(0 43.406)">
      <path id="Trazado_202715" data-name="Trazado 202715" d="M32.541,36.518a16.17,16.17,0,0,1,.743,4.829,15.992,15.992,0,0,1-.489,3.969l-1.466,5.866H11.776l-.978-3.91H2V39.588A15.831,15.831,0,0,1,5.891,29.147a15.659,15.659,0,0,1,7.86-4.927,7.821,7.821,0,0,0,15.622-.02l3.089.626a15.859,15.859,0,0,1,8.153,4.36l1.525,1.525L37.918,40.819Z" transform="translate(-2 -24.2)" fill="#b4dd7f"/>
    </g>
    <g id="Grupo_142775" data-name="Grupo 142775" transform="translate(35.918 44.97)">
      <path id="Trazado_202716" data-name="Trazado 202716" d="M39.1,25a4.014,4.014,0,0,1,4.008,4.008,4.061,4.061,0,0,1-1.408,3.07L31.71,40.642a8.246,8.246,0,0,1-5.3,1.955,8.127,8.127,0,0,1-5.084-1.779l-.958-.763,4.223-10.109,2.874,2.874,8.681-6.941a3.983,3.983,0,0,1,2.5-.88Z" transform="translate(-20.37 -25)" fill="#f0d0b4"/>
    </g>
    <g id="Grupo_142776" data-name="Grupo 142776" transform="translate(0 66.478)">
      <path id="Trazado_202717" data-name="Trazado 202717" d="M10.8,36l.978,3.91A23.334,23.334,0,0,0,7.9,51.642H5.91A3.922,3.922,0,0,1,2,47.731V36Z" transform="translate(-2 -36)" fill="#f0d0b4"/>
    </g>
    <g id="Grupo_142777" data-name="Grupo 142777" transform="translate(11.751 38.792)">
      <path id="Trazado_202718" data-name="Trazado 202718" d="M19.722,22.153l1.955,3.91,1.955.391a7.82,7.82,0,0,1-15.622.02,15.437,15.437,0,0,1,1.936-.411l1.955-3.91.117-.313a5.187,5.187,0,0,0,1.838.313h3.91A5.187,5.187,0,0,0,19.6,21.84Z" transform="translate(-8.01 -21.84)" fill="#f0d0b4"/>
    </g>
    <g id="Grupo_142778" data-name="Grupo 142778" transform="translate(11.731 19.552)">
      <path id="Trazado_202719" data-name="Trazado 202719" d="M23.642,15.91v9.776a5.824,5.824,0,0,1-4.028,5.553,5.187,5.187,0,0,1-1.838.313h-3.91a5.187,5.187,0,0,1-1.838-.313A5.824,5.824,0,0,1,8,25.687V18.335A7.065,7.065,0,0,1,11.91,12l.978.665A19.463,19.463,0,0,0,23.642,15.91Z" transform="translate(-8 -12)" fill="#f0d0b4"/>
    </g>
    <g id="Grupo_142779" data-name="Grupo 142779" transform="translate(78.209)">
      <path id="Trazado_202720" data-name="Trazado 202720" d="M61.552,2a19.546,19.546,0,0,1,7.821,37.462A19.32,19.32,0,0,1,61.552,41.1a19.552,19.552,0,1,1,0-39.1Z" transform="translate(-42 -2)" fill="#fcd770"/>
    </g>
    <g id="Grupo_142780" data-name="Grupo 142780" transform="translate(86.03 54.746)">
      <path id="Trazado_202721" data-name="Trazado 202721" d="M46,30h7.821V49.552H46Z" transform="translate(-46 -30)" fill="#ffeaa7"/>
    </g>
    <g id="Grupo_142781" data-name="Grupo 142781" transform="translate(70.388 43.015)">
      <path id="Trazado_202722" data-name="Trazado 202722" d="M38,24h7.821V55.284H38Z" transform="translate(-38 -24)" fill="#ffeaa7"/>
    </g>
    <g id="Grupo_142782" data-name="Grupo 142782" transform="translate(54.746 62.567)">
      <path id="Trazado_202723" data-name="Trazado 202723" d="M30,34h7.821V45.731H30Z" transform="translate(-30 -34)" fill="#ffeaa7"/>
    </g>
  </g>
  <g id="Grupo_142784" data-name="Grupo 142784">
    <path id="Trazado_202724" data-name="Trazado 202724" d="M122.224,22.508A21.5,21.5,0,0,0,84.138,8.821H22.508A16.553,16.553,0,0,0,6.015,24.314l-.751,12a9.728,9.728,0,0,0,5.629,9.442A17.994,17.994,0,0,0,1,61.751V81.164A5.873,5.873,0,0,0,6.866,87.03V98.762H9.007l1.355,13.554a8.764,8.764,0,0,0-3.5,6.976v2.933H38.149v-2.933a8.764,8.764,0,0,0-3.5-6.976l1.355-13.554h2.141V87.03H59.657v20.1l-17.6,5.866v9.231H88.985v-9.231l-17.6-5.866V87.03h39.1V41.641a21.517,21.517,0,0,0,11.731-19.134ZM9.169,36.562l.751-12a12.612,12.612,0,0,1,25.176,0l.751,12a5.846,5.846,0,0,1-3.666,5.807c-.917.368-1.887.751-2.857,1.132l-.434-.87a7.811,7.811,0,0,0,3.394-6.437V24.463H30.328a17.369,17.369,0,0,1-9.661-2.925l-1.93-1.287-1.015.506a8.983,8.983,0,0,0-4.992,8.077v7.359a7.811,7.811,0,0,0,3.394,6.437l-.434.87c-.97-.381-1.94-.764-2.859-1.132a5.847,5.847,0,0,1-3.664-5.807Zm19.2-.368a3.914,3.914,0,0,1-3.91,3.91h-3.91a3.914,3.914,0,0,1-3.91-3.91V28.835a5.079,5.079,0,0,1,1.922-4,21.248,21.248,0,0,0,9.809,3.449ZM17.932,47.761l1.908-3.819c.239.022.469.072.712.072h3.91c.242,0,.473-.051.71-.072L27.052,47.7l.972.194a5.83,5.83,0,0,1-11.031,0Zm-4.691,1.206a9.734,9.734,0,0,0,18.639-.3l1.154.231a13.944,13.944,0,0,1,7.146,3.824l.606.606-2.71,6.505L35.166,57.5a17.965,17.965,0,0,0-.9-2.168l-.231-.461-3.5,1.75.231.461A14.361,14.361,0,0,1,31.854,67l-1.1,4.389h-16.5L13.162,67a14.366,14.366,0,0,1,1.087-9.915l.231-.461-3.5-1.75-.231.461a18.378,18.378,0,0,0-1.93,8.179,18.183,18.183,0,0,0,.459,3.965H4.91V61.751a14.07,14.07,0,0,1,8.331-12.783Zm30.535,7.35,2.049,2.049,10.042-8.034a2.068,2.068,0,0,1,1.288-.452h.44a2.062,2.062,0,0,1,1.339,3.629l-10,8.57a6.345,6.345,0,0,1-7.676.272ZM34.239,94.851H10.776V86.258A21.24,21.24,0,0,1,13.822,75.3h17.37a21.24,21.24,0,0,1,3.046,10.959ZM4.91,81.164V71.388h5.316L10.63,73A25.151,25.151,0,0,0,7.069,83.12h-.2A1.957,1.957,0,0,1,4.91,81.164Zm5.963,37.149a4.889,4.889,0,0,1,9.581,0Zm4.79-7.821a8.7,8.7,0,0,0-1.539.156L12.937,98.762h7.616v13.221A8.748,8.748,0,0,0,15.664,110.493Zm8.9,7.821a4.889,4.889,0,0,1,9.581,0Zm6.329-7.665a8.485,8.485,0,0,0-6.427,1.333V98.762h7.616Zm54.185,7.665H45.97v-2.5l15.959-5.32h7.187l15.959,5.32Zm-17.6-11.731h-3.91V87.03h3.91Zm39.1-23.463H37.946A25.151,25.151,0,0,0,34.386,73l1.263-5.052a18.32,18.32,0,0,0,.546-4.433c0-.063-.01-.125-.012-.188l2.424,1.94a10.094,10.094,0,0,0,12.877-.217l10-8.568A5.974,5.974,0,0,0,57.594,45.97h-.44a6,6,0,0,0-3.731,1.308l-7.309,5.848-3.171-3.171a17.785,17.785,0,0,0-8.038-4.587,9.742,9.742,0,0,0,4.843-9.053l-.751-12A16.475,16.475,0,0,0,33.14,12.731H81.585a21.458,21.458,0,0,0,25,30.451ZM100.717,40.1a17.6,17.6,0,1,1,17.6-17.6A17.619,17.619,0,0,1,100.717,40.1Z" transform="translate(-1 -1)"/>
    <path id="Trazado_202725" data-name="Trazado 202725" d="M53.866,12.821h3.91a1.958,1.958,0,0,1,1.955,1.955h3.91A5.873,5.873,0,0,0,57.776,8.91V5h-3.91V8.91a5.866,5.866,0,0,0,0,11.731h3.91a1.955,1.955,0,0,1,0,3.91h-3.91A1.958,1.958,0,0,1,51.91,22.6H48a5.873,5.873,0,0,0,5.866,5.866v3.91h3.91v-3.91a5.866,5.866,0,0,0,0-11.731h-3.91a1.955,1.955,0,1,1,0-3.91Z" transform="translate(43.896 2.821)"/>
    <path id="Trazado_202726" data-name="Trazado 202726" d="M73.926,34.731H62.194V54.284h-3.91V23H46.552V54.284h-3.91V42.552H30.91V54.284H27v3.91H77.836v-3.91h-3.91ZM66.1,38.642h3.91V54.284H66.1ZM50.463,26.91h3.91V54.284h-3.91ZM34.821,46.463h3.91v7.821h-3.91Z" transform="translate(23.836 20.015)"/>
    <path id="Trazado_202727" data-name="Trazado 202727" d="M23,9h3.91v3.91H23Z" transform="translate(20.015 6.642)"/>
    <path id="Trazado_202728" data-name="Trazado 202728" d="M27,9H50.463v3.91H27Z" transform="translate(23.836 6.642)"/>
    <path id="Trazado_202729" data-name="Trazado 202729" d="M23,13H54.284v3.91H23Z" transform="translate(20.015 10.463)"/>
    <path id="Trazado_202730" data-name="Trazado 202730" d="M23,17h7.821v3.91H23Z" transform="translate(20.015 14.284)"/>
    <path id="Trazado_202731" data-name="Trazado 202731" d="M29,17H48.552v3.91H29Z" transform="translate(25.746 14.284)"/>
    <path id="Trazado_202732" data-name="Trazado 202732" d="M23,21H38.642v3.91H23Z" transform="translate(20.015 18.105)"/>
  </g>
</svg>
