<svg xmlns="http://www.w3.org/2000/svg" width="120.382" height="120.382" viewBox="0 0 120.382 120.382">
  <g id="profesor" transform="translate(0)">
    <g id="Grupo_142890" data-name="Grupo 142890" transform="translate(1.942 1.942)">
      <g id="Grupo_142862" data-name="Grupo 142862" transform="translate(25.668 69.899)">
        <path id="Trazado_203116" data-name="Trazado 203116" d="M22.559,38l3.456,8.64L20.618,61.3l-5.4-14.64L18.676,38Z" transform="translate(-15.22 -38)" fill="#e6e9ed"/>
      </g>
      <g id="Grupo_142863" data-name="Grupo 142863" transform="translate(25.979 62.132)">
        <path id="Trazado_203117" data-name="Trazado 203117" d="M20.467,34l5.087,3.048-3.145,4.718H18.525L15.38,37.048Z" transform="translate(-15.38 -34)" fill="#ccd1d9"/>
      </g>
      <g id="Grupo_142864" data-name="Grupo 142864" transform="translate(33.008 65.181)">
        <path id="Trazado_203118" data-name="Trazado 203118" d="M23.6,45.822l-1.146,3.107L19,40.288l3.145-4.718,4.1,2.466.214.078Z" transform="translate(-19 -35.57)" fill="#b4dd7f"/>
      </g>
      <g id="Grupo_142865" data-name="Grupo 142865" transform="translate(21.669 65.181)">
        <path id="Trazado_203119" data-name="Trazado 203119" d="M20.616,40.288l-3.456,8.66-1.146-3.126L13.16,38.114l.214-.078,4.1-2.466Z" transform="translate(-13.16 -35.57)" fill="#b4dd7f"/>
      </g>
      <g id="Grupo_142866" data-name="Grupo 142866" transform="translate(17.3 54.366)">
        <path id="Trazado_203120" data-name="Trazado 203120" d="M16.91,30l7.767,7.767-5.087,3.048-4.1,2.466-.214.078L10.91,31.5Z" transform="translate(-10.91 -30)" fill="#a0d468"/>
      </g>
      <g id="Grupo_142867" data-name="Grupo 142867" transform="translate(31.066 54.366)">
        <path id="Trazado_203121" data-name="Trazado 203121" d="M23.087,40.815,18,37.767,25.767,30l6,1.5L27.4,43.358l-.214-.078Z" transform="translate(-18 -30)" fill="#a0d468"/>
      </g>
      <g id="Grupo_142868" data-name="Grupo 142868" transform="translate(0 56.774)">
        <path id="Trazado_203122" data-name="Trazado 203122" d="M13.65,67.665H2v-20.6A15.844,15.844,0,0,1,6.66,35.822a15.855,15.855,0,0,1,7.378-4.175l1.612-.408,1.883,15.067,6.174,2.466-2.291,9.184,11.65,9.708Z" transform="translate(-2 -31.24)" fill="#fcd770"/>
      </g>
      <g id="Grupo_142869" data-name="Grupo 142869" transform="translate(31.066 56.774)">
        <path id="Trazado_203123" data-name="Trazado 203123" d="M37.416,44.365a7.767,7.767,0,1,1,0,15.533,7.764,7.764,0,0,1,7.767,7.767H18l11.65-9.708-2.291-9.184,6.174-2.466L35.416,31.24l1.612.408A15.884,15.884,0,0,1,48.833,44.365Z" transform="translate(-18 -31.24)" fill="#fcd770"/>
      </g>
      <g id="Grupo_142870" data-name="Grupo 142870" transform="translate(13.65 55.861)">
        <path id="Trazado_203124" data-name="Trazado 203124" d="M19.9,50.342l-2.815-1.126L10.913,46.75,9.03,31.683l3.65-.913,4.369,11.863Z" transform="translate(-9.03 -30.77)" fill="#ffc729"/>
      </g>
      <g id="Grupo_142871" data-name="Grupo 142871" transform="translate(19.416 74.307)">
        <path id="Trazado_203125" data-name="Trazado 203125" d="M18.252,44.522l5.4,14.64L12,49.454l2.291-9.184L17.107,41.4Z" transform="translate(-12 -40.27)" fill="#ffc729"/>
      </g>
      <g id="Grupo_142872" data-name="Grupo 142872" transform="translate(31.066 74.307)">
        <path id="Trazado_203126" data-name="Trazado 203126" d="M27.359,40.27l2.291,9.184L18,59.162,23.4,44.5,24.543,41.4Z" transform="translate(-18 -40.27)" fill="#ffc729"/>
      </g>
      <g id="Grupo_142873" data-name="Grupo 142873" transform="translate(37.61 55.861)">
        <path id="Trazado_203127" data-name="Trazado 203127" d="M32.243,31.683,30.36,46.75l-6.174,2.466L21.37,50.342l2.854-7.708L28.593,30.77Z" transform="translate(-21.37 -30.77)" fill="#ffc729"/>
      </g>
      <g id="Grupo_142874" data-name="Grupo 142874" transform="translate(5.825)">
        <path id="Trazado_203128" data-name="Trazado 203128" d="M32.532,21.416H30.416a9.78,9.78,0,0,1-7.262-3.262l-1.146.582a9.7,9.7,0,0,0-5.359,8.5H14.708A5.79,5.79,0,0,0,8.98,32.076,7.735,7.735,0,0,1,9.33,18.368a10.128,10.128,0,0,1-.447-2.777A9.633,9.633,0,0,1,23,6.99a7.751,7.751,0,0,1,14.485,0,9.633,9.633,0,0,1,14.116,8.6,10.128,10.128,0,0,1-.447,2.777A7.735,7.735,0,0,1,51.5,32.076a5.79,5.79,0,0,0-5.728-4.835H43.833V19.475a5.815,5.815,0,0,1-11.3,1.942Z" transform="translate(-5 -2)" fill="#656d78"/>
      </g>
      <g id="Grupo_142875" data-name="Grupo 142875" transform="translate(23.3 47.162)">
        <path id="Trazado_203129" data-name="Trazado 203129" d="M27.727,26.29l1.806,7.2L21.767,41.26,14,33.493l1.806-7.2a13.576,13.576,0,0,0,11.922,0Z" transform="translate(-14 -26.29)" fill="#f0d0b4"/>
      </g>
      <g id="Grupo_142876" data-name="Grupo 142876" transform="translate(9.708 25.241)">
        <path id="Trazado_203130" data-name="Trazado 203130" d="M14.767,15.175v9.533a10.769,10.769,0,0,0,.155,1.942h-2.1A5.834,5.834,0,0,1,7,20.825a4.284,4.284,0,0,1,.1-.99A5.79,5.79,0,0,1,12.825,15h1.942Z" transform="translate(-7 -15)" fill="#f0d0b4"/>
      </g>
      <g id="Grupo_142877" data-name="Grupo 142877" transform="translate(44.502 25.241)">
        <path id="Trazado_203131" data-name="Trazado 203131" d="M27.017,15a5.79,5.79,0,0,1,5.728,4.835,4.284,4.284,0,0,1,.1.99,5.834,5.834,0,0,1-5.825,5.825h-2.1a10.769,10.769,0,0,0,.155-1.942V15Z" transform="translate(-24.92 -15)" fill="#f0d0b4"/>
      </g>
      <g id="Grupo_142878" data-name="Grupo 142878" transform="translate(17.475 16.154)">
        <path id="Trazado_203132" data-name="Trazado 203132" d="M11,23.29V19.407a9.7,9.7,0,0,1,5.359-8.5L17.5,10.32a9.78,9.78,0,0,0,7.262,3.262h2.116a5.815,5.815,0,0,0,11.3-1.942V23.29a1.947,1.947,0,0,0-1.942-1.942H30.416a1.947,1.947,0,0,0-1.942,1.942H20.708a1.947,1.947,0,0,0-1.942-1.942H12.942A1.947,1.947,0,0,0,11,23.29Z" transform="translate(-11 -10.32)" fill="#f0d0b4"/>
      </g>
      <g id="Grupo_142879" data-name="Grupo 142879" transform="translate(17.475 29.125)">
        <path id="Trazado_203133" data-name="Trazado 203133" d="M28.475,17v3.883a1.947,1.947,0,0,0,1.942,1.942h5.825a1.947,1.947,0,0,0,1.942-1.942v1.942a10.77,10.77,0,0,1-.155,1.942,13.474,13.474,0,0,1-7.475,10.271,13.576,13.576,0,0,1-11.922,0,13.524,13.524,0,0,1-7.475-10.271A10.769,10.769,0,0,1,11,22.825V20.883a1.947,1.947,0,0,0,1.942,1.942h5.825a1.947,1.947,0,0,0,1.942-1.942V17Z" transform="translate(-11 -17)" fill="#f0d0b4"/>
      </g>
      <g id="Grupo_142880" data-name="Grupo 142880" transform="translate(34.95 27.183)">
        <path id="Trazado_203134" data-name="Trazado 203134" d="M29.708,17.942v3.883a1.947,1.947,0,0,1-1.942,1.942H21.942A1.947,1.947,0,0,1,20,21.825V17.942A1.947,1.947,0,0,1,21.942,16h5.825A1.947,1.947,0,0,1,29.708,17.942Z" transform="translate(-20 -16)" fill="#69d6f4"/>
      </g>
      <g id="Grupo_142881" data-name="Grupo 142881" transform="translate(17.475 27.183)">
        <path id="Trazado_203135" data-name="Trazado 203135" d="M20.708,17.942v3.883a1.947,1.947,0,0,1-1.942,1.942H12.942A1.947,1.947,0,0,1,11,21.825V17.942A1.947,1.947,0,0,1,12.942,16h5.825A1.947,1.947,0,0,1,20.708,17.942Z" transform="translate(-11 -16)" fill="#69d6f4"/>
      </g>
      <g id="Grupo_142882" data-name="Grupo 142882" transform="translate(50.483 100.965)">
        <path id="Trazado_203136" data-name="Trazado 203136" d="M51.3,54a7.767,7.767,0,1,1,0,15.533H28A7.767,7.767,0,1,0,28,54H51.3Z" transform="translate(-28 -54)" fill="#e6e9ed"/>
      </g>
      <g id="Grupo_142883" data-name="Grupo 142883" transform="translate(73.782 100.965)">
        <path id="Trazado_203137" data-name="Trazado 203137" d="M74.949,54a7.767,7.767,0,1,1,0,15.533H40A7.767,7.767,0,1,0,40,54Z" transform="translate(-40 -54)" fill="#cf9e76"/>
      </g>
      <g id="Grupo_142884" data-name="Grupo 142884" transform="translate(73.782 85.432)">
        <path id="Trazado_203138" data-name="Trazado 203138" d="M74.949,46a7.767,7.767,0,1,1,0,15.533H40A7.767,7.767,0,1,0,40,46Z" transform="translate(-40 -46)" fill="#fcd770"/>
      </g>
      <g id="Grupo_142885" data-name="Grupo 142885" transform="translate(50.483 85.432)">
        <path id="Trazado_203139" data-name="Trazado 203139" d="M51.3,46a7.767,7.767,0,1,1,0,15.533H28A7.767,7.767,0,1,0,28,46H51.3Z" transform="translate(-28 -46)" fill="#cf9e76"/>
      </g>
      <g id="Grupo_142886" data-name="Grupo 142886" transform="translate(50.483 69.899)">
        <path id="Trazado_203140" data-name="Trazado 203140" d="M51.3,38a7.767,7.767,0,1,1,0,15.533H28A7.767,7.767,0,0,0,28,38H51.3Z" transform="translate(-28 -38)" fill="#e6e9ed"/>
      </g>
      <g id="Grupo_142887" data-name="Grupo 142887" transform="translate(73.782 69.899)">
        <path id="Trazado_203141" data-name="Trazado 203141" d="M74.949,38a7.767,7.767,0,1,1,0,15.533H40A7.767,7.767,0,1,0,40,38H74.949Z" transform="translate(-40 -38)" fill="#cf9e76"/>
      </g>
      <g id="Grupo_142888" data-name="Grupo 142888" transform="translate(83.51 11.65)">
        <path id="Trazado_203142" data-name="Trazado 203142" d="M45.243,19.65h-.019c-.058-.233-.136-.466-.214-.7A11.655,11.655,0,0,1,56.64,8H68.29A11.667,11.667,0,0,1,56.64,19.65Z" transform="translate(-45.01 -8)" fill="#b4dd7f"/>
      </g>
      <g id="Grupo_142889" data-name="Grupo 142889" transform="translate(66.099 31.852)">
        <path id="Trazado_203143" data-name="Trazado 203143" d="M65.123,18.939c6.33,3.126,9.669,10.194,9.669,18.1A19.407,19.407,0,0,1,55.4,56.452c-.388,0-.757-.019-1.146-.039-12.1-.68-20.135-12.524-17.8-24.406,1.087-5.65,4.116-10.407,8.873-12.892a5.767,5.767,0,0,1,6.737,1.01,4.688,4.688,0,0,0,6.64,0A5.647,5.647,0,0,1,65.123,18.939Z" transform="translate(-36.043 -18.404)" fill="#ff826e"/>
      </g>
    </g>
    <g id="Grupo_142891" data-name="Grupo 142891" transform="translate(0)">
      <path id="Trazado_203144" data-name="Trazado 203144" d="M35,57h3.883v3.883H35Z" transform="translate(31.016 51.732)"/>
      <path id="Trazado_203145" data-name="Trazado 203145" d="M39,57h3.883v3.883H39Z" transform="translate(34.782 51.732)"/>
      <path id="Trazado_203146" data-name="Trazado 203146" d="M121.382,96.14a9.673,9.673,0,0,0-3.943-7.767A9.678,9.678,0,0,0,111.673,70.9H100.622a21.808,21.808,0,0,0,2.425-1.955,21.161,21.161,0,0,0,6.685-15.52c0-9.1-4.021-16.514-10.759-19.83a7.536,7.536,0,0,0-8.65,1.544l-.008.008c-.027.027-.066.035-.1.062a43.029,43.029,0,0,0-1.039-7.025h8.9a13.609,13.609,0,0,0,13.591-13.591V12.65H98.082a13.594,13.594,0,0,0-11.978,7.2c-2.351-4.307-5.567-7.2-9.38-7.2v3.883c4.555,0,8.871,8.654,9.592,18.514a7.674,7.674,0,0,0-8.9-1.274c-5.1,2.662-8.613,7.722-9.891,14.244A23.115,23.115,0,0,0,71.9,66.666,21.471,21.471,0,0,0,76.3,70.9H66.35A17.645,17.645,0,0,0,53.508,58.241L43.374,55.708l-1.163-4.652a15.568,15.568,0,0,0,6.817-9.281h.513a7.774,7.774,0,0,0,7.767-7.767,9.729,9.729,0,0,0,3.883-7.767,9.61,9.61,0,0,0-4.054-7.86,10.139,10.139,0,0,0,.171-1.848,11.662,11.662,0,0,0-11.65-11.65,11.193,11.193,0,0,0-3.5.567,9.679,9.679,0,0,0-16.29,0,11.193,11.193,0,0,0-3.5-.567,11.662,11.662,0,0,0-11.65,11.65,10.139,10.139,0,0,0,.171,1.848,9.61,9.61,0,0,0-4.054,7.86,9.735,9.735,0,0,0,3.883,7.767,7.774,7.774,0,0,0,7.767,7.767h.511A15.563,15.563,0,0,0,25.8,51.055l-1.163,4.652L14.506,58.24A17.829,17.829,0,0,0,1,75.54V98.082H58.892a5.817,5.817,0,0,1-5.468,3.883v3.883a5.825,5.825,0,0,1,0,11.65v3.883h58.249a9.678,9.678,0,0,0,5.765-17.475,9.673,9.673,0,0,0,3.943-7.767Zm-23.3-79.607h9.512A9.725,9.725,0,0,1,98.082,24.3H88.568A9.718,9.718,0,0,1,98.082,16.533Zm13.591,58.249a5.825,5.825,0,1,1,0,11.65H84.44a9.512,9.512,0,0,0,0-11.65Zm-36.709-10.5a19.236,19.236,0,0,1-3.625-15.52c1.047-5.341,3.842-9.442,7.877-11.547A3.855,3.855,0,0,1,81,36.777a3.8,3.8,0,0,1,2.687,1.114,6.79,6.79,0,0,0,9.374,0l.008-.008a3.708,3.708,0,0,1,4.188-.806c5.378,2.648,8.59,8.761,8.59,16.347A17.475,17.475,0,0,1,87.364,70.87a16.723,16.723,0,0,1-12.4-6.586Zm1.759,10.5a5.825,5.825,0,1,1,0,11.65H61.14a9.512,9.512,0,0,0,0-11.65H76.724ZM59.047,65.676A13.9,13.9,0,0,1,62.327,70.9h-8.9v3.883a5.825,5.825,0,1,1,0,11.65v3.883A5.817,5.817,0,0,1,58.892,94.2H39.371l8.466-7.056-2.179-8.716,5.668-2.268,1.749-13.988a13.909,13.909,0,0,1,5.972,3.5ZM19.024,61.113l5.1,13.84-3.868-1.546L18.731,61.187Zm14.984,6.225,2.34,1.4L34.911,70.9h-1.8l-1.439-2.157Zm15.277-6.151L47.759,73.406l-3.868,1.546,5.1-13.838Zm-15.9,13.6h1.254l2.695,6.736-3.322,9.009-3.322-9.009Zm8.66,5.184,1.439,5.755L38.342,90Zm-2.7-3.891-1.2-3.008,1.549-2.326,1.326.8Zm-11-5.332,1.549,2.326-1.2,3.008L27.006,71.54Zm-2.359,9.223L29.676,90l-5.138-4.281ZM45.2,60.166l-2.825,7.666L37.14,64.69l5.231-5.231ZM36.489,30.125H31.525a3.871,3.871,0,0,0-3.344-1.942H22.368a7.713,7.713,0,0,1,4.2-6.724A11.592,11.592,0,0,0,34.183,24.3h.9a7.643,7.643,0,0,0,10.57,2.8v1.08H39.833A3.871,3.871,0,0,0,36.489,30.125ZM22.358,32.066h5.825l0,3.883H22.358Zm17.475,0h5.825V35.95H39.833Zm9.708,5.825V30.125a3.883,3.883,0,1,1,0,7.767ZM10.708,26.241a5.787,5.787,0,0,1,3.256-5.2l1.468-.728L14.96,18.75a7.693,7.693,0,0,1-.369-2.217,7.774,7.774,0,0,1,7.767-7.767,7.663,7.663,0,0,1,3.526.893l1.926.992.775-2.021a5.8,5.8,0,0,1,10.844,0l.775,2.021L42.13,9.66a7.676,7.676,0,0,1,3.528-.893,7.774,7.774,0,0,1,7.767,7.767,7.693,7.693,0,0,1-.369,2.217l-.47,1.569,1.468.728a5.709,5.709,0,0,1,1.99,8.737,7.758,7.758,0,0,0-6.5-3.543V20.416a7.774,7.774,0,0,0-7.767-7.767v3.883a3.883,3.883,0,1,1-3.883,3.883V16.533H34.008V20.4a7.712,7.712,0,0,1-6.77-4.281l-1.2-2.4-3.474,1.738,1.2,2.4c.1.2.223.373.33.561a11.524,11.524,0,0,0-5.406,7.819h-.214a7.755,7.755,0,0,0-6.5,3.542,5.786,5.786,0,0,1-1.266-3.542Zm3.883,7.767a3.887,3.887,0,0,1,3.883-3.883v7.767A3.887,3.887,0,0,1,14.591,34.008Zm7.941,5.825h5.65a3.887,3.887,0,0,0,3.883-3.883V34.008H35.95V35.95a3.887,3.887,0,0,0,3.883,3.883h5.65a11.636,11.636,0,0,1-22.95,0ZM34.008,53.424a15.513,15.513,0,0,0,4.619-.7l1,3.99-5.615,5.615-5.617-5.617,1-3.988a15.536,15.536,0,0,0,4.621.7Zm-8.363,6.033,5.231,5.231-5.237,3.144-2.827-7.666Zm-13,21.15V94.2H4.883V75.54A13.868,13.868,0,0,1,14.941,62.171l1.749,13.99,5.668,2.266L20.18,87.143,28.645,94.2H16.533V80.607ZM63.132,96.14a9.608,9.608,0,0,0-1.992-5.825H76.724a5.825,5.825,0,1,1,0,11.65H61.14A9.608,9.608,0,0,0,63.132,96.14ZM72.841,117.5H61.14a9.512,9.512,0,0,0,0-11.65H76.724a5.825,5.825,0,1,1,0,11.65Zm44.658-5.825a5.832,5.832,0,0,1-5.825,5.825H84.44a9.512,9.512,0,0,0,0-11.65h27.233A5.832,5.832,0,0,1,117.5,111.673Zm-5.825-9.708H84.44a9.512,9.512,0,0,0,0-11.65h27.233a5.825,5.825,0,1,1,0,11.65Z" transform="translate(-1 -1)"/>
      <path id="Trazado_203147" data-name="Trazado 203147" d="M39,49h3.883v3.883H39Z" transform="translate(34.782 44.199)"/>
      <path id="Trazado_203148" data-name="Trazado 203148" d="M35,49h3.883v3.883H35Z" transform="translate(31.016 44.199)"/>
      <path id="Trazado_203149" data-name="Trazado 203149" d="M39,41h3.883v3.883H39Z" transform="translate(34.782 36.666)"/>
      <path id="Trazado_203150" data-name="Trazado 203150" d="M35,41h3.883v3.883H35Z" transform="translate(31.016 36.666)"/>
      <path id="Trazado_203151" data-name="Trazado 203151" d="M52.591,37.708A9.719,9.719,0,0,1,42.883,28H39A13.609,13.609,0,0,0,52.591,41.591Z" transform="translate(34.782 24.424)"/>
    </g>
  </g>
</svg>
