<svg xmlns="http://www.w3.org/2000/svg" width="80.085" height="79.68" viewBox="0 0 80.085 79.68">
  <g id="banco" transform="translate(-0.001 -1.295)">
    <g id="Grupo_142705" data-name="Grupo 142705" transform="translate(0.001 1.295)">
      <path id="Trazado_202389" data-name="Trazado 202389" d="M73.863,56.341a1.874,1.874,0,0,0,1.874-1.869V51.224h2.458a1.894,1.894,0,0,0,1.891-1.891V45.041a1.894,1.894,0,0,0-1.891-1.891h-3.38V30.255a4.186,4.186,0,0,0,1.012.126,4.289,4.289,0,0,0,1.114-.148,4.251,4.251,0,0,0,1.02-7.782L42.322,1.875a4.766,4.766,0,0,0-4.555,0L2.124,22.451a4.251,4.251,0,0,0,3.152,7.8V43.15H1.9A1.894,1.894,0,0,0,0,45.041v4.292A1.894,1.894,0,0,0,1.9,51.224H4.354v3.247a1.871,1.871,0,0,0,1.869,1.869H7.635V67.783H6.223a1.873,1.873,0,0,0-1.869,1.874V72.9H1.9A1.894,1.894,0,0,0,0,74.791v4.292A1.894,1.894,0,0,0,1.9,80.975H37.6a1.173,1.173,0,0,0,0-2.346H2.351V75.246H77.739v3.382H43.009a1.173,1.173,0,0,0,0,2.346H78.194a1.894,1.894,0,0,0,1.891-1.891V74.791A1.894,1.894,0,0,0,78.194,72.9H75.736V69.657a1.876,1.876,0,0,0-1.874-1.874H72.451V56.341h1.412ZM5.2,27.78a1.91,1.91,0,0,1-2.6-.7h0a1.906,1.906,0,0,1,.7-2.6L38.943,3.9a2.255,2.255,0,0,1,1.1-.262,2.225,2.225,0,0,1,1.1.264L76.788,24.483a1.9,1.9,0,0,1-1.9,3.3L40.629,8a1.173,1.173,0,0,0-1.173,0ZM2.351,45.5H37.6a1.173,1.173,0,1,0,0-2.346H7.622V29.091l32.42-18.72,32.425,18.72V43.15H42.814a1.173,1.173,0,1,0,0,2.346H77.739v3.382H2.351Zm30.419,8.5v-2.77H47.316v2.77ZM44.03,56.341V67.784H36.055V56.341ZM6.7,53.995v-2.77H21.242v2.77Zm11.261,2.346V67.784H9.981V56.341ZM21.242,72.9H6.7V70.13H21.242Zm9.182-3.243V72.9H23.588V69.657a1.873,1.873,0,0,0-1.869-1.874H20.307V56.341h1.412a1.871,1.871,0,0,0,1.869-1.869V51.224h6.836v3.247A1.873,1.873,0,0,0,32.3,56.341h1.412V67.784H32.3A1.876,1.876,0,0,0,30.423,69.657ZM47.316,72.9H32.77V70.13H47.316ZM56.5,69.657V72.9H49.662V69.657a1.876,1.876,0,0,0-1.874-1.874H46.377V56.341h1.412a1.874,1.874,0,0,0,1.874-1.869V51.224H56.5v3.247a1.874,1.874,0,0,0,1.874,1.869h1.412V67.784H58.371A1.876,1.876,0,0,0,56.5,69.657Zm16.892.473V72.9H58.844V70.13ZM62.129,67.784V56.341H70.1V67.784ZM58.844,53.995v-2.77H73.39v2.77Z" transform="translate(-0.001 -1.295)" fill="#30610c"/>
      <path id="Trazado_202390" data-name="Trazado 202390" d="M235.452,92.424a4.928,4.928,0,1,0-4.928,4.929A4.934,4.934,0,0,0,235.452,92.424Zm-7.51,0a2.582,2.582,0,1,1,2.582,2.582A2.585,2.585,0,0,1,227.941,92.424Z" transform="translate(-190.308 -74.012)" fill="#30610c"/>
      <g id="Grupo_142704" data-name="Grupo 142704" transform="translate(19.315 26.771)">
        <path id="Trazado_202391" data-name="Trazado 202391" d="M130.061,178.2a3.264,3.264,0,0,0-2.758-5.017h-2.646a1.173,1.173,0,0,0-1.173,1.173v9.11a1.173,1.173,0,0,0,1.173,1.173h.005s2.433-.011,3.1-.011a3.624,3.624,0,0,0,2.3-6.428Zm-2.758-2.671a.923.923,0,0,1,0,1.846l-1.473,0v-1.849H127.3Zm.462,6.753c-.357,0-1.212,0-1.935.006v-2.562l1.935,0a1.279,1.279,0,0,1,0,2.558Z" transform="translate(-123.483 -173.064)" fill="#30610c"/>
        <path id="Trazado_202392" data-name="Trazado 202392" d="M193.32,174.066l-.012-.031a1.375,1.375,0,0,0-1.276-.855h0a1.375,1.375,0,0,0-1.276.857l-.01.027-3.421,8.982a1.173,1.173,0,0,0,2.193.835l.564-1.481h3.877l.558,1.478a1.173,1.173,0,1,0,2.2-.828Zm-2.346,5.986,1.054-2.767,1.044,2.767Z" transform="translate(-177.273 -173.065)" fill="#30610c"/>
        <path id="Trazado_202393" data-name="Trazado 202393" d="M271.307,173.179H271.3a1.173,1.173,0,0,0-1.162,1.184l.053,5.44-4.213-6.1a1.173,1.173,0,0,0-2.139.667v9.093a1.173,1.173,0,0,0,2.346,0v-5.33l4.01,5.807a1.292,1.292,0,0,0,1.46.537,1.339,1.339,0,0,0,.913-1.332l-.085-8.8A1.173,1.173,0,0,0,271.307,173.179Z" transform="translate(-241.882 -173.065)" fill="#30610c"/>
        <path id="Trazado_202394" data-name="Trazado 202394" d="M348.712,182l-4.1-3.953,3.75-3.446a1.173,1.173,0,0,0-1.588-1.727l-2.995,2.753v-2.006a1.173,1.173,0,0,0-2.346,0v9.224a1.173,1.173,0,1,0,2.346,0v-2.341l3.3,3.186A1.173,1.173,0,1,0,348.712,182Z" transform="translate(-307.344 -172.45)" fill="#30610c"/>
      </g>
    </g>
  </g>
</svg>
