<svg xmlns="http://www.w3.org/2000/svg" width="95.036" height="135.162" viewBox="0 0 95.036 135.162">
  <g id="tarjeta-de-credito_1_" data-name="tarjeta-de-credito (1)" transform="translate(0 0)">
    <path id="Trazado_203319" data-name="Trazado 203319" d="M313.2,15.28v87.644a5.278,5.278,0,0,1-5.28,5.28H300V10h7.92A5.278,5.278,0,0,1,313.2,15.28Zm0,0" transform="translate(-220.804 -7.36)" fill="#a8ebfa"/>
    <path id="Trazado_203320" data-name="Trazado 203320" d="M250,10h13.2v98.2H250Zm0,0" transform="translate(-184.003 -7.36)" fill="#575972"/>
    <path id="Trazado_203321" data-name="Trazado 203321" d="M115.28,10A5.278,5.278,0,0,0,110,15.28V108.2h36.958V10Zm0,0" transform="translate(-80.961 -7.36)" fill="#a8ebfa"/>
    <path id="Trazado_203322" data-name="Trazado 203322" d="M41.663,211.665H67.251A23.169,23.169,0,0,1,52.238,227.5v15.839H10v-59.5a15.851,15.851,0,0,1,4.559-11.119L36.4,150.571v32.056l14.316-14.316a7.753,7.753,0,0,1,11.2,10.72L41.678,200.625v10.182q0,.432-.015.858Zm0,0" transform="translate(-7.36 -110.822)" fill="#fed2a4"/>
    <path id="Trazado_203323" data-name="Trazado 203323" d="M192.64,157.28a2.64,2.64,0,1,0-2.64-2.64A2.641,2.641,0,0,0,192.64,157.28Zm0,0" transform="translate(-139.842 -111.874)"/>
    <path id="Trazado_203324" data-name="Trazado 203324" d="M87.116,0h-52.8a7.928,7.928,0,0,0-7.92,7.92V38.666L5.318,60.048A18.377,18.377,0,0,0,0,73.019v59.5a2.64,2.64,0,0,0,2.64,2.64H44.878a2.64,2.64,0,0,0,2.64-2.64V118.51a25.743,25.743,0,0,0,14.3-15.027h25.3a7.928,7.928,0,0,0,7.92-7.92V7.919A7.928,7.928,0,0,0,87.116,0ZM76.557,5.28V98.2h-7.92V5.28Zm-42.238,0H63.357V98.2h-26.4V90.847L56.479,70.014l.021-.022A10.393,10.393,0,0,0,41.488,55.622l-9.81,9.809V7.92a2.642,2.642,0,0,1,2.64-2.64Zm9.724,108.9a2.639,2.639,0,0,0-1.8,2.5v13.2H5.28V73.02a13.134,13.134,0,0,1,3.8-9.266L26.4,46.187V70.711L15.293,81.818a2.64,2.64,0,1,0,3.733,3.733l26.2-26.195a5.113,5.113,0,0,1,7.395,7.06L32.392,88a2.641,2.641,0,0,0-.714,1.8V99.985A20.566,20.566,0,0,1,29.013,110.1a2.64,2.64,0,0,0,4.593,2.6,25.909,25.909,0,0,0,3.111-9.225H56.108a20.5,20.5,0,0,1-12.065,10.7ZM89.756,95.564a2.642,2.642,0,0,1-2.64,2.64h-5.28V5.28h5.28a2.642,2.642,0,0,1,2.64,2.64Zm0,0" transform="translate(0 0)"/>
    <path id="Trazado_203325" data-name="Trazado 203325" d="M192.64,64.287a2.64,2.64,0,0,0,2.64-2.64V42.64a2.64,2.64,0,1,0-5.28,0V61.647A2.64,2.64,0,0,0,192.64,64.287Zm0,0" transform="translate(-139.842 -29.44)"/>
    <path id="Trazado_203326" data-name="Trazado 203326" d="M152.64,74.846a2.64,2.64,0,0,0,2.64-2.64V42.64a2.64,2.64,0,0,0-5.28,0V72.207A2.64,2.64,0,0,0,152.64,74.846Zm0,0" transform="translate(-110.402 -29.44)"/>
  </g>
</svg>
