<svg id="Page-1" xmlns="http://www.w3.org/2000/svg" width="78.921" height="78.921" viewBox="0 0 78.921 78.921">
  <g id="_013---Balance-House-Finance" data-name="013---Balance-House-Finance">
    <g id="Grupo_142761" data-name="Grupo 142761">
      <path id="Shape" d="M74.975,7.892H44.694A6.635,6.635,0,0,0,43.406,6.6V3.946a3.946,3.946,0,1,0-7.892,0V6.6a6.635,6.635,0,0,0-1.288,1.288H3.946a3.946,3.946,0,1,0,0,7.892H14.7L6.782,28.231A1.316,1.316,0,0,0,9,29.644l8.1-12.725,8.1,12.725a1.316,1.316,0,1,0,2.22-1.413L19.5,15.784H34.228a6.635,6.635,0,0,0,1.288,1.288v45.52a10.615,10.615,0,0,0-6.494,8.437H26.965a2.631,2.631,0,0,0-2.552,1.993l-.658,2.631a2.631,2.631,0,0,0,2.552,3.269H52.614a2.631,2.631,0,0,0,2.552-3.269l-.658-2.631a2.631,2.631,0,0,0-2.552-1.993H49.9a10.615,10.615,0,0,0-6.493-8.437V17.072a6.634,6.634,0,0,0,1.288-1.288H59.426L51.505,28.231a1.316,1.316,0,1,0,2.22,1.413l8.1-12.725,8.1,12.725a1.316,1.316,0,0,0,2.22-1.413L64.218,15.784H74.975a3.946,3.946,0,1,0,0-7.892ZM51.956,73.659l.658,2.631H26.307l.658-2.631ZM74.975,13.153H43.992a1.315,1.315,0,0,0-1.136.658,3.962,3.962,0,0,1-1.422,1.422,1.315,1.315,0,0,0-.658,1.136V63.523a1.315,1.315,0,0,0,.939,1.26,7.945,7.945,0,0,1,5.522,6.245H31.684a7.945,7.945,0,0,1,5.524-6.245,1.315,1.315,0,0,0,.937-1.26V16.37a1.315,1.315,0,0,0-.658-1.136,3.962,3.962,0,0,1-1.422-1.422,1.315,1.315,0,0,0-1.136-.658H3.946a1.315,1.315,0,1,1,0-2.631H34.929a1.315,1.315,0,0,0,1.136-.658,3.962,3.962,0,0,1,1.422-1.422,1.315,1.315,0,0,0,.658-1.136V3.946a1.315,1.315,0,1,1,2.631,0V7.307a1.315,1.315,0,0,0,.658,1.136,3.962,3.962,0,0,1,1.422,1.422,1.315,1.315,0,0,0,1.136.658H74.975a1.315,1.315,0,1,1,0,2.631Z" fill="#30610c"/>
      <ellipse id="Oval" cx="1.604" cy="1.283" rx="1.604" ry="1.283" transform="translate(37.856 10.298)" fill="#30610c"/>
      <path id="Shape-2" data-name="Shape" d="M30.938,37.469A14.469,14.469,0,1,0,16.469,51.938,14.469,14.469,0,0,0,30.938,37.469Zm-26.307,0A11.838,11.838,0,1,1,16.469,49.307,11.838,11.838,0,0,1,4.631,37.469Z" transform="translate(0.631 7.253)" fill="#30610c"/>
      <path id="Shape-3" data-name="Shape" d="M15.261,44.1V42.542a3.937,3.937,0,0,0-1.315-7.65,1.315,1.315,0,1,1,0-2.631h2.631a1.315,1.315,0,1,0,0-2.631H15.261V28.315a1.315,1.315,0,1,0-2.631,0v1.557a3.937,3.937,0,0,0,1.315,7.65,1.315,1.315,0,0,1,0,2.631H11.315a1.315,1.315,0,1,0,0,2.631h1.315V44.1a1.315,1.315,0,0,0,2.631,0Z" transform="translate(3.153 8.514)" fill="#30610c"/>
      <path id="Shape-4" data-name="Shape" d="M41.577,50.622H59.992a2.631,2.631,0,0,0,2.631-2.631V34.551L64.48,35.9a1.315,1.315,0,0,0,1.547-2.128L51.558,23.251a1.315,1.315,0,0,0-1.547,0L35.542,33.774A1.315,1.315,0,1,0,37.089,35.9l1.857-1.351v13.44a2.631,2.631,0,0,0,2.631,2.631Zm11.838-2.631H48.154V40.1h5.261Zm-2.631-22.05,9.207,6.7V47.992H56.046V40.1a2.631,2.631,0,0,0-2.631-2.631H48.154A2.631,2.631,0,0,0,45.523,40.1v7.892H41.577V32.638Z" transform="translate(11.037 7.253)" fill="#30610c"/>
    </g>
  </g>
</svg>
