<svg xmlns="http://www.w3.org/2000/svg" width="83.712" height="84.995" viewBox="0 0 83.712 84.995">
  <g id="sistemas" transform="translate(-7.45 -4.88)">
    <path id="Trazado_203286" data-name="Trazado 203286" d="M184.7,138.236l-.111,14.16a3.463,3.463,0,0,1-1.017,2.45L167.5,170.919a3.074,3.074,0,0,0-.9,2.174v1.469H151.114v-9.585h.006a11.819,11.819,0,0,1,3.453-8.759c7.359-7.352,5.623-5.616,8.46-8.454a2.88,2.88,0,0,1,4.117.046,2.918,2.918,0,0,1-.089,4.064l-4,4a3.169,3.169,0,0,0,.04,4.516,3.277,3.277,0,0,0,4.513-.111l9.862-9.865a2.7,2.7,0,0,0,.8-1.915l.111-10.262a3.16,3.16,0,1,1,6.32,0Z" transform="translate(-94.397 -85.546)" fill="#ffb69f"/>
    <path id="Trazado_203287" data-name="Trazado 203287" d="M43.532,174.56H28.043v-1.469a3.075,3.075,0,0,0-.9-2.174l-16.07-16.073a3.462,3.462,0,0,1-1.017-2.45l-.111-14.16a3.16,3.16,0,1,1,6.321,0l.111,10.262a2.7,2.7,0,0,0,.8,1.915l9.862,9.865a3.277,3.277,0,0,0,4.513.111,3.17,3.17,0,0,0,.04-4.516l-4-4a2.918,2.918,0,0,1-.089-4.064,2.88,2.88,0,0,1,4.116-.046c2.837,2.837,1.1,1.1,8.46,8.454a11.819,11.819,0,0,1,3.459,8.379Z" transform="translate(-1.639 -85.544)" fill="#ffb69f"/>
    <path id="Trazado_203288" data-name="Trazado 203288" d="M186.09,175.715a.857.857,0,0,1,0-1.212l.727-.727a.857.857,0,0,1,1.212,1.212l-.727.727A.857.857,0,0,1,186.09,175.715Zm3.153-3.152a.857.857,0,0,1,0-1.212l14.585-14.586.111-14.12a.857.857,0,0,1,.857-.85h.007a.857.857,0,0,1,.85.864l-.111,14.139a1.622,1.622,0,0,1-.473,1.151l-14.615,14.615A.857.857,0,0,1,189.242,172.563Z" transform="translate(-117.214 -89.962)" fill="#fbe0e2"/>
    <path id="Trazado_203289" data-name="Trazado 203289" d="M77,199.659a.857.857,0,0,1-.857-.857v-1.029a.857.857,0,0,1,.857-.858h0a.857.857,0,0,1,.857.857V198.8a.857.857,0,0,1-.857.858Zm0-4.458a.857.857,0,0,1-.857-.857l0-3.408a8.3,8.3,0,0,0-2.409-5.826l-8.461-8.456a.857.857,0,0,1,1.212-1.213L74.94,183.9a10.021,10.021,0,0,1,2.912,7.039l0,3.407a.857.857,0,0,1-.857.858h0Z" transform="translate(-37.824 -111.906)" fill="#fbe0e2"/>
    <path id="Trazado_203290" data-name="Trazado 203290" d="M120.144,49.442c-.4-1.738-.669-2.886-3.025-3.665a.858.858,0,0,1,0-1.628c1.367-.452,2.355-.778,3.025-3.665a.858.858,0,0,1,1.67,0c.686,2.955,1.715,3.232,3.025,3.665a.858.858,0,0,1,0,1.628c-1.368.452-2.356.779-3.025,3.665A.858.858,0,0,1,120.144,49.442Z" transform="translate(-71.675 -22.961)"/>
    <path id="Trazado_203291" data-name="Trazado 203291" d="M128.039,51.51a4.549,4.549,0,0,0-1.481,1.677,4.761,4.761,0,0,0-1.567-1.663,4.558,4.558,0,0,0,1.55-1.749,4.65,4.65,0,0,0,1.5,1.735Z" transform="translate(-77.232 -29.499)" fill="#f0c020"/>
    <path id="Trazado_203292" data-name="Trazado 203292" d="M51.554,132.392c-.4-1.738-.669-2.886-3.025-3.665a.858.858,0,0,1,0-1.628c1.367-.452,2.355-.778,3.025-3.665a.858.858,0,0,1,1.67,0c.686,2.955,1.715,3.232,3.025,3.665a.858.858,0,0,1,0,1.628c-1.368.452-2.356.779-3.025,3.665A.858.858,0,0,1,51.554,132.392Z" transform="translate(-26.606 -77.465)"/>
    <path id="Trazado_203293" data-name="Trazado 203293" d="M59.449,134.459a4.549,4.549,0,0,0-1.481,1.677,4.761,4.761,0,0,0-1.567-1.663,4.558,4.558,0,0,0,1.55-1.749A4.65,4.65,0,0,0,59.449,134.459Z" transform="translate(-32.164 -84.003)" fill="#f0c020"/>
    <path id="Trazado_203294" data-name="Trazado 203294" d="M188.735,132.392c-.4-1.738-.669-2.886-3.025-3.665a.858.858,0,0,1,0-1.628c1.367-.452,2.355-.778,3.025-3.665a.858.858,0,0,1,1.67,0c.686,2.955,1.715,3.232,3.025,3.665a.858.858,0,0,1,0,1.628c-1.368.452-2.356.779-3.025,3.665A.858.858,0,0,1,188.735,132.392Z" transform="translate(-116.744 -77.465)"/>
    <path id="Trazado_203295" data-name="Trazado 203295" d="M196.629,134.459a4.55,4.55,0,0,0-1.481,1.677,4.761,4.761,0,0,0-1.567-1.663,4.558,4.558,0,0,0,1.55-1.749,4.65,4.65,0,0,0,1.5,1.735Z" transform="translate(-122.301 -84.003)" fill="#f0c020"/>
    <path id="Trazado_203296" data-name="Trazado 203296" d="M198.947,132.569a4.025,4.025,0,0,0-4.019,4.012l-.113,10.26v.01a1.837,1.837,0,0,1-.545,1.31l-9.863,9.866a2.418,2.418,0,0,1-3.309.1,2.313,2.313,0,0,1-.031-3.3l4-4a3.735,3.735,0,1,0-5.24-5.323l-1.979,1.979a.856.856,0,0,0,0,1.21.876.876,0,0,0,1.214,0c.5-.493.919-.916,1.979-1.979a2.024,2.024,0,0,1,2.891.034,2.067,2.067,0,0,1-.075,2.867l-4,4a4.021,4.021,0,0,0,.048,5.737,4.128,4.128,0,0,0,5.713-.12l9.866-9.866a3.546,3.546,0,0,0,1.046-2.51l.11-10.264v-.007a2.3,2.3,0,1,1,4.609,0l-.113,14.153a2.607,2.607,0,0,1-.765,1.852L184.3,168.668a3.893,3.893,0,0,0-1.152,2.778v1.471a.857.857,0,1,0,1.715,0v-1.471a2.233,2.233,0,0,1,.648-1.567l16.07-16.073a4.292,4.292,0,0,0,1.269-3.055l.113-14.156A4.028,4.028,0,0,0,198.947,132.569Z" transform="translate(-111.801 -83.901)"/>
    <path id="Trazado_203297" data-name="Trazado 203297" d="M170.81,182.652a.857.857,0,1,0,1.214,1.21v0a.852.852,0,0,0,0-1.207A.876.876,0,0,0,170.81,182.652Z" transform="translate(-107.175 -116.648)"/>
    <path id="Trazado_203298" data-name="Trazado 203298" d="M153.967,189.706c-.956.956-.217.212-1.646,1.643a12.682,12.682,0,0,0-3.707,9.29s0-.334,0,9.664a.859.859,0,0,0,1.718,0s0,0,0-.007c0-9.942.007-9.609.007-9.609a11.016,11.016,0,0,1,3.2-8.124l1.643-1.643a.86.86,0,0,0,0-1.214A.882.882,0,0,0,153.967,189.706Z" transform="translate(-92.752 -121.285)"/>
    <path id="Trazado_203299" data-name="Trazado 203299" d="M30.5,210.017a.858.858,0,1,0,1.214,0A.88.88,0,0,0,30.5,210.017Z" transform="translate(-14.983 -134.632)"/>
    <path id="Trazado_203300" data-name="Trazado 203300" d="M38.784,217.092a.876.876,0,0,0-1.214,0,.856.856,0,0,0,0,1.211l6.955,6.955a2.233,2.233,0,0,1,.648,1.567v1.471a.857.857,0,0,0,1.715,0v-1.471a3.893,3.893,0,0,0-1.152-2.778Z" transform="translate(-19.626 -139.278)"/>
    <path id="Trazado_203301" data-name="Trazado 203301" d="M39.04,153.965l-8.46-8.453a3.735,3.735,0,1,0-5.24,5.323l4,4a2.317,2.317,0,0,1-.031,3.3,2.419,2.419,0,0,1-3.309-.1l-9.863-9.866a1.851,1.851,0,0,1-.545-1.31l-.11-10.271v0a4.017,4.017,0,0,0-8.035.014l.11,14.166a4.345,4.345,0,0,0,1.269,3.049l4.266,4.269a.88.88,0,0,0,1.214,0,.86.86,0,0,0,0-1.214L10.039,152.6a2.6,2.6,0,0,1-.765-1.845l-.113-14.17a2.3,2.3,0,0,1,4.609.01l.11,10.271a3.531,3.531,0,0,0,1.046,2.51l9.863,9.866a4.134,4.134,0,0,0,5.717.12,4.029,4.029,0,0,0,.051-5.737l-4.005-4a2.066,2.066,0,0,1-.075-2.867,2.024,2.024,0,0,1,2.891-.034l8.46,8.457a10.891,10.891,0,0,1,3.21,7.75v9.989a.857.857,0,0,0,1.715,0c-.009-25.561,0,8.588,0-9.989a12.671,12.671,0,0,0-3.71-8.964Z" transform="translate(0 -83.902)"/>
    <g id="Grupo_142966" data-name="Grupo 142966" transform="translate(56.077 4.88)">
      <path id="Trazado_203302" data-name="Trazado 203302" d="M183.176,27.846l-1.788-1.032a14.214,14.214,0,0,0,0-6.332l1.788-1.032a.712.712,0,0,0,.261-.973l-3.419-5.922a.713.713,0,0,0-.973-.261l-1.791,1.034a14.1,14.1,0,0,0-5.194-3.077V8.1a.712.712,0,0,0-.712-.712h-7.412a.712.712,0,0,0-.712.712v2.155a14.093,14.093,0,0,0-5.194,3.077l-1.791-1.034a.713.713,0,0,0-.973.261l-3.419,5.922a.713.713,0,0,0,.261.973l1.788,1.032a14.213,14.213,0,0,0,0,6.332l-1.788,1.032a.712.712,0,0,0-.261.973l3.419,5.922a.713.713,0,0,0,.973.261l1.791-1.034a14.1,14.1,0,0,0,5.194,3.077V39.2a.712.712,0,0,0,.712.712h7.412a.712.712,0,0,0,.712-.712V37.045a14.093,14.093,0,0,0,5.194-3.077L179.044,35a.713.713,0,0,0,.973-.261l3.419-5.922a.712.712,0,0,0-.261-.973Z" transform="translate(-150.892 -6.525)" fill="#72c2e9"/>
      <circle id="Elipse_6827" data-name="Elipse 6827" cx="7.738" cy="7.738" r="7.738" transform="translate(6.659 21.308) rotate(-67.486)" fill="#eee"/>
      <path id="Trazado_203303" data-name="Trazado 203303" d="M182.538,16.4l-3.419-5.922a1.569,1.569,0,0,0-2.15-.569h0l-1.248.72A14.8,14.8,0,0,0,171.272,8V6.451a1.572,1.572,0,0,0-1.567-1.571h-7.414a1.572,1.572,0,0,0-1.567,1.571V8a14.8,14.8,0,0,0-4.444,2.63l-1.255-.723a1.566,1.566,0,0,0-2.147.576L149.459,16.4a1.569,1.569,0,0,0,.576,2.143l1.252.724a15.055,15.055,0,0,0,0,5.466l-1.252.724a1.572,1.572,0,0,0-.576,2.143l3.422,5.923a1.567,1.567,0,0,0,2.136.579l1.259-.727a15.006,15.006,0,0,0,4.448,2.63v1.55a1.569,1.569,0,0,0,1.567,1.567h7.414a1.569,1.569,0,0,0,1.567-1.567v-1.55a15.006,15.006,0,0,0,4.448-2.63l1.252.724a1.573,1.573,0,0,0,2.143-.573l3.422-5.926a1.57,1.57,0,0,0-.573-2.14s0,0,0,0l-1.252-.724a15.055,15.055,0,0,0,0-5.466l1.252-.724A1.571,1.571,0,0,0,182.538,16.4Zm-3.22,1.691a.871.871,0,0,0-.408.936,13.338,13.338,0,0,1,0,5.95.864.864,0,0,0,.408.933l1.663.96-3.275,5.669-1.667-.96a.875.875,0,0,0-1.012.117,13.354,13.354,0,0,1-4.88,2.891.856.856,0,0,0-.586.813v2.01h-7.123V35.4a.854.854,0,0,0-.59-.813,13.4,13.4,0,0,1-4.88-2.891.876.876,0,0,0-1.012-.117l-1.667.964-3.272-5.672,1.66-.96a.864.864,0,0,0,.408-.933,13.338,13.338,0,0,1,0-5.95.871.871,0,0,0-.408-.936l-1.663-.957,3.275-5.672,1.667.96a.87.87,0,0,0,1.012-.113,13.354,13.354,0,0,1,4.88-2.891.855.855,0,0,0,.59-.813V6.595h7.123V8.608a.856.856,0,0,0,.586.813,13.349,13.349,0,0,1,4.88,2.891.87.87,0,0,0,1.012.113l1.667-.96,3.275,5.672Z" transform="translate(-149.249 -4.88)"/>
      <path id="Trazado_203304" data-name="Trazado 203304" d="M181.617,29.75a8.6,8.6,0,1,0,8.594,8.594A8.593,8.593,0,0,0,181.617,29.75Zm0,15.476a6.881,6.881,0,1,1,6.883-6.883A6.906,6.906,0,0,1,181.617,45.226Z" transform="translate(-164.868 -21.221)"/>
    </g>
    <g id="Grupo_142967" data-name="Grupo 142967" transform="translate(32.556 33.325)">
      <path id="Trazado_203305" data-name="Trazado 203305" d="M114.586,110.8l-1.788-1.032a14.213,14.213,0,0,0,0-6.332l1.788-1.032a.712.712,0,0,0,.261-.973L111.427,95.5a.713.713,0,0,0-.973-.261l-1.791,1.034A14.1,14.1,0,0,0,103.47,93.2V91.045a.712.712,0,0,0-.712-.712H95.345a.712.712,0,0,0-.712.712V93.2a14.093,14.093,0,0,0-5.194,3.077l-1.791-1.034a.713.713,0,0,0-.973.261l-3.419,5.922a.713.713,0,0,0,.261.973l1.788,1.032a14.214,14.214,0,0,0,0,6.332L83.516,110.8a.712.712,0,0,0-.261.973l3.419,5.922a.713.713,0,0,0,.973.261l1.791-1.034A14.1,14.1,0,0,0,94.633,120v2.155a.712.712,0,0,0,.712.712h7.412a.712.712,0,0,0,.712-.712V120a14.093,14.093,0,0,0,5.194-3.077l1.791,1.034a.713.713,0,0,0,.973-.261l3.419-5.922a.713.713,0,0,0-.261-.974Z" transform="translate(-82.302 -89.474)" fill="#efbf27"/>
      <circle id="Elipse_6828" data-name="Elipse 6828" cx="7.738" cy="7.738" r="7.738" transform="translate(6.655 21.32) rotate(-67.486)" fill="#eee"/>
      <path id="Trazado_203306" data-name="Trazado 203306" d="M113.948,99.351l-3.419-5.922a1.569,1.569,0,0,0-2.15-.569h0l-1.248.72a14.8,14.8,0,0,0-4.444-2.63V89.4a1.572,1.572,0,0,0-1.567-1.571H93.7A1.572,1.572,0,0,0,92.134,89.4v1.55a14.8,14.8,0,0,0-4.444,2.63l-1.255-.723a1.566,1.566,0,0,0-2.147.576l-3.419,5.919a1.569,1.569,0,0,0,.576,2.143l1.252.724a15.055,15.055,0,0,0,0,5.466l-1.252.724a1.572,1.572,0,0,0-.576,2.143l3.422,5.923a1.567,1.567,0,0,0,2.136.579l1.259-.727a15.006,15.006,0,0,0,4.448,2.63v1.55a1.569,1.569,0,0,0,1.567,1.567h7.414a1.569,1.569,0,0,0,1.567-1.567v-1.55a15.006,15.006,0,0,0,4.448-2.63l1.252.724a1.573,1.573,0,0,0,2.143-.573l3.422-5.926a1.57,1.57,0,0,0-.573-2.14s0,0,0,0l-1.252-.724a15.055,15.055,0,0,0,0-5.466l1.252-.724a1.57,1.57,0,0,0,.576-2.144Zm-3.22,1.691a.871.871,0,0,0-.408.936,13.338,13.338,0,0,1,0,5.95.864.864,0,0,0,.408.933l1.663.96-3.275,5.669-1.667-.96a.875.875,0,0,0-1.012.117,13.355,13.355,0,0,1-4.88,2.891.856.856,0,0,0-.586.813v2.01H93.849v-2.01a.854.854,0,0,0-.59-.813,13.4,13.4,0,0,1-4.88-2.891.876.876,0,0,0-1.012-.117l-1.667.964-3.272-5.672,1.66-.96a.864.864,0,0,0,.408-.933,13.338,13.338,0,0,1,0-5.95.871.871,0,0,0-.408-.936l-1.663-.957L85.7,94.414l1.667.96a.87.87,0,0,0,1.012-.113,13.354,13.354,0,0,1,4.88-2.891.855.855,0,0,0,.59-.813V89.544h7.123v2.013a.856.856,0,0,0,.586.813,13.349,13.349,0,0,1,4.88,2.891.87.87,0,0,0,1.012.113l1.667-.96,3.275,5.672Z" transform="translate(-80.659 -87.829)"/>
      <path id="Trazado_203307" data-name="Trazado 203307" d="M113.027,112.7a8.6,8.6,0,1,0,8.594,8.594A8.593,8.593,0,0,0,113.027,112.7Zm0,15.476a6.881,6.881,0,1,1,6.883-6.883A6.906,6.906,0,0,1,113.027,128.176Z" transform="translate(-96.278 -104.171)"/>
    </g>
    <g id="Grupo_142968" data-name="Grupo 142968" transform="translate(9.034 4.88)">
      <path id="Trazado_203308" data-name="Trazado 203308" d="M46,27.846l-1.788-1.032a14.214,14.214,0,0,0,0-6.332L46,19.45a.712.712,0,0,0,.261-.973l-3.419-5.922a.713.713,0,0,0-.973-.261l-1.791,1.034a14.1,14.1,0,0,0-5.194-3.077V8.1a.712.712,0,0,0-.712-.712H26.756a.712.712,0,0,0-.712.712v2.155a14.093,14.093,0,0,0-5.194,3.077l-1.791-1.034a.713.713,0,0,0-.973.261l-3.419,5.922a.713.713,0,0,0,.261.973l1.788,1.032a14.214,14.214,0,0,0,0,6.332l-1.788,1.032a.712.712,0,0,0-.261.973l3.419,5.922a.713.713,0,0,0,.973.261l1.791-1.034a14.1,14.1,0,0,0,5.194,3.077V39.2a.712.712,0,0,0,.712.712h7.412a.712.712,0,0,0,.712-.712V37.045a14.093,14.093,0,0,0,5.194-3.077L41.865,35a.713.713,0,0,0,.973-.261l3.419-5.922A.712.712,0,0,0,46,27.846Z" transform="translate(-13.713 -6.525)" fill="#fc5d3d"/>
      <circle id="Elipse_6829" data-name="Elipse 6829" cx="7.738" cy="7.738" r="7.738" transform="translate(6.644 21.314) rotate(-67.486)" fill="#eee"/>
      <path id="Trazado_203309" data-name="Trazado 203309" d="M45.358,16.4,41.939,10.48a1.569,1.569,0,0,0-2.15-.569h0l-1.248.72A14.8,14.8,0,0,0,34.092,8V6.451A1.572,1.572,0,0,0,32.525,4.88H25.111a1.572,1.572,0,0,0-1.567,1.571V8a14.8,14.8,0,0,0-4.444,2.63l-1.255-.723a1.566,1.566,0,0,0-2.147.576L12.279,16.4a1.569,1.569,0,0,0,.576,2.143l1.252.724a15.055,15.055,0,0,0,0,5.466l-1.252.724a1.572,1.572,0,0,0-.576,2.143L15.7,33.525a1.567,1.567,0,0,0,2.136.579l1.259-.727a15.006,15.006,0,0,0,4.448,2.63v1.55a1.569,1.569,0,0,0,1.567,1.567h7.414a1.569,1.569,0,0,0,1.567-1.567v-1.55a15.006,15.006,0,0,0,4.448-2.63l1.252.724a1.573,1.573,0,0,0,2.143-.573L45.358,27.6a1.57,1.57,0,0,0-.573-2.14s0,0,0,0l-1.252-.724a15.055,15.055,0,0,0,0-5.466l1.252-.724A1.571,1.571,0,0,0,45.358,16.4Zm-3.22,1.691a.871.871,0,0,0-.408.936,13.338,13.338,0,0,1,0,5.95.864.864,0,0,0,.408.933l1.663.96L40.526,32.54l-1.667-.96a.875.875,0,0,0-1.012.117,13.355,13.355,0,0,1-4.88,2.891.856.856,0,0,0-.586.813v2.01H25.259V35.4a.854.854,0,0,0-.59-.813,13.4,13.4,0,0,1-4.88-2.891.876.876,0,0,0-1.012-.117l-1.667.964-3.272-5.672,1.66-.96a.864.864,0,0,0,.408-.933,13.338,13.338,0,0,1,0-5.95.871.871,0,0,0-.408-.936l-1.663-.957,3.275-5.672,1.667.96a.87.87,0,0,0,1.012-.113,13.354,13.354,0,0,1,4.88-2.891.855.855,0,0,0,.59-.813V6.595h7.123V8.608a.856.856,0,0,0,.586.813,13.349,13.349,0,0,1,4.88,2.891.87.87,0,0,0,1.012.113l1.667-.96L43.8,17.136Z" transform="translate(-12.069 -4.88)"/>
      <path id="Trazado_203310" data-name="Trazado 203310" d="M44.437,29.75a8.6,8.6,0,1,0,8.594,8.594,8.593,8.593,0,0,0-8.594-8.594Zm0,15.476a6.881,6.881,0,1,1,6.883-6.883A6.906,6.906,0,0,1,44.437,45.226Z" transform="translate(-27.688 -21.221)"/>
    </g>
  </g>
</svg>
