<svg xmlns="http://www.w3.org/2000/svg" width="367.255" height="220.654" viewBox="0 0 367.255 220.654">
  <g id="Grupo_143268" data-name="Grupo 143268" transform="translate(-157.261 -177.296)">
    <path id="Trazado_204229" data-name="Trazado 204229" d="M2174.721,473.165l3.12,13.7c.479.556,1.17.453,2.883.214,3.065-.428,6.131-.856,9.208-1.176a2,2,0,0,1,1.513.747c1.771,2.457,3.4,5.022,5.191,7.46a1.642,1.642,0,0,1,.254,2.1c-1.873,3.482-3.648,7.016-5.44,10.492,2.445,2.649,9.927,7.476,12.933,8.307,2.3-2.984,4.693-6,6.966-9.1a1.9,1.9,0,0,1,2.459-.852,79.275,79.275,0,0,0,8.636,1.565c1.174.16,1.888.4,2.262,1.679.969,3.309,2.139,6.559,3.164,9.852.275.885.705,1.293,1.62,1.092q6.453-1.416,12.9-2.84c1.058-.233.776-1.051.7-1.708-.385-3.326-.753-6.656-1.249-9.967a2.165,2.165,0,0,1,1.238-2.542c2.881-1.757,5.646-3.7,8.674-5.715l11.251,5.744a45.144,45.144,0,0,0,8.126-12.946l-9.781-7.593c.61-3.983,1.256-7.66,1.688-11.361a1.7,1.7,0,0,1,1.424-1.732c3.247-1,6.463-2.111,9.7-3.138.7-.222,1.173-.458,1.105-1.323a43.169,43.169,0,0,0-2.679-12.757,1.357,1.357,0,0,0-1.721-.969c-3.473.435-6.954.8-10.425,1.253a1.577,1.577,0,0,1-1.826-.816c-1.854-2.766-3.831-5.456-5.871-8.089a1.34,1.34,0,0,1-.127-1.722c1.8-3.523,3.571-7.058,5.4-10.68a48.438,48.438,0,0,0-12.719-8.167l-7.913,10.193-12.457-2.217c-.949-2.876-2.017-6.2-3.141-9.5-.922-2.71-.389-2.588-3.432-2.224a4.77,4.77,0,0,1-.89-.058l-7.719,1.759a9.4,9.4,0,0,1-1.644.682c-1.485.316-2.031,1-1.767,2.636.549,3.4.886,6.838,1.227,10.268a1.831,1.831,0,0,1-.631,1.394c-2.387,1.785-4.935,3.368-7.219,5.271a2.24,2.24,0,0,1-3,.266c-3.3-1.764-6.683-3.392-10.368-5.242l-8.2,12.759c.745.6,1.169.955,1.6,1.293,2.685,2.083,5.351,4.191,8.072,6.226a1.708,1.708,0,0,1,.675,2.031c-.588,3.175-.973,6.388-1.54,9.568a2.019,2.019,0,0,1-1.121,1.291c-2.624.941-5.3,1.737-7.942,2.625C2175.765,471.916,2174.974,472.19,2174.721,473.165Zm28.17.428a22.736,22.736,0,0,1,17.117-27.218h0a22.736,22.736,0,0,1,27.218,17.117h0a22.736,22.736,0,0,1-17.117,27.218h0a22.736,22.736,0,0,1-27.218-17.117Z" transform="translate(-1750.766 -217.355)" fill="#263238"/>
    <g id="Grupo_143240" data-name="Grupo 143240" transform="translate(182.16 177.296)">
      <g id="Grupo_143237" data-name="Grupo 143237" transform="translate(12.884)">
        <g id="Grupo_143236" data-name="Grupo 143236" transform="translate(0 0)">
          <path id="Trazado_204231" data-name="Trazado 204231" d="M500.372,331.554s-38.693-19.078-45.347-29.029,3.127-10.514,3.127-10.514-17.267-16.793-14.837-23.863,11.374-.586,11.374-.586-11.1-24.715-5.868-27.2c9.751-4.628,23.43,21.964,23.43,21.964s-2.94-11.552,3.775-11.176c10.126.566,9.708,26.7,9.708,26.7s1.144-10.019,7.247-6.765C503.931,276.923,500.372,331.554,500.372,331.554Z" transform="translate(-443.081 -239.823)" fill="#9dcf7a"/>
        </g>
        <path id="Trazado_204232" data-name="Trazado 204232" d="M532.869,267.042c-4.766-2.645-9.513,5.085-9.513,5.085s.481-20.41-9.645-20.976c-6.715-.375-3.775,11.176-3.775,11.176s-13.679-26.592-23.43-21.964l51.6,90.766C538.467,324.791,542.31,272.281,532.869,267.042Z" transform="translate(-480.766 -239.823)" fill="#9dcf7a"/>
      </g>
      <g id="Grupo_143239" data-name="Grupo 143239" transform="translate(0 48.284)">
        <g id="Grupo_143238" data-name="Grupo 143238" transform="translate(0 2.976)">
          <path id="Trazado_204233" data-name="Trazado 204233" d="M414.793,668.294s-31.645,3.93-39.839.428-2.322-7.829-2.322-7.829-17.594-3.458-18.951-8.855,6.759-4.967,6.759-4.967-16.87-10.925-14.614-14.6c4.2-6.849,23.539,4.179,23.539,4.179s-6.527-6.011-2.187-8.505c6.546-3.761,16.9,12.707,16.9,12.707s-.644-4.059,4.486-4.509C397.769,635.535,414.793,668.294,414.793,668.294Z" transform="translate(-345.617 -627.586)" fill="#9dcf7a"/>
        </g>
        <path id="Trazado_204234" data-name="Trazado 204234" d="M390.136,613.859c-5.129.45-4.694,7.459-4.694,7.459S374.9,601.8,368.352,605.557c-4.341,2.494.795,10.686.795,10.686s-17.758-10.156-21.959-3.307l69.064,35.649C413.9,644.483,398.732,613.1,390.136,613.859Z" transform="translate(-346.98 -605.076)" fill="#9dcf7a"/>
      </g>
    </g>
    <g id="Grupo_143241" data-name="Grupo 143241" transform="translate(296.899 194.881)">
      <path id="Trazado_204235" data-name="Trazado 204235" d="M1316.709,415.693h-103.13V393.92a21.1,21.1,0,0,1,21.078-21.078h60.975a21.1,21.1,0,0,1,21.078,21.078Zm-93.97-9.16h84.811V393.92A11.931,11.931,0,0,0,1295.631,382h-60.975a11.931,11.931,0,0,0-11.918,11.918Z" transform="translate(-1213.579 -372.842)" fill="#f47458"/>
    </g>
    <path id="Rectángulo_43063" data-name="Rectángulo 43063" d="M5.817,0H16.424a5.817,5.817,0,0,1,5.817,5.817v0a5.817,5.817,0,0,1-5.817,5.817H5.817A5.817,5.817,0,0,1,0,5.817v0A5.817,5.817,0,0,1,5.817,0Z" transform="translate(290.358 221.789)" fill="#b75742"/>
    <rect id="Rectángulo_43064" data-name="Rectángulo 43064" width="22.241" height="11.634" rx="5.817" transform="translate(384.329 221.789)" fill="#b75742"/>
    <path id="Rectángulo_43065" data-name="Rectángulo 43065" d="M0,0H241.754a0,0,0,0,1,0,0V124.992a43.8,43.8,0,0,1-43.8,43.8H43.8A43.8,43.8,0,0,1,0,124.992V0A0,0,0,0,1,0,0Z" transform="translate(224.294 228.572)" fill="#b75742"/>
    <path id="Trazado_204236" data-name="Trazado 204236" d="M866.212,704.48l-69.02,7.911a449.35,449.35,0,0,1-102.329,0l-69.02-7.911a7.52,7.52,0,0,1-6.664-7.471V625.866a7.52,7.52,0,0,1,7.52-7.52H865.356a7.52,7.52,0,0,1,7.52,7.52v71.143A7.52,7.52,0,0,1,866.212,704.48Z" transform="translate(-400.856 -391.011)" fill="#50bfa5"/>
    <path id="Trazado_204237" data-name="Trazado 204237" d="M906.1,750.423V664.562a7.548,7.548,0,0,0-1.549-.161H665.9a7.544,7.544,0,0,0-1.549.161v85.862q.341.071.693.112l69.02,7.911a449.344,449.344,0,0,0,102.329,0l69.02-7.911Q905.759,750.495,906.1,750.423Z" transform="translate(-440.052 -430.978)" fill="#b75742" opacity="0.3" style="mix-blend-mode: multiply;isolation: isolate"/>
    <path id="Trazado_204238" data-name="Trazado 204238" d="M866.212,704.48l-69.02,7.911a449.35,449.35,0,0,1-102.329,0l-69.02-7.911a7.52,7.52,0,0,1-6.664-7.471V625.866a7.52,7.52,0,0,1,7.52-7.52H865.356a7.52,7.52,0,0,1,7.52,7.52v71.143A7.52,7.52,0,0,1,866.212,704.48Z" transform="translate(-400.856 -391.011)" fill="#f47458"/>
    <g id="Grupo_143242" data-name="Grupo 143242" transform="translate(325.893 313.945)">
      <rect id="Rectángulo_43066" data-name="Rectángulo 43066" width="38.556" height="20.714" rx="10.357" fill="#f7cc7f"/>
      <rect id="Rectángulo_43067" data-name="Rectángulo 43067" width="30.618" height="14.2" rx="7.1" transform="translate(3.969 3.257)" fill="#eab054"/>
    </g>
    <path id="Trazado_204239" data-name="Trazado 204239" d="M865.355,618.346H626.7a7.52,7.52,0,0,0-7.52,7.52v12.611a7.52,7.52,0,0,1,7.52-7.52H865.355a7.52,7.52,0,0,1,7.52,7.52V625.866A7.52,7.52,0,0,0,865.355,618.346Z" transform="translate(-400.856 -391.011)" fill="#b75742" opacity="0.3" style="mix-blend-mode: multiply;isolation: isolate"/>
    <g id="Grupo_143244" data-name="Grupo 143244" transform="translate(163.419 383.345)">
      <path id="Trazado_204240" data-name="Trazado 204240" d="M203.842,1819.015v8.935c0,1.444,16.113,2.615,35.991,2.615s35.991-1.171,35.991-2.615v-8.935Z" transform="translate(-203.842 -1816.305)" fill="#e59f39"/>
      <g id="Grupo_143243" data-name="Grupo 143243" transform="translate(0 2.71)">
        <path id="Trazado_204241" data-name="Trazado 204241" d="M229.888,1830.464v-11.449H203.842v8.935C203.842,1829.143,214.848,1830.15,229.888,1830.464Z" transform="translate(-203.842 -1819.015)" fill="#eab054"/>
        <path id="Trazado_204242" data-name="Trazado 204242" d="M410.04,1830.487c2.8.051,5.721.078,8.733.078,4.487,0,8.783-.06,12.745-.169v-11.381H410.04Z" transform="translate(-382.782 -1819.015)" fill="#eab054"/>
        <path id="Trazado_204243" data-name="Trazado 204243" d="M583.419,1830.354c12.823-.4,21.8-1.326,21.8-2.4v-8.935h-21.8Z" transform="translate(-533.241 -1819.015)" fill="#eab054"/>
      </g>
      <ellipse id="Elipse_6840" data-name="Elipse 6840" cx="35.991" cy="2.615" rx="35.991" ry="2.615" transform="translate(0)" fill="#e59f39"/>
      <ellipse id="Elipse_6841" data-name="Elipse 6841" cx="29.637" cy="1.813" rx="29.637" ry="1.813" transform="translate(6.353 0.802)" fill="#f7cc7f"/>
    </g>
    <g id="Grupo_143246" data-name="Grupo 143246" transform="translate(157.261 373.493)">
      <path id="Trazado_204244" data-name="Trazado 204244" d="M157.261,1744.494v8.935c0,1.444,16.114,2.615,35.991,2.615s35.991-1.171,35.991-2.615v-8.935Z" transform="translate(-157.261 -1741.784)" fill="#e59f39"/>
      <g id="Grupo_143245" data-name="Grupo 143245" transform="translate(0 2.71)">
        <path id="Trazado_204245" data-name="Trazado 204245" d="M183.307,1755.943v-11.449H157.261v8.935C157.261,1754.622,168.267,1755.629,183.307,1755.943Z" transform="translate(-157.261 -1744.494)" fill="#eab054"/>
        <path id="Trazado_204246" data-name="Trazado 204246" d="M363.459,1755.966c2.8.051,5.721.077,8.733.077,4.488,0,8.783-.06,12.745-.168v-11.381H363.459Z" transform="translate(-336.201 -1744.494)" fill="#eab054"/>
        <path id="Trazado_204247" data-name="Trazado 204247" d="M536.838,1755.833c12.823-.4,21.8-1.326,21.8-2.4v-8.935h-21.8Z" transform="translate(-486.661 -1744.494)" fill="#eab054"/>
      </g>
      <ellipse id="Elipse_6842" data-name="Elipse 6842" cx="35.991" cy="2.615" rx="35.991" ry="2.615" transform="translate(0)" fill="#e59f39"/>
      <ellipse id="Elipse_6843" data-name="Elipse 6843" cx="29.637" cy="1.813" rx="29.637" ry="1.813" transform="translate(6.353 0.802)" fill="#f7cc7f"/>
    </g>
    <g id="Grupo_143248" data-name="Grupo 143248" transform="translate(161.364 363.788)">
      <path id="Trazado_204248" data-name="Trazado 204248" d="M188.3,1671.072v8.935c0,1.444,16.114,2.615,35.991,2.615s35.991-1.171,35.991-2.615v-8.935Z" transform="translate(-188.296 -1668.362)" fill="#e59f39"/>
      <g id="Grupo_143247" data-name="Grupo 143247" transform="translate(0 2.71)">
        <path id="Trazado_204249" data-name="Trazado 204249" d="M214.342,1682.521v-11.449H188.3v8.935C188.3,1681.2,199.3,1682.207,214.342,1682.521Z" transform="translate(-188.296 -1671.072)" fill="#eab054"/>
        <path id="Trazado_204250" data-name="Trazado 204250" d="M394.494,1682.544c2.8.051,5.721.077,8.733.077,4.488,0,8.783-.06,12.745-.169v-11.381H394.494Z" transform="translate(-367.236 -1671.072)" fill="#eab054"/>
        <path id="Trazado_204251" data-name="Trazado 204251" d="M567.873,1682.411c12.823-.4,21.8-1.326,21.8-2.4v-8.935h-21.8Z" transform="translate(-517.695 -1671.072)" fill="#eab054"/>
      </g>
      <ellipse id="Elipse_6844" data-name="Elipse 6844" cx="35.991" cy="2.615" rx="35.991" ry="2.615" transform="translate(0)" fill="#e59f39"/>
      <ellipse id="Elipse_6845" data-name="Elipse 6845" cx="29.637" cy="1.813" rx="29.637" ry="1.813" transform="translate(6.353 0.802)" fill="#f7cc7f"/>
    </g>
    <g id="Grupo_143250" data-name="Grupo 143250" transform="translate(176.539 354.215)">
      <path id="Trazado_204252" data-name="Trazado 204252" d="M303.092,1598.656v8.935c0,1.444,16.114,2.615,35.991,2.615s35.991-1.171,35.991-2.615v-8.935Z" transform="translate(-303.092 -1595.946)" fill="#e59f39"/>
      <g id="Grupo_143249" data-name="Grupo 143249" transform="translate(0 2.71)">
        <path id="Trazado_204253" data-name="Trazado 204253" d="M329.138,1610.1v-11.449H303.092v8.935C303.092,1608.784,314.1,1609.792,329.138,1610.1Z" transform="translate(-303.092 -1598.656)" fill="#eab054"/>
        <path id="Trazado_204254" data-name="Trazado 204254" d="M509.29,1610.128c2.8.051,5.721.078,8.733.078,4.487,0,8.783-.06,12.745-.169v-11.381H509.29Z" transform="translate(-482.032 -1598.656)" fill="#eab054"/>
        <path id="Trazado_204255" data-name="Trazado 204255" d="M682.67,1609.995c12.823-.4,21.8-1.326,21.8-2.4v-8.935h-21.8Z" transform="translate(-632.492 -1598.656)" fill="#eab054"/>
      </g>
      <path id="Trazado_204256" data-name="Trazado 204256" d="M375.073,1580.77c0,1.444-16.114,2.615-35.991,2.615s-35.991-1.171-35.991-2.615,16.114-2.615,35.991-2.615S375.073,1579.326,375.073,1580.77Z" transform="translate(-303.092 -1578.155)" fill="#e59f39"/>
      <path id="Trazado_204257" data-name="Trazado 204257" d="M410.427,1586.035c0,1-13.269,1.813-29.638,1.813s-29.637-.812-29.637-1.813,13.269-1.813,29.637-1.813S410.427,1585.034,410.427,1586.035Z" transform="translate(-344.799 -1583.42)" fill="#f7cc7f"/>
    </g>
    <g id="Grupo_143254" data-name="Grupo 143254" transform="translate(164.105 271.088)">
      <ellipse id="Elipse_6846" data-name="Elipse 6846" cx="30.283" cy="30.53" rx="30.283" ry="30.53" transform="matrix(0.828, -0.56, 0.56, 0.828, 0, 33.947)" fill="#e59f39"/>
      <ellipse id="Elipse_6847" data-name="Elipse 6847" cx="26.176" cy="26.389" rx="26.176" ry="26.389" transform="translate(5.723 35.072) rotate(-34.086)" fill="#f7cc7f"/>
      <g id="Grupo_143253" data-name="Grupo 143253" transform="translate(26.825 22.392)">
        <path id="Trazado_204258" data-name="Trazado 204258" d="M436.273,1156.583l-2.762-4.06a23.851,23.851,0,0,1-5.737,2.569,2.988,2.988,0,0,1-3.641-1.857l-.065-.179a2.982,2.982,0,0,1,2-3.891,17.4,17.4,0,0,0,5.178-2.355c2.436-1.657,3.463-3.732,2.3-5.441-1.1-1.624-3.17-1.719-7.06-.635-5.619,1.573-10.192,1.558-13.012-2.587-2.558-3.76-1.915-8.512,2.046-12.52l-2.762-4.06,4.188-2.849,2.559,3.76a22.037,22.037,0,0,1,4.282-2.09,2.984,2.984,0,0,1,3.785,1.812h0a2.986,2.986,0,0,1-1.891,3.857,15.875,15.875,0,0,0-4.116,2.022c-2.778,1.89-2.861,3.7-2.047,4.893.959,1.41,3.065,1.29,7.628.186,6.306-1.665,9.957-.71,12.573,3.135,2.588,3.8,2.105,8.883-2.227,13.081l2.966,4.359Z" transform="translate(-411.951 -1118.719)" fill="#e59f39"/>
      </g>
      <path id="Trazado_204259" data-name="Trazado 204259" d="M343.188,1073.85a26.025,26.025,0,0,0-11.961,18.835,25.954,25.954,0,0,1,11.316-15.491A26.441,26.441,0,0,1,382.657,1103a26.438,26.438,0,0,0-39.469-29.15Z" transform="translate(-315.073 -1053.914)" fill="#f7cc7f" opacity="0.3" style="mix-blend-mode: multiply;isolation: isolate"/>
    </g>
    <g id="Grupo_143256" data-name="Grupo 143256" transform="translate(201.566 209.264)">
      <ellipse id="Elipse_6848" data-name="Elipse 6848" cx="28.689" cy="28.458" rx="28.689" ry="28.458" transform="translate(0 53.882) rotate(-69.895)" fill="#e59f39"/>
      <ellipse id="Elipse_6849" data-name="Elipse 6849" cx="24.798" cy="24.598" rx="24.798" ry="24.598" transform="translate(4.962 51.555) rotate(-69.895)" fill="#f7cc7f"/>
      <g id="Grupo_143255" data-name="Grupo 143255" transform="translate(23.177 16.276)">
        <path id="Trazado_204260" data-name="Trazado 204260" d="M672.359,641.933l1.575-4.337a22.41,22.41,0,0,1-5.112-2.96,2.808,2.808,0,0,1-.587-3.8l.1-.147a2.8,2.8,0,0,1,4.067-.613,16.357,16.357,0,0,0,4.642,2.652c2.6.945,4.747.588,5.411-1.238.63-1.735-.433-3.361-3.4-5.73-4.288-3.418-6.791-6.911-5.182-11.339,1.459-4.017,5.434-6.139,10.667-5.323l1.576-4.337,4.474,1.625-1.459,4.017a20.729,20.729,0,0,1,3.947,2.114,2.8,2.8,0,0,1,.7,3.881h0a2.806,2.806,0,0,1-3.979.679,14.919,14.919,0,0,0-3.8-2.026c-2.967-1.078-4.39-.148-4.854,1.13-.547,1.506.7,3.045,4.052,5.916,4.736,3.891,6.015,7.2,4.522,11.306-1.476,4.063-5.613,6.488-11.194,5.493l-1.692,4.657Z" transform="translate(-667.746 -604.765)" fill="#e59f39"/>
      </g>
      <path id="Trazado_204261" data-name="Trazado 204261" d="M701.919,573.767a24.456,24.456,0,0,0-20.93,1.239,24.391,24.391,0,0,1,18.027.109,24.847,24.847,0,0,1,2.385,44.759,24.845,24.845,0,0,0,.518-46.106Z" transform="translate(-656.061 -560.043)" fill="#f7cc7f" opacity="0.3" style="mix-blend-mode: multiply;isolation: isolate"/>
    </g>
    <path id="Trazado_204262" data-name="Trazado 204262" d="M2045.891,1781.335s1.7,1.658,1.738,2.266.15,7.126-.543,7.735-2.731,1.04-2.076,1.724c.495.517,4.3.407,6.828.268.737-.04,1.661-5.919,1.953-6.783.424-1.255,1.455-4.082,1.069-4.956a7.342,7.342,0,0,0-2.351-2.12,11.564,11.564,0,0,1-2.605-2.774Z" transform="translate(-1638.09 -1396.235)" fill="#f48c7f"/>
    <path id="Trazado_204263" data-name="Trazado 204263" d="M1877.4,1840.4s1.521,4.3,1.522,4.306c.113.681.558,2.362.558,2.98,0,2.324-10.481-1.973-8.132-3a2.482,2.482,0,0,0,.95-1.629,5.442,5.442,0,0,0-.883-2.747Z" transform="translate(-1487.196 -1451.437)" fill="#f7a491"/>
    <path id="Trazado_204264" data-name="Trazado 204264" d="M1776.464,1235.953s-.764,7.7-.764,7.815c0,12.456-2.469,36.787-2,39.129,1.145,5.712,13.475,34.85,13.475,34.85l6.664-.8-8.683-34.886,3.2-14.042,4.522-27.757Z" transform="translate(-1402.706 -926.975)" fill="#171d20"/>
    <path id="Trazado_204265" data-name="Trazado 204265" d="M1830,1249.977l1.264,7.3,3.421,30.036,13.028,29.356s-1.833,4.271-4.536,4.872l-20.735-30.14-12.88-38.566.452-8.568Z" transform="translate(-1433.881 -934.188)" fill="#263238"/>
    <path id="Trazado_204266" data-name="Trazado 204266" d="M2047.942,1797.37s-3.916,11.026-5.449,11.558c-.407.141-2.36.5-2.729,1.364a3.738,3.738,0,0,0,0,1.129h8.162s1.033-4.858,1.44-6.992c0,0,2.161-5.215,1.921-5.689S2047.942,1797.37,2047.942,1797.37Z" transform="translate(-1633.607 -1414.177)" fill="#96d9c9"/>
    <path id="Trazado_204267" data-name="Trazado 204267" d="M1826.758,1877.035l-1.2-3.792s-2.521,1.066-3.781.889a38.231,38.231,0,0,1-3.721-.889c-5.031,1.656-9.152,2.459-8.4,3.792h17.1Z" transform="translate(-1433.881 -1480.02)" fill="#96d9c9"/>
    <path id="Trazado_204268" data-name="Trazado 204268" d="M1090.609,1794.716s-.709,4.782-1.93,6.325a12.234,12.234,0,0,0-1.649,2.109,6.042,6.042,0,0,0,.222,4.821c.289.613-.02.612.639.809a4.086,4.086,0,0,0,4.86-2.217,11,11,0,0,0,.954-4.075,14.439,14.439,0,0,1,1.6-6.549Z" transform="translate(-806.499 -1411.873)" fill="#f7a491"/>
    <path id="Trazado_204269" data-name="Trazado 204269" d="M1146.434,844.332c.878-2.331,1.651-4.716,2.465-7a46.654,46.654,0,0,0,3.074-13.642,21.428,21.428,0,0,0-1.941-10.287c-1.351-2.823-4.694-4.425-7.742-4.429-9.68-.013-10.911,12.831-17.072,17.786-1.3,1.046-2.708,1.958-4.041,2.96C1123.4,835.511,1129.539,843.727,1146.434,844.332Z" transform="translate(-836.493 -556.443)" fill="#13375b"/>
    <path id="Trazado_204270" data-name="Trazado 204270" d="M1273.051,1811.262s.438,5.392.083,7.145c-.19.938-1.25,2.87-.764,3.753a2.409,2.409,0,0,0,1.042,1.1l12.6.2c.686.011.233-.418-.321-.814a25.615,25.615,0,0,0-4.532-2.436c-.189-.089-.876-.513-1.124-.66a8.652,8.652,0,0,1-1.8-1.548c-.905-.979-.984-5.728-.984-5.728Z" transform="translate(-967.589 -1426.232)" fill="#f7a491"/>
    <path id="Trazado_204271" data-name="Trazado 204271" d="M1273.562,1255.009s1.869,9.787.827,15.527-6.044,58.942-6.044,58.942l-5.559.3s-1.165-22.224-.957-25.314a46.778,46.778,0,0,1,1.858-8.263l-.553-17.943,7.014-23.572Z" transform="translate(-958.53 -943.235)" fill="#1f292e"/>
    <path id="Trazado_204272" data-name="Trazado 204272" d="M1127.144,1237.94s-4.377,6.4-5.419,11.7.765,21.581-1.24,28.523c-1.085,3.758-5.2,9.563-5.823,14.419s-3.078,17.578-3.078,17.578l5.556,1.07,12.913-31.772,10.129-28.716,2.595-14.79Z" transform="translate(-828.168 -926.975)" fill="#263238"/>
    <path id="Trazado_204273" data-name="Trazado 204273" d="M1090.319,1860.869a6.284,6.284,0,0,1-6.091-2.473c-.77,1.46-1.145,3.638-.579,4.837.5,1.056,1.956,1.026,3.1,1.068a3.007,3.007,0,0,0,2.754-1.638A9.69,9.69,0,0,0,1090.319,1860.869Z" transform="translate(-803.689 -1467.135)" fill="#466eb6"/>
    <path id="Trazado_204274" data-name="Trazado 204274" d="M1279.853,1872.151a11.721,11.721,0,0,1-7.176-.274c-.355.979-.827,2.207-.577,2.916.306.867.742,1.063,1.127,1.073,3.045.078,11.153.183,13.475.213a.368.368,0,0,0,.295-.606C1286.42,1874.8,1280.1,1872.3,1279.853,1872.151Z" transform="translate(-967.404 -1478.834)" fill="#466eb6"/>
    <path id="Trazado_204275" data-name="Trazado 204275" d="M1354.677,948.579c-.03-.539-2.48.026-2.8-.4s2.684-1.708,2.619-2.172c-.119-.854-3.375,1.2-3.454.812s3.173-2.675,2.53-3.134-3.125,2.721-3.4,2.341,2.574-2.75,2.136-3.648c-.234-.479-4.35,4.669-5.079,4.656s-.4-2.857-1.034-3,.035,5.491-.235,5.8-5.778,7.391-8.072,9.1c-.665-.73-4.779-4.36-5.389-5.058-1.016,1.617-2.592,2.528-3.692,4.073,2.187,2.252,8.618,7.363,9.507,7.392,2.706.09,8.511-10.866,9.756-12.844s2.422-1.99,3.451-2.877S1354.707,949.118,1354.677,948.579Z" transform="translate(-1016.678 -672.18)" fill="#f48c7f"/>
    <path id="Trazado_204276" data-name="Trazado 204276" d="M1277.234,990.625s-9.136-7.029-10.851-10.194,2.336-5.411,5.522-5.446,9.926,9.443,9.926,9.443Z" transform="translate(-962.149 -700.505)" fill="#f7cc7f"/>
    <path id="Trazado_204277" data-name="Trazado 204277" d="M1515.1,1082.167l.688.414a5.251,5.251,0,0,0,.839.6c.172.04,4.87-.063,4.87-.063s.017,1.563-.014,1.563-2.47,1.989-2.47,1.989l-.52.238-3.2-.956-2.922-.366s-2.073-.241-2.073-.291a13.435,13.435,0,0,1,.142-1.769c.081-.081,1.254-1.284,1.254-1.284s.9-.2.93-.2.9-.172.931-.182,1.4.2,1.4.2Z" transform="translate(-1174.17 -793.246)" fill="#f48c7f"/>
    <path id="Trazado_204278" data-name="Trazado 204278" d="M1205.305,970.407s-5.571-.356-7.774,2.052,4.889,21.452,5.29,24.516-2.043,11.211-2.043,11.211,13.086,2.639,16.826.159c0,0,.4-22.034,0-24.222s-4.294-12.028-5.1-12.9S1205.305,970.407,1205.305,970.407Z" transform="translate(-902.386 -696.516)" fill="#f7cc7f"/>
    <path id="Trazado_204279" data-name="Trazado 204279" d="M1259.738,913.275s-.029.164-.08.444a42.437,42.437,0,0,1-1.851,7.019c-.781,1.479,2.673,6.2,6,5.622.99-.172-.837-4.335-.749-4.776.168-.844.4-2,.629-3.177l.39-1.977c.355-1.8.646-3.28.646-3.28Z" transform="translate(-954.964 -646.844)" fill="#f7a491"/>
    <path id="Trazado_204280" data-name="Trazado 204280" d="M1271.549,913.719c.052-.28.081-.444.081-.444l4.982-.125s-.29,1.476-.646,3.28l-.388,1.965a4.664,4.664,0,0,1-2.379-1.2,6.3,6.3,0,0,1-1.8-2.686C1271.459,914.2,1271.51,913.927,1271.549,913.719Z" transform="translate(-966.856 -646.844)" fill="#f47458"/>
    <path id="Trazado_204281" data-name="Trazado 204281" d="M1262.664,828.151a4.484,4.484,0,0,0-3.82,1.636c-1.472,1.908-3.058,7.808.6,11.016s7.269-.423,7.8-4.273S1267.99,828.012,1262.664,828.151Z" transform="translate(-954.537 -573.07)" fill="#f7a491"/>
    <path id="Trazado_204282" data-name="Trazado 204282" d="M1248.511,823.076s-3.137,5.611-5.381,5.87-2.539,3.241-2.539,3.241.8-6.87,3.024-8.195A8.236,8.236,0,0,1,1248.511,823.076Z" transform="translate(-940.121 -568.626)" fill="#13375b"/>
    <path id="Trazado_204283" data-name="Trazado 204283" d="M1296.175,903.85l2.971.117a1.3,1.3,0,0,1-1.421,1.112C1296.13,905.062,1296.175,903.85,1296.175,903.85Z" transform="translate(-988.357 -638.774)" fill="#fff"/>
    <path id="Trazado_204284" data-name="Trazado 204284" d="M1492.312,1084.97a7.859,7.859,0,0,1,1.456.323c.506.2,4.51,3.236,4.51,3.236s.536.293.819.061a.644.644,0,0,0,.263-.506.971.971,0,0,0,.8.081.543.543,0,0,0,.273-.637.912.912,0,0,0,.738-.1c.273-.233.131-.829.131-.829s.859.526,1.193.172.192-.728-.142-1.011-2.315-1.6-2.548-1.749-.89-.849-1.092-.941-.7-.364-.7-.364-.829.091-.88.121-.283.607-.7.758a1.06,1.06,0,0,1-.92-.121.767.767,0,0,1-.01-.313,7.2,7.2,0,0,0,.394-.92c.071-.354.162-.455.293-.536s.849-.293,1.2-.435a5.941,5.941,0,0,1,1.84.273l.708.3s-.131-.524-.576-.606-1-.2-1.315-.233a13.781,13.781,0,0,0-1.375.212,5.376,5.376,0,0,0-1.335.212,15.717,15.717,0,0,1-2.781-.02S1491.584,1084.06,1492.312,1084.97Z" transform="translate(-1158.333 -792.5)" fill="#f8a492"/>
    <path id="Trazado_204285" data-name="Trazado 204285" d="M1289.29,1029.389c-.953-.021-11.955-.115-16.088-.149a4.556,4.556,0,0,1-2.78-.976l-9.194-7.234-4.026,4.64,11.413,8.245a3.843,3.843,0,0,0,2.638.709c4.341-.439,16.987-1.7,18.092-1.545Z" transform="translate(-954.537 -740.463)" fill="#f8a492"/>
    <path id="Trazado_204286" data-name="Trazado 204286" d="M1562.807,1036.536c.953-.021,12.543-.19,16.675-.224a4.555,4.555,0,0,0,2.78-.976l9.194-7.234,4.026,4.64-11.413,8.245a3.844,3.844,0,0,1-2.638.709c-4.341-.439-16.231-1.6-17.336-1.452Z" transform="translate(-1219.742 -746.601)" fill="#f48c7f"/>
    <path id="Trazado_204287" data-name="Trazado 204287" d="M1215.892,977.118s-7.7-8.1-10.48-10.139-8.384-.307-7.939,3.2c.453,3.58,13.026,12.641,13.026,12.641Z" transform="translate(-902.681 -692.8)" fill="#f7cc7f"/>
    <path id="Trazado_204288" data-name="Trazado 204288" d="M1744.979,977.118s7.7-8.1,10.48-10.139,8.383-.307,7.939,3.2c-.453,3.58-13.026,12.641-13.026,12.641Z" transform="translate(-1377.832 -692.8)" fill="#eab054"/>
    <path id="Trazado_204289" data-name="Trazado 204289" d="M1789.74,969.835c-.179,1.24-3.474,34.946-3.474,34.946,15.606,7.537,24.217,1.343,24.217,1.343s-.511-23.669.1-26.89c.4-2.131.028-16.5-1.354-16.894a25.223,25.223,0,0,0-5.138-1.077c-1.891-.2-9.236-.31-10.55.131A16.735,16.735,0,0,0,1789.74,969.835Z" transform="translate(-1413.662 -688.446)" fill="#f7cc7f"/>
    <path id="Trazado_204290" data-name="Trazado 204290" d="M1860.978,907.215l1.148,7.02s-4.2,8.932-6.714,8.18c-2.107-.631-.811-8.3-.811-8.3s1.149-4.12.8-6.182S1860.978,907.215,1860.978,907.215Z" transform="translate(-1472.621 -641.319)" fill="#f7a491"/>
    <path id="Trazado_204291" data-name="Trazado 204291" d="M1862.307,907.931c-.344-2.062,5.573-.716,5.573-.716l.1.6a3.331,3.331,0,0,1-.641,1.015,7.945,7.945,0,0,1-5.174,2.246A10.791,10.791,0,0,0,1862.307,907.931Z" transform="translate(-1479.523 -641.319)" fill="#f47458"/>
    <path id="Trazado_204292" data-name="Trazado 204292" d="M1846.443,817.187c.167-.058,1.341,8.293-.886,10.591s-6.565,3.05-8.121,1.24c-1.721-2-1.635-10.978,1.827-13.342S1846.443,817.187,1846.443,817.187Z" transform="translate(-1457.114 -561.593)" fill="#f7a491"/>
    <path id="Trazado_204293" data-name="Trazado 204293" d="M1856.776,795.933c1.215.138,2.866.782,4.572,3.49a6.6,6.6,0,0,1-1.892,8.828,5.158,5.158,0,0,0-2.4,3.883l-.4-1.063a5.813,5.813,0,0,1-.306-2.547,4.809,4.809,0,0,1,.395-1.531c.587-1.209-1.261-2.012-1.779-3.017-.4-.774-.418-2.546-1.047-3.826l-.751-.977a4.908,4.908,0,0,0-3.427-.928C1848.053,798.608,1850.135,790.679,1856.776,795.933Z" transform="translate(-1468.264 -543.557)" fill="#13375b"/>
    <path id="Trazado_204294" data-name="Trazado 204294" d="M1893.815,867.854c-.018,1.019.465,1.853,1.079,1.863s1.125-.808,1.143-1.827-.465-1.853-1.079-1.863S1893.833,866.835,1893.815,867.854Z" transform="translate(-1506.993 -605.951)" fill="#f7a491"/>
    <path id="Trazado_204295" data-name="Trazado 204295" d="M1844.29,894.378l3.679.375a1.616,1.616,0,0,1-1.849,1.271C1844.141,895.879,1844.29,894.378,1844.29,894.378Z" transform="translate(-1464.013 -630.554)" fill="#fff"/>
    <path id="Trazado_204296" data-name="Trazado 204296" d="M1976.276,1059.853a.993.993,0,0,0,0-.229c-.243-2.467-2.291-23.183-2.636-24.063-.312-.795-9.5-13.934-9.5-13.934l-4.515,6.151,8.835,11.785c.2.749,3.385,14.733,3.385,14.733s.653,2.549.946,4.076c-.133.368-.265.715-.381,1a9.17,9.17,0,0,1-.952,1.53,10.489,10.489,0,0,0-1.128,2c-.094.36-.262,1.107-.358,1.559s-.226.977-.248,1.222a2.348,2.348,0,0,1-.285.656.394.394,0,0,0,.465.569c.321-.107.571-.522.725-.781.435-.731.667-2.065.775-1.995s.489,2.334.55,2.59a27.855,27.855,0,0,0,.775,3.365c.258.48.6.4.69.1.078-.259-.285-3.937-.285-3.937s-.045-.469.16-.323.541,3.485.684,3.974.469.748.745.355c.336-.478-.242-4.019-.242-4.019s-.065-.445.125-.4.428,2.887.576,3.133a.375.375,0,0,0,.7-.076,17.5,17.5,0,0,0-.334-3.64s.027-.251.145-.168.495,2.495.741,2.718a.26.26,0,0,0,.378.006c.45-.307-.24-2.6-.233-3.741s-.522-2.422-.364-3.78C1976.231,1060.194,1976.259,1059.985,1976.276,1059.853Z" transform="translate(-1564.109 -740.981)" fill="#f8a492"/>
    <path id="Trazado_204297" data-name="Trazado 204297" d="M1945.015,985.483l-7.847,5.269s-4.423-6.581-6.8-8.924c-2.974-2.935,1.083-11.927,3-11.418C1937.656,971.547,1945.015,985.483,1945.015,985.483Z" transform="translate(-1537.8 -696.516)" fill="#f7cc7f"/>
    <path id="Trazado_204298" data-name="Trazado 204298" d="M1245.5,867.481c.471.931,1.365,1.393,2,1.032a1.784,1.784,0,0,0,.292-2.338c-.471-.931-1.365-1.393-2-1.032A1.784,1.784,0,0,0,1245.5,867.481Z" transform="translate(-944.136 -605.077)" fill="#f7a491"/>
    <g id="Grupo_143263" data-name="Grupo 143263" transform="translate(472.295 184.697)">
      <g id="Grupo_143262" data-name="Grupo 143262">
        <path id="Trazado_204306" data-name="Trazado 204306" d="M2542.394,297.828l1.485.637s2.479-.553,2.756-1.019.438-1.642.785-1.643a1.059,1.059,0,0,1,1.1,1c.068.6-.937,2.217-.816,2.41a8.516,8.516,0,0,0,1.539.787,1.2,1.2,0,0,1,.711,1.021h0a.64.64,0,0,1-.464.658l-.452.127.1.461a.64.64,0,0,1-.477.765l-.348.081.087.283a.64.64,0,0,1-.49.817l-.3.058.006.08a.64.64,0,0,1-.533.68l-.3.049-3.954-1.7a2.953,2.953,0,0,1-.982-.686l-1.292-.828a.334.334,0,0,1-.125-.417l1.534-3.447A.333.333,0,0,1,2542.394,297.828Z" transform="translate(-2540.395 -295.804)" fill="#355389"/>
      </g>
    </g>
    <g id="Grupo_143266" data-name="Grupo 143266" transform="translate(439.079 310.306)">
      <path id="Trazado_204311" data-name="Trazado 204311" d="M0,0H11.256V87.125H0Z" transform="translate(52.559)" fill="#bcf296"/>
      <rect id="Rectángulo_43076" data-name="Rectángulo 43076" width="11.256" height="60.55" transform="translate(36.84 26.084)" fill="#bcf296"/>
      <path id="Trazado_204312" data-name="Trazado 204312" d="M0,0H11.256V68.248H0Z" transform="translate(68.505 18.877)" fill="#bcf296"/>
      <rect id="Rectángulo_43078" data-name="Rectángulo 43078" width="11.256" height="70.933" transform="translate(21.12 15.701)" fill="#bcf296"/>
      <rect id="Rectángulo_43079" data-name="Rectángulo 43079" width="11.256" height="49.901" transform="translate(5.4 36.732)" fill="#bcf296"/>
      <g id="Grupo_143265" data-name="Grupo 143265" transform="translate(5.4 19.588)">
        <rect id="Rectángulo_43080" data-name="Rectángulo 43080" width="11.256" height="67.537" transform="translate(47.159)" fill="#95c872"/>
        <path id="Trazado_204310" data-name="Trazado 204310" d="M0,0H11.256V46.595H0Z" transform="translate(31.439 20.45)" fill="#95c872"/>
        <rect id="Rectángulo_43082" data-name="Rectángulo 43082" width="11.256" height="53.011" transform="translate(63.105 14.526)" fill="#95c872"/>
        <rect id="Rectángulo_43083" data-name="Rectángulo 43083" width="11.256" height="54.585" transform="translate(15.72 12.461)" fill="#95c872"/>
        <rect id="Rectángulo_43084" data-name="Rectángulo 43084" width="11.256" height="38.4" transform="translate(0 28.645)" fill="#95c872"/>
      </g>
      <path id="Trazado_204309" data-name="Trazado 204309" d="M2371.975,1353.291l-9.062,6.191,2.989.515-16.978,26.4-10.619-16.969-18.955,41.624L2308.9,1399.71l-8.425,16.053-4.154-3.368-7.2,13.895,3.048.462,5.083-9.894,4.139,3.356,8.159-15.547,10.619,11.523,18.533-40.7,10.183,16.273,19.45-30.234,1.747,2.571Z" transform="translate(-2289.125 -1339.108)" fill="#263238"/>
    </g>
    <rect id="Rectángulo_43085" data-name="Rectángulo 43085" width="365.235" height="1.058" transform="translate(159.077 396.893)" fill="#13375b"/>
  </g>
</svg>
