<svg id="prestamo" xmlns="http://www.w3.org/2000/svg" width="130.976" height="130.976" viewBox="0 0 130.976 130.976">
  <g id="Grupo_142856" data-name="Grupo 142856" transform="translate(2.113 2.113)">
    <g id="Grupo_142827" data-name="Grupo 142827" transform="translate(16.897 63.455)">
      <path id="Trazado_203037" data-name="Trazado 203037" d="M93.118,256.671,103.68,260.9l2.1-12.6a27.479,27.479,0,0,1,3.385.467,6.485,6.485,0,0,0-.694.37,6.162,6.162,0,0,0-2.263,2.477l-.415.832a36.941,36.941,0,0,1,6.554,8.9,4.225,4.225,0,0,0,1.9,8L102.592,281a17.925,17.925,0,0,0,12.675,30.6H71.993V250.333l0-.005a27.26,27.26,0,0,1,8.466-2.028l2.1,12.6Z" transform="translate(-71.99 -248.3)" fill="#b4dd7f"/>
    </g>
    <g id="Grupo_142828" data-name="Grupo 142828" transform="translate(0 65.483)">
      <path id="Trazado_203038" data-name="Trazado 203038" d="M24.9,255.985v31.688H8v-6.338A27.486,27.486,0,0,1,24.9,255.98Z" transform="translate(-8 -255.98)" fill="#b4dd7f"/>
    </g>
    <g id="Grupo_142829" data-name="Grupo 142829" transform="translate(38.025 63.375)">
      <path id="Trazado_203039" data-name="Trazado 203039" d="M164.662,248.079l-2.1,12.6L152,256.45l6.338-8.45h4.225Q163.62,248,164.662,248.079Z" transform="translate(-152 -248)" fill="#a0d468"/>
    </g>
    <g id="Grupo_142830" data-name="Grupo 142830" transform="translate(25.363 63.375)">
      <path id="Trazado_203040" data-name="Trazado 203040" d="M110.374,248l6.338,8.45-10.563,4.225-2.1-12.6q1.038-.079,2.1-.079Z" transform="translate(-104.05 -248)" fill="#a0d468"/>
    </g>
    <g id="Grupo_142831" data-name="Grupo 142831" transform="translate(53.589 18.535)">
      <path id="Trazado_203041" data-name="Trazado 203041" d="M220.726,87.48V99.429l-.011.011a6.337,6.337,0,0,0-6.327-5.984h-2.113V89.23a12.607,12.607,0,0,0-1.336-5.669l1.582-.792a14.815,14.815,0,0,0,5.387-4.579l0,0a14.44,14.44,0,0,1,2.815,8.564Z" transform="translate(-210.94 -78.19)" fill="#656d78"/>
    </g>
    <g id="Grupo_142832" data-name="Grupo 142832" transform="translate(12.675 12.675)">
      <path id="Trazado_203042" data-name="Trazado 203042" d="M64.45,56l8.45,8.45a8.448,8.448,0,0,0-8.45,8.45v4.225H62.338A6.339,6.339,0,0,0,56,83.463V64.45A8.451,8.451,0,0,1,64.45,56Z" transform="translate(-56 -56)" fill="#656d78"/>
    </g>
    <g id="Grupo_142833" data-name="Grupo 142833" transform="translate(21.125)">
      <path id="Trazado_203043" data-name="Trazado 203043" d="M128.684,11.2a14.838,14.838,0,0,1-.652,14.439c-.187.3-.388.6-.6.893a14.815,14.815,0,0,1-5.387,4.579l-1.582.792A12.675,12.675,0,0,0,109.125,24.9h-5.838a7.642,7.642,0,0,0-6.837,4.225L88,20.675A12.676,12.676,0,0,1,100.675,8a21.843,21.843,0,0,1,4.148.4,22.112,22.112,0,0,1,4,1.172l3.446,1.378a17.831,17.831,0,0,0,6.631,1.278,17.886,17.886,0,0,0,2.862-.23,17.807,17.807,0,0,0,2.786-.687l3.589-1.2Z" transform="translate(-88 -8)" fill="#656d78"/>
    </g>
    <g id="Grupo_142834" data-name="Grupo 142834" transform="translate(63.375 4.225)">
      <path id="Trazado_203044" data-name="Trazado 203044" d="M310.137,59.039a4.224,4.224,0,1,1-5.973,5.973l-1.238-1.236L273.35,34.2,248,59.548V47.6l22.364-22.361a4.22,4.22,0,0,1,5.973,0Z" transform="translate(-248 -24)" fill="#ff826e"/>
    </g>
    <g id="Grupo_142835" data-name="Grupo 142835" transform="translate(59.15 14.426)">
      <path id="Trazado_203045" data-name="Trazado 203045" d="M261.575,62.63,291.15,92.205V128.48H282.7v-4.225c0-2.334-5.675-4.225-12.675-4.225s-12.675,1.891-12.675,4.225v4.225H244.675a4.211,4.211,0,0,0-2.329-3.776,36.865,36.865,0,0,1,6.554-8.9,7.638,7.638,0,0,0-6.837-4.225h-2.852a7.214,7.214,0,0,0-5.1,2.113l-.314-.314a6.123,6.123,0,0,0-1.8-1.246V94.318a6.343,6.343,0,0,0,4.225-5.976v-.364Z" transform="translate(-232 -62.63)" fill="#e6e9ed"/>
    </g>
    <g id="Grupo_142836" data-name="Grupo 142836" transform="translate(92.95 50.7)">
      <circle id="Elipse_6818" data-name="Elipse 6818" cx="4.225" cy="4.225" r="4.225" fill="#b4dd7f"/>
    </g>
    <g id="Grupo_142837" data-name="Grupo 142837" transform="translate(76.05 38.025)">
      <circle id="Elipse_6819" data-name="Elipse 6819" cx="4.225" cy="4.225" r="4.225" fill="#b4dd7f"/>
    </g>
    <g id="Grupo_142838" data-name="Grupo 142838" transform="translate(84.5 76.05)">
      <path id="Trazado_203046" data-name="Trazado 203046" d="M353.35,300.225v4.225c0,2.334-5.675,4.225-12.675,4.225S328,306.784,328,304.45V296c0,2.334,5.675,4.225,12.675,4.225S353.35,298.334,353.35,296Z" transform="translate(-328 -296)" fill="#fcd770"/>
    </g>
    <g id="Grupo_142839" data-name="Grupo 142839" transform="translate(84.5 92.95)">
      <path id="Trazado_203047" data-name="Trazado 203047" d="M344.921,363.982a1.489,1.489,0,0,0-.021.243v8.21a36.252,36.252,0,0,1-4.225.24c-7,0-12.675-1.891-12.675-4.225V360c0,2.334,5.675,4.225,12.675,4.225A36.033,36.033,0,0,0,344.921,363.982Z" transform="translate(-328 -360)" fill="#fcd770"/>
    </g>
    <g id="Grupo_142840" data-name="Grupo 142840" transform="translate(84.5 109.851)">
      <path id="Trazado_203048" data-name="Trazado 203048" d="M344.9,428.225v8.21a36.245,36.245,0,0,1-4.225.24c-7,0-12.675-1.891-12.675-4.225V424c0,2.334,5.675,4.225,12.675,4.225a36.252,36.252,0,0,0,4.225-.24Z" transform="translate(-328 -424)" fill="#fcd770"/>
    </g>
    <g id="Grupo_142841" data-name="Grupo 142841" transform="translate(101.4 105.626)">
      <path id="Trazado_203049" data-name="Trazado 203049" d="M417.35,408v8.45c0,2.334-5.675,4.225-12.675,4.225S392,418.784,392,416.45V408c0,2.334,5.675,4.225,12.675,4.225S417.35,410.334,417.35,408Z" transform="translate(-392 -408)" fill="#fcd770"/>
    </g>
    <g id="Grupo_142842" data-name="Grupo 142842" transform="translate(101.4 92.95)">
      <path id="Trazado_203050" data-name="Trazado 203050" d="M404.675,360c7,0,12.675,1.891,12.675,4.225s-5.675,4.225-12.675,4.225S392,366.559,392,364.225a1.486,1.486,0,0,1,.021-.243c.3-1.735,3.726-3.187,8.429-3.742a36.259,36.259,0,0,1,4.225-.24Z" transform="translate(-392 -360)" fill="#fcd770"/>
    </g>
    <g id="Grupo_142843" data-name="Grupo 142843" transform="translate(101.4 114.076)">
      <path id="Trazado_203051" data-name="Trazado 203051" d="M417.35,440v8.45c0,2.334-5.675,4.225-12.675,4.225S392,450.784,392,448.45V440c0,2.334,5.675,4.225,12.675,4.225S417.35,442.334,417.35,440Z" transform="translate(-392 -440)" fill="#fcd770"/>
    </g>
    <g id="Grupo_142844" data-name="Grupo 142844" transform="translate(101.4 97.175)">
      <path id="Trazado_203052" data-name="Trazado 203052" d="M417.35,376v8.45c0,2.334-5.675,4.225-12.675,4.225S392,386.784,392,384.45V376c0,2.334,5.675,4.225,12.675,4.225S417.35,378.334,417.35,376Z" transform="translate(-392 -376)" fill="#fcd770"/>
    </g>
    <g id="Grupo_142845" data-name="Grupo 142845" transform="translate(84.5 101.4)">
      <path id="Trazado_203053" data-name="Trazado 203053" d="M344.9,396.225v8.21a36.252,36.252,0,0,1-4.225.24c-7,0-12.675-1.891-12.675-4.225V392c0,2.334,5.675,4.225,12.675,4.225a36.252,36.252,0,0,0,4.225-.24Z" transform="translate(-328 -392)" fill="#fcd770"/>
    </g>
    <g id="Grupo_142846" data-name="Grupo 142846" transform="translate(84.5 84.5)">
      <path id="Trazado_203054" data-name="Trazado 203054" d="M353.35,328v8.69c-4.7.555-8.133,2.007-8.429,3.742a36.026,36.026,0,0,1-4.246.243c-7,0-12.675-1.891-12.675-4.225V328c0,2.334,5.675,4.225,12.675,4.225S353.35,330.334,353.35,328Z" transform="translate(-328 -328)" fill="#fcd770"/>
    </g>
    <g id="Grupo_142847" data-name="Grupo 142847" transform="translate(84.5 71.825)">
      <ellipse id="Elipse_6820" data-name="Elipse 6820" cx="12.675" cy="4.225" rx="12.675" ry="4.225" fill="#fcd770"/>
    </g>
    <g id="Grupo_142848" data-name="Grupo 142848" transform="translate(42.25 80.275)">
      <path id="Trazado_203055" data-name="Trazado 203055" d="M205,327.876a17.925,17.925,0,0,1-12.675,30.6h-6.4a17.926,17.926,0,0,1-12.675-30.6l11.65-11.651A4.224,4.224,0,0,0,189.125,312v8.45a4.225,4.225,0,1,0,8.45,0Z" transform="translate(-168 -312)" fill="#cf9e76"/>
    </g>
    <g id="Grupo_142849" data-name="Grupo 142849" transform="translate(50.7 63.375)">
      <path id="Trazado_203056" data-name="Trazado 203056" d="M208.45,248.552a6.124,6.124,0,0,1,1.8,1.246l.314.314a7.214,7.214,0,0,1,5.1-2.113h2.852a7.638,7.638,0,0,1,6.837,4.225,36.865,36.865,0,0,0-6.554,8.9,4.226,4.226,0,0,0-6.121,3.776,4.226,4.226,0,0,0-6.121-3.776,36.939,36.939,0,0,0-6.554-8.9l.415-.832a6.162,6.162,0,0,1,2.263-2.477,6.483,6.483,0,0,1,.694-.37,6.143,6.143,0,0,1,5.078.005Z" transform="translate(-200 -248)" fill="#d3a06c"/>
    </g>
    <g id="Grupo_142850" data-name="Grupo 142850" transform="translate(63.375 76.05)">
      <path id="Trazado_203057" data-name="Trazado 203057" d="M256.45,300.225v8.45a4.225,4.225,0,0,1-8.45,0v-8.45a4.225,4.225,0,1,1,8.45,0Z" transform="translate(-248 -296)" fill="#f0d0b4"/>
    </g>
    <g id="Grupo_142851" data-name="Grupo 142851" transform="translate(54.925 76.05)">
      <path id="Trazado_203058" data-name="Trazado 203058" d="M220.225,296a4.224,4.224,0,1,1-1.9.449A4.224,4.224,0,0,1,220.225,296Z" transform="translate(-216 -296)" fill="#f0d0b4"/>
    </g>
    <g id="Grupo_142852" data-name="Grupo 142852" transform="translate(42.25 33.8)">
      <path id="Trazado_203059" data-name="Trazado 203059" d="M180.675,136v8.45H170.113A2.112,2.112,0,0,1,168,142.338V136Z" transform="translate(-168 -136)" fill="#69d6f4"/>
    </g>
    <g id="Grupo_142853" data-name="Grupo 142853" transform="translate(21.125 33.8)">
      <path id="Trazado_203060" data-name="Trazado 203060" d="M100.675,136v6.338a2.112,2.112,0,0,1-2.113,2.113H88V136Z" transform="translate(-88 -136)" fill="#69d6f4"/>
    </g>
    <g id="Grupo_142854" data-name="Grupo 142854" transform="translate(12.675 16.9)">
      <path id="Trazado_203061" data-name="Trazado 203061" d="M106.69,94.884a6.337,6.337,0,0,0-6.327-5.984H98.25v8.45H87.688a2.112,2.112,0,0,1-2.113-2.113V88.9H98.25V84.675A12.669,12.669,0,0,0,85.575,72H79.737A7.642,7.642,0,0,0,72.9,76.225a8.448,8.448,0,0,0-8.45,8.45V88.9H77.125v6.338a2.112,2.112,0,0,1-2.113,2.113H64.45V88.9H62.338a6.338,6.338,0,0,0,0,12.675h2.115a13.136,13.136,0,0,0,10.56,12.675v4.225l6.338,8.45,6.338-8.45V114.25a13.135,13.135,0,0,0,10.56-12.675h2.115a6.335,6.335,0,0,0,6.338-6.338C106.7,95.119,106.7,95,106.69,94.884Z" transform="translate(-56 -72)" fill="#f0d0b4"/>
    </g>
    <g id="Grupo_142855" data-name="Grupo 142855" transform="translate(4.225 97.175)">
      <path id="Trazado_203062" data-name="Trazado 203062" d="M24,376H36.675v29.575H24Z" transform="translate(-24 -376)" fill="#f0d0b4"/>
    </g>
  </g>
  <g id="Grupo_142857" data-name="Grupo 142857">
    <path id="Trazado_203063" data-name="Trazado 203063" d="M137.076,182.758l.223-.446-3.779-1.89-.223.446a4.724,4.724,0,0,1-8.45,0l-.223-.446-3.779,1.89.223.446a8.949,8.949,0,0,0,16.008,0Z" transform="translate(-88.934 -132.779)"/>
    <path id="Trazado_203064" data-name="Trazado 203064" d="M96,336h8.45v4.225H96Z" transform="translate(-70.65 -247.275)"/>
    <path id="Trazado_203065" data-name="Trazado 203065" d="M230.338,384H224v6.337a6.345,6.345,0,0,0,6.338,6.338,2.115,2.115,0,0,1,2.113,2.113V400.9h-2.113a2.115,2.115,0,0,1-2.113-2.112v-2.113H224v2.113a6.345,6.345,0,0,0,6.338,6.338h6.338v-6.338a6.345,6.345,0,0,0-6.338-6.338,2.115,2.115,0,0,1-2.113-2.113v-2.112h2.113a2.115,2.115,0,0,1,2.113,2.112v2.113h4.225v-2.113A6.345,6.345,0,0,0,230.338,384Z" transform="translate(-164.85 -282.6)"/>
    <path id="Trazado_203066" data-name="Trazado 203066" d="M116.188,92.95c-.706,0-1.412.018-2.113.055V84.5h8.45V50.341a6.339,6.339,0,0,0,6.594-10.459l-33.8-33.8a6.337,6.337,0,0,0-8.962,0L67.128,25.31a16.7,16.7,0,0,0-1.917-4.652,17.005,17.005,0,0,0,.6-16.286l-1.365-2.73L59.119,3.417a15.724,15.724,0,0,1-4.979.808A15.678,15.678,0,0,1,48.291,3.1L44.845,1.721A23.938,23.938,0,0,0,35.913,0,14.807,14.807,0,0,0,21.254,12.864a10.578,10.578,0,0,0-8.579,10.373V42.25a8.46,8.46,0,0,0,8.45,8.45h.18A15.317,15.317,0,0,0,31.688,62.891v.484H29.575A29.609,29.609,0,0,0,0,92.95v8.45H4.225v29.575H68.688a20.024,20.024,0,0,0,16.41-8.56c1.9,2.977,8.066,4.335,14.19,4.335.92,0,1.828-.035,2.719-.1,1.911,2.967,8.067,4.321,14.181,4.321,7.361,0,14.788-1.96,14.788-6.338V99.288C130.976,94.91,123.549,92.95,116.188,92.95Zm10.371,6.338c-.992.781-4.532,2.113-10.371,2.113s-9.379-1.332-10.371-2.113c.992-.781,4.532-2.113,10.371-2.113S125.567,98.507,126.559,99.288Zm.192,8.27c-.619.734-4.245,2.292-10.563,2.292s-9.943-1.559-10.563-2.292v-3.621a29.527,29.527,0,0,0,10.563,1.688,29.527,29.527,0,0,0,10.563-1.688Zm0,8.45c-.619.734-4.245,2.292-10.563,2.292s-9.943-1.559-10.563-2.292v-3.621a29.527,29.527,0,0,0,10.563,1.688,29.527,29.527,0,0,0,10.563-1.688ZM47.531,67.6h2.788l-1.271,7.626L43.482,73ZM25.35,38.025H33.8V42.25H25.35Zm0-4.225V31.688a6.345,6.345,0,0,1,6.338-6.338h1.306l.584-1.168a5.5,5.5,0,0,1,4.947-3.057h5.839A10.575,10.575,0,0,1,54.925,31.688V33.8Zm36.976-9.547a12.383,12.383,0,0,1,1.05,4.96v5.724A8.4,8.4,0,0,0,59.15,33.8V31.687a14.72,14.72,0,0,0-.756-4.658A17.069,17.069,0,0,0,62.326,24.253ZM59.15,46.475v-8.45a4.225,4.225,0,1,1,0,8.45Zm-12.675-8.45h8.45V42.25h-8.45ZM58.97,50.7h.18V63.392c-.143-.007-.286-.016-.43-.016a8.292,8.292,0,0,0-2.753.469,29.824,29.824,0,0,0-5.266-.469H48.588v-.484A15.317,15.317,0,0,0,58.97,50.7Zm-.25,16.9a4,4,0,0,1,2.848,1.18l1.808,1.808,1.494-1.494A5.067,5.067,0,0,1,68.476,67.6h2.851a5.5,5.5,0,0,1,4.148,1.868,38.856,38.856,0,0,0-4.888,6.644,6.308,6.308,0,0,0-5.1,1.557,6.308,6.308,0,0,0-5.1-1.557A38.858,38.858,0,0,0,55.4,69.353,4,4,0,0,1,58.72,67.6Zm2.543,16.9a2.113,2.113,0,1,1,2.113-2.113A2.115,2.115,0,0,1,61.263,84.5ZM67.6,82.388a2.113,2.113,0,0,1,4.225,0v8.45a2.113,2.113,0,1,1-4.225,0ZM76.05,84.5H84.5V98.635a20.379,20.379,0,0,0-1.644-1.866L76.05,89.963Zm23.238,0a29.527,29.527,0,0,0,10.563-1.688v3.621c-.619.734-4.245,2.292-10.563,2.292s-9.943-1.559-10.563-2.292V82.812A29.527,29.527,0,0,0,99.288,84.5ZM88.917,78.163c.992-.781,4.532-2.113,10.371-2.113s9.379,1.332,10.371,2.113c-.992.781-4.532,2.113-10.371,2.113S89.909,78.944,88.917,78.163Zm12.483,27.4c-.693.041-1.4.063-2.113.063-6.317,0-9.943-1.559-10.563-2.292V99.713A29.527,29.527,0,0,0,99.288,101.4c.712,0,1.417-.021,2.113-.057Zm-12.675,2.6a29.527,29.527,0,0,0,10.563,1.688c.712,0,1.417-.02,2.113-.057v4.219c-.693.041-1.4.063-2.113.063-6.317,0-9.943-1.559-10.563-2.292Zm13.424-11.1c-.931.076-1.888.117-2.861.117-6.317,0-9.943-1.559-10.563-2.292V91.263a29.527,29.527,0,0,0,10.563,1.688,29.527,29.527,0,0,0,10.563-1.688v2.213C106.371,94.092,103.461,95.265,102.149,97.059Zm11.926-16.783V78.163c0-4.378-7.427-6.338-14.788-6.338S84.5,73.785,84.5,78.163v2.113H75.687a6.344,6.344,0,0,0-1.346-2.211,34.66,34.66,0,0,1,5.316-6.858l1.077-1.077-.681-1.362a9.7,9.7,0,0,0-8.726-5.393H68.475a9.261,9.261,0,0,0-5.041,1.476c-.019-.013-.039-.025-.059-.038V49.563a8.456,8.456,0,0,0,4.207-6.783L90.838,19.525,118.3,46.988V80.275ZM89.344,9.069a2.113,2.113,0,0,1,2.988,0l33.8,33.8a2.112,2.112,0,0,1-2.988,2.987L90.838,13.55,67.6,36.788V30.813ZM35.913,4.225a19.739,19.739,0,0,1,7.363,1.418l3.446,1.378A19.881,19.881,0,0,0,54.139,8.45a19.938,19.938,0,0,0,6.316-1.025l1.836-.612a12.8,12.8,0,0,1,1.085,5.14,12.655,12.655,0,0,1-6.876,11.3A14.779,14.779,0,0,0,44.363,16.9H38.524a9.7,9.7,0,0,0-7.111,3.075l-6.029-6.029A10.577,10.577,0,0,1,35.913,4.225Zm-13.5,12.73,5.052,5.052a10.576,10.576,0,0,0-6.344,9.681V33.8A8.4,8.4,0,0,0,16.9,34.937v-11.7A6.346,6.346,0,0,1,22.417,16.955ZM16.9,42.25a4.23,4.23,0,0,1,4.225-4.225v8.45A4.23,4.23,0,0,1,16.9,42.25Zm8.45,6.128v-1.9H33.8a4.23,4.23,0,0,0,4.225-4.225V38.025H42.25V42.25a4.23,4.23,0,0,0,4.225,4.225h8.45v1.9a11.057,11.057,0,0,1-8.864,10.813l-1.7.34v5.253l-4.225,5.633-4.225-5.633V59.531l-1.7-.34A11.057,11.057,0,0,1,25.35,48.379ZM32.744,67.6l4.05,5.4-5.566,2.227L29.956,67.6ZM4.225,92.95A25.365,25.365,0,0,1,16.9,71V97.175H4.225ZM8.45,101.4H16.9v25.35H8.45Zm12.675,25.35V69.05a25.117,25.117,0,0,1,4.6-1.158l2.2,13.206,10.1-4.041V97.175H42.25V77.058l10.1,4.041,1.231-7.387a34.66,34.66,0,0,1,3.052,4.353,6.326,6.326,0,0,0,.81,9.378l-9.326,9.326A20.019,20.019,0,0,0,50,126.751Zm47.563,0h-6.4A15.813,15.813,0,0,1,51.107,99.757l11.1-11.1a6.269,6.269,0,0,0,1.167-.293v2.476a6.335,6.335,0,0,0,11.392,3.817l5.1,5.1a15.813,15.813,0,0,1-11.181,26.994Zm20.038-6.517v-3.621A29.527,29.527,0,0,0,99.288,118.3c.712,0,1.417-.02,2.113-.057v4.219c-.693.041-1.4.063-2.113.063C92.973,122.526,89.347,120.968,88.725,120.234Zm27.463,6.517c-6.315,0-9.941-1.558-10.563-2.292v-3.621a29.527,29.527,0,0,0,10.563,1.688,29.527,29.527,0,0,0,10.563-1.688v3.621C126.129,125.193,122.5,126.751,116.188,126.751Z" transform="translate(0 0)"/>
    <path id="Trazado_203067" data-name="Trazado 203067" d="M0,0H29.875V4.225H0Z" transform="translate(78.768 59.772) rotate(-45)"/>
    <path id="Trazado_203068" data-name="Trazado 203068" d="M300.675,150.338a6.338,6.338,0,1,0-6.338,6.338A6.345,6.345,0,0,0,300.675,150.338Zm-8.45,0a2.113,2.113,0,1,1,2.112,2.113A2.115,2.115,0,0,1,292.225,150.338Z" transform="translate(-211.95 -105.975)"/>
    <path id="Trazado_203069" data-name="Trazado 203069" d="M358.338,192a6.338,6.338,0,1,0,6.338,6.338A6.345,6.345,0,0,0,358.338,192Zm0,8.45a2.113,2.113,0,1,1,2.112-2.113A2.115,2.115,0,0,1,358.338,200.45Z" transform="translate(-259.05 -141.3)"/>
  </g>
</svg>
