<svg xmlns="http://www.w3.org/2000/svg" width="118.347" height="118.349" viewBox="0 0 118.347 118.349">
  <g id="reputacion" transform="translate(-0.004)">
    <g id="Grupo_142940" data-name="Grupo 142940" transform="translate(1.738 1.734)">
      <g id="Grupo_142936" data-name="Grupo 142936">
        <path id="Trazado_203206" data-name="Trazado 203206" d="M7.5,22.817V15.159A7.659,7.659,0,0,1,15.163,7.5h99.562a7.659,7.659,0,0,1,7.659,7.659v7.659Z" transform="translate(-7.504 -7.5)" fill="#e2e2e2"/>
        <path id="Trazado_203207" data-name="Trazado 203207" d="M453.683,7.5h-5.316a7.659,7.659,0,0,1,7.659,7.659v7.659h5.315V15.159A7.659,7.659,0,0,0,453.683,7.5Z" transform="translate(-346.461 -7.5)" fill="#d1d1d1"/>
        <path id="Trazado_203208" data-name="Trazado 203208" d="M15.163,40.633h99.562a7.659,7.659,0,0,1,7.659,7.659V86.585a7.659,7.659,0,0,1-7.659,7.659H73.56a1.915,1.915,0,0,0-1.532.766l-7.467,9.956a1.915,1.915,0,0,1-3.446-1.149V96.158A1.914,1.914,0,0,0,59.2,94.244H15.163A7.659,7.659,0,0,1,7.5,86.585V48.292a7.659,7.659,0,0,1,7.659-7.659Z" transform="translate(-7.504 -32.974)" fill="#f8f6f6"/>
        <g id="Grupo_142935" data-name="Grupo 142935" transform="translate(53.611 7.659)">
          <path id="Trazado_203209" data-name="Trazado 203209" d="M245.032,273.329l-5.6,7.464v1.343a1.915,1.915,0,0,0,3.446,1.149l7.467-9.956a1.914,1.914,0,0,1,1.532-.766h-5.316A1.914,1.914,0,0,0,245.032,273.329Z" transform="translate(-239.434 -218.952)" fill="#e2e2e2"/>
          <path id="Trazado_203210" data-name="Trazado 203210" d="M453.683,40.633h-5.316a7.659,7.659,0,0,1,7.659,7.659V86.585a7.659,7.659,0,0,1-7.659,7.659h5.316a7.659,7.659,0,0,0,7.659-7.659V48.292a7.659,7.659,0,0,0-7.659-7.659Z" transform="translate(-400.072 -40.633)" fill="#e2e2e2"/>
        </g>
      </g>
      <g id="Grupo_142937" data-name="Grupo 142937" transform="translate(10.584 22.562)">
        <path id="Trazado_203211" data-name="Trazado 203211" d="M216.934,106.448,219.183,111a1.2,1.2,0,0,0,.9.657l5.028.731a2.4,2.4,0,0,1,1.331,4.1l-3.638,3.547a1.2,1.2,0,0,0-.345,1.063l.859,5.008a2.4,2.4,0,0,1-3.484,2.531l-4.5-2.364a1.2,1.2,0,0,0-1.117,0l-4.5,2.364a2.4,2.4,0,0,1-3.484-2.531l.859-5.008a1.2,1.2,0,0,0-.345-1.063l-3.638-3.547a2.4,2.4,0,0,1,1.331-4.1l5.028-.731a1.2,1.2,0,0,0,.9-.657l2.249-4.556a2.4,2.4,0,0,1,4.306,0Z" transform="translate(-167.925 -105.109)" fill="#fedf30"/>
        <path id="Trazado_203212" data-name="Trazado 203212" d="M67.836,106.448,70.085,111a1.2,1.2,0,0,0,.9.657l5.028.731a2.4,2.4,0,0,1,1.331,4.1l-3.638,3.547a1.2,1.2,0,0,0-.345,1.063l.859,5.008a2.4,2.4,0,0,1-3.484,2.531l-4.5-2.364a1.2,1.2,0,0,0-1.117,0l-4.5,2.364a2.4,2.4,0,0,1-3.484-2.531L58,121.1a1.2,1.2,0,0,0-.345-1.063l-3.638-3.547a2.4,2.4,0,0,1,1.331-4.1l5.028-.731a1.2,1.2,0,0,0,.9-.657l2.249-4.556A2.4,2.4,0,0,1,67.836,106.448Z" transform="translate(-53.291 -105.109)" fill="#fedf30"/>
        <path id="Trazado_203213" data-name="Trazado 203213" d="M366.031,106.448,368.28,111a1.2,1.2,0,0,0,.9.657l5.028.731a2.4,2.4,0,0,1,1.331,4.1l-3.638,3.547a1.2,1.2,0,0,0-.345,1.063l.859,5.008a2.4,2.4,0,0,1-3.484,2.531l-4.5-2.364a1.2,1.2,0,0,0-1.117,0l-4.5,2.364a2.4,2.4,0,0,1-3.484-2.531l.859-5.008a1.2,1.2,0,0,0-.345-1.063l-3.638-3.547a2.4,2.4,0,0,1,1.331-4.1l5.028-.731a1.2,1.2,0,0,0,.9-.657l2.249-4.556a2.4,2.4,0,0,1,4.307,0Z" transform="translate(-282.558 -105.109)" fill="#fedf30"/>
      </g>
      <path id="Trazado_203214" data-name="Trazado 203214" d="M258.823,116.486a2.4,2.4,0,0,0-1.331-4.1l-5.028-.731a1.2,1.2,0,0,1-.9-.657l-2.249-4.556a2.4,2.4,0,0,0-4.306,0l-.505,1.023L246.244,111a1.2,1.2,0,0,0,.9.657l5.028.731a2.4,2.4,0,0,1,1.331,4.1l-3.638,3.547a1.2,1.2,0,0,0-.345,1.063l.859,5.008a2.366,2.366,0,0,1-.205,1.46l2.038,1.071A2.4,2.4,0,0,0,255.7,126.1l-.859-5.008a1.2,1.2,0,0,1,.345-1.063Z" transform="translate(-189.718 -82.546)" fill="#fec526"/>
      <path id="Trazado_203215" data-name="Trazado 203215" d="M109.724,116.486a2.4,2.4,0,0,0-1.331-4.1l-5.028-.731a1.2,1.2,0,0,1-.9-.657l-2.249-4.556a2.4,2.4,0,0,0-4.307,0L95.4,107.47,97.145,111a1.2,1.2,0,0,0,.9.657l5.028.731a2.4,2.4,0,0,1,1.331,4.1l-3.638,3.547a1.2,1.2,0,0,0-.345,1.063l.859,5.008a2.366,2.366,0,0,1-.205,1.46l2.038,1.071A2.4,2.4,0,0,0,106.6,126.1l-.859-5.008a1.2,1.2,0,0,1,.345-1.063Z" transform="translate(-75.084 -82.546)" fill="#fec526"/>
      <path id="Trazado_203216" data-name="Trazado 203216" d="M407.92,116.486a2.4,2.4,0,0,0-1.331-4.1l-5.028-.731a1.2,1.2,0,0,1-.9-.657l-2.249-4.556a2.4,2.4,0,0,0-4.306,0l-.505,1.023L395.341,111a1.2,1.2,0,0,0,.9.657l5.028.731a2.4,2.4,0,0,1,1.331,4.1l-3.638,3.547a1.2,1.2,0,0,0-.345,1.063l.859,5.008a2.366,2.366,0,0,1-.205,1.46l2.038,1.071a2.4,2.4,0,0,0,3.484-2.531l-.859-5.008a1.2,1.2,0,0,1,.345-1.063Z" transform="translate(-304.352 -82.546)" fill="#fec526"/>
      <g id="Grupo_142939" data-name="Grupo 142939" transform="translate(0 68.932)">
        <g id="Grupo_142938" data-name="Grupo 142938" transform="translate(14.162 3.829)">
          <path id="Trazado_203217" data-name="Trazado 203217" d="M243.437,405.112H257.83a7.659,7.659,0,0,1,7.659,7.659v2.938H243.437Z" transform="translate(-203.063 -385.965)" fill="#ebaca4"/>
          <path id="Trazado_203218" data-name="Trazado 203218" d="M142.682,356.527a7.763,7.763,0,0,0-7.815-7.443h-16.2l-2.276.763-1.539-.763a7.652,7.652,0,0,0-1.294-9.319L98.413,324.621a7.634,7.634,0,0,0-5.51-2.342H68.771v26.806h5.642a7.659,7.659,0,0,1,5.416,2.243l9.709,9.709a11.488,11.488,0,0,0,8.123,3.365h37.365A7.659,7.659,0,0,0,142.682,356.527Z" transform="translate(-68.771 -322.278)" fill="#ffcdbe"/>
        </g>
        <path id="Trazado_203219" data-name="Trazado 203219" d="M9.353,340.176H20.972a1.849,1.849,0,0,0,1.849-1.849V307.561a1.849,1.849,0,0,0-1.849-1.849H9.353A1.849,1.849,0,0,0,7.5,307.561v30.766a1.849,1.849,0,0,0,1.849,1.849Z" transform="translate(-7.504 -305.712)" fill="#8ac9fe"/>
      </g>
      <path id="Trazado_203220" data-name="Trazado 203220" d="M344.842,445.689a7.763,7.763,0,0,0-7.815-7.444h-5.318a7.763,7.763,0,0,1,7.815,7.444,7.659,7.659,0,0,1-7.656,7.874h5.318A7.659,7.659,0,0,0,344.842,445.689Z" transform="translate(-256.769 -338.678)" fill="#ebaca4"/>
    </g>
    <g id="Grupo_142941" data-name="Grupo 142941" transform="translate(0.004 0)">
      <path id="Trazado_203221" data-name="Trazado 203221" d="M81.994,328.838h-2.1a9.406,9.406,0,0,0-9.229-7.659H62.915a9.531,9.531,0,0,0-1.011-1.161L46.777,304.893a9.314,9.314,0,0,0-6.746-2.861H18.789v-.246a3.587,3.587,0,0,0-3.583-3.583H3.587A3.587,3.587,0,0,0,0,301.786v30.766a3.587,3.587,0,0,0,3.583,3.583H15.206a3.587,3.587,0,0,0,3.583-3.583v-.246h2.753a5.886,5.886,0,0,1,4.19,1.735l9.709,9.709a13.135,13.135,0,0,0,9.349,3.872h23a1.734,1.734,0,0,0,0-3.467h-23a9.691,9.691,0,0,1-6.9-2.857l-9.709-9.709a9.331,9.331,0,0,0-6.641-2.751H18.789V305.5H40.031a5.875,5.875,0,0,1,4.262,1.813l.022.022L59.46,322.479l.017.017a5.923,5.923,0,1,1-8.376,8.376l-.017-.017-9.828-9.827a1.734,1.734,0,0,0-2.452,2.452l9.819,9.819a9.383,9.383,0,0,0,14.285-.992H81.994a6.047,6.047,0,0,1,6.082,5.757,5.925,5.925,0,0,1-5.923,6.093h-6.27a1.734,1.734,0,0,0,0,3.467h6.27a9.392,9.392,0,0,0,9.389-9.655,9.537,9.537,0,0,0-9.548-9.13ZM3.471,332.551V301.786a.116.116,0,0,1,.116-.116H7.663v31H3.587A.116.116,0,0,1,3.471,332.551Zm11.85,0a.116.116,0,0,1-.116.116H11.13v-31h4.076a.116.116,0,0,1,.116.116ZM64.5,324.646h6.161a5.935,5.935,0,0,1,5.666,4.191H64.5a9.377,9.377,0,0,0,.239-2.1,9.475,9.475,0,0,0-.236-2.1Z" transform="translate(-0.004 -229.273)"/>
      <path id="Trazado_203222" data-name="Trazado 203222" d="M219.6,104.909l-4.751-.69-2.125-4.3a4.135,4.135,0,0,0-7.416,0l-2.124,4.3-4.751.69a4.135,4.135,0,0,0-2.292,7.053l3.438,3.351-.812,4.732a4.129,4.129,0,0,0,6,4.359l4.249-2.234,4.249,2.234a4.135,4.135,0,0,0,6-4.359l-.812-4.732,3.438-3.351a4.135,4.135,0,0,0-2.291-7.053Zm-.129,4.57-3.638,3.547a2.933,2.933,0,0,0-.844,2.6l.859,5.008a.668.668,0,0,1-.969.7l-4.5-2.365a2.936,2.936,0,0,0-2.73,0l-4.5,2.364a.668.668,0,0,1-.968-.7l.859-5.008a2.934,2.934,0,0,0-.844-2.6l-3.638-3.547a.668.668,0,0,1,.37-1.139l5.027-.73a2.934,2.934,0,0,0,2.21-1.605l2.249-4.556a.668.668,0,0,1,1.2,0L211.861,106a2.932,2.932,0,0,0,2.209,1.6l5.028.731a.668.668,0,0,1,.37,1.139Z" transform="translate(-149.84 -75.047)"/>
      <path id="Trazado_203223" data-name="Trazado 203223" d="M70.5,104.909l-4.751-.69-2.125-4.3a4.135,4.135,0,0,0-7.416,0l-2.125,4.3-4.751.69a4.135,4.135,0,0,0-2.292,7.053l3.438,3.351-.812,4.732a4.129,4.129,0,0,0,6,4.359l4.249-2.234,4.249,2.234a4.135,4.135,0,0,0,6-4.359l-.812-4.732,3.438-3.351a4.135,4.135,0,0,0-2.291-7.053Zm-.129,4.57-3.638,3.547a2.933,2.933,0,0,0-.844,2.6l.859,5.008a.668.668,0,0,1-.969.7l-4.5-2.365a2.936,2.936,0,0,0-2.73,0l-4.5,2.364a.668.668,0,0,1-.969-.7l.859-5.008a2.933,2.933,0,0,0-.844-2.6l-3.638-3.547a.668.668,0,0,1,.37-1.139l5.027-.73A2.934,2.934,0,0,0,57.068,106l2.248-4.556a.668.668,0,0,1,1.2,0L62.763,106a2.932,2.932,0,0,0,2.209,1.6L70,108.34a.667.667,0,0,1,.369,1.139Z" transform="translate(-35.205 -75.047)"/>
      <path id="Trazado_203224" data-name="Trazado 203224" d="M368.694,104.909l-4.751-.69-2.124-4.3a4.135,4.135,0,0,0-7.416,0l-2.125,4.3-4.751.69a4.135,4.135,0,0,0-2.292,7.053l3.438,3.351-.812,4.732a4.135,4.135,0,0,0,6,4.359l4.249-2.234,4.249,2.234a4.135,4.135,0,0,0,6-4.359l-.812-4.732,3.438-3.351a4.135,4.135,0,0,0-2.291-7.053Zm-.129,4.57-3.638,3.547a2.935,2.935,0,0,0-.844,2.6l.859,5.008a.668.668,0,0,1-.969.7l-4.5-2.365a2.936,2.936,0,0,0-2.73,0l-4.5,2.364a.668.668,0,0,1-.969-.7l.859-5.008a2.933,2.933,0,0,0-.844-2.6l-3.638-3.547a.668.668,0,0,1,.37-1.139l5.027-.73a2.933,2.933,0,0,0,2.21-1.605l2.248-4.556a.668.668,0,0,1,1.2,0L360.958,106a2.932,2.932,0,0,0,2.209,1.605l5.028.731a.668.668,0,0,1,.37,1.139Z" transform="translate(-264.473 -75.047)"/>
      <path id="Trazado_203225" data-name="Trazado 203225" d="M108.959,0H9.4A9.4,9.4,0,0,0,0,9.392V55.344A9.4,9.4,0,0,0,9.4,64.737H53.433a.181.181,0,0,1,.181.181v7.659a3.6,3.6,0,0,0,2.495,3.461,3.731,3.731,0,0,0,1.181.194,3.594,3.594,0,0,0,2.891-1.466l7.467-9.956a.182.182,0,0,1,.145-.073h41.165a9.4,9.4,0,0,0,9.392-9.392V9.392A9.4,9.4,0,0,0,108.959,0Zm5.925,55.344a5.932,5.932,0,0,1-5.925,5.925H67.793a3.666,3.666,0,0,0-2.919,1.459l-7.467,9.956a.181.181,0,0,1-.326-.109V64.918a3.652,3.652,0,0,0-3.648-3.648H9.4a5.932,5.932,0,0,1-5.925-5.925V17.051A5.932,5.932,0,0,1,9.4,11.126h3.613a1.734,1.734,0,0,0,0-3.467H9.4A9.348,9.348,0,0,0,3.471,9.77V9.392A5.932,5.932,0,0,1,9.4,3.467h99.563a5.932,5.932,0,0,1,5.925,5.925V9.77a9.348,9.348,0,0,0-5.925-2.111H21.1a1.734,1.734,0,1,0,0,3.467h87.859a5.932,5.932,0,0,1,5.925,5.925V55.344Z" transform="translate(-0.004 0)"/>
    </g>
  </g>
</svg>
