<svg xmlns="http://www.w3.org/2000/svg" width="89.752" height="86.293" viewBox="0 0 89.752 86.293">
  <g id="estadisticas" transform="translate(0 -9.808)">
    <g id="Grupo_142759" data-name="Grupo 142759" transform="translate(13.468 10.473)">
      <g id="Grupo_142758" data-name="Grupo 142758">
        <path id="Trazado_202635" data-name="Trazado 202635" d="M361.081,302.052v22.27h19.742V289.664a.975.975,0,0,0-1.619-.732A92.22,92.22,0,0,1,361.6,301.192.975.975,0,0,0,361.081,302.052Z" transform="translate(-310.879 -240.176)" fill="#a7eedc"/>
        <path id="Trazado_202636" data-name="Trazado 202636" d="M219.657,387.547v13.627H237.3V382.436a.446.446,0,0,0-.617-.412,92.284,92.284,0,0,1-16.67,5.086A.445.445,0,0,0,219.657,387.547Z" transform="translate(-194.393 -317.028)" fill="#a6e7f0"/>
        <path id="Trazado_202637" data-name="Trazado 202637" d="M83.536,419.136H76.942a.562.562,0,0,0-.562.562v11.633H94.025V419.165a.561.561,0,0,0-.623-.558A92.264,92.264,0,0,1,83.536,419.136Z" transform="translate(-76.38 -347.186)" fill="#fee97d"/>
        <circle id="Elipse_6773" data-name="Elipse 6773" cx="14.31" cy="14.31" r="14.31" transform="translate(17.652 7.188)" fill="#f79595"/>
        <g id="Grupo_142757" data-name="Grupo 142757" transform="translate(10.077)">
          <path id="Trazado_202638" data-name="Trazado 202638" d="M182.913,68.659a14.324,14.324,0,0,1,11.1-13.947,14.311,14.311,0,1,0,0,27.892A14.324,14.324,0,0,1,182.913,68.659Z" transform="translate(-168.911 -47.16)" fill="#f37c7c"/>
          <circle id="Elipse_6774" data-name="Elipse 6774" cx="3.194" cy="3.194" r="3.194" transform="translate(29.425)" fill="#f37c7c"/>
          <circle id="Elipse_6775" data-name="Elipse 6775" cx="3.103" cy="3.103" r="3.103" transform="translate(36.864 29.5)" fill="#f37c7c"/>
          <circle id="Elipse_6776" data-name="Elipse 6776" cx="3.26" cy="3.26" r="3.26" transform="translate(17.761 39.44)" fill="#f37c7c"/>
          <circle id="Elipse_6777" data-name="Elipse 6777" cx="2.96" cy="2.96" r="2.96" transform="translate(0 28.135)" fill="#f37c7c"/>
          <circle id="Elipse_6778" data-name="Elipse 6778" cx="3.128" cy="3.128" r="3.128" transform="translate(1.143 6.539)" fill="#f37c7c"/>
        </g>
        <circle id="Elipse_6779" data-name="Elipse 6779" cx="4.19" cy="4.19" r="4.19" transform="translate(25.979 13.491)" fill="#f9b1b1"/>
      </g>
    </g>
    <g id="Grupo_142760" data-name="Grupo 142760" transform="translate(0 9.808)">
      <path id="Trazado_202639" data-name="Trazado 202639" d="M44.606,212.287H56.234A93.59,93.59,0,0,0,121.365,185.9v.3a1.322,1.322,0,1,0,2.645,0v-3.473a1.317,1.317,0,0,0-1.3-1.353h-4.1a1.322,1.322,0,0,0,0,2.645h.891a90.935,90.935,0,0,1-63.267,25.617H44.555a1.323,1.323,0,0,0-1.312,1.488,1.356,1.356,0,0,0,1.363,1.157Z" transform="translate(-35.61 -151.127)"/>
      <path id="Trazado_202640" data-name="Trazado 202640" d="M88.429,128.229H84.735v-2.382a1.322,1.322,0,1,0-2.645,0v2.382h-17.1v-20.9A93.685,93.685,0,0,0,82.09,95.5v24.709a1.322,1.322,0,1,0,2.645,0V94.734a2.3,2.3,0,0,0-3.819-1.722A91.022,91.022,0,0,1,63.563,105.1a2.294,2.294,0,0,0-1.215,2.025v21.106H57.7v-6.506a1.322,1.322,0,1,0-2.645,0v6.506h-15v-11.75a93.834,93.834,0,0,0,15-4.525v4.133a1.322,1.322,0,1,0,2.645,0v-5.432a1.768,1.768,0,0,0-2.444-1.635,91.17,91.17,0,0,1-16.432,5.013,1.775,1.775,0,0,0-1.415,1.732v12.463H32.435v-11a1.884,1.884,0,0,0-2.087-1.872c-2.112.227-4.276.382-6.43.46a1.323,1.323,0,0,0,.1,2.643c1.932-.07,3.871-.2,5.776-.387v10.159h-15V118.52h3.54a1.322,1.322,0,0,0,0-2.645h-4.3a1.887,1.887,0,0,0-1.885,1.885v10.47h-9.5V119.3h1.4a1.322,1.322,0,0,0,0-2.645h-1.4v-9.228h1.4a1.322,1.322,0,1,0,0-2.645h-1.4V95.554h1.4a1.322,1.322,0,0,0,0-2.645h-1.4V83.682h1.4a1.322,1.322,0,0,0,0-2.645h-1.4V71.809h1.4a1.322,1.322,0,0,0,0-2.645h-1.4V59.936h1.4a1.322,1.322,0,1,0,0-2.645h-1.4V53.348a1.322,1.322,0,0,0-2.645,0v76.2a1.322,1.322,0,0,0,1.322,1.322H88.429a1.322,1.322,0,0,0,0-2.645Z" transform="translate(0 -44.581)"/>
      <path id="Trazado_202641" data-name="Trazado 202641" d="M132.283,45.429a3.854,3.854,0,0,0,3.824-4.32l1.8-.915a15.757,15.757,0,0,0,3.761,4.162l-1.467,2.283a1.322,1.322,0,1,0,2.225,1.43l1.465-2.28a15.506,15.506,0,0,0,5.35,1.694l-.082,2.016a3.852,3.852,0,0,0-2.684,3.518h0a3.866,3.866,0,0,0,3.7,4.015q.08,0,.159,0a3.859,3.859,0,0,0,1.467-7.429l.082-2.017a15.527,15.527,0,0,0,5.471-1.249l1.273,2.389a1.322,1.322,0,1,0,2.334-1.244l-1.275-2.393a15.761,15.761,0,0,0,4.085-3.845l1.727,1.061a3.864,3.864,0,0,0,1.759,4.059h0a3.864,3.864,0,1,0-.376-6.314L165.165,39a15.509,15.509,0,0,0,1.583-5.384l2.705.055h.028a1.322,1.322,0,0,0,.026-2.645l-2.707-.055a15.518,15.518,0,0,0-1.36-5.445L167.8,24.2a1.323,1.323,0,0,0-1.291-2.309l-2.366,1.324a15.759,15.759,0,0,0-3.926-4.006l1.022-1.743a3.81,3.81,0,0,0,.688.064,3.876,3.876,0,0,0,.981-.127,3.868,3.868,0,1,0-3.949-1.278l-1.021,1.742a15.514,15.514,0,0,0-5.416-1.472V13.689a1.322,1.322,0,0,0-2.645,0V16.4a15.516,15.516,0,0,0-4.746,1.17l-.678-1.371a1.323,1.323,0,0,0-2.371,1.172l.708,1.433a15.756,15.756,0,0,0-3.7,3.3l-1.725-1.159a3.862,3.862,0,0,0-1.624-4.008h0a3.86,3.86,0,1,0,.22,6.251l1.634,1.1a15.52,15.52,0,0,0-1.86,5.417l-2.7-.165a1.322,1.322,0,0,0-.162,2.64l2.7.165a15.535,15.535,0,0,0,1.138,5.5l-1.8.912a3.861,3.861,0,1,0-2.63,6.68ZM169,41.894a1.216,1.216,0,1,1-.753.546A1.209,1.209,0,0,1,169,41.894Zm-8.114-28.841a1.216,1.216,0,1,1-.128.922A1.216,1.216,0,0,1,160.887,13.053Zm-27.977,8.1a1.216,1.216,0,0,1,1.356-2.019h0a1.216,1.216,0,0,1-1.356,2.019Zm17.379,33.238a1.216,1.216,0,0,1-.775-2.109,1.216,1.216,0,0,1,2.039.944A1.219,1.219,0,0,1,150.289,54.388Zm.913-35.4a12.987,12.987,0,1,1-12.987,12.987A13,13,0,0,1,151.2,18.984Zm-19.475,21.5a1.216,1.216,0,1,1-.535,1.635A1.217,1.217,0,0,1,131.727,40.484Z" transform="translate(-105.772 -9.808)"/>
      <path id="Trazado_202642" data-name="Trazado 202642" d="M221.721,93.616a5.512,5.512,0,1,0-5.512-5.512A5.518,5.518,0,0,0,221.721,93.616Zm0-8.379a2.867,2.867,0,1,1-2.867,2.867A2.87,2.87,0,0,1,221.721,85.237Z" transform="translate(-178.084 -69.758)"/>
      <path id="Trazado_202643" data-name="Trazado 202643" d="M236.5,168.026h-1.025a1.322,1.322,0,0,0,0,2.645H236.5a1.322,1.322,0,1,0,0-2.645Z" transform="translate(-192.868 -140.127)"/>
      <path id="Trazado_202644" data-name="Trazado 202644" d="M285.621,140.059h.878a1.322,1.322,0,1,0,0-2.645h-.878a1.322,1.322,0,0,0,0,2.645Z" transform="translate(-234.168 -114.913)"/>
    </g>
  </g>
</svg>
