<svg xmlns="http://www.w3.org/2000/svg" width="315.839" height="202" viewBox="0 0 315.839 202">
  <g id="Grupo_145497" data-name="Grupo 145497" transform="translate(-184.864 -145)">
    <path id="Trazado_210519" data-name="Trazado 210519" d="M240.171,346.637s-38.331-37.2-13.945-80.977,57.139-21.759,55.554-72.706S357.1,137.63,381.585,152.4s24.334,32.564,74.872,26.678,60.193,43.185,47.045,68.194c-18.655,35.484,51.775,29.632,7.4,99.363Z" transform="translate(-29.192 0)" fill="#fff4f0"/>
    <g id="Grupo_145497-2" data-name="Grupo 145497" transform="translate(378.544 213.436)">
      <path id="Trazado_210520" data-name="Trazado 210520" d="M1779.87,804.736s8.145-34.521,35.621-38.316a6.774,6.774,0,0,1,7.126,5.23c1.78,5.887-8.849,5.929-15.419,8.3S1785.311,792.352,1779.87,804.736Z" transform="translate(-1779.105 -759.081)" fill="#afe684" opacity="0.3"/>
      <path id="Trazado_210521" data-name="Trazado 210521" d="M1773.738,745.574s-2.857-28.594,17.194-38.743a5.488,5.488,0,0,1,6.838,2.129c2.915,4.041-5.217,6.874-9.627,10.42S1774.643,734.652,1773.738,745.574Z" transform="translate(-1773.598 -706.379)" fill="#afe684" opacity="0.3"/>
    </g>
    <rect id="Rectángulo_43317" data-name="Rectángulo 43317" width="315.839" height="0.867" rx="0.434" transform="translate(184.864 346.133)" fill="#2e3552"/>
    <path id="Trazado_210522" data-name="Trazado 210522" d="M553.367,1353.5c-4.242-9.666,11.145-17.971,11.145-17.971s20.276,6.563,23.187,4.763-16.24-9-16.24-9c4.725-4.623,22.844-8.86,22.844-8.86s12.222,16.866,14.6,14.4-11.584-14.382-11.584-14.382c6.157-2.507,15.446-.449,15.446-.449,13.375,4.762,6.569,21.691,6.569,21.691a33.862,33.862,0,0,0,13.026,9.4h0a24.572,24.572,0,0,1,4.168,1.941l-1.352,1.089q-.6-.411-1.212-.754a.01.01,0,0,0-.008,0l-.018-.01c-.261-.134-.633-.324-1.091-.553h0c-1.064-.476-1.824-.848-2.348-1.138l0,0c-3.282-1.541-7.729-3.412-9.477-3.148a3.369,3.369,0,0,0-.21-.853l.21.853c1.68,6.823-9.226,16.97-16.738,20.84s-6.167-.212-5.072-5.959,8.995-10.828,10.212-13.716-2.856-1.515-6.888,2.277-2.719,9.821-9.129,16.075-22.219-2.545-22.219-2.545c5.992-2.373,12.458-11.942,11.457-13.862s-13.6,8.5-15.98,9.6S557.609,1363.162,553.367,1353.5Z" transform="translate(-322.93 -1032.822)" fill="#d4e99f"/>
    <path id="Trazado_210523" data-name="Trazado 210523" d="M1624.37,1373.508c6.188-7.3-5.034-18.5-5.034-18.5s-19.319.455-21.383-1.863,16.442-3.614,16.442-3.614c-2.91-5.241-17.559-13.613-17.559-13.613s-14.987,11.493-16.417,8.739,13.789-9.5,13.789-9.5c-4.7-3.772-13.307-4.388-13.307-4.388-12.856.676-11.324,17.15-11.324,17.15a30.7,30.7,0,0,1-13.754,4.8h0a22.259,22.259,0,0,0-4.125.608l.893,1.3c.421-.134.837-.248,1.249-.341a.009.009,0,0,1,.007,0l.018,0c.261-.049.634-.118,1.091-.2h0c1.048-.138,1.805-.265,2.335-.381l0,0c3.251-.49,7.6-.965,9.051-.283a3.054,3.054,0,0,1,.4-.687l-.4.687c-3.226,5.495,3.625,17.135,9.151,22.443s5.414,1.412,5.95-3.866-5.014-11.738-5.324-14.563,2.874-.578,5.4,3.762-.179,9.239,3.773,16.332,19.968,3.539,19.968,3.539c-4.593-3.614-7.735-13.6-6.368-15.011s9.616,10.9,11.4,12.479S1618.182,1380.81,1624.37,1373.508Z" transform="translate(-1200.207 -1041.213)" fill="#afe684"/>
    <path id="Trazado_210524" data-name="Trazado 210524" d="M858.852,483.585c6.378-10.7,24.908-1.613,24.908-1.613s7.6,23.981,11.321,25.544-2.491-21.771-2.491-21.771c7.682,1.37,24.175,15.874,24.175,15.874s-7.825,23.307-3.83,23.9,5.876-20.99,5.876-20.99c6.63,4.2,11.022,14.533,11.022,14.533,4.595,16.116-16.337,21.184-16.337,21.184a39.969,39.969,0,0,0-.105,18.963h0a29,29,0,0,1,.993,5.336L912.411,564c-.013-.574-.048-1.135-.107-1.682a.012.012,0,0,0,0-.01l0-.023c-.05-.343-.123-.831-.217-1.427v0s0,0,0,0c-.272-1.349-.436-2.335-.517-3.036a.022.022,0,0,1,0-.006c-.769-4.21-2.02-9.766-3.473-11.264a3.965,3.965,0,0,0,.676-.787l-.676.787c-5.4,6.293-22.63,2.771-31.5-1.793s-4.025-6.07,2.248-8.959,16.57,1.218,20.179.407-.5-3.783-6.91-5.056-11.3,4.121-21.7,2.25S857.618,510.3,857.618,510.3c6.389,4.13,20.016,3.782,21.173,1.5s-17.487-7.237-20.18-8.771S852.473,494.287,858.852,483.585Z" transform="translate(-588.643 -292.73)" fill="#afe684" opacity="0.5"/>
    <g id="Grupo_145499" data-name="Grupo 145499" transform="translate(341.427 175.085)">
      <g id="Grupo_145498" data-name="Grupo 145498">
        <path id="Trazado_210525" data-name="Trazado 210525" d="M1469.132,427.147a4.895,4.895,0,0,1,.37-1.918,4.483,4.483,0,0,1,1.047-1.525,4.806,4.806,0,0,1,1.626-1.006,5.993,5.993,0,0,1,2.142-.361,6.128,6.128,0,0,1,2.158.361,4.778,4.778,0,0,1,1.643,1.006,4.488,4.488,0,0,1,1.047,1.525,4.9,4.9,0,0,1,.37,1.918,4.783,4.783,0,0,1-.37,1.9,4.518,4.518,0,0,1-1.047,1.509,4.765,4.765,0,0,1-1.643,1.006,6.13,6.13,0,0,1-2.158.361,6,6,0,0,1-2.142-.361,4.793,4.793,0,0,1-1.626-1.006,4.513,4.513,0,0,1-1.047-1.509A4.779,4.779,0,0,1,1469.132,427.147Zm9.05-8.946h-7.73l-1.1-26.412h9.92Z" transform="translate(-1469.132 -391.789)" fill="#ff725e"/>
      </g>
    </g>
    <g id="Grupo_145501" data-name="Grupo 145501" transform="translate(318.087 157.487)">
      <g id="Grupo_145500" data-name="Grupo 145500" transform="translate(0 0)">
        <path id="Trazado_210526" data-name="Trazado 210526" d="M1277.678,274.568a3.752,3.752,0,0,1,.284-1.472,3.439,3.439,0,0,1,.8-1.17,3.688,3.688,0,0,1,1.248-.772,4.6,4.6,0,0,1,1.644-.277,4.7,4.7,0,0,1,1.656.277,3.668,3.668,0,0,1,1.261.772,3.446,3.446,0,0,1,.8,1.17,3.761,3.761,0,0,1,.284,1.472,3.671,3.671,0,0,1-.284,1.46,3.468,3.468,0,0,1-.8,1.158,3.657,3.657,0,0,1-1.261.772,4.706,4.706,0,0,1-1.656.277,4.6,4.6,0,0,1-1.644-.277,3.677,3.677,0,0,1-1.248-.772,3.461,3.461,0,0,1-.8-1.158A3.663,3.663,0,0,1,1277.678,274.568Zm6.946-6.866h-5.933l-.84-20.271h7.614Z" transform="translate(-1277.678 -247.431)" fill="#fbdb5e"/>
      </g>
    </g>
    <g id="Grupo_145503" data-name="Grupo 145503" transform="translate(433.336 191.738)">
      <g id="Grupo_145502" data-name="Grupo 145502" transform="translate(0 0)">
        <path id="Trazado_210527" data-name="Trazado 210527" d="M2223.052,555.527a3.75,3.75,0,0,1,.284-1.472,3.438,3.438,0,0,1,.8-1.17,3.688,3.688,0,0,1,1.248-.772,4.6,4.6,0,0,1,1.644-.277,4.707,4.707,0,0,1,1.656.277,3.672,3.672,0,0,1,1.261.772,3.448,3.448,0,0,1,.8,1.17,3.763,3.763,0,0,1,.284,1.472,3.673,3.673,0,0,1-.284,1.46,3.47,3.47,0,0,1-.8,1.158,3.657,3.657,0,0,1-1.261.772,4.7,4.7,0,0,1-1.656.278,4.6,4.6,0,0,1-1.644-.278,3.673,3.673,0,0,1-1.248-.772,3.459,3.459,0,0,1-.8-1.158A3.661,3.661,0,0,1,2223.052,555.527Zm6.946-6.866h-5.933l-.841-20.271h7.614Z" transform="translate(-2223.052 -528.39)" fill="#fbdb5e"/>
      </g>
    </g>
    <g id="Grupo_145505" data-name="Grupo 145505" transform="translate(400.398 243.273)">
      <g id="Grupo_145504" data-name="Grupo 145504" transform="translate(0 0)">
        <path id="Trazado_210528" data-name="Trazado 210528" d="M1972.759,1097.538a40.015,40.015,0,0,1-4.368,6.513h0a13.115,13.115,0,0,1-4.788,3.993l-.011,0c-.075.026-.148.05-.222.07a.018.018,0,0,1-.011,0h0a2.61,2.61,0,0,1-.832.107c-4.7-.211-9.655-10.294-9.655-10.294a3.585,3.585,0,0,1,1.043-2.04,4.227,4.227,0,0,1,1.411-.929s5.062,5.2,6.3,5.573c.778.234,1.8-3.4,3.266-7.955s6.615-5.684,6.615-5.684S1976.716,1090.2,1972.759,1097.538Z" transform="translate(-1952.871 -1070.349)" fill="#455a64"/>
        <path id="Trazado_210529" data-name="Trazado 210529" d="M2043.927,1201.967h0a13.115,13.115,0,0,1-4.788,3.994l-.011,0-.222.07-.012,0h0a3.639,3.639,0,0,0,1.825-2.3c.246-1.508-1.349-2.741,2.66-5.074C2045.716,1197.3,2043.927,1201.967,2043.927,1201.967Z" transform="translate(-2028.407 -1168.265)" fill="#2f3f47"/>
        <path id="Trazado_210530" data-name="Trazado 210530" d="M2050.075,1751.3h11.017c.79-.535-.213-5.769-.213-5.769s-3.007-1.141-3.526,1.179-3.83,3.056-5.581,3.338A1.885,1.885,0,0,0,2050.075,1751.3Z" transform="translate(-2038.225 -1648.44)" fill="#24406d"/>
        <path id="Trazado_210531" data-name="Trazado 210531" d="M2088.226,1322.684s-.347,6.427-.782,13.874c-.313,5.34-.669,11.2-.974,15.6-.041.583-.081,1.14-.119,1.667-.011.163-.023.325-.036.487a97.938,97.938,0,0,1-3.426,18.478c-3.1.653-4.5-.541-4.5-.541s-2.134-25.013-2.925-35.1c-.582-7.426-1.077-18.238-1.077-18.238Z" transform="translate(-2059.576 -1274.07)" fill="#263238"/>
        <path id="Trazado_210532" data-name="Trazado 210532" d="M2130.071,1407.541c-.313,5.34-.669,11.2-.975,15.6-2.025-4.777-6.162-23.394-6.162-23.394Z" transform="translate(-2102.202 -1345.053)" fill="#161e21"/>
        <path id="Trazado_210533" data-name="Trazado 210533" d="M2184.1,1751.3h11.017c.789-.535-.213-5.769-.213-5.769s-3.007-1.141-3.526,1.179-3.83,3.056-5.581,3.338A1.885,1.885,0,0,0,2184.1,1751.3Z" transform="translate(-2155.915 -1648.44)" fill="#24406d"/>
        <path id="Trazado_210534" data-name="Trazado 210534" d="M2098.939,1312.15s7.867,19.583,10.382,27.007c1.792,5.288,6.844,23.837,6.844,23.837a5.077,5.077,0,0,0,4.043-.624s1.88-18.952-1.917-24.3c-2.015-2.835-.5-29.471-8.668-29.7S2098.939,1312.15,2098.939,1312.15Z" transform="translate(-2081.132 -1264.815)" fill="#263238"/>
        <path id="Trazado_210535" data-name="Trazado 210535" d="M2085.087,1103.937c-.033,2.785-.064,4.829-.057,5.346.022,1.685-1.055,2.065-2.166,2.322,0,0-1.026.221-2.321.441a25.536,25.536,0,0,1-3.877.415,34.97,34.97,0,0,1-10.147-1.67c-1.039,0-1.513-1.607-1.684-3.852-.115-1.519.354-16.671.413-20.455a9.874,9.874,0,0,1,1.946-5.588c3.857-3.411,15.24-2.981,17.289-.628.506.582.654,6.191.671,12.336C2085.166,1096.559,2085.125,1100.736,2085.087,1103.937Z" transform="translate(-2051.171 -1062.901)" fill="#455a64"/>
        <path id="Trazado_210536" data-name="Trazado 210536" d="M2130.418,1044.722c-1.453,1.575-6.334,1.341-6.189-.033.02-.169.052-1.176.067-1.332.012-.125.025-.248.034-.363.033-.339.06-.638.082-.9.065-.754.086-1.162.086-1.162h0c.14-.039,3.279-.93,4.839-1.3a2.521,2.521,0,0,1,.865-.144C2129.73,1043,2130.895,1044.206,2130.418,1044.722Z" transform="translate(-2103.337 -1028.706)" fill="#ffb27d"/>
        <path id="Trazado_210537" data-name="Trazado 210537" d="M2130.857,1041.809s-1.311,1.332-5.1,1.427c.065-.754.086-1.162.086-1.162h0c.14-.039,3.278-.93,4.839-1.3C2130.967,1040.887,2130.6,1041.62,2130.857,1041.809Z" transform="translate(-2104.685 -1029.845)" fill="#ed975d"/>
        <path id="Trazado_210538" data-name="Trazado 210538" d="M2113.945,980.984a11.846,11.846,0,0,0,2.18.508c1.786.241,4.135.1,4.874-2.063,1.243-3.638,2.831-5.82-.827-7.306-1.958-.8-3.211-.838-4.062-.534a2.943,2.943,0,0,0-1.505,1.3C2113.894,974.006,2112.465,980.347,2113.945,980.984Z" transform="translate(-2093.741 -968.942)" fill="#ffb27d"/>
        <path id="Trazado_210539" data-name="Trazado 210539" d="M2120.678,952.259a1.726,1.726,0,0,0,.66,3.14,12.7,12.7,0,0,1,2.145.394c.909.4,1.691.833,1.477,2.244-.073.48-.307,1.065.928.774a.6.6,0,0,1,.449.027c.513.3-.142,1.778-.34,2.1,0,0-.284,1.056.346,1.57.076.061,1.316.6,4.3-3.967a4.244,4.244,0,0,0,.192-3.89c-.724-1.556-2.744-3.524-6.548-3.524A7.256,7.256,0,0,0,2120.678,952.259Z" transform="translate(-2099.539 -951.124)" fill="#233862"/>
        <path id="Trazado_210540" data-name="Trazado 210540" d="M2204.338,1194.758c-.556,2.583-.415,2.611-1.267,1.933-3.475-2.762-2.459-4.208-1.687-6.6s-1.937-6.136,0-7.731c1.9-1.56,2.975.955,3.021,1.066C2204.417,1187.38,2204.376,1191.557,2204.338,1194.758Z" transform="translate(-2170.421 -1153.722)" fill="#2f3f47"/>
        <path id="Trazado_210541" data-name="Trazado 210541" d="M2184.633,1285.014s-1.309,2.141-2.168,2.066-2.017-.4-2.686.242-1.747,2.285-1.446,2.724,1.513.05,2.383-.431,2.241.237,2.972-.309a25.478,25.478,0,0,0,2.479-2.711Z" transform="translate(-2150.802 -1244.31)" fill="#ffb27d"/>
        <path id="Trazado_210542" data-name="Trazado 210542" d="M2209.2,1093.576s10.868,10.227,9.457,17.03c-.643,3.1-2.638,5.715-7.957,9.949,0,0-2.516-1.739-3.068-3.15,0,0,4.827-6.8,4.64-7.957-.228-1.417-3.524-4.97-4.706-5.523S2206.5,1094.763,2209.2,1093.576Z" transform="translate(-2175.892 -1076.21)" fill="#455a64"/>
        <path id="Trazado_210543" data-name="Trazado 210543" d="M2199.761,1296.314s-1.146-.5-1.513-.716-.287.133-.174.307a1.27,1.27,0,0,0,.869.6A1.435,1.435,0,0,0,2199.761,1296.314Z" transform="translate(-2168.098 -1253.545)" fill="#ffb27d"/>
      </g>
    </g>
    <g id="Grupo_145507" data-name="Grupo 145507" transform="translate(228.034 240.404)">
      <path id="Trazado_210544" data-name="Trazado 210544" d="M607.31,951.006c-.393-.758,8.573-3.487,8.715,3.992,0,0,16.795-.413,8.776-9.774-2.776-3.241-2.491-5.92-2.407-8.414s-1.729-9.744-7.946-9.014a4.63,4.63,0,0,0-3.66.392C606.167,930.584,595.817,953.764,607.31,951.006Z" transform="translate(-594.385 -927.59)" fill="#163560"/>
      <path id="Trazado_210545" data-name="Trazado 210545" d="M870.234,1161.741s1.093-1.664,1.974-1.7,2.513-.49,2.382-.163-1.142.359-1.24.555,1.5.49,1.958.522,1.534,0,1.5.228a5.185,5.185,0,0,1-3.287,1.044,9.128,9.128,0,0,0-3.011.391Z" transform="translate(-829.852 -1131.46)" fill="#ffb27d"/>
      <path id="Trazado_210546" data-name="Trazado 210546" d="M740.543,1084.674a16.394,16.394,0,0,0,1.672,2.529c1.3,1.627,3.3,3.507,5.817,3.878a6.244,6.244,0,0,0,3.456-.561h0a15.758,15.758,0,0,0,5.351-4.474,2.511,2.511,0,0,0-.343-2.464s-6.168,1.387-6.755,1.093-4.2-8.305-4.849-9.64a7.315,7.315,0,0,0-3.577-3.65Z" transform="translate(-715.971 -1053.855)" fill="#ff725e"/>
      <path id="Trazado_210547" data-name="Trazado 210547" d="M752.861,1177.6c1.3,1.627,3.3,3.506,5.817,3.878a6.244,6.244,0,0,0,3.456-.561c-.119.016-3.17.392-4.386-1.783-1.24-2.219-2.582-5.744-4.424-4.569C752.529,1175.069,752.565,1176.329,752.861,1177.6Z" transform="translate(-726.617 -1144.249)" fill="#e16a59"/>
      <path id="Trazado_210548" data-name="Trazado 210548" d="M540.544,1720.645s-1.882,1.717-1.515,2.938,2.066,2.034,2.3,3.525,1.148,2.305,1.974,2.305h3.939s.608-1.05-.861-1.366-2.023-2.069-1.931-3.7a28.67,28.67,0,0,0-.138-3.8l-3.121-.723Z" transform="translate(-538.981 -1623.25)" fill="#1d3356"/>
      <path id="Trazado_210549" data-name="Trazado 210549" d="M680.576,1732.485s-.677,7.276.149,7.683l10.574-.022s0-1.22-1.7-1.492-4.682-1.265-5.187-3.48S680.576,1732.485,680.576,1732.485Z" transform="translate(-663.085 -1634.362)" fill="#1d3356"/>
      <path id="Trazado_210550" data-name="Trazado 210550" d="M615.231,1073.478a42.071,42.071,0,0,0,0,4.887c.1,1.767,1.892,4.134,2.146,4.719.636,1.469,1.354,1.707,1.354,1.707l5.552,1.361,1.952.478,6.156-1.839s2.8-7.826,1.678-12.231a33.862,33.862,0,0,0-2.846-7.465s-4.173-1.647-11.564-.417Z" transform="translate(-605.874 -1047.566)" fill="#ff725e"/>
      <path id="Trazado_210551" data-name="Trazado 210551" d="M629.066,1173.271a17.282,17.282,0,0,0,.521,4c.636,1.468,1.354,1.707,1.354,1.707l5.552,1.361,2.411-.709s-8.049-1.22-7.157-8.145Z" transform="translate(-618.084 -1141.75)" fill="#f2ccaa"/>
      <path id="Trazado_210552" data-name="Trazado 210552" d="M679.713,1242.691s3.048,9.489,3.244,12.719-5.827,45.894-6.07,47.382c-.228,1.4-1.971,2.3-1.971,2.3a2.636,2.636,0,0,1-1.945.15,4.81,4.81,0,0,1-2.088-.985s-2.373-30.427-.9-41.3a172.169,172.169,0,0,0,1.486-20.269Z" transform="translate(-653.589 -1204.278)" fill="#161e21"/>
      <path id="Trazado_210553" data-name="Trazado 210553" d="M568.071,1240.371s-4.65,6.239-5.084,10.457-.68,19.033-1.6,23.145-4.317,12.024-4.317,24.849a2.558,2.558,0,0,0,1.442,1.126,11.866,11.866,0,0,0,1.268.351,1.993,1.993,0,0,0,2.229-1.058c2.294-4.619,9.6-19.517,9.977-22.609.265-2.188,2.573-16.672,7.606-25.172,1.208-2.04-.741-10.155-.741-10.155Z" transform="translate(-554.862 -1202.24)" fill="#263238"/>
      <path id="Trazado_210554" data-name="Trazado 210554" d="M655.99,1230.676a6.391,6.391,0,0,1-3.655,1.017c-2.9.058-10.1-.74-10.1-.74a5.946,5.946,0,0,0-.307,1.836s8.788,2.217,13.88.324A3.218,3.218,0,0,0,655.99,1230.676Z" transform="translate(-629.378 -1193.727)" fill="#233862"/>
      <g id="Grupo_145506" data-name="Grupo 145506" transform="translate(22.328 37.469)">
        <path id="Trazado_210555" data-name="Trazado 210555" d="M722.139,1236.442a1.335,1.335,0,1,1,1.325,1.5A1.422,1.422,0,0,1,722.139,1236.442Zm.439,0a.9.9,0,1,0,.886-1.06A.986.986,0,0,0,722.578,1236.442Z" transform="translate(-722.139 -1234.942)" fill="#fff"/>
      </g>
      <path id="Trazado_210556" data-name="Trazado 210556" d="M571.437,1160.459l7.136,6.214a1.238,1.238,0,0,0,1.747-.12l9.106-10.458a1.238,1.238,0,0,0-.121-1.747l-7.137-6.214a1.238,1.238,0,0,0-1.747.121l-9.106,10.458A1.238,1.238,0,0,0,571.437,1160.459Z" transform="translate(-567.107 -1120.98)" fill="#f78248"/>
      <path id="Trazado_210557" data-name="Trazado 210557" d="M656.6,1244.992c.1.027,3.791.461,3.791,1.223a2.294,2.294,0,0,1-2.1,2.007,12.116,12.116,0,0,1-2.316-1.773Z" transform="translate(-641.711 -1206.298)" fill="#ffb27d"/>
      <path id="Trazado_210558" data-name="Trazado 210558" d="M675.851,1032.328a12.276,12.276,0,0,0,.658-4.488l.279.055,4.686.928s-.107,1.475-.11,2.864c0,.012,0,.023,0,.035-.006,1.207.815,2.417-1.12,2.9C679.646,1034.766,674.97,1034.466,675.851,1032.328Z" transform="translate(-659.069 -1015.619)" fill="#ffb27d"/>
      <path id="Trazado_210559" data-name="Trazado 210559" d="M689.016,1029.218s-.107,1.475-.11,2.864c-2.622-.074-4.009-2.466-4.577-3.792Z" transform="translate(-666.61 -1016.014)" fill="#e8945b"/>
      <path id="Trazado_210560" data-name="Trazado 210560" d="M684.73,971.28s-6.2.1-6.209-3.763-.808-6.455,3.154-6.684,4.733,1.245,5.048,2.535S686.344,971.154,684.73,971.28Z" transform="translate(-661.449 -956.76)" fill="#ffb27d"/>
      <path id="Trazado_210561" data-name="Trazado 210561" d="M670.13,954.569s-1.7,4.534-4.306,5.2-3.738-.028-3.738-.028a7.383,7.383,0,0,0,2.415-4.362S668.849,952.411,670.13,954.569Z" transform="translate(-647.079 -950.591)" fill="#163560"/>
      <path id="Trazado_210562" data-name="Trazado 210562" d="M724.618,957.922a3.848,3.848,0,0,1,1.778,1.39,6.247,6.247,0,0,1,.839,3.548s1.28-3.082-.158-4.826C725.551,956.186,724.618,957.922,724.618,957.922Z" transform="translate(-701.987 -953.575)" fill="#163560"/>
      <path id="Trazado_210563" data-name="Trazado 210563" d="M661.1,1243.433a4.22,4.22,0,0,1,1.475-.2c.591.083,1.028-.012,1.028.154s-.763.243-.925.322A8.025,8.025,0,0,1,661.1,1243.433Z" transform="translate(-646.217 -1204.739)" fill="#ffb27d"/>
      <path id="Trazado_210564" data-name="Trazado 210564" d="M572.936,1067.964a7.512,7.512,0,0,0-6.093,4.413c-1.688,4.1-4.892,11-4.892,12.155s1.789,4.733,11.4,6.788c0,0,.994-1.046.934-1.873,0,0-6-5.153-5.983-5.755.03-1.139.983-2.643,6.25-7.911C575.984,1074.348,572.936,1067.964,572.936,1067.964Z" transform="translate(-559.151 -1050.851)" fill="#ff725e"/>
    </g>
    <g id="Grupo_145510" data-name="Grupo 145510" transform="translate(279.317 222.543)">
      <g id="Grupo_145509" data-name="Grupo 145509" transform="translate(0 0)">
        <path id="Trazado_210565" data-name="Trazado 210565" d="M1045.247,781.076h-47.6a4.341,4.341,0,0,0-3.069,1.271L960.924,816a4.34,4.34,0,0,0-1.271,3.069v47.6a4.34,4.34,0,0,0,1.271,3.069l33.656,33.656a4.34,4.34,0,0,0,3.069,1.271h47.6a4.34,4.34,0,0,0,3.069-1.271l33.656-33.656a4.34,4.34,0,0,0,1.271-3.069v-47.6a4.34,4.34,0,0,0-1.271-3.069l-33.656-33.656A4.341,4.341,0,0,0,1045.247,781.076Z" transform="translate(-959.653 -781.076)" fill="#ff725e"/>
        <g id="Grupo_145508" data-name="Grupo 145508" transform="translate(6.187 6.187)">
          <path id="Trazado_210566" data-name="Trazado 210566" d="M1086.461,943.041h-40.9a6.2,6.2,0,0,1-4.411-1.827l-28.921-28.921a6.2,6.2,0,0,1-1.827-4.41v-40.9a6.2,6.2,0,0,1,1.827-4.41l28.921-28.92a6.2,6.2,0,0,1,4.411-1.827h40.9a6.2,6.2,0,0,1,4.411,1.827l28.921,28.921a6.2,6.2,0,0,1,1.827,4.41v40.9a6.2,6.2,0,0,1-1.827,4.41l-28.921,28.921A6.2,6.2,0,0,1,1086.461,943.041Zm-40.9-106.975a1.982,1.982,0,0,0-1.412.585l-28.921,28.921a1.982,1.982,0,0,0-.585,1.411v40.9a1.983,1.983,0,0,0,.585,1.411l28.921,28.921a1.983,1.983,0,0,0,1.411.584h40.9a1.984,1.984,0,0,0,1.412-.584l28.921-28.921a1.984,1.984,0,0,0,.585-1.411v-40.9a1.983,1.983,0,0,0-.585-1.411l-28.921-28.921a1.982,1.982,0,0,0-1.412-.585Z" transform="translate(-1010.403 -831.825)" fill="#ffe5d4"/>
        </g>
        <path id="Trazado_210567" data-name="Trazado 210567" d="M1342.913,1017.937l-.833-.721a5.049,5.049,0,0,0-7.1.511l-4.707,5.436a1.11,1.11,0,0,1-1.948-.726h0a12.01,12.01,0,0,0-.068-1.276v-34.22a4.1,4.1,0,0,0-4.086-4.086h-.3a4.1,4.1,0,0,0-4.086,4.086v22.272a.979.979,0,0,1-.979.978h0a1.08,1.08,0,0,1-1.08-1.081V982.624a3.961,3.961,0,0,0-3.95-3.95h-.575a3.961,3.961,0,0,0-3.95,3.95v26.66a.906.906,0,0,1-.906.906h0a1.153,1.153,0,0,1-1.153-1.153V987.783a4.1,4.1,0,0,0-4.086-4.086h-.3a4.1,4.1,0,0,0-4.086,4.086v21.425a.981.981,0,0,1-.981.98h0a1.078,1.078,0,0,1-1.078-1.078V992.348a4.1,4.1,0,0,0-4.086-4.086h-.3a4.1,4.1,0,0,0-4.086,4.086v29.432c0,.082,0,.163.008.243,0,.137-.008.274-.008.412v16.2a12.007,12.007,0,0,0,11.971,11.971h16.2a11.988,11.988,0,0,0,10.068-5.515,25.319,25.319,0,0,1,2.122-2.865l14.882-17.188A5.049,5.049,0,0,0,1342.913,1017.937Z" transform="translate(-1248.131 -954.585)" fill="#ffe5d4"/>
      </g>
    </g>
  </g>
</svg>
