<svg xmlns="http://www.w3.org/2000/svg" width="274.9" height="184.944" viewBox="0 0 274.9 184.944">
  <g id="Grupo_140315" data-name="Grupo 140315" transform="translate(-375.871 -204.218)">
    <g id="Grupo_140299" data-name="Grupo 140299" transform="translate(516.371 213.998)" opacity="0.8">
      <path id="Trazado_201352" data-name="Trazado 201352" d="M1568.48,640.1a40.932,40.932,0,0,1-3.119,6.656,40.659,40.659,0,0,1-75.643-17.779,39.927,39.927,0,0,1,.051-6.2,40.941,40.941,0,0,1,6.13-18.264c.016-.028.035-.054.052-.083a40.755,40.755,0,0,1,23.172-17.305c.992-.284,2-.531,3.013-.738a40.426,40.426,0,0,1,22.031,1.625q1.458.53,2.847,1.158a40.374,40.374,0,0,1,16.476,13.6h0a40.8,40.8,0,0,1,6.5,14.751q.374,1.705.6,3.445a40.462,40.462,0,0,1-2.116,19.132Z" transform="translate(-1489.621 -585.559)" fill="#ff725e"/>
      <g id="Grupo_140298" data-name="Grupo 140298" transform="translate(6.278 0.832)">
        <path id="Trazado_201353" data-name="Trazado 201353" d="M1562.228,609.527c-2.4,1.86-1.765,6.838-5.923,4.032s-6.768-4.331-7.945-1.883,2.506,3.789,1.536,6.457-2.943,2.95-5.022.759-2.141-4.3-5.51-4.229-4.807-1.316-4.643-3.845a3.56,3.56,0,0,0-.111-1.173c.017-.029.035-.054.052-.083a40.758,40.758,0,0,1,23.172-17.305c.992-.284,2-.531,3.013-.738a5.346,5.346,0,0,1,3.1,3.389c1.467,4.274,3.845,3.268,1.825,6.849s-1.189,4.458,1.016,5.116,4.747,1.581,4.4,3.326S1564.63,607.667,1562.228,609.527Z" transform="translate(-1534.61 -591.518)" fill="#c06356"/>
        <path id="Trazado_201354" data-name="Trazado 201354" d="M1878.083,838.317a40.936,40.936,0,0,1-3.119,6.657,40.421,40.421,0,0,1-11.357,12.464,4.639,4.639,0,0,1-3.025-1.192c-4.071-3.637,1.324-7.5,4.165-9.38s-2.434-2.5-5.094-6.167,3.567-8.627-.434-8.895-8.869-.527-9.684-4.815,3.395-3.4,2.658-7.016,2.745-4.288,6.47-3.257,4.183-1.715,8.8-.469,2.443,6.929,7.536,8.348,4.455,2.482,4.455,2.482a2.453,2.453,0,0,1,.955.593A40.722,40.722,0,0,1,1878.083,838.317Z" transform="translate(-1805.502 -784.604)" fill="#b84433"/>
        <path id="Trazado_201355" data-name="Trazado 201355" d="M1941.471,720.915c-4.848.507-4.521-5.546-8.638-5.187-4.15.362-2.374-2.589-4.429-5.638s-8.985-1.4-7.577-4.48,5.277-.671,7.09-2.887,5.647-.1,5.647-.1a2.926,2.926,0,0,1,.8.1s0,0,0,0a40.8,40.8,0,0,1,6.5,14.751Q1941.241,719.176,1941.471,720.915Z" transform="translate(-1866.774 -686.334)" fill="#c06356"/>
        <path id="Trazado_201356" data-name="Trazado 201356" d="M1791.817,626.573s3.292-2.331.2-4.5-3.47-.94-6.034-2.194-4.363.43-3.182,3.412,1.228,7.9,3.877,6.25S1789.608,626.021,1791.817,626.573Z" transform="translate(-1747.847 -615.564)" fill="#c06356"/>
      </g>
    </g>
    <path id="Trazado_201357" data-name="Trazado 201357" d="M483.426,1740.108H497.6c.76-.644-.526-2.108-1.869-2.206a8.28,8.28,0,0,0-2.164.256c-.2-2.591-1.309-14.239-5.508-13.771-4.721.524,0,5.13,1.335,7.856a64.815,64.815,0,0,1,2.508,6.283c-.383.083-.78.164-1.185.239-.626-1.922-2.954-8.384-5.915-8.008-3.476.441-2.079,3.032.385,4.57,1.808,1.131,4.027,2.739,5.082,3.515a15.036,15.036,0,0,1-2.773.222A5.977,5.977,0,0,0,483.426,1740.108Z" transform="translate(-106.85 -1351.467)" fill="#a8d29f"/>
    <path id="Trazado_201358" data-name="Trazado 201358" d="M2022.178,1747.011H2009.01c-.705-.6.488-1.958,1.736-2.049a7.7,7.7,0,0,1,2.01.238c.181-2.407,1.216-13.226,5.116-12.791,4.385.487,0,4.765-1.24,7.3a60.225,60.225,0,0,0-2.33,5.835c.356.077.725.153,1.1.222.581-1.785,2.744-7.787,5.494-7.437,3.229.409,1.931,2.816-.358,4.245-1.679,1.051-3.741,2.544-4.721,3.265a13.987,13.987,0,0,0,2.575.206A5.552,5.552,0,0,1,2022.178,1747.011Z" transform="translate(-1419.983 -1358.371)" fill="#a8d29f"/>
    <g id="Grupo_140300" data-name="Grupo 140300" transform="translate(598.798 281.476)">
      <path id="Trazado_201359" data-name="Trazado 201359" d="M2152.12,1199.978s.313-3.117-1.316-3.01-2.062.854-1.88,1.453a17.009,17.009,0,0,0,1.767,2.581Z" transform="translate(-2139.32 -1179.129)" fill="#ffb27d"/>
      <path id="Trazado_201360" data-name="Trazado 201360" d="M2185.249,1221.761a26.606,26.606,0,0,1-5.685,4.567c-.368.232-.752.466-1.157.7a43.018,43.018,0,0,1-5.316,2.616c-.224.093-.489.194-.785.3a38.279,38.279,0,0,1-9.256,2.137c-.231.009-.45.009-.653,0-4.036-.163-4.528-15.827-4.528-15.827a1.985,1.985,0,0,1,2.523-1.173s3.149,8.846,4.277,9.568c1,.641,6.764-8.092,11.722-8.7C2179.729,1215.539,2185.249,1221.761,2185.249,1221.761Z" transform="translate(-2147.049 -1194.666)" fill="#ff725e"/>
      <path id="Trazado_201361" data-name="Trazado 201361" d="M2216.214,1802.511s.3,3.448-.431,3.807l-9.328-.019s0-1.077,1.5-1.316,4.131-1.116,4.576-3.07S2216.214,1802.511,2216.214,1802.511Z" transform="translate(-2188.856 -1699.03)" fill="#1c3154"/>
      <path id="Trazado_201362" data-name="Trazado 201362" d="M2227.139,1445.051c.046,2.255.154,4.58.366,6.671,1.007,9.918,1.361,21.9,1.506,24.212.251,4.011,1.043,10.418,1.043,10.418s1.572,1.492,4.635.78a104.358,104.358,0,0,0,3.1-18.945c.009-.16.018-.32.025-.48.066-1.285.135-2.754.2-4.337.467-10.61.974-26.371.974-26.371l-11.705-2.748S2227.024,1439.43,2227.139,1445.051Z" transform="translate(-2206.629 -1383.304)" fill="#455a64"/>
      <path id="Trazado_201363" data-name="Trazado 201363" d="M2227.139,1445.051c2.966,5.118,8.621,14.548,10.886,18.318.467-10.61.974-26.371.974-26.371l-11.705-2.748S2227.024,1439.43,2227.139,1445.051Z" transform="translate(-2206.629 -1383.304)" fill="#394f5a"/>
      <path id="Trazado_201364" data-name="Trazado 201364" d="M2204.254,1297.884a38.306,38.306,0,0,1-9.256,2.137c.406-.076,3.358-.661,4.45-1.979,1.173-1.417,3.147-5.266,4.718-3.7C2204.906,1295.086,2204.688,1296.548,2204.254,1297.884Z" transform="translate(-2178.998 -1262.604)" fill="#6385db"/>
      <path id="Trazado_201365" data-name="Trazado 201365" d="M2386.152,1498.631a18.178,18.178,0,0,1,.608,3.482,12.469,12.469,0,0,1-1.271,3.31c-.442.532-.461-2.313-.755-2.76s-.135,1.062-.37,1.186-.629-1.143-.8-1.592.628-2.012.7-3.132S2386.152,1498.631,2386.152,1498.631Z" transform="translate(-2341.227 -1438.551)" fill="#ffb27d"/>
      <path id="Trazado_201366" data-name="Trazado 201366" d="M2405.833,1778.23s1.66,1.515,1.336,2.592-1.822,1.794-2.025,3.11-1.012,2.033-1.741,2.033h-3.475s-.536-.926.76-1.2,1.784-1.825,1.7-3.261a25.323,25.323,0,0,1,.122-3.349l2.754-.638Z" transform="translate(-2355.238 -1678.669)" fill="#1c3154"/>
      <path id="Trazado_201367" data-name="Trazado 201367" d="M2241.641,1433.7s10.957,23.445,16.788,33.732,7.653,13.158,7.653,13.158,3.341-1.316,3.645-2.213c0,0-2.23-19.86-6.135-24.7-2.207-2.735-4.8-10.945-4.92-13.816s-2.681-9.723-2.681-9.723Z" transform="translate(-2219.133 -1379.765)" fill="#455a64"/>
      <path id="Trazado_201368" data-name="Trazado 201368" d="M2226.906,1249.127a18.991,18.991,0,0,0,9.632,5c2.661.509,8.062,1,9.4-.893a3.388,3.388,0,0,0,.248-2.131c-.18-2.672-.853-7.839,2.182-18.222a17.692,17.692,0,0,0,.584-2.775c.663-5.312.591-9.321-4.018-11.464-6.905-3.21-9.739-.569-9.739-.569a11.566,11.566,0,0,0-5.351,6.717C2226.489,1234.794,2226.906,1249.127,2226.906,1249.127Z" transform="translate(-2206.439 -1196.412)" fill="#ff725e"/>
      <path id="Trazado_201369" data-name="Trazado 201369" d="M2293.952,1179.567a5.125,5.125,0,0,1-5.158.338,5.915,5.915,0,0,1-.094-2.12c.038-.994.132-1.97.132-1.97l2.457-1.613,2.344-1.538C2293.352,1177.954,2294.477,1179.192,2293.952,1179.567Z" transform="translate(-2259.602 -1158.22)" fill="#ffb27d"/>
      <path id="Trazado_201370" data-name="Trazado 201370" d="M2293.384,1184.334a7.549,7.549,0,0,1-4.521,2.937c.038-.994.144-2.089.144-2.089l2.445-1.493Z" transform="translate(-2259.765 -1167.705)" fill="#ed985f"/>
      <path id="Trazado_201371" data-name="Trazado 201371" d="M2270.091,1131.4s5.944,2.218,7.267-1.444,2.98-5.843-.759-7.414-4.985-.437-5.729.677S2268.579,1130.731,2270.091,1131.4Z" transform="translate(-2243.062 -1114.428)" fill="#ffb27d"/>
      <path id="Trazado_201372" data-name="Trazado 201372" d="M2276.491,1108.074c.068-.053.207-.079.5-.038a1.183,1.183,0,0,0-.5-.256,1.467,1.467,0,0,0-.705-1.463.875.875,0,0,1,.294.7c-.632-.972-2.215-1.9-7-2.459-6.3-.736-5.041,3.641-4.331,4.273s2.988-.267,4.46.148,1.331,2.633,1.78,3.03.353-.167,1.1-.342.589.976.244,1.677.406,1.864.406,1.864l1.157-.839c1.157-.839,2.915-5.012,2.665-6.025C2276.536,1108.256,2276.514,1108.165,2276.491,1108.074Z" transform="translate(-2238.493 -1099.546)" fill="#2c3a64"/>
      <path id="Trazado_201373" data-name="Trazado 201373" d="M2342.467,1330.415c-.18-2.672-.853-7.839,2.182-18.222a17.745,17.745,0,0,0,.584-2.775h0c-2.255-.744-6.364.911-6.364.911S2337.9,1324.053,2342.467,1330.415Z" transform="translate(-2302.719 -1275.725)" fill="#ff5e47"/>
      <path id="Trazado_201374" data-name="Trazado 201374" d="M2304.075,1233.426s2.775,1.009,4.544,8.355c1.169,4.854,3.322,11.988,3.565,14.23s-2.461,15.367-2.461,15.367a1.761,1.761,0,0,1-1.316.091,2.171,2.171,0,0,1-1.31-.784s-.646-8.748-.48-12.879c.069-1.716-7.944-12.568-12.27-13.966C2292.649,1243.292,2304.075,1233.426,2304.075,1233.426Z" transform="translate(-2264.336 -1210.502)" fill="#ff725e"/>
      <path id="Trazado_201375" data-name="Trazado 201375" d="M2086.991,1083.881a92.285,92.285,0,0,1,17.274,1.476l.967-2.437,1.06-2.669s-9.291-4-14.875-9.569Z" transform="translate(-2086.062 -1070.467)" fill="#ff725e"/>
      <path id="Trazado_201376" data-name="Trazado 201376" d="M2085.815,1069.227l-4.6,13.591h0a1.225,1.225,0,0,1-.807-1.584l4.052-11.42a1.011,1.011,0,0,1,1.359-.587Z" transform="translate(-2080.333 -1069.142)" fill="#f99746"/>
      <path id="Trazado_201377" data-name="Trazado 201377" d="M2142.887,1168.587h0a1.665,1.665,0,0,0,1.953-1.3l1.585-7.932a1.665,1.665,0,0,0-1.3-1.953h0a1.665,1.665,0,0,0-1.953,1.3l-1.586,7.932A1.665,1.665,0,0,0,2142.887,1168.587Z" transform="translate(-2133.01 -1145.056)" fill="#f99746"/>
      <path id="Trazado_201378" data-name="Trazado 201378" d="M2086.991,1155.657a92.3,92.3,0,0,1,17.274,1.476l.967-2.436C2096.536,1152.921,2086.991,1155.657,2086.991,1155.657Z" transform="translate(-2086.062 -1142.243)" fill="#ff725e"/>
      <path id="Trazado_201379" data-name="Trazado 201379" d="M2192.449,1135.34l2.506.441a2.764,2.764,0,0,0,3.1-1.636,1.7,1.7,0,0,0,.148-.453c.6-2.614-.832-3.1-.832-3.1l-3.225-1.257-1.025,3.626v.013Z" transform="translate(-2176.804 -1120.94)" fill="#f99746"/>
      <path id="Trazado_201380" data-name="Trazado 201380" d="M2192.449,1157.7l2.506.441a2.764,2.764,0,0,0,3.1-1.636c-1.418-1.031-4.934-1.179-4.934-1.179v.013Z" transform="translate(-2176.804 -1143.3)" fill="#ed7d2b"/>
      <path id="Trazado_201381" data-name="Trazado 201381" d="M2145.92,1182.3s1.226.489,1,1.028-1.784,1.282-2.03.856S2145.149,1181.843,2145.92,1182.3Z" transform="translate(-2135.829 -1166.448)" fill="#ffb27d"/>
      <path id="Trazado_201382" data-name="Trazado 201382" d="M2169.988,1197.187a17.16,17.16,0,0,0,.246-1.83c.014-.576.082-1.047-.054-1.063s-.234.09-.289.275-.268,1.334-.268,1.334l.107,1.109Z" transform="translate(-2157.164 -1176.829)" fill="#ffb27d"/>
    </g>
    <g id="Grupo_140302" data-name="Grupo 140302" transform="translate(414.959 256.079)">
      <path id="Trazado_201383" data-name="Trazado 201383" d="M1260.131,1204.353l-6.945,82.579s-.728,5.006,3,5.014c6.122.015,30.472,0,30.472,0s-4.608-1.042-4.552-3.386c.066-2.763,8.117-84.988,8.117-84.988Z" transform="translate(-1184.716 -1159.416)" fill="#455a64"/>
      <path id="Trazado_201384" data-name="Trazado 201384" d="M1301.288,1281.241c-1.2,0-24.778.043-30.74-.033-2.6-.032-3.054-2.31-3.075-3.784a7.384,7.384,0,0,1,.079-1.229l.181-2.146.46-5.47.407-4.833.522-6.211.44-5.242,4.935-58.678,30.088-.781s-3.391,34.411-5.79,59.459c-.268,2.791-.522,5.467-.758,7.965q-.115,1.2-.221,2.336c-.222,2.37-.426,4.546-.6,6.467-.093,1.013-.179,1.954-.257,2.816-.306,3.378-.485,5.535-.488,5.945a3.471,3.471,0,0,0,.058.668C1297.02,1281.122,1300.835,1281.241,1301.288,1281.241Z" transform="translate(-1197.058 -1150.176)" fill="#455a64"/>
      <path id="Trazado_201385" data-name="Trazado 201385" d="M779.653,887.135l16.917,67.952,2.316,9.306,7.879,31.65H953.147L924.105,887.135Z" transform="translate(-777.308 -887.135)" fill="#5f6c72"/>
      <path id="Trazado_201386" data-name="Trazado 201386" d="M765.193,887.134l-2.344.781,26.34,110.491,3.117-2.364Z" transform="translate(-762.849 -887.134)" fill="#455a64"/>
      <path id="Trazado_201387" data-name="Trazado 201387" d="M951.617,1670H1097.1l4.017-2.364H954.734Z" transform="translate(-925.277 -1558.725)" fill="#455a64"/>
      <rect id="Rectángulo_42572" data-name="Rectángulo 42572" width="31.499" height="1.497" transform="translate(108.927 132.561) rotate(180)" fill="#455a64"/>
      <path id="Trazado_201388" data-name="Trazado 201388" d="M1302.422,1684.568l-.162,1.144-29.623,5.985.406-4.833.194-2.3Z" transform="translate(-1201.502 -1573.296)" fill="#455a64"/>
      <path id="Trazado_201389" data-name="Trazado 201389" d="M1301.293,1768.665c-1.2,0-24.778.043-30.74-.033-2.6-.032-3.054-2.31-3.075-3.784l29.483-5.547c-.306,3.378-.486,5.535-.488,5.945a3.49,3.49,0,0,0,.058.668C1297.026,1768.547,1300.841,1768.665,1301.293,1768.665Z" transform="translate(-1197.063 -1637.601)" fill="#5888dd" opacity="0.4"/>
      <path id="Trazado_201390" data-name="Trazado 201390" d="M779.651,887.134H924.1l23.438,87.528h-146.1Z" transform="translate(-777.306 -887.134)" fill="#455a64"/>
      <path id="Trazado_201391" data-name="Trazado 201391" d="M977.624,999.783H842.372l-4.833-19.254-1.87-7.45-.762-3.038-4.968-19.786-.258-1.03-2.626-10.459-1.175-4.68-1-3.992-2.349-9.358h133.3l2.58,9.358,1.1,3.992,1.29,4.68,8.5,30.83h0l.721,2.612.335,1.213,5.868,21.285Z" transform="translate(-814.202 -916.047)" fill="#ffe98f"/>
      <path id="Trazado_201392" data-name="Trazado 201392" d="M958.415,930.093H824.883l-2.349-9.359h133.3Z" transform="translate(-814.205 -916.045)" fill="#d8c578"/>
      <g id="Grupo_140301" data-name="Grupo 140301" transform="translate(13.807 7.748)">
        <path id="Trazado_201393" data-name="Trazado 201393" d="M861.831,943.83a.884.884,0,0,1,.878-1.17,1.6,1.6,0,0,1,1.462,1.17.884.884,0,0,1-.878,1.17A1.6,1.6,0,0,1,861.831,943.83Z" transform="translate(-861.795 -942.66)" fill="#e9f3fe"/>
        <path id="Trazado_201394" data-name="Trazado 201394" d="M889.689,943.83a.884.884,0,0,1,.878-1.17,1.6,1.6,0,0,1,1.462,1.17.884.884,0,0,1-.878,1.17A1.6,1.6,0,0,1,889.689,943.83Z" transform="translate(-885.766 -942.66)" fill="#e9f3fe"/>
        <path id="Trazado_201395" data-name="Trazado 201395" d="M919.686,943.83a.884.884,0,0,1,.878-1.17,1.6,1.6,0,0,1,1.462,1.17.884.884,0,0,1-.878,1.17A1.6,1.6,0,0,1,919.686,943.83Z" transform="translate(-911.577 -942.66)" fill="#e9f3fe"/>
      </g>
    </g>
    <path id="Trazado_201396" data-name="Trazado 201396" d="M1539.054,206.361c5.466-6.418,13.9-19.311,19.572-25.914a2.094,2.094,0,0,0-1.595-3.456H1546.7l9.741-22.027a.863.863,0,0,0-1.481-.866l-23.554,31.525a1.3,1.3,0,0,0,1.2,2.074l11.692-1.44-6.956,19.108A1,1,0,0,0,1539.054,206.361Z" transform="translate(-920.356 65.841)" fill="#ff725e"/>
    <path id="Trazado_201397" data-name="Trazado 201397" d="M1160.158,556.705c1.23-6.308,2.006-18.024,3.306-24.533a1.6,1.6,0,0,0-2.352-1.7l-6.859,3.863-1.769-18.274a.658.658,0,0,0-1.308-.021l-3.852,29.748a.993.993,0,0,0,1.575.927l7.227-5.329,2.527,15.293A.765.765,0,0,0,1160.158,556.705Z" transform="translate(-678.708 -311.25)" fill="#455a64"/>
    <g id="Grupo_140306" data-name="Grupo 140306" transform="translate(449.533 212.198)">
      <path id="Trazado_201398" data-name="Trazado 201398" d="M1172.91,729.657l-117.523,9.9a11.764,11.764,0,0,1-11.728-16.522l49.79-111.431a11.764,11.764,0,0,1,20.527-1.729l67.733,101.529A11.764,11.764,0,0,1,1172.91,729.657Z" transform="translate(-1038.154 -600.177)" fill="#e6efff"/>
      <g id="Grupo_140303" data-name="Grupo 140303">
        <path id="Trazado_201399" data-name="Trazado 201399" d="M1145.753,706.58l-117.523,9.9a16.225,16.225,0,0,1-16.176-22.787l49.79-111.431a16.225,16.225,0,0,1,28.311-2.385l67.732,101.53a16.225,16.225,0,0,1-12.135,25.172Zm-69.708-124.974a7.21,7.21,0,0,0-6.054,4.3L1020.2,697.334a7.3,7.3,0,0,0,7.281,10.256l117.523-9.9a7.3,7.3,0,0,0,5.462-11.33L1082.733,584.83A7.21,7.21,0,0,0,1076.045,581.605Z" transform="translate(-1010.622 -572.655)" fill="#ff725e"/>
      </g>
      <g id="Grupo_140305" data-name="Grupo 140305" transform="translate(56.639 33.128)">
        <g id="Grupo_140304" data-name="Grupo 140304">
          <path id="Trazado_201400" data-name="Trazado 201400" d="M1422.558,889.369a10.751,10.751,0,0,1,.458-4.268,9.846,9.846,0,0,1,2.011-3.532,10.561,10.561,0,0,1,3.376-2.5,13.168,13.168,0,0,1,4.624-1.187,13.47,13.47,0,0,1,4.792.394,10.5,10.5,0,0,1,3.783,1.9,9.859,9.859,0,0,1,2.573,3.146,10.767,10.767,0,0,1,1.165,4.131,10.515,10.515,0,0,1-.46,4.234,9.927,9.927,0,0,1-2.014,3.5,10.464,10.464,0,0,1-3.411,2.506,13.466,13.466,0,0,1-4.659,1.19,13.167,13.167,0,0,1-4.757-.4,10.529,10.529,0,0,1-3.748-1.9,9.918,9.918,0,0,1-2.571-3.111A10.5,10.5,0,0,1,1422.558,889.369Zm18.17-21.261-16.928,1.426-7.271-57.639,21.725-1.83Z" transform="translate(-1416.528 -810.065)" fill="#ff725e"/>
        </g>
      </g>
    </g>
    <g id="Grupo_140310" data-name="Grupo 140310" transform="translate(402.067 281.831)">
      <path id="Trazado_201401" data-name="Trazado 201401" d="M936.749,1235.695s.369-.829.607-1.221,1.258-1.542,1.432-1.282.868,2.012.5,2.5.024,1.344-1.81,1.861Z" transform="translate(-899.591 -1210.623)" fill="#ffb27d"/>
      <path id="Trazado_201402" data-name="Trazado 201402" d="M790.676,1213.861s9.389,7.838,13.05,7.112c2.863-.567,7.388-2,7.388-2a2.888,2.888,0,0,1,.857,2.5s-5.766,5.426-9.874,5.461c-6.421.055-9.45-3.182-9.45-3.182Z" transform="translate(-773.9 -1194.022)" fill="#ffe98f"/>
      <path id="Trazado_201403" data-name="Trazado 201403" d="M672.668,1797.584s.273,4.4,1.123,4.46c.113.008,4.315.008,4.315.008l5.363-.031a1.74,1.74,0,0,0-1.6-1.565c-1.568-.273-4.192-1.375-5.141-3.447C675.726,1794.829,672.668,1797.584,672.668,1797.584Z" transform="translate(-672.359 -1695.076)" fill="#113c68"/>
      <path id="Trazado_201404" data-name="Trazado 201404" d="M670.453,1473.763a11.185,11.185,0,0,0,2.9.545,10.66,10.66,0,0,0,2.71-.387,74.211,74.211,0,0,1,2-9.508c.886-3.428,2.15-7.836,3.949-13.313,4.975-15.137,6.487-23.992,6.625-24.831.007-.044.01-.066.01-.066l-.016-.007-15.294-6.715s1.89,20.862-.521,28.87a33.707,33.707,0,0,0-.875,3.836C670.417,1460.885,670.453,1473.763,670.453,1473.763Z" transform="translate(-670.452 -1370.95)" fill="#455a64"/>
      <path id="Trazado_201405" data-name="Trazado 201405" d="M692.545,1464.413c.886-3.428,2.15-7.836,3.949-13.313,4.975-15.137,6.488-23.992,6.625-24.831,0-.025,0-.048-.006-.073l-15.294-6.715s1.89,20.862-.521,28.87C686.961,1449.47,692.545,1464.413,692.545,1464.413Z" transform="translate(-684.936 -1370.95)" fill="#3a4950"/>
      <path id="Trazado_201406" data-name="Trazado 201406" d="M758.276,1797.584s.272,4.4,1.123,4.46c.113.008,4.314.008,4.314.008l5.363-.031a1.74,1.74,0,0,0-1.6-1.565c-1.568-.273-4.192-1.375-5.141-3.447C761.334,1794.829,758.276,1797.584,758.276,1797.584Z" transform="translate(-746.021 -1695.076)" fill="#15447c"/>
      <path id="Trazado_201407" data-name="Trazado 201407" d="M720.144,1423.005a217.706,217.706,0,0,1-2.14,30.117c-2.339,16.6-1.546,23.645-1.546,23.645a15.887,15.887,0,0,1-2.255.573,10.235,10.235,0,0,1-3.346-.387s-3.348-16.6-2.388-24.913-4.585-28.509-4.585-28.509Z" transform="translate(-699.218 -1373.982)" fill="#455a64"/>
      <path id="Trazado_201408" data-name="Trazado 201408" d="M742.7,1155.076l2.985,1.958,2.719-.769a6.5,6.5,0,0,0,.636-3.26,20.28,20.28,0,0,0-.107-2.171l-4.028-1.778-1.5-.662c0,.023.117,1.234.133,1.411A10.28,10.28,0,0,1,742.7,1155.076Z" transform="translate(-732.618 -1137.689)" fill="#ffb27d"/>
      <path id="Trazado_201409" data-name="Trazado 201409" d="M704.68,1224.686c-3.716,3.588-17.779,2.984-18.646-.969s.945-33.65,7.293-35.515c1.317-.387,8.359,1.889,8.359,1.889a44.642,44.642,0,0,1,1.83,6.571c.141.716.551,8.305.859,15.405.143,3.321.265,6.535.326,8.888A25.657,25.657,0,0,1,704.68,1224.686Z" transform="translate(-683.686 -1171.905)" fill="#ffe98f"/>
      <path id="Trazado_201410" data-name="Trazado 201410" d="M750.144,1153.94c.817,1.382,3.684,2.591,5.2,3.145a20.284,20.284,0,0,0-.107-2.171l-4.028-1.778C750.322,1153.124,749.78,1153.323,750.144,1153.94Z" transform="translate(-738.925 -1141.77)" fill="#fca56b"/>
      <path id="Trazado_201411" data-name="Trazado 201411" d="M742.453,1098.254s-6.49,2.025-7.688-2.036-2.843-6.535,1.25-8,5.359-.153,6.089,1.1S744.11,1097.623,742.453,1098.254Z" transform="translate(-724.619 -1085.356)" fill="#ffb27d"/>
      <path id="Trazado_201412" data-name="Trazado 201412" d="M724.437,1075.259s-.414,4.726-1.391,4.521-2.053-.644-1.91.781-.95,3.867-2.359,3.861c-3.022-.012-6.306-7.768-5.479-9.239C715.685,1070.939,727.888,1070.083,724.437,1075.259Z" transform="translate(-707.208 -1071.683)" fill="#163560"/>
      <path id="Trazado_201413" data-name="Trazado 201413" d="M746.179,1176.92c-.084-.035-4.831-2.165-5.386-1.981s-1.247,1.879-1.247,1.879l8.36,1.89A4.153,4.153,0,0,0,746.179,1176.92Z" transform="translate(-729.904 -1160.521)" fill="#fef2c3"/>
      <g id="Grupo_140308" data-name="Grupo 140308" transform="translate(16.729 2.993)">
        <path id="Trazado_201414" data-name="Trazado 201414" d="M819.444,1338.34,792.831,1363.4c-.522.491-1.179.647-1.462.348l-.9-.954c-.282-.3-.086-.947.435-1.438l26.613-25.056c.522-.491,1.179-.648,1.462-.348l.9.954C820.161,1337.2,819.966,1337.848,819.444,1338.34Z" transform="translate(-790.342 -1301.934)" fill="#1f4d84"/>
        <path id="Trazado_201415" data-name="Trazado 201415" d="M804.509,1442.193l-11.678,11c-.522.491-1.179.648-1.462.348l-.9-.954c-.282-.3-.086-.947.435-1.438l11.678-11Z" transform="translate(-790.342 -1391.726)" fill="#739af0"/>
        <path id="Trazado_201416" data-name="Trazado 201416" d="M949.489,1120.076a20.859,20.859,0,1,0,34.573-20.962q-.16-.16-.328-.316a20.86,20.86,0,0,0-34.246,21.278Zm5.962-19.252a19.213,19.213,0,1,1,.828,27.158A19.19,19.19,0,0,1,955.451,1100.824Z" transform="translate(-926.503 -1093.131)" fill="#1f4d84"/>
        <g id="Grupo_140307" data-name="Grupo 140307" transform="translate(23.727 1.647)" opacity="0.5">
          <path id="Trazado_201417" data-name="Trazado 201417" d="M993.587,1137.309a19.214,19.214,0,1,1-.828-27.157A19.133,19.133,0,0,1,993.587,1137.309Z" transform="translate(-960.382 -1104.933)" fill="#b3cff9"/>
        </g>
      </g>
      <path id="Trazado_201418" data-name="Trazado 201418" d="M738,1272.783c-14.664-10.449-13.445-24.392-13.445-24.392,5.36,3.023,10.678,9.706,13.118,15.5C737.815,1267.216,737.936,1270.43,738,1272.783Z" transform="translate(-716.983 -1223.734)" fill="#ebd374"/>
      <g id="Grupo_140309" data-name="Grupo 140309" transform="translate(7.265 18.187)">
        <path id="Trazado_201419" data-name="Trazado 201419" d="M913.949,1381.964a4,4,0,0,0,1.873-1.157s.441.03-.072.971c-.043.079-.138.281-.21.424a.091.091,0,0,0,.077.131,9.76,9.76,0,0,1,2.346.049c.159.033.2.413.2.575a1.469,1.469,0,0,1-.309,1,5.124,5.124,0,0,1-1.853.97,5.6,5.6,0,0,1-2.867-.36l-.939-.435.291-1.745.236.049C913.094,1382.517,913.558,1382.06,913.949,1381.964Z" transform="translate(-885.726 -1355.859)" fill="#ffe98f"/>
        <path id="Trazado_201420" data-name="Trazado 201420" d="M727.372,1202.019s-13.176,2.509,3.877,21.589c2.727,3.052,17.462,7.025,17.462,7.025s1.494-1.271.741-2.3c0,0-10.145-7.367-12.377-8.538-1-.527-3.9-11.758-5.534-14.464A7.379,7.379,0,0,0,727.372,1202.019Z" transform="translate(-722.516 -1202.019)" fill="#ffe98f"/>
      </g>
      <path id="Trazado_201421" data-name="Trazado 201421" d="M939.31,1233.22a6.722,6.722,0,0,0,.515-1.258,6.953,6.953,0,0,1,.85-1.925c.09-.089.385.026.419.41a2.236,2.236,0,0,1-.212.833,9.377,9.377,0,0,0-.279,1.656C940.4,1233.6,939.31,1233.22,939.31,1233.22Z" transform="translate(-901.794 -1207.916)" fill="#ffb27d"/>
    </g>
    <g id="Grupo_140312" data-name="Grupo 140312" transform="translate(424.256 211.982)">
      <g id="Grupo_140311" data-name="Grupo 140311" transform="translate(0 0)">
        <path id="Trazado_201422" data-name="Trazado 201422" d="M975.625,974.783a.8.8,0,0,0-.142.85.007.007,0,0,0,0,0,5.283,5.283,0,0,0,1.669,1.832c.1.081.19.155.268.224l.06.054.046.042c.733.677.457.831,1.775,2.2,1.5,1.564,2.537,1.593,2.832,1.451.249-.121-.256-.951-.817-1.883l-.082-.136c-.075-.124-.149-.25-.223-.374-.657-1.122-.488-1.648-.331-3.318.127-1.357,2.114-7.58,2.114-7.58l-2.88-.5s-.869,4.956-1.825,5.718c-.511.407-1.083.411-1.575.713l-.1.065A3.782,3.782,0,0,0,975.625,974.783Z" transform="translate(-955.055 -912.321)" fill="#ffb27d"/>
        <path id="Trazado_201423" data-name="Trazado 201423" d="M975.625,1014.839a.8.8,0,0,0-.142.85.007.007,0,0,0,0,0,6.12,6.12,0,0,0,1.671,1.826c.1.082.187.158.265.229l.06.054.046.042c.733.677.457.831,1.775,2.2,1.5,1.564,2.537,1.593,2.832,1.45.249-.121-.256-.951-.817-1.883a6.4,6.4,0,0,1-2.679-1.975c-.872-1.113-1.464-2.532-2.057-3.4l-.169-.032A3.79,3.79,0,0,0,975.625,1014.839Z" transform="translate(-955.055 -952.377)" fill="#233862"/>
        <path id="Trazado_201424" data-name="Trazado 201424" d="M1129.148,967.628c.177.889,1.445.741,2.861.4s1.08.066,3.095-.157,2.626-.974,2.688-1.273c.055-.266-.941-.36-2.009-.483l-.4-.049a8.721,8.721,0,0,1-3.184-1.569,12.793,12.793,0,0,1-2.585-3.072l-2.764.218s1.449,2.2,2.01,3.161a3.34,3.34,0,0,1,.271,1.884A3.546,3.546,0,0,0,1129.148,967.628Z" transform="translate(-1085.351 -906.957)" fill="#ffb27d"/>
        <path id="Trazado_201425" data-name="Trazado 201425" d="M1145.942,996.947c1.416-.345,1.079.066,3.095-.157s2.626-.974,2.687-1.273c.055-.266-.941-.36-2.009-.483l-.01.021a5.681,5.681,0,0,1-2.886.9c-1.367.033-2.815-.359-3.759-.344a3.561,3.561,0,0,0,.021.945C1143.259,997.441,1144.526,997.293,1145.942,996.947Z" transform="translate(-1099.285 -935.88)" fill="#233862"/>
        <path id="Trazado_201426" data-name="Trazado 201426" d="M1008.985,851.914l-2.586,6.951-3.376,9.076a5.465,5.465,0,0,1-1.792-.164,7.763,7.763,0,0,1-1.733-.844s.94-9.746,2.689-15.34a9.957,9.957,0,0,1,1.5-3.251C1006.4,845.141,1008.985,851.914,1008.985,851.914Z" transform="translate(-975.774 -808.918)" fill="#31444d"/>
        <path id="Trazado_201427" data-name="Trazado 201427" d="M894.574,791.5c-1.47-.475-5.308-.009-9.47.743a2.823,2.823,0,0,1-2.914-1.317h0l-10.474-.822s-3.459,7.664-1.568,12.548a1.837,1.837,0,0,0,1.83,1.182h0s6.329.011,8.354.012c5.209,0,11.025-3.577,11.778-3.727,1.231-.246,1.723,2.217,2.953,4.8s11.57,11.455,11.57,11.455a9.1,9.1,0,0,0,2.246-.23,2.212,2.212,0,0,0,.965-.608S898.39,792.734,894.574,791.5Z" transform="translate(-863.985 -759.547)" fill="#455a64"/>
        <path id="Trazado_201428" data-name="Trazado 201428" d="M846.836,571.73a3.716,3.716,0,0,0-2-.521,5.579,5.579,0,0,1-.966-.059c-4-.588-6.407,5.218-6.548,6.973-.26,3.221-1.964,3.712-4.363,5.728-4.811,4.043-3.4,8.744-.773,10.491,1.577,1.048,4.359,0,4.359,0,.039.027,7.607-4.227,11.338-6.28C853.473,587.27,849.081,573.068,846.836,571.73Z" transform="translate(-829.734 -571.108)" fill="#233862"/>
        <path id="Trazado_201429" data-name="Trazado 201429" d="M905.664,643.911a4.93,4.93,0,0,1-3.073.093,5.48,5.48,0,0,1-2.029-2.433c.53-.024,1.112-.487,1.561-3.527l.226.081,3.793,1.366s-.275,1.217-.453,2.376C905.537,642.841,905.457,643.773,905.664,643.911Z" transform="translate(-890.642 -628.705)" fill="#ffb27d"/>
        <path id="Trazado_201430" data-name="Trazado 201430" d="M917.158,639.992s-.152.657-.373,1.883a4.284,4.284,0,0,1-3.42-3.25Z" transform="translate(-901.659 -629.205)" fill="#ed975d"/>
        <path id="Trazado_201431" data-name="Trazado 201431" d="M915.381,600.776s-5.19-.7-4.705-3.924.141-5.488,3.475-5.178,3.792,1.637,3.892,2.753S916.743,600.875,915.381,600.776Z" transform="translate(-899.318 -588.78)" fill="#ffb27d"/>
        <path id="Trazado_201432" data-name="Trazado 201432" d="M908.676,590.9s-3.323,2.862-5.583,3.092-3.115-.5-3.115-.5a8.824,8.824,0,0,0,2.135-2.89,1.59,1.59,0,0,1,1.31-.936C905.036,589.533,908.095,589.471,908.676,590.9Z" transform="translate(-890.139 -587.023)" fill="#233862"/>
        <path id="Trazado_201433" data-name="Trazado 201433" d="M947.434,593.235a8.182,8.182,0,0,1,1.461,1.872,6.283,6.283,0,0,1,.169,3.34s1.733-3.367.753-5A1.384,1.384,0,0,0,947.434,593.235Z" transform="translate(-930.974 -589.614)" fill="#233862"/>
        <path id="Trazado_201434" data-name="Trazado 201434" d="M882.546,672.551c-.161,10.506-.046,8.311-1.2,9.307a4.41,4.41,0,0,1-2.08.45c-3.222.213-8.884-.32-9.1-.915-.742-2.06-.218-2.7-.836-5.854-.064-.336-.144-.7-.238-1.094-.516-2.166-1.019-2.9.816-6.383,1.664-3.152,3.393-5.71,3.548-5.617,4.387,2.606,4.741.417,4.741.417S882.625,667.427,882.546,672.551Z" transform="translate(-863.156 -649.698)" fill="#ffe98f"/>
        <path id="Trazado_201435" data-name="Trazado 201435" d="M1006.4,884.208l-3.376,9.076a5.463,5.463,0,0,1-1.792-.164,7.763,7.763,0,0,1-1.733-.844s.94-9.746,2.689-15.34Z" transform="translate(-975.774 -834.261)" fill="#455a64"/>
        <path id="Trazado_201436" data-name="Trazado 201436" d="M937.3,665.444s4.514.767,5.044,2.711,2.271,13.743,2.271,13.743-1.273,1.243-2.333.182-3.333-11.04-3.333-11.04Z" transform="translate(-922.252 -652.281)" fill="#ffe98f"/>
        <path id="Trazado_201437" data-name="Trazado 201437" d="M883.684,736.089c-3.222.213-8.885-.32-9.1-.915-.742-2.06-.217-2.7-.836-5.854l1.555-4.375s-.259,4.872,1.178,6.154,5.882,2.476,6.58,3.547A3.92,3.92,0,0,1,883.684,736.089Z" transform="translate(-867.57 -703.479)" fill="#ebd374"/>
        <path id="Trazado_201438" data-name="Trazado 201438" d="M918.508,787.09s3.179-.707,3.691-.424a7.467,7.467,0,0,1,1.923,1.667c.157.357-1.142-.272-1.564-.385a3.759,3.759,0,0,0-1.35.3,4.488,4.488,0,0,1-2.419.242Z" transform="translate(-906.084 -756.53)" fill="#ffb27d"/>
        <path id="Trazado_201439" data-name="Trazado 201439" d="M839.775,662.444s-4.268.261-5.746,2.321c-2.081,2.9-6.21,15.26-3.847,16.909,2.662,1.858,12.118.49,12.118.49a3.84,3.84,0,0,0-.122-2.182c-.437-.712-7.551-1.863-7.88-2.192s4.107-6.4,4.107-7.387S839.775,662.444,839.775,662.444Z" transform="translate(-829.473 -649.699)" fill="#ffe98f"/>
        <path id="Trazado_201440" data-name="Trazado 201440" d="M946.061,793.416a6.153,6.153,0,0,0,.884.962.652.652,0,0,0,.359.077l-.448-.808Z" transform="translate(-929.793 -762.396)" fill="#ffb27d"/>
        <path id="Trazado_201441" data-name="Trazado 201441" d="M944.961,787.076l1.936.941a.345.345,0,0,1-.321.124,4.626,4.626,0,0,1-.84-.231Z" transform="translate(-928.846 -756.94)" fill="#ffb27d"/>
      </g>
      <path id="Trazado_201442" data-name="Trazado 201442" d="M938.727,802.914l-20.224-.007v.446l20.045.007Z" transform="translate(-906.079 -770.562)" fill="#233862"/>
      <path id="Trazado_201443" data-name="Trazado 201443" d="M952.394,735.479l15.316.005,4.611-11.455-15.292-.005Z" transform="translate(-935.242 -702.686)" fill="#233862"/>
      <path id="Trazado_201444" data-name="Trazado 201444" d="M1025.284,760.6a.531.531,0,0,0-.52-.729,1.045,1.045,0,0,0-.939.729.531.531,0,0,0,.52.729A1.045,1.045,0,0,0,1025.284,760.6Z" transform="translate(-996.68 -733.527)" fill="#fff"/>
    </g>
    <g id="Grupo_140314" data-name="Grupo 140314" transform="translate(538.531 287.714)">
      <path id="Trazado_201445" data-name="Trazado 201445" d="M1718.95,1114.109a4.4,4.4,0,0,0-3.492.18c-5.94.244-6.161,6.333-5.464,8.6.979,3.183-2.486,5.692,1.357,6.98,4.46,1.495,8.2-.279,7.946.491C1733.4,1131.47,1723.642,1115.667,1718.95,1114.109Z" transform="translate(-1700.97 -1113.845)" fill="#163560"/>
      <path id="Trazado_201446" data-name="Trazado 201446" d="M1679.006,1250.133a15.583,15.583,0,0,1-1.588,2.4c-1.234,1.546-7.711-2.123-7.153-2.4s3.813-9.655,4.588-10.834,3.416-1.79,3.416-1.79Z" transform="translate(-1667.188 -1220.253)" fill="#ff725e"/>
      <path id="Trazado_201447" data-name="Trazado 201447" d="M1849.821,1776.419s1.788,1.631,1.439,2.791-1.962,1.932-2.18,3.349-1.09,2.189-1.875,2.189h-3.742s-.578-1,.818-1.3,1.921-1.965,1.834-3.511a27.25,27.25,0,0,1,.131-3.606l2.965-.687Z" transform="translate(-1816.146 -1683.3)" fill="#1f447f"/>
      <path id="Trazado_201448" data-name="Trazado 201448" d="M1718.513,1786.147s.643,6.911-.141,7.3l-10.044-.02s0-1.159,1.613-1.417,4.448-1.2,4.927-3.306S1718.513,1786.147,1718.513,1786.147Z" transform="translate(-1699.969 -1692.336)" fill="#1c3154"/>
      <path id="Trazado_201449" data-name="Trazado 201449" d="M1724.792,1242.1a39.977,39.977,0,0,1,0,4.642c-.1,1.678-1.8,3.927-2.038,4.483-.6,1.395-1.286,1.622-1.286,1.622l-5.274,1.292-1.854.454-5.848-1.746s-2.663-7.434-1.594-11.619a32.171,32.171,0,0,1,2.7-7.091,41.724,41.724,0,0,1,10.984-.4Z" transform="translate(-1698.521 -1216.882)" fill="#ff725e"/>
      <path id="Trazado_201450" data-name="Trazado 201450" d="M1778.306,1300.224c-.1,1.679-2.3,3.868-2.541,4.424-.6,1.395-1.286,1.622-1.286,1.622l-5.274,1.292-.952-2.729s7.706-2.024,6.466-9.156Z" transform="translate(-1751.533 -1270.305)" fill="#f55e48"/>
      <path id="Trazado_201451" data-name="Trazado 201451" d="M1703.517,1379.674s-2.9,9.013-3.082,12.082,5.536,43.594,5.766,45.009c.217,1.333,1.872,2.182,1.872,2.182a2.505,2.505,0,0,0,1.848.142,4.568,4.568,0,0,0,1.984-.935s2.254-28.9.859-39.227a163.489,163.489,0,0,1-1.411-19.253Z" transform="translate(-1693.174 -1342.581)" fill="#455a64"/>
      <path id="Trazado_201452" data-name="Trazado 201452" d="M1740.7,1377.748s4.417,5.927,4.829,9.933.646,18.079,1.523,21.985,4.1,11.422,4.1,23.6a2.431,2.431,0,0,1-1.37,1.07,11.258,11.258,0,0,1-1.2.333,1.894,1.894,0,0,1-2.118-1.005c-2.179-4.388-9.12-18.539-9.477-21.476-.252-2.079-2.443-15.837-7.225-23.91-1.147-1.938.7-9.646.7-9.646Z" transform="translate(-1718.084 -1340.924)" fill="#455a64"/>
      <path id="Trazado_201453" data-name="Trazado 201453" d="M1718.22,1369.7a6.069,6.069,0,0,0,3.472.966c2.759.055,9.594-.7,9.594-.7a5.653,5.653,0,0,1,.292,1.744s-8.348,2.106-13.185.307A3.058,3.058,0,0,1,1718.22,1369.7Z" transform="translate(-1708.34 -1334)" fill="#455a64"/>
      <g id="Grupo_140313" data-name="Grupo 140313" transform="translate(11.432 36.196)">
        <path id="Trazado_201454" data-name="Trazado 201454" d="M1731.611,1376.091a1.435,1.435,0,1,1,1.259-1.424A1.351,1.351,0,0,1,1731.611,1376.091Zm0-2.432a1.024,1.024,0,1,0,.841,1.007A.937.937,0,0,0,1731.611,1373.659Z" transform="translate(-1730.352 -1373.242)" fill="#fff"/>
      </g>
      <path id="Trazado_201455" data-name="Trazado 201455" d="M1667.147,1322.758l-12.547.118-6.174-14.51,12.547-.117Z" transform="translate(-1648.426 -1281.121)" fill="#b5453c"/>
      <path id="Trazado_201456" data-name="Trazado 201456" d="M1731.141,1351.081l-.92-1.13a3.235,3.235,0,0,0-1.074-.65c-.452-.094-1.405-.644-1.5-.49s.733,1.261.733,1.261l.042.006c-.947.712-3.339.083-3.634.374-.358.352.493,1.114.949,1.542a3.349,3.349,0,0,0,2.778.824c.744-.231,1.914-.467,1.914-.467Z" transform="translate(-1714.061 -1316.001)" fill="#ffb27d"/>
      <path id="Trazado_201457" data-name="Trazado 201457" d="M1654.693,1323.787s.789-.9,1.29-.466-.132,2.545-.609,2.33S1654.418,1324.05,1654.693,1323.787Z" transform="translate(-1653.749 -1293.991)" fill="#ffb27d"/>
      <path id="Trazado_201458" data-name="Trazado 201458" d="M1767.269,1234.67s3.592.4,6.17,5.079c2.033,3.693,5.507,10.5,4.2,12.425-.576.844-6.093,3.849-16.736,2.131a3.22,3.22,0,0,1,1.026-1.967s8.957-2.876,8.941-3.448c-.029-1.082-1.21-2.017-6.213-7.022C1763.293,1240.509,1767.269,1234.67,1767.269,1234.67Z" transform="translate(-1745.205 -1217.81)" fill="#ff725e"/>
      <path id="Trazado_201459" data-name="Trazado 201459" d="M1753.292,1202.164c.123-.166-.035-.693-.233-1.676a18.354,18.354,0,0,1-.475-3.816l-.265.045-4.452.749s.1,1.19.1,2.312c0,.009,0,.019,0,.028.005.974-.263,2.445.066,2.638C1749.724,1203.431,1752.817,1202.8,1753.292,1202.164Z" transform="translate(-1733.991 -1185.114)" fill="#ffb27d"/>
      <path id="Trazado_201460" data-name="Trazado 201460" d="M1747.867,1197.739s.089,1.679.092,2.8c2.491-.06,3.821-2.478,4.36-3.548Z" transform="translate(-1733.991 -1185.388)" fill="#e8945b"/>
      <path id="Trazado_201461" data-name="Trazado 201461" d="M1727.1,1153.231s5.836-.831,5.262-4.457-.206-6.176-3.957-5.8-4.254,1.875-4.357,3.132S1725.564,1153.353,1727.1,1153.231Z" transform="translate(-1713.489 -1138.878)" fill="#ffb27d"/>
      <path id="Trazado_201462" data-name="Trazado 201462" d="M1736.2,1139.394s2.271,4,4.817,4.239,3.5-.585,3.5-.585a7.012,7.012,0,0,1-2.917-3.731S1737.076,1137.178,1736.2,1139.394Z" transform="translate(-1723.949 -1134.964)" fill="#163560"/>
      <path id="Trazado_201463" data-name="Trazado 201463" d="M1723.022,1144.278a3.657,3.657,0,0,0-1.46,1.569,5.935,5.935,0,0,0-.257,3.454s-1.661-2.7-.572-4.55C1721.887,1142.789,1723.022,1144.278,1723.022,1144.278Z" transform="translate(-1710.325 -1139.566)" fill="#163560"/>
    </g>
  </g>
</svg>
