<svg id="ahorro-de-dinero" xmlns="http://www.w3.org/2000/svg" width="100.36" height="100.36" viewBox="0 0 100.36 100.36">
  <g id="Grupo_142668" data-name="Grupo 142668" transform="translate(1.619 1.619)">
    <g id="Grupo_142659" data-name="Grupo 142659" transform="translate(22.662 38.849)">
      <path id="Trazado_202307" data-name="Trazado 202307" d="M80.748,26a3.247,3.247,0,0,1,3.237,3.237,3.261,3.261,0,0,1-3.237,3.237H19.237A3.247,3.247,0,0,1,16,29.237,3.261,3.261,0,0,1,19.237,26Z" transform="translate(-16 -26)" fill="#aab2bd"/>
    </g>
    <g id="Grupo_142660" data-name="Grupo 142660" transform="translate(16.187 45.324)">
      <path id="Trazado_202308" data-name="Trazado 202308" d="M91.867,49.748a25.049,25.049,0,0,0-3.108-6.588L79.986,30H24.95L16.176,43.16A24.858,24.858,0,0,0,36.847,81.8H68.088a24.843,24.843,0,0,0,23.779-32.05Z" transform="translate(-12 -30)" fill="#ccd1d9"/>
    </g>
    <g id="Grupo_142661" data-name="Grupo 142661" transform="translate(42.086 87.41)">
      <path id="Trazado_202309" data-name="Trazado 202309" d="M53.9,56h3.237a3.247,3.247,0,0,1,3.237,3.237v3.237a3.247,3.247,0,0,1-3.237,3.237h-25.9A3.247,3.247,0,0,1,28,62.475V59.237A3.247,3.247,0,0,1,31.237,56H53.9Z" transform="translate(-28 -56)" fill="#ffc729"/>
    </g>
    <g id="Grupo_142662" data-name="Grupo 142662" transform="translate(48.561 67.986)">
      <path id="Trazado_202310" data-name="Trazado 202310" d="M57.9,44h3.237a3.247,3.247,0,0,1,3.237,3.237v3.237a3.247,3.247,0,0,1-3.237,3.237h-25.9A3.247,3.247,0,0,1,32,50.475V47.237A3.247,3.247,0,0,1,35.237,44H57.9Z" transform="translate(-32 -44)" fill="#ffc729"/>
    </g>
    <g id="Grupo_142663" data-name="Grupo 142663" transform="translate(35.612 77.698)">
      <path id="Trazado_202311" data-name="Trazado 202311" d="M49.9,50h3.237a3.247,3.247,0,0,1,3.237,3.237v3.237a3.247,3.247,0,0,1-3.237,3.237h-25.9A3.247,3.247,0,0,1,24,56.475V53.237A3.247,3.247,0,0,1,27.237,50H49.9Z" transform="translate(-24 -50)" fill="#fcd770"/>
    </g>
    <g id="Grupo_142664" data-name="Grupo 142664" transform="translate(42.086 58.273)">
      <path id="Trazado_202312" data-name="Trazado 202312" d="M53.9,38h3.237a3.247,3.247,0,0,1,3.237,3.237v3.237a3.247,3.247,0,0,1-3.237,3.237h-25.9A3.247,3.247,0,0,1,28,44.475V41.237A3.247,3.247,0,0,1,31.237,38H53.9Z" transform="translate(-28 -38)" fill="#fcd770"/>
    </g>
    <g id="Grupo_142665" data-name="Grupo 142665" transform="translate(38.849 0)">
      <path id="Trazado_202313" data-name="Trazado 202313" d="M35.712,26.005a3.775,3.775,0,0,0-2.881-3.674l-4.84-1.214c-.615-.146-1.214-.324-1.813-.486v-.016A17.324,17.324,0,0,1,26,18.187a16,16,0,0,1,1.36-6.475A16.192,16.192,0,1,1,31.018,29.89l1.2-.1A3.807,3.807,0,0,0,35.712,26.005Z" transform="translate(-26 -2)" fill="#fcd770"/>
    </g>
    <g id="Grupo_142666" data-name="Grupo 142666" transform="translate(12.95)">
      <path id="Trazado_202314" data-name="Trazado 202314" d="M45.482,3.408a16.2,16.2,0,0,0-8.223,8.3H29.182a3,3,0,0,0-1.344,5.682,48.583,48.583,0,0,0,8.239,3.221v.016c.6.162,1.2.34,1.813.486l4.84,1.214a3.792,3.792,0,0,1-.615,7.462l-1.2.1L25.637,31.056c-.712.049-1.424.081-2.153.081A28.011,28.011,0,0,1,13.076,29.13L10,27.9V8.475l5.277-2.1a27.954,27.954,0,0,1,5.811-1.635l15.1-2.509A16.526,16.526,0,0,1,38.862,2a16.2,16.2,0,0,1,6.621,1.408Z" transform="translate(-10 -2)" fill="#f0d0b4"/>
    </g>
    <g id="Grupo_142667" data-name="Grupo 142667" transform="translate(0 3.237)">
      <path id="Trazado_202315" data-name="Trazado 202315" d="M14.95,7.237V26.662L2,29.9V4Z" transform="translate(-2 -4)" fill="#b4dd7f"/>
    </g>
  </g>
  <g id="Grupo_142669" data-name="Grupo 142669">
    <path id="Trazado_202316" data-name="Trazado 202316" d="M36.237,24.19v3.472h3.237V24.19a4.6,4.6,0,0,0,.683-8.518L37,14.094a1.383,1.383,0,0,1,.618-2.619h.473a1.385,1.385,0,0,1,1.382,1.382v.236h3.237v-.236a4.608,4.608,0,0,0-3.237-4.385V5H36.237V8.472a4.6,4.6,0,0,0-.683,8.518l3.156,1.578a1.383,1.383,0,0,1-.618,2.619H37.62A1.385,1.385,0,0,1,36.237,19.8V17.95H33V19.8A4.612,4.612,0,0,0,36.237,24.19Z" transform="translate(18.799 1.475)"/>
    <path id="Trazado_202317" data-name="Trazado 202317" d="M18.048,31.254A29.5,29.5,0,0,0,29.06,33.374q1.139,0,2.274-.087l14.578-1.122A17.8,17.8,0,1,0,57.655,1a17.7,17.7,0,0,0-6.6,1.282A17.879,17.879,0,0,0,41.49,1.243L26.385,3.762a29.576,29.576,0,0,0-6.138,1.717L15.453,7.4,1,3.783V33.831l14.453-3.613ZM72.223,18.806a14.552,14.552,0,0,1-22.1,12.456A5.386,5.386,0,0,0,48.7,21.375l-4.853-1.214c-.227-.057-.448-.128-.673-.188-.029-.39-.086-.777-.086-1.167a14.568,14.568,0,0,1,29.137,0Zm-32.369.149a47.572,47.572,0,0,1-5.716-2.386,1.383,1.383,0,0,1,.618-2.619h5.782a17.751,17.751,0,0,0-.69,4.856C39.849,18.856,39.854,18.906,39.854,18.955Zm-18.4-10.47a26.382,26.382,0,0,1,5.468-1.53L42.023,4.437a14.612,14.612,0,0,1,5.057.078,17.9,17.9,0,0,0-5.266,6.2H34.757a4.62,4.62,0,0,0-2.065,8.752A50.717,50.717,0,0,0,43.062,23.3l4.853,1.214a2.175,2.175,0,0,1-.361,4.278L31.085,30.059a26.287,26.287,0,0,1-11.834-1.811l-2.064-.826V10.189Zm-7.5,18.769L4.237,29.682V7.93l9.712,2.428Z" transform="translate(-1 -1)"/>
    <path id="Trazado_202318" data-name="Trazado 202318" d="M90.728,45.36l-7.1-10.648h.214a4.856,4.856,0,1,0,0-9.712H22.331a4.856,4.856,0,1,0,0,9.712h.214l-7.1,10.648A26.467,26.467,0,0,0,37.469,86.511H68.7A26.469,26.469,0,0,0,90.728,45.36Zm-70.016-15.5a1.62,1.62,0,0,1,1.619-1.619H83.842a1.619,1.619,0,0,1,0,3.237H22.331A1.62,1.62,0,0,1,20.712,29.856ZM40.137,70.324V67.086h3.237v3.237h3.237V67.086h3.237v3.237h3.237V67.086h3.237v3.237h3.237V67.086H61.18A1.62,1.62,0,0,1,62.8,68.705v3.237a1.62,1.62,0,0,1-1.619,1.619h-25.9a1.62,1.62,0,0,1-1.619-1.619V68.705a1.62,1.62,0,0,1,1.619-1.619H36.9v3.237Zm6.475-8.094V58.993a1.62,1.62,0,0,1,1.619-1.619h1.619v3.237h3.237V57.374h3.237v3.237h3.237V57.374H62.8v3.237h3.237V57.374h3.237v3.237h3.237V57.374H74.13a1.62,1.62,0,0,1,1.619,1.619V62.23a1.62,1.62,0,0,1-1.619,1.619H48.23A1.62,1.62,0,0,1,46.612,62.23Zm0-11.331V47.662h3.237V50.9h3.237V47.662h3.237V50.9h3.237V47.662H62.8V50.9h3.237V47.662h1.619a1.62,1.62,0,0,1,1.619,1.619v3.237a1.62,1.62,0,0,1-1.619,1.619h-25.9a1.62,1.62,0,0,1-1.619-1.619V49.281a1.62,1.62,0,0,1,1.619-1.619h1.619V50.9ZM41.755,83.273a1.62,1.62,0,0,1-1.619-1.619V78.417A1.62,1.62,0,0,1,41.755,76.8h1.619v3.237h3.237V76.8h3.237v3.237h3.237V76.8h3.237v3.237h3.237V76.8H62.8v3.237h3.237V76.8h1.619a1.62,1.62,0,0,1,1.619,1.619v3.237a1.62,1.62,0,0,1-1.619,1.619Zm30.553-.309a4.8,4.8,0,0,0,.2-1.31V78.417a4.862,4.862,0,0,0-4.856-4.856H65.738a4.8,4.8,0,0,0,.3-1.619V68.705a4.8,4.8,0,0,0-.3-1.619H74.13a4.862,4.862,0,0,0,4.856-4.856V58.993a4.862,4.862,0,0,0-4.856-4.856H72.213a4.8,4.8,0,0,0,.3-1.619V49.281a4.862,4.862,0,0,0-4.856-4.856h-25.9A4.862,4.862,0,0,0,36.9,49.281v3.237a4.862,4.862,0,0,0,4.856,4.856h1.917a4.8,4.8,0,0,0-.3,1.619V62.23a4.8,4.8,0,0,0,.3,1.619H35.281a4.862,4.862,0,0,0-4.856,4.856v3.237A4.862,4.862,0,0,0,35.281,76.8H37.2a4.8,4.8,0,0,0-.3,1.619v3.237a4.755,4.755,0,0,0,.295,1.6,23.222,23.222,0,0,1-19.055-36.1l8.3-12.443h53.3l8.3,12.445A23.207,23.207,0,0,1,72.309,82.964Z" transform="translate(5.187 13.849)"/>
    <path id="Trazado_202319" data-name="Trazado 202319" d="M0,0H3.237V3.891H0Z" transform="matrix(0.832, -0.555, 0.555, 0.832, 79.912, 52.67)"/>
    <path id="Trazado_202320" data-name="Trazado 202320" d="M59.338,41.871l-3.616-5.426-2.694,1.8,3.616,5.426a16.708,16.708,0,0,1,2.813,9.295l-.008.521,3.236.1q.01-.308.01-.617a19.933,19.933,0,0,0-3.357-11.09Z" transform="translate(31.19 20.93)"/>
    <path id="Trazado_202321" data-name="Trazado 202321" d="M15.944,51.859a20.054,20.054,0,0,0,2,3.66l2.664-1.84a16.722,16.722,0,0,1-1.671-3.063Z" transform="translate(8.246 29.698)"/>
    <path id="Trazado_202322" data-name="Trazado 202322" d="M18.357,40.015a20.013,20.013,0,0,0-2.925,15.232l3.168-.67A16.772,16.772,0,0,1,21.051,41.81l.379-.57-2.694-1.8Z" transform="translate(7.662 22.786)"/>
  </g>
</svg>
