<svg xmlns="http://www.w3.org/2000/svg" width="337.777" height="232.097" viewBox="0 0 337.777 232.097">
  <g id="Grupo_143815" data-name="Grupo 143815" transform="translate(-77.037 -46.592)">
    <g id="Grupo_143814" data-name="Grupo 143814" transform="translate(77.037 46.592)">
      <g id="Grupo_143719" data-name="Grupo 143719" transform="translate(0 121.634)">
        <g id="Grupo_143714" data-name="Grupo 143714" transform="translate(279.035 30.984)">
          <g id="Grupo_143711" data-name="Grupo 143711" transform="translate(4.499 4.668)">
            <path id="Trazado_209755" data-name="Trazado 209755" d="M3525.488,2053.513s36.58-33.435,49.177-67.089C3574.665,1986.424,3539.844,1989.363,3525.488,2053.513Z" transform="translate(-3525.488 -1986.424)" fill="#afe684" fill-rule="evenodd"/>
            <path id="Trazado_209756" data-name="Trazado 209756" d="M3594.1,2080.081c.655-1.212,1.362-2.394,2.077-3.571s1.405-2.37,2.146-3.531c1.48-2.322,2.975-4.636,4.534-6.907,3.125-4.535,6.382-8.979,9.837-13.267,3.439-4.3,7.058-8.455,10.9-12.39-1.7,2.164-3.409,4.311-5.054,6.51-1.672,2.176-3.309,4.378-4.95,6.574-3.256,4.413-6.447,8.87-9.531,13.4-3.122,4.5-6.082,9.114-8.98,13.765l-2.151,3.5-2.081,3.548c-1.459,2.33-2.678,4.788-4.088,7.155A144.655,144.655,0,0,1,3594.1,2080.081Z" transform="translate(-3580.841 -2035.193)" fill="#fff" opacity="0.3" style="mix-blend-mode: overlay;isolation: isolate"/>
          </g>
          <g id="Grupo_143712" data-name="Grupo 143712">
            <path id="Trazado_209757" data-name="Trazado 209757" d="M3483.082,2007.47s14.741-39.162,11.345-69.313C3494.427,1938.157,3469.343,1953.692,3483.082,2007.47Z" transform="translate(-3478.969 -1938.157)" fill="#65846d" fill-rule="evenodd"/>
            <path id="Trazado_209758" data-name="Trazado 209758" d="M3535.569,2045.32c.029-1.163.109-2.323.2-3.482s.151-2.322.263-3.479c.226-2.315.465-4.628.771-6.934.616-4.609,1.368-9.2,2.328-13.75s2.078-9.065,3.467-13.5c-.45,2.279-.917,4.549-1.313,6.834-.426,2.278-.815,4.561-1.211,6.842-.762,4.568-1.458,9.143-2.047,13.732-.627,4.584-1.091,9.187-1.493,13.8l-.278,3.461-.209,3.467c-.207,2.312-.184,4.628-.34,6.949A122.264,122.264,0,0,1,3535.569,2045.32Z" transform="translate(-3529.968 -1997.793)" fill="#fff" opacity="0.3" style="mix-blend-mode: overlay;isolation: isolate"/>
          </g>
          <g id="Grupo_143713" data-name="Grupo 143713" transform="translate(5.36 36.224)">
            <path id="Trazado_209759" data-name="Trazado 209759" d="M3538.537,2353.222s30.4-15.971,40.243-26.279l8.583,29.039s2.895-27.27-6.569-43.254c0,0-28.377,5.764-46.4,36.2Z" transform="translate(-3534.398 -2312.728)" fill="#afe684" fill-rule="evenodd"/>
            <path id="Trazado_209760" data-name="Trazado 209760" d="M3637.81,2387.892l2.032-1.823c2.737-2.4,5.579-4.686,8.529-6.822q4.408-3.228,9.053-6.114c3.095-1.928,6.249-3.73,9.509-5.41l.57-.294.322.535a37.614,37.614,0,0,1,2.957,5.961,47.774,47.774,0,0,1,1.9,6.329,55.523,55.523,0,0,1,1.055,6.493,50.588,50.588,0,0,1,.291,6.548,69.3,69.3,0,0,0-2.271-12.808,50,50,0,0,0-2.109-6.1,36.4,36.4,0,0,0-2.65-5.123c-2.979,1.6-5.916,3.333-8.812,5.1-3.076,1.9-6.1,3.88-9.072,5.928s-5.88,4.2-8.734,6.423-5.593,4.589-8.308,7c1.241-1.322,2.451-2.686,3.778-3.929Z" transform="translate(-3622.625 -2362.14)" fill="#fff" opacity="0.3" style="mix-blend-mode: overlay;isolation: isolate"/>
          </g>
        </g>
        <g id="Grupo_143718" data-name="Grupo 143718">
          <g id="Grupo_143715" data-name="Grupo 143715" transform="translate(6.556 6.04)">
            <path id="Trazado_209761" data-name="Trazado 209761" d="M725.031,1767.026s-47.332-43.263-63.63-86.808C661.4,1680.218,706.456,1684.02,725.031,1767.026Z" transform="translate(-661.401 -1680.218)" fill="#afe684" fill-rule="evenodd"/>
            <path id="Trazado_209762" data-name="Trazado 209762" d="M785.414,1801.4c-.848-1.569-1.763-3.1-2.688-4.621s-1.818-3.067-2.775-4.569c-1.916-3.005-3.849-6-5.867-8.937-4.043-5.869-8.258-11.619-12.728-17.167-4.451-5.56-9.133-10.94-14.109-16.032,2.2,2.8,4.41,5.578,6.539,8.424,2.164,2.816,4.281,5.665,6.406,8.506,4.213,5.71,8.341,11.477,12.332,17.337,4.04,5.827,7.87,11.793,11.62,17.811l2.783,4.534,2.692,4.59c1.888,3.014,3.465,6.194,5.29,9.258A187.305,187.305,0,0,0,785.414,1801.4Z" transform="translate(-738.945 -1743.318)" fill="#afe684" opacity="0.3" style="mix-blend-mode: overlay;isolation: isolate"/>
          </g>
          <g id="Grupo_143716" data-name="Grupo 143716" transform="translate(55.349)">
            <path id="Trazado_209763" data-name="Trazado 209763" d="M1181.278,1707.448s-19.073-50.673-14.68-89.685C1166.6,1617.763,1199.055,1637.863,1181.278,1707.448Z" transform="translate(-1165.941 -1617.763)" fill="#65846d" fill-rule="evenodd"/>
            <path id="Trazado_209764" data-name="Trazado 209764" d="M1219.712,1756.423c-.038-1.505-.142-3.006-.255-4.506s-.195-3-.341-4.5c-.292-2.995-.6-5.988-1-8.971-.8-5.964-1.77-11.905-3.012-17.791-1.223-5.888-2.688-11.729-4.486-17.465.583,2.949,1.186,5.886,1.7,8.842.551,2.947,1.055,5.9,1.567,8.853.987,5.91,1.887,11.83,2.649,17.767.812,5.931,1.412,11.887,1.931,17.852l.36,4.478.27,4.485c.268,2.991.238,5.988.439,8.992A158.118,158.118,0,0,0,1219.712,1756.423Z" transform="translate(-1206.301 -1694.927)" fill="#65846d" opacity="0.3" style="mix-blend-mode: overlay;isolation: isolate"/>
          </g>
          <g id="Grupo_143717" data-name="Grupo 143717" transform="translate(0 46.87)">
            <path id="Trazado_209765" data-name="Trazado 209765" d="M657.32,2154.822s-39.333-20.666-52.071-34l-11.105,37.575s-3.746-35.286,8.5-55.968c0,0,36.718,7.458,60.033,46.835Z" transform="translate(-593.604 -2102.426)" fill="#afe684" fill-rule="evenodd"/>
            <path id="Trazado_209766" data-name="Trazado 209766" d="M666.743,2199.684l-2.629-2.359c-3.542-3.1-7.218-6.063-11.035-8.826q-5.7-4.177-11.714-7.91c-4-2.495-8.086-4.827-12.3-7l-.737-.38-.417.691a48.741,48.741,0,0,0-3.826,7.713,61.793,61.793,0,0,0-2.46,8.19,71.9,71.9,0,0,0-1.365,8.4,65.436,65.436,0,0,0-.376,8.473,89.621,89.621,0,0,1,2.939-16.573,64.593,64.593,0,0,1,2.729-7.9,47.125,47.125,0,0,1,3.429-6.628c3.855,2.066,7.654,4.312,11.4,6.6,3.98,2.452,7.887,5.02,11.738,7.67s7.609,5.437,11.3,8.311c3.712,2.857,7.237,5.938,10.75,9.064-1.606-1.71-3.172-3.475-4.889-5.083Z" transform="translate(-617.319 -2166.363)" fill="#fff" opacity="0.3" style="mix-blend-mode: overlay;isolation: isolate"/>
          </g>
        </g>
      </g>
      <path id="Trazado_209767" data-name="Trazado 209767" d="M3381.731,677.675c-2.154-3.988-4.621-3.925-6.147-3.229s-1.66-.57-1.66-.57a6.742,6.742,0,0,0-.314-4.685c-1.121-2.342-3.993-1.9-3.993-1.9s1.122-2.216.4-6.457c-.019-.11-.043-.212-.064-.319,1.8-5.732-2.82-9.487-4.377-10.482s1.459,1.514.631,4.1a7.794,7.794,0,0,0-.207.8,3.294,3.294,0,0,0-.693-.173c-1.526-.19-3.186-2.342-3.186-2.342-2.468-3.608-6.012-3.292-7.941.317s.179,5.761-.493,7.533-2.243.253-3.724,2.722,1.211,4.875.9,6.394-2.154,1.772-2.154,1.772-4.666-.253-5.2,6.584,6.057,8.609,6.057,8.609,24.9,3.608,28.58,3.1S3383.884,681.664,3381.731,677.675Z" transform="translate(-3077.542 -621.786)"/>
      <ellipse id="Elipse_6926" data-name="Elipse 6926" cx="111.922" cy="9.327" rx="111.922" ry="9.327" transform="translate(41.829 210.449)" fill="#ff8762"/>
      <ellipse id="Elipse_6927" data-name="Elipse 6927" cx="53.792" cy="6.174" rx="53.792" ry="6.174" transform="translate(217.417 216.755)" fill="#ff8762"/>
      <g id="Grupo_143727" data-name="Grupo 143727" transform="translate(62.24 75.484)">
        <path id="Trazado_209768" data-name="Trazado 209768" d="M2585.809,1180.922v101.265h-80.753V1180.922l40.376-40.376Z" transform="translate(-2382.445 -1140.546)" fill="#c9c2a6"/>
        <path id="Trazado_209769" data-name="Trazado 209769" d="M1237.2,1180.922h122.611l40.376-40.376H1277.575Z" transform="translate(-1237.199 -1140.546)" fill="#ff725e"/>
        <rect id="Rectángulo_43206" data-name="Rectángulo 43206" width="122.611" height="8.916" transform="translate(0 40.376)" fill="#e26625"/>
        <path id="Trazado_209871" data-name="Trazado 209871" d="M0,0H122.611V92.348H0Z" transform="translate(0 49.292)" fill="#efe9cf"/>
        <g id="Grupo_143723" data-name="Grupo 143723" transform="translate(8.987 80.791)">
          <g id="Grupo_143720" data-name="Grupo 143720">
            <rect id="Rectángulo_43208" data-name="Rectángulo 43208" width="14.015" height="26.295" transform="translate(3.604)" fill="#ffe880"/>
            <path id="Trazado_209770" data-name="Trazado 209770" d="M1333.734,2002.26v-26.3h-3.6v28.3h17.619v-2Z" transform="translate(-1330.13 -1975.964)" fill="#ff725e"/>
          </g>
          <g id="Grupo_143721" data-name="Grupo 143721" transform="translate(80.982)">
            <rect id="Rectángulo_43209" data-name="Rectángulo 43209" width="14.015" height="26.295" transform="translate(3.604)" fill="#ffe880"/>
            <path id="Trazado_209771" data-name="Trazado 209771" d="M2171.128,2002.26v-26.3h-3.6v28.3h17.62v-2Z" transform="translate(-2167.524 -1975.964)" fill="#ff725e"/>
          </g>
          <g id="Grupo_143722" data-name="Grupo 143722" transform="translate(31.389)">
            <rect id="Rectángulo_43210" data-name="Rectángulo 43210" width="35.521" height="60.85" fill="#263238"/>
            <rect id="Rectángulo_43211" data-name="Rectángulo 43211" width="56.163" height="26.15" transform="translate(30.836 4.686) rotate(90)" fill="#ffe880"/>
          </g>
        </g>
        <g id="Grupo_143725" data-name="Grupo 143725" transform="translate(152.293 80.791)">
          <rect id="Rectángulo_43212" data-name="Rectángulo 43212" width="20.5" height="38.462" fill="#ffd161"/>
          <g id="Grupo_143724" data-name="Grupo 143724" style="mix-blend-mode: multiply;isolation: isolate">
            <path id="Trazado_209772" data-name="Trazado 209772" d="M2832.491,2014.426v-38.462h5.271v41.391h-25.771v-2.929Z" transform="translate(-2811.991 -1975.964)" fill="#de614f"/>
          </g>
        </g>
        <path id="Trazado_209773" data-name="Trazado 209773" d="M1909.539,1367.718c-.314-.611-38.412,18.245-38.412,18.245l61.305.149,3.69-18.394Z" transform="translate(-1809.822 -1345.736)" fill="#de614f"/>
        <g id="Grupo_143726" data-name="Grupo 143726" transform="translate(122.611 0)" style="mix-blend-mode: multiply;isolation: isolate">
          <path id="Trazado_209774" data-name="Trazado 209774" d="M2585.809,1180.922v10.71l-39.4-38-41.349,36.2v-8.916l40.376-40.376Z" transform="translate(-2505.056 -1140.546)" fill="#d15948"/>
        </g>
      </g>
      <g id="Grupo_143739" data-name="Grupo 143739" transform="translate(135.38 6.147)">
        <g id="Grupo_143736" data-name="Grupo 143736">
          <g id="Grupo_143734" data-name="Grupo 143734">
            <g id="Grupo_143729" data-name="Grupo 143729" transform="translate(15.16 9.762)">
              <g id="Grupo_143728" data-name="Grupo 143728">
                <path id="Trazado_209775" data-name="Trazado 209775" d="M2201.6,546.976a25.565,25.565,0,0,1,.211,3.884q-.025,1.229-.169,2.437a25.684,25.684,0,0,1-1.728,6.7,25.744,25.744,0,1,1-4.681-26.919,25.74,25.74,0,0,1,3.793,5.538q.514,1.013.941,2.085a25.809,25.809,0,0,1,1.17,3.728c.037.159.073.319.107.48Q2201.466,545.942,2201.6,546.976Z" transform="translate(-2150.265 -524.505)" fill="#f4ad2e"/>
              </g>
            </g>
            <g id="Grupo_143731" data-name="Grupo 143731">
              <g id="Grupo_143730" data-name="Grupo 143730">
                <circle id="Elipse_6928" data-name="Elipse 6928" cx="25.77" cy="25.77" r="25.77" transform="translate(0 36.445) rotate(-45)" fill="#ffcc4d"/>
              </g>
            </g>
            <g id="Grupo_143733" data-name="Grupo 143733" transform="translate(6.359 6.033)" style="mix-blend-mode: multiply;isolation: isolate">
              <g id="Grupo_143732" data-name="Grupo 143732" transform="translate(0 0)">
                <circle id="Elipse_6929" data-name="Elipse 6929" cx="21.464" cy="21.464" r="21.464" transform="translate(0 30.355) rotate(-45)" fill="#f4ad2e"/>
              </g>
            </g>
          </g>
          <g id="Grupo_143735" data-name="Grupo 143735" transform="translate(41.81 10.429)">
            <path id="Trazado_209776" data-name="Trazado 209776" d="M2437.829,534.178l-4.734.768a25.8,25.8,0,0,0-7.251-2.74l4.955-.8A25.773,25.773,0,0,1,2437.829,534.178Z" transform="translate(-2425.844 -531.401)" fill="#f4ad2e" style="mix-blend-mode: multiply;isolation: isolate"/>
            <path id="Trazado_209777" data-name="Trazado 209777" d="M2537.647,582.018l-4.63.751a25.876,25.876,0,0,0-3.677-3.321l4.686-.76A25.813,25.813,0,0,1,2537.647,582.018Z" transform="translate(-2519.33 -574.115)" fill="#f4ad2e" style="mix-blend-mode: multiply;isolation: isolate"/>
            <path id="Trazado_209778" data-name="Trazado 209778" d="M2590.989,637.124l-4.574.743a25.473,25.473,0,0,0-2.222-3.557l4.607-.748A25.322,25.322,0,0,1,2590.989,637.124Z" transform="translate(-2568.88 -623.683)" fill="#f4ad2e" style="mix-blend-mode: multiply;isolation: isolate"/>
            <path id="Trazado_209779" data-name="Trazado 209779" d="M2622.8,695.672l-4.531.735a25.874,25.874,0,0,0-1.2-3.723l4.558-.739A25.78,25.78,0,0,1,2622.8,695.672Z" transform="translate(-2598.581 -676.418)" fill="#f4ad2e" style="mix-blend-mode: multiply;isolation: isolate"/>
            <path id="Trazado_209780" data-name="Trazado 209780" d="M2638.928,756.86a25.6,25.6,0,0,1,.211,3.884l-4.487.728a25.782,25.782,0,0,0-.238-3.879Z" transform="translate(-2614.244 -735.057)" fill="#f4ad2e" style="mix-blend-mode: multiply;isolation: isolate"/>
            <path id="Trazado_209781" data-name="Trazado 209781" d="M2632.485,822.214a25.507,25.507,0,0,1-.812,4.049l-4.438.72a25.571,25.571,0,0,0,.78-4.045Z" transform="translate(-2607.759 -794.09)" fill="#f4ad2e" style="mix-blend-mode: multiply;isolation: isolate"/>
            <path id="Trazado_209782" data-name="Trazado 209782" d="M2602.055,891.479a25.862,25.862,0,0,1-2.231,4.279l-4.363.708a25.843,25.843,0,0,0,2.181-4.271Z" transform="translate(-2579.058 -856.657)" fill="#f4ad2e" style="mix-blend-mode: multiply;isolation: isolate"/>
            <path id="Trazado_209783" data-name="Trazado 209783" d="M2523.2,968.253a25.677,25.677,0,0,1-5.816,4.862l-4.1.666a25.687,25.687,0,0,0,5.609-4.828Z" transform="translate(-2504.827 -926.006)" fill="#f4ad2e" style="mix-blend-mode: multiply;isolation: isolate"/>
          </g>
        </g>
        <g id="Grupo_143737" data-name="Grupo 143737" transform="translate(28.161 19.199)">
          <path id="Trazado_209784" data-name="Trazado 209784" d="M2295.448,654.5l-.743-3.678a15.917,15.917,0,0,1-6.922-.335l.248-4.768a13.967,13.967,0,0,0,6.775.4c2.208-.446,3.546-1.6,3.233-3.151-.3-1.473-1.725-2.153-4.787-2.542-4.426-.557-7.646-1.922-8.405-5.678-.689-3.41,1.175-6.567,5.154-8.218l-.743-3.681,3.794-.766.688,3.41a14.261,14.261,0,0,1,5.875.143l-.238,4.6a13.1,13.1,0,0,0-5.845-.191c-2.517.508-3.111,1.758-2.892,2.843.258,1.277,1.779,1.817,5.322,2.392,4.936.7,7.227,2.45,7.932,5.938.7,3.447-1.15,6.883-5.447,8.559l.8,3.949Z" transform="translate(-2284.706 -622.083)" fill="#d75c14"/>
        </g>
        <g id="Grupo_143738" data-name="Grupo 143738" transform="translate(26.583 19.517)">
          <path id="Trazado_209785" data-name="Trazado 209785" d="M2279.133,657.792l-.743-3.678a15.918,15.918,0,0,1-6.922-.335l.248-4.768a13.969,13.969,0,0,0,6.775.4c2.208-.446,3.547-1.6,3.234-3.151-.3-1.473-1.725-2.153-4.787-2.542-4.426-.557-7.646-1.922-8.405-5.678-.689-3.41,1.175-6.567,5.155-8.218l-.744-3.681,3.794-.766.689,3.41a14.263,14.263,0,0,1,5.875.143l-.238,4.6a13.1,13.1,0,0,0-5.845-.191c-2.517.508-3.112,1.758-2.892,2.843.258,1.277,1.778,1.817,5.321,2.392,4.937.7,7.228,2.45,7.932,5.938.7,3.447-1.15,6.883-5.447,8.559l.8,3.949Z" transform="translate(-2268.392 -625.379)" fill="#ffea4d"/>
        </g>
      </g>
      <g id="Grupo_143740" data-name="Grupo 143740" transform="translate(142.131 53.501)">
        <path id="Trazado_209786" data-name="Trazado 209786" d="M2069.921,982.152l19.188,37.3s3.285,2.2,12.627,2.2c10.908,0,13.956-2.2,13.956-2.2l19.184-37.3Z" transform="translate(-2069.281 -975.486)" fill="#cfdac3"/>
        <path id="Trazado_209787" data-name="Trazado 209787" d="M2184.455,1089.113l11.1,22.9h5.358l-4.491-22.9Z" transform="translate(-2172.74 -1072.103)" fill="#fffaee"/>
        <path id="Trazado_209788" data-name="Trazado 209788" d="M2129.537,923.368v-6.951a3.188,3.188,0,0,0-3.179-3.193H2066.5a3.2,3.2,0,0,0-3.189,3.193v6.948a3.193,3.193,0,0,0,3.189,3.188l59.859,0A3.18,3.18,0,0,0,2129.537,923.368Z" transform="translate(-2063.31 -913.224)" fill="#bcc3ab"/>
        <path id="Trazado_209789" data-name="Trazado 209789" d="M2120.747,940.7a1.861,1.861,0,0,1-1.861,1.861h-17.942a1.859,1.859,0,0,1-1.859-1.861h0a1.859,1.859,0,0,1,1.859-1.859h17.942a1.862,1.862,0,0,1,1.861,1.859Z" transform="translate(-2095.625 -936.359)" fill="#e1dacd"/>
      </g>
      <g id="Grupo_143788" data-name="Grupo 143788" transform="translate(235.321 25.397)">
        <g id="Grupo_143755" data-name="Grupo 143755">
          <g id="Grupo_143754" data-name="Grupo 143754">
            <g id="Grupo_143753" data-name="Grupo 143753">
              <path id="Trazado_209790" data-name="Trazado 209790" d="M3185.5,1110.824l-4.4,14.489-3.314,10.908-10.354-4.648c1.649-6.285,3.361-11.684,5.083-16.324.96-2.59,1.924-4.943,2.881-7.082Z" transform="translate(-3153.849 -1061.211)" fill="#ffb9b9"/>
              <path id="Trazado_209791" data-name="Trazado 209791" d="M3232.98,1110.824l-4.4,14.489c-.774.8-1.282,1.3-1.282,1.3s-2.588-5.946-3.351-7.066c-.491-.721-2.55-2.866-3.952-4.3.961-2.59,1.925-4.943,2.881-7.082Z" transform="translate(-3201.324 -1061.211)" fill="#f68c9a"/>
              <path id="Trazado_209792" data-name="Trazado 209792" d="M3203.1,911.745l-3.305,3.187-11.6,11.188-5.293-3.939-6.415-4.769s6.7-10.9,11.772-15.241a21.337,21.337,0,0,1,10.627-4.623S3198.094,908.384,3203.1,911.745Z" transform="translate(-3162.022 -870.96)" fill="#ff725e"/>
              <path id="Trazado_209793" data-name="Trazado 209793" d="M3259.712,981.919l-11.6,11.188-5.293-3.939a8.879,8.879,0,0,0,3.1-6.93c.21-6.9,8.325-10.532,8.325-10.532a45.929,45.929,0,0,1,4.874,3.843C3260.223,976.758,3259.867,978.75,3259.712,981.919Z" transform="translate(-3221.94 -937.947)" fill="#de614f"/>
              <g id="Grupo_143745" data-name="Grupo 143745">
                <g id="Grupo_143741" data-name="Grupo 143741" transform="translate(0 64.036)">
                  <path id="Trazado_209794" data-name="Trazado 209794" d="M3060.472,1294.647l-5.635,21.411-24.32-9.335-3.572-1.371,7.466-20.566,15.587,5.9Z" transform="translate(-3026.947 -1284.786)" fill="#dfcb77"/>
                  <path id="Trazado_209795" data-name="Trazado 209795" d="M3050,1290.684c-1.245,9.442-14.928,14.628-19.481,16.039l-3.572-1.371,7.466-20.566Z" transform="translate(-3026.947 -1284.786)" fill="#ffe98f"/>
                  <path id="Trazado_209796" data-name="Trazado 209796" d="M3113.916,1478.765a2.071,2.071,0,0,1-2.945.327c-2.087-.37-3.5-.634-4.8-2.073a2.022,2.022,0,0,1-1.159-2.795c1.025-2.054,2.612-4.95,3.366-4.835.948.144.261,3.068.261,3.068s1.58-3.71,3.078-3.22c.668.22-.939,3.752-1.1,4.124.252-.338,2.256-3.034,3.023-2.468s-1.1,3.761-1.3,4.1c.217-.271,1.977-2.392,2.834-1.69C3115.547,1473.613,3114.963,1475.768,3113.916,1478.765Z" transform="translate(-3097.274 -1451.359)" fill="#ffb9b9"/>
                </g>
                <g id="Grupo_143743" data-name="Grupo 143743" transform="translate(23.943 25.355)">
                  <path id="Trazado_209797" data-name="Trazado 209797" d="M3315.494,936.463c-14.157,5.384-40.962,3.1-40.962,3.1.989-10.286-1.491-51.851,16.9-54.756l7.083.744c3.71,1.454,6.609,7,8.79,13.582a108.609,108.609,0,0,1,3.186,12.238C3312.231,919.784,3315.494,936.463,3315.494,936.463Z" transform="translate(-3274.531 -884.81)" fill="#ff725e"/>
                  <g id="Grupo_143742" data-name="Grupo 143742" transform="translate(23.028 0.738)">
                    <path id="Trazado_209798" data-name="Trazado 209798" d="M3513.6,892.446l-.951,13.629,14.546,7.768,2.945-14.12C3517.354,892.168,3513.6,892.446,3513.6,892.446Z" transform="translate(-3512.652 -892.445)" fill="#de614f"/>
                  </g>
                  <path id="Trazado_209799" data-name="Trazado 209799" d="M3420.345,958.568a5.887,5.887,0,0,1-4.87-2.253.317.317,0,0,1,.532-.344c.11.168,2.763,4.065,9.445.457a.317.317,0,1,1,.3.558A11.457,11.457,0,0,1,3420.345,958.568Z" transform="translate(-3401.8 -948.959)" fill="#fff"/>
                </g>
                <g id="Grupo_143744" data-name="Grupo 143744" transform="translate(35.335)">
                  <path id="Trazado_209800" data-name="Trazado 209800" d="M3400.129,630.439s-.091-10.014,12.345-7.375a9.221,9.221,0,0,1,5.3,3.255c2.024,2.5,3.32,13.032-2.465,15.953C3408.053,645.934,3400.129,630.439,3400.129,630.439Z" transform="translate(-3399.375 -622.621)"/>
                  <path id="Trazado_209801" data-name="Trazado 209801" d="M3439.094,790.86l-.287,10.058a4.911,4.911,0,0,1-4.649,4.758c-.084.008-.168.008-.253.008a4.912,4.912,0,0,1-4.885-5.333l.017-.161.659-7.64.837-.152Z" transform="translate(-3425.455 -774.59)" fill="#ffb9b9"/>
                  <path id="Trazado_209802" data-name="Trazado 209802" d="M3435.161,808.82a11.688,11.688,0,0,1-5.8,5.739l.659-7.64.837-.152Z" transform="translate(-3425.782 -788.958)" fill="#f68c9a"/>
                  <path id="Trazado_209803" data-name="Trazado 209803" d="M3406.819,658.035l-.845,7.5s-2.747,6.021-9.4,5.388c-2.487-.237-3.6-2.231-4.023-4.634a16.246,16.246,0,0,1-.217-2.766,31.382,31.382,0,0,1,.754-6.44l3.064-2.957,6.549-2.008Z" transform="translate(-3392.331 -649.266)" fill="#ffb9b9"/>
                  <path id="Trazado_209804" data-name="Trazado 209804" d="M3400.129,649.191s6.123-3.435,8.346,1.162c1.549,3.2,3.909,4.965,6.233,3.909s.423-8.663.423-8.663l-8.663-2.219-5.177,2.958Z" transform="translate(-3399.375 -641.372)"/>
                  <ellipse id="Elipse_6930" data-name="Elipse 6930" cx="2.893" cy="2.391" rx="2.893" ry="2.391" transform="matrix(0.5, -0.866, 0.866, 0.5, 10.046, 14.493)" fill="#ffb9b9"/>
                  <path id="Trazado_209805" data-name="Trazado 209805" d="M3523.79,748.464h-.015a.211.211,0,0,1-.195-.226c.054-.75.527-2.168,1.936-2.168a.211.211,0,1,1,0,.423c-1.367,0-1.51,1.7-1.515,1.776A.212.212,0,0,1,3523.79,748.464Z" transform="translate(-3510.887 -734.131)" fill="#de7360"/>
                </g>
              </g>
              <g id="Grupo_143746" data-name="Grupo 143746" transform="translate(57.294 46.683)">
                <path id="Trazado_209806" data-name="Trazado 209806" d="M3658.9,1133.8l-5.948,4.53s-20.346-10.079-23.395-13.006a38.131,38.131,0,0,1-3.807-4.556c-.673-.909-1.354-1.869-2.022-2.834-.709-1.026-1.4-2.058-2.053-3.043l-.02-.03c-.854-1.3-1.631-2.507-2.263-3.509l14.285-6.011,2.743,4.732.738,1.272,2.271,3.915Z" transform="translate(-3619.392 -1105.343)" fill="#ffb9b9"/>
                <path id="Trazado_209807" data-name="Trazado 209807" d="M3637.158,1111.347l-13.429,6.589c-.709-1.026-1.4-2.058-2.053-3.043l-.02-.03-2.263-3.509,14.285-6.011,2.743,4.732Z" transform="translate(-3619.392 -1105.343)" fill="#f68c9a"/>
              </g>
              <path id="Trazado_209808" data-name="Trazado 209808" d="M3530.462,892.444s9.2.407,15.489,5,11.25,19.483,11.25,19.483l-16.755,5.119-3.215-13.138Z" transform="translate(-3481.768 -866.35)" fill="#ff725e"/>
              <path id="Trazado_209809" data-name="Trazado 209809" d="M3583.958,1015.409l4.315,17.863,15.854-4.844s-10.267,1.3-12.933-1.324S3583.958,1015.409,3583.958,1015.409Z" transform="translate(-3530.091 -977.424)" fill="#de614f"/>
              <path id="Trazado_209810" data-name="Trazado 209810" d="M3373.839,653.226c-.908,0-3.4-2.362-3.718-6.728a32.123,32.123,0,0,0,.881,4.459c.327.558-1.4-1.328-1.7-4.845a14.289,14.289,0,0,1-3.511,2.076,5.519,5.519,0,0,1-2.783.486c-.125-.114,2.28-1.022,2.9-1.822,0,0-4.312,2.3-6.344,2.573-.235.031-.786-4.807,2.253-7.042s8.161-.289,9.576.934c0,0,1.59.137,3.435,2.375S3374.816,653.23,3373.839,653.226Z" transform="translate(-3327.222 -639.549)"/>
              <g id="Grupo_143752" data-name="Grupo 143752" transform="translate(35.335 10.5)">
                <g id="Grupo_143749" data-name="Grupo 143749" transform="translate(0 0.91)">
                  <g id="Grupo_143747" data-name="Grupo 143747" transform="translate(1.99)">
                    <path id="Trazado_209811" data-name="Trazado 209811" d="M3414.285,746.084a.169.169,0,0,1-.109-.04c-.319-.267-1.355-1.174-1.266-1.654.086-.463,1.1-.569,1.651-.592a9.9,9.9,0,0,0,.087-3.009.17.17,0,0,1,.337-.042,9.594,9.594,0,0,1-.135,3.269.169.169,0,0,1-.157.118c-.774.02-1.426.19-1.45.319-.031.171.506.794,1.15,1.332a.17.17,0,0,1-.109.3Zm.405-2.12h0Z" transform="translate(-3412.905 -740.598)" fill="#de6277"/>
                  </g>
                  <path id="Trazado_209812" data-name="Trazado 209812" d="M3453.216,755.471a.477.477,0,1,0,.552-.472A.517.517,0,0,0,3453.216,755.471Z" transform="translate(-3447.321 -753.602)" fill="#0f1231"/>
                  <path id="Trazado_209813" data-name="Trazado 209813" d="M3404.283,754.972a.477.477,0,1,0,.552-.472A.516.516,0,0,0,3404.283,754.972Z" transform="translate(-3403.12 -753.151)" fill="#0f1231"/>
                  <g id="Grupo_143748" data-name="Grupo 143748" transform="translate(2.964 5.824)">
                    <path id="Trazado_209814" data-name="Trazado 209814" d="M3424.243,801.758a2.41,2.41,0,0,1-1.18-.327.17.17,0,0,1,.164-.3,1.9,1.9,0,0,0,2.33-.256.17.17,0,1,1,.249.23A2.3,2.3,0,0,1,3424.243,801.758Z" transform="translate(-3422.976 -800.824)" fill="#de6277"/>
                  </g>
                  <path id="Trazado_209815" data-name="Trazado 209815" d="M3452.758,768.915a2,2,0,1,0,1.981-1.559A1.8,1.8,0,0,0,3452.758,768.915Z" transform="translate(-3446.914 -764.768)" fill="#f68c9a"/>
                  <path id="Trazado_209816" data-name="Trazado 209816" d="M3393.606,771.568c-.008.519-.553.974-1.059,1.251a16.246,16.246,0,0,1-.217-2.766A1.644,1.644,0,0,1,3393.606,771.568Z" transform="translate(-3392.331 -767.205)" fill="#f68c9a"/>
                </g>
                <g id="Grupo_143750" data-name="Grupo 143750" transform="translate(5.322)">
                  <path id="Trazado_209817" data-name="Trazado 209817" d="M3450.2,732.442a.17.17,0,0,1-.144-.08,1.573,1.573,0,0,0-1.549-.825,2.324,2.324,0,0,0-.885.273.17.17,0,1,1-.174-.291,2.106,2.106,0,0,1,2.9.664.169.169,0,0,1-.144.26Z" transform="translate(-3447.368 -731.193)" fill="#59261b"/>
                </g>
                <g id="Grupo_143751" data-name="Grupo 143751" transform="translate(0.126 0.074)">
                  <path id="Trazado_209818" data-name="Trazado 209818" d="M3393.8,733.2a.17.17,0,0,1-.144-.26,2.107,2.107,0,0,1,2.9-.664.17.17,0,0,1-.174.292h0a1.75,1.75,0,0,0-2.435.552A.17.17,0,0,1,3393.8,733.2Z" transform="translate(-3393.633 -731.954)" fill="#59261b"/>
                </g>
              </g>
            </g>
          </g>
        </g>
        <g id="Grupo_143767" data-name="Grupo 143767" transform="translate(12.701 78.493)">
          <g id="Grupo_143766" data-name="Grupo 143766">
            <path id="Trazado_209819" data-name="Trazado 209819" d="M3186.269,2152.886l-19.29,2.156c-1.1.089-.9-1.188-.6-2.137.339-2.145,2.894-.4,4.3-.606l6.695-5.389c-.186-2.987-.686-14.812-1.3-26.683h0c-.237-4.64-.492-9.287-.751-13.416l13.146-3.439c1.054,3.385,1.186,8.932.89,14.881-.575,11.555-2.764,24.624-2.937,26.293-.155,1.488.223,2.96-.038,4.831C3186.357,2150.637,3187.688,2152.64,3186.269,2152.886Z" transform="translate(-3165.384 -2038.666)" fill="#ff725e"/>
            <path id="Trazado_209820" data-name="Trazado 209820" d="M3274.263,2103.371c1.054,3.385,1.186,8.932.89,14.881a21.568,21.568,0,0,0-5.2.887,26.427,26.427,0,0,1-8.084,1.088h0c-.237-4.64-.492-9.287-.751-13.416Z" transform="translate(-3251.172 -2038.666)" fill="#f5927e"/>
            <g id="Grupo_143759" data-name="Grupo 143759" transform="translate(0 103.23)">
              <g id="Grupo_143758" data-name="Grupo 143758">
                <g id="Grupo_143757" data-name="Grupo 143757">
                  <path id="Trazado_209821" data-name="Trazado 209821" d="M3158.718,2540.13c.951.321,20.6-.206,21.6-.966.383-.286-.13-4.961-.637-10.085l-9.644.162s-9.477,5.581-10.5,6.548S3157.767,2539.81,3158.718,2540.13Z" transform="translate(-3158.281 -2526.435)" fill="#3c70cd"/>
                  <g id="Grupo_143756" data-name="Grupo 143756" transform="translate(0.72 8.203)">
                    <path id="Trazado_209822" data-name="Trazado 209822" d="M3165.8,2626.428c4.512-.275,14.648-.55,19.127-.438.037,0,.037.029,0,.032-4.467.382-14.607.492-19.126.489C3165.706,2626.511,3165.7,2626.434,3165.8,2626.428Z" transform="translate(-3165.729 -2622.154)" fill="#fff"/>
                    <path id="Trazado_209823" data-name="Trazado 209823" d="M3188.655,2586.571a3.425,3.425,0,0,1,2.734,1.143,4.148,4.148,0,0,1,1.082,2.662c0,.03-.05.033-.055,0a4.391,4.391,0,0,0-3.76-3.743A.032.032,0,0,1,3188.655,2586.571Z" transform="translate(-3186.413 -2586.562)" fill="#fff"/>
                  </g>
                  <path id="Trazado_209824" data-name="Trazado 209824" d="M3234.679,2502.647c-.463-.678-1.388-1.3-2.091-.609-.664.655-.29,1.7.176,2.33a12.632,12.632,0,0,0,3.022,2.491c.107.079.225-.022.252-.136a.04.04,0,0,0,.043-.047A8.971,8.971,0,0,0,3234.679,2502.647Zm-.254,2.716c-.6-.456-1.815-1.354-1.763-2.312.1-1.738,1.528-.454,1.852.062a9.366,9.366,0,0,1,.548,1.057c.346.753.59,1.547.865,2.332C3235.44,2506.1,3234.926,2505.745,3234.425,2505.363Z" transform="translate(-3225.077 -2501.735)" fill="#fff"/>
                  <path id="Trazado_209825" data-name="Trazado 209825" d="M3273.982,2530.312a1.45,1.45,0,0,0-1.951-1.039,7.285,7.285,0,0,0-3.392,2.073.045.045,0,0,0,.006.067c-.045.108-.013.269.114.287a11.147,11.147,0,0,0,3.747.268C3273.227,2531.82,3274.114,2531.292,3273.982,2530.312Zm-3.32,1.223c-.6-.067-1.2-.168-1.806-.21a21.7,21.7,0,0,1,2-1.162,7.493,7.493,0,0,1,1.028-.413c.544-.162,2.38-.113,1.454,1.285C3272.831,2531.8,3271.381,2531.615,3270.662,2531.535Z" transform="translate(-3257.955 -2526.553)" fill="#fff"/>
                  <path id="Trazado_209826" data-name="Trazado 209826" d="M3252.229,2548.2a4.686,4.686,0,0,1,4.008,1.709c.036.049-.027.105-.07.082a18.362,18.362,0,0,0-3.957-1.595A.1.1,0,0,1,3252.229,2548.2Z" transform="translate(-3243.066 -2543.7)" fill="#fff"/>
                  <path id="Trazado_209827" data-name="Trazado 209827" d="M3241,2553.533a4.687,4.687,0,0,1,4.008,1.709c.036.05-.028.105-.071.082a18.365,18.365,0,0,0-3.957-1.595A.1.1,0,0,1,3241,2553.533Z" transform="translate(-3232.92 -2548.519)" fill="#fff"/>
                  <path id="Trazado_209828" data-name="Trazado 209828" d="M3229.765,2558.868a4.687,4.687,0,0,1,4.008,1.709c.036.049-.027.105-.07.082a18.362,18.362,0,0,0-3.957-1.595A.1.1,0,0,1,3229.765,2558.868Z" transform="translate(-3222.775 -2553.337)" fill="#fff"/>
                  <path id="Trazado_209829" data-name="Trazado 209829" d="M3218.533,2564.2a4.688,4.688,0,0,1,4.008,1.709c.035.049-.028.105-.071.082a18.365,18.365,0,0,0-3.957-1.595A.1.1,0,0,1,3218.533,2564.2Z" transform="translate(-3212.629 -2558.156)" fill="#fff"/>
                </g>
              </g>
            </g>
            <path id="Trazado_209830" data-name="Trazado 209830" d="M3483.736,2077.52c-.053,12.67-1.836,27.007-1.679,28.848,1.156,1.236,1.281,3.841,1.145,5.935.068,1.394.21,3.162-1.338,3.579l-18.975,3.55c-1.205.21-.784-1-.529-2.076.2-2.4,2.309-.161,3.419-2.708l6.954-6.635c-.168-2-2.108-18.916-4.042-33.841-.362-2.791-.724-5.512-1.073-8.054l14.237-5.143C3483.315,2064.655,3483.765,2070.857,3483.736,2077.52Z" transform="translate(-3432.697 -2000.369)" fill="#ff725e"/>
            <path id="Trazado_209831" data-name="Trazado 209831" d="M3535.486,2077.52a4.96,4.96,0,0,1-2.158.556,22.219,22.219,0,0,1-12.888-3.905c-.362-2.791-.724-5.512-1.073-8.054l14.236-5.143C3535.064,2064.655,3535.514,2070.857,3535.486,2077.52Z" transform="translate(-3484.447 -2000.369)" fill="#f5927e"/>
            <g id="Grupo_143762" data-name="Grupo 143762" transform="translate(3.352)">
              <g id="Grupo_143760" data-name="Grupo 143760">
                <path id="Trazado_209832" data-name="Trazado 209832" d="M3249.974,1498.081s-3.866,4.58-6.239,5.418c-11.155,3.939-18.161-.542-25.542.561a15.18,15.18,0,0,0-6.16,2.4,22.116,22.116,0,0,1-2.127,1.224c-8.916,4.475-15.05-.714-15.05-.714a203.587,203.587,0,0,1-1.845-21.44c-.768-18.945,4.97-39.277,9.04-47.964.261-.56.505-1.071.727-1.526,5.588.349,22.06,1.055,34.053-1.755a43.409,43.409,0,0,1,2.95,6.832c2.448,7.485,1.238,12.241,1.238,15.931,0,.049,0,.1,0,.15.007.409.033,1.114.077,2.073C3241.864,1471.712,3249.974,1498.081,3249.974,1498.081Z" transform="translate(-3192.942 -1434.283)" fill="#263238"/>
                <path id="Trazado_209833" data-name="Trazado 209833" d="M3351.745,1638.78a15.19,15.19,0,0,0-6.159,2.4,22.142,22.142,0,0,1-2.127,1.225c-1.331-7.045-4.538-32.508-1.189-42.8,0,0,6.33-20.035,6.791-15.513s-3.978,16.691-2.791,27.855C3346.644,1615.474,3350.6,1631.108,3351.745,1638.78Z" transform="translate(-3326.494 -1569.002)" fill="#182024"/>
              </g>
              <g id="Grupo_143761" data-name="Grupo 143761" transform="translate(24.069 2.837)">
                <path id="Trazado_209834" data-name="Trazado 209834" d="M3441.9,1463.686l-.022-.054a.017.017,0,0,0-.006-.009.016.016,0,0,0-.01,0l-.009,0a.018.018,0,0,0-.008.01l-.022.054a.044.044,0,0,0,0,.021.039.039,0,0,0,.01.018.042.042,0,0,0,.028.012.04.04,0,0,0,.028-.012.037.037,0,0,0,.01-.018.039.039,0,0,0,0-.021Z" transform="translate(-3441.825 -1463.619)" fill="#fff"/>
              </g>
            </g>
            <g id="Grupo_143765" data-name="Grupo 143765" transform="translate(27.829 104.328)">
              <g id="Grupo_143764" data-name="Grupo 143764">
                <path id="Trazado_209835" data-name="Trazado 209835" d="M3446.609,2542.927c1.044.25,22.058-2.246,23.079-3.16.389-.344-.53-5.305-1.476-10.747l-10.323,1.122s-9.718,6.914-10.741,8.051S3445.565,2542.677,3446.609,2542.927Z" transform="translate(-3446.052 -2527.48)" fill="#3c70cd"/>
                <g id="Grupo_143763" data-name="Grupo 143763" transform="translate(0.768 9.277)">
                  <path id="Trazado_209836" data-name="Trazado 209836" d="M3454.065,2637c4.815-.739,15.657-2.03,20.466-2.351.039,0,.042.027,0,.033-4.758.849-15.617,1.964-20.461,2.406C3453.972,2637.1,3453.964,2637.02,3454.065,2637Z" transform="translate(-3453.993 -2632.174)" fill="#fff"/>
                  <path id="Trazado_209837" data-name="Trazado 209837" d="M3475.084,2609.067a3.623,3.623,0,0,1,3.021.956,4.375,4.375,0,0,1,1.369,2.748.03.03,0,0,1-.059.007,4.613,4.613,0,0,0-4.324-3.643A.034.034,0,0,1,3475.084,2609.067Z" transform="translate(-3473.021 -2609.022)" fill="#fff"/>
                </g>
                <path id="Trazado_209838" data-name="Trazado 209838" d="M3518.619,2513.936c-.549-.682-1.59-1.259-2.289-.447-.661.767-.177,1.848.372,2.48a13.217,13.217,0,0,0,3.435,2.373c.121.073.239-.045.26-.171a.044.044,0,0,0,.042-.055A9.458,9.458,0,0,0,3518.619,2513.936Zm-.058,2.936c-.676-.43-2.052-1.273-2.071-2.3-.034-1.871,1.6-.636,1.99-.115a9.781,9.781,0,0,1,.671,1.079c.43.773.754,1.6,1.111,2.414C3519.707,2517.561,3519.127,2517.232,3518.561,2516.872Z" transform="translate(-3509.245 -2513.092)" fill="#fff"/>
                <path id="Trazado_209839" data-name="Trazado 209839" d="M3563.682,2537.036a1.534,1.534,0,0,0-2.173-.921,8.028,8.028,0,0,0-3.472,2.556.048.048,0,0,0,.012.071c-.041.12.008.29.145.3a11.978,11.978,0,0,0,4.037-.081C3562.991,2538.726,3563.9,2538.073,3563.682,2537.036Zm-3.462,1.637c-.652-.013-1.3-.062-1.953-.048a23.75,23.75,0,0,1,2.057-1.443,8.248,8.248,0,0,1,1.069-.544c.57-.227,2.542-.355,1.658,1.234C3562.565,2538.748,3561,2538.688,3560.22,2538.673Z" transform="translate(-3547.197 -2533.772)" fill="#fff"/>
                <path id="Trazado_209840" data-name="Trazado 209840" d="M3540.251,2561.5a4.957,4.957,0,0,1,4.43,1.438c.042.049-.021.115-.069.095a19.441,19.441,0,0,0-4.366-1.32A.11.11,0,0,1,3540.251,2561.5Z" transform="translate(-3531.066 -2556.765)" fill="#fff"/>
                <path id="Trazado_209841" data-name="Trazado 209841" d="M3528.633,2568.321a4.957,4.957,0,0,1,4.43,1.438c.042.049-.021.115-.069.095a19.443,19.443,0,0,0-4.366-1.32A.11.11,0,0,1,3528.633,2568.321Z" transform="translate(-3520.571 -2562.929)" fill="#fff"/>
                <path id="Trazado_209842" data-name="Trazado 209842" d="M3517.014,2575.144a4.958,4.958,0,0,1,4.43,1.438c.042.049-.021.115-.069.095a19.439,19.439,0,0,0-4.366-1.32A.11.11,0,0,1,3517.014,2575.144Z" transform="translate(-3510.076 -2569.092)" fill="#fff"/>
                <path id="Trazado_209843" data-name="Trazado 209843" d="M3505.4,2581.966a4.957,4.957,0,0,1,4.43,1.438c.042.049-.021.115-.069.095a19.414,19.414,0,0,0-4.366-1.32A.11.11,0,0,1,3505.4,2581.966Z" transform="translate(-3499.581 -2575.254)" fill="#fff"/>
              </g>
            </g>
          </g>
        </g>
        <g id="Grupo_143787" data-name="Grupo 143787" transform="translate(35.391 47.568)">
          <g id="Grupo_143779" data-name="Grupo 143779">
            <g id="Grupo_143776" data-name="Grupo 143776">
              <g id="Grupo_143774" data-name="Grupo 143774">
                <g id="Grupo_143769" data-name="Grupo 143769" transform="translate(13.438 9.403)">
                  <g id="Grupo_143768" data-name="Grupo 143768">
                    <path id="Trazado_209844" data-name="Trazado 209844" d="M3577.216,1236.038a22.5,22.5,0,0,1-.5,3.39q-.236,1.057-.571,2.074a22.618,22.618,0,0,1-2.661,5.482,22.679,22.679,0,1,1,.654-24.059,22.646,22.646,0,0,1,2.309,5.443q.267.965.449,1.964a22.657,22.657,0,0,1,.36,3.423c0,.144.007.288.009.433Q3577.28,1235.123,3577.216,1236.038Z" transform="translate(-3531.869 -1211.733)" fill="#f4ad2e"/>
                  </g>
                </g>
                <g id="Grupo_143771" data-name="Grupo 143771">
                  <g id="Grupo_143770" data-name="Grupo 143770">
                    <circle id="Elipse_6931" data-name="Elipse 6931" cx="22.701" cy="22.701" r="22.701" transform="translate(0 32.104) rotate(-45)" fill="#ffcc4d"/>
                  </g>
                </g>
                <g id="Grupo_143773" data-name="Grupo 143773" transform="translate(5.607 5.362)" style="mix-blend-mode: multiply;isolation: isolate">
                  <g id="Grupo_143772" data-name="Grupo 143772">
                    <circle id="Elipse_6932" data-name="Elipse 6932" cx="18.908" cy="18.908" r="18.908" transform="translate(0 26.739) rotate(-45)" fill="#f4ad2e"/>
                  </g>
                </g>
              </g>
              <g id="Grupo_143775" data-name="Grupo 143775" transform="translate(40.242 11.271)">
                <path id="Trazado_209845" data-name="Trazado 209845" d="M3828.267,1234.839l-4.222-.163a22.742,22.742,0,0,0-5.783-3.631l4.418.17A22.705,22.705,0,0,1,3828.267,1234.839Z" transform="translate(-3817.37 -1231.045)" fill="#f4ad2e" style="mix-blend-mode: multiply;isolation: isolate"/>
                <path id="Trazado_209846" data-name="Trazado 209846" d="M3906.179,1293.205l-4.129-.159a22.76,22.76,0,0,0-2.6-3.509l4.179.161A22.723,22.723,0,0,1,3906.179,1293.205Z" transform="translate(-3890.71 -1283.88)" fill="#f4ad2e" style="mix-blend-mode: multiply;isolation: isolate"/>
                <path id="Trazado_209847" data-name="Trazado 209847" d="M3942.646,1349.988l-4.079-.157a22.424,22.424,0,0,0-1.3-3.458l4.109.158A22.345,22.345,0,0,1,3942.646,1349.988Z" transform="translate(-3924.867 -1335.22)" fill="#f4ad2e" style="mix-blend-mode: multiply;isolation: isolate"/>
                <path id="Trazado_209848" data-name="Trazado 209848" d="M3959.915,1406.025l-4.041-.156a22.8,22.8,0,0,0-.384-3.424l4.064.156A22.751,22.751,0,0,1,3959.915,1406.025Z" transform="translate(-3941.327 -1385.87)" fill="#f4ad2e" style="mix-blend-mode: multiply;isolation: isolate"/>
                <path id="Trazado_209849" data-name="Trazado 209849" d="M3958.772,1461.616a22.465,22.465,0,0,1-.5,3.39l-4-.154a22.708,22.708,0,0,0,.471-3.391Z" transform="translate(-3940.231 -1439.178)" fill="#f4ad2e" style="mix-blend-mode: multiply;isolation: isolate"/>
                <path id="Trazado_209850" data-name="Trazado 209850" d="M3939.635,1518.129a22.465,22.465,0,0,1-1.408,3.354l-3.958-.152a22.527,22.527,0,0,0,1.379-3.356Z" transform="translate(-3922.159 -1490.227)" fill="#f4ad2e" style="mix-blend-mode: multiply;isolation: isolate"/>
                <path id="Trazado_209851" data-name="Trazado 209851" d="M3900.923,1574.843a22.763,22.763,0,0,1-2.673,3.306l-3.891-.149a22.787,22.787,0,0,0,2.628-3.307Z" transform="translate(-3886.108 -1541.459)" fill="#f4ad2e" style="mix-blend-mode: multiply;isolation: isolate"/>
                <path id="Trazado_209852" data-name="Trazado 209852" d="M3818.563,1632.825a22.615,22.615,0,0,1-5.87,3.184l-3.657-.141a22.628,22.628,0,0,0,5.685-3.191Z" transform="translate(-3809.036 -1593.836)" fill="#f4ad2e" style="mix-blend-mode: multiply;isolation: isolate"/>
              </g>
            </g>
            <g id="Grupo_143777" data-name="Grupo 143777" transform="translate(25.662 17.224)">
              <path id="Trazado_209853" data-name="Trazado 209853" d="M3664.188,1321v-3.3a14.023,14.023,0,0,1-5.918-1.5l1.046-4.073a12.3,12.3,0,0,0,5.779,1.531c1.984,0,3.342-.765,3.342-2.157,0-1.324-1.114-2.16-3.69-3.03-3.724-1.253-6.267-2.993-6.267-6.369,0-3.064,2.16-5.465,5.884-6.2V1292.6h3.41v3.064a12.561,12.561,0,0,1,5.048,1.148l-1.009,3.934a11.539,11.539,0,0,0-5.014-1.185c-2.262,0-2.993.975-2.993,1.95,0,1.148,1.219,1.879,4.178,2.993,4.141,1.463,5.813,3.376,5.813,6.511,0,3.1-2.194,5.743-6.2,6.44V1321Z" transform="translate(-3658.27 -1292.598)" fill="#d75c14"/>
            </g>
            <g id="Grupo_143778" data-name="Grupo 143778" transform="translate(24.244 17.224)">
              <path id="Trazado_209854" data-name="Trazado 209854" d="M3649.526,1321v-3.3a14.022,14.022,0,0,1-5.918-1.5l1.046-4.073a12.3,12.3,0,0,0,5.779,1.531c1.984,0,3.342-.765,3.342-2.157,0-1.324-1.114-2.16-3.69-3.03-3.725-1.253-6.267-2.993-6.267-6.369,0-3.064,2.16-5.465,5.884-6.2V1292.6h3.41v3.064a12.561,12.561,0,0,1,5.048,1.148l-1.009,3.934a11.537,11.537,0,0,0-5.014-1.185c-2.262,0-2.993.975-2.993,1.95,0,1.148,1.219,1.879,4.178,2.993,4.141,1.463,5.813,3.376,5.813,6.511,0,3.1-2.193,5.743-6.2,6.44V1321Z" transform="translate(-3643.608 -1292.598)" fill="#ffea4d"/>
            </g>
          </g>
          <g id="Grupo_143786" data-name="Grupo 143786" transform="translate(51.939 20.458)">
            <g id="Grupo_143785" data-name="Grupo 143785">
              <g id="Grupo_143780" data-name="Grupo 143780">
                <path id="Trazado_209855" data-name="Trazado 209855" d="M3934.494,1338.3c1.056,1.438,3.24,5.734,5.674,1.089a8.67,8.67,0,0,0-2.671-11.61,27.169,27.169,0,0,0-5.1-1.713c-1.01-.234-1.884,1.316-.245,2.084s2.978,1.464,2.978,1.464-2.617-.615-3.661-.891a.849.849,0,0,0-.624,1.579c1.032.506,4.015,1.932,4.015,1.932s-3.157-.6-4.015-.818-1.507,1.053.275,1.915,3.474,1.83,3.474,1.83-2.058-.472-3.081-.592-1.05,1.413,0,1.922A33.36,33.36,0,0,1,3934.494,1338.3Z" transform="translate(-3929.988 -1326.04)" fill="#ffb9b9"/>
              </g>
              <g id="Grupo_143784" data-name="Grupo 143784" transform="translate(4.098 3.155)">
                <g id="Grupo_143781" data-name="Grupo 143781" transform="translate(0.523)">
                  <path id="Trazado_209856" data-name="Trazado 209856" d="M3980.159,1359.61a.256.256,0,0,1-.018.071.267.267,0,0,1-.349.144,17.289,17.289,0,0,0-1.826-.64.258.258,0,0,1-.182-.33.267.267,0,0,1,.33-.182,17.769,17.769,0,0,1,1.883.661A.266.266,0,0,1,3980.159,1359.61Z" transform="translate(-3977.772 -1358.661)" fill="#f68c9a"/>
                </g>
                <g id="Grupo_143782" data-name="Grupo 143782" transform="translate(0.194 2.606)">
                  <path id="Trazado_209857" data-name="Trazado 209857" d="M3976.862,1386.548a.24.24,0,0,1-.011.052.266.266,0,0,1-.337.169l-1.958-.645a.267.267,0,1,1,.167-.506l1.957.645A.266.266,0,0,1,3976.862,1386.548Z" transform="translate(-3974.372 -1385.605)" fill="#f68c9a"/>
                </g>
                <g id="Grupo_143783" data-name="Grupo 143783" transform="translate(0 5.568)">
                  <path id="Trazado_209858" data-name="Trazado 209858" d="M3974.49,1417.173a.263.263,0,0,1-.017.068.267.267,0,0,1-.347.149l-1.592-.636a.267.267,0,0,1,.2-.5l1.591.636A.267.267,0,0,1,3974.49,1417.173Z" transform="translate(-3972.367 -1416.239)" fill="#f68c9a"/>
                </g>
              </g>
            </g>
          </g>
        </g>
      </g>
      <g id="Grupo_143793" data-name="Grupo 143793" transform="translate(143.288)" style="mix-blend-mode: multiply;isolation: isolate">
        <g id="Grupo_143789" data-name="Grupo 143789" transform="translate(61.992 11.235)">
          <path id="Trazado_209859" data-name="Trazado 209859" d="M2717.187,498.972a.887.887,0,0,1-.887-.887v-21.02a.887.887,0,0,1,1.775,0v21.02A.887.887,0,0,1,2717.187,498.972Z" transform="translate(-2716.299 -476.178)" fill="#ff725e"/>
        </g>
        <g id="Grupo_143790" data-name="Grupo 143790" transform="translate(0 11.235)">
          <path id="Trazado_209860" data-name="Trazado 209860" d="M2076.16,493.186a.887.887,0,0,1-.887-.887V477.065a.887.887,0,0,1,1.775,0V492.3A.887.887,0,0,1,2076.16,493.186Z" transform="translate(-2075.273 -476.178)" fill="#ff725e"/>
        </g>
        <g id="Grupo_143791" data-name="Grupo 143791" transform="translate(45.001)">
          <path id="Trazado_209861" data-name="Trazado 209861" d="M2541.49,372.284a.887.887,0,0,1-.887-.887v-10.51a.887.887,0,0,1,1.775,0V371.4A.887.887,0,0,1,2541.49,372.284Z" transform="translate(-2540.602 -360)" fill="#ff725e"/>
        </g>
        <g id="Grupo_143792" data-name="Grupo 143792" transform="translate(21.938 4.43)">
          <path id="Trazado_209862" data-name="Trazado 209862" d="M2303.013,414.389a.887.887,0,0,1-.887-.887V406.7a.887.887,0,0,1,1.775,0V413.5A.887.887,0,0,1,2303.013,414.389Z" transform="translate(-2302.126 -405.809)" fill="#ff725e"/>
        </g>
      </g>
      <g id="Grupo_143795" data-name="Grupo 143795" transform="translate(161.399 155.885)">
        <path id="Trazado_209863" data-name="Trazado 209863" d="M2648.935,1992.784s4.125-6.347,1.342-11.562.234-10.286,2.74-9.13,3.929,5.173,7.085,5.474,5.545-2.242,8.388-.721-.344,4.21,3.828,5.521-9.311,8.4-9.311,8.4l.217,5.575Z" transform="translate(-2611.569 -1971.926)" fill="#263238"/>
        <path id="Trazado_209864" data-name="Trazado 209864" d="M2628.366,2122.274s.516-6.315,5.7-6.021c3.1.177,7.1,1.685,9.811,2.865a4.763,4.763,0,0,1,2.094,7.006l-.072.1Z" transform="translate(-2592.99 -2102.287)" fill="#3c5561"/>
        <path id="Trazado_209865" data-name="Trazado 209865" d="M2269.666,2206.955a298.543,298.543,0,0,1,50.245.161q.519.045,1.038.094l5.712-.026a9.8,9.8,0,0,0,9.894-12.223q-.16-.626-.338-1.267c-.019-.068-.038-.137-.058-.206s-.038-.137-.057-.206c-.008-.028-.016-.057-.024-.085s-.024-.082-.036-.123c-.028-.1-.056-.2-.085-.3-.018-.061-.035-.122-.054-.184s-.028-.094-.042-.141c-.031-.1-.062-.208-.094-.312-.059-.2-.12-.394-.182-.592-.038-.12-.075-.24-.114-.361q-.2-.638-.422-1.282l-.091-.264c-.058-.167-.116-.334-.176-.5-.027-.079-.055-.156-.084-.235q-.112-.311-.227-.623l-.056-.149q-.164-.439-.337-.878c-.041-.1-.082-.209-.125-.315-.019-.05-.039-.1-.061-.151-.043-.108-.088-.218-.132-.328q-.2-.489-.412-.979-.082-.19-.165-.378l-.185-.416q-.311-.69-.643-1.379-.09-.189-.184-.375c-.006-.015-.013-.028-.021-.042-.056-.114-.113-.229-.171-.342q-.2-.407-.419-.812c-.034-.066-.069-.132-.1-.2-.049-.092-.1-.184-.149-.275q-.051-.1-.1-.192l-.193-.35q-.113-.205-.231-.41l-.014-.025c-.072-.126-.144-.25-.217-.375l-.071-.121c-.068-.115-.135-.229-.2-.343-.081-.133-.161-.265-.242-.4-.057-.095-.116-.188-.175-.282-.043-.07-.087-.14-.131-.209-.061-.1-.123-.191-.183-.287-.041-.064-.083-.128-.125-.192-.087-.133-.174-.267-.262-.4-.045-.068-.091-.136-.137-.2-.059-.088-.118-.175-.179-.263-.044-.064-.087-.128-.132-.191s-.073-.1-.108-.156-.083-.118-.124-.177l-.1-.138-.026-.037c-.085-.118-.171-.237-.258-.354-.013-.018-.027-.036-.038-.054-.163-.22-.326-.438-.494-.655-.059-.077-.119-.154-.179-.23q-.181-.234-.367-.465t-.364-.444a.036.036,0,0,1-.007-.007c-.125-.15-.252-.3-.38-.449l-.194-.223-.194-.221-.2-.22c-.064-.072-.128-.142-.193-.213l-.208-.224c-.067-.072-.135-.144-.2-.215l-.21-.219q-.2-.21-.413-.42t-.407-.4c-.006,0-.011-.011-.018-.017-.071-.069-.144-.137-.216-.206l-.2-.189-.046-.041-.188-.175a.019.019,0,0,1-.007-.005l-.218-.2c-.21-.19-.423-.375-.639-.56-.089-.076-.18-.153-.271-.227s-.154-.128-.232-.192l-.206-.168-.266-.211c-.079-.062-.159-.125-.239-.186v0l-.241-.183c-.1-.076-.2-.152-.3-.227l-.185-.136-.248-.178-.17-.12-.127-.09c-.153-.105-.306-.209-.46-.312-.085-.057-.172-.115-.258-.17-.177-.116-.358-.231-.539-.344l-.2-.121c-.1-.065-.21-.129-.316-.191-.086-.051-.17-.1-.257-.152l-.012-.007-.262-.151-.217-.121-.173-.1-.077-.042-.17-.093-.2-.1c-.07-.038-.14-.074-.211-.111-.116-.062-.234-.121-.352-.18h0a31.133,31.133,0,0,0-8.046-2.723c-7.725-1.51-27.374.454-44.027,26.087C2260.433,2195.227,2263.426,2204.716,2269.666,2206.955Z" transform="translate(-2262.555 -2144.428)" fill="#263238"/>
        <g id="Grupo_143794" data-name="Grupo 143794" transform="translate(27.508 26.567)">
          <path id="Trazado_209866" data-name="Trazado 209866" d="M2558.867,2257.545l1.733-4.089a10.658,10.658,0,0,1,3.15,2.811l2.456-2.452a11.833,11.833,0,0,0-4.259-3.536l1.111-2.622-2.406-1.02-1.132,2.672c-3.986-1.179-6.763.226-7.844,2.775-1.458,3.44,1.146,5.592,3.542,7.376l-1.7,4.016a10.6,10.6,0,0,1-3.945-3.685l-2.564,2.375a12.354,12.354,0,0,0,5.174,4.461l-1.111,2.622,2.405,1.02,1.142-2.695c3.969,1.145,6.714-.247,7.773-2.746C2563.829,2261.433,2561.271,2259.3,2558.867,2257.545Zm-2.15-1.622c-.916-.784-1.443-1.549-1.086-2.391.336-.792,1.138-1.276,2.534-1.026Zm-.755,8.476,1.407-3.321c.881.8,1.383,1.552,1.027,2.394C2558.07,2264.243,2557.275,2264.645,2555.963,2264.4Z" transform="translate(-2547.007 -2246.637)" fill="#fff"/>
        </g>
        <path id="Trazado_209867" data-name="Trazado 209867" d="M2553.521,2222.649c-.019-.068-.038-.137-.057-.205s-.039-.137-.058-.206c-.008-.028-.016-.056-.023-.084l-.036-.123q-.042-.149-.086-.3c-.018-.06-.036-.122-.054-.183s-.027-.095-.042-.142c-.031-.1-.062-.208-.094-.312-.059-.2-.12-.393-.181-.591-.037-.12-.075-.24-.114-.361q-.2-.638-.423-1.283c-.029-.088-.06-.176-.09-.263-.057-.167-.116-.334-.176-.5l-.083-.235q-.112-.31-.228-.622l-.056-.15c-.11-.292-.222-.585-.337-.878-.041-.1-.082-.209-.125-.314-.02-.05-.04-.1-.061-.151-.043-.109-.088-.219-.132-.328q-.2-.49-.412-.98-.081-.189-.164-.377c-.061-.139-.123-.277-.186-.416q-.309-.69-.643-1.379c-.06-.126-.121-.251-.184-.376l-.021-.042c-.056-.115-.113-.229-.171-.343q-.205-.406-.419-.812c-.034-.066-.069-.131-.1-.2l-.148-.276c-.034-.064-.07-.128-.1-.192-.063-.117-.128-.232-.193-.349q-.114-.205-.231-.41l-.014-.025c-.072-.125-.144-.25-.218-.375l-.071-.122c-.067-.115-.135-.229-.2-.343-.08-.133-.16-.265-.241-.4q-.087-.141-.175-.281c-.043-.07-.087-.14-.131-.209l-.183-.287-.125-.192c-.086-.134-.174-.266-.262-.4-.045-.068-.091-.136-.138-.2-.059-.088-.118-.175-.178-.262-.044-.064-.088-.128-.133-.192s-.072-.1-.108-.156l-.124-.176-.1-.138-.026-.036c-.085-.119-.171-.237-.257-.355-.014-.017-.027-.035-.039-.053q-.242-.329-.493-.656l-.179-.231q-.182-.234-.368-.464t-.364-.444l-.006-.006q-.187-.226-.38-.449l-.194-.224-.2-.222-.2-.22c-.064-.071-.128-.141-.192-.212l-.208-.224q-.1-.109-.2-.216l-.209-.219q-.2-.211-.413-.42c-.135-.135-.27-.268-.407-.4l-.018-.017-.215-.206-.2-.189-.045-.042-.189-.175-.006-.005c-.073-.067-.146-.133-.219-.2q-.316-.283-.639-.56l-.271-.227-.232-.192-.207-.167-.265-.211c-.079-.062-.159-.125-.239-.187h0l-.241-.183q-.151-.115-.3-.227l-.185-.135-.249-.178-.169-.12-.128-.089q-.229-.159-.46-.313c-.086-.057-.172-.114-.258-.17-.177-.116-.357-.231-.54-.344l-.2-.121c-.1-.064-.211-.128-.316-.191l-.257-.152-.012-.007-.263-.152-.216-.121-.174-.1-.077-.042-.17-.092c-.066-.036-.132-.072-.2-.106l-.211-.11q-.175-.092-.352-.18h0s34.943,37.794-30.5,39.556l40.84,1.63a9.8,9.8,0,0,0,9.9-12.222Q2553.7,2223.29,2553.521,2222.649Z" transform="translate(-2479.86 -2173.384)" fill="#3c5561"/>
      </g>
      <g id="Grupo_143813" data-name="Grupo 143813" transform="translate(52.148 45.143)">
        <g id="Grupo_143796" data-name="Grupo 143796">
          <rect id="Rectángulo_43213" data-name="Rectángulo 43213" width="60.57" height="41.191" rx="20.595" fill="#ff725e"/>
          <path id="Trazado_209868" data-name="Trazado 209868" d="M1236.7,1237.671a2.092,2.092,0,0,0,3.909,0l5.416-14.164h-14.74Z" transform="translate(-1221.761 -1185.143)" fill="#ff725e"/>
        </g>
        <g id="Grupo_143812" data-name="Grupo 143812" transform="translate(5.592 5.246)">
          <g id="Grupo_143810" data-name="Grupo 143810" transform="translate(1.638)">
            <g id="Grupo_143809" data-name="Grupo 143809">
              <g id="Grupo_143799" data-name="Grupo 143799" transform="translate(10.966 13.74)">
                <g id="Grupo_143797" data-name="Grupo 143797">
                  <rect id="Rectángulo_43214" data-name="Rectángulo 43214" width="8.341" height="15.592" fill="#fff"/>
                </g>
                <g id="Grupo_143798" data-name="Grupo 143798" transform="translate(6.431)">
                  <rect id="Rectángulo_43215" data-name="Rectángulo 43215" width="1.91" height="15.592" fill="#d2e1f1"/>
                </g>
              </g>
              <g id="Grupo_143802" data-name="Grupo 143802" transform="translate(21.956 7.847)">
                <g id="Grupo_143800" data-name="Grupo 143800">
                  <rect id="Rectángulo_43216" data-name="Rectángulo 43216" width="8.341" height="21.485" fill="#fff"/>
                </g>
                <g id="Grupo_143801" data-name="Grupo 143801" transform="translate(6.431)">
                  <rect id="Rectángulo_43217" data-name="Rectángulo 43217" width="1.91" height="21.485" fill="#d2e1f1"/>
                </g>
              </g>
              <g id="Grupo_143805" data-name="Grupo 143805" transform="translate(0 17.252)">
                <g id="Grupo_143803" data-name="Grupo 143803">
                  <rect id="Rectángulo_43218" data-name="Rectángulo 43218" width="8.341" height="12.081" fill="#fff"/>
                </g>
                <g id="Grupo_143804" data-name="Grupo 143804" transform="translate(6.431)">
                  <rect id="Rectángulo_43219" data-name="Rectángulo 43219" width="1.91" height="12.081" fill="#d2e1f1"/>
                </g>
              </g>
              <g id="Grupo_143808" data-name="Grupo 143808" transform="translate(32.945)">
                <g id="Grupo_143806" data-name="Grupo 143806">
                  <rect id="Rectángulo_43220" data-name="Rectángulo 43220" width="8.341" height="29.332" fill="#fff"/>
                </g>
                <g id="Grupo_143807" data-name="Grupo 143807" transform="translate(6.431)">
                  <rect id="Rectángulo_43221" data-name="Rectángulo 43221" width="1.91" height="29.332" fill="#d2e1f1"/>
                </g>
              </g>
            </g>
          </g>
          <g id="Grupo_143811" data-name="Grupo 143811" transform="translate(0 0.59)">
            <path id="Trazado_209869" data-name="Trazado 209869" d="M1191.28,927.551l-.608,3.426c28.437,4.811,44.22-18.951,44.22-18.951l-.837-.553A44.118,44.118,0,0,1,1191.28,927.551Z" transform="translate(-1190.672 -909.12)" fill="#263238"/>
            <path id="Trazado_209870" data-name="Trazado 209870" d="M1621.194,892.17l.941-5.018-4.595,2.228Z" transform="translate(-1576.259 -887.152)" fill="#263238"/>
          </g>
        </g>
      </g>
    </g>
  </g>
</svg>
