<svg xmlns="http://www.w3.org/2000/svg" width="124.008" height="123.792" viewBox="0 0 124.008 123.792">
  <g id="inversion_1_" data-name="inversion (1)" transform="translate(0 0)">
    <path id="Trazado_202797" data-name="Trazado 202797" d="M35.464,31.472,55.91,20.491,54.053,15,33.607,24.145H19.63a7.467,7.467,0,0,0-6.649,3.993L2,47.945l5.571,1.837L18.732,31.472,16.875,47.945,11.3,80.889h7.428L26.159,51.6,31.75,80.889h7.428L35.943,47.945Z" transform="translate(-0.007 12.953)" fill="#8698b3"/>
    <circle id="Elipse_6790" data-name="Elipse 6790" cx="5.99" cy="5.99" r="5.99" transform="translate(20.961 21.963)" fill="#f0cfa3"/>
    <path id="Trazado_202798" data-name="Trazado 202798" d="M101.866,52.048l-9.384-2.336a73.876,73.876,0,0,0-22.782-2L52.649,48.853a3.634,3.634,0,0,0-3.414,3.035,4.472,4.472,0,0,0,3.873,4.952l23.041,2.995L60.735,62.81a52.053,52.053,0,0,1-29.151-2.715,6.789,6.789,0,0,0-8.566,3.294L22,65.545l23.96,8.246a38.216,38.216,0,0,0,7.767,2.136,39.074,39.074,0,0,0,16.492-.918l18.11-4.952a11.461,11.461,0,0,1,8.346.359l5.191,2.436Z" transform="translate(19.926 45.389)" fill="#f0cfa3"/>
    <circle id="Elipse_6791" data-name="Elipse 6791" cx="14.002" cy="14.002" r="14.002" transform="translate(46.207 60.083)" fill="#ffeb99"/>
    <path id="Trazado_202799" data-name="Trazado 202799" d="M35.25,46.977h-2a1,1,0,0,1-1-1H28.262a4.992,4.992,0,0,0,3.993,4.992v2h3.993v-2a5.017,5.017,0,1,0-1-9.983h-2a1,1,0,1,1,0-2h2a1,1,0,0,1,1,1h3.993A4.992,4.992,0,0,0,36.247,35.1V33H32.255v2a5.017,5.017,0,1,0,1,9.983h2a1,1,0,0,1,0,2Z" transform="translate(25.644 30.893)"/>
    <path id="Trazado_202800" data-name="Trazado 202800" d="M36.993,21.965H33a7.547,7.547,0,0,0,7.987,6.988v3.993H44.98V28.953a7.547,7.547,0,0,0,7.987-6.988,7.547,7.547,0,0,0-7.987-6.988V8.987c2.156,0,3.993,1.378,3.993,2.995h3.993A7.547,7.547,0,0,0,44.98,4.993V1H40.987V4.993A7.547,7.547,0,0,0,33,11.982a7.547,7.547,0,0,0,7.987,6.988v5.99C38.83,24.96,36.993,23.582,36.993,21.965Zm0-9.983c0-1.617,1.837-2.995,3.993-2.995v5.99C38.83,14.977,36.993,13.6,36.993,11.982ZM44.98,18.97c2.156,0,3.993,1.378,3.993,2.995S47.136,24.96,44.98,24.96Z" transform="translate(30.889 -1)"/>
    <path id="Trazado_202801" data-name="Trazado 202801" d="M51.993,44.965H48a7.547,7.547,0,0,0,7.987,6.988v3.993H59.98V51.953a7.547,7.547,0,0,0,7.987-6.988,7.547,7.547,0,0,0-7.987-6.988v-5.99c2.156,0,3.993,1.378,3.993,2.995h3.993a7.547,7.547,0,0,0-7.987-6.988V24H55.987v3.993A7.547,7.547,0,0,0,48,34.982a7.547,7.547,0,0,0,7.987,6.988v5.99C53.83,47.96,51.993,46.582,51.993,44.965Zm0-9.983c0-1.617,1.837-2.995,3.993-2.995v5.99C53.83,37.977,51.993,36.6,51.993,34.982ZM59.98,41.97c2.156,0,3.993,1.378,3.993,2.995S62.136,47.96,59.98,47.96Z" transform="translate(45.839 21.923)"/>
    <path id="Trazado_202802" data-name="Trazado 202802" d="M2.376,53.86,7.947,55.7a2,2,0,0,0,2.336-.859l6.449-10.6-.839,7.388L10.323,84.568a2,2,0,0,0,2,2.336h7.428a2,2,0,0,0,2-1.5l5.211-20.466,3.893,20.446a2,2,0,0,0,2,1.617h7.428a2.019,2.019,0,0,0,2-2.2L38.935,51.9l-.5-15.234,19.348-10.4a2,2,0,0,0,.958-2.4L56.9,18.379a2.013,2.013,0,0,0-2.715-1.2L34.222,26.146h-2.8a7.987,7.987,0,1,0-6.948,0H20.605A9.384,9.384,0,0,0,12.2,31.238L1.258,50.965A2,2,0,0,0,2.376,53.84ZM27.953,15.025a3.993,3.993,0,1,1-3.993,3.993A3.993,3.993,0,0,1,27.953,15.025ZM15.733,33.115a5.431,5.431,0,0,1,4.872-2.955H34.582A2.3,2.3,0,0,0,35.4,30L53.83,21.734l.619,1.817L35.5,33.734a2,2,0,0,0-1.058,1.817l.5,16.612,3.035,30.748H34.382L29.131,55.257a2.054,2.054,0,0,0-3.993-.12L18.169,82.911H14.655l5.191-30.728L21.7,35.71a2,2,0,0,0-3.674-1.258L7.687,51.4,5.91,50.825Z" transform="translate(-1.002 8.935)"/>
    <path id="Trazado_202803" data-name="Trazado 202803" d="M103.4,51.088l-9.384-2.336a75.353,75.353,0,0,0-23.4-2L53.561,47.894a5.611,5.611,0,0,0-5.251,4.752A6.489,6.489,0,0,0,53.9,59.854l10.762,1.4-3.255.639a49.776,49.776,0,0,1-28.093-2.676,8.805,8.805,0,0,0-11.121,4.313l-1.018,2.156a2.053,2.053,0,0,0,1.178,2.735l23.96,8.206A38.2,38.2,0,0,0,54.5,78.862a40.414,40.414,0,0,0,6.409.519A41.271,41.271,0,0,0,71.83,77.9L90.04,72.932a9.624,9.624,0,0,1,6.888.339l5.231,2.376a2.041,2.041,0,0,0,2.915-1.817V53.025a2,2,0,0,0-1.677-1.937Zm-2.536,19.627-2.416-1.078a13.358,13.358,0,0,0-9.564-.539L70.772,74.07a37.637,37.637,0,0,1-15.634.859,35.94,35.94,0,0,1-7.428-2L25.748,65.4v-.14a4.792,4.792,0,0,1,5.99-2.3,53.73,53.73,0,0,0,30.349,2.815L77.5,62.829a2.028,2.028,0,0,0-.12-3.993L54.4,55.84a2.476,2.476,0,0,1-2.216-2.715,1.677,1.677,0,0,1,1.577-1.318l17.151-1.118a71.641,71.641,0,0,1,22.163,2l7.987,2Z" transform="translate(18.934 44.412)"/>
    <path id="Trazado_202804" data-name="Trazado 202804" d="M23,45.973A15.973,15.973,0,1,0,38.973,30,15.973,15.973,0,0,0,23,45.973Zm15.973-11.98a11.98,11.98,0,1,1-11.98,11.98,11.98,11.98,0,0,1,11.98-11.98Z" transform="translate(20.923 27.903)"/>
  </g>
</svg>
