<svg xmlns="http://www.w3.org/2000/svg" width="81.48" height="83.576" viewBox="0 0 81.48 83.576">
  <g id="documento-legal" transform="translate(-6.44)">
    <path id="Trazado_202591" data-name="Trazado 202591" d="M72.983,9.05V88.632H15.493a1.553,1.553,0,0,1-1.552-1.554V25.651H30.7a1.625,1.625,0,0,0,1.627-1.625V7.5h39.1A1.554,1.554,0,0,1,72.983,9.05Z" transform="translate(-6.281 -6.276)" fill="#dff6fd"/>
    <path id="Trazado_202592" data-name="Trazado 202592" d="M286.194,64.935h-1.116a.53.53,0,0,1-.469-.28,5.947,5.947,0,0,0-5.249-3.161h-4.837a5.943,5.943,0,0,0-5.943,5.943V86.182a5.943,5.943,0,0,0,5.943,5.943s2.156,0,3.716-.009a1.57,1.57,0,0,1,1.575,1.571v8.431a9.467,9.467,0,0,0,.875,3.993l1.154,2.51v21.715a7.54,7.54,0,0,0,.859,3.509h3.491V64.935Z" transform="translate(-219.491 -51.489)" fill="#c8effe"/>
    <path id="Trazado_202593" data-name="Trazado 202593" d="M373.706,158.106v24.905a5.473,5.473,0,0,1-.5,2.294l-1.526,3.319v22.6a3.509,3.509,0,0,1-7.017,0v-22.6l-1.526-3.319a5.472,5.472,0,0,1-.5-2.294V158.106Z" transform="translate(-298.24 -132.383)" fill="#dc8758"/>
    <g id="Grupo_142746" data-name="Grupo 142746" transform="translate(7.66 1.22)">
      <path id="Trazado_202594" data-name="Trazado 202594" d="M367.4,158.105H362.63v24.905a5.473,5.473,0,0,0,.5,2.294l1.526,3.319v22.6a3.508,3.508,0,0,0,6.21,2.239,3.487,3.487,0,0,1-.672-2.059V188.8l-1.526-3.319a5.473,5.473,0,0,1-.5-2.294v-9.812a3.8,3.8,0,0,1,3.8-3.8H373.7V158.105H367.4Z" transform="translate(-305.9 -133.602)" fill="#d77f4a"/>
      <path id="Trazado_202595" data-name="Trazado 202595" d="M310.54,107.641h28.134v15.615H310.54Z" transform="translate(-262.285 -91.348)" fill="#e19974"/>
      <g id="XMLID_407_" transform="translate(56.73 40.358)">
        <g id="Grupo_142743" data-name="Grupo 142743">
          <path id="Trazado_202596" data-name="Trazado 202596" d="M373.706,255.556V261.8H362.631v-6.243h11.075Z" transform="translate(-362.631 -255.556)" fill="#d77f4a"/>
        </g>
      </g>
      <path id="Trazado_202597" data-name="Trazado 202597" d="M368.167,261.8v-6.243H362.63V261.8h5.537Z" transform="translate(-305.9 -215.198)" fill="#c86d36"/>
      <g id="XMLID_421_">
        <g id="Grupo_142745" data-name="Grupo 142745">
          <g id="XMLID_420_">
            <g id="Grupo_142744" data-name="Grupo 142744">
              <path id="Trazado_202598" data-name="Trazado 202598" d="M32.327,7.5v16.53A1.625,1.625,0,0,1,30.7,25.651H13.941a1.551,1.551,0,0,1,.456-1.1L31,7.952A1.554,1.554,0,0,1,32.1,7.5Z" transform="translate(-13.941 -7.496)" fill="#dff6fd"/>
            </g>
          </g>
        </g>
      </g>
      <path id="Trazado_202599" data-name="Trazado 202599" d="M74.716,185.544h1.939" transform="translate(-64.828 -156.576)" fill="none" stroke="#000" stroke-linecap="round" stroke-linejoin="round" stroke-miterlimit="10" stroke-width="15"/>
    </g>
    <path id="Trazado_202600" data-name="Trazado 202600" d="M320.436,112.888v-5.247h-9.9v15.615h28.134V117.57H325.118A4.683,4.683,0,0,1,320.436,112.888Z" transform="translate(-254.624 -90.128)" fill="#dc8758"/>
    <path id="Trazado_202601" data-name="Trazado 202601" d="M300.292,108.989h-4.837a1.875,1.875,0,0,1-1.875-1.875V88.368a1.875,1.875,0,0,1,1.875-1.875h4.837a1.875,1.875,0,0,1,1.875,1.875v18.746A1.875,1.875,0,0,1,300.292,108.989Z" transform="translate(-240.424 -72.421)" fill="#d77f4a"/>
    <path id="Trazado_202602" data-name="Trazado 202602" d="M448.844,108.989h4.837a1.875,1.875,0,0,0,1.875-1.875V88.368a1.875,1.875,0,0,0-1.875-1.875h-4.837a1.875,1.875,0,0,0-1.875,1.875v18.746A1.875,1.875,0,0,0,448.844,108.989Z" transform="translate(-368.857 -72.421)" fill="#d77f4a"/>
    <path id="Trazado_202603" data-name="Trazado 202603" d="M32.326,7.5v16.53A1.625,1.625,0,0,1,30.7,25.651H13.94V87.078a1.554,1.554,0,0,0,1.554,1.554H34.406a1.553,1.553,0,0,1-1.552-1.554V31.533a3.976,3.976,0,0,1,1.434-3.092,5.682,5.682,0,0,0,2.106-4.416V7.5Z" transform="translate(-6.28 -6.276)" fill="#c8effe"/>
    <path id="Trazado_202604" data-name="Trazado 202604" d="M109.925,366.7H68.6a.782.782,0,0,1-.782-.782v-8.64a.782.782,0,0,1,.782-.782h41.326a.782.782,0,0,1,.782.782v8.64a.782.782,0,0,1-.782.782Z" transform="translate(-51.391 -298.495)" fill="#fee45a"/>
    <path id="Trazado_202605" data-name="Trazado 202605" d="M68.6,356.495a.782.782,0,0,0-.782.782v8.64a.782.782,0,0,0,.782.782h9.366v-10.2Z" transform="translate(-51.391 -298.495)" fill="#fedf30"/>
    <g id="Grupo_142747" data-name="Grupo 142747" transform="translate(6.44 0)">
      <path id="Trazado_202606" data-name="Trazado 202606" d="M318.968,78.993h-4.837a3.1,3.1,0,0,0-3.1,3.1v.345H297.108v-.345a3.1,3.1,0,0,0-3.1-3.1h-4.837a3.1,3.1,0,0,0-3.1,3.1v18.746a3.1,3.1,0,0,0,3.1,3.1h4.837a3.1,3.1,0,0,0,3.1-3.1v-.345h.206v16.28a6.665,6.665,0,0,0,.614,2.8l1.415,3.076v11.216a1.22,1.22,0,1,0,2.44,0V122.383a1.22,1.22,0,0,0-.112-.51l-1.527-3.319a4.241,4.241,0,0,1-.391-1.784v-1.588h8.634v1.588a4.242,4.242,0,0,1-.391,1.784l-1.527,3.319a1.219,1.219,0,0,0-.112.51v22.605a2.288,2.288,0,0,1-4.576,0v-5.922a1.22,1.22,0,1,0-2.44,0v5.922a4.728,4.728,0,1,0,9.457,0V122.65l1.415-3.076a6.665,6.665,0,0,0,.614-2.8v-16.28h.206v.345a3.1,3.1,0,0,0,3.1,3.1h4.837a3.1,3.1,0,0,0,3.1-3.1V82.089a3.1,3.1,0,0,0-3.1-3.1Zm-24.3,21.841a.656.656,0,0,1-.655.655h-4.837a.656.656,0,0,1-.655-.655V82.089a.656.656,0,0,1,.655-.655h4.837a.656.656,0,0,1,.655.655Zm5.087,11.907v-3.8h8.634v3.8Zm8.634-6.242h-8.634v-6.01h8.634Zm11.234-5.665a.656.656,0,0,1-.655.655h-4.837a.656.656,0,0,1-.655-.655v-10a1.22,1.22,0,0,0-2.44,0v7.219H297.108V84.874h13.927v.756a1.22,1.22,0,0,0,2.44,0V82.089a.656.656,0,0,1,.655-.655h4.837a.656.656,0,0,1,.655.655Z" transform="translate(-240.584 -66.141)"/>
      <path id="Trazado_202607" data-name="Trazado 202607" d="M60.75,81.135H9.213a.333.333,0,0,1-.333-.333V20.6H24.42a2.85,2.85,0,0,0,2.847-2.847V2.44H65.15a.333.333,0,0,1,.333.333v8a1.22,1.22,0,0,0,2.44,0v-8A2.776,2.776,0,0,0,65.149,0H25.815a2.755,2.755,0,0,0-1.961.812l-16.6,16.6a2.755,2.755,0,0,0-.812,1.961V80.8a2.776,2.776,0,0,0,2.773,2.773H60.75a1.22,1.22,0,0,0,0-2.441ZM24.827,3.291V17.749a.407.407,0,0,1-.407.406H9.963Z" transform="translate(-6.44 0)"/>
      <path id="Trazado_202608" data-name="Trazado 202608" d="M68.436,180.484h1.939a1.22,1.22,0,1,0,0-2.44H68.436a1.22,1.22,0,1,0,0,2.44Z" transform="translate(-57.328 -149.077)"/>
      <path id="Trazado_202609" data-name="Trazado 202609" d="M136.994,180.484a1.22,1.22,0,1,0,0-2.44H114.85a1.22,1.22,0,1,0,0,2.44Z" transform="translate(-96.191 -149.077)"/>
      <path id="Trazado_202610" data-name="Trazado 202610" d="M100.266,233.866H68.436a1.22,1.22,0,1,0,0,2.44h31.83a1.22,1.22,0,1,0,0-2.44Z" transform="translate(-57.328 -195.817)"/>
      <path id="Trazado_202611" data-name="Trazado 202611" d="M109.19,289.688H68.436a1.22,1.22,0,1,0,0,2.44H109.19a1.22,1.22,0,1,0,0-2.44Z" transform="translate(-57.328 -242.557)"/>
      <path id="Trazado_202612" data-name="Trazado 202612" d="M67.443,351.435a1.22,1.22,0,0,0,0-2.44H62.319a2,2,0,0,0-2,2v8.64a2,2,0,0,0,2,2h41.326a2,2,0,0,0,2-2V351a2,2,0,0,0-2-2h-31a1.22,1.22,0,0,0,0,2.44h30.565V359.2H62.757v-7.764Z" transform="translate(-51.551 -292.215)"/>
    </g>
  </g>
</svg>
