<svg id="trabajo-en-equipo" xmlns="http://www.w3.org/2000/svg" width="80" height="80" viewBox="0 0 80 80">
  <g id="Grupo_142981" data-name="Grupo 142981" transform="translate(36 5.333)">
    <path id="Trazado_203380" data-name="Trazado 203380" d="M216,32h2.667v2.667H216Zm0,0" transform="translate(-216 -32)" fill="#c7c7c5"/>
    <path id="Trazado_203381" data-name="Trazado 203381" d="M248,32h2.667v2.667H248Zm0,0" transform="translate(-242.667 -32)" fill="#c7c7c5"/>
    <path id="Trazado_203382" data-name="Trazado 203382" d="M216,64h2.667v2.667H216Zm0,0" transform="translate(-216 -58.667)" fill="#c7c7c5"/>
    <path id="Trazado_203383" data-name="Trazado 203383" d="M248,64h2.667v2.667H248Zm0,0" transform="translate(-242.667 -58.667)" fill="#c7c7c5"/>
    <path id="Trazado_203384" data-name="Trazado 203384" d="M216,96h2.667v2.667H216Zm0,0" transform="translate(-216 -85.333)" fill="#c7c7c5"/>
    <path id="Trazado_203385" data-name="Trazado 203385" d="M248,96h2.667v2.667H248Zm0,0" transform="translate(-242.667 -85.333)" fill="#c7c7c5"/>
    <path id="Trazado_203386" data-name="Trazado 203386" d="M216,128h2.667v2.667H216Zm0,0" transform="translate(-216 -112)" fill="#c7c7c5"/>
    <path id="Trazado_203387" data-name="Trazado 203387" d="M248,128h2.667v2.667H248Zm0,0" transform="translate(-242.667 -112)" fill="#c7c7c5"/>
    <path id="Trazado_203388" data-name="Trazado 203388" d="M216,160h2.667v2.667H216Zm0,0" transform="translate(-216 -138.667)" fill="#c7c7c5"/>
    <path id="Trazado_203389" data-name="Trazado 203389" d="M248,160h2.667v2.667H248Zm0,0" transform="translate(-242.667 -138.667)" fill="#c7c7c5"/>
  </g>
  <path id="Trazado_203390" data-name="Trazado 203390" d="M312,160h2.667v2.667H312Zm0,0" transform="translate(-260 -133.333)" fill="#a3a3a1"/>
  <path id="Trazado_203391" data-name="Trazado 203391" d="M312,192h2.667v2.667H312Zm0,0" transform="translate(-260 -160)" fill="#a3a3a1"/>
  <path id="Trazado_203392" data-name="Trazado 203392" d="M312,224h2.667v2.667H312Zm0,0" transform="translate(-260 -186.667)" fill="#a3a3a1"/>
  <path id="Trazado_203393" data-name="Trazado 203393" d="M312,256h2.667v2.667H312Zm0,0" transform="translate(-260 -213.333)" fill="#a3a3a1"/>
  <path id="Trazado_203394" data-name="Trazado 203394" d="M152,160h2.667v2.667H152Zm0,0" transform="translate(-126.667 -133.333)" fill="#a3a3a1"/>
  <path id="Trazado_203395" data-name="Trazado 203395" d="M152,192h2.667v2.667H152Zm0,0" transform="translate(-126.667 -160)" fill="#a3a3a1"/>
  <path id="Trazado_203396" data-name="Trazado 203396" d="M152,224h2.667v2.667H152Zm0,0" transform="translate(-126.667 -186.667)" fill="#a3a3a1"/>
  <path id="Trazado_203397" data-name="Trazado 203397" d="M152,256h2.667v2.667H152Zm0,0" transform="translate(-126.667 -213.333)" fill="#a3a3a1"/>
  <path id="Trazado_203399" data-name="Trazado 203399" d="M376,112h5.333v2.667H376Zm0,0" transform="translate(-313.333 -93.333)" fill="#c7c7c5"/>
  <path id="Trazado_203400" data-name="Trazado 203400" d="M424,112h5.333v2.667H424Zm0,0" transform="translate(-353.333 -93.333)" fill="#c7c7c5"/>
  <path id="Trazado_203401" data-name="Trazado 203401" d="M376,144h5.333v2.667H376Zm0,0" transform="translate(-313.333 -120)" fill="#c7c7c5"/>
  <path id="Trazado_203402" data-name="Trazado 203402" d="M424,144h5.333v2.667H424Zm0,0" transform="translate(-353.333 -120)" fill="#c7c7c5"/>
  <path id="Trazado_203404" data-name="Trazado 203404" d="M32,112H44v2.667H32Zm0,0" transform="translate(-26.667 -93.333)" fill="#c7c7c5"/>
  <path id="Trazado_203405" data-name="Trazado 203405" d="M32,144H44v2.667H32Zm0,0" transform="translate(-26.667 -120)" fill="#c7c7c5"/>
  <path id="Trazado_203412" data-name="Trazado 203412" d="M64,384h2.667v14.667H64Zm0,0" transform="translate(-53.333 -320)" fill="#2a71ad"/>
  <path id="Trazado_203413" data-name="Trazado 203413" d="M32,312h2.667v12H32Zm0,0" transform="translate(-26.667 -260)" fill="#2a71ad"/>
  <path id="Trazado_203414" data-name="Trazado 203414" d="M432,304h2.667v13.333H432Zm0,0" transform="translate(-360 -253.333)" fill="#2a71ad"/>
  <path id="Trazado_203415" data-name="Trazado 203415" d="M400,384h2.667v14.667H400Zm0,0" transform="translate(-333.333 -320)" fill="#2a71ad"/>
  <path id="Trazado_203416" data-name="Trazado 203416" d="M232,392h2.667v13.333H232Zm0,0" transform="translate(-193.333 -326.667)" fill="#419bc2"/>
  <path id="Trazado_203417" data-name="Trazado 203417" d="M0,464H80v2.667H0Zm0,0" transform="translate(0 -386.667)" fill="#e0e0de"/>
  <path id="Trazado_203418" data-name="Trazado 203418" d="M216,32h2.667v2.667H216Zm0,0" transform="translate(-180 -26.667)" fill="#30610c"/>
  <path id="Trazado_203419" data-name="Trazado 203419" d="M248,32h2.667v2.667H248Zm0,0" transform="translate(-206.667 -26.667)" fill="#30610c"/>
  <path id="Trazado_203420" data-name="Trazado 203420" d="M216,64h2.667v2.667H216Zm0,0" transform="translate(-180 -53.333)" fill="#30610c"/>
  <path id="Trazado_203421" data-name="Trazado 203421" d="M248,64h2.667v2.667H248Zm0,0" transform="translate(-206.667 -53.333)" fill="#30610c"/>
  <path id="Trazado_203422" data-name="Trazado 203422" d="M216,96h2.667v2.667H216Zm0,0" transform="translate(-180 -80)" fill="#30610c"/>
  <path id="Trazado_203423" data-name="Trazado 203423" d="M248,96h2.667v2.667H248Zm0,0" transform="translate(-206.667 -80)" fill="#30610c"/>
  <path id="Trazado_203424" data-name="Trazado 203424" d="M216,128h2.667v2.667H216Zm0,0" transform="translate(-180 -106.667)" fill="#30610c"/>
  <path id="Trazado_203425" data-name="Trazado 203425" d="M248,128h2.667v2.667H248Zm0,0" transform="translate(-206.667 -106.667)" fill="#30610c"/>
  <path id="Trazado_203426" data-name="Trazado 203426" d="M216,160h2.667v2.667H216Zm0,0" transform="translate(-180 -133.333)" fill="#30610c"/>
  <path id="Trazado_203427" data-name="Trazado 203427" d="M248,160h2.667v2.667H248Zm0,0" transform="translate(-206.667 -133.333)" fill="#30610c"/>
  <path id="Trazado_203428" data-name="Trazado 203428" d="M312,160h2.667v2.667H312Zm0,0" transform="translate(-260 -133.333)" fill="#30610c"/>
  <path id="Trazado_203429" data-name="Trazado 203429" d="M312,192h2.667v2.667H312Zm0,0" transform="translate(-260 -160)" fill="#30610c"/>
  <path id="Trazado_203430" data-name="Trazado 203430" d="M312,224h2.667v2.667H312Zm0,0" transform="translate(-260 -186.667)" fill="#30610c"/>
  <path id="Trazado_203431" data-name="Trazado 203431" d="M312,256h2.667v2.667H312Zm0,0" transform="translate(-260 -213.333)" fill="#30610c"/>
  <path id="Trazado_203432" data-name="Trazado 203432" d="M152,160h2.667v2.667H152Zm0,0" transform="translate(-126.667 -133.333)" fill="#30610c"/>
  <path id="Trazado_203433" data-name="Trazado 203433" d="M152,192h2.667v2.667H152Zm0,0" transform="translate(-126.667 -160)" fill="#30610c"/>
  <path id="Trazado_203434" data-name="Trazado 203434" d="M152,224h2.667v2.667H152Zm0,0" transform="translate(-126.667 -186.667)" fill="#30610c"/>
  <path id="Trazado_203435" data-name="Trazado 203435" d="M152,256h2.667v2.667H152Zm0,0" transform="translate(-126.667 -213.333)" fill="#30610c"/>
  <path id="Trazado_203436" data-name="Trazado 203436" d="M78.667,13.333H77.333v-4A1.333,1.333,0,0,0,76,8H61.333A1.333,1.333,0,0,0,60,9.333v4H58.667a1.333,1.333,0,0,0-1.333,1.333v6.667H54.667v-12A1.333,1.333,0,0,0,53.333,8h-4V1.333A1.333,1.333,0,0,0,48,0H32a1.333,1.333,0,0,0-1.333,1.333V8h-4a1.333,1.333,0,0,0-1.333,1.333v12H22.667V14.667a1.333,1.333,0,0,0-1.333-1.333H20v-4A1.333,1.333,0,0,0,18.667,8H4A1.333,1.333,0,0,0,2.667,9.333v4H1.333A1.333,1.333,0,0,0,0,14.667V44H2.667V16H20V33.333h2.667V24h8v8h2.667V2.667H46.667V32h2.667V24h8V40H60V16H77.333V44H80V14.667A1.333,1.333,0,0,0,78.667,13.333Zm-73.333,0V10.667h12v2.667Zm22.667,8V10.667h2.667V21.333Zm21.333,0V10.667H52V21.333Zm13.333-8V10.667h12v2.667Zm0,0" transform="translate(0)" fill="#30610c"/>
  <path id="Trazado_203437" data-name="Trazado 203437" d="M376,112h5.333v2.667H376Zm0,0" transform="translate(-313.333 -93.333)" fill="#30610c"/>
  <path id="Trazado_203438" data-name="Trazado 203438" d="M424,112h5.333v2.667H424Zm0,0" transform="translate(-353.333 -93.333)" fill="#30610c"/>
  <path id="Trazado_203439" data-name="Trazado 203439" d="M376,144h5.333v2.667H376Zm0,0" transform="translate(-313.333 -120)" fill="#30610c"/>
  <path id="Trazado_203440" data-name="Trazado 203440" d="M424,144h5.333v2.667H424Zm0,0" transform="translate(-353.333 -120)" fill="#30610c"/>
  <path id="Trazado_203441" data-name="Trazado 203441" d="M73.333,205.333H73.3a6.6,6.6,0,0,0,1.368-4v-2.667a6.667,6.667,0,1,0-13.333,0v2.667a6.6,6.6,0,0,0,1.368,4h-.035a7.393,7.393,0,0,0-6.792,4.463L54,213.785l-1.867-3.964a7.389,7.389,0,0,0-6.8-4.488H45.3a6.6,6.6,0,0,0,1.368-4v-2.667a6.667,6.667,0,1,0-13.333,0v2.667a6.6,6.6,0,0,0,1.368,4h-.035a7.4,7.4,0,0,0-6.78,4.445l-1.885,4-1.867-3.968a7.391,7.391,0,0,0-6.8-4.477H17.3a6.6,6.6,0,0,0,1.368-4v-2.667a6.667,6.667,0,1,0-13.333,0v2.667a6.6,6.6,0,0,0,1.368,4H6.667A6.675,6.675,0,0,0,0,212v12a1.333,1.333,0,0,0,1.333,1.333h4v12H0V240H80v-2.667H74.667v-12h4A1.333,1.333,0,0,0,80,224V212A6.675,6.675,0,0,0,73.333,205.333Zm-9.333-4v-2.667a4,4,0,1,1,8,0v2.667a4,4,0,0,1-8,0Zm-28,0v-2.667a4,4,0,0,1,8,0v2.667a4,4,0,0,1-8,0Zm-28,0v-2.667a4,4,0,1,1,8,0v2.667a4,4,0,1,1-8,0Zm5.333,36V224H10.667v13.333H8V212H5.333v10.667H2.667V212a4,4,0,0,1,4-4H17.333a4.742,4.742,0,0,1,4.368,2.911l5.532,11.756H23.491l-4.958-9.929a1.333,1.333,0,0,0-2.533.6v24Zm16.36-12.053c.037-.012.074-.027.109-.042a1.347,1.347,0,0,0,.217-.1,1.83,1.83,0,0,0,.276-.225,1.355,1.355,0,0,0,.092-.111c.025-.027.049-.056.072-.085s.029-.07.048-.1.032-.044.044-.071l2.781-6.258v19.051H18.667V218.981l2.807,5.615a1.334,1.334,0,0,0,1.193.738h6.667a1.3,1.3,0,0,0,.36-.053Zm11.64,12.053v-12H38.667v12H36V212a1.333,1.333,0,0,0-2.552-.541L29.3,220.792l-1.824-3.878,2.844-6.047a4.732,4.732,0,0,1,1.755-2.094A4.653,4.653,0,0,1,34.667,208H45.333a4.741,4.741,0,0,1,4.365,2.915l2.826,6-1.895,4.028-4.1-8.205a1.333,1.333,0,0,0-2.533.6v24Zm17.219-12.792,2.781-6.258v19.051H46.667V218.981l2.8,5.615a.588.588,0,0,0,.036.051c.01.018.018.047.031.068.028.037.058.072.089.107s.059.075.091.111a1.421,1.421,0,0,0,.165.133c.037.027.07.056.109.079a1.326,1.326,0,0,0,.213.1c.036.013.07.032.107.042a1.365,1.365,0,0,0,.359.052h6.667a1.334,1.334,0,0,0,1.219-.792Zm18.781-1.874H74.667v-12H72v26.667H69.333V224H66.667v13.333H64V212a1.333,1.333,0,0,0-2.552-.541l-4.98,11.208h-3.7L58.3,210.911c.007-.015.012-.028.017-.043A4.729,4.729,0,0,1,62.667,208H73.334a4,4,0,0,1,4,4Zm0,0" transform="translate(0 -160)" fill="#30610c"/>
  <path id="Trazado_203442" data-name="Trazado 203442" d="M32,112H44v2.667H32Zm0,0" transform="translate(-26.667 -93.333)" fill="#30610c"/>
  <path id="Trazado_203443" data-name="Trazado 203443" d="M32,144H44v2.667H32Zm0,0" transform="translate(-26.667 -120)" fill="#30610c"/>
</svg>
