<svg xmlns="http://www.w3.org/2000/svg" xmlns:xlink="http://www.w3.org/1999/xlink" width="429.417" height="370.518" viewBox="0 0 429.417 370.518">
  <defs>
    <filter id="Trazado_191660" x="0" y="0" width="429.417" height="370.518" filterUnits="userSpaceOnUse">
      <feOffset dy="3" input="SourceAlpha"/>
      <feGaussianBlur stdDeviation="5" result="blur"/>
      <feFlood flood-opacity="0.161"/>
      <feComposite operator="in" in2="blur"/>
      <feComposite in="SourceGraphic"/>
    </filter>
  </defs>
  <g id="Grupo_145571" data-name="Grupo 145571" transform="translate(-582.883 -6557.8)">
    <g transform="matrix(1, 0, 0, 1, 582.88, 6557.8)" filter="url(#Trazado_191660)">
      <path id="Trazado_191660-2" data-name="Trazado 191660" d="M27.441,0H371.976c15.155,0,27.441,8.216,27.441,18.351V322.166c0,10.135-12.286,18.351-27.441,18.351H27.441C12.286,340.518,0,332.3,0,322.166V18.351C0,8.216,12.286,0,27.441,0Z" transform="translate(15 12)" fill="#e5f2db"/>
    </g>
    <path id="Trazado_210694" data-name="Trazado 210694" d="M-113.989-4.824V0h-3.428V-14.219h5.674a6.608,6.608,0,0,1,2.886.6,4.526,4.526,0,0,1,1.943,1.709,4.667,4.667,0,0,1,.688,2.515,4.114,4.114,0,0,1-1.489,3.325A6.179,6.179,0,0,1-111.8-4.824Zm0-2.646h2.246a2.118,2.118,0,0,0,1.519-.5,1.85,1.85,0,0,0,.522-1.406,2.287,2.287,0,0,0-.537-1.592,1.9,1.9,0,0,0-1.465-.605h-2.285Zm8.9,2.09a6.236,6.236,0,0,1,.615-2.817,4.4,4.4,0,0,1,1.768-1.9A5.323,5.323,0,0,1-100-10.762a4.858,4.858,0,0,1,3.74,1.47,5.64,5.64,0,0,1,1.367,4v.117A5.472,5.472,0,0,1-96.27-1.255,4.871,4.871,0,0,1-99.985.2a4.927,4.927,0,0,1-3.623-1.353,5.29,5.29,0,0,1-1.475-3.667Zm3.291.205a3.932,3.932,0,0,0,.459,2.148,1.529,1.529,0,0,0,1.357.684q1.758,0,1.8-2.705v-.332q0-2.842-1.816-2.842-1.65,0-1.787,2.451ZM-89.976,0h-3.3V-15h3.3Zm5.615,0h-3.311V-10.566h3.311Zm-1.23-14.8h3.477l-2.715,3.066-2.686,0Zm7.178,1.611v2.627h1.738v2.285h-1.738v4.834a1.234,1.234,0,0,0,.215.83,1.152,1.152,0,0,0,.85.234,4.828,4.828,0,0,0,.82-.059V-.088A6.074,6.074,0,0,1-78.384.2a3.448,3.448,0,0,1-2.51-.8A3.282,3.282,0,0,1-81.7-3.037V-8.281h-1.348v-2.285H-81.7v-2.627ZM-71.909,0h-3.3V-10.566h3.3Zm-3.5-13.291a1.469,1.469,0,0,1,.508-1.152,1.916,1.916,0,0,1,1.318-.449,1.916,1.916,0,0,1,1.318.449,1.469,1.469,0,0,1,.508,1.152,1.469,1.469,0,0,1-.508,1.152,1.916,1.916,0,0,1-1.318.449,1.916,1.916,0,0,1-1.318-.449A1.469,1.469,0,0,1-75.405-13.291Zm9.99,10.947a1.464,1.464,0,0,0,1.074-.376,1.379,1.379,0,0,0,.371-1.05h3.086A3.653,3.653,0,0,1-62.129-.918,4.631,4.631,0,0,1-65.337.2,4.689,4.689,0,0,1-68.97-1.25a5.7,5.7,0,0,1-1.328-4v-.137a6.436,6.436,0,0,1,.591-2.827A4.3,4.3,0,0,1-68-10.1a5.081,5.081,0,0,1,2.637-.659,4.573,4.573,0,0,1,3.271,1.143,4.053,4.053,0,0,1,1.211,3.1H-63.97a1.806,1.806,0,0,0-.4-1.26,1.382,1.382,0,0,0-1.074-.439q-1.279,0-1.494,1.631a11.508,11.508,0,0,0-.068,1.426,4.52,4.52,0,0,0,.381,2.207A1.319,1.319,0,0,0-65.415-2.344ZM-53.54,0a3.716,3.716,0,0,1-.312-.947A3.06,3.06,0,0,1-56.392.2a3.749,3.749,0,0,1-2.539-.9,2.875,2.875,0,0,1-1.045-2.271,2.955,2.955,0,0,1,1.27-2.6,6.468,6.468,0,0,1,3.691-.879H-54v-.559q0-1.462-1.26-1.462a1.03,1.03,0,0,0-1.172,1.158h-3.291a2.95,2.95,0,0,1,1.3-2.487,5.479,5.479,0,0,1,3.325-.956,4.8,4.8,0,0,1,3.193.986A3.429,3.429,0,0,1-50.7-7.07v4.678a4.79,4.79,0,0,0,.449,2.227V0ZM-55.6-2.148a1.836,1.836,0,0,0,1.021-.264,1.653,1.653,0,0,0,.581-.6V-4.7h-.957q-1.719,0-1.719,1.543a.942.942,0,0,0,.3.728A1.1,1.1,0,0,0-55.6-2.148Zm12.256-.82a.76.76,0,0,0-.439-.674,6.685,6.685,0,0,0-1.67-.527,7.615,7.615,0,0,1-2.031-.718,3.4,3.4,0,0,1-1.221-1.079,2.577,2.577,0,0,1-.42-1.455,2.92,2.92,0,0,1,1.2-2.4,4.948,4.948,0,0,1,3.145-.942,5.482,5.482,0,0,1,3.359.947,2.962,2.962,0,0,1,1.27,2.49h-3.3q0-1.27-1.338-1.27a1.326,1.326,0,0,0-.869.288.892.892,0,0,0-.352.718.819.819,0,0,0,.43.713,4.06,4.06,0,0,0,1.372.449,11.857,11.857,0,0,1,1.655.42,3.007,3.007,0,0,1,2.383,2.939A2.767,2.767,0,0,1-41.455-.713,5.632,5.632,0,0,1-44.78.2,5.747,5.747,0,0,1-47.2-.293a4.05,4.05,0,0,1-1.66-1.328,3.007,3.007,0,0,1-.6-1.768h3.076a1.272,1.272,0,0,0,.488,1.069,2.009,2.009,0,0,0,1.2.337,1.58,1.58,0,0,0,1.011-.273A.875.875,0,0,0-43.345-2.969Zm9.277-2.393a6.455,6.455,0,0,1,1.084-3.955,3.568,3.568,0,0,1,3.027-1.445,3.035,3.035,0,0,1,2.383,1.113V-15h3.3V0h-2.959L-27.4-1.133A3.116,3.116,0,0,1-29.976.2,3.562,3.562,0,0,1-32.964-1.25,6.659,6.659,0,0,1-34.067-5.361Zm3.291.205q0,2.813,1.641,2.813a1.62,1.62,0,0,0,1.563-.918V-7.285a1.576,1.576,0,0,0-1.543-.937q-1.523,0-1.65,2.461ZM-17.29.2a5.432,5.432,0,0,1-3.936-1.45,5.008,5.008,0,0,1-1.5-3.774V-5.3a6.489,6.489,0,0,1,.6-2.861,4.395,4.395,0,0,1,1.753-1.919,5.292,5.292,0,0,1,2.734-.679A4.574,4.574,0,0,1-14.126-9.38a5.43,5.43,0,0,1,1.289,3.853v1.279H-19.38a2.372,2.372,0,0,0,.771,1.4,2.3,2.3,0,0,0,1.543.508,2.958,2.958,0,0,0,2.441-1.094l1.5,1.777A4.2,4.2,0,0,1-14.863-.308,5.891,5.891,0,0,1-17.29.2Zm-.371-8.418q-1.445,0-1.719,1.914h3.32v-.254a1.63,1.63,0,0,0-.4-1.226A1.593,1.593,0,0,0-17.661-8.223ZM-1.7-5.205A6.372,6.372,0,0,1-2.812-1.274,3.554,3.554,0,0,1-5.806.2,3.046,3.046,0,0,1-8.2-.869V4.063h-3.291V-10.566h3.076l.1.977a3.046,3.046,0,0,1,2.49-1.172,3.582,3.582,0,0,1,3.037,1.44A6.45,6.45,0,0,1-1.7-5.361ZM-5-5.41q0-2.812-1.641-2.812a1.549,1.549,0,0,0-1.562.84v4.16a1.6,1.6,0,0,0,1.582.879q1.572,0,1.621-2.715ZM5.7,0a3.716,3.716,0,0,1-.312-.947A3.06,3.06,0,0,1,2.847.2a3.749,3.749,0,0,1-2.539-.9A2.875,2.875,0,0,1-.737-2.979a2.955,2.955,0,0,1,1.27-2.6,6.468,6.468,0,0,1,3.691-.879H5.239v-.559q0-1.462-1.26-1.462A1.03,1.03,0,0,0,2.808-7.319H-.483A2.95,2.95,0,0,1,.82-9.806a5.479,5.479,0,0,1,3.325-.956,4.8,4.8,0,0,1,3.193.986A3.429,3.429,0,0,1,8.54-7.07v4.678A4.79,4.79,0,0,0,8.989-.166V0ZM3.638-2.148a1.836,1.836,0,0,0,1.021-.264,1.653,1.653,0,0,0,.581-.6V-4.7H4.282q-1.719,0-1.719,1.543a.942.942,0,0,0,.3.728A1.1,1.1,0,0,0,3.638-2.148ZM16.753-7.588l-1.084-.078a1.947,1.947,0,0,0-1.992.977V0H10.386V-10.566h3.086l.107,1.357a2.548,2.548,0,0,1,2.314-1.553,3.209,3.209,0,0,1,.918.117Zm5.508-5.605v2.627H24v2.285H22.261v4.834a1.234,1.234,0,0,0,.215.83,1.152,1.152,0,0,0,.85.234,4.828,4.828,0,0,0,.82-.059V-.088A6.074,6.074,0,0,1,22.29.2a3.448,3.448,0,0,1-2.51-.8,3.282,3.282,0,0,1-.811-2.432V-8.281H17.622v-2.285H18.97v-2.627ZM31.245,0a3.716,3.716,0,0,1-.312-.947A3.06,3.06,0,0,1,28.394.2a3.749,3.749,0,0,1-2.539-.9A2.875,2.875,0,0,1,24.81-2.979a2.955,2.955,0,0,1,1.27-2.6,6.468,6.468,0,0,1,3.691-.879h1.016v-.559q0-1.462-1.26-1.462a1.03,1.03,0,0,0-1.172,1.158H25.063a2.95,2.95,0,0,1,1.3-2.487,5.479,5.479,0,0,1,3.325-.956,4.8,4.8,0,0,1,3.193.986,3.429,3.429,0,0,1,1.2,2.705v4.678a4.79,4.79,0,0,0,.449,2.227V0ZM29.185-2.148a1.836,1.836,0,0,0,1.021-.264,1.653,1.653,0,0,0,.581-.6V-4.7h-.957q-1.719,0-1.719,1.543a.942.942,0,0,0,.3.728A1.1,1.1,0,0,0,29.185-2.148Zm9.834-8.418.107,1.24a3.633,3.633,0,0,1,3.018-1.436A2.675,2.675,0,0,1,44.849-9.17a3.516,3.516,0,0,1,3.105-1.592q3.213,0,3.3,3.887V0h-3.3V-6.67a2.014,2.014,0,0,0-.273-1.182,1.164,1.164,0,0,0-1-.371,1.559,1.559,0,0,0-1.455.869l.01.137V0h-3.3V-6.65a2.117,2.117,0,0,0-.264-1.2,1.161,1.161,0,0,0-1.006-.371,1.578,1.578,0,0,0-1.445.869V0H35.933V-10.566ZM58.247.2a5.432,5.432,0,0,1-3.936-1.45,5.008,5.008,0,0,1-1.5-3.774V-5.3a6.489,6.489,0,0,1,.6-2.861,4.395,4.395,0,0,1,1.753-1.919,5.292,5.292,0,0,1,2.734-.679A4.574,4.574,0,0,1,61.411-9.38,5.43,5.43,0,0,1,62.7-5.527v1.279H56.157a2.372,2.372,0,0,0,.771,1.4,2.3,2.3,0,0,0,1.543.508,2.958,2.958,0,0,0,2.441-1.094l1.5,1.777A4.2,4.2,0,0,1,60.674-.308,5.891,5.891,0,0,1,58.247.2Zm-.371-8.418q-1.445,0-1.719,1.914h3.32v-.254a1.63,1.63,0,0,0-.4-1.226A1.593,1.593,0,0,0,57.876-8.223Zm9.17-2.344.107,1.24a3.583,3.583,0,0,1,3.018-1.436,3.015,3.015,0,0,1,2.466.986,4.7,4.7,0,0,1,.845,2.969V0h-3.3V-6.67a1.783,1.783,0,0,0-.322-1.177,1.491,1.491,0,0,0-1.172-.376,1.569,1.569,0,0,0-1.436.762V0H63.96V-10.566Zm12.09-2.627v2.627h1.738v2.285H79.136v4.834a1.234,1.234,0,0,0,.215.83,1.152,1.152,0,0,0,.85.234,4.828,4.828,0,0,0,.82-.059V-.088A6.074,6.074,0,0,1,79.165.2a3.448,3.448,0,0,1-2.51-.8,3.282,3.282,0,0,1-.811-2.432V-8.281H74.5v-2.285h1.348v-2.627ZM88.12,0a3.716,3.716,0,0,1-.312-.947A3.06,3.06,0,0,1,85.269.2a3.749,3.749,0,0,1-2.539-.9,2.875,2.875,0,0,1-1.045-2.271,2.955,2.955,0,0,1,1.27-2.6,6.468,6.468,0,0,1,3.691-.879h1.016v-.559q0-1.462-1.26-1.462a1.03,1.03,0,0,0-1.172,1.158H81.938a2.95,2.95,0,0,1,1.3-2.487,5.479,5.479,0,0,1,3.325-.956,4.8,4.8,0,0,1,3.193.986,3.429,3.429,0,0,1,1.2,2.705v4.678a4.79,4.79,0,0,0,.449,2.227V0ZM86.06-2.148a1.836,1.836,0,0,0,1.021-.264,1.653,1.653,0,0,0,.581-.6V-4.7H86.7q-1.719,0-1.719,1.543a.942.942,0,0,0,.3.728A1.1,1.1,0,0,0,86.06-2.148ZM96.255,0h-3.3V-15h3.3Zm7.139.2a5.432,5.432,0,0,1-3.936-1.45,5.008,5.008,0,0,1-1.5-3.774V-5.3a6.489,6.489,0,0,1,.6-2.861,4.395,4.395,0,0,1,1.753-1.919,5.292,5.292,0,0,1,2.734-.679,4.574,4.574,0,0,1,3.516,1.382,5.43,5.43,0,0,1,1.289,3.853v1.279H101.3a2.372,2.372,0,0,0,.771,1.4,2.3,2.3,0,0,0,1.543.508,2.958,2.958,0,0,0,2.441-1.094l1.5,1.777A4.2,4.2,0,0,1,105.82-.308,5.891,5.891,0,0,1,103.394.2Zm-.371-8.418q-1.445,0-1.719,1.914h3.32v-.254a1.63,1.63,0,0,0-.4-1.226A1.593,1.593,0,0,0,103.022-8.223ZM114.7-2.969a.76.76,0,0,0-.439-.674,6.685,6.685,0,0,0-1.67-.527,7.615,7.615,0,0,1-2.031-.718,3.4,3.4,0,0,1-1.221-1.079,2.577,2.577,0,0,1-.42-1.455,2.92,2.92,0,0,1,1.2-2.4,4.948,4.948,0,0,1,3.145-.942,5.482,5.482,0,0,1,3.359.947,2.962,2.962,0,0,1,1.27,2.49h-3.3q0-1.27-1.338-1.27a1.326,1.326,0,0,0-.869.288.892.892,0,0,0-.352.718.819.819,0,0,0,.43.713,4.06,4.06,0,0,0,1.372.449,11.857,11.857,0,0,1,1.655.42,3.007,3.007,0,0,1,2.383,2.939,2.767,2.767,0,0,1-1.284,2.354A5.631,5.631,0,0,1,113.267.2a5.747,5.747,0,0,1-2.422-.488,4.05,4.05,0,0,1-1.66-1.328,3.007,3.007,0,0,1-.6-1.768h3.076a1.272,1.272,0,0,0,.488,1.069,2.009,2.009,0,0,0,1.2.337,1.58,1.58,0,0,0,1.011-.273A.875.875,0,0,0,114.7-2.969Z" transform="translate(801.591 6805.558)" fill="#12263f"/>
    <g id="Page-1" transform="translate(740 6617.4)">
      <g id="_046---Legal-Policy" data-name="046---Legal-Policy" transform="translate(0 0)">
        <g id="Grupo_142826" data-name="Grupo 142826">
          <path id="Path" d="M17,10H53a2,2,0,1,0,0-4H17a2,2,0,1,0,0,4Z" transform="translate(15 6)" fill="#428212" fill-rule="evenodd"/>
          <path id="Path-2" data-name="Path" d="M17,16H53a2,2,0,1,0,0-4H17a2,2,0,1,0,0,4Z" transform="translate(15 12)" fill="#428212" fill-rule="evenodd"/>
          <path id="Path-3" data-name="Path" d="M17,22H53a2,2,0,1,0,0-4H17a2,2,0,1,0,0,4Z" transform="translate(15 18)" fill="#428212" fill-rule="evenodd"/>
          <path id="Path-4" data-name="Path" d="M17,28H53a2,2,0,1,0,0-4H17a2,2,0,1,0,0,4Z" transform="translate(15 24)" fill="#428212" fill-rule="evenodd"/>
          <path id="Path-5" data-name="Path" d="M17,34H41a2,2,0,1,0,0-4H17a2,2,0,1,0,0,4Z" transform="translate(15 30)" fill="#428212" fill-rule="evenodd"/>
          <path id="Path-6" data-name="Path" d="M33,38a2,2,0,0,0-2-2H17a2,2,0,1,0,0,4H31A2,2,0,0,0,33,38Z" transform="translate(15 36)" fill="#428212" fill-rule="evenodd"/>
          <path id="Shape" d="M94.47,75.962l.73-.73a4.07,4.07,0,0,0,1,.144,4,4,0,0,0,2.828-1.17l6.592-6.586a4,4,0,0,0,0-5.658L88.82,45.176a4,4,0,0,0-5.656,0L80,48.346V12A12.012,12.012,0,0,0,68,0H12.046A12,12,0,0,0,0,12V54a4,4,0,0,0,4,4H20V98a12.046,12.046,0,0,0,12.02,12H48v6a4,4,0,0,0,4,4H80a4,4,0,0,0,4-4v-6h4A12,12,0,0,0,99.974,98.5l9.7,9.7a6.03,6.03,0,1,0,8.544-8.512ZM66.6,84.6l-.034-.034L58,76l6.584-6.582H64.6L81.374,86.2,74.8,92.8Zm16.2-2.634L68.828,68,78,58.832,91.972,72.8ZM86,48l16.8,16.8-6.6,6.578L79.446,54.62a.227.227,0,0,0-.024-.034l.014-.02ZM20,54H4V12A8.028,8.028,0,0,1,6.62,6.088,7.938,7.938,0,0,1,11.976,4h.2a4.319,4.319,0,0,1,.618.03,8.3,8.3,0,0,1,7.21,8.4Zm4,44V12.426A12.684,12.684,0,0,0,20.8,4H68a8,8,0,0,1,8,8V52.528a4,4,0,0,0-.436,3.082L65.6,65.568a3.986,3.986,0,0,0-3.848,1.02l-6.586,6.584a4,4,0,0,0,0,5.656L60.346,84H44a4,4,0,0,0-4,4v9.58a8.314,8.314,0,0,1-7.262,8.4A5.819,5.819,0,0,1,32,106a8.032,8.032,0,0,1-8-8Zm28,18v-8a2,2,0,0,1,2-2H78a2,2,0,0,1,2,2v8ZM96,98a8,8,0,0,1-8,8H83.632A6,6,0,0,0,78,102H54a6,6,0,0,0-5.632,4H40.8A12.684,12.684,0,0,0,44,97.58V88H64.346l7.614,7.616a4.01,4.01,0,0,0,5.656,0L84.2,89.034A3.912,3.912,0,0,0,85.228,85.2l.718-.718L96,94.53Zm19.372,7.4a2.048,2.048,0,0,1-2.858-.016l-13.1-13.1L88.782,81.656,91.64,78.8l23.76,23.726a1.984,1.984,0,0,1-.022,2.876Z" transform="translate(0 0)" fill="#428212"/>
        </g>
      </g>
    </g>
  </g>
</svg>
