<svg xmlns="http://www.w3.org/2000/svg" xmlns:xlink="http://www.w3.org/1999/xlink" width="429.417" height="370.518" viewBox="0 0 429.417 370.518">
  <defs>
    <filter id="Trazado_191661" x="0" y="0" width="429.417" height="370.518" filterUnits="userSpaceOnUse">
      <feOffset dy="3" input="SourceAlpha"/>
      <feGaussianBlur stdDeviation="5" result="blur"/>
      <feFlood flood-opacity="0.161"/>
      <feComposite operator="in" in2="blur"/>
      <feComposite in="SourceGraphic"/>
    </filter>
  </defs>
  <g id="Grupo_145570" data-name="Grupo 145570" transform="translate(-165.583 -6553.8)">
    <g transform="matrix(1, 0, 0, 1, 165.58, 6553.8)" filter="url(#Trazado_191661)">
      <path id="Trazado_191661-2" data-name="Trazado 191661" d="M27.441,0H371.976c15.155,0,27.441,8.216,27.441,18.351V322.166c0,10.135-12.286,18.351-27.441,18.351H27.441C12.286,340.518,0,332.3,0,322.166V18.351C0,8.216,12.286,0,27.441,0Z" transform="translate(15 12)" fill="#e5f2db"/>
    </g>
    <path id="Trazado_210693" data-name="Trazado 210693" d="M-82-4.824V0H-85.43V-14.219h5.674a6.608,6.608,0,0,1,2.886.6,4.526,4.526,0,0,1,1.943,1.709,4.667,4.667,0,0,1,.688,2.515,4.114,4.114,0,0,1-1.489,3.325,6.179,6.179,0,0,1-4.087,1.245Zm0-2.646h2.246a2.118,2.118,0,0,0,1.519-.5,1.85,1.85,0,0,0,.522-1.406,2.287,2.287,0,0,0-.537-1.592,1.9,1.9,0,0,0-1.465-.605H-82Zm8.9,2.09A6.236,6.236,0,0,1-72.49-8.2a4.4,4.4,0,0,1,1.768-1.9,5.323,5.323,0,0,1,2.705-.664,4.858,4.858,0,0,1,3.74,1.47,5.64,5.64,0,0,1,1.367,4v.117a5.472,5.472,0,0,1-1.372,3.921A4.871,4.871,0,0,1-68,.2a4.927,4.927,0,0,1-3.623-1.353A5.29,5.29,0,0,1-73.1-4.824Zm3.291.205a3.932,3.932,0,0,0,.459,2.148A1.529,1.529,0,0,0-68-2.344q1.758,0,1.8-2.705v-.332q0-2.842-1.816-2.842-1.65,0-1.787,2.451ZM-57.988,0h-3.3V-15h3.3Zm5.615,0h-3.311V-10.566h3.311ZM-53.6-14.8h3.477l-2.715,3.066-2.686,0Zm7.178,1.611v2.627h1.738v2.285h-1.738v4.834a1.234,1.234,0,0,0,.215.83,1.152,1.152,0,0,0,.85.234,4.828,4.828,0,0,0,.82-.059V-.088A6.074,6.074,0,0,1-46.4.2a3.448,3.448,0,0,1-2.51-.8,3.282,3.282,0,0,1-.811-2.432V-8.281h-1.348v-2.285h1.348v-2.627ZM-39.922,0h-3.3V-10.566h3.3Zm-3.5-13.291a1.469,1.469,0,0,1,.508-1.152,1.916,1.916,0,0,1,1.318-.449,1.916,1.916,0,0,1,1.318.449,1.469,1.469,0,0,1,.508,1.152,1.469,1.469,0,0,1-.508,1.152,1.916,1.916,0,0,1-1.318.449,1.916,1.916,0,0,1-1.318-.449A1.469,1.469,0,0,1-43.418-13.291Zm9.99,10.947a1.464,1.464,0,0,0,1.074-.376,1.379,1.379,0,0,0,.371-1.05H-28.9A3.653,3.653,0,0,1-30.142-.918,4.631,4.631,0,0,1-33.35.2,4.689,4.689,0,0,1-36.982-1.25a5.7,5.7,0,0,1-1.328-4v-.137a6.436,6.436,0,0,1,.591-2.827,4.3,4.3,0,0,1,1.7-1.885,5.081,5.081,0,0,1,2.637-.659,4.573,4.573,0,0,1,3.271,1.143,4.053,4.053,0,0,1,1.211,3.1h-3.086a1.807,1.807,0,0,0-.4-1.26,1.382,1.382,0,0,0-1.074-.439q-1.279,0-1.494,1.631a11.507,11.507,0,0,0-.068,1.426,4.52,4.52,0,0,0,.381,2.207A1.319,1.319,0,0,0-33.428-2.344ZM-21.553,0a3.716,3.716,0,0,1-.312-.947A3.06,3.06,0,0,1-24.4.2a3.749,3.749,0,0,1-2.539-.9,2.875,2.875,0,0,1-1.045-2.271,2.955,2.955,0,0,1,1.27-2.6,6.468,6.468,0,0,1,3.691-.879h1.016v-.559q0-1.462-1.26-1.462a1.03,1.03,0,0,0-1.172,1.158h-3.291a2.95,2.95,0,0,1,1.3-2.487,5.479,5.479,0,0,1,3.325-.956,4.8,4.8,0,0,1,3.193.986,3.429,3.429,0,0,1,1.2,2.705v4.678a4.79,4.79,0,0,0,.449,2.227V0Zm-2.061-2.148a1.836,1.836,0,0,0,1.021-.264,1.653,1.653,0,0,0,.581-.6V-4.7h-.957q-1.719,0-1.719,1.543a.942.942,0,0,0,.3.728A1.1,1.1,0,0,0-23.613-2.148Zm12.256-.82a.76.76,0,0,0-.439-.674,6.685,6.685,0,0,0-1.67-.527A7.615,7.615,0,0,1-15.5-4.888a3.4,3.4,0,0,1-1.221-1.079,2.577,2.577,0,0,1-.42-1.455,2.92,2.92,0,0,1,1.2-2.4,4.948,4.948,0,0,1,3.145-.942,5.482,5.482,0,0,1,3.359.947,2.962,2.962,0,0,1,1.27,2.49h-3.3q0-1.27-1.338-1.27a1.326,1.326,0,0,0-.869.288.892.892,0,0,0-.352.718.819.819,0,0,0,.43.713,4.06,4.06,0,0,0,1.372.449,11.857,11.857,0,0,1,1.655.42A3.007,3.007,0,0,1-8.184-3.066,2.767,2.767,0,0,1-9.468-.713,5.632,5.632,0,0,1-12.793.2a5.747,5.747,0,0,1-2.422-.488,4.05,4.05,0,0,1-1.66-1.328,3.007,3.007,0,0,1-.6-1.768h3.076a1.272,1.272,0,0,0,.488,1.069,2.009,2.009,0,0,0,1.2.337,1.58,1.58,0,0,0,1.011-.273A.875.875,0,0,0-11.357-2.969Zm9.307-2.393a7.134,7.134,0,0,1,.527-2.832,4.245,4.245,0,0,1,1.514-1.9,3.99,3.99,0,0,1,2.295-.669A3.173,3.173,0,0,1,4.863-9.648l.117-.918H7.969V-.4a4.455,4.455,0,0,1-.649,2.427,4.167,4.167,0,0,1-1.88,1.582,6.91,6.91,0,0,1-2.852.552A5.961,5.961,0,0,1,.337,3.721,4.063,4.063,0,0,1-1.328,2.578L.049.645A3.018,3.018,0,0,0,2.471,1.729,1.96,1.96,0,0,0,4.658-.518V-.85A3.09,3.09,0,0,1,2.266.2,3.819,3.819,0,0,1-.859-1.284a6.13,6.13,0,0,1-1.191-3.96Zm3.3.205A3.759,3.759,0,0,0,1.738-3.1a1.541,1.541,0,0,0,1.367.757,1.748,1.748,0,0,0,1.553-.713V-7.5a1.7,1.7,0,0,0-1.533-.723,1.551,1.551,0,0,0-1.377.786A4.287,4.287,0,0,0,1.25-5.156ZM14.951.2a5.432,5.432,0,0,1-3.936-1.45,5.008,5.008,0,0,1-1.5-3.774V-5.3a6.489,6.489,0,0,1,.6-2.861,4.395,4.395,0,0,1,1.753-1.919,5.292,5.292,0,0,1,2.734-.679A4.574,4.574,0,0,1,18.115-9.38,5.43,5.43,0,0,1,19.4-5.527v1.279H12.861a2.372,2.372,0,0,0,.771,1.4,2.3,2.3,0,0,0,1.543.508,2.958,2.958,0,0,0,2.441-1.094l1.5,1.777A4.2,4.2,0,0,1,17.378-.308,5.891,5.891,0,0,1,14.951.2ZM14.58-8.223q-1.445,0-1.719,1.914h3.32v-.254a1.63,1.63,0,0,0-.4-1.226A1.593,1.593,0,0,0,14.58-8.223Zm9.17-2.344.107,1.24a3.583,3.583,0,0,1,3.018-1.436,3.015,3.015,0,0,1,2.466.986,4.7,4.7,0,0,1,.845,2.969V0h-3.3V-6.67a1.783,1.783,0,0,0-.322-1.177,1.491,1.491,0,0,0-1.172-.376,1.569,1.569,0,0,0-1.436.762V0H20.664V-10.566ZM37.119.2a5.432,5.432,0,0,1-3.936-1.45,5.008,5.008,0,0,1-1.5-3.774V-5.3a6.489,6.489,0,0,1,.6-2.861,4.395,4.395,0,0,1,1.753-1.919,5.292,5.292,0,0,1,2.734-.679A4.574,4.574,0,0,1,40.283-9.38a5.43,5.43,0,0,1,1.289,3.853v1.279H35.029a2.372,2.372,0,0,0,.771,1.4,2.3,2.3,0,0,0,1.543.508,2.958,2.958,0,0,0,2.441-1.094l1.5,1.777A4.2,4.2,0,0,1,39.546-.308,5.891,5.891,0,0,1,37.119.2Zm-.371-8.418q-1.445,0-1.719,1.914h3.32v-.254a1.63,1.63,0,0,0-.4-1.226A1.593,1.593,0,0,0,36.748-8.223Zm12.539.635L48.2-7.666a1.947,1.947,0,0,0-1.992.977V0H42.92V-10.566h3.086l.107,1.357a2.548,2.548,0,0,1,2.314-1.553,3.209,3.209,0,0,1,.918.117ZM56.133,0a3.716,3.716,0,0,1-.312-.947A3.06,3.06,0,0,1,53.281.2a3.749,3.749,0,0,1-2.539-.9A2.875,2.875,0,0,1,49.7-2.979a2.955,2.955,0,0,1,1.27-2.6,6.468,6.468,0,0,1,3.691-.879h1.016v-.559q0-1.462-1.26-1.462a1.03,1.03,0,0,0-1.172,1.158H49.951a2.95,2.95,0,0,1,1.3-2.487,5.479,5.479,0,0,1,3.325-.956,4.8,4.8,0,0,1,3.193.986,3.429,3.429,0,0,1,1.2,2.705v4.678a4.79,4.79,0,0,0,.449,2.227V0ZM54.072-2.148a1.836,1.836,0,0,0,1.021-.264,1.653,1.653,0,0,0,.581-.6V-4.7h-.957Q53-4.7,53-3.154a.942.942,0,0,0,.3.728A1.1,1.1,0,0,0,54.072-2.148ZM64.268,0h-3.3V-15h3.3Zm7.139.2a5.432,5.432,0,0,1-3.936-1.45,5.008,5.008,0,0,1-1.5-3.774V-5.3a6.489,6.489,0,0,1,.6-2.861,4.395,4.395,0,0,1,1.753-1.919,5.292,5.292,0,0,1,2.734-.679A4.574,4.574,0,0,1,74.57-9.38a5.43,5.43,0,0,1,1.289,3.853v1.279H69.316a2.372,2.372,0,0,0,.771,1.4,2.3,2.3,0,0,0,1.543.508,2.958,2.958,0,0,0,2.441-1.094l1.5,1.777A4.2,4.2,0,0,1,73.833-.308,5.891,5.891,0,0,1,71.406.2Zm-.371-8.418q-1.445,0-1.719,1.914h3.32v-.254a1.63,1.63,0,0,0-.4-1.226A1.593,1.593,0,0,0,71.035-8.223Zm11.68,5.254a.76.76,0,0,0-.439-.674,6.685,6.685,0,0,0-1.67-.527,7.615,7.615,0,0,1-2.031-.718,3.4,3.4,0,0,1-1.221-1.079,2.577,2.577,0,0,1-.42-1.455,2.92,2.92,0,0,1,1.2-2.4,4.948,4.948,0,0,1,3.145-.942,5.482,5.482,0,0,1,3.359.947,2.962,2.962,0,0,1,1.27,2.49h-3.3q0-1.27-1.338-1.27a1.326,1.326,0,0,0-.869.288.892.892,0,0,0-.352.718.819.819,0,0,0,.43.713,4.06,4.06,0,0,0,1.372.449,11.857,11.857,0,0,1,1.655.42,3.007,3.007,0,0,1,2.383,2.939A2.767,2.767,0,0,1,84.6-.713,5.631,5.631,0,0,1,81.279.2a5.747,5.747,0,0,1-2.422-.488A4.05,4.05,0,0,1,77.2-1.621a3.007,3.007,0,0,1-.6-1.768h3.076a1.272,1.272,0,0,0,.488,1.069,2.009,2.009,0,0,0,1.2.337,1.58,1.58,0,0,0,1.011-.273A.875.875,0,0,0,82.715-2.969Z" transform="translate(380.292 6805.558)" fill="#12263f"/>
    <g id="Grupo_142825" data-name="Grupo 142825" transform="translate(320.855 6618.544)">
      <path id="Trazado_203033" data-name="Trazado 203033" d="M131.26,135.66a1.758,1.758,0,0,0,0,3.516h24.382a1.758,1.758,0,0,0,0-3.516Z" transform="translate(-99.714 -103.865)" fill="#428212"/>
      <path id="Trazado_203034" data-name="Trazado 203034" d="M339.862,230.347a8.661,8.661,0,0,0,8.651-8.651v-2.506a8.651,8.651,0,0,0-17.3,0V221.7A8.661,8.661,0,0,0,339.862,230.347Zm-5.136-11.158a5.136,5.136,0,0,1,10.271,0V221.7a5.136,5.136,0,0,1-10.271,0Z" transform="translate(-254.147 -161.193)" fill="#428212"/>
      <path id="Trazado_203035" data-name="Trazado 203035" d="M310.067,295.366a14.068,14.068,0,0,0-2.191,7.553v5.34a4.671,4.671,0,0,0,4.666,4.666h18.909a4.671,4.671,0,0,0,4.666-4.666v-5.34a14.069,14.069,0,0,0-2.191-7.553h0a4.508,4.508,0,0,0-6.234-1.4,10.565,10.565,0,0,1-11.392,0A4.509,4.509,0,0,0,310.067,295.366Zm13.86,3.652L322,302.2l-1.931-3.18A14.142,14.142,0,0,0,323.927,299.018Zm-10.038-2.24c.356,0,.482.143.962.425l4.459,7.345a3.143,3.143,0,0,0,5.373,0l4.459-7.345c.454-.267.695-.51,1.176-.4a1.013,1.013,0,0,1,.64.449h0c2.417,3.807,1.4,7.1,1.643,11.009a1.151,1.151,0,0,1-1.15,1.15H312.542a1.151,1.151,0,0,1-1.15-1.15v-5.34a10.559,10.559,0,0,1,1.643-5.669A1.012,1.012,0,0,1,313.889,296.777Z" transform="translate(-236.281 -224.528)" fill="#428212"/>
      <path id="Trazado_203036" data-name="Trazado 203036" d="M118.016,57.318a22.984,22.984,0,0,1-12.808-13.94,5.358,5.358,0,0,0-4.251-3.66,82.811,82.811,0,0,0-25.674,0,5.359,5.359,0,0,0-4.251,3.66,22.947,22.947,0,0,1-3.762,7.009H16.527a1.758,1.758,0,1,0,0,3.516H63.837a22.977,22.977,0,0,1-5.612,3.415,5.322,5.322,0,0,0-3.232,5.475q.1.994.247,1.982H16.527a1.758,1.758,0,1,0,0,3.516H55.868a53.986,53.986,0,0,0,3.568,10.875H16.527a1.758,1.758,0,1,0,0,3.516H61.172a54.987,54.987,0,0,0,3.789,6.05,53.662,53.662,0,0,0,3.916,4.823H16.527a1.758,1.758,0,1,0,0,3.516H72.415a47.052,47.052,0,0,0,13.691,8.659c.086.035.172.067.258.1v6.883a3.78,3.78,0,0,1-3.776,3.776H9.7a3.78,3.78,0,0,1-3.776-3.776V30.43h20.3a6.618,6.618,0,0,0,6.61-6.61V3.516H82.588a3.78,3.78,0,0,1,3.776,3.776V33.444a1.758,1.758,0,0,0,3.516,0V7.292A7.3,7.3,0,0,0,82.588,0h-51.5a1.742,1.742,0,0,0-.273.019h0l-.039.006h0l-.082.016h0l-.037.009h0l-.08.022h0c-.04.012-.08.026-.119.041h0a1.756,1.756,0,0,0-.609.4L2.92,27.43a1.758,1.758,0,0,0-.514,1.3v83.98A7.3,7.3,0,0,0,9.7,120H82.588a7.3,7.3,0,0,0,7.291-7.291v-6.884q.128-.045.255-.1a50.35,50.35,0,0,0,24.5-22.267,1.758,1.758,0,1,0-3.068-1.716,46.826,46.826,0,0,1-22.761,20.728,1.83,1.83,0,0,1-1.373,0,43.636,43.636,0,0,1-13.02-8.338,1.773,1.773,0,0,0-.235-.217,49.266,49.266,0,0,1-6.367-7.243,51.439,51.439,0,0,1-3.946-6.418,1.755,1.755,0,0,0-.138-.267,50.522,50.522,0,0,1-4.671-13.671,1.751,1.751,0,0,0-.039-.212q-.334-1.83-.53-3.682A1.825,1.825,0,0,1,59.6,60.551,26.5,26.5,0,0,0,74.372,44.478a1.859,1.859,0,0,1,1.457-1.287,79.309,79.309,0,0,1,24.584,0,1.859,1.859,0,0,1,1.457,1.287,26.5,26.5,0,0,0,14.768,16.073,1.825,1.825,0,0,1,1.115,1.873,49.966,49.966,0,0,1-3.265,13.183,1.758,1.758,0,0,0,3.268,1.3,53.478,53.478,0,0,0,3.494-14.111A5.323,5.323,0,0,0,118.016,57.318Zm-91.792-30.4H8.407L29.319,6V23.82A3.1,3.1,0,0,1,26.224,26.915Z" transform="translate(-2.405 -0.001)" fill="#428212"/>
    </g>
  </g>
</svg>
