<svg xmlns="http://www.w3.org/2000/svg" width="75.36" height="90.21" viewBox="0 0 75.36 90.21">
  <g id="portapapeles" transform="translate(-32.885 1.25)">
    <g id="Grupo_129634" data-name="Grupo 129634" transform="translate(59.377)">
      <g id="Grupo_129633" data-name="Grupo 129633">
        <path id="Trazado_194796" data-name="Trazado 194796" d="M164.245,0H148.262a3.207,3.207,0,0,0-3.2,3.2v7.992a3.207,3.207,0,0,0,3.2,3.2h15.983a3.207,3.207,0,0,0,3.2-3.2V3.2A3.207,3.207,0,0,0,164.245,0Z" transform="translate(-145.065)" fill="none" stroke="#30610c" stroke-width="2.5"/>
      </g>
    </g>
    <g id="Grupo_129636" data-name="Grupo 129636" transform="translate(34.135 6.394)">
      <g id="Grupo_129635" data-name="Grupo 129635" transform="translate(0)">
        <path id="Trazado_194797" data-name="Trazado 194797" d="M99.71,34.135H88.781v7.392a7.364,7.364,0,0,1-7.286,7.393H59.636a7.364,7.364,0,0,1-7.286-7.393V34.135H41.42a7.363,7.363,0,0,0-7.285,7.392v66.532a7.363,7.363,0,0,0,7.285,7.393H99.71A7.363,7.363,0,0,0,107,108.058V41.527A7.363,7.363,0,0,0,99.71,34.135Zm-51,29.569H70.565V71.1H48.707Zm36.43,36.963H48.707V93.274h36.43Zm7.286-14.786H48.707V78.489H92.424Z" transform="translate(-34.135 -34.135)" fill="none" stroke="#30610c" stroke-width="2.5"/>
      </g>
    </g>
  </g>
</svg>
