<svg id="inversion_2_" data-name="inversion (2)" xmlns="http://www.w3.org/2000/svg" width="120.098" height="121.544" viewBox="0 0 120.098 121.544">
  <g id="Grupo_142797" data-name="Grupo 142797" transform="translate(0)">
    <g id="Grupo_142795" data-name="Grupo 142795" transform="translate(8.648 40.619)">
      <path id="Trazado_202805" data-name="Trazado 202805" d="M45.268,345.165H55.311a2.245,2.245,0,0,1,2.24,2.24V376.89H43.028V347.4A2.244,2.244,0,0,1,45.268,345.165Z" transform="translate(-35.91 -301.613)" fill="#fe646f" fill-rule="evenodd"/>
      <path id="Trazado_202806" data-name="Trazado 202806" d="M87.857,345.165H90.1a2.245,2.245,0,0,1,2.24,2.24V376.89H90.1V347.4A2.244,2.244,0,0,0,87.857,345.165Z" transform="translate(-70.697 -301.613)" fill="#fd4755" fill-rule="evenodd"/>
      <path id="Trazado_202807" data-name="Trazado 202807" d="M175.689,280H165.646a2.244,2.244,0,0,0-2.24,2.24v44.083h14.523V282.241A2.244,2.244,0,0,0,175.689,280Z" transform="translate(-129.322 -251.046)" fill="#ffe177" fill-rule="evenodd"/>
      <path id="Trazado_202808" data-name="Trazado 202808" d="M210.477,280h-2.24a2.244,2.244,0,0,1,2.24,2.24v44.083h2.24V282.241A2.244,2.244,0,0,0,210.477,280Z" transform="translate(-164.11 -251.046)" fill="#ffd064" fill-rule="evenodd"/>
      <path id="Trazado_202809" data-name="Trazado 202809" d="M406.4,150.747h10.043a2.245,2.245,0,0,1,2.24,2.24v73.037H404.162V152.987a2.244,2.244,0,0,1,2.24-2.24Z" transform="translate(-316.146 -150.747)" fill="#6cf5c2" fill-rule="evenodd"/>
      <path id="Trazado_202810" data-name="Trazado 202810" d="M448.991,150.747h2.24a2.245,2.245,0,0,1,2.24,2.24v73.037h-2.24V152.987A2.244,2.244,0,0,0,448.991,150.747Z" transform="translate(-350.932 -150.747)" fill="#00e499" fill-rule="evenodd"/>
      <path id="Trazado_202811" data-name="Trazado 202811" d="M296.069,211.958H286.026a2.245,2.245,0,0,0-2.24,2.24v59.325h14.522V214.2A2.244,2.244,0,0,0,296.069,211.958Z" transform="translate(-222.735 -198.246)" fill="#8ac9fe" fill-rule="evenodd"/>
      <path id="Trazado_202812" data-name="Trazado 202812" d="M330.856,211.958h-2.24a2.245,2.245,0,0,1,2.24,2.24v59.325h2.24V214.2A2.245,2.245,0,0,0,330.856,211.958Z" transform="translate(-257.523 -198.246)" fill="#60b7ff" fill-rule="evenodd"/>
      <path id="Trazado_202813" data-name="Trazado 202813" d="M13.494,469.537H118.671a2.244,2.244,0,0,1,2.24,2.24v3.24a2.244,2.244,0,0,1-2.24,2.24H13.494a2.244,2.244,0,0,1-2.24-2.24v-3.24A2.244,2.244,0,0,1,13.494,469.537Z" transform="translate(-11.254 -398.124)" fill="#837683" fill-rule="evenodd"/>
      <path id="Trazado_202814" data-name="Trazado 202814" d="M118.671,469.537a2.244,2.244,0,0,1,2.24,2.24v3.24a2.244,2.244,0,0,1-2.24,2.24H13.494a2.244,2.244,0,0,1-2.24-2.24H116.431a2.244,2.244,0,0,0,2.24-2.24Z" transform="translate(-11.254 -398.124)" fill="#685e68" fill-rule="evenodd"/>
    </g>
    <g id="Grupo_142796" data-name="Grupo 142796" transform="translate(0 0)">
      <circle id="Elipse_6792" data-name="Elipse 6792" cx="20.876" cy="20.876" r="20.876" transform="translate(0 29.518) rotate(-45)" fill="#ffd064"/>
      <circle id="Elipse_6793" data-name="Elipse 6793" cx="17.372" cy="17.372" r="17.372" transform="translate(12.151 12.146)" fill="#ffe177"/>
    </g>
  </g>
  <path id="Trazado_202815" data-name="Trazado 202815" d="M20.689,33.143A9.126,9.126,0,0,0,24.181,34.5V35.88a1.736,1.736,0,0,0,3.473,0V34.539a9.561,9.561,0,0,0,4.306-1.714A5.673,5.673,0,0,0,34.343,28a6.461,6.461,0,0,0-3.266-5.511,13.815,13.815,0,0,0-4.862-1.6A8.862,8.862,0,0,1,22.9,19.776a2.564,2.564,0,0,1-1.254-2.1A2.939,2.939,0,0,1,22.78,15.19a4.737,4.737,0,0,1,2.067-.936,5.632,5.632,0,0,1,2.489.058A4.518,4.518,0,0,1,30.463,17a1.736,1.736,0,1,0,3.2-1.344,7.923,7.923,0,0,0-5.486-4.709c-.175-.045-.348-.083-.524-.114V9.46a1.736,1.736,0,0,0-3.473,0v1.4l-.011,0A8.257,8.257,0,0,0,20.593,12.5a6.309,6.309,0,0,0-2.406,5.338,5.862,5.862,0,0,0,2.829,4.839,12.185,12.185,0,0,0,4.642,1.627,10.476,10.476,0,0,1,3.629,1.151,3.041,3.041,0,0,1,1.568,2.3c.018.146.026.248.029.318a2.372,2.372,0,0,1-1.015,1.994,6.22,6.22,0,0,1-2.948,1.064c-.294.036-.554.056-.77.063a6.18,6.18,0,0,1-3.549-.946,3.988,3.988,0,0,1-1.7-2.381,1.733,1.733,0,0,0-3.365.829,7.4,7.4,0,0,0,3.153,4.442ZM6.832,22.67A19.083,19.083,0,1,1,25.915,41.754,19.106,19.106,0,0,1,6.832,22.67Zm-3.585,0A22.668,22.668,0,1,1,25.915,45.338,22.693,22.693,0,0,1,3.247,22.67Zm109.661,84.307H6.832v4.135H112.908Zm-98.957-3.584H24.889V79.115H13.951Zm26.966,0H51.855V64.518H40.917Zm26.966,0H78.822V49.276H67.884Zm26.964,0h10.937V35.564H94.848Zm21.643,1.792V112.9a1.794,1.794,0,0,1-1.8,1.792H5.04A1.793,1.793,0,0,1,3.247,112.9v-7.719a1.793,1.793,0,0,1,1.792-1.792h5.327V77.322a1.792,1.792,0,0,1,1.791-1.792H26.681a1.792,1.792,0,0,1,1.791,1.792v26.071h8.861V62.726a1.792,1.792,0,0,1,1.791-1.792H53.648a1.792,1.792,0,0,1,1.792,1.792v40.667H64.3V47.484a1.792,1.792,0,0,1,1.792-1.792H80.614a1.793,1.793,0,0,1,1.792,1.792v55.909h8.857V33.772a1.792,1.792,0,0,1,1.792-1.792h14.525a1.791,1.791,0,0,1,1.786,1.792v69.621h5.326a1.794,1.794,0,0,1,1.8,1.792ZM94.177,6.918a1.792,1.792,0,0,1,1.691-1.889L107.486,4.4a1.782,1.782,0,0,1,1.416.579,1.821,1.821,0,0,1,.455,1.468l-1.68,11.509a1.794,1.794,0,0,1-1.776,1.535,1.928,1.928,0,0,1-.254-.018,1.783,1.783,0,0,1-1.511-2.032l.951-6.555A263.155,263.155,0,0,1,60.1,43.194,294.489,294.489,0,0,1,11.22,65.261a1.792,1.792,0,1,1-1.18-3.385C45.493,49.529,76.629,31.5,102.657,8.25l-6.595.358a1.789,1.789,0,0,1-1.886-1.691Z" transform="translate(3.607 6.848)" fill-rule="evenodd"/>
</svg>
