<svg xmlns="http://www.w3.org/2000/svg" width="82.935" height="85.992" viewBox="0 0 82.935 85.992">
  <g id="compaia_de_seguros" data-name="compaia de seguros" transform="translate(-122.1 -205)">
    <path id="Trazado_203521" data-name="Trazado 203521" d="M181.733,268.1v4.235H186.8c1.577,0,1.712.135,1.712,1.735v15.3c0,1.464-.18,1.622-1.577,1.622H123.654c-1.419,0-1.554-.135-1.554-1.532V226.267c0-1.4.18-1.577,1.532-1.577h4.754v-3.65c0-1.126.248-1.4,1.4-1.4H139.83c1.149,0,1.4.248,1.4,1.4v3.582h3.942V206.6c0-1.442.18-1.6,1.6-1.6h33.3c1.464,0,1.6.135,1.6,1.6v13.517c.946-.27,1.8-.563,2.681-.743a3.229,3.229,0,0,1,1.464-.045c6.06,1.69,12.12,3.447,18.181,5.159a1.149,1.149,0,0,1,.991,1.239c-.023,6.736.18,13.472-.09,20.186-.315,8.02-4.19,14.261-10.724,18.789-2.636,1.847-5.542,3.312-8.358,4.911a1.581,1.581,0,0,1-1.239-.023A31.6,31.6,0,0,1,181.733,268.1Zm-21.47,4.213V226.6H123.925v45.711Zm11.715-42.692c0,5.565-.135,11.062.045,16.536a15.8,15.8,0,0,0,4.6,10.431,30.656,30.656,0,0,0,8.223,5.835,1,1,0,0,0,.834-.068c1.262-.7,2.523-1.374,3.717-2.163,6.15-3.965,9.237-9.552,9.124-16.919-.068-4.213-.023-8.448,0-12.661,0-.7-.18-1.014-.879-1.217-3.627-1.014-7.254-2.028-10.859-3.131a4.947,4.947,0,0,0-3.177,0c-1.081.383-2.208.653-3.312.969C177.475,228.047,174.659,228.858,171.978,229.624Zm-9.822,44.584v14.959h8.268v-9.6c0-1.149.18-1.329,1.329-1.352h10.138c1.126,0,1.329.2,1.329,1.352v9.575h3.447V274.185C178.489,274.208,170.356,274.208,162.156,274.208Zm-15.117-61.165v11.67h13.134c1.78,0,1.78,0,1.96,1.712,0,.045.068.09.113.158h3.109c.023-.18.023-.315.045-.451.045-1.284.09-1.374,1.352-1.735,1.667-.473,3.357-.946,5.024-1.419.315-.09.631-.225.946-.338a9.217,9.217,0,0,0-1.735-.113c-.856-.023-1.149-.293-1.172-1.172-.023-1.622-.023-3.267,0-4.911,0-.924.293-1.217,1.217-1.217h4.731c1.171,0,1.419.248,1.419,1.442V221.4c.969-.27,1.825-.518,2.636-.766v-7.592ZM123.9,278.173h36.339v-3.965H123.9Zm55.939-67v-4.3h-32.8v4.3Zm-17.685,49.743h3.762c.924,0,1.194.293,1.217,1.217v4.573c0,1.374-.18,1.554-1.554,1.554h-3.424v4.055h17.753V267.4a.581.581,0,0,0-.225-.428c-.766-.5-1.555-.969-2.478-1.532v1.442c-.023,1.059-.293,1.352-1.352,1.352h-4.731c-.969,0-1.262-.293-1.262-1.262-.023-1.419,0-2.816,0-4.235,0-1.712,0-1.712,1.69-1.892.023,0,.045-.09-.023.068-1.509-2.343-2.951-4.6-4.371-6.826v1.352c0,1.149-.225,1.352-1.4,1.352h-3.582C162.156,258.19,162.156,259.474,162.156,260.916Zm41.07-33.635c-.879.653-1.577,1.217-2.343,1.69a1.3,1.3,0,0,0-.631,1.262c0,4.979.068,9.98-.045,14.959a18.893,18.893,0,0,1-5.722,13.224,32.272,32.272,0,0,1-7.75,5.5c-.27.135-.631.406-.653.653-.068.9-.023,1.825-.023,2.794.225-.068.36-.068.428-.135,2.546-1.6,5.227-3.019,7.615-4.821a21.357,21.357,0,0,0,9.011-16.987c.158-4.641.068-9.282.09-13.945C203.226,230.164,203.226,228.835,203.226,227.281Zm-35.933.068a2.778,2.778,0,0,0-.068.406c0,5.97-.09,11.94.068,17.91a20.375,20.375,0,0,0,4.663,12.593c3.267,4.033,7.525,6.736,12.1,9.012.045.022.113-.023.248-.045,0-.676-.045-1.374.023-2.073a1.4,1.4,0,0,0-.834-1.442,65.311,65.311,0,0,1-6.128-4.033,18.728,18.728,0,0,1-7.232-15.072c-.09-4.776-.023-9.575-.045-14.373a1.351,1.351,0,0,0-.293-.969C169.027,228.61,168.194,228.024,167.292,227.348Zm-7.029,61.841v-9.124H148.549v9.124Zm-36.361,0h11.715v-9.124H123.9Zm62.157-67.946c0,.834.045,1.509-.023,2.208-.045.586.158.834.721.991,3.943,1.1,7.885,2.253,11.828,3.379.225.068.563.158.721.068.879-.608,1.735-1.262,2.749-2.028C196.647,224.285,191.421,222.775,186.059,221.243Zm-17.753,4.6c.969.721,1.78,1.374,2.636,1.96a.938.938,0,0,0,.7.068q6.083-1.723,12.12-3.514c.18-.045.473-.248.473-.383.045-.879.023-1.757.023-2.726C178.917,222.775,173.713,224.285,168.306,225.839Zm3.92,54.2v9.124h3.6v-9.124Zm-31.09,9.147v-9.124h-3.582v9.124Zm1.87-9.124v9.1h3.6v-9.1Zm38.321,9.124v-9.124h-3.537v9.124Zm-41.993-64.5v-3.131h-9.079v3.131Zm22.844,24.759H165.9c-.158-1.374-.338-2.681-.5-4.01h-3.222Zm13.157-32.374h-3.627v3.582h3.627Zm-13.157,16.942v4.01h3.2v-4.01Zm9.507,32.441h3.6c.7-2.816-1.442-4.19-3.582-3.627C171.686,263.98,171.686,265.151,171.686,266.458Zm-9.552-22.889h3.154v-3.6h-3.154Zm.045-15.094v3.6h3.131v-3.6Zm3.109,37.916v-3.6h-3.131v3.6Zm.023-11.422V251.3c-.946,0-1.847-.023-2.726.022a.59.59,0,0,0-.428.428c-.045,1.059-.023,2.118-.023,3.222Z" transform="translate(0 0)" fill="#30610c"/>
    <path id="Trazado_203522" data-name="Trazado 203522" d="M157.222,363.005v2.613a.908.908,0,0,1-.991,1.014c-1.78.022-3.537.022-5.317,0-.676,0-1.014-.383-1.014-1.081v-5.227a.935.935,0,0,1,1.036-1.059c1.735-.023,3.492,0,5.227,0a.945.945,0,0,1,1.059,1.036Zm-1.8-1.87h-3.6v3.6h3.6Z" transform="translate(-21.537 -119.504)" fill="#30610c"/>
    <path id="Trazado_203523" data-name="Trazado 203523" d="M246.587,362.983c0,.811.023,1.622,0,2.456-.023.879-.293,1.194-1.149,1.194-1.667.023-3.312.023-4.979,0-.879,0-1.194-.315-1.194-1.149-.023-1.69,0-3.379,0-5.069a1,1,0,0,1,1.126-1.149c1.69,0,3.379-.023,5.069,0,.856,0,1.126.293,1.149,1.194C246.61,361.293,246.587,362.149,246.587,362.983Zm-5.429-1.847v3.6h3.6v-3.6Z" transform="translate(-90.762 -119.504)" fill="#30610c"/>
    <path id="Trazado_203524" data-name="Trazado 203524" d="M242.85,412.644H240.3a.972.972,0,0,1-1.1-1.081V406.4a.963.963,0,0,1,1.081-1.1h5.159a.972.972,0,0,1,1.1,1.081v5.159c0,.788-.406,1.126-1.171,1.1Zm-1.757-5.5v3.627h3.6v-3.627Z" transform="translate(-90.719 -155.175)" fill="#30610c"/>
    <path id="Trazado_203525" data-name="Trazado 203525" d="M157.222,408.9v2.7a.926.926,0,0,1-1.059,1.036h-5.227a.945.945,0,0,1-1.036-1.059v-5.159c0-.743.338-1.1,1.059-1.126h5.227a.911.911,0,0,1,1.014,1.059C157.222,407.215,157.222,408.071,157.222,408.9Zm-5.452,1.87H155.4v-3.627H151.77Z" transform="translate(-21.537 -155.175)" fill="#30610c"/>
    <path id="Trazado_203526" data-name="Trazado 203526" d="M202.019,362.985c0,.788-.023,1.577,0,2.366s-.338,1.216-1.149,1.216c-1.69,0-3.379.023-5.046.023a.983.983,0,0,1-1.126-1.149V360.3c0-.789.405-1.1,1.171-1.1h4.979c.879,0,1.171.315,1.194,1.239C202.019,361.318,202.019,362.151,202.019,362.985Zm-1.87,1.757v-3.6h-3.627v3.6Z" transform="translate(-56.241 -119.461)" fill="#30610c"/>
    <path id="Trazado_203527" data-name="Trazado 203527" d="M198.227,412.567c-.811,0-1.622-.022-2.456,0-.766.023-1.171-.315-1.171-1.1V406.3a.972.972,0,0,1,1.081-1.1h5.159c.766,0,1.1.406,1.1,1.172-.023,1.667,0,3.312,0,4.979,0,.856-.315,1.149-1.172,1.172-.856.068-1.69.045-2.546.045Zm1.87-5.474h-3.65v3.6h3.65Z" transform="translate(-56.167 -155.098)" fill="#30610c"/>
    <path id="Trazado_203528" data-name="Trazado 203528" d="M246.544,455.117v2.523c0,.721-.338,1.1-1.081,1.081h-5.227a.926.926,0,0,1-1.036-1.059v-5.227a.919.919,0,0,1,1.036-1.036h5.227c.743,0,1.059.383,1.059,1.1C246.544,453.36,246.544,454.239,246.544,455.117Zm-5.474,1.78H244.7V453.27H241.07Z" transform="translate(-90.719 -190.889)" fill="#30610c"/>
    <path id="Trazado_203529" data-name="Trazado 203529" d="M153.617,313.4h2.613a.882.882,0,0,1,.991.991V319.7c0,.7-.383,1.014-1.059,1.014H151c-.743,0-1.1-.338-1.1-1.081v-5.159c0-.721.338-1.1,1.081-1.081Zm-1.847,5.452h3.65v-3.627h-3.65Z" transform="translate(-21.537 -83.976)" fill="#30610c"/>
    <path id="Trazado_203530" data-name="Trazado 203530" d="M153.582,458.722h-2.433c-.766.023-1.149-.315-1.149-1.1v-5.137a.947.947,0,0,1,1.081-1.081h5.137c.788,0,1.1.383,1.1,1.149-.023,1.69-.023,3.379,0,5.046,0,.766-.338,1.149-1.126,1.126Zm-1.69-5.5v3.627h3.6v-3.627Z" transform="translate(-21.614 -190.889)" fill="#30610c"/>
    <path id="Trazado_203531" data-name="Trazado 203531" d="M242.995,320.7h-2.546c-.856-.023-1.149-.293-1.149-1.171v-4.979c0-.766.338-1.149,1.126-1.149h5.159c.7,0,1.059.338,1.059,1.014v5.317a.883.883,0,0,1-1.014.969Zm-1.847-5.474v3.627h3.65v-3.627Z" transform="translate(-90.796 -83.979)" fill="#30610c"/>
    <path id="Trazado_203532" data-name="Trazado 203532" d="M198.282,320.7h-2.523c-.7,0-1.059-.338-1.059-1.014v-5.317a.883.883,0,0,1,1.014-.969h5.227c.7,0,1.059.338,1.059,1.014.023,1.735.023,3.492,0,5.227,0,.721-.383,1.059-1.126,1.059-.856-.023-1.712,0-2.591,0Zm1.892-5.474h-3.65v3.627h3.65Z" transform="translate(-56.244 -83.979)" fill="#30610c"/>
    <path id="Trazado_203533" data-name="Trazado 203533" d="M202.018,454.995v2.456c-.023.9-.293,1.194-1.149,1.194-1.69.023-3.379,0-5.069,0-.789,0-1.126-.383-1.1-1.149v-5.069a.984.984,0,0,1,1.126-1.126q2.534.034,5.069,0c.788,0,1.126.383,1.126,1.149Zm-5.5,1.825h3.627v-3.65h-3.627Z" transform="translate(-56.241 -190.812)" fill="#30610c"/>
    <path id="Trazado_203534" data-name="Trazado 203534" d="M362.1,339.145c2.275-2.636,4.506-5.249,6.736-7.84.586-.676,1.149-1.374,1.78-2.05a2.837,2.837,0,0,1,4.01-.315,2.8,2.8,0,0,1,.293,4.01q-5.1,5.981-10.228,11.918a2.7,2.7,0,0,1-3.92.451c-2.005-1.487-3.988-3.019-5.925-4.618a2.765,2.765,0,0,1-.293-3.875,2.8,2.8,0,0,1,3.852-.518C359.644,337.208,360.861,338.176,362.1,339.145Zm.473,5.024a5.65,5.65,0,0,0,.991-.789c1.87-2.14,3.717-4.3,5.565-6.443,1.442-1.667,2.861-3.312,4.3-4.979a1.022,1.022,0,0,0-.045-1.577,1.01,1.01,0,0,0-1.554.2c-.18.2-.36.428-.563.631-2.681,3.109-5.339,6.24-8.02,9.372-.744.879-1.036.9-1.96.18l-3.717-2.906c-.563-.428-1.126-.541-1.622.068-.406.473-.248,1.1.383,1.6,1.78,1.419,3.582,2.816,5.362,4.235C361.92,343.9,362.19,343.966,362.573,344.169Z" transform="translate(-179.578 -95.486)" fill="#30610c"/>
    <path id="Trazado_203535" data-name="Trazado 203535" d="M248.338,257.7h-2.523c-.856-.023-1.149-.293-1.149-1.171-.023-1.667,0-3.312,0-4.979a1,1,0,0,1,1.126-1.149c1.712.023,3.424,0,5.159,0,.7,0,1.059.338,1.059,1.014.023,1.78.023,3.537,0,5.317A.892.892,0,0,1,251,257.7C250.095,257.677,249.216,257.7,248.338,257.7Zm-1.8-5.474v3.627h3.582v-3.627Z" transform="translate(-94.945 -35.172)" fill="#30610c"/>
    <path id="Trazado_203536" data-name="Trazado 203536" d="M296.744,253.972v2.613a.91.91,0,0,1-1.036,1.036h-5.317a.882.882,0,0,1-.991-.991v-5.317c0-.7.383-1.014,1.059-1.014h5.227a.91.91,0,0,1,1.036,1.036C296.744,252.215,296.744,253.094,296.744,253.972Zm-5.542,1.8H294.9v-3.582H291.2Z" transform="translate(-129.61 -35.095)" fill="#30610c"/>
  </g>
</svg>
