<svg id="agente-de-seguros" xmlns="http://www.w3.org/2000/svg" width="93.608" height="98.708" viewBox="0 0 93.608 98.708">
  <path id="Trazado_202303" data-name="Trazado 202303" d="M90.488,87.193H65.526a3.209,3.209,0,0,0-3.12,3.29V93.6a1.77,1.77,0,0,1-1.287,1.8,1.5,1.5,0,0,1-1.275-.359,1.683,1.683,0,0,1-.558-1.261V47.709A5.117,5.117,0,0,0,59,46.064H82.687a1.6,1.6,0,0,1,1.56,1.645V82.257a1.562,1.562,0,1,0,3.12,0V47.709a4.813,4.813,0,0,0-4.68-4.935H54.6a4.813,4.813,0,0,0-4.68,4.935V63.1A13.778,13.778,0,0,0,39.56,57.61l-5.237-4.142V48.752a16.74,16.74,0,0,0,7.821-12.771,6.5,6.5,0,0,0,4.637-6.067,66.516,66.516,0,0,0,1.584-13.462,21.6,21.6,0,0,0-.342-3.84,9.321,9.321,0,0,0-8.075-7.627,8.2,8.2,0,0,0-2.229-2.239C35.137.925,31.371,0,26.522,0,17.528,0,14.23,3.21,13.094,4.98,7.322,5.536,4.68,11.187,4.68,16.451A66.54,66.54,0,0,0,6.264,29.915a6.381,6.381,0,0,0,4.712,6.02,16.585,16.585,0,0,0,7.746,12.812v4.72L13.484,57.61C5.959,57.925.009,64.444,0,72.386V92.128a6.417,6.417,0,0,0,6.241,6.581H46.8a6.417,6.417,0,0,0,6.241-6.581V83.9h3.12v9.871a4.813,4.813,0,0,0,4.68,4.935H88.928a4.813,4.813,0,0,0,4.68-4.935v-3.29A3.209,3.209,0,0,0,90.488,87.193ZM24.839,69.1h3.367l1.112,14.268a32.221,32.221,0,0,1-2.8,3.243,32.254,32.254,0,0,1-2.8-3.246Zm7.272,9.928-.853-10.948.729-.77a2.318,2.318,0,0,0,2.565-.67l2.474-2.784a45.781,45.781,0,0,1-4.914,15.172ZM28.99,65.806H24.048l-.646-.675,3.12-3.5,3.12,3.5Zm-8.709,1.645a2.336,2.336,0,0,0,.78-.145l.73.77L20.94,79.013a45.989,45.989,0,0,1-4.908-15.15l2.481,2.8a2.388,2.388,0,0,0,1.769.791Zm5.212,22.626a1.5,1.5,0,0,0,2.056,0c8.4-7.747,11.373-18.19,12.431-24.728l3.732,8.471-14.865,21.6H24.2L9.361,73.892l3.713-8.507C14.132,71.924,17.115,82.344,25.494,90.076Zm7.269-26.245-3.911-4.393,3.911-3.093,3.911,3.093ZM14.041,8.226A1.642,1.642,0,0,0,15.5,7.151c.014-.039,1.612-3.861,11.018-3.861,5.256,0,8.046,1.191,9.465,2.193A4.4,4.4,0,0,1,37.523,7.1,1.57,1.57,0,0,0,39,8.226a6.1,6.1,0,0,1,5.955,5.014,18.111,18.111,0,0,1,.286,3.211,56.752,56.752,0,0,1-.668,8.162,6.1,6.1,0,0,0-2.523-1.357,11.681,11.681,0,0,0-8.355-10,2.193,2.193,0,0,0-2.459.895,5.337,5.337,0,0,1-4.718,2.3,5.357,5.357,0,0,1-4.746-2.336,2.176,2.176,0,0,0-2.431-.855,11.811,11.811,0,0,0-8.425,9.978,6.056,6.056,0,0,0-2.459,1.357A56.716,56.716,0,0,1,7.8,16.451C7.8,12.656,9.434,8.226,14.041,8.226Zm.044,27.434a3.221,3.221,0,0,0-2.4-2.863,3.339,3.339,0,0,1,.014-6.372,3.234,3.234,0,0,0,2.4-2.82,8.346,8.346,0,0,1,5.56-6.99,8.453,8.453,0,0,0,6.865,3.126,8.454,8.454,0,0,0,6.865-3.126,8.341,8.341,0,0,1,5.563,6.993,3.234,3.234,0,0,0,2.393,2.816,3.339,3.339,0,0,1,.012,6.372,3.221,3.221,0,0,0-2.4,2.864c-.542,6.818-5.949,12.061-12.437,12.061S14.626,42.48,14.083,35.662ZM26.522,51a14.636,14.636,0,0,0,4.68-.781v3.249l-4.68,3.7-4.68-3.7V50.218A14.629,14.629,0,0,0,26.522,51Zm-6.241,5.347,3.911,3.093-3.911,4.393L16.37,59.439ZM3.12,92.128V72.386a11.425,11.425,0,0,1,8.337-11.177L6.518,72.523a3.408,3.408,0,0,0,.289,3.228L20.343,95.418H6.241A3.209,3.209,0,0,1,3.12,92.128Zm46.8,0a3.209,3.209,0,0,1-3.12,3.29H32.7L46.264,75.711a3.392,3.392,0,0,0,.259-3.195L41.587,61.209a11.425,11.425,0,0,1,8.337,11.177Zm3.12-11.516v-32.9a1.562,1.562,0,1,1,3.12,0v32.9ZM90.488,93.773a1.6,1.6,0,0,1-1.56,1.645H65.214a5.521,5.521,0,0,0,.312-1.821V90.483H90.488Z" transform="translate(0 0)" fill="#30610c"/>
  <path id="Trazado_202304" data-name="Trazado 202304" d="M59.742,35.467a2.816,2.816,0,0,0-2.348-2.8,46.774,46.774,0,0,1-6.664-1.535,2.743,2.743,0,0,0-1.719,0,46.973,46.973,0,0,1-6.661,1.533A2.816,2.816,0,0,0,40,35.467v6.368a15.3,15.3,0,0,0,8.639,13.559,2.821,2.821,0,0,0,2.468,0,15.29,15.29,0,0,0,8.635-13.559Zm-3.29,6.368a12.135,12.135,0,0,1-6.581,10.5,12.135,12.135,0,0,1-6.581-10.5V35.852a49.544,49.544,0,0,0,6.581-1.53,49.6,49.6,0,0,0,6.581,1.53Z" transform="translate(20.705 19.997)" fill="#30610c"/>
  <path id="Trazado_202305" data-name="Trazado 202305" d="M44.482,38.675a1.645,1.645,0,0,0,0,2.326l1.1,1.1a1.645,1.645,0,0,0,1.163.482,1.135,1.135,0,0,0,.165-.008,1.645,1.645,0,0,0,1.206-.724l2.193-3.29a1.645,1.645,0,0,0-2.738-1.826L46.453,38.4A1.645,1.645,0,0,0,44.482,38.675Z" transform="translate(24.379 23.225)" fill="#30610c"/>
  <path id="Trazado_202306" data-name="Trazado 202306" d="M41.645,48a1.645,1.645,0,0,0,0,3.29H58.1a1.645,1.645,0,0,0,0-3.29Z" transform="translate(20.705 30.967)" fill="#30610c"/>
</svg>
