<svg xmlns="http://www.w3.org/2000/svg" width="89.608" height="90.586" viewBox="0 0 89.608 90.586">
  <g id="intermediacion" transform="translate(-116.15 -204)">
    <path id="Trazado_203516" data-name="Trazado 203516" d="M241.971,204a33.777,33.777,0,0,1,3.514,1.085c2.806,1.226,4.905,3.184,5.566,6.3a18.529,18.529,0,0,1,.165,3.443c.024.849-.047,1.722.024,2.571a10.165,10.165,0,0,1-3.16,7.783,2.05,2.05,0,0,0-.637,1.627,17.384,17.384,0,0,1,0,2.217c-.024.5.142.708.637.873,1.651.519,3.325,1.038,4.953,1.627,4.788,1.769,7.122,5.306,7.287,10.306.071,2.217.047,4.41.024,6.627a1.938,1.938,0,0,1-2.075,2.052c-4.67.024-9.316.024-13.985,0a1.333,1.333,0,0,1-1.486-1.3c-.024-.8.542-1.344,1.509-1.344h12.735c.165,0,.354-.024.637-.024-.118-3.019.354-6.037-.566-8.962a6.617,6.617,0,0,0-3.278-4.009c-1.156-.613-2.406-1.085-3.679-1.651-.684,1.792-1.3,3.42-1.934,5.071-.094.236-.189.5-.283.731a1.338,1.338,0,0,1-2.264.66c-1.58-1.132-3.137-2.311-4.764-3.514-1.462,1.085-2.924,2.146-4.387,3.231-1.486,1.085-2.17.873-2.83-.849l-1.981-5.165c-4.575.778-7.264,3.726-7.5,8.231-.094,2.052-.024,4.1-.024,6.25h13.466c.637,0,1.25.141,1.439.778a1.61,1.61,0,0,1-.142,1.3,2.183,2.183,0,0,1-1.391.566c-3.231.047-6.486.024-9.74.024-1.439,0-2.9.024-4.339,0a1.819,1.819,0,0,1-1.981-1.745,76.92,76.92,0,0,1,.33-9.339,9.163,9.163,0,0,1,5.943-7.453c1.887-.8,3.868-1.415,5.825-2.052a.908.908,0,0,0,.731-.991A5.943,5.943,0,0,0,232.773,224a8.5,8.5,0,0,1-2.24-6.509c.094-1.934-.024-3.891.189-5.825.307-2.641,1.439-4.788,4.269-5.542a.377.377,0,0,0,.236-.118,8.527,8.527,0,0,1,3.962-1.981C240.2,204,241.075,204,241.971,204Zm6.58,14.764c-1.934-.472-3.773-.825-5.542-1.368a31.529,31.529,0,0,1-3.3-1.486,2.962,2.962,0,0,0-3.325.259c-.8.637-1.651,1.25-2.5,1.816a.98.98,0,0,0-.472,1.25,9.148,9.148,0,0,0,6.344,6.651,4.665,4.665,0,0,0,2.665-.071,9.325,9.325,0,0,0,5.9-5.92A5.7,5.7,0,0,0,248.551,218.764Zm-15.4-3.915c.094.024.189.071.283.094.33-.212.684-.424.991-.66a5.965,5.965,0,0,1,6.934-.542,25.686,25.686,0,0,0,3.891,1.651,20.438,20.438,0,0,0,3.325.519c0-1.038-.024-1.84,0-2.618a5.283,5.283,0,0,0-2.17-4.5,8.977,8.977,0,0,0-4.127-1.91c-2.028-.377-3.939-.259-5.448,1.415a1.3,1.3,0,0,1-.778.33,2.561,2.561,0,0,0-2.288,2.052C233.457,212.019,233.363,213.434,233.15,214.849Zm11.674,13.136a18.348,18.348,0,0,1-3.891.708,21.577,21.577,0,0,1-3.962-.755c.094.708-.047,1.722.354,2.123a32.842,32.842,0,0,0,3.632,2.783c1.2-.9,2.335-1.722,3.443-2.594a1.163,1.163,0,0,0,.377-.708A11.9,11.9,0,0,0,244.825,227.985Zm2.83,4.387c-.613-.047-1.156-.259-1.462-.071-1.038.637-1.981,1.415-3.019,2.193.991.731,1.887,1.391,2.877,2.1C246.593,235.178,247.089,233.881,247.655,232.372Zm-8.938,2.123c-.9-.66-1.722-1.2-2.429-1.84a1.457,1.457,0,0,0-1.981-.071c.519,1.344,1.014,2.641,1.533,4.009C236.83,235.886,237.726,235.225,238.716,234.494Z" transform="translate(-80.504 0)" fill="#30610c"/>
    <path id="Trazado_203517" data-name="Trazado 203517" d="M117.766,471.093a2.878,2.878,0,0,1-1.6-3.042c.094-1.58-.024-3.184.024-4.764a10.091,10.091,0,0,1,4.693-8.443c.33-.236.708-.424,1.108-.66a9.786,9.786,0,0,1-2.712-5.566c-.472-4.387.189-8.467,3.891-11.415a9.946,9.946,0,0,1,15.966,5.872c.9,4.033.519,7.853-2.476,11.084,2.948,1.58,5.047,3.844,5.519,7.1a54.094,54.094,0,0,1,.259,7.83c0,1.014-.8,1.58-1.674,1.957h-8.844c-.542-.5-.991-1.038-.684-1.816.33-.8,1.038-.849,1.769-.825,1.2.024,2.406,0,3.632,0h3.09a54.162,54.162,0,0,0-.047-6.2,7.114,7.114,0,0,0-4.905-5.943,1.768,1.768,0,0,0-1.156.047,10.42,10.42,0,0,1-8.561,0,1.63,1.63,0,0,0-1.156-.047,6.849,6.849,0,0,0-4.764,5.236,54.86,54.86,0,0,0-.4,6.887h7.1c.755,0,1.439.071,1.745.9s-.189,1.321-.778,1.769C123.78,471.093,120.785,471.093,117.766,471.093ZM136.8,448.169a19.591,19.591,0,0,1-3.137-.024c-2.453-.448-4.882-1.061-7.335-1.509a20.49,20.49,0,0,0-3.42-.283c-.755,0-1.179.4-1.108,1.3a7.631,7.631,0,0,0,6.486,6.91,7.537,7.537,0,0,0,8.042-4.717A14.209,14.209,0,0,0,136.8,448.169Zm0-2.783c-.448-4.717-3.7-7.924-7.783-7.712-4.151.236-6.674,3.75-6.769,5.9a29,29,0,0,1,3.514.236c2.335.448,4.646,1.061,6.981,1.533A7.877,7.877,0,0,0,136.8,445.387Z" transform="translate(0 -176.531)" fill="#30610c"/>
    <path id="Trazado_203518" data-name="Trazado 203518" d="M385.835,471.069a2.732,2.732,0,0,1-1.745-2.948c.047-1.7-.047-3.42.047-5.118.165-3.773,1.91-6.438,5.778-8.868a9.9,9.9,0,0,1-2.547-4.764c-.778-4.646-.189-8.938,3.679-12.122a9.881,9.881,0,0,1,15.778,4.882c1.274,4.174,1.085,8.278-2,11.792a2.772,2.772,0,0,0-.118.259,9.9,9.9,0,0,1,5.471,6.981,31.093,31.093,0,0,1,.283,4.929c.024.613-.047,1.25.024,1.863a2.85,2.85,0,0,1-1.6,3.113h-9.033c-.59-.448-1.108-.943-.8-1.769.283-.8.967-.92,1.745-.9.566.024,1.108,0,1.674,0h5.354c0-1.816.024-3.514,0-5.212a7.554,7.554,0,0,0-4.858-6.863,1.78,1.78,0,0,0-1.509.024,9.2,9.2,0,0,1-7.641.212,3.289,3.289,0,0,0-3.42.425,7.328,7.328,0,0,0-3.231,4.174c-.684,2.358-.259,4.788-.377,7.264,2.382,0,4.67.024,6.934,0,.755,0,1.439.118,1.7.943s-.189,1.344-.873,1.722C391.613,471.069,388.736,471.069,385.835,471.069ZM404.7,448.145a17.468,17.468,0,0,1-2.948-.024c-2.476-.448-4.929-1.061-7.429-1.509a19.329,19.329,0,0,0-3.49-.259.976.976,0,0,0-1.085,1.156,7.625,7.625,0,0,0,7.17,7.1A7.5,7.5,0,0,0,404.7,448.145Zm.024-2.759a7.7,7.7,0,0,0-7.264-7.736c-3.538-.094-7.122,2.854-7.287,5.967a12.359,12.359,0,0,1,2.288.024c2.17.377,4.316.849,6.462,1.321A12.973,12.973,0,0,0,404.726,445.386Z" transform="translate(-204.746 -176.506)" fill="#30610c"/>
    <path id="Trazado_203519" data-name="Trazado 203519" d="M267.407,426.282v-3.891c0-1.533-.024-3.066.024-4.6a2.121,2.121,0,0,1,2.123-2.264c1.934-.071,3.891-.071,5.825,0a2.2,2.2,0,0,1,2.146,2.429c.024,2.406,0,4.835,0,7.24v1.061a26.02,26.02,0,0,1,3.042.024,2,2,0,0,1,1.415.755,1.851,1.851,0,0,1-.283,1.58c-2.641,3.538-5.33,7.052-7.995,10.542-.825,1.061-1.7,1.038-2.523-.024-2.665-3.49-5.306-6.981-7.971-10.471a1.443,1.443,0,0,1-.33-1.7,1.56,1.56,0,0,1,1.58-.755A29.466,29.466,0,0,0,267.407,426.282Zm-.708,2.665c1.981,2.594,3.844,5.047,5.754,7.547,1.934-2.547,3.773-4.976,5.754-7.547h-1.651c-1.25,0-1.674-.424-1.674-1.7V418.24h-4.811v8.82c0,1.509-.4,1.887-1.863,1.91C267.76,428.947,267.336,428.947,266.7,428.947Z" transform="translate(-112.001 -161.601)" fill="#30610c"/>
    <path id="Trazado_203520" data-name="Trazado 203520" d="M251.347,539.133c1.344-2.146,2.594-4.174,3.844-6.2.849-1.368,1.745-1.415,2.759-.141.991,1.226,1.934,2.453,2.948,3.632a1.672,1.672,0,0,0,1.156.542c1.3.071,2.594.024,3.891.024,1.038.024,1.627.519,1.627,1.344s-.566,1.3-1.651,1.3c-1.627,0-3.231-.023-4.858.024a1.839,1.839,0,0,1-1.651-.8c-.849-1.108-1.769-2.193-2.689-3.349-1.368,2.217-2.689,4.339-4.009,6.462-.873,1.415-1.887,1.415-2.759.024-1.156-1.887-2.311-3.75-3.467-5.637-.165-.259-.354-.519-.542-.849-.92,1.156-1.816,2.217-2.665,3.3a1.886,1.886,0,0,1-1.651.825c-1.651-.024-3.3,0-4.953-.024-.991,0-1.557-.472-1.58-1.273s.59-1.344,1.6-1.368c1.226-.023,2.476-.047,3.7,0a1.633,1.633,0,0,0,1.533-.755c.943-1.25,1.934-2.453,2.924-3.655.849-1.014,1.792-.967,2.476.165,1.132,1.816,2.264,3.656,3.4,5.5C250.946,538.52,251.111,538.779,251.347,539.133Z" transform="translate(-90.894 -250.514)" fill="#30610c"/>
  </g>
</svg>
