<svg xmlns="http://www.w3.org/2000/svg" width="124.137" height="120.5" viewBox="0 0 124.137 120.5">
  <g id="recaudacion-de-fondos" transform="translate(0)">
    <g id="Grupo_142916" data-name="Grupo 142916" transform="translate(34.5 38.707)">
      <path id="Trazado_203178" data-name="Trazado 203178" d="M168.985,220.477A26.666,26.666,0,1,0,142.3,193.814,26.68,26.68,0,0,0,168.985,220.477Z" transform="translate(-142.296 -167.144)" fill="#ffe07d" fill-rule="evenodd"/>
    </g>
    <g id="Grupo_142917" data-name="Grupo 142917" transform="translate(53.323 38.707)">
      <path id="Trazado_203179" data-name="Trazado 203179" d="M254.493,193.814a26.713,26.713,0,0,0-34.563-25.49,26.67,26.67,0,0,1,.007,50.98,26.726,26.726,0,0,0,34.556-25.49Z" transform="translate(-219.93 -167.144)" fill="#ffd064" fill-rule="evenodd"/>
    </g>
    <g id="Grupo_142918" data-name="Grupo 142918" transform="translate(1.818 17.845)">
      <path id="Trazado_203180" data-name="Trazado 203180" d="M31.086,99.116a2.706,2.706,0,0,0,2.7-2.7V90.462A10.223,10.223,0,0,0,27.592,81.1h-13.9A10.223,10.223,0,0,0,7.5,90.462v5.959a2.7,2.7,0,0,0,2.691,2.7Z" transform="translate(-7.5 -81.101)" fill="#c3ddff" fill-rule="evenodd"/>
    </g>
    <g id="Grupo_142919" data-name="Grupo 142919" transform="translate(5.429 1.819)">
      <path id="Trazado_203181" data-name="Trazado 203181" d="M38.874,31.026a9.528,9.528,0,1,0-6.954,3.011A9.472,9.472,0,0,0,38.874,31.026Z" transform="translate(-22.392 -15)" fill="#ffe4c1" fill-rule="evenodd"/>
    </g>
    <g id="Grupo_142920" data-name="Grupo 142920" transform="translate(1.818 100.666)">
      <path id="Trazado_203182" data-name="Trazado 203182" d="M33.784,438.016V432.05a10.206,10.206,0,0,0-6.192-9.354h-13.9A10.206,10.206,0,0,0,7.5,432.05v5.966a2.7,2.7,0,0,0,2.691,2.7h20.9a2.706,2.706,0,0,0,2.7-2.7Z" transform="translate(-7.5 -422.696)" fill="#ff8086" fill-rule="evenodd"/>
    </g>
    <g id="Grupo_142921" data-name="Grupo 142921" transform="translate(96.034 100.666)">
      <path id="Trazado_203183" data-name="Trazado 203183" d="M422.231,438.894v-8.565a10.243,10.243,0,0,0-6.048-7.633h-13.9a10.206,10.206,0,0,0-6.192,9.354v5.966a2.7,2.7,0,0,0,2.7,2.7h20.889A2.711,2.711,0,0,0,422.231,438.894Z" transform="translate(-396.091 -422.696)" fill="#ccf49e" fill-rule="evenodd"/>
    </g>
    <g id="Grupo_142922" data-name="Grupo 142922" transform="translate(99.645 84.64)">
      <path id="Trazado_203184" data-name="Trazado 203184" d="M427.466,372.621a9.528,9.528,0,1,0-6.954,3.011A9.473,9.473,0,0,0,427.466,372.621Z" transform="translate(-410.984 -356.595)" fill="#ffe4c1" fill-rule="evenodd"/>
    </g>
    <g id="Grupo_142923" data-name="Grupo 142923" transform="translate(96.034 17.845)">
      <path id="Trazado_203185" data-name="Trazado 203185" d="M419.677,99.116a2.711,2.711,0,0,0,2.553-1.817V88.734a10.255,10.255,0,0,0-6.048-7.633h-13.9a10.223,10.223,0,0,0-6.192,9.361v5.959a2.7,2.7,0,0,0,2.7,2.7Z" transform="translate(-396.091 -81.101)" fill="#ffe07d" fill-rule="evenodd"/>
    </g>
    <g id="Grupo_142924" data-name="Grupo 142924" transform="translate(99.645 1.819)">
      <path id="Trazado_203186" data-name="Trazado 203186" d="M427.466,31.026a9.528,9.528,0,1,0-6.954,3.011A9.473,9.473,0,0,0,427.466,31.026Z" transform="translate(-410.984 -15)" fill="#d19a6e" fill-rule="evenodd"/>
    </g>
    <g id="Grupo_142925" data-name="Grupo 142925" transform="translate(5.429 84.64)">
      <path id="Trazado_203187" data-name="Trazado 203187" d="M38.875,372.621a9.528,9.528,0,1,0-6.954,3.011A9.473,9.473,0,0,0,38.875,372.621Z" transform="translate(-22.393 -356.595)" fill="#ffe4c1" fill-rule="evenodd"/>
    </g>
    <g id="Grupo_142926" data-name="Grupo 142926" transform="translate(11.168 1.819)">
      <path id="Trazado_203188" data-name="Trazado 203188" d="M56.8,31.026A9.512,9.512,0,0,0,49.851,15a9.713,9.713,0,0,0-2.375.295,9.524,9.524,0,0,1,3.165,15.252c-.158.165-.323.329-.487.48a9.481,9.481,0,0,1-4.091,2.229A9.549,9.549,0,0,0,56.8,31.026Z" transform="translate(-46.062 -15)" fill="#f1d0a5" fill-rule="evenodd"/>
    </g>
    <g id="Grupo_142927" data-name="Grupo 142927" transform="translate(18.328 17.845)">
      <path id="Trazado_203189" data-name="Trazado 203189" d="M85.367,96.421V90.462A10.223,10.223,0,0,0,79.175,81.1a9.543,9.543,0,0,1-3.583,2.4,10.127,10.127,0,0,1,2.766,6.961v5.959a2.7,2.7,0,0,1-2.691,2.7h7A2.706,2.706,0,0,0,85.367,96.421Z" transform="translate(-75.592 -81.101)" fill="#9dc6fb" fill-rule="evenodd"/>
    </g>
    <g id="Grupo_142928" data-name="Grupo 142928" transform="translate(105.384 1.819)">
      <path id="Trazado_203190" data-name="Trazado 203190" d="M445.4,31.026A9.512,9.512,0,0,0,438.443,15a9.713,9.713,0,0,0-2.375.295,9.524,9.524,0,0,1,3.164,15.252c-.158.165-.323.329-.487.48a9.481,9.481,0,0,1-4.091,2.229A9.548,9.548,0,0,0,445.4,31.026Z" transform="translate(-434.654 -15)" fill="#c38c66" fill-rule="evenodd"/>
    </g>
    <g id="Grupo_142929" data-name="Grupo 142929" transform="translate(112.543 17.845)">
      <path id="Trazado_203191" data-name="Trazado 203191" d="M473.958,96.421V90.462a10.223,10.223,0,0,0-6.192-9.361,9.543,9.543,0,0,1-3.583,2.4,10.127,10.127,0,0,1,2.766,6.961v5.959a2.7,2.7,0,0,1-2.691,2.7h7A2.706,2.706,0,0,0,473.958,96.421Z" transform="translate(-464.183 -81.101)" fill="#ffd064" fill-rule="evenodd"/>
    </g>
    <g id="Grupo_142930" data-name="Grupo 142930" transform="translate(105.384 84.633)">
      <path id="Trazado_203192" data-name="Trazado 203192" d="M445.4,372.6a9.517,9.517,0,0,0-6.954-16.033,9.716,9.716,0,0,0-2.375.3,9.518,9.518,0,0,1,3.164,15.245c-.158.171-.323.329-.487.487a9.552,9.552,0,0,1-4.091,2.229A9.548,9.548,0,0,0,445.4,372.6Z" transform="translate(-434.654 -356.567)" fill="#f1d0a5" fill-rule="evenodd"/>
    </g>
    <g id="Grupo_142931" data-name="Grupo 142931" transform="translate(112.543 100.666)">
      <path id="Trazado_203193" data-name="Trazado 203193" d="M473.958,438.016V432.05a10.206,10.206,0,0,0-6.192-9.354,9.623,9.623,0,0,1-3.583,2.4,10.123,10.123,0,0,1,2.766,6.954v5.966a2.7,2.7,0,0,1-2.691,2.7h7A2.706,2.706,0,0,0,473.958,438.016Z" transform="translate(-464.183 -422.696)" fill="#b3e59e" fill-rule="evenodd"/>
    </g>
    <g id="Grupo_142932" data-name="Grupo 142932" transform="translate(11.168 84.633)">
      <path id="Trazado_203194" data-name="Trazado 203194" d="M56.806,372.6a9.517,9.517,0,0,0-6.954-16.033,9.716,9.716,0,0,0-2.375.3,9.518,9.518,0,0,1,3.165,15.245c-.158.171-.323.329-.487.487a9.551,9.551,0,0,1-4.091,2.229A9.548,9.548,0,0,0,56.806,372.6Z" transform="translate(-46.063 -356.567)" fill="#f1d0a5" fill-rule="evenodd"/>
    </g>
    <g id="Grupo_142933" data-name="Grupo 142933" transform="translate(18.328 100.666)">
      <path id="Trazado_203195" data-name="Trazado 203195" d="M85.367,438.016V432.05a10.206,10.206,0,0,0-6.192-9.354,9.623,9.623,0,0,1-3.583,2.4,10.123,10.123,0,0,1,2.766,6.954v5.966a2.7,2.7,0,0,1-2.7,2.7h7.009A2.706,2.706,0,0,0,85.367,438.016Z" transform="translate(-75.592 -422.696)" fill="#e5646e" fill-rule="evenodd"/>
    </g>
    <g id="Grupo_142934" data-name="Grupo 142934" transform="translate(0)">
      <path id="Trazado_203196" data-name="Trazado 203196" d="M313.761,101.784a1.846,1.846,0,0,0,2.026,1.585l5.03-.61a1.818,1.818,0,1,0-.438-3.61l-.671.081,4.153-5.294A1.818,1.818,0,1,0,321,91.691l-4.158,5.3-.082-.673a1.818,1.818,0,1,0-3.61.439Z" transform="translate(-237.215 -70.751)"/>
      <path id="Trazado_203197" data-name="Trazado 203197" d="M163.518,413.751a1.833,1.833,0,0,0-2.026-1.585l-5.03.61a1.819,1.819,0,0,0,.217,3.624,1.841,1.841,0,0,0,.221-.014l.671-.081-4.153,5.294a1.818,1.818,0,1,0,2.861,2.245l4.158-5.3.082.673a1.819,1.819,0,0,0,1.8,1.6,1.859,1.859,0,0,0,.222-.014,1.818,1.818,0,0,0,1.586-2.025Z" transform="translate(-115.927 -314.037)"/>
      <path id="Trazado_203198" data-name="Trazado 203198" d="M319.709,416.308l.671.081a1.844,1.844,0,0,0,.221.014,1.819,1.819,0,0,0,.217-3.624l-5.03-.61a1.834,1.834,0,0,0-2.026,1.585l-.611,5.027a1.819,1.819,0,0,0,1.586,2.025,1.862,1.862,0,0,0,.222.014,1.819,1.819,0,0,0,1.8-1.6l.082-.673,4.158,5.3a1.818,1.818,0,0,0,2.861-2.245Z" transform="translate(-237.216 -314.041)"/>
      <path id="Trazado_203199" data-name="Trazado 203199" d="M413.22,366.338a11.349,11.349,0,1,0-19.338,0,11.977,11.977,0,0,0-5.291,9.933v5.966a4.52,4.52,0,0,0,4.516,4.513H414a4.52,4.52,0,0,0,4.516-4.513v-5.966A11.977,11.977,0,0,0,413.22,366.338ZM403.548,352.7a7.7,7.7,0,1,1-7.71,7.707A7.72,7.72,0,0,1,403.548,352.7Zm11.327,29.535a.89.89,0,0,1-.879.877H393.107a.879.879,0,0,1-.879-.877v-5.966a8.347,8.347,0,0,1,4.064-7.155,11.333,11.333,0,0,0,14.518,0,8.346,8.346,0,0,1,4.065,7.155Z" transform="translate(-294.375 -266.252)"/>
      <path id="Trazado_203200" data-name="Trazado 203200" d="M157.57,99.232l-.671-.081a1.818,1.818,0,1,0-.438,3.61l5.03.61a1.845,1.845,0,0,0,2.026-1.585l.611-5.027a1.818,1.818,0,1,0-3.61-.439l-.082.673-4.158-5.3a1.818,1.818,0,0,0-2.861,2.245Z" transform="translate(-115.927 -70.753)"/>
      <path id="Trazado_203201" data-name="Trazado 203201" d="M24.628,24.768A11.344,11.344,0,1,0,3.611,18.837a11.261,11.261,0,0,0,1.682,5.931A11.994,11.994,0,0,0,0,34.706v5.959a4.517,4.517,0,0,0,4.509,4.514h20.9a4.52,4.52,0,0,0,4.516-4.514V34.706A12,12,0,0,0,24.628,24.768ZM14.957,11.137a7.7,7.7,0,1,1-7.71,7.7,7.717,7.717,0,0,1,7.71-7.7ZM26.284,40.665a.89.89,0,0,1-.879.877H4.509a.887.887,0,0,1-.873-.877V34.706A8.364,8.364,0,0,1,7.7,27.546a11.333,11.333,0,0,0,14.515,0,8.365,8.365,0,0,1,4.067,7.161v5.959Z" transform="translate(0 -7.5)"/>
      <path id="Trazado_203202" data-name="Trazado 203202" d="M24.629,366.338A11.345,11.345,0,1,0,3.611,360.41a11.26,11.26,0,0,0,1.68,5.929A11.977,11.977,0,0,0,0,376.272v5.966a4.517,4.517,0,0,0,4.509,4.514h6.638a1.818,1.818,0,1,0,0-3.637H4.509a.887.887,0,0,1-.873-.877v-5.966A8.347,8.347,0,0,1,7.7,369.117a11.333,11.333,0,0,0,14.518,0,8.347,8.347,0,0,1,4.065,7.155v5.966a.89.89,0,0,1-.879.877H19.055a1.818,1.818,0,1,0,0,3.637H25.4a4.52,4.52,0,0,0,4.516-4.513v-5.966A11.978,11.978,0,0,0,24.629,366.338Zm-9.672,1.772a7.7,7.7,0,1,1,7.716-7.7A7.714,7.714,0,0,1,14.957,368.11Z" transform="translate(0 -266.252)"/>
      <path id="Trazado_203203" data-name="Trazado 203203" d="M163.311,159.644a28.485,28.485,0,1,0,28.508,28.488A28.533,28.533,0,0,0,163.311,159.644Zm0,53.333a24.848,24.848,0,1,1,24.871-24.845A24.889,24.889,0,0,1,163.311,212.977Z" transform="translate(-102.115 -122.756)"/>
      <path id="Trazado_203204" data-name="Trazado 203204" d="M226.524,213.358c-.672-.237-1.289-.463-1.862-.681v-9.69a6.244,6.244,0,0,1,2.7,1.252,1.819,1.819,0,0,0,2.456-2.683,10.084,10.084,0,0,0-5.161-2.257v-2.058a1.818,1.818,0,1,0-3.637,0v2.2c-.332.069-.672.154-1.019.259a7.909,7.909,0,0,0-5.42,6.209,6.937,6.937,0,0,0,2.265,6.836,19.7,19.7,0,0,0,4.174,2.379v12.166a8.25,8.25,0,0,1-4.592-1.667,1.818,1.818,0,1,0-1.993,3.042,11.789,11.789,0,0,0,6.585,2.263v2.3a1.818,1.818,0,0,0,3.637,0v-2.437a9.545,9.545,0,0,0,7.63-7.86A8.365,8.365,0,0,0,226.524,213.358Zm-5.5-2.26a12.266,12.266,0,0,1-1.927-1.215,3.347,3.347,0,0,1-.937-3.3,4.32,4.32,0,0,1,2.864-3.389Zm7.68,11.228a5.979,5.979,0,0,1-4.043,4.717V216.555l.652.232a4.778,4.778,0,0,1,3.391,5.538Z" transform="translate(-161.826 -149.861)"/>
      <path id="Trazado_203205" data-name="Trazado 203205" d="M413.22,24.767a11.349,11.349,0,1,0-19.336,0,11.994,11.994,0,0,0-5.292,9.937v5.959a4.52,4.52,0,0,0,4.516,4.514h6.631a1.818,1.818,0,1,0,0-3.637h-6.631a.89.89,0,0,1-.879-.877V34.705a8.365,8.365,0,0,1,4.065-7.16,11.333,11.333,0,0,0,14.515,0,8.366,8.366,0,0,1,4.066,7.161v5.959a.89.89,0,0,1-.879.877h-6.35a1.818,1.818,0,1,0,0,3.637H414a4.52,4.52,0,0,0,4.516-4.514V34.705a12,12,0,0,0-5.293-9.938Zm-9.671,1.77a7.7,7.7,0,1,1,7.716-7.7A7.714,7.714,0,0,1,403.549,26.537Z" transform="translate(-294.376 -7.499)"/>
    </g>
  </g>
</svg>
