<svg xmlns="http://www.w3.org/2000/svg" xmlns:xlink="http://www.w3.org/1999/xlink" width="429.417" height="370.518" viewBox="0 0 429.417 370.518">
  <defs>
    <filter id="Trazado_191657" x="0" y="0" width="429.417" height="370.518" filterUnits="userSpaceOnUse">
      <feOffset dy="3" input="SourceAlpha"/>
      <feGaussianBlur stdDeviation="5" result="blur"/>
      <feFlood flood-opacity="0.161"/>
      <feComposite operator="in" in2="blur"/>
      <feComposite in="SourceGraphic"/>
    </filter>
  </defs>
  <g id="Grupo_145569" data-name="Grupo 145569" transform="translate(-1005.583 -6553.8)">
    <g transform="matrix(1, 0, 0, 1, 1005.58, 6553.8)" filter="url(#Trazado_191657)">
      <path id="Trazado_191657-2" data-name="Trazado 191657" d="M27.441,0H371.976c15.155,0,27.441,8.216,27.441,18.351V322.166c0,10.135-12.286,18.351-27.441,18.351H27.441C12.286,340.518,0,332.3,0,322.166V18.351C0,8.216,12.286,0,27.441,0Z" transform="translate(15 12)" fill="#e5f2db"/>
    </g>
    <path id="Trazado_210667" data-name="Trazado 210667" d="M-89.126-4.824V0h-3.428V-14.219h5.674a6.608,6.608,0,0,1,2.886.6,4.526,4.526,0,0,1,1.943,1.709,4.667,4.667,0,0,1,.688,2.515,4.114,4.114,0,0,1-1.489,3.325,6.179,6.179,0,0,1-4.087,1.245Zm0-2.646h2.246a2.118,2.118,0,0,0,1.519-.5,1.85,1.85,0,0,0,.522-1.406,2.287,2.287,0,0,0-.537-1.592,1.9,1.9,0,0,0-1.465-.605h-2.285Zm8.9,2.09A6.236,6.236,0,0,1-79.614-8.2a4.4,4.4,0,0,1,1.768-1.9,5.323,5.323,0,0,1,2.705-.664,4.858,4.858,0,0,1,3.74,1.47,5.64,5.64,0,0,1,1.367,4v.117a5.472,5.472,0,0,1-1.372,3.921A4.871,4.871,0,0,1-75.122.2a4.927,4.927,0,0,1-3.623-1.353A5.29,5.29,0,0,1-80.22-4.824Zm3.291.205a3.932,3.932,0,0,0,.459,2.148,1.529,1.529,0,0,0,1.357.684q1.758,0,1.8-2.705v-.332q0-2.842-1.816-2.842-1.65,0-1.787,2.451ZM-65.112,0h-3.3V-15h3.3ZM-59.5,0h-3.311V-10.566H-59.5Zm-1.23-14.8h3.477l-2.715,3.066-2.686,0Zm7.178,1.611v2.627h1.738v2.285H-53.55v4.834a1.234,1.234,0,0,0,.215.83,1.152,1.152,0,0,0,.85.234,4.828,4.828,0,0,0,.82-.059V-.088A6.074,6.074,0,0,1-53.521.2a3.448,3.448,0,0,1-2.51-.8,3.282,3.282,0,0,1-.811-2.432V-8.281h-1.348v-2.285h1.348v-2.627ZM-47.046,0h-3.3V-10.566h3.3Zm-3.5-13.291a1.469,1.469,0,0,1,.508-1.152,1.916,1.916,0,0,1,1.318-.449,1.916,1.916,0,0,1,1.318.449,1.469,1.469,0,0,1,.508,1.152,1.469,1.469,0,0,1-.508,1.152,1.916,1.916,0,0,1-1.318.449,1.916,1.916,0,0,1-1.318-.449A1.469,1.469,0,0,1-50.542-13.291Zm9.99,10.947a1.464,1.464,0,0,0,1.074-.376,1.379,1.379,0,0,0,.371-1.05h3.086A3.653,3.653,0,0,1-37.266-.918,4.631,4.631,0,0,1-40.474.2,4.689,4.689,0,0,1-44.106-1.25a5.7,5.7,0,0,1-1.328-4v-.137a6.436,6.436,0,0,1,.591-2.827,4.3,4.3,0,0,1,1.7-1.885,5.081,5.081,0,0,1,2.637-.659,4.573,4.573,0,0,1,3.271,1.143,4.053,4.053,0,0,1,1.211,3.1h-3.086a1.807,1.807,0,0,0-.4-1.26,1.382,1.382,0,0,0-1.074-.439q-1.279,0-1.494,1.631a11.507,11.507,0,0,0-.068,1.426,4.52,4.52,0,0,0,.381,2.207A1.319,1.319,0,0,0-40.552-2.344ZM-28.677,0a3.716,3.716,0,0,1-.312-.947A3.06,3.06,0,0,1-31.528.2a3.749,3.749,0,0,1-2.539-.9,2.875,2.875,0,0,1-1.045-2.271,2.955,2.955,0,0,1,1.27-2.6,6.468,6.468,0,0,1,3.691-.879h1.016v-.559q0-1.462-1.26-1.462a1.03,1.03,0,0,0-1.172,1.158h-3.291a2.95,2.95,0,0,1,1.3-2.487,5.479,5.479,0,0,1,3.325-.956,4.8,4.8,0,0,1,3.193.986,3.429,3.429,0,0,1,1.2,2.705v4.678a4.79,4.79,0,0,0,.449,2.227V0Zm-2.061-2.148a1.836,1.836,0,0,0,1.021-.264,1.653,1.653,0,0,0,.581-.6V-4.7h-.957q-1.719,0-1.719,1.543a.942.942,0,0,0,.3.728A1.1,1.1,0,0,0-30.737-2.148Zm12.256-.82a.76.76,0,0,0-.439-.674,6.685,6.685,0,0,0-1.67-.527,7.615,7.615,0,0,1-2.031-.718,3.4,3.4,0,0,1-1.221-1.079,2.577,2.577,0,0,1-.42-1.455,2.92,2.92,0,0,1,1.2-2.4,4.948,4.948,0,0,1,3.145-.942,5.482,5.482,0,0,1,3.359.947,2.962,2.962,0,0,1,1.27,2.49h-3.3q0-1.27-1.338-1.27a1.326,1.326,0,0,0-.869.288.892.892,0,0,0-.352.718.819.819,0,0,0,.43.713,4.06,4.06,0,0,0,1.372.449,11.857,11.857,0,0,1,1.655.42,3.007,3.007,0,0,1,2.383,2.939A2.767,2.767,0,0,1-16.592-.713,5.631,5.631,0,0,1-19.917.2a5.747,5.747,0,0,1-2.422-.488A4.05,4.05,0,0,1-24-1.621a3.007,3.007,0,0,1-.6-1.768h3.076a1.272,1.272,0,0,0,.488,1.069,2.009,2.009,0,0,0,1.2.337,1.58,1.58,0,0,0,1.011-.273A.875.875,0,0,0-18.481-2.969ZM-3.677.2a5.432,5.432,0,0,1-3.936-1.45,5.008,5.008,0,0,1-1.5-3.774V-5.3a6.489,6.489,0,0,1,.6-2.861,4.395,4.395,0,0,1,1.753-1.919,5.292,5.292,0,0,1,2.734-.679A4.574,4.574,0,0,1-.513-9.38,5.43,5.43,0,0,1,.776-5.527v1.279H-5.767A2.372,2.372,0,0,0-5-2.852a2.3,2.3,0,0,0,1.543.508A2.958,2.958,0,0,0-1.011-3.437L.493-1.66A4.2,4.2,0,0,1-1.25-.308,5.891,5.891,0,0,1-3.677.2Zm-.371-8.418q-1.445,0-1.719,1.914h3.32v-.254a1.63,1.63,0,0,0-.4-1.226A1.593,1.593,0,0,0-4.048-8.223ZM7.632-2.969a.76.76,0,0,0-.439-.674,6.685,6.685,0,0,0-1.67-.527,7.615,7.615,0,0,1-2.031-.718A3.4,3.4,0,0,1,2.271-5.967a2.577,2.577,0,0,1-.42-1.455,2.92,2.92,0,0,1,1.2-2.4A4.948,4.948,0,0,1,6.2-10.762a5.482,5.482,0,0,1,3.359.947,2.962,2.962,0,0,1,1.27,2.49h-3.3q0-1.27-1.338-1.27a1.326,1.326,0,0,0-.869.288.892.892,0,0,0-.352.718.819.819,0,0,0,.43.713,4.06,4.06,0,0,0,1.372.449,11.857,11.857,0,0,1,1.655.42,3.007,3.007,0,0,1,2.383,2.939A2.767,2.767,0,0,1,9.521-.713,5.632,5.632,0,0,1,6.2.2,5.747,5.747,0,0,1,3.774-.293a4.05,4.05,0,0,1-1.66-1.328,3.007,3.007,0,0,1-.6-1.768H4.595a1.272,1.272,0,0,0,.488,1.069,2.009,2.009,0,0,0,1.2.337,1.58,1.58,0,0,0,1.011-.273A.875.875,0,0,0,7.632-2.969ZM22.153-5.205a6.372,6.372,0,0,1-1.108,3.931A3.554,3.554,0,0,1,18.052.2,3.046,3.046,0,0,1,15.659-.869V4.063H12.368V-10.566h3.076l.1.977a3.046,3.046,0,0,1,2.49-1.172,3.582,3.582,0,0,1,3.037,1.44,6.45,6.45,0,0,1,1.084,3.96ZM18.862-5.41q0-2.812-1.641-2.812a1.549,1.549,0,0,0-1.562.84v4.16a1.6,1.6,0,0,0,1.582.879q1.572,0,1.621-2.715ZM28.716.2a5.432,5.432,0,0,1-3.936-1.45,5.008,5.008,0,0,1-1.5-3.774V-5.3a6.489,6.489,0,0,1,.6-2.861,4.395,4.395,0,0,1,1.753-1.919,5.292,5.292,0,0,1,2.734-.679A4.574,4.574,0,0,1,31.88-9.38a5.43,5.43,0,0,1,1.289,3.853v1.279H26.626a2.372,2.372,0,0,0,.771,1.4,2.3,2.3,0,0,0,1.543.508,2.958,2.958,0,0,0,2.441-1.094l1.5,1.777A4.2,4.2,0,0,1,31.143-.308,5.891,5.891,0,0,1,28.716.2Zm-.371-8.418q-1.445,0-1.719,1.914h3.32v-.254a1.63,1.63,0,0,0-.4-1.226A1.593,1.593,0,0,0,28.345-8.223ZM38.96-2.344a1.464,1.464,0,0,0,1.074-.376,1.379,1.379,0,0,0,.371-1.05h3.086A3.653,3.653,0,0,1,42.246-.918,4.631,4.631,0,0,1,39.038.2,4.689,4.689,0,0,1,35.405-1.25a5.7,5.7,0,0,1-1.328-4v-.137a6.436,6.436,0,0,1,.591-2.827,4.3,4.3,0,0,1,1.7-1.885,5.081,5.081,0,0,1,2.637-.659A4.573,4.573,0,0,1,42.28-9.619a4.053,4.053,0,0,1,1.211,3.1H40.405a1.807,1.807,0,0,0-.4-1.26,1.382,1.382,0,0,0-1.074-.439q-1.279,0-1.494,1.631a11.507,11.507,0,0,0-.068,1.426,4.52,4.52,0,0,0,.381,2.207A1.319,1.319,0,0,0,38.96-2.344ZM48.472,0H45.161V-10.566h3.311Zm-1.23-14.8h3.477L48-11.738l-2.686,0ZM51.353,0V-8.281H49.819v-2.285h1.533v-.352a4.034,4.034,0,0,1,1.387-3.232,5.541,5.541,0,0,1,3.6-1.055,12.787,12.787,0,0,1,3.438.566l-.449,2.6-.547-.146a8.7,8.7,0,0,0-2.246-.283q-1.885,0-1.885,1.719v.186h2.07v2.285h-2.07V0Zm9.941,0H57.983V-10.566h3.311Zm6.475-2.344a1.464,1.464,0,0,0,1.074-.376,1.379,1.379,0,0,0,.371-1.05H72.3A3.653,3.653,0,0,1,71.055-.918,4.631,4.631,0,0,1,67.847.2,4.689,4.689,0,0,1,64.214-1.25a5.7,5.7,0,0,1-1.328-4v-.137a6.436,6.436,0,0,1,.591-2.827,4.3,4.3,0,0,1,1.7-1.885,5.081,5.081,0,0,1,2.637-.659,4.573,4.573,0,0,1,3.271,1.143,4.053,4.053,0,0,1,1.211,3.1H69.214a1.806,1.806,0,0,0-.4-1.26,1.382,1.382,0,0,0-1.074-.439q-1.279,0-1.494,1.631a11.508,11.508,0,0,0-.068,1.426,4.52,4.52,0,0,0,.381,2.207A1.319,1.319,0,0,0,67.769-2.344ZM79.644,0a3.716,3.716,0,0,1-.312-.947A3.06,3.06,0,0,1,76.792.2a3.749,3.749,0,0,1-2.539-.9,2.875,2.875,0,0,1-1.045-2.271,2.955,2.955,0,0,1,1.27-2.6,6.468,6.468,0,0,1,3.691-.879h1.016v-.559q0-1.462-1.26-1.462a1.03,1.03,0,0,0-1.172,1.158H73.462a2.95,2.95,0,0,1,1.3-2.487,5.479,5.479,0,0,1,3.325-.956,4.8,4.8,0,0,1,3.193.986,3.429,3.429,0,0,1,1.2,2.705v4.678a4.79,4.79,0,0,0,.449,2.227V0ZM77.583-2.148A1.836,1.836,0,0,0,78.6-2.412a1.653,1.653,0,0,0,.581-.6V-4.7h-.957q-1.719,0-1.719,1.543a.942.942,0,0,0,.3.728A1.1,1.1,0,0,0,77.583-2.148Zm12.256-.82a.76.76,0,0,0-.439-.674,6.685,6.685,0,0,0-1.67-.527A7.615,7.615,0,0,1,85.7-4.888a3.4,3.4,0,0,1-1.221-1.079,2.577,2.577,0,0,1-.42-1.455,2.92,2.92,0,0,1,1.2-2.4,4.948,4.948,0,0,1,3.145-.942,5.482,5.482,0,0,1,3.359.947,2.962,2.962,0,0,1,1.27,2.49h-3.3q0-1.27-1.338-1.27a1.326,1.326,0,0,0-.869.288.892.892,0,0,0-.352.718.819.819,0,0,0,.43.713,4.06,4.06,0,0,0,1.372.449,11.857,11.857,0,0,1,1.655.42,3.007,3.007,0,0,1,2.383,2.939A2.767,2.767,0,0,1,91.729-.713,5.631,5.631,0,0,1,88.4.2a5.747,5.747,0,0,1-2.422-.488,4.05,4.05,0,0,1-1.66-1.328,3.007,3.007,0,0,1-.6-1.768H86.8a1.272,1.272,0,0,0,.488,1.069,2.009,2.009,0,0,0,1.2.337A1.58,1.58,0,0,0,89.5-2.256.875.875,0,0,0,89.839-2.969Z" transform="translate(1223.134 6805.558)" fill="#12263f"/>
    <path id="Trazado_203000" data-name="Trazado 203000" d="M251.946,105.075l1.931-1.973-.757-10.448a.675.675,0,0,0-.646-.642h-1.055a.675.675,0,0,0-.646.642l-.757,10.448Z" transform="translate(1001.676 6554.785)" fill="#428212"/>
    <g id="Grupo_142823" data-name="Grupo 142823" transform="translate(1156.319 6617.4)">
      <path id="Trazado_203003" data-name="Trazado 203003" d="M89.625,146.04a33.34,33.34,0,0,0-9.387-4.595,1.315,1.315,0,0,0-1.749,1.321v10.7a1.374,1.374,0,0,0,.981,1.317,31.969,31.969,0,0,1,8.53,4.12,1.4,1.4,0,0,0,2.182-1.11V147.147A1.373,1.373,0,0,0,89.625,146.04ZM87.437,155.3a34.5,34.5,0,0,0-6.2-2.834v-7.781a30.011,30.011,0,0,1,6.2,3.169Z" transform="translate(-50.425 -92.606)" fill="#428212"/>
      <path id="Trazado_203004" data-name="Trazado 203004" d="M79.562,69.127c.427.1,1.506.357,1.622.357a1.377,1.377,0,0,0,.349-2.7c-1.072-.321-2.637-.79-3.007.7A1.373,1.373,0,0,0,79.562,69.127Z" transform="translate(-50.429 -47.085)" fill="#428212"/>
      <path id="Trazado_203005" data-name="Trazado 203005" d="M103.988,77.842a51.712,51.712,0,0,1,15.208,10.8c1.118,1.036,3.305-.221,2.026-1.854A53.551,53.551,0,0,0,105.1,75.332a1.374,1.374,0,0,0-1.114,2.511Z" transform="translate(-65.43 -52.403)" fill="#428212"/>
      <path id="Trazado_203006" data-name="Trazado 203006" d="M79.585,94.922c13.825,3.132,24.543,14.122,24.657,14.226a1.373,1.373,0,0,0,1.978-1.906c-.458-.475-11.384-11.681-26.027-15A1.374,1.374,0,0,0,79.585,94.922Z" transform="translate(-50.452 -62.735)" fill="#428212"/>
      <path id="Trazado_203007" data-name="Trazado 203007" d="M79.562,120.779c13.825,3.132,24.55,14.115,24.657,14.226a1.566,1.566,0,0,0,1.942.035,1.342,1.342,0,0,0,.036-1.942c-.458-.475-11.384-11.681-26.027-15a1.373,1.373,0,0,0-.607,2.679Z" transform="translate(-50.429 -78.446)" fill="#428212"/>
      <path id="Trazado_203008" data-name="Trazado 203008" d="M120.577,161.7a1.374,1.374,0,0,0-1.334,2.4,44.51,44.51,0,0,1,9.292,7.429,1.558,1.558,0,0,0,1.941.072,1.362,1.362,0,0,0,.073-1.941,46.572,46.572,0,0,0-9.971-7.962Z" transform="translate(-74.762 -104.845)" fill="#428212"/>
      <path id="Trazado_203009" data-name="Trazado 203009" d="M130.467,197.477a1.369,1.369,0,0,0,.073-1.94,46.53,46.53,0,0,0-9.971-7.962,1.373,1.373,0,1,0-1.334,2.4,44.5,44.5,0,0,1,9.292,7.429,1.56,1.56,0,0,0,1.94.072Z" transform="translate(-74.754 -120.573)" fill="#428212"/>
      <path id="Trazado_203010" data-name="Trazado 203010" d="M134.17,56.754a65.246,65.246,0,0,0-7.6-3.218,1.375,1.375,0,1,0-.9,2.6,62.274,62.274,0,0,1,6.5,2.7v70.131c-22.258-9.885-43.558-6.449-60.039.056V58.855a71.319,71.319,0,0,1,8.854-3.188,1.534,1.534,0,0,0,1.065-1.378A1.38,1.38,0,0,0,80.29,53,73.327,73.327,0,0,0,71.348,56.2C61.78,41.7,47.784,31.057,21.9,28.613a1.368,1.368,0,0,0-1.473,1.37V51.958A69.485,69.485,0,0,0,7.7,56.77a1.362,1.362,0,0,0-.719,1.207v84.7a1.407,1.407,0,0,0,1.749,1.37c33.954-9.5,57-1.235,62.027-.039,5.092-1.147,28.445-9.5,62.42.039,1.125.209,1.749-.365,1.749-1.361V57.978a1.37,1.37,0,0,0-.752-1.225ZM9.725,58.821a68.57,68.57,0,0,1,10.7-4v48.2a1.373,1.373,0,0,0,1.275,1.37c24.055,2.463,35.687,10.895,45.706,23.82-17.056-5.989-35.468-8.8-57.685.753ZM69.389,140.8c-17.276-4.82-34.765-6.075-59.664.12v-2.938c26.676-11.635,55.37-1.651,59.664-.028Zm0-5.779c-16.067-5.5-38.265-8.7-59.664-.027v-3c21.457-10.383,44.517-6.559,59.664.019Zm0-8.79c-1.785-2.492-14.284-22.167-46.214-24.483V31.473c23.466,2.234,38.491,13.861,46.214,26.844Zm62.786,14.69c-19.342-6.024-47.4-4.445-60.039-.113v-2.821c4.042-1.525,33.187-11.715,60.039,0Zm0-5.925c-21.362-8.7-44.027-5.431-60.039.06v-3.041c4.905-2.179,32.6-13.29,60.039-.024Z" transform="translate(-6.978 -24.093)" fill="#428212"/>
      <path id="Trazado_203011" data-name="Trazado 203011" d="M238.268,17.992a5.032,5.032,0,0,0-7.185,1.695,82.154,82.154,0,0,1-8.236,11.863c-1.742-9.668-15.675-9.662-17.413,0A82.041,82.041,0,0,1,197.2,19.687a4.977,4.977,0,0,0-3.2-2.426c-3.9-1.054-7.538,3.3-5.734,6.943a111.831,111.831,0,0,0,11.385,19.772,10.425,10.425,0,0,1,2.08,5.275l1.339,13.967h-8.861a1.373,1.373,0,0,0-1.373,1.373c.039,3.8-.788,7.966,4.122,8.91l.646,28a1.373,1.373,0,0,0,1.373,1.342H229.3a1.373,1.373,0,0,0,1.373-1.342l.645-28c4.905-.938,4.087-5.116,4.12-8.91a1.373,1.373,0,0,0-1.373-1.373h-8.859l1.339-13.967a10.422,10.422,0,0,1,2.08-5.275A111.8,111.8,0,0,0,240.011,24.2a4.994,4.994,0,0,0-1.743-6.212Zm-24.128,8.98c8.033.211,8.031,11.974,0,12.184C206.108,38.945,206.109,27.182,214.141,26.973ZM200.322,100.1l-.612-26.554h28.861l-.612,26.554ZM232.7,68.835a1.962,1.962,0,0,1-1.962,1.962H197.546c-2.6-.1-1.864-3.117-1.962-4.83h37.109Zm4.818-45.769a108.955,108.955,0,0,1-11.077,19.257,13.169,13.169,0,0,0-2.624,6.667L222.45,63.218H205.833l-1.364-14.229a13.169,13.169,0,0,0-2.623-6.667,108.954,108.954,0,0,1-11.077-19.257c-1.18-2.56,2.652-4.525,4.025-2.05A91.731,91.731,0,0,0,205.956,36.4c2.865,7.279,13.525,7.264,16.375-.017a90.84,90.84,0,0,0,11.156-15.364c1.369-2.467,5.208-.518,4.027,2.05Z" transform="translate(-116.838 -17.101)" fill="#428212"/>
      <path id="Trazado_203012" data-name="Trazado 203012" d="M250.6,88.51h-2.629a1.373,1.373,0,0,0-1.368,1.252l-.96,10.738a1.377,1.377,0,0,0,.387,1.083l2.276,2.324a1.382,1.382,0,0,0,1.962,0l2.276-2.324a1.373,1.373,0,0,0,.387-1.083l-.962-10.738A1.373,1.373,0,0,0,250.6,88.51Zm-1.315,12.472-.85-.869.792-8.856h.118l.792,8.856Z" transform="translate(-151.985 -60.488)" fill="#428212"/>
    </g>
  </g>
</svg>
