<svg xmlns="http://www.w3.org/2000/svg" width="276.223" height="217.589" viewBox="0 0 276.223 217.589">
  <g id="Grupo_145580" data-name="Grupo 145580" transform="translate(-488.19 -2871.917)">
    <g id="Grupo_140678" data-name="Grupo 140678" transform="translate(156.908 2454.395)">
      <path id="Trazado_201578" data-name="Trazado 201578" d="M1282.417,1187.7a3.331,3.331,0,0,0-1.573-1c-.944-.237-2.984-1.234-2.747-.712s1.376,1.139,1.186,1.519c0,0-3.242-.9-3.337-.332a4.67,4.67,0,0,0,2.531,3.211,21.381,21.381,0,0,0,3.653-.459Z" transform="translate(-775.269 -630.544)" fill="#f2a16b"/>
      <g id="Grupo_140662" data-name="Grupo 140662" transform="translate(331.283 509.606)">
        <path id="Trazado_201580" data-name="Trazado 201580" d="M342.731,1039.626s-9.365,9.709-9.807,13.364,4.486,9.359,4.486,9.359Z" transform="translate(-332.607 -1020.159)" fill="#db6757"/>
        <path id="Trazado_201581" data-name="Trazado 201581" d="M411.343,1593.18s.33,5.15,1.327,5.222c.132.01,5.054,0,5.054,0l6.283-.05a2.038,2.038,0,0,0-1.882-1.83c-1.837-.316-4.914-1.6-6.032-4.025C414.918,1589.945,411.343,1593.18,411.343,1593.18Z" transform="translate(-396.987 -1473.088)" fill="#2358a5"/>
        <path id="Trazado_201582" data-name="Trazado 201582" d="M333.3,1593.35s.33,5.15,1.327,5.222c.133.009,5.054,0,5.054,0l6.283-.05a2.039,2.039,0,0,0-1.882-1.83c-1.837-.316-4.914-1.6-6.032-4.025C336.876,1590.115,333.3,1593.35,333.3,1593.35Z" transform="translate(-332.939 -1473.228)" fill="#2358a5"/>
        <path id="Trazado_201583" data-name="Trazado 201583" d="M352.476,1256.125s-1.62,10.513-7.71,29.182-6.907,26.75-6.907,26.75l-6.576-.17s-.1-20.389,2.7-29.776.536-33.823.536-33.823Z" transform="translate(-331.283 -1191.406)" fill="#33454e"/>
        <path id="Trazado_201584" data-name="Trazado 201584" d="M380.053,1251.244a255.065,255.065,0,0,1-2.431,35.288c-2.7,19.451-1.751,27.7-1.751,27.7l-6.562.232s-3.964-19.444-2.861-29.179-5.443-33.386-5.443-33.386Z" transform="translate(-355.675 -1193.832)" fill="#455a64"/>
        <path id="Trazado_201585" data-name="Trazado 201585" d="M395.935,1008.871l3.5,2.285,5.051-.953c-.071-.408-.408-2.1-.715-3.629-.018-.091-.037-.181-.054-.269-.263-1.3-.49-2.422-.49-2.422l-4.724-2.072-1.762-.773c0,.027.14,1.446.158,1.653A12.033,12.033,0,0,1,395.935,1008.871Z" transform="translate(-384.342 -988.492)" fill="#ffb27d"/>
        <path id="Trazado_201586" data-name="Trazado 201586" d="M400.816,1030.865c-.1-.041-6.089-1.795-6.739-1.579s-1.032,1.475-1.032,1.475l9.8,2.193A4.862,4.862,0,0,0,400.816,1030.865Z" transform="translate(-381.969 -1011.658)" fill="#ed7d2b"/>
        <path id="Trazado_201587" data-name="Trazado 201587" d="M345.769,1077.668c1.025,4.628,17.916,5.14,22.261.928.494-.48.514-2.709.32-5.713-.378-5.87-1.57-14.7-1.626-19.211a35.73,35.73,0,0,0-.734-6.43,52.239,52.239,0,0,0-2.159-7.693s-8.256-2.649-9.8-2.192C346.6,1039.558,344.744,1073.041,345.769,1077.668Z" transform="translate(-342.958 -1018.254)" fill="#ff725e"/>
        <path id="Trazado_201588" data-name="Trazado 201588" d="M435.063,1114.409c-.378-5.87-1.57-14.7-1.626-19.211a35.731,35.731,0,0,0-.734-6.43l-4.965-.865S422.929,1107.732,435.063,1114.409Z" transform="translate(-409.671 -1059.78)" fill="#e46654"/>
        <path id="Trazado_201589" data-name="Trazado 201589" d="M446.067,1186.6a1.168,1.168,0,0,0,.375,1.351,2.263,2.263,0,0,1,1.013,2.063c-.161.643-1.717,1.695-2.258,1.527s-1.642-1.012-1.524-1.352-.746-2.974.569-3.991A1.063,1.063,0,0,1,446.067,1186.6Z" transform="translate(-423.38 -1140.144)" fill="#ffb27d"/>
        <path id="Trazado_201590" data-name="Trazado 201590" d="M424.033,1043.246s4.842.9,8.711,6.57,6.415,9.894,5.709,11.944-7.166,9.168-8.282,9.17a2.993,2.993,0,0,1-3.025-2.632s4.266-7.1,3.365-8.122c-.385-.436-5.651-4.66-6.436-2.629C422.774,1060.909,424.033,1043.246,424.033,1043.246Z" transform="translate(-406.952 -1023.13)" fill="#ff725e"/>
        <path id="Trazado_201591" data-name="Trazado 201591" d="M402.675,1006.29c1.04,1.754,4.906,3.264,6.518,3.818-.018-.09-.037-.181-.054-.269-.263-1.3-.49-2.421-.49-2.421l-4.724-2.072C402.88,1005.334,402.245,1005.569,402.675,1006.29Z" transform="translate(-389.762 -992.026)" fill="#fca56b"/>
        <path id="Trazado_201592" data-name="Trazado 201592" d="M397.915,958.05s-7.6,2.388-9.012-2.366-3.348-7.648,1.443-9.374,6.278-.194,7.136,1.279S399.855,957.306,397.915,958.05Z" transform="translate(-377.251 -942.948)" fill="#ffb27d"/>
        <path id="Trazado_201593" data-name="Trazado 201593" d="M382.166,935.246s-.473,5.537-1.618,5.3-2.184-.414-2.013,1.255,1.763,3.592-1.764,3.895-8.62-8.785-7.654-10.51C371.9,930.207,386.2,929.173,382.166,935.246Z" transform="translate(-362.234 -931.063)" fill="#163560"/>
      </g>
      <g id="Grupo_140663" data-name="Grupo 140663" transform="translate(367.332 492.161)">
        <path id="Trazado_201594" data-name="Trazado 201594" d="M624.425,976.723a44.5,44.5,0,0,1-7.858-.7,43.616,43.616,0,0,1-6.921-1.838,56.211,56.211,0,0,1-10.5.011,67.168,67.168,0,0,1-28.835-9.244,22.762,22.762,0,0,1-6.027.474,24.5,24.5,0,0,1-14.141-5.62,40.844,40.844,0,0,1-10.634-13.528c-5.108-9.956-7.636-22.467-7.118-35.228a78.6,78.6,0,0,1,12.24-39.3c5.852-9.111,12.317-16.185,19.215-21.026a43.945,43.945,0,0,1,24.857-8.308,63.942,63.942,0,0,1,19.874-7.631,47.234,47.234,0,0,1,34.191,5.727c13.618,8.145,24.514,23.3,32.384,45.053q.675,1.865,1.252,3.722c1.806.933,3.755,1.984,5.932,3.157l.142.077c6.8,3.665,17.415,6.6,28.389,7.845,9.15,1.04,22.74,1.4,35.521-2.773,11.944-3.9,20.383-10.879,25.083-20.735l1.028.49c-4.839,10.148-13.5,17.324-25.757,21.328-12.976,4.24-26.741,3.875-36,2.822-11.11-1.263-21.876-4.244-28.8-7.974l-.143-.077c-1.791-.965-3.421-1.843-4.935-2.638a67.491,67.491,0,0,1,1.816,31.785A56.075,56.075,0,0,1,665.4,949.693a49.205,49.205,0,0,1-6.245,5.823c-.153.336-.309.67-.469,1a8.255,8.255,0,0,1,1.167,4.171c-.135,2.04-2.452,3.834-6.886,5.331q-.548.185-1.133.362a32.446,32.446,0,0,1-13.093,8.032A45.642,45.642,0,0,1,624.425,976.723Zm-12.075-2.855a42.688,42.688,0,0,0,4.418,1.038,44.185,44.185,0,0,0,21.618-1.576,31.715,31.715,0,0,0,11.118-6.31,117.464,117.464,0,0,1-22.76,2.811q-.511.219-1.028.429A56.976,56.976,0,0,1,612.35,973.868Zm-40.487-9.308a66.422,66.422,0,0,0,27.388,8.507,55.032,55.032,0,0,0,7.935.161,41.953,41.953,0,0,1-8.163-4.616,93.2,93.2,0,0,1-11.185-2.187,42.681,42.681,0,0,1-10.663-4.2A23.1,23.1,0,0,1,571.863,964.559Zm29.639,4.368a41.241,41.241,0,0,0,8.288,4.1,55.917,55.917,0,0,0,13.624-3.1c-4.246.082-8.6.01-12.884-.227C607.407,969.527,604.385,969.268,601.5,968.928Zm-2.029-1.4c3.455.467,7.173.815,11.12,1.034,5.311.295,10.713.332,15.89.141a53.149,53.149,0,0,0,8.921-4.923,25.049,25.049,0,0,1-4.461-.694,14.355,14.355,0,0,1-8.506-6.246,65.06,65.06,0,0,1-10.9-.617c-8.838-1.236-16.076-3.919-21.638-8.007-.92,1.616-1.838,3.049-2.733,4.321a38.907,38.907,0,0,0,10.572,13.644Q598.588,966.878,599.473,967.529Zm37.821-3.692a53.48,53.48,0,0,1-7.81,4.729c8.554-.472,16.3-1.58,21.753-3.2a32.405,32.405,0,0,0,3-3.573,37.148,37.148,0,0,0,2.957-4.835,41.091,41.091,0,0,1-8.475,4.575A31.813,31.813,0,0,1,637.294,963.837Zm-59.021-2.306c4.424,2.479,10.886,4.412,18.913,5.665l-.169-.139a40,40,0,0,1-10.609-13.473,39.009,39.009,0,0,1-3.413,4A29.875,29.875,0,0,1,578.273,961.531Zm79.774-3.747a36.959,36.959,0,0,1-4.617,6.862c3.328-1.233,5.2-2.653,5.288-4.036A6.162,6.162,0,0,0,658.047,957.784ZM586.778,843.625c-1.244.091-2.412.231-3.531.4a43.593,43.593,0,0,0-18.748,7.64c-6.777,4.756-13.139,11.724-18.911,20.709a77.462,77.462,0,0,0-12.06,38.728c-.51,12.568,1.973,24.878,6.993,34.662a39.721,39.721,0,0,0,10.33,13.157,23.381,23.381,0,0,0,13.49,5.374,21.823,21.823,0,0,0,4.553-.232,50.532,50.532,0,0,1-13.085-12.208,45.575,45.575,0,0,1-4.525-7.541A25.136,25.136,0,0,1,541.8,935.3c-3.385-5.424-5.17-12.352-5.16-20.035a50.056,50.056,0,0,1,.976-9.687c-.352-9.254,3.461-19.967,10.771-30.233,7.01-9.845,16.164-17.742,25.115-21.667q1.5-.658,2.96-1.152a47.071,47.071,0,0,1,4.154-4.2A51.861,51.861,0,0,1,586.778,843.625ZM552.966,945.138a44.58,44.58,0,0,0,3.759,6.038,49.745,49.745,0,0,0,13.781,12.564,21.689,21.689,0,0,0,5.577-2.2,16.473,16.473,0,0,1-3.261-2.8,79.357,79.357,0,0,1-8.058-10.957,39.869,39.869,0,0,1-5.622-.7A28.737,28.737,0,0,1,552.966,945.138ZM623.8,956.786a13.03,13.03,0,0,0,7.421,5.2,24.271,24.271,0,0,0,5.7.716,47.552,47.552,0,0,0,8.7-8.314,43.271,43.271,0,0,0,3.53-5.07A54.863,54.863,0,0,1,623.8,956.786Zm27.116-8.263a44.125,44.125,0,0,1-4.406,6.576,48.321,48.321,0,0,1-7.646,7.546,31.4,31.4,0,0,0,9.44-2.166,40.14,40.14,0,0,0,8.631-4.725,40.15,40.15,0,0,0-4.6-5.761Q651.65,949.263,650.915,948.522Zm-84.79-.7a78.592,78.592,0,0,0,7.556,10.157,15.836,15.836,0,0,0,3.5,2.9,28.267,28.267,0,0,0,5-4.09,38.543,38.543,0,0,0,3.677-4.38q-.518-1.154-.971-2.351-.472-1.246-.869-2.526-.615-.133-1.218-.3a19.607,19.607,0,0,1-2.959-1.089A51.09,51.09,0,0,1,566.125,947.826Zm25.29.066c5.3,3.644,12.078,6.057,20.283,7.2a64.277,64.277,0,0,0,10.019.622,38.179,38.179,0,0,1-3.756-9.146q-.2-.7-.389-1.42-2.269-.313-4.534-.79a44.866,44.866,0,0,1-5.583-1.545A58.621,58.621,0,0,1,596.8,946.9,34.84,34.84,0,0,1,591.415,947.891Zm27.377-2.584q.129.48.264.951a35.574,35.574,0,0,0,3.981,9.422,53.636,53.636,0,0,0,26.865-8.163c-1.544-1.5-3.232-3.033-5.032-4.562q-2.479.753-4.979,1.3A63.058,63.058,0,0,1,618.792,945.307ZM651.7,947.7q.757.764,1.461,1.515a42.024,42.024,0,0,1,4.689,5.867c.129-.1.256-.194.384-.292a55.477,55.477,0,0,0,3.614-11.656q.528-2.632.887-5.48A51.778,51.778,0,0,1,651.7,947.7Zm12.378-11.753q-.408,3.893-1.114,7.411a58.649,58.649,0,0,1-2.861,9.913,48.7,48.7,0,0,0,4.451-4.341,54.87,54.87,0,0,0,12.908-26.072A79.354,79.354,0,0,1,666.779,932Q665.523,934.029,664.08,935.946Zm-78.792,11.821q.311.955.665,1.89.32.844.673,1.667c.683-1,1.377-2.1,2.074-3.3A23,23,0,0,1,585.288,947.767Zm-.376-1.216a21.605,21.605,0,0,0,3.285.323,31.555,31.555,0,0,1-2.619-2.473q-.567.2-1.14.391Q584.657,945.679,584.913,946.551Zm8.451-5.376c-.878,2.069-1.779,3.941-2.684,5.633a32.773,32.773,0,0,0,5.829-1.007,55.55,55.55,0,0,0,9.463-3.537,33.937,33.937,0,0,1-7.208-3.873C597.058,939.339,595.252,940.277,593.363,941.175Zm-27.943,5.491a48.694,48.694,0,0,0,12.884-1.315,24.135,24.135,0,0,1-7.609-7.122,42.047,42.047,0,0,1-3.207-5.3,64.215,64.215,0,0,1-7.768-1.938q-.273-.086-.548-.176A47.312,47.312,0,0,0,565.42,946.666Zm80.73-4.113c1.587,1.366,3.084,2.729,4.468,4.074a40.1,40.1,0,0,0,2.654-6.828A70.816,70.816,0,0,1,646.15,942.552Zm-94,.927a26.929,26.929,0,0,0,7.21,2.481,38.691,38.691,0,0,0,4.7.63,60.7,60.7,0,0,1-3-5.868,40.313,40.313,0,0,1-3.116-10.323,38.642,38.642,0,0,1-9.932-5.147A45.421,45.421,0,0,0,552.154,943.479Zm34.6.5a30.571,30.571,0,0,0,2.8,2.531c.76-1.4,1.517-2.939,2.262-4.614C590.177,942.631,588.486,943.332,586.75,943.976Zm-5.121,1.686a18.827,18.827,0,0,0,2.023.621q-.158-.567-.3-1.139Q582.5,945.414,581.629,945.662Zm73-6.489a41.08,41.08,0,0,1-2.43,6.794,50.622,50.622,0,0,0,10.782-10.456c.034-.335.066-.674.1-1.013q-1.174.747-2.425,1.483Q657.676,937.729,654.628,939.173Zm-85.731-6a40.967,40.967,0,0,0,2.725,4.4,22.262,22.262,0,0,0,8.328,7.375q1.587-.415,3.139-.908-.391-1.752-.648-3.558-.1-.146-.2-.294a33.1,33.1,0,0,1-3.232-6.349A54.4,54.4,0,0,1,568.9,933.172Zm49.587,10.95a61.942,61.942,0,0,0,21.16-.976q2.1-.462,4.18-1.069a141.328,141.328,0,0,0-15.885-11.361c-1.245.772-2.554,1.6-3.916,2.466-2.177,1.38-4.5,2.855-6.925,4.317C617.507,939.82,617.963,942.036,618.485,944.123ZM608.9,942.1a44.537,44.537,0,0,0,4.374,1.149q2,.421,4,.712c-.452-1.854-.853-3.8-1.217-5.832C613.739,939.5,611.341,940.856,608.9,942.1Zm-24.962.415q.113.587.241,1.169l.572-.195Q584.333,943.008,583.937,942.513Zm-.4-2.455a29.421,29.421,0,0,0,2.375,3.019c2.276-.829,4.475-1.758,6.575-2.743q1.073-2.57,2.087-5.556-.355-.369-.7-.751a27.825,27.825,0,0,1-1.854-2.314q-.8.243-1.6.459a49.3,49.3,0,0,1-7.336,1.38A49.485,49.485,0,0,0,583.533,940.058Zm-45.438-30.205a48.093,48.093,0,0,0-.316,5.412c-.009,7.469,1.715,14.188,4.987,19.43a24.2,24.2,0,0,0,7.719,7.831,46.948,46.948,0,0,1-3.621-18.167A24.187,24.187,0,0,1,538.095,909.853Zm90.931,20.2a141.728,141.728,0,0,1,16.1,11.635,69.787,69.787,0,0,0,8.524-3.311A41.256,41.256,0,0,0,654.7,925.3a23.039,23.039,0,0,1-5.472,3.379c-5.1,2.193-9.732,2.272-13.773.236a15.726,15.726,0,0,1-2.158-1.32C632,928.276,630.566,929.109,629.026,930.049Zm-29.162,7.72a33.638,33.638,0,0,0,7.522,3.813c2.891-1.426,5.733-3.028,8.459-4.657-.5-2.941-.924-6.039-1.312-9.248-2.077,1.682-4.22,3.3-6.387,4.823C605.848,934.113,603.047,935.945,599.864,937.768Zm-4.4-2.1q-.711,2.065-1.456,3.926c1.293-.637,2.546-1.293,3.748-1.953A29.457,29.457,0,0,1,595.468,935.673Zm-15.252-1.887a32.664,32.664,0,0,0,1.921,4.033q-.178-2.047-.192-4.155Q581.084,933.739,580.216,933.786Zm75.554-9.4a42.608,42.608,0,0,1-.8,13.359q2.575-1.26,5.1-2.743,1.626-.955,3.12-1.932a129.521,129.521,0,0,0-.049-18.426A35.705,35.705,0,0,1,655.77,924.383Zm-59.9,10.092a28.247,28.247,0,0,0,2.975,2.564c3.336-1.889,6.265-3.8,8.646-5.471,2.414-1.694,4.717-3.451,6.882-5.226q-.173-1.485-.339-3-1.9-.826-3.7-1.5a56.425,56.425,0,0,1-13.048,7.937Q596.606,932.248,595.871,934.475Zm19.706-7.654c.39,3.289.817,6.462,1.317,9.472,2.278-1.381,4.466-2.769,6.521-4.073,1.188-.753,2.336-1.481,3.437-2.168q-.456-.274-.911-.545c-2.84-1.683-5.6-3.178-8.256-4.475Q616.646,925.935,615.577,926.821Zm48.71,6.891v.007l.009-.012Zm-71.122-2.364q.735,1,1.56,1.919c.083.093.167.186.251.278q.5-1.549.973-3.21Q594.568,930.884,593.165,931.349Zm-24.915.562a53.814,53.814,0,0,0,10.353.8q-3.1-8.957-2.262-21.143-.848-.772-1.633-1.621-.482-.522-.94-1.07c-2.586,1.2-4.865,2.349-6.724,3.389a17.989,17.989,0,0,0-3.072,2.147c0,.125.007.25.012.375A42.157,42.157,0,0,0,568.25,931.911Zm9.169-19.417q-.676,11.621,2.375,20.172,1.082-.05,2.156-.146a58.79,58.79,0,0,1,.485-6.658,41.572,41.572,0,0,1,1.732-9.337A27.206,27.206,0,0,1,577.419,912.494Zm7.824,4.455a41.354,41.354,0,0,0-1.671,8.981l0,.052a57.7,57.7,0,0,0-.477,6.421,48.093,48.093,0,0,0,7.034-1.333q.612-.165,1.221-.344a31.115,31.115,0,0,1-4.759-13.313Q585.905,917.2,585.243,916.949Zm78.9-4.305a135.686,135.686,0,0,1,.252,19.628q.789-.534,1.536-1.066a52.188,52.188,0,0,0,7.605-28.129c-.076-4.588-1.43-7.677-4.139-9.444a8.754,8.754,0,0,0-.921-.522A46.373,46.373,0,0,1,664.141,912.644ZM558.988,929.556q.531.18,1.074.352a63.6,63.6,0,0,0,6.8,1.746,43.3,43.3,0,0,1-3.992-16.186,14.79,14.79,0,0,0-3.8,7.772A21.613,21.613,0,0,0,558.988,929.556Zm28.793-11.789a29.787,29.787,0,0,0,4.7,12.608q1.949-.63,3.856-1.426c.929-3.431,1.646-6.788,2.178-9.923q-.632-.036-1.233-.036A35.755,35.755,0,0,1,587.781,917.767Zm80.661-25.922a10.076,10.076,0,0,1,1.575.834c3.008,1.961,4.574,5.453,4.656,10.379a53.428,53.428,0,0,1-6.452,26.456,70.656,70.656,0,0,0,9.624-8.738,67.194,67.194,0,0,0-2.389-30.692,64.376,64.376,0,0,0-7.613-3.428,34.838,34.838,0,0,1,.578,4.727C668.428,891.536,668.435,891.691,668.442,891.845ZM618.609,924.22c2.554,1.261,5.2,2.7,7.912,4.308q.71.421,1.417.852c1.567-.964,3.032-1.829,4.379-2.549a28.639,28.639,0,0,1-6.557-8.594q-.61.167-1.219.3C622.7,920.445,620.709,922.354,618.609,924.22Zm15.854,2.8a14.185,14.185,0,0,0,1.508.882c3.779,1.9,7.97,1.818,12.811-.266a22.305,22.305,0,0,0,5.794-3.714,47.917,47.917,0,0,0-1.979-9.312,29.031,29.031,0,0,0-1.388-3.571C646,918.966,640.276,924.7,635.9,926.4Q635.216,926.663,634.463,927.02ZM548,923.829a35.881,35.881,0,0,0,9.786,5.3,22.4,22.4,0,0,1,.155-6.086,15.835,15.835,0,0,1,4.875-9.136,47.564,47.564,0,0,1,4.034-19.93,52.784,52.784,0,0,1-1.085-11.038q-1.793-.092-3.556-.057a82.162,82.162,0,0,0-12.986,29.76A56.347,56.347,0,0,0,548,923.829Zm51.646-4.712c-.493,2.934-1.148,6.057-1.983,9.252a55.36,55.36,0,0,0,11.411-6.98A42.142,42.142,0,0,0,599.65,919.117Zm27.239-1.218a26.617,26.617,0,0,0,6.534,8.359c.729-.362,1.418-.672,2.063-.922,4.123-1.6,9.811-7.355,14.843-15.029l.292-.449a23.354,23.354,0,0,0-6-7.316,27.568,27.568,0,0,1-6.564,8.8A30.9,30.9,0,0,1,626.889,917.9Zm-11.649,5.98q.089.8.18,1.595.582-.489,1.15-.978Q615.9,924.179,615.24,923.88Zm-.144-1.309q1.189.528,2.408,1.112c1.832-1.615,3.541-3.226,5.111-4.8a19.541,19.541,0,0,1-4.391.109,6.6,6.6,0,0,1-3.24-1.259c-.121.117-.241.233-.362.349Q614.857,920.347,615.1,922.571Zm36.839-12.652a29.9,29.9,0,0,1,1.749,4.348,49.449,49.449,0,0,1,1.93,8.7,35.743,35.743,0,0,0,6.993-9.768q.191-.383.376-.771-.549-6.773-1.681-14.219a53.128,53.128,0,0,0-1.083-5.3A82,82,0,0,1,651.935,909.919Zm-113.177-4.257q.007.167.016.334a23.5,23.5,0,0,0,5.328,14.057,24.92,24.92,0,0,0,2.776,2.843,58,58,0,0,1,1.235-10.483A83.19,83.19,0,0,1,560.8,882.934a43.749,43.749,0,0,0-6.214.747c-4.6.9-8.865,4.759-12.02,10.871A43.111,43.111,0,0,0,538.758,905.662Zm72.588,15.353q1.253.482,2.549,1.033-.159-1.486-.315-2.992Q612.474,920.069,611.346,921.015Zm-11.513-3.022a44.678,44.678,0,0,1,10.283,2.563q1.594-1.309,3.141-2.754l.175-.164q-.074-.716-.147-1.437a27.627,27.627,0,0,1-4.14-6.615c-2.923.834-5.287,1.182-6.88.795-.472-.115-.983-.254-1.526-.416C600.588,912.344,600.293,915.063,599.833,917.993Zm15.973-1.075a5.45,5.45,0,0,0,2.524.935,19.293,19.293,0,0,0,5.629-.354q.474-.5.927-.985a71.033,71.033,0,0,1-2.809-6.743A77.219,77.219,0,0,1,615.806,916.918Zm-28.172-.378a34.349,34.349,0,0,0,9.645,1.31q.69,0,1.418.046c.481-3.044.782-5.854.926-8.287a49.073,49.073,0,0,1-9.182-4.215q-.739,1.155-1.409,2.373c-.566,1.028-1.073,2.05-1.528,3.057A37.23,37.23,0,0,0,587.634,916.54Zm38.628.158.092.181A29.7,29.7,0,0,0,637.29,910.5a26.325,26.325,0,0,0,6.4-8.668,25.725,25.725,0,0,0-5.671-3.088q-.37-.147-.746-.284-.9.355-1.8.716a37.114,37.114,0,0,1-.9,5.072C633.811,907.195,630.785,911.725,626.262,916.7Zm-11.882-.98c.171.175.344.341.519.5a76.452,76.452,0,0,0,6.725-7.721q-.531-1.531-1.031-3.122c-2.483,1.023-4.837,1.961-7,2.749.261,2.42.509,4.838.754,7.237Zm-28.8.138q.435.163.878.313-.108-1.226-.135-2.469Q585.909,914.805,585.577,915.856ZM622.9,908.69c.447,1.258.913,2.489,1.4,3.684q.7,1.7,1.419,3.223c4.286-4.764,7.058-8.971,7.747-11.632a35.077,35.077,0,0,0,.8-4.3c-2.459,1-4.889,2.02-7.237,3.01Q625.072,905.8,622.9,908.69Zm-45.389,2.394a25.985,25.985,0,0,0,6.992,4.346,47.531,47.531,0,0,1,1.874-4.889,42.388,42.388,0,0,1,1.03-7.091l-.111-.078c-3.3,1.177-6.467,2.421-9.377,3.659Q577.665,909.1,577.514,911.084Zm32.732-1.827a31.73,31.73,0,0,0,2.831,4.9q-.288-2.813-.59-5.646Q611.325,908.92,610.246,909.256ZM567.3,895.863a47.363,47.363,0,0,0-3.345,17.08,19.769,19.769,0,0,1,2.532-1.674c1.819-1.017,4.036-2.142,6.547-3.31A33.582,33.582,0,0,1,567.3,895.863Zm93.836-3.937a54.189,54.189,0,0,1,1.291,6.116q.965,6.353,1.51,12.23a44.869,44.869,0,0,0,3.392-17.634A16.846,16.846,0,0,0,661.136,891.925Zm-86.294,16.456q.343.4.7.788.445.481.911.937.109-1.261.26-2.556Q575.757,907.968,574.842,908.381Zm25.962.412c.62.191,1.2.35,1.731.48,1.361.331,3.485.012,6.122-.733-1.2-2.632-2.347-5.562-3.511-8.543q-.316-.809-.634-1.621c-1.667.363-3.277.752-4.809,1.151a14.386,14.386,0,0,1,1.087,4.541A42.261,42.261,0,0,1,600.8,908.794Zm44.282-7.341a24.286,24.286,0,0,1,6.234,7.306,80.358,80.358,0,0,0,7.984-16.694,64.425,64.425,0,0,0-12.817,3.036A19.577,19.577,0,0,1,645.087,901.453Zm-54.022,3a48.028,48.028,0,0,0,8.618,3.979,40.172,40.172,0,0,0-.027-4.282,13.286,13.286,0,0,0-1.063-4.324c-1.731.467-3.46.972-5.173,1.505Q592.173,902.819,591.065,904.45Zm14.577-6.313q.284.725.566,1.447c1.181,3.025,2.34,5.994,3.55,8.631.827-.255,1.7-.546,2.6-.866-.374-3.413-.779-6.828-1.249-10.2C609.246,897.433,607.415,897.768,605.641,898.136Zm-17.22,6q-.387,1.754-.622,3.515.116-.216.235-.433.682-1.239,1.432-2.414Q588.944,904.479,588.422,904.135ZM568.046,894.1a33.046,33.046,0,0,0,6.05,13.366q1.342-.611,2.78-1.23.678-5.181,2-10.866a28.5,28.5,0,0,1-2.914-4.77,25.162,25.162,0,0,1-2-5.926,38.245,38.245,0,0,0-5.554,8.643Q568.224,893.71,568.046,894.1Zm53.6,10.832q.39,1.238.8,2.454,1.409-1.913,2.733-3.935Q623.384,904.213,621.649,904.936Zm-9.41-7.952c.46,3.3.857,6.633,1.224,9.968,2.118-.776,4.409-1.691,6.792-2.673-.782-2.561-1.512-5.214-2.206-7.909C616.1,896.505,614.154,896.716,612.239,896.984Zm-32.458-.462q-1.077,4.786-1.687,9.2c2.54-1.069,5.261-2.137,8.091-3.16A37.384,37.384,0,0,1,579.781,896.523Zm8.917,6.44q.693.466,1.39.9.663-.979,1.374-1.909-1.382.45-2.742.921Zm30.5-6.662c.648,2.511,1.346,5.05,2.107,7.543,1.506-.625,3.044-1.273,4.6-1.927l.36-.152q1.57-2.519,3-5.175A57.1,57.1,0,0,0,619.2,896.3Zm-39.1-1.187a36.045,36.045,0,0,0,7.361,6.991l.3-.107a45.349,45.349,0,0,1,3.375-8.8q.371-.731.764-1.439l0,0a39.4,39.4,0,0,0-9.393-5.194q-.594,1.628-1.075,3.367Q580.708,892.571,580.106,895.113Zm12.708-2.635q-.334.608-.652,1.234a44.3,44.3,0,0,0-3.084,7.834q1.822-.621,3.682-1.206a39.3,39.3,0,0,1,3.841-3.931A23.273,23.273,0,0,0,592.814,892.478Zm37.648,4.278q-1.152,2.168-2.4,4.253c2.075-.872,4.206-1.76,6.359-2.632q.038-.389.071-.788A38.353,38.353,0,0,0,630.462,896.756Zm8.383,1.094a26.855,26.855,0,0,1,5.3,2.9,18.5,18.5,0,0,0,1.185-5.259C643.189,896.213,641.017,897.012,638.845,897.85ZM575.01,854.276q-.523.211-1.052.443c-8.639,3.788-17.852,11.745-24.645,21.285-5.8,8.143-9.353,16.551-10.317,24.233a40.8,40.8,0,0,1,2.553-6.206c3.319-6.427,7.869-10.5,12.814-11.466a45.273,45.273,0,0,1,7.24-.8q2.178-3.094,4.557-5.907a42.375,42.375,0,0,1,8.849-21.585Zm22.248,43.074q-1.25,1.12-2.4,2.35,1.614-.48,3.238-.922Q597.721,898.056,597.259,897.349Zm.868-.754a17.775,17.775,0,0,1,1.1,1.88q2.474-.649,4.867-1.176c-.517-1.307-1.043-2.612-1.583-3.891q-.824.515-1.616,1.067Q599.456,895.476,598.126,896.6Zm37.563.145q.8.236,1.566.5c2.719-1.068,5.446-2.084,8.11-2.979a19.148,19.148,0,0,0-2.559-9.333c-2.216.165-4.631.37-7.281.611-.08.212-.16.422-.241.634A53.251,53.251,0,0,1,635.689,896.741Zm-32.2-3.928c.591,1.4,1.164,2.818,1.727,4.243q2.936-.617,5.734-1.045-.457-3.163-1-6.258A42.088,42.088,0,0,0,603.49,892.813Zm27.53,2.874q1.841.3,3.549.744a52.021,52.021,0,0,0-.169-8.043Q632.857,892.123,631.021,895.687Zm-19.987-6.327c.383,2.135.728,4.3,1.044,6.485q2.925-.412,5.682-.611c-.542-2.143-1.063-4.31-1.573-6.475q-.1-.414-.182-.832A49.308,49.308,0,0,0,611.034,889.36Zm-17.65,2.112a24.644,24.644,0,0,1,4.082,4.191q1.335-1.119,2.773-2.122.888-.619,1.814-1.192a58.691,58.691,0,0,0-3.815-7.517A39.217,39.217,0,0,0,593.384,891.472Zm29.3,3.579a53.157,53.157,0,0,1,7.146.458,95.216,95.216,0,0,0,4.284-9.467c-.018-.121-.036-.241-.054-.363-3.208.3-6.75.648-10.682,1.041a58.564,58.564,0,0,0-6.262.96q.083.412.179.818c.506,2.15,1.041,4.39,1.616,6.662l.5-.027Q621.083,895.051,622.685,895.051ZM575.04,884.244a23.947,23.947,0,0,0,1.949,5.867,27.13,27.13,0,0,0,2.234,3.806q.516-2.113,1.118-4.294.5-1.792,1.108-3.471A52,52,0,0,0,575.04,884.244Zm69.015.6a20.273,20.273,0,0,1,2.443,9.047c1.391-.452,2.761-.869,4.1-1.239a52.167,52.167,0,0,1,9.053-1.769,51.382,51.382,0,0,0-2.37-6.317A104.14,104.14,0,0,0,644.055,884.843Zm-77.147-1.83a53,53,0,0,0,.765,9.214,38.813,38.813,0,0,1,5.507-8.376A53.89,53.89,0,0,0,566.908,883.013Zm32.138.964a58.089,58.089,0,0,1,3.992,7.782,43.366,43.366,0,0,1,6.7-3.144q-.572-3.076-1.264-6.049-.567-2.416-1.205-4.645A29.91,29.91,0,0,0,599.045,883.977Zm63.193,6.783a17.328,17.328,0,0,1,5.043.666,33.348,33.348,0,0,0-.689-5.194,34.178,34.178,0,0,0-4.212-1.062c-.388,1.847-.879,3.726-1.468,5.624Q661.593,890.76,662.238,890.76Zm-79.314-5.279a40.571,40.571,0,0,1,9.557,5.279,40.158,40.158,0,0,1,5.119-6.915c-3.021-4.5-6.307-6.694-10.023-6.7A35.1,35.1,0,0,0,582.924,885.481Zm75.647-.82q.938,2.141,1.681,4.358.582-2.041,1-4.039C660.4,884.847,659.506,884.742,658.572,884.66Zm8.99.7a58.231,58.231,0,0,1,7.415,3.209q-.424-1.3-.9-2.607c-7.779-21.5-18.511-36.457-31.9-44.464a46.11,46.11,0,0,0-33.378-5.588,63.239,63.239,0,0,0-17.827,6.521,58.911,58.911,0,0,1,13.285,1.99,45.634,45.634,0,0,1,16.472-1.579c7.226.721,12.811,3.382,16.135,7.541,6.318-1.493,12.777.466,18.667,5.779,5.28,4.762,7.95,11.541,7.89,19.862q.254.354.5.72A26.747,26.747,0,0,1,667.561,885.357Zm-59.245-7.921q.673,2.335,1.269,4.87.683,2.908,1.242,5.922a50.594,50.594,0,0,1,4.976-1.422,32.486,32.486,0,0,1,.44-12.038A41.651,41.651,0,0,0,608.316,877.435Zm9.15-2.918a31.514,31.514,0,0,0-.55,12.042,59.705,59.705,0,0,1,6.35-.972c3.916-.391,7.432-.736,10.609-1.031a46.349,46.349,0,0,0-1.292-5.409,40.009,40.009,0,0,0-1.381-3.831A26.592,26.592,0,0,0,617.466,874.517Zm-42.08,8.628a52.823,52.823,0,0,1,6.474,1.928,36.634,36.634,0,0,1,4.221-7.823C582.4,877.739,578.694,879.825,575.386,883.145Zm87.217.91a35.137,35.137,0,0,1,3.684.894,25.645,25.645,0,0,0-2.925-6.97,47.041,47.041,0,0,1-.718,5.858Q662.623,883.945,662.6,884.054Zm-24.881-5.1c-.518,1.786-1.106,3.6-1.763,5.416,2.229-.2,4.284-.373,6.185-.518A21.31,21.31,0,0,0,637.722,878.95Zm-5.061-3.063c.388,1,.723,1.983,1.012,2.929a47.142,47.142,0,0,1,1.241,5.093c.691-1.919,1.305-3.826,1.839-5.7q-.485-.35-.992-.674A21.786,21.786,0,0,0,632.661,875.886Zm25.376,7.593c.757.055,1.485.126,2.193.212q.636.077,1.25.172.022-.117.044-.234a44.222,44.222,0,0,0,.751-7.253,21.738,21.738,0,0,0-11.386-7.828c-1.328-.406-2.778-.826-4.326-1.243A57.214,57.214,0,0,1,658.037,883.479Zm-19.98-5.717a22.44,22.44,0,0,1,5.373,5.991,113.216,113.216,0,0,1,13.308-.353,57.023,57.023,0,0,0-12.4-16.672c-1.3-.325-2.656-.642-4.058-.942A67.17,67.17,0,0,1,638.057,877.762Zm-49.6-1.72c3.7.31,6.968,2.6,9.95,6.962a30.875,30.875,0,0,1,8.54-6.191,64.267,64.267,0,0,0-4.125-10.558,36.472,36.472,0,0,0-5.337,2.383A31.183,31.183,0,0,0,588.456,876.042Zm-21.538,5.834a55.224,55.224,0,0,1,6.736.9,29.81,29.81,0,0,1,2.491-15.282,73.959,73.959,0,0,0-8.892,8.84q-.08.724-.137,1.455Q566.954,879.874,566.918,881.876Zm11.2-15.961q-.148.3-.292.611a29.763,29.763,0,0,0-3.082,15.666c3.723-3.677,7.937-5.886,12.106-6.162l.159-.01a32.276,32.276,0,0,1,9.932-8.381,37.417,37.417,0,0,1,5.353-2.4,36.41,36.41,0,0,0-5.93-8.258q-.094-.1-.189-.191a43.85,43.85,0,0,0-11.7,4.843A59.248,59.248,0,0,0,578.113,865.915Zm-14.92,15.828q1.29,0,2.587.065.036-1.925.187-3.927-1.515,1.87-2.948,3.863Zm68.862-7.33a23.019,23.019,0,0,1,4.319,2.161q.356.228.7.467a65.013,65.013,0,0,0,2.088-11.488,99.946,99.946,0,0,0-14.4-1.922A34.013,34.013,0,0,1,632.055,874.413Zm-28.147-8.529a65.5,65.5,0,0,1,4.082,10.449,42.3,42.3,0,0,1,8.543-2.795,38.235,38.235,0,0,1,1.817-5.388,37.457,37.457,0,0,1,2.347-4.639h-.172A54.126,54.126,0,0,0,603.908,865.885ZM644.9,865.7c2.309.582,4.434,1.186,6.32,1.763a23.029,23.029,0,0,1,11.036,7.071c-.212-6.15-2.062-12.633-7.487-17.527s-11.356-6.8-17.16-5.612a15.512,15.512,0,0,1,2.218,5.056,24.476,24.476,0,0,1,.6,5.4q1.629,1.292,3.218,2.7Q644.286,865.119,644.9,865.7ZM577.118,853.5a41.218,41.218,0,0,0-9.592,20.782,72.938,72.938,0,0,1,9.683-9.112,37.008,37.008,0,0,1,10.683-12.723q-.834-.148-1.7-.215A23.438,23.438,0,0,0,577.118,853.5Zm45.958,19.339a25.888,25.888,0,0,1,7.5,1.071,32.206,32.206,0,0,0-7.569-10.36c-.33-.011-.659-.02-.99-.026a36.317,36.317,0,0,0-2.62,5.066,37.233,37.233,0,0,0-1.628,4.711A31.643,31.643,0,0,1,623.076,872.843Zm17.285-8.2q1.138.242,2.233.5-1.076-.949-2.175-1.841Q640.4,863.957,640.361,864.641ZM597.477,856.5a38,38,0,0,1,5.9,8.364,55.887,55.887,0,0,1,18.02-2.477l.077-.119a31.316,31.316,0,0,0-9.82-5.143A27.921,27.921,0,0,0,597.477,856.5Zm26,5.938a99.187,99.187,0,0,1,15.767,1.972q.056-1.03.059-2a82.98,82.98,0,0,0-10.307-6.84A30.39,30.39,0,0,0,623,862.033C623.163,862.167,623.319,862.3,623.474,862.436Zm-34.114-9.652a36.659,36.659,0,0,0-9.962,10.763q2.216-1.575,4.495-2.9a45.61,45.61,0,0,1,11.273-4.781A15.187,15.187,0,0,0,589.36,852.784Zm14.193,1.952a27.48,27.48,0,0,1,8.451,1.3,32.488,32.488,0,0,1,10.113,5.277,31.8,31.8,0,0,1,5.8-6.346,99.343,99.343,0,0,0-12.854-5.858c-4.073-1.519-7.66-2.659-10.854-3.5a48.8,48.8,0,0,0-7.861,2.99,45.965,45.965,0,0,0-5.812,3.351,16.428,16.428,0,0,1,5.975,3.584A32.3,32.3,0,0,1,603.553,854.736Zm26.432.083a84.426,84.426,0,0,1,9.288,6.127,22.045,22.045,0,0,0-.55-4.232,14.309,14.309,0,0,0-2.306-5.036,19.849,19.849,0,0,0-4.787,2.068Q630.8,854.24,629.985,854.819Zm-23.509-9.795c3.072.887,6.068,1.932,8.988,3.02a100.311,100.311,0,0,1,13.431,6.161,24.225,24.225,0,0,1,2.156-1.44,21.407,21.407,0,0,1,4.6-2.058c-3.173-3.7-8.363-6.072-15.034-6.738A43.668,43.668,0,0,0,606.476,845.025Zm-17.393-1.5a51.7,51.7,0,0,0-7.71,5.656q-1.468,1.31-2.795,2.71a23.354,23.354,0,0,1,7.7-.786,17.966,17.966,0,0,1,2.845.444,46.52,46.52,0,0,1,6.734-3.967,49.58,49.58,0,0,1,6.213-2.5A52.175,52.175,0,0,0,589.083,843.521Z" transform="translate(-532.324 -833.773)" fill="#12263f"/>
      </g>
      <g id="Grupo_140665" data-name="Grupo 140665" transform="translate(415.472 433.817)">
        <path id="Trazado_201595" data-name="Trazado 201595" d="M801.448,531.539c3.185-12.377,8.568-23.141,23.141-23.141,12.78,0,24.372,11.258,23.53,25.133-.775,12.757-11.852,23.562-25.413,22.044C810,554.152,797.8,545.711,801.448,531.539Z" transform="translate(-800.793 -508.398)" fill="#ffe98f"/>
        <g id="Grupo_140664" data-name="Grupo 140664" transform="translate(14.099 9.004)" opacity="0.8">
          <path id="Trazado_201596" data-name="Trazado 201596" d="M885.626,581.025a16.708,16.708,0,0,1,.182-2.641,8.18,8.18,0,0,1,.6-2.053,8.265,8.265,0,0,1,1.08-1.764,19.377,19.377,0,0,1,1.625-1.775q.726-.706,1.358-1.337a10.818,10.818,0,0,0,1.112-1.294,5.876,5.876,0,0,0,.759-1.411,4.767,4.767,0,0,0,.278-1.668,4.321,4.321,0,0,0-.994-3.069,3.815,3.815,0,0,0-2.919-1.059,5.3,5.3,0,0,0-1.5.214,3.693,3.693,0,0,0-1.3.684,3.484,3.484,0,0,0-.93,1.2,3.986,3.986,0,0,0-.353,1.753h-5.2a8.465,8.465,0,0,1,.737-3.539,7.315,7.315,0,0,1,1.968-2.566,8.5,8.5,0,0,1,2.93-1.561,13.28,13.28,0,0,1,7.5.032,7.846,7.846,0,0,1,2.865,1.625,6.915,6.915,0,0,1,1.786,2.609,9.409,9.409,0,0,1,.609,3.486,7.552,7.552,0,0,1-.449,2.63,10,10,0,0,1-1.2,2.288,16.347,16.347,0,0,1-1.711,2.053q-.962.984-1.989,1.946a5.306,5.306,0,0,0-1.572,2.342,10.113,10.113,0,0,0-.417,2.876Zm-.364,6.651a3.148,3.148,0,0,1,.192-1.112,2.526,2.526,0,0,1,1.486-1.5,3.767,3.767,0,0,1,2.5,0,2.573,2.573,0,0,1,.919.6,2.7,2.7,0,0,1,.577.9,3,3,0,0,1,.2,1.112,2.708,2.708,0,0,1-.77,1.967,2.9,2.9,0,0,1-2.181.791,2.867,2.867,0,0,1-2.17-.791A2.73,2.73,0,0,1,885.262,587.676Z" transform="translate(-879.424 -558.614)" fill="#fff"/>
        </g>
      </g>
      <g id="Grupo_140666" data-name="Grupo 140666" transform="translate(481.922 417.522)">
        <path id="Trazado_201597" data-name="Trazado 201597" d="M1192.142,450.706l-20.764,5.968,12.726-11.537,1.142,2.972,5.281.217Z" transform="translate(-1171.378 -440.185)" fill="#d56555"/>
        <path id="Trazado_201598" data-name="Trazado 201598" d="M1171.378,441.682l16.365-11.541,17.157-3.272Z" transform="translate(-1171.378 -425.193)" fill="#ff725e"/>
        <path id="Trazado_201599" data-name="Trazado 201599" d="M1184.1,422.473l-12.726,11.537,8.8-16.489Z" transform="translate(-1171.378 -417.522)" fill="#ff725e"/>
      </g>
      <g id="Grupo_140676" data-name="Grupo 140676" transform="translate(499.668 421.272)">
        <path id="Trazado_201600" data-name="Trazado 201600" d="M1271.809,490.222c7.127-27.7,19.174-51.784,51.784-51.784,28.6,0,54.539,25.194,52.654,56.241-1.733,28.547-26.523,52.728-56.869,49.329C1290.956,540.825,1263.649,521.936,1271.809,490.222Z" transform="translate(-1270.343 -438.438)" fill="#ff725e"/>
        <g id="Grupo_140672" data-name="Grupo 140672" transform="translate(31.441 26.835)">
          <path id="Trazado_201601" data-name="Trazado 201601" d="M1489.477,609.855a21.81,21.81,0,0,1-4.966,14.019,18.324,18.324,0,0,0-4.213,11.618v6.121a7.087,7.087,0,0,1-7.065,7.063h-11.3a7.084,7.084,0,0,1-7.063-7.063V635.5a18.251,18.251,0,0,0-4.192-11.6,21.9,21.9,0,0,1,12.136-35.285q.418-.094.842-.169c.151-.028.3-.053.452-.078a21.9,21.9,0,0,1,25.373,21.487Z" transform="translate(-1445.687 -588.092)" fill="#f9ddbf"/>
          <path id="Trazado_201602" data-name="Trazado 201602" d="M1543.075,925.965l-.025.188-.31,2.381-.082.627v.005l-.083.631-.309,2.38-.082.627v.005l-.082.632-.046.349c-.157,1.207-1.538,2.13-3.189,2.13h-3.72a4.24,4.24,0,0,1-1.119-.148h0a3.61,3.61,0,0,1-.866-.36l-.02-.012a2.867,2.867,0,0,1-.563-.429,2.039,2.039,0,0,1-.616-1.159l-.132-.923-.084-.581h0V932.3h0l-.082-.569-.316-2.207-.083-.579,0-.013-.082-.572-.342-2.39Z" transform="translate(-1515.569 -865.38)" fill="#ed7d2b"/>
          <g id="Grupo_140667" data-name="Grupo 140667" transform="translate(15.611 60.585)">
            <path id="Trazado_201603" data-name="Trazado 201603" d="M1543.166,925.965h-2.1c-3.393.981-6.758,1.951-8.317,2.39l.082.572,0,.013.083.579c1.263-.35,4.294-1.218,11.7-3.366l.024-.188Z" transform="translate(-1532.746 -925.965)" fill="#f99746"/>
            <path id="Trazado_201604" data-name="Trazado 201604" d="M1535.52,944.053h0v.013h0l.084.581c1.46-.41,4.473-1.274,10.747-3.093l.083-.632v-.005l.082-.627c-3.964,1.148-8.763,2.534-11.078,3.192Z" transform="translate(-1534.955 -937.723)" fill="#f99746"/>
            <path id="Trazado_201605" data-name="Trazado 201605" d="M1541.1,963.836l.02.012a3.616,3.616,0,0,0,.866.36h0c1.721-.493,4.275-1.231,8.074-2.331l.082-.632v-.005l.082-.627c-3.393.982-7.285,2.107-9.689,2.794A2.87,2.87,0,0,0,1541.1,963.836Z" transform="translate(-1539.143 -954.399)" fill="#f99746"/>
          </g>
          <g id="Grupo_140671" data-name="Grupo 140671" transform="translate(12.736 32.024)">
            <g id="Grupo_140668" data-name="Grupo 140668" transform="translate(0 0.466)">
              <rect id="Rectángulo_42585" data-name="Rectángulo 42585" width="0.99" height="28.411" transform="translate(0 0.165) rotate(-9.615)" fill="#ed7d2b"/>
            </g>
            <g id="Grupo_140669" data-name="Grupo 140669" transform="translate(12.158 0.902)">
              <rect id="Rectángulo_42586" data-name="Rectángulo 42586" width="28.028" height="0.99" transform="matrix(0.18, -0.984, 0.984, 0.18, 0, 27.571)" fill="#ed7d2b"/>
            </g>
            <g id="Grupo_140670" data-name="Grupo 140670" transform="translate(0.48)">
              <path id="Trazado_201606" data-name="Trazado 201606" d="M1530.684,772.316a1.924,1.924,0,0,1-.428-.052.614.614,0,0,1-.486-.531,4.6,4.6,0,0,1,1.054-2.716,2.667,2.667,0,0,0-1.328-1.286c-.735-.223-1.863.456-2.649,1.323a5.893,5.893,0,0,1,.386.629c.4.76.692,1.732.3,2.181-.147.167-.446.318-1.04.094a1.234,1.234,0,0,1-.731-1.724,3.958,3.958,0,0,1,.7-1.2,2.684,2.684,0,0,0-2.222-1.3,2.455,2.455,0,0,0-1.1.415,3.317,3.317,0,0,1,.275,2.813.893.893,0,0,1-1.191.4c-.378-.135-.575-.655-.5-1.325a3.063,3.063,0,0,1,1.028-1.96,2.55,2.55,0,0,0-.57-.639,1.887,1.887,0,0,0-2.57.128l-.215-.209a2.218,2.218,0,0,1,2.969-.156,2.825,2.825,0,0,1,.624.693,2.754,2.754,0,0,1,1.216-.453,2.944,2.944,0,0,1,2.46,1.364c.855-.929,2.073-1.615,2.922-1.359a2.862,2.862,0,0,1,1.43,1.318,5.145,5.145,0,0,1,1.152-1.133c.626-.414,1.033-.319,1.264-.167a2.262,2.262,0,0,1,.607.608,3.381,3.381,0,0,1,.582-.375,1.643,1.643,0,0,1,1.874.075l-.194.229a1.408,1.408,0,0,0-1.547-.035,3.133,3.133,0,0,0-.557.361,3.169,3.169,0,0,1,.3,2.553.634.634,0,0,1-.848.333,1.126,1.126,0,0,1-.833-1.027,2.7,2.7,0,0,1,.992-1.914,1.955,1.955,0,0,0-.54-.556c-.283-.186-.664-.012-.934.166a5.06,5.06,0,0,0-1.159,1.164,3.9,3.9,0,0,1,.512,2.495A.969.969,0,0,1,1530.684,772.316Zm.3-3.005a4.122,4.122,0,0,0-.915,2.368.322.322,0,0,0,.257.292c.587.133.948-.038,1.073-.51A3.5,3.5,0,0,0,1530.981,769.31Zm-4.334-.022a3.558,3.558,0,0,0-.605,1.041.934.934,0,0,0,.554,1.348c.239.09.557.162.709-.011.236-.267.1-1.025-.336-1.843A5.751,5.751,0,0,0,1526.647,769.289Zm-3.747-.95a2.76,2.76,0,0,0-.883,1.728c-.056.511.07.927.305,1.01a.606.606,0,0,0,.828-.257A3,3,0,0,0,1522.9,768.339Zm11.06.191a2.4,2.4,0,0,0-.847,1.635.844.844,0,0,0,.637.762.339.339,0,0,0,.477-.186A2.871,2.871,0,0,0,1533.96,768.53Z" transform="translate(-1519.392 -766.685)" fill="#ed7d2b"/>
            </g>
          </g>
          <path id="Trazado_201607" data-name="Trazado 201607" d="M1598.43,624.955c1.8,1.7,1.574,4.816-.741,5.51a5.1,5.1,0,0,1-5.635-2.4c-1.286-2.228-.693-4.059.885-4.97S1596.557,623.191,1598.43,624.955Z" transform="translate(-1565.233 -616.536)" fill="#fff0e3"/>
        </g>
        <g id="Grupo_140675" data-name="Grupo 140675" transform="translate(12.43 11.483)">
          <rect id="Rectángulo_42587" data-name="Rectángulo 42587" width="1.603" height="10.021" rx="0.801" transform="translate(39.52 1.214)" fill="#fff0e3"/>
          <g id="Grupo_140673" data-name="Grupo 140673" transform="translate(53.976)">
            <rect id="Rectángulo_42588" data-name="Rectángulo 42588" width="1.603" height="6.257" rx="0.801" transform="matrix(0.5, 0.866, -0.866, 0.5, 17.508, 17.344)" fill="#fff0e3"/>
            <path id="Trazado_201608" data-name="Trazado 201608" d="M1726.773,684.7h0a.8.8,0,0,1,.8-.8h10.7a.8.8,0,0,1,.8.8h0a.8.8,0,0,1-.8.8h-10.7A.8.8,0,0,1,1726.773,684.7Z" transform="translate(-1711.335 -651.363)" fill="#fff0e3"/>
            <path id="Trazado_201609" data-name="Trazado 201609" d="M1641.165,517.326h0a.8.8,0,0,1-.423-1.052l5.679-13.313a.8.8,0,0,1,1.052-.423h0a.8.8,0,0,1,.423,1.052l-5.679,13.313A.8.8,0,0,1,1641.165,517.326Z" transform="translate(-1640.678 -502.475)" fill="#fff0e3"/>
          </g>
          <g id="Grupo_140674" data-name="Grupo 140674">
            <path id="Trazado_201610" data-name="Trazado 201610" d="M1399.158,604.275l.115-.2a.688.688,0,0,0-.251-.937l-4.23-2.442a.688.688,0,0,0-.937.251l-.115.2a.688.688,0,0,0,.251.937l4.23,2.443A.688.688,0,0,0,1399.158,604.275Z" transform="translate(-1383.967 -583.008)" fill="#fff0e3"/>
            <path id="Trazado_201611" data-name="Trazado 201611" d="M1351.962,684.7h0a.8.8,0,0,0-.8-.8h-10.7a.8.8,0,0,0-.8.8h0a.8.8,0,0,0,.8.8h10.7A.8.8,0,0,0,1351.962,684.7Z" transform="translate(-1339.661 -651.363)" fill="#fff0e3"/>
            <path id="Trazado_201612" data-name="Trazado 201612" d="M1460.545,517.326h0a.8.8,0,0,0,.423-1.052l-5.678-13.313a.8.8,0,0,0-1.052-.423h0a.8.8,0,0,0-.423,1.052l5.679,13.313A.8.8,0,0,0,1460.545,517.326Z" transform="translate(-1433.293 -502.475)" fill="#fff0e3"/>
          </g>
        </g>
      </g>
      <g id="Grupo_140677" data-name="Grupo 140677" transform="translate(504.867 507.273)">
        <path id="Trazado_201613" data-name="Trazado 201613" d="M1412.959,921.79c.011-.3.245-3.567,5.217-3.737,0,0-2.445.292-2.867,1.366,0,0,1.664-1.328,3.02-.9s2.152,2.8,2.16,3.584-.745,3.3-1.605,3.514a2.626,2.626,0,0,1-1.042,0,11.739,11.739,0,0,1,.668,1.192c1.984,4.072-.062,8.052-1.741,7.613-1.077-.282-1.382,1.556-1.382,1.556l-10.465-8.472S1408.765,919.552,1412.959,921.79Z" transform="translate(-1385.989 -918.053)" fill="#2c3a64"/>
        <path id="Trazado_201614" data-name="Trazado 201614" d="M1429.428,1291.848l2.223.828s9.655-13.39,10.843-25.172a17.887,17.887,0,0,0-.318-6.023s.094-.539.26-1.492c.076-.445.171-.98.277-1.594.314-1.8.746-4.259,1.24-7.061,1.136-6.448,2.608-14.691,3.751-20.75l-.6-.193-6.48-2.09-1.339-4.254-4.825-1.27s-1.078,2.109-2.042,12.07c-.178,1.307-.339,2.747-.461,4.31a85.329,85.329,0,0,0,.459,17.449q.332,2.6.847,5.355a23.879,23.879,0,0,1,.185,5.288C1432.963,1276.88,1429.428,1291.848,1429.428,1291.848Z" transform="translate(-1406.101 -1168.136)" fill="#455a64"/>
        <path id="Trazado_201615" data-name="Trazado 201615" d="M1443.536,1229.068l10.478,20.832c.076-.445.171-.98.278-1.593.314-1.8.746-4.259,1.24-7.062,1.136-6.448,2.608-14.69,3.751-20.75l-.6-.192-6.48-2.091-1.339-4.254-6.266-3.475s0,.97-.546,11.568C1443.874,1223.358,1443.658,1227.505,1443.536,1229.068Z" transform="translate(-1417.679 -1158.047)" fill="#2b3940"/>
        <path id="Trazado_201616" data-name="Trazado 201616" d="M1469.244,1210l.243-2.08c4.064,1.079,15.393-3.969,15.393-3.969s3.466,4.413,2.949,12.708c-.252,4.049-.713,21.255-1.194,26.346-.174,1.845-.326,3.158-.389,3.683a.01.01,0,0,0,0,.005.728.728,0,0,0,.118.451,23.905,23.905,0,0,1,1.777,3.736c4.724,12.589-.728,28.093-.728,28.093L1486,1278.4s-3.1-17.253-5.624-24.876a15.076,15.076,0,0,0-1.214-2.916,32.942,32.942,0,0,1-3.036-8.1,199.176,199.176,0,0,1-4.084-21.481A63.945,63.945,0,0,0,1469.244,1210Z" transform="translate(-1438.777 -1152.687)" fill="#455a64"/>
        <path id="Trazado_201617" data-name="Trazado 201617" d="M1306.982,1093.393l-.316,2.391s1.44-.192,1.676-.209c.74-.05,2.93-.193,4.966-.411,3.062-.3,5.28-.373,6.727-1.265,2.2-1.346,5.82-5.467,8.175-9.588a2.656,2.656,0,0,0,.168-.3,14.8,14.8,0,0,0,2.153-6.089,8.679,8.679,0,0,0-.286-2.759,7.04,7.04,0,0,0-1.245-2.49,1.257,1.257,0,0,0-.236-.286,5.819,5.819,0,0,0-1.6-1.363c-.4-.168-1.745,1.458-2.2,1.946l-.38,1.127c-.37.387-4.434,13.451-6.267,15.486-.791.875-4.474,2.249-7.829,3.179A15.908,15.908,0,0,1,1306.982,1093.393Z" transform="translate(-1305.352 -1043.583)" fill="#d27c82"/>
        <path id="Trazado_201618" data-name="Trazado 201618" d="M1425.947,1027.747a12.658,12.658,0,0,0,4.68,1.1c6.987.383,8.573-5.742,8.861-9.807a5.858,5.858,0,0,0-2.4-.3c-.406.022-.825.06-1.2.1a.672.672,0,0,1-.493-.138c-.88-.691-2.22-2.782-3.026-6.076l-.3.14-5.041,2.37s.535,1.64.931,3.21a16.443,16.443,0,0,1,.378,1.865,1.105,1.105,0,0,1-.668,1.146h0a.017.017,0,0,1,0,.006A34.594,34.594,0,0,0,1425.947,1027.747Z" transform="translate(-1403.244 -995.664)" fill="#ffb27d"/>
        <path id="Trazado_201619" data-name="Trazado 201619" d="M1440.124,1076.567c-.057,2.585-18.255,4.875-21.387,3.141,0,0-.812-3.917-1.846-8.32-.311-1.325-.644-2.691-.978-4.01a52.611,52.611,0,0,0-2.22-7.267c-.064-.141-.121-.275-.174-.416-1.4-3.7,1.217-7.65-.586-8.819a14.085,14.085,0,0,1,4.059-2.16.015.015,0,0,1,0,.006c-.047.174-.313,2.629.2,3.589,1.012,1.9,4.965.905,6.768-1.437a12.764,12.764,0,0,0,2.247-4.052l.207-.725s3.335-.452,5.208.307a14.389,14.389,0,0,0-1.011,3.38c-.027.169-.047.338-.065.507a6.619,6.619,0,0,0-.027,1.063,2.04,2.04,0,0,0,.643,1.27,9.977,9.977,0,0,0,1.344,1.114c.347.25.719.512,1.1.8a90.525,90.525,0,0,0,.273,9.184,6.186,6.186,0,0,0,.892,2.606,6.379,6.379,0,0,0,.66.89C1437.4,1069.423,1440.19,1076.265,1440.124,1076.567Z" transform="translate(-1392.563 -1023.028)" fill="#ff725e"/>
        <path id="Trazado_201620" data-name="Trazado 201620" d="M1432,1015.777s.536,1.639.931,3.21c2.947-.822,3.842-3.92,4.111-5.58Z" transform="translate(-1408.21 -996.309)" fill="#ed985f"/>
        <path id="Trazado_201621" data-name="Trazado 201621" d="M1408.021,977.617s7.05-1.632,5.966-6.006-.9-7.532-5.451-6.675-5.005,2.742-5,4.29S1406.159,977.929,1408.021,977.617Z" transform="translate(-1384.853 -956.414)" fill="#ffb27d"/>
        <path id="Trazado_201622" data-name="Trazado 201622" d="M1399.892,963.093c.758-1.586,1.65-1.5,2.208-1.22a5.057,5.057,0,0,1,6.562-.561,8.611,8.611,0,0,0,3.961,4.256s-1.083,1.109-4.222,1.084a5.169,5.169,0,0,1-2.8-1.054,16.88,16.88,0,0,0,3.676,2.742c-3.929-.752-6.564-5.3-6.834-5.784a5.668,5.668,0,0,0-1.023,2.422c-.073,1.2.341,3.533-.347,3.621C1401.072,968.6,1398.755,965.471,1399.892,963.093Z" transform="translate(-1381.603 -952.764)" fill="#2c3a64"/>
        <path id="Trazado_201623" data-name="Trazado 201623" d="M1404.829,1073.352s-.626.359-1.77,3.856c0,0,1.31,1.628,2.908,1.476C1405.967,1078.684,1406.18,1073.751,1404.829,1073.352Z" transform="translate(-1384.46 -1045.505)" fill="#ff725e"/>
        <path id="Trazado_201624" data-name="Trazado 201624" d="M1524.691,1599.906h11.2a6.146,6.146,0,0,0-.316-3c-.56-1.242-1.438-1.807-1.228-3.31a4.031,4.031,0,0,1-3.489,1.335,12.276,12.276,0,0,1-1.943,2.518C1528.179,1597.974,1524.917,1597.786,1524.691,1599.906Z" transform="translate(-1484.282 -1472.462)" fill="#2358a5"/>
        <path id="Trazado_201625" data-name="Trazado 201625" d="M1390.633,1602.2h11.2a4.653,4.653,0,0,0-.317-3,2.158,2.158,0,0,1,.081-2.577,4.348,4.348,0,0,1-1.885.355,3.95,3.95,0,0,1-1.665-.586,40.274,40.274,0,0,1-3.19,3.351C1394.121,1600.273,1390.858,1600.085,1390.633,1602.2Z" transform="translate(-1374.262 -1474.76)" fill="#2358a5"/>
        <path id="Trazado_201626" data-name="Trazado 201626" d="M1305.595,1136.7a6.869,6.869,0,0,0-1.6-1.6c-.614-.277-1.194-1.986-1.534-1.464-.207.318.316,1.5.183,1.768s-1.488-.3-1.725-.677c-.159-.254-1.555-1.939-1.587-1.162s1.187,3.756,1.788,4.136a15.92,15.92,0,0,0,2.875.891Z" transform="translate(-1299.336 -1094.756)" fill="#ffb27d"/>
        <path id="Trazado_201627" data-name="Trazado 201627" d="M1442.98,1111.491c-2.531,6.193-12.275,13.864-12.275,13.864l-.169-.19c-.311-1.325-.644-2.691-.978-4.01l10.379-9.664Z" transform="translate(-1406.208 -1076.805)" fill="#ff725e"/>
        <path id="Trazado_201628" data-name="Trazado 201628" d="M1325.66,1068.8l-.317,1.766s5.569,1.273,6.8,1.542l.015.007c2.121.421,4.513.856,6.6,1.074a17.69,17.69,0,0,0,3.757.045,2.1,2.1,0,0,0,.284-.055c2.385-.476,6.268-3.318,9.8-6.653.49-.46.964-.927,1.431-1.378a46.032,46.032,0,0,0,4.415-5,18.056,18.056,0,0,0,1.686-2.576,7.5,7.5,0,0,0,.374-.772c2.009-4.445.09-6.069.09-6.069-.039-.036-.077-.073-.132-.116-.354-.237-.871-.16-1.516.154a15.281,15.281,0,0,0-2.964,2.135c-1.778,1.57-12.446,14.557-14.935,15.051C1338.887,1068.379,1325.66,1068.8,1325.66,1068.8Z" transform="translate(-1320.68 -1026.726)" fill="#ffb27d"/>
        <path id="Trazado_201629" data-name="Trazado 201629" d="M1480.219,1047.877a3.387,3.387,0,0,1,2.364,2.887c.19,2.277-.106,9.325-.106,9.325s-7.106-2.037-10-6.383C1472.477,1053.706,1477.7,1047.933,1480.219,1047.877Z" transform="translate(-1441.431 -1024.598)" fill="#ff725e"/>
      </g>
    </g>
  </g>
</svg>
