<svg id="tasa-de-interes-fija" xmlns="http://www.w3.org/2000/svg" width="118.777" height="118.777" viewBox="0 0 118.777 118.777">
  <g id="Grupo_142977" data-name="Grupo 142977" transform="translate(1.916 1.916)">
    <g id="Grupo_142969" data-name="Grupo 142969" transform="translate(7.663 7.663)">
      <path id="Trazado_203337" data-name="Trazado 203337" d="M59.641,6l-.862,7.7v.019l-1.054,9.521L56.174,21.69l-3.238-3.238L34.085,37.3a5.108,5.108,0,0,0-2.471-.651H26.365a5.063,5.063,0,0,0-5.019,4.521,24.271,24.271,0,0,0-10.862,5.709l-.019-.019L6,42.4,25.158,23.242,30.9,28.989,47.189,12.705,42.4,7.916Z" transform="translate(-6 -6)" fill="#b4dd7f"/>
    </g>
    <g id="Grupo_142970" data-name="Grupo 142970" transform="translate(95.788 95.788)">
      <path id="Trazado_203338" data-name="Trazado 203338" d="M58.533,53.13a3.832,3.832,0,0,1-2.7,6.533A3.843,3.843,0,0,1,52,55.832a3.82,3.82,0,0,1,6.533-2.7Z" transform="translate(-52 -52)" fill="#ecc19c"/>
    </g>
    <g id="Grupo_142971" data-name="Grupo 142971" transform="translate(0 42.837)">
      <path id="Trazado_203339" data-name="Trazado 203339" d="M54.952,42.828a23.316,23.316,0,0,1,.671,4.655,24.9,24.9,0,0,1-24.886,26h-3.3A18.522,18.522,0,0,1,9.663,60.07H5.832A3.843,3.843,0,0,1,2,56.238V48.575a3.843,3.843,0,0,1,3.832-3.832h.326a24.579,24.579,0,0,1,7.989-14.675A24.271,24.271,0,0,1,25.008,24.36a5.468,5.468,0,0,0,.172,1.9l2.586,9.081A5.063,5.063,0,0,0,32.614,39h.077a5.063,5.063,0,0,0,4.847-3.659l2.586-9.081c.057-.211.115-.441.153-.651A25.274,25.274,0,0,1,54.952,42.828Z" transform="translate(-2 -24.36)" fill="#f0d0b4"/>
    </g>
    <g id="Grupo_142972" data-name="Grupo 142972" transform="translate(26.821 61.305)">
      <path id="Trazado_203340" data-name="Trazado 203340" d="M42.131,34H61.25c.709,0,1.4.038,2.069.1l9.1,13.64a3.568,3.568,0,0,0,5.939,0l2.452-3.678h.019A22.327,22.327,0,0,1,84.968,56.74v3.6A20.247,20.247,0,0,1,69.641,79.978V83.81a3.843,3.843,0,0,1-3.832,3.832H61.978a3.843,3.843,0,0,1-3.832-3.832V79.978H38.989V83.81a3.843,3.843,0,0,1-3.832,3.832H31.326a3.843,3.843,0,0,1-3.832-3.832V79.48A15.315,15.315,0,0,1,16,64.652h1.916a24.9,24.9,0,0,0,24.886-26A23.315,23.315,0,0,0,42.131,34Z" transform="translate(-16 -34)" fill="#f0d0b4"/>
    </g>
    <g id="Grupo_142973" data-name="Grupo 142973" transform="translate(22.989 38.315)">
      <path id="Trazado_203341" data-name="Trazado 203341" d="M29.288,27.766c-.038.211-.1.441-.153.651L26.548,37.5A5.063,5.063,0,0,1,21.7,41.158h-.077A5.063,5.063,0,0,1,16.778,37.5l-2.586-9.081a5.468,5.468,0,0,1-.172-1.9A5.063,5.063,0,0,1,19.038,22h5.249a5.036,5.036,0,0,1,5.038,5.038c0,.249-.019.479-.038.728Z" transform="translate(-14 -22)" fill="#dfb28b"/>
    </g>
    <g id="Grupo_142974" data-name="Grupo 142974" transform="translate(13.41 57.473)">
      <circle id="Elipse_6830" data-name="Elipse 6830" cx="3.832" cy="3.832" r="3.832" fill="#656d78"/>
    </g>
    <g id="Grupo_142975" data-name="Grupo 142975" transform="translate(57.473)">
      <path id="Trazado_203342" data-name="Trazado 203342" d="M89.473,29.932a27.868,27.868,0,0,1-4.694,15.5L66.158,73.362l-2.452,3.678a3.568,3.568,0,0,1-5.939,0l-9.1-13.64L36.694,45.43A27.868,27.868,0,0,1,32,29.932a30.131,30.131,0,0,1,.364-4.579L33.916,26.9l1.054-9.521v-.019A28,28,0,0,1,59.932,2h1.609A27.929,27.929,0,0,1,89.473,29.932Z" transform="translate(-32 -2)" fill="#ff826e"/>
    </g>
    <g id="Grupo_142976" data-name="Grupo 142976" transform="translate(65.136 7.663)">
      <circle id="Elipse_6831" data-name="Elipse 6831" cx="21.073" cy="21.073" r="21.073" fill="#ffeaa7"/>
    </g>
  </g>
  <g id="Grupo_142978" data-name="Grupo 142978">
    <path id="Trazado_203343" data-name="Trazado 203343" d="M57.989,5A22.989,22.989,0,1,0,80.978,27.989,23.015,23.015,0,0,0,57.989,5Zm0,42.147A19.158,19.158,0,1,1,77.147,27.989,19.179,19.179,0,0,1,57.989,47.147Z" transform="translate(30.136 2.663)"/>
    <path id="Trazado_203344" data-name="Trazado 203344" d="M0,0H32.512V3.832H0Z" transform="translate(75.265 40.796) rotate(-45)"/>
    <path id="Trazado_203345" data-name="Trazado 203345" d="M52.747,18a5.747,5.747,0,1,0,5.747,5.747A5.754,5.754,0,0,0,52.747,18Zm0,7.663a1.916,1.916,0,1,1,1.916-1.916A1.918,1.918,0,0,1,52.747,25.663Z" transform="translate(41.125 14.568)"/>
    <path id="Trazado_203346" data-name="Trazado 203346" d="M45.747,22.495A5.747,5.747,0,1,0,40,16.747,5.754,5.754,0,0,0,45.747,22.495Zm0-7.663a1.916,1.916,0,1,1-1.916,1.916A1.918,1.918,0,0,1,45.747,14.832Z" transform="translate(34.715 8.158)"/>
    <path id="Trazado_203347" data-name="Trazado 203347" d="M13.747,31a5.747,5.747,0,1,0,5.747,5.747A5.754,5.754,0,0,0,13.747,31Zm0,7.663a1.916,1.916,0,1,1,1.916-1.916A1.916,1.916,0,0,1,13.747,38.663Z" transform="translate(5.41 26.473)"/>
    <path id="Trazado_203348" data-name="Trazado 203348" d="M50.1,48.444a10.624,10.624,0,0,1-6.494,9.811L45.1,61.784a14.45,14.45,0,0,0,8.834-13.339V47H50.1Z" transform="translate(38.021 41.125)"/>
    <path id="Trazado_203349" data-name="Trazado 203349" d="M41.579,46.663a1.916,1.916,0,0,1,1.916,1.916h3.832a5.754,5.754,0,0,0-5.747-5.747V39H37.747v3.832H32v5.747a5.754,5.754,0,0,0,5.747,5.747h3.832a1.916,1.916,0,0,1,1.916,1.916v1.916H37.747a1.916,1.916,0,0,1-1.916-1.916H32a5.754,5.754,0,0,0,5.747,5.747v3.832h3.832V61.989h5.747V56.242a5.754,5.754,0,0,0-5.747-5.747H37.747a1.916,1.916,0,0,1-1.916-1.916V46.663Z" transform="translate(27.389 33.799)"/>
    <path id="Trazado_203350" data-name="Trazado 203350" d="M119.777,30.855A29.889,29.889,0,0,0,89.922,1H88.328a29.7,29.7,0,0,0-22.217,9.9l.278-2.494L42.8,11.031l6.255,6.253L35.484,30.859l-5.747-5.747L7.87,46.978,12.3,51.4A26.68,26.68,0,0,0,5.45,64.37,5.753,5.753,0,0,0,1,69.968v7.663a5.754,5.754,0,0,0,5.747,5.747H9.188a20.5,20.5,0,0,0,18.75,13.393,17.221,17.221,0,0,0,11.378,14.343v2.916a5.754,5.754,0,0,0,5.747,5.747h3.832a5.754,5.754,0,0,0,5.747-5.747v-1.916H69.968v1.916a5.754,5.754,0,0,0,5.747,5.747h3.832a5.754,5.754,0,0,0,5.747-5.747v-2.387a22.086,22.086,0,0,0,11.495-8.636V110.2a5.754,5.754,0,0,0,5.747,5.747h9.579v-3.832h-9.579a1.916,1.916,0,0,1-1.916-1.916v-2.243a5.747,5.747,0,1,0,0-10.839V89.125h0V86.941a24.079,24.079,0,0,0-3.764-12.659l17.91-26.865a29.775,29.775,0,0,0,5.014-16.562ZM102.536,100.62a1.916,1.916,0,1,1-1.916,1.916A1.916,1.916,0,0,1,102.536,100.62ZM43.1,45.775a6.88,6.88,0,0,0-1.63-3.985L57.515,25.74l1.234,1.234a30.168,30.168,0,0,0-.276,3.881,29.779,29.779,0,0,0,5.014,16.562L73.412,62.3H57.324A27.112,27.112,0,0,0,43.1,45.775Zm-3.782.5a3.106,3.106,0,0,1-.121.858L36.6,56.2a3.161,3.161,0,0,1-6.065,0L27.941,47.13a3.086,3.086,0,0,1-.121-.858,3.129,3.129,0,0,1,3.127-3.125h5.242A3.129,3.129,0,0,1,39.315,46.271ZM29.736,30.53l5.747,5.747L54.477,17.284l-3.324-3.326,10.9-1.211-1.211,10.9-3.326-3.326L38.193,39.645a6.87,6.87,0,0,0-2-.33H30.947a6.945,6.945,0,0,0-6.606,4.878,26.8,26.8,0,0,0-9.2,4.636l-1.853-1.851ZM12.422,80.937l-.4-1.391H6.747a1.916,1.916,0,0,1-1.916-1.916V69.968a1.916,1.916,0,0,1,1.916-1.916H8.715l.251-1.623a23.155,23.155,0,0,1,15.3-18.2l2.581,9.029a7,7,0,0,0,13.437,0l2.149-7.525A23.1,23.1,0,0,1,54.62,68.954a22.993,22.993,0,0,1-22.968,24h-3.3a16.643,16.643,0,0,1-15.935-12.02Zm84.365,6.025V90.57A18.288,18.288,0,0,1,82.914,108.34l-1.452.364v5.326a1.916,1.916,0,0,1-1.916,1.916H75.715A1.916,1.916,0,0,1,73.8,114.03v-5.747H50.81v5.747a1.916,1.916,0,0,1-1.916,1.916H45.063a1.916,1.916,0,0,1-1.916-1.916v-5.816l-1.437-.372a13.38,13.38,0,0,1-9.9-11.062A26.809,26.809,0,0,0,58.448,68.791a26.014,26.014,0,0,0-.266-2.655H74.995c.339,0,.671.031,1.008.05l8.554,12.83a5.494,5.494,0,0,0,9.142,0l.789-1.184a20.2,20.2,0,0,1,2.3,9.131ZM90.51,76.889a1.725,1.725,0,0,1-2.768,0l-21.068-31.6A25.964,25.964,0,0,1,62.3,30.855c0-.105.011-.209.013-.312l1.45,1.45,1.456-13.106a25.9,25.9,0,0,1,23.1-14.056h1.594a26.025,26.025,0,0,1,21.654,40.459Z" transform="translate(-1 -1)"/>
    <path id="Trazado_203351" data-name="Trazado 203351" d="M27.442,43.825h3.832a19.183,19.183,0,0,0-6.385-14.278L22.333,32.4A15.348,15.348,0,0,1,27.442,43.825Z" transform="translate(18.536 25.142)"/>
  </g>
</svg>
