<svg xmlns="http://www.w3.org/2000/svg" width="84.354" height="102.204" viewBox="0 0 84.354 102.204">
  <g id="Grupo_143003" data-name="Grupo 143003" transform="translate(-536 14779)">
    <path id="Trazado_203537" data-name="Trazado 203537" d="M79.9,71.551a18.6,18.6,0,0,0-9.389-5.895V10.034A10.047,10.047,0,0,0,60.472,0H22.654a9.141,9.141,0,0,0-4.088.968l-.019.008-.02.011c-.077.039-.154.081-.23.122-.058.032-.118.063-.175.1s-.136.08-.2.121-.132.08-.2.121l-.177.117c-.071.048-.142.1-.211.147-.053.037-.105.076-.157.114-.074.055-.147.112-.218.169-.048.038-.1.076-.142.115-.073.061-.146.124-.218.187-.044.039-.088.077-.132.117-.073.066-.143.136-.214.2-.041.04-.082.079-.122.119-.084.086-.166.174-.247.264l-.066.071-6,6.753L2.311,18.265c-.09.1-.177.2-.263.31l-.076.1c-.055.071-.112.141-.165.214-.043.057-.083.115-.125.173l-.1.142c-.051.075-.1.15-.147.226l-.059.093c-.056.09-.109.181-.162.273l-.028.049q-.089.157-.172.318a.013.013,0,0,0,0,.005A9.13,9.13,0,0,0,0,24.34V86.385A10.048,10.048,0,0,0,10.037,96.422H52.309A18.579,18.579,0,0,0,79.9,71.551ZM17.448,7.245V18.427a1.2,1.2,0,0,1-1.2,1.2H6.442l6.015-6.767ZM10.036,92.43a6.051,6.051,0,0,1-6.044-6.044V24.341a5.055,5.055,0,0,1,.056-.722h12.2a5.2,5.2,0,0,0,5.192-5.192V4.139a5.138,5.138,0,0,1,1.214-.147H60.471a6.05,6.05,0,0,1,6.045,6.042V65.057c-.247-.009-.5-.015-.742-.015A18.6,18.6,0,0,0,47.193,83.623c0,.247.007.494.017.74,0,.067.005.133.009.2q.015.313.041.625c0,.041.006.083.01.123q.033.364.081.724c.008.062.017.123.026.185.027.194.058.387.091.58.01.058.019.116.03.175.044.237.091.472.143.706.012.051.024.1.036.152q.068.288.143.572c.017.065.034.131.052.2.065.232.132.462.205.69.009.026.018.051.026.076.067.206.139.411.213.614.024.066.049.133.074.2q.11.291.229.579c.014.034.027.069.042.1q.139.329.292.652c.03.062.06.125.09.187q.124.256.255.509c.028.053.055.106.083.159.011.019.02.04.03.058Zm55.738,5.781A14.588,14.588,0,1,1,80.362,83.623,14.571,14.571,0,0,1,65.774,98.211Zm0,0" transform="translate(536 -14778.999)" fill="#f67409"/>
    <path id="Trazado_203538" data-name="Trazado 203538" d="M92.832,157.2h31.647a2,2,0,0,0,0-3.992H92.832a2,2,0,0,0,0,3.992Zm0,0" transform="translate(463.296 -14901.621)" fill="#f67409"/>
    <path id="Trazado_203539" data-name="Trazado 203539" d="M253.034,227.643a2,2,0,0,0-.247-.3,2.018,2.018,0,0,0-.649-.431,1.989,1.989,0,0,0-1.154-.114,1.981,1.981,0,0,0-.373.114,2.041,2.041,0,0,0-.345.184,1.926,1.926,0,0,0-.3.247,2.006,2.006,0,0,0-.248.3,2.122,2.122,0,0,0-.183.345,2,2,0,0,0-.114.373,2.012,2.012,0,0,0,0,.781,1.979,1.979,0,0,0,.114.373,2.093,2.093,0,0,0,.183.345,2.044,2.044,0,0,0,.248.3,2.008,2.008,0,0,0,1.411.586,1.943,1.943,0,0,0,.391-.041,2,2,0,0,0,.374-.114,2.126,2.126,0,0,0,.345-.183,2.25,2.25,0,0,0,.3-.248,2.143,2.143,0,0,0,.247-.3,2.039,2.039,0,0,0,.184-.345,1.979,1.979,0,0,0,.114-.373,1.988,1.988,0,0,0-.114-1.154A2.067,2.067,0,0,0,253.034,227.643Zm0,0" transform="translate(336.401 -14960.491)" fill="#f67409"/>
    <path id="Trazado_203540" data-name="Trazado 203540" d="M92.832,230.746h23.662a2,2,0,1,0,0-3.992H92.832a2,2,0,1,0,0,3.992Zm0,0" transform="translate(463.296 -14960.49)" fill="#f67409"/>
    <path id="Trazado_203541" data-name="Trazado 203541" d="M92.832,304.3h31.647a2,2,0,0,0,0-3.992H92.832a2,2,0,1,0,0,3.992Zm0,0" transform="translate(463.296 -15019.361)" fill="#f67409"/>
    <path id="Trazado_203542" data-name="Trazado 203542" d="M115.654,373.859H92.832a2,2,0,1,0,0,3.992h22.822a2,2,0,1,0,0-3.992Zm0,0" transform="translate(463.296 -15078.23)" fill="#f67409"/>
    <path id="Trazado_203543" data-name="Trazado 203543" d="M293.025,374.487c-3.613,3.84-6.377,9.7-7.729,12.925l-6.172-3.956a2,2,0,1,0-2.154,3.361l8.216,5.267a2,2,0,0,0,2.958-1.01c.032-.09,3.259-9.037,7.79-13.851a2,2,0,1,0-2.908-2.736Zm0,0" transform="translate(315.053 -15078.23)" fill="#f67409"/>
  </g>
</svg>
