<svg xmlns="http://www.w3.org/2000/svg" width="93.216" height="93.211" viewBox="0 0 93.216 93.211">
  <g id="licencias" transform="translate(0.01 -0.008)">
    <path id="Trazado_202848" data-name="Trazado 202848" d="M112.175,8.008h0ZM64.016,91.9" transform="translate(-51.593 -6.447)" fill="#f67409"/>
    <path id="Trazado_202852" data-name="Trazado 202852" d="M216.016,360.008h6.214v3.107h-6.214Zm0,0" transform="translate(-174.076 -290.092)" fill="#f67409"/>
    <g id="Grupo_142813" data-name="Grupo 142813" transform="translate(20.19 31.078)">
      <path id="Trazado_202861" data-name="Trazado 202861" d="M152.016,232.008h15.535v3.107H152.016Zm0,0" transform="translate(-142.695 -218.026)" fill="#f67409"/>
      <path id="Trazado_202862" data-name="Trazado 202862" d="M104.016,264.008h18.642v3.107H104.016Zm0,0" transform="translate(-104.016 -243.812)" fill="#f67409"/>
      <path id="Trazado_202864" data-name="Trazado 202864" d="M104.016,296.008h9.321v3.107h-9.321Zm0,0" transform="translate(-104.016 -269.598)" fill="#f67409"/>
      <path id="Trazado_202865" data-name="Trazado 202865" d="M104.016,328.008h12.428v3.107H104.016Zm0,0" transform="translate(-104.016 -295.384)" fill="#f67409"/>
      <path id="Trazado_202866" data-name="Trazado 202866" d="M104.016,360.008h12.428v3.107H104.016Zm0,0" transform="translate(-104.016 -321.17)" fill="#f67409"/>
      <path id="Trazado_202867" data-name="Trazado 202867" d="M104.016,392.008h12.428v3.107H104.016Zm0,0" transform="translate(-104.016 -346.956)" fill="#f67409"/>
      <path id="Trazado_202868" data-name="Trazado 202868" d="M104.016,232.008h6.214v3.107h-6.214Zm0,0" transform="translate(-104.016 -218.026)" fill="#f67409"/>
      <path id="Trazado_202869" data-name="Trazado 202869" d="M168.016,296.008h6.214v3.107h-6.214Zm0,0" transform="translate(-155.588 -269.598)" fill="#f67409"/>
      <path id="Trazado_202871" data-name="Trazado 202871" d="M216.016,160.008h12.428v3.107H216.016Zm0,0" transform="translate(-194.267 -160.008)" fill="#f67409"/>
    </g>
    <path id="Trazado_202873" data-name="Trazado 202873" d="M40.118,100.539a1.554,1.554,0,0,1-1.1-.455l-4.661-4.661,2.2-2.2,3.562,3.562L54.555,82.352l2.2,2.2L41.217,100.084a1.554,1.554,0,0,1-1.1.455Zm0,0" transform="translate(-27.696 -66.354)" fill="#f67409"/>
    <path id="Trazado_202874" data-name="Trazado 202874" d="M193.028,112.6A16.884,16.884,0,0,0,192,109.336,2.6,2.6,0,0,0,193.028,112.6Zm0,0" transform="translate(-154.55 -88.098)" fill="#f67409"/>
    <path id="Trazado_202875" data-name="Trazado 202875" d="M185.756,96.748a17.157,17.157,0,0,0-1.591-2.839A2.585,2.585,0,0,0,185.756,96.748Zm0,0" transform="translate(-148.381 -75.667)" fill="#f67409"/>
    <path id="Trazado_202876" data-name="Trazado 202876" d="M391.784,49.1V33.562a1.554,1.554,0,0,0-1.554-1.554h-6.214v3.107h4.661V49.1Zm0,0" transform="translate(-309.453 -25.786)" fill="#f67409"/>
    <path id="Trazado_202877" data-name="Trazado 202877" d="M56.016,240.008v38.838a1.554,1.554,0,0,0,1.554,1.554H119.71a1.554,1.554,0,0,0,1.554-1.554V267.971h-3.107v9.321H59.123V240.008Zm0,0" transform="translate(-45.146 -193.395)" fill="#f67409"/>
    <path id="Trazado_202878" data-name="Trazado 202878" d="M106.371.163c-.049-.022-.095-.034-.145-.052a1.544,1.544,0,0,0-.4-.08.593.593,0,0,0-.1-.024H57.569a1.554,1.554,0,0,0-1.554,1.554V4.668h3.107V3.115h45.052V15.543a1.554,1.554,0,0,0,1.553,1.554h12.428v7.768h3.107V15.543c0-.033-.017-.062-.019-.1a1.514,1.514,0,0,0-.08-.4c-.017-.05-.03-.1-.052-.145a1.543,1.543,0,0,0-.31-.455L106.82.463a1.556,1.556,0,0,0-.449-.3Zm9.588,13.826h-8.678V5.312Zm0,0" transform="translate(-45.146 0)" fill="#f67409"/>
    <path id="Trazado_202879" data-name="Trazado 202879" d="M184.016,329.562V341.99a1.554,1.554,0,0,0,1.554,1.553h20.2v-3.107H187.123v-9.321h7.768v-3.107H185.57A1.554,1.554,0,0,0,184.016,329.562Zm0,0" transform="translate(-148.29 -264.306)" fill="#f67409"/>
    <path id="Trazado_202880" data-name="Trazado 202880" d="M216.016,360.008h9.321v3.107h-9.321Zm0,0" transform="translate(-174.076 -290.092)" fill="#f67409"/>
    <path id="Trazado_202881" data-name="Trazado 202881" d="M159.71,136.008a10.889,10.889,0,0,0-10.875,10.875v.156l-7.923,8.364-4.96-4.96a1.553,1.553,0,0,0-2.2,0l-13.982,13.982a1.554,1.554,0,0,0,0,2.2l21.749,21.749a1.554,1.554,0,0,0,2.2,0l4.661-4.661,8.223-8.22V199.7H96.016v3.107h62.141a1.554,1.554,0,0,0,1.554-1.554V163.971H156.6V171.1l-5.415-5.415,8.367-7.923h.155a10.875,10.875,0,1,0,0-21.749Zm-17.089,49.069-19.553-19.553,2.464-2.464,19.553,19.553Zm11.785-11.785-7.124,7.124-19.553-19.553,7.124-7.124,3.921,3.921-3.5,3.688a1.554,1.554,0,0,0,.03,2.175l7.768,7.768a1.553,1.553,0,0,0,2.166.03l3.69-3.5Zm5.3-18.642h-.777a1.556,1.556,0,0,0-1.069.426L144.2,168.011l-5.622-5.622,12.941-13.66a1.553,1.553,0,0,0,.419-1.069v-.777a7.768,7.768,0,1,1,7.768,7.768Zm0,0" transform="translate(-77.379 -109.59)" fill="#f67409"/>
    <path id="Trazado_202882" data-name="Trazado 202882" d="M152.016,232.008h15.535v3.107H152.016Zm0,0" transform="translate(-122.504 -186.948)" fill="#f67409"/>
    <path id="Trazado_202883" data-name="Trazado 202883" d="M104.016,264.008h18.642v3.107H104.016Zm0,0" transform="translate(-83.826 -212.734)" fill="#f67409"/>
    <path id="Trazado_202884" data-name="Trazado 202884" d="M176.016,200.008h18.642v3.107H176.016Zm0,0" transform="translate(-141.844 -161.162)" fill="#f67409"/>
    <path id="Trazado_202885" data-name="Trazado 202885" d="M104.016,296.008h9.321v3.107h-9.321Zm0,0" transform="translate(-83.826 -238.52)" fill="#f67409"/>
    <path id="Trazado_202886" data-name="Trazado 202886" d="M104.016,328.008h12.428v3.107H104.016Zm0,0" transform="translate(-83.826 -264.306)" fill="#f67409"/>
    <path id="Trazado_202887" data-name="Trazado 202887" d="M104.016,360.008h12.428v3.107H104.016Zm0,0" transform="translate(-83.826 -290.092)" fill="#f67409"/>
    <path id="Trazado_202888" data-name="Trazado 202888" d="M104.016,392.008h12.428v3.107H104.016Zm0,0" transform="translate(-83.826 -315.878)" fill="#f67409"/>
    <path id="Trazado_202889" data-name="Trazado 202889" d="M104.016,232.008h6.214v3.107h-6.214Zm0,0" transform="translate(-83.826 -186.948)" fill="#f67409"/>
    <path id="Trazado_202890" data-name="Trazado 202890" d="M168.016,296.008h6.214v3.107h-6.214Zm0,0" transform="translate(-135.397 -238.52)" fill="#f67409"/>
    <path id="Trazado_202891" data-name="Trazado 202891" d="M200.016,160.008h15.535v3.107H200.016Zm0,0" transform="translate(-161.183 -128.93)" fill="#f67409"/>
    <path id="Trazado_202892" data-name="Trazado 202892" d="M18.637,69.281a18.643,18.643,0,0,0,18.61-17.99,4.107,4.107,0,0,0,3.012.941,4.213,4.213,0,0,0,6.469,0A4.214,4.214,0,0,0,51.3,47.659a4.213,4.213,0,0,0,0-6.469,4.214,4.214,0,0,0-4.573-4.573,4.213,4.213,0,0,0-6.469,0,4.214,4.214,0,0,0-4.573,4.573,4.034,4.034,0,0,0-.621.64,18.642,18.642,0,1,0-16.427,27.45ZM38,43.4a1.552,1.552,0,0,0,.883-2.129,1.087,1.087,0,0,1,1.453-1.453,1.552,1.552,0,0,0,2.129-.883,1.088,1.088,0,0,1,2.051,0,1.553,1.553,0,0,0,2.13.883A1.087,1.087,0,0,1,48.1,41.27a1.552,1.552,0,0,0,.883,2.129,1.088,1.088,0,0,1,0,2.051,1.553,1.553,0,0,0-.883,2.13,1.045,1.045,0,0,1-.214,1.243,1.058,1.058,0,0,1-1.243.215,1.553,1.553,0,0,0-2.129.882,1.088,1.088,0,0,1-2.051,0,1.55,1.55,0,0,0-.87-.915A1.584,1.584,0,0,0,41,48.887a1.521,1.521,0,0,0-.665.156,1.087,1.087,0,0,1-1.452-1.453A1.554,1.554,0,0,0,38,45.459a1.087,1.087,0,0,1,0-2.05ZM18.637,35.1A15.535,15.535,0,1,1,3.1,50.639,15.535,15.535,0,0,1,18.637,35.1Zm0,0" transform="translate(0 -25.775)" fill="#f67409"/>
    <path id="Trazado_202893" data-name="Trazado 202893" d="M39.02,100.083a1.554,1.554,0,0,0,2.2,0L56.752,84.548l-2.2-2.2L40.118,96.788l-3.562-3.562-2.2,2.2Zm0,0" transform="translate(-27.695 -66.353)" fill="#f67409"/>
  </g>
</svg>
