<svg xmlns="http://www.w3.org/2000/svg" width="108.449" height="108.449" viewBox="0 0 108.449 108.449">
  <g id="ingresos" transform="translate(-1 -1)">
    <g id="Grupo_142793" data-name="Grupo 142793" transform="translate(1 1)">
      <path id="Trazado_202740" data-name="Trazado 202740" d="M16.746,52.489v-3.5h5.248V43.743A5.254,5.254,0,0,0,16.746,38.5h-3.5A1.751,1.751,0,0,1,11.5,36.746V35h5.248A1.751,1.751,0,0,1,18.5,36.746h3.5A5.254,5.254,0,0,0,16.746,31.5V28h-3.5v3.5H8v5.248a5.254,5.254,0,0,0,5.248,5.248h3.5A1.751,1.751,0,0,1,18.5,43.743v1.749H13.248A1.751,1.751,0,0,1,11.5,43.743H8a5.254,5.254,0,0,0,5.248,5.248v3.5Z" transform="translate(4.244 19.228)" fill="#f67409"/>
      <path id="Trazado_202741" data-name="Trazado 202741" d="M93.707,25.489a15.72,15.72,0,0,0-2.209.171A29.7,29.7,0,0,0,34.84,19.2a12.213,12.213,0,0,0-15.265,6.558A15.725,15.725,0,0,0,3.914,50.341,19.187,19.187,0,0,0,17.922,79.559L3.774,93.707l9.47,9.47L32.485,83.936l8.746,8.746L76.215,57.7l8.233,8.233,1.28-8.958h7.978a15.743,15.743,0,0,0,0-31.485ZM4.5,60.472A15.743,15.743,0,1,1,20.241,76.215,15.761,15.761,0,0,1,4.5,60.472Zm34.65-3.5H58L41.231,73.741l-4.086-4.086a19.013,19.013,0,0,0,2-12.682Zm37.067-4.223L41.231,87.735l-8.746-8.746L13.244,98.23,8.721,93.707l14.2-14.2A19.217,19.217,0,0,0,35.153,72.61l6.078,6.078,30.46-30.46-5.76-5.76L84.648,39.8,81.975,58.511Zm17.492.724H86.227l2.543-17.8L58.51,39.994l8.235,8.233L61.5,53.475H38.146A19.188,19.188,0,0,0,6.171,47.392a12.241,12.241,0,1,1,22.816-6.161h3.5a15.765,15.765,0,0,0-9.53-14.46,8.723,8.723,0,0,1,12.006-3.689l1.817,1.006.682-1.961a26.206,26.206,0,0,1,50.634,4.4,15.722,15.722,0,0,0-4.8,2.9l2.316,2.622a12.244,12.244,0,1,1,8.1,21.429Z" transform="translate(-1 -1)" fill="#f67409"/>
      <path id="Trazado_202742" data-name="Trazado 202742" d="M1,61H4.5v3.5H1Z" transform="translate(-1 43.951)" fill="#f67409"/>
      <path id="Trazado_202743" data-name="Trazado 202743" d="M61,61h3.5v3.5H61Z" transform="translate(43.951 43.951)" fill="#f67409"/>
      <path id="Trazado_202744" data-name="Trazado 202744" d="M76.716,41h-10.5V75.984h-3.5V54.993h-10.5v20.99h-3.5v-10.5h-10.5v10.5h-3.5V61.99h-10.5V75.984H5v3.5H99.456v-3.5H76.716Zm-7,3.5h3.5V75.984h-3.5ZM55.726,58.492h3.5V75.984h-3.5Zm-13.993,10.5h3.5v7h-3.5Zm-13.993-3.5h3.5v10.5h-3.5Z" transform="translate(1.997 28.967)" fill="#f67409"/>
      <path id="Trazado_202745" data-name="Trazado 202745" d="M45.185,5A22.778,22.778,0,0,0,23.74,20.16l3.3,1.167A19.277,19.277,0,0,1,45.185,8.5Z" transform="translate(16.036 1.997)" fill="#f67409"/>
      <path id="Trazado_202746" data-name="Trazado 202746" d="M42.2,6.16a22.622,22.622,0,0,0-3.792-.981L37.835,8.63a19.086,19.086,0,0,1,3.2.829Z" transform="translate(26.596 2.131)" fill="#f67409"/>
      <path id="Trazado_202747" data-name="Trazado 202747" d="M59.248,24A5.254,5.254,0,0,1,54,29.248v3.5A8.756,8.756,0,0,0,62.746,24Z" transform="translate(38.707 16.231)" fill="#f67409"/>
      <path id="Trazado_202748" data-name="Trazado 202748" d="M5,27.746H8.5A5.254,5.254,0,0,1,13.746,22.5V19A8.756,8.756,0,0,0,5,27.746Z" transform="translate(1.997 12.485)" fill="#f67409"/>
      <path id="Trazado_202749" data-name="Trazado 202749" d="M23,17h3.5v3.5H23Z" transform="translate(15.482 10.987)" fill="#f67409"/>
      <path id="Trazado_202750" data-name="Trazado 202750" d="M35,17h3.5v3.5H35Z" transform="translate(24.472 10.987)" fill="#f67409"/>
      <path id="Trazado_202751" data-name="Trazado 202751" d="M39,17h3.5v3.5H39Z" transform="translate(27.469 10.987)" fill="#f67409"/>
      <path id="Trazado_202752" data-name="Trazado 202752" d="M31,17h3.5v3.5H31Z" transform="translate(21.475 10.987)" fill="#f67409"/>
      <path id="Trazado_202753" data-name="Trazado 202753" d="M27,17h3.5v3.5H27Z" transform="translate(18.479 10.987)" fill="#f67409"/>
    </g>
  </g>
</svg>
