<svg id="configuraciones" xmlns="http://www.w3.org/2000/svg" width="97.896" height="97.896" viewBox="0 0 97.896 97.896">
  <g id="Grupo_142726" data-name="Grupo 142726" transform="translate(29.369 52.322)">
    <path id="Trazado_202463" data-name="Trazado 202463" d="M224.512,299.46c.095.121.186.245.277.37C224.7,299.7,224.607,299.581,224.512,299.46Z" transform="translate(-210.953 -294.524)" fill="#f67409"/>
    <path id="Trazado_202464" data-name="Trazado 202464" d="M219.255,293.393c.067.068.126.142.191.212C219.381,293.535,219.322,293.462,219.255,293.393Z" transform="translate(-206.701 -289.618)" fill="#f67409"/>
    <path id="Trazado_202465" data-name="Trazado 202465" d="M229.4,306.654c.059.1.124.2.181.3C229.526,306.85,229.461,306.758,229.4,306.654Z" transform="translate(-214.908 -300.343)" fill="#f67409"/>
    <path id="Trazado_202466" data-name="Trazado 202466" d="M233.813,315.418c.044.109.08.224.122.326C233.893,315.642,233.857,315.527,233.813,315.418Z" transform="translate(-218.476 -307.431)" fill="#f67409"/>
    <path id="Trazado_202467" data-name="Trazado 202467" d="M211.738,286.882c.1.078.211.153.312.233C211.948,287.034,211.841,286.96,211.738,286.882Z" transform="translate(-200.622 -284.351)" fill="#f67409"/>
    <path id="Trazado_202468" data-name="Trazado 202468" d="M204.655,282.18c.132.075.261.163.392.237C204.916,282.337,204.787,282.257,204.655,282.18Z" transform="translate(-194.893 -280.548)" fill="#f67409"/>
    <path id="Trazado_202469" data-name="Trazado 202469" d="M209.2,366.023a18.132,18.132,0,0,0,2.7-2.079,3.659,3.659,0,0,0,.6-.734,16.126,16.126,0,0,0,1.958-4.665A13.052,13.052,0,0,1,209.2,366.023Z" transform="translate(-198.565 -342.312)" fill="#f67409"/>
    <path id="Trazado_202470" data-name="Trazado 202470" d="M179.123,273.647c.155.018.307.046.459.07C179.43,273.7,179.278,273.665,179.123,273.647Z" transform="translate(-174.243 -273.647)" fill="#f67409"/>
    <path id="Trazado_202471" data-name="Trazado 202471" d="M197.453,278.528c.057.024.109.055.163.08C197.562,278.583,197.51,278.553,197.453,278.528Z" transform="translate(-189.068 -277.595)" fill="#f67409"/>
    <path id="Trazado_202472" data-name="Trazado 202472" d="M236.433,323.234c.042.153.082.307.119.462C236.515,323.541,236.475,323.387,236.433,323.234Z" transform="translate(-220.595 -313.753)" fill="#f67409"/>
    <path id="Trazado_202473" data-name="Trazado 202473" d="M165.727,409.3c-.37,0-.731-.038-1.093-.07C165,409.262,165.357,409.3,165.727,409.3Z" transform="translate(-162.524 -383.308)" fill="#f67409"/>
    <path id="Trazado_202474" data-name="Trazado 202474" d="M187.11,407.313l-.2.051Z" transform="translate(-180.544 -381.755)" fill="#f67409"/>
    <path id="Trazado_202475" data-name="Trazado 202475" d="M238.285,332.4c.013.1.033.189.044.285C238.318,332.588,238.3,332.5,238.285,332.4Z" transform="translate(-222.093 -321.165)" fill="#f67409"/>
    <path id="Trazado_202476" data-name="Trazado 202476" d="M155.171,407.764a14.268,14.268,0,0,1-1.571-.3A14.268,14.268,0,0,0,155.171,407.764Z" transform="translate(-153.6 -381.88)" fill="#f67409"/>
    <path id="Trazado_202477" data-name="Trazado 202477" d="M178.558,408.969c-.075.01-.145.025-.22.033C178.411,408.993,178.485,408.979,178.558,408.969Z" transform="translate(-173.608 -383.095)" fill="#f67409"/>
    <path id="Trazado_202478" data-name="Trazado 202478" d="M205.076,398.4c-.232.152-.47.294-.711.432C204.61,398.706,204.839,398.551,205.076,398.4Z" transform="translate(-194.658 -374.55)" fill="#f67409"/>
    <path id="Trazado_202479" data-name="Trazado 202479" d="M238.792,342.349c0,.142-.015.281-.021.421C238.778,342.63,238.791,342.481,238.792,342.349Z" transform="translate(-222.486 -329.213)" fill="#f67409"/>
    <path id="Trazado_202480" data-name="Trazado 202480" d="M237.792,351.053c-.028.193-.052.387-.088.576C237.738,351.436,237.766,351.246,237.792,351.053Z" transform="translate(-221.623 -336.253)" fill="#f67409"/>
    <path id="Trazado_202481" data-name="Trazado 202481" d="M187.631,275.277c.14.036.282.067.421.108C187.913,275.344,187.771,275.313,187.631,275.277Z" transform="translate(-181.124 -274.965)" fill="#f67409"/>
  </g>
  <g id="Grupo_142727" data-name="Grupo 142727" transform="translate(30.94 52.212)">
    <path id="Trazado_202483" data-name="Trazado 202483" d="M230.349,308.207a13.085,13.085,0,0,1,.663,1.379A13.065,13.065,0,0,0,230.349,308.207Z" transform="translate(-217.246 -301.488)" fill="#f67409"/>
    <path id="Trazado_202484" data-name="Trazado 202484" d="M234.453,317.158c.144.38.271.767.379,1.162C234.724,317.925,234.6,317.538,234.453,317.158Z" transform="translate(-220.565 -308.728)" fill="#f67409"/>
    <path id="Trazado_202485" data-name="Trazado 202485" d="M238.595,335.315a13.42,13.42,0,0,0-.08-1.423,13.04,13.04,0,0,1,.07,1.617A1.3,1.3,0,0,0,238.595,335.315Z" transform="translate(-223.85 -322.262)" fill="#f67409"/>
    <path id="Trazado_202486" data-name="Trazado 202486" d="M237.056,325.649q.149.639.235,1.291Q237.205,326.288,237.056,325.649Z" transform="translate(-222.67 -315.595)" fill="#f67409"/>
    <path id="Trazado_202487" data-name="Trazado 202487" d="M181.521,274.014c.4.062.785.144,1.168.241C182.306,274.159,181.918,274.076,181.521,274.014Z" transform="translate(-177.754 -273.833)" fill="#f67409"/>
    <path id="Trazado_202488" data-name="Trazado 202488" d="M170.667,273.067a13.09,13.09,0,0,1,1.617.111A13.093,13.093,0,0,0,170.667,273.067Z" transform="translate(-168.975 -273.067)" fill="#f67409"/>
    <path id="Trazado_202489" data-name="Trazado 202489" d="M198.315,278.946a12.621,12.621,0,0,1,1.212.618A13.063,13.063,0,0,0,198.315,278.946Z" transform="translate(-191.337 -277.822)" fill="#f67409"/>
    <path id="Trazado_202490" data-name="Trazado 202490" d="M189.833,275.84a12.721,12.721,0,0,1,1.457.514A12.721,12.721,0,0,0,189.833,275.84Z" transform="translate(-184.476 -275.31)" fill="#f67409"/>
    <path id="Trazado_202491" data-name="Trazado 202491" d="M225.963,301.4a11.151,11.151,0,0,1,.653,1.005A11.659,11.659,0,0,0,225.963,301.4Z" transform="translate(-213.698 -295.98)" fill="#f67409"/>
    <path id="Trazado_202492" data-name="Trazado 202492" d="M220.254,294.5q.428.453.816.948Q220.686,294.956,220.254,294.5Z" transform="translate(-209.081 -290.404)" fill="#f67409"/>
    <path id="Trazado_202493" data-name="Trazado 202493" d="M206.7,283.418c.326.207.653.429.963.663C207.354,283.847,207.034,283.625,206.7,283.418Z" transform="translate(-198.121 -281.439)" fill="#f67409"/>
    <path id="Trazado_202494" data-name="Trazado 202494" d="M213.333,288.1a12.933,12.933,0,0,1,1.126,1.012A13.773,13.773,0,0,0,213.333,288.1Z" transform="translate(-203.483 -285.227)" fill="#f67409"/>
    <path id="Trazado_202495" data-name="Trazado 202495" d="M191.079,400.666a13.983,13.983,0,0,1-3.141,1.271A12.993,12.993,0,0,0,191.079,400.666Z" transform="translate(-182.944 -376.268)" fill="#f67409"/>
    <path id="Trazado_202496" data-name="Trazado 202496" d="M180.876,407.578a13.113,13.113,0,0,1-1.419.266A13.15,13.15,0,0,0,180.876,407.578Z" transform="translate(-176.084 -381.859)" fill="#f67409"/>
    <path id="Trazado_202497" data-name="Trazado 202497" d="M170.419,409.227a12.987,12.987,0,0,0,1.468-.088,12.944,12.944,0,0,1-1.527.085Z" transform="translate(-168.727 -383.121)" fill="#f67409"/>
    <path id="Trazado_202498" data-name="Trazado 202498" d="M162.356,409.057c-.178-.016-.362-.015-.538-.037C161.994,409.043,162.178,409.041,162.356,409.057Z" transform="translate(-161.818 -383.025)" fill="#f67409"/>
    <path id="Trazado_202499" data-name="Trazado 202499" d="M238.281,344.55c-.018.411-.059.826-.116,1.243C238.224,345.384,238.261,344.969,238.281,344.55Z" transform="translate(-223.567 -330.882)" fill="#f67409"/>
    <path id="Trazado_202500" data-name="Trazado 202500" d="M208.3,397.653c-.07.046-.14.095-.212.139Z" transform="translate(-199.239 -373.832)" fill="#f67409"/>
    <path id="Trazado_202501" data-name="Trazado 202501" d="M236.856,354.065c-.052.285-.131.574-.2.862C236.728,354.641,236.8,354.357,236.856,354.065Z" transform="translate(-222.346 -338.578)" fill="#f67409"/>
  </g>
  <g id="Grupo_142728" data-name="Grupo 142728" transform="translate(0 0)">
    <path id="Trazado_202502" data-name="Trazado 202502" d="M60.369,195.141H58.575a1.6,1.6,0,0,1-1.511-1.054c-.2-.522-.413-1.033-.643-1.539a1.61,1.61,0,0,1,.326-1.821l1.279-1.281a4.906,4.906,0,0,0-.008-6.916l-4.611-4.611a4.906,4.906,0,0,0-6.918,0L45.21,179.2a1.616,1.616,0,0,1-1.821.326c-.506-.23-1.016-.444-1.54-.653a1.6,1.6,0,0,1-1.059-1.514v-1.795a4.894,4.894,0,0,0-4.895-4.895H29.369a4.894,4.894,0,0,0-4.895,4.895v1.795a1.6,1.6,0,0,1-1.054,1.511c-.522.2-1.033.413-1.539.643a1.616,1.616,0,0,1-1.821-.326L18.78,177.9a4.907,4.907,0,0,0-6.916,0L7.252,182.53a4.906,4.906,0,0,0,0,6.918l1.278,1.279a1.611,1.611,0,0,1,.326,1.821c-.23.506-.444,1.016-.645,1.54a1.6,1.6,0,0,1-1.522,1.052H4.895A4.894,4.894,0,0,0,0,200.036v6.527a4.894,4.894,0,0,0,4.895,4.895H6.69A1.6,1.6,0,0,1,8.2,212.511c.2.522.413,1.033.643,1.539a1.61,1.61,0,0,1-.326,1.821l-1.279,1.281a4.907,4.907,0,0,0,0,6.916l4.611,4.611a4.906,4.906,0,0,0,6.918,0l1.279-1.278a1.616,1.616,0,0,1,1.821-.326c.506.23,1.016.444,1.54.653a1.6,1.6,0,0,1,1.067,1.514v1.795a4.894,4.894,0,0,0,4.895,4.895H35.9a4.894,4.894,0,0,0,4.895-4.895v-1.795a1.6,1.6,0,0,1,1.054-1.511c.522-.2,1.033-.413,1.539-.643a1.616,1.616,0,0,1,1.821.326l1.281,1.279a4.909,4.909,0,0,0,6.916-.008l4.611-4.611a4.906,4.906,0,0,0,0-6.918l-1.278-1.279a1.61,1.61,0,0,1-.326-1.821c.23-.506.444-1.016.653-1.54a1.6,1.6,0,0,1,1.514-1.059h1.795a4.894,4.894,0,0,0,4.895-4.895v-6.526A4.894,4.894,0,0,0,60.369,195.141ZM62,206.562a1.632,1.632,0,0,1-1.632,1.632H58.575a4.912,4.912,0,0,0-4.568,3.155q-.26.685-.561,1.349a4.909,4.909,0,0,0,.979,5.476l1.276,1.278a1.631,1.631,0,0,1,0,2.307l0,0-4.611,4.611a1.633,1.633,0,0,1-2.307,0L47.5,225.094a4.906,4.906,0,0,0-5.476-.979c-.442.2-.893.388-1.346.561a4.91,4.91,0,0,0-3.154,4.565v1.795a1.632,1.632,0,0,1-1.632,1.632H29.369a1.632,1.632,0,0,1-1.632-1.632v-1.795a4.912,4.912,0,0,0-3.155-4.568q-.685-.26-1.349-.561a4.912,4.912,0,0,0-5.476.979l-1.278,1.276a1.631,1.631,0,0,1-2.307,0l0,0L9.56,221.761a1.633,1.633,0,0,1,0-2.307l1.278-1.279a4.909,4.909,0,0,0,.979-5.476c-.2-.442-.388-.893-.561-1.346a4.909,4.909,0,0,0-4.565-3.159h-1.8a1.632,1.632,0,0,1-1.632-1.632v-6.526A1.632,1.632,0,0,1,4.895,198.4H6.69a4.912,4.912,0,0,0,4.568-3.155q.26-.685.561-1.349a4.909,4.909,0,0,0-.979-5.476l-1.282-1.278a1.631,1.631,0,0,1,0-2.307l0,0,4.611-4.611a1.633,1.633,0,0,1,2.307,0l1.279,1.278a4.906,4.906,0,0,0,5.476.979c.442-.2.893-.388,1.346-.561a4.91,4.91,0,0,0,3.16-4.565v-1.795a1.632,1.632,0,0,1,1.632-1.632H35.9a1.632,1.632,0,0,1,1.632,1.632v1.795a4.912,4.912,0,0,0,3.155,4.568q.685.26,1.349.561a4.906,4.906,0,0,0,5.476-.979l1.278-1.276a1.641,1.641,0,0,1,2.309,0l4.611,4.611a1.633,1.633,0,0,1,0,2.307l-1.278,1.279a4.909,4.909,0,0,0-.979,5.476c.2.442.388.893.561,1.346a4.91,4.91,0,0,0,4.565,3.154h1.795A1.632,1.632,0,0,1,62,200.036v6.527Z" transform="translate(0 -138.035)" fill="#f67409"/>
    <path id="Trazado_202503" data-name="Trazado 202503" d="M123.165,278.566c-.016-.392-.044-.781-.091-1.17-.052-.418-.114-.832-.2-1.238-.057-.266-.132-.529-.2-.793q-.137-.5-.308-.994-.12-.34-.248-.676a14.631,14.631,0,0,0-.719-1.527c-.021-.037-.034-.078-.055-.116a14.4,14.4,0,0,0-1.468-2.139c-.047-.059-.1-.114-.15-.171-.225-.266-.457-.524-.7-.77-.127-.132-.261-.256-.395-.383-.163-.152-.326-.3-.489-.445q-.3-.257-.605-.5l-.267-.2a14.58,14.58,0,0,0-8.749-2.911c-.163,0-.326.024-.489.031-.348.01-.7.029-1.047.065-.184.02-.37.041-.555.067a14.876,14.876,0,0,0-1.581.3,14.692,14.692,0,0,0,.011,28.454.376.376,0,0,1,.082.015,15.567,15.567,0,0,0,1.71.326c.38.047.76.057,1.142.075.254.013.489.051.755.051.465,0,.948-.031,1.441-.08a1.607,1.607,0,0,0,.163-.021c.4-.044.8-.1,1.207-.184.163-.031.315-.072.472-.108.287-.067.573-.137.866-.224.228-.068.45-.149.674-.227s.455-.163.687-.251.426-.189.636-.287c.274-.126.547-.25.816-.4h.01a19.346,19.346,0,0,0,4.182-3.02,5.155,5.155,0,0,0,.875-1.07,17.409,17.409,0,0,0,2.457-6.706c.046-.315.086-.63.111-.951.023-.3.039-.589.046-.883,0-.093.013-.181.013-.274C123.2,279,123.175,278.788,123.165,278.566Zm-17.518-10.41a11.794,11.794,0,0,1,2.867-.359,11.385,11.385,0,0,1,1.4.095c.124.015.246.037.369.055.352.055.7.126,1.046.214.113.029.225.055.336.086a11.463,11.463,0,0,1,2.488,1.047c.126.073.248.15.372.227.258.163.507.326.754.512.132.1.266.191.393.294a12.075,12.075,0,0,1,.919.816c.116.117.222.246.334.369.188.2.37.413.545.633.121.152.237.308.351.467.163.235.326.48.473.728.082.135.163.267.246.406a11.055,11.055,0,0,1,.561,1.2c.065.163.121.326.18.489.106.3.2.6.277.91.041.163.086.308.121.467a11.543,11.543,0,0,1,.207,1.336c.01.119.01.24.018.359.023.375.029.752.015,1.131,0,.135-.011.271-.02.4-.029.395-.08.79-.147,1.186a11.448,11.448,0,0,1-5.733,7.995c-.2.106-.4.206-.6.3l-.135.065a11.788,11.788,0,0,1-2.976.9c-.072.011-.145.024-.219.034-.2.029-.4.054-.6.072-.263.023-.527.036-.8.041h-.341a11.424,11.424,0,0,1-1.155-.072l-.2-.023a11.9,11.9,0,0,1-1.333-.251,11.421,11.421,0,0,1-.011-22.126Z" transform="translate(-75.881 -213.954)" fill="#f67409"/>
    <path id="Trazado_202504" data-name="Trazado 202504" d="M168.284,34.264h-5.131a1.593,1.593,0,0,1-1.521-1.07A33.834,33.834,0,0,0,159.8,28.77a1.6,1.6,0,0,1,.313-1.842l3.638-3.643a4.9,4.9,0,0,0,0-6.92l-6.938-6.926a4.9,4.9,0,0,0-6.92,0l-3.637,3.635a1.6,1.6,0,0,1-1.841.315,33.8,33.8,0,0,0-4.425-1.842,1.592,1.592,0,0,1-1.077-1.521V4.895A4.894,4.894,0,0,0,134.02,0h-9.79a4.894,4.894,0,0,0-4.895,4.895v5.131a1.593,1.593,0,0,1-1.07,1.521,34.087,34.087,0,0,0-4.423,1.841A1.6,1.6,0,0,1,112,13.074l-3.643-3.638a4.905,4.905,0,0,0-6.92,0L94.512,16.36a4.895,4.895,0,0,0,0,6.921l5.35,5.36a1.632,1.632,0,0,0,2.31-2.3l-5.353-5.358a1.633,1.633,0,0,1,0-2.307l6.924-6.924a1.633,1.633,0,0,1,2.307,0l3.645,3.638a4.85,4.85,0,0,0,5.606.92,30.765,30.765,0,0,1,4-1.663,4.854,4.854,0,0,0,3.3-4.617V4.895a1.632,1.632,0,0,1,1.632-1.632h9.79a1.632,1.632,0,0,1,1.632,1.632v5.131a4.852,4.852,0,0,0,3.3,4.616,30.807,30.807,0,0,1,4,1.664,4.862,4.862,0,0,0,5.6-.922l3.645-3.637a1.633,1.633,0,0,1,2.307,0l6.924,6.926a1.631,1.631,0,0,1,0,2.306l-3.638,3.645a4.856,4.856,0,0,0-.92,5.606,30.765,30.765,0,0,1,1.663,4,4.852,4.852,0,0,0,4.617,3.3h5.132a1.632,1.632,0,0,1,1.632,1.632v9.79a1.632,1.632,0,0,1-1.632,1.632h-5.131a4.852,4.852,0,0,0-4.616,3.3,30.811,30.811,0,0,1-1.664,4,4.856,4.856,0,0,0,.922,5.6l3.638,3.645a1.633,1.633,0,0,1,0,2.307L154.5,76.359a1.631,1.631,0,0,1-2.306,0l-5.362-5.35a1.632,1.632,0,1,0-2.345,2.27l.041.039,5.36,5.35a4.9,4.9,0,0,0,6.92,0l6.924-6.923a4.895,4.895,0,0,0,0-6.921L160.1,61.185a1.6,1.6,0,0,1-.315-1.841,33.806,33.806,0,0,0,1.842-4.425,1.592,1.592,0,0,1,1.521-1.077h5.132a4.894,4.894,0,0,0,4.895-4.895v-9.79A4.894,4.894,0,0,0,168.284,34.264Z" transform="translate(-75.282 0)" fill="#f67409"/>
    <path id="Trazado_202505" data-name="Trazado 202505" d="M231.218,125.724a21.233,21.233,0,0,0-30,0,1.632,1.632,0,0,0,2.307,2.307,17.948,17.948,0,0,1,25.551,25.212c-.057.057-.113.114-.17.17a1.632,1.632,0,1,0,2.268,2.346l.039-.039A21.232,21.232,0,0,0,231.218,125.724Z" transform="translate(-162.377 -96.668)" fill="#f67409"/>
  </g>
</svg>
